<?xml version="1.0" encoding="UTF-8" standalone="no"?>
<svg
   xmlns:dc="http://purl.org/dc/elements/1.1/"
   xmlns:cc="http://creativecommons.org/ns#"
   xmlns:rdf="http://www.w3.org/1999/02/22-rdf-syntax-ns#"
   xmlns:svg="http://www.w3.org/2000/svg"
   xmlns="http://www.w3.org/2000/svg"
   xmlns:xlink="http://www.w3.org/1999/xlink"
   xmlns:sodipodi="http://sodipodi.sourceforge.net/DTD/sodipodi-0.dtd"
   xmlns:inkscape="http://www.inkscape.org/namespaces/inkscape"
   inkscape:version="1.0beta1 (32d4812, 2019-09-19)"
   id="svg1408"
   version="1.1"
   viewBox="0 0 238.12499 317.50001"
   height="1200"
   width="900">
  <defs
     id="defs1402">
    <clipPath
       id="SVGID_2_">
      <use
         xlink:href="#SVGID_1_"
         overflow="visible"
         id="use1978"
         x="0"
         y="0"
         width="100%"
         height="100%" />
    </clipPath>
    <circle
       id="SVGID_1_"
       cx="231.7"
       cy="310.29999"
       r="136.5" />
    <clipPath
       id="SVGID_4_">
      <use
         height="100%"
         width="100%"
         y="0"
         x="0"
         id="use2092"
         overflow="visible"
         xlink:href="#SVGID_3_" />
    </clipPath>
    <circle
       r="136.5"
       cy="310.29999"
       cx="543.90002"
       id="SVGID_3_" />
    <clipPath
       id="SVGID_6_">
      <use
         height="100%"
         width="100%"
         y="0"
         x="0"
         id="use2158"
         overflow="visible"
         xlink:href="#SVGID_5_" />
    </clipPath>
    <circle
       r="136.5"
       cy="310.29999"
       cx="856.09998"
       id="SVGID_5_" />
    <clipPath
       id="SVGID_8_">
      <use
         height="100%"
         width="100%"
         y="0"
         x="0"
         id="use2256"
         overflow="visible"
         xlink:href="#SVGID_7_" />
    </clipPath>
    <circle
       r="136.5"
       cy="310.29999"
       cx="1168.3"
       id="SVGID_7_" />
    <clipPath
       id="SVGID_10_">
      <use
         height="100%"
         width="100%"
         y="0"
         x="0"
         id="use2342"
         overflow="visible"
         xlink:href="#SVGID_9_" />
    </clipPath>
    <circle
       r="136.5"
       cy="669.70001"
       cx="231.7"
       id="SVGID_9_" />
    <clipPath
       id="SVGID_12_">
      <use
         height="100%"
         width="100%"
         y="0"
         x="0"
         id="use2418"
         overflow="visible"
         xlink:href="#SVGID_11_" />
    </clipPath>
    <circle
       r="136.5"
       cy="669.70001"
       cx="543.90002"
       id="SVGID_11_" />
    <clipPath
       id="SVGID_14_">
      <use
         height="100%"
         width="100%"
         y="0"
         x="0"
         id="use2556"
         overflow="visible"
         xlink:href="#SVGID_13_" />
    </clipPath>
    <circle
       r="136.5"
       cy="669.70001"
       cx="856.09998"
       id="SVGID_13_" />
    <clipPath
       id="SVGID_16_">
      <use
         height="100%"
         width="100%"
         y="0"
         x="0"
         id="use2684"
         overflow="visible"
         xlink:href="#SVGID_15_" />
    </clipPath>
    <circle
       r="136.5"
       cy="669.70001"
       cx="1168.3"
       id="SVGID_15_" />
  </defs>
  <sodipodi:namedview
     inkscape:window-maximized="0"
     inkscape:window-y="134"
     inkscape:window-x="20"
     inkscape:window-height="907"
     inkscape:window-width="1600"
     units="px"
     showgrid="false"
     inkscape:document-rotation="0"
     inkscape:current-layer="layer1"
     inkscape:document-units="mm"
     inkscape:cy="560"
     inkscape:cx="400"
     inkscape:zoom="0.35"
     inkscape:pageshadow="2"
     inkscape:pageopacity="0.0"
     borderopacity="1.0"
     bordercolor="#666666"
     pagecolor="#ffffff"
     id="base" />
  <metadata
     id="metadata1405">
    <rdf:RDF>
      <cc:Work
         rdf:about="">
        <dc:format>image/svg+xml</dc:format>
        <dc:type
           rdf:resource="http://purl.org/dc/dcmitype/StillImage" />
        <dc:title></dc:title>
      </cc:Work>
    </rdf:RDF>
  </metadata>
  <g
     id="layer1"
     inkscape:groupmode="layer"
     inkscape:label="Layer 1">
    <g
       transform="matrix(1.0583333,0,0,1.0583333,-773.51771,-143.21681)"
       id="XMLID_107_">
      <path
         inkscape:connector-curvature="0"
         id="XMLID_73_"
         fill="#161615"
         d="m 822.7,433.2 c -16.9,0.7 -33.8,1.5 -50.7,2.1 -7.8,0.3 -10.8,-2.3 -12.1,-10 -0.7,-4.2 -0.7,-8.5 -0.9,-12.8 -0.8,-20.2 -1.3,-40.5 1.4,-60.6 3.7,-27.3 19.1,-45.7 44.1,-56.6 4.9,-2.2 9.9,-4.3 15.5,-3.9 0.9,0.1 1.6,0 2.2,-0.9 2.5,-3.4 1.2,-8.1 -2.7,-9.5 -11.7,-4.2 -20.1,-12.4 -27,-22.4 -1.5,-2.1 -2.5,-3.4 -5.6,-2.2 -4.3,1.6 -8.7,0.6 -12.6,-2 -3,-1.9 -4.5,-4.7 -4.6,-8.3 0,-4.6 0.3,-9.1 2.1,-13.3 1,-2.5 2.5,-4.7 5.2,-5.4 2.2,-0.6 2.4,-1.9 2.2,-3.8 -1.5,-13.2 0.5,-26 5.4,-38.1 3.7,-9.2 9.5,-17.5 17.5,-23.6 6.9,-5.2 15.4,-6.7 23.6,-8.7 5.5,-1.3 11.2,-1.9 16.8,-1.6 27.2,1.3 56.3,20.5 61.1,52.3 0.8,5.7 0.5,11.5 0,17.3 -0.3,3.3 -1,5.7 2.9,8 5,2.9 6.3,13.3 3.5,19.3 -3.2,7 -8.2,9.4 -17.8,7.8 -2.5,-0.4 -3.8,0.3 -5.3,2 -7.2,7.6 -14.8,14.7 -24.1,19.6 -0.9,0.5 -1.9,1 -2,2 -0.6,4.4 -0.5,8.8 0,13.2 0.1,1 0.8,1.4 1.9,1 6,-2.2 11.6,-0.3 17.1,2.1 10.2,4.4 19.7,10.1 27.7,17.8 11.5,11.1 16.4,25.4 18.7,40.7 3.4,23.1 2.1,46.3 1.1,69.4 0,0.1 0,0.2 0,0.4 -0.9,8.9 -1.7,9.5 -10.6,9.9 -26.3,1.2 -52.5,-2.2 -78.7,-1.1 -5.3,0.1 -10.3,-0.1 -15.3,-0.1 z M 877,302 c -3,8.7 -7,16.5 -11.7,23.9 -3.5,5.6 -4.9,5.9 -10.3,1.8 -3,-2.4 -5.3,-5.4 -7.8,-8.3 -2.1,-2.4 -4.1,-2.9 -6.2,0 -2,2.8 -4,5.6 -6.1,8.3 -3.2,4.1 -5.9,4.4 -10,1.3 -1.6,-1.2 -3.1,-2.5 -4.6,-3.7 -6.3,-5 -10.3,-12 -15.9,-18.2 -0.7,13 0.6,25.5 1.7,38.1 1.1,12 2.4,23.9 3.3,35.8 1.1,14.7 1.4,29.4 1.4,44.1 0,2 0.7,2.4 2.5,2.4 18,-0.6 36.1,-0.3 54.1,-0.2 3,0 3.8,-0.7 3.9,-3.8 0.2,-17.5 0.5,-35.1 2.3,-52.5 2.3,-21.6 4.7,-43.1 4.2,-64.9 0.2,-1.1 0.8,-2.4 -0.8,-4.1 z m 17.3,-83.6 c -0.3,-7.4 -0.2,-14.4 -1.2,-21.2 -0.7,-5 -1.7,-10.2 -4.4,-14.7 -7.1,-11.8 -17.9,-18.8 -30.8,-22.8 -10.5,-3.2 -21.3,-2.8 -32,-1.4 -6.1,0.8 -12.2,2.2 -17.5,4.8 -8.6,4.2 -13.7,12.3 -17.5,21 -4.1,9.5 -5.3,19.6 -5.1,29.8 0.2,9.5 0.4,8.3 8.9,7.4 16.7,-1.7 33.3,-3.5 49.7,-7.3 11.9,-2.8 24.7,-4.5 31.1,-17.4 0.4,-0.9 1.2,-1.8 2.3,-1.4 1.2,0.4 0.9,1.6 0.9,2.6 0,2.1 -0.3,4.1 0.6,6.1 2.9,6.8 7.7,11.4 15,14.5 z m -19.1,-11.9 c -4.9,6 -11.2,8.8 -17.8,10.7 -21.9,6.3 -44.2,9.5 -67,9.6 -2.9,0 -3.5,0.5 -2.7,3.4 2.9,11 8.4,20.6 16,29 15.3,16.9 38,18.6 54.7,9.7 13.4,-7.1 23.6,-17.8 31.3,-30.8 2.1,-3.5 3.2,-7.4 3.8,-11.4 0.2,-1.6 0.1,-2.6 -1.9,-3.1 -8.2,-2.5 -13.7,-8.1 -16.4,-17.1 z m 21,107.5 c 1.1,16.7 -1,32.5 -2.9,48.3 -2.5,21 -3.4,42 -3.6,63.1 0,2.6 0.7,3.3 3.3,3.2 8,-0.3 15.9,-0.4 23.9,-0.4 2.3,0 2.5,-1 2.5,-2.9 -0.1,-17.3 0.1,-34.6 -0.2,-51.9 -0.2,-13 -1.9,-25.9 -6.7,-38.2 -3.2,-8.3 -8.3,-15.3 -16.3,-21.2 z m -110.4,1.7 c -4.8,4.3 -8,8.8 -10.4,13.9 -6.6,14.1 -8.2,29.2 -8.4,44.5 -0.3,18 -0.1,36.1 -0.3,54.1 0,2.2 0.9,2.1 2.3,2 7.2,-0.6 14.4,-1.1 21.6,-1.6 1.4,-0.1 1.9,-0.4 1.9,-1.9 -0.1,-17.2 -0.4,-34.4 -2,-51.5 -1.2,-13.3 -2.6,-26.6 -4.1,-39.8 -0.5,-6.3 -0.4,-12.6 -0.6,-19.7 z m 94.4,-11.6 c 0.5,5.8 1.3,11 1.5,16.2 0.6,18.9 -1.2,37.6 -2.7,56.4 -1.3,16.1 -1.6,32.3 -2.4,48.4 -0.1,1.4 0.4,2.1 1.9,2.1 1.2,0 2.5,-0.2 3.7,0.1 3,0.9 3.4,-0.4 3.3,-3.1 -0.3,-17 0,-34 2,-50.9 2.3,-18.8 4.4,-37.6 6.7,-56.4 0.3,-2.8 -0.2,-4.9 -3,-6.3 -3.5,-1.8 -6.9,-4.1 -11,-6.5 z m -83.3,104.3 c 0,5.5 0,11 0,16.6 0,1 -0.4,2.3 0.7,2.7 2.4,0.9 4.9,0 7.2,-0.6 2,-0.5 1,-2.5 0.9,-3.8 -0.9,-12.3 -1.2,-24.7 -1.6,-37.1 -0.1,-4.4 -0.3,-8.8 -0.7,-13.2 -1.5,-15.3 -2.9,-30.7 -2.8,-46.1 0,-6.2 0,-12.5 0.8,-18.7 0.3,-2.7 -0.7,-3.1 -2.9,-1.5 -2.3,1.7 -4.6,3.3 -7,4.8 -2.2,1.4 -2.9,3.2 -2.8,5.8 0.6,14.1 3.1,27.9 4.8,41.9 2.1,16.2 3.6,32.6 3.4,49.2 z M 838,284 c -1.7,-0.1 -3.4,-0.1 -5.1,-0.3 -2.3,-0.3 -3.4,0.2 -3.3,2.8 0.1,3 -0.7,5.9 -2.4,8.4 -1.2,1.9 -0.9,3.1 0.6,4.4 4.1,3.5 8.2,7 12.2,10.6 0.9,0.8 1.4,0.5 2.2,0 4.3,-3.2 8.7,-6.4 13,-9.6 0.7,-0.5 1.3,-1.1 0.8,-2.1 -2.4,-4.8 -1.6,-9.8 -0.5,-14.7 0.6,-2.5 -0.3,-2.4 -2.2,-1.8 -5,1.6 -10.1,2.3 -15.3,2.3 z m -20.6,12.9 c -1.9,0.8 -4.2,1.7 -6.4,2.7 -1.8,0.8 -4.2,1.5 -4.9,2.9 -0.6,1.3 2.1,2.1 3.2,3.5 4.1,5.3 8.4,10.5 13.7,14.7 6.6,5.3 6.6,5.3 11.7,-1.4 0.3,-0.4 0.6,-0.8 0.9,-1.1 2.3,-1.8 1.8,-3.2 -0.2,-4.9 -3.1,-2.6 -6.7,-4.9 -8.9,-8.1 -2.1,-3.1 -7.2,-3.3 -7.4,-8 -0.1,-0.6 -0.9,-0.3 -1.7,-0.3 z m 29.1,17 c 4.6,2.5 7.3,6.5 10.7,9.6 1.6,1.4 2.5,1.4 3.6,-0.5 3.2,-5.6 6.5,-11.2 9.8,-16.8 3.6,-6.1 3.6,-6.1 -3.5,-7.9 -1.4,-0.3 -4.2,-2.1 -3.1,1.9 0.2,0.7 -0.5,1 -1,1.4 -5.3,4 -10.7,8 -16.5,12.3 z m -70.4,-74 c -0.1,7.2 3,10.9 9.1,11.6 0.7,0.1 1.5,0.5 2.1,-0.2 0.7,-0.9 0,-1.6 -0.4,-2.3 -2.3,-4.6 -4.1,-9.4 -5.5,-14.4 -0.2,-0.8 -0.1,-1.8 -1.3,-1.9 -1.1,-0.1 -1.8,0.4 -2.4,1.3 -1.3,2 -1.6,4.1 -1.6,5.9 z m 116.7,11.8 c 4.1,-1.4 7.5,-3.7 10.4,-6.8 2.8,-3.1 2.6,-6.6 2,-10.3 -0.2,-1.1 -0.9,-1.7 -2,-1.9 -0.9,-0.1 -1.6,0.2 -1.8,1.3 -1.5,6.5 -5.1,12 -8.6,17.7 z" />
      <path
         inkscape:connector-curvature="0"
         id="XMLID_72_"
         fill="#FEFEFE"
         d="m 877,302 c 1.5,1.6 1,2.9 1,4.1 0.5,21.7 -1.9,43.3 -4.2,64.9 -1.8,17.4 -2.1,35 -2.3,52.5 0,3.1 -0.9,3.8 -3.9,3.8 -18,-0.1 -36.1,-0.4 -54.1,0.2 -1.8,0.1 -2.5,-0.3 -2.5,-2.4 0,-14.7 -0.3,-29.4 -1.4,-44.1 -0.9,-12 -2.2,-23.9 -3.3,-35.8 -1.1,-12.5 -2.4,-25 -1.7,-38.1 5.5,6.3 9.6,13.3 15.9,18.2 1.5,1.2 3,2.5 4.6,3.7 4.1,3.1 6.8,2.8 10,-1.3 2.1,-2.7 4.1,-5.5 6.1,-8.3 2.1,-2.9 4.1,-2.5 6.2,0 2.5,2.9 4.8,5.9 7.8,8.3 5.4,4.1 6.8,3.9 10.3,-1.8 4.5,-7.4 8.6,-15.1 11.5,-23.9 z" />
      <path
         inkscape:connector-curvature="0"
         id="XMLID_71_"
         fill="#5A5A5A"
         d="m 894.3,218.4 c -7.4,-3.1 -12.1,-7.7 -14.9,-14.3 -0.9,-2.1 -0.6,-4.1 -0.6,-6.1 0,-0.9 0.3,-2.1 -0.9,-2.6 -1.1,-0.4 -1.9,0.5 -2.3,1.4 -6.4,12.9 -19.2,14.6 -31.1,17.4 -16.3,3.8 -33,5.6 -49.7,7.3 -8.5,0.8 -8.7,2.1 -8.9,-7.4 -0.2,-10.3 0.9,-20.3 5.1,-29.8 3.8,-8.7 8.9,-16.8 17.5,-21 5.3,-2.6 11.5,-4 17.5,-4.8 10.8,-1.4 21.5,-1.8 32,1.4 12.9,4 23.7,11 30.8,22.8 2.7,4.5 3.7,9.7 4.4,14.7 1,6.6 0.8,13.6 1.1,21 z" />
      <path
         inkscape:connector-curvature="0"
         id="XMLID_70_"
         fill="#FADFC3"
         d="m 875.2,206.5 c 2.7,9 8.1,14.5 16.5,17 2,0.6 2.1,1.6 1.9,3.1 -0.6,4 -1.7,7.9 -3.8,11.4 -7.8,13 -18,23.7 -31.3,30.8 -16.7,8.9 -39.4,7.2 -54.7,-9.7 -7.6,-8.4 -13.1,-17.9 -16,-29 -0.8,-2.9 -0.2,-3.4 2.7,-3.4 22.7,-0.1 45.1,-3.2 67,-9.6 6.6,-1.8 12.8,-4.6 17.7,-10.6 z" />
      <path
         inkscape:connector-curvature="0"
         id="XMLID_69_"
         fill="#F8F7F7"
         d="m 896.2,314 c 8,5.9 13.1,12.9 16.4,21.3 4.8,12.3 6.5,25.1 6.7,38.2 0.3,17.3 0.1,34.6 0.2,51.9 0,1.9 -0.2,2.9 -2.5,2.9 -8,0 -15.9,0.1 -23.9,0.4 -2.6,0.1 -3.3,-0.6 -3.3,-3.2 0.2,-21.1 1.1,-42.1 3.6,-63.1 1.8,-15.9 4,-31.7 2.8,-48.4 z" />
      <path
         inkscape:connector-curvature="0"
         id="XMLID_68_"
         fill="#F8F7F7"
         d="m 785.8,315.7 c 0.1,7 0,13.4 0.7,19.7 1.5,13.3 2.9,26.5 4.1,39.8 1.6,17.1 1.9,34.3 2,51.5 0,1.5 -0.6,1.8 -1.9,1.9 -7.2,0.5 -14.4,1.1 -21.6,1.6 -1.5,0.1 -2.4,0.2 -2.3,-2 0.2,-18 0,-36.1 0.3,-54.1 0.3,-15.3 1.9,-30.4 8.4,-44.5 2.4,-5 5.5,-9.6 10.3,-13.9 z" />
      <path
         inkscape:connector-curvature="0"
         id="XMLID_67_"
         fill="#5A5A5A"
         d="m 880.2,304.1 c 4.1,2.5 7.5,4.7 11.1,6.5 2.8,1.4 3.3,3.5 3,6.3 -2.3,18.8 -4.4,37.6 -6.7,56.4 -2.1,16.9 -2.4,33.9 -2,50.9 0,2.6 -0.3,4 -3.3,3.1 -1.1,-0.3 -2.4,-0.1 -3.7,-0.1 -1.4,0 -1.9,-0.7 -1.9,-2.1 0.8,-16.1 1.1,-32.3 2.4,-48.4 1.5,-18.8 3.3,-37.5 2.7,-56.4 -0.3,-5.2 -1.1,-10.4 -1.6,-16.2 z" />
      <path
         inkscape:connector-curvature="0"
         id="XMLID_66_"
         fill="#5A5A5A"
         d="m 796.9,408.4 c 0.2,-16.6 -1.3,-33 -3.3,-49.4 -1.7,-13.9 -4.2,-27.8 -4.8,-41.9 -0.1,-2.6 0.6,-4.4 2.8,-5.8 2.4,-1.5 4.7,-3.1 7,-4.8 2.2,-1.6 3.2,-1.1 2.9,1.5 -0.7,6.2 -0.7,12.5 -0.8,18.7 0,15.4 1.3,30.8 2.8,46.1 0.4,4.4 0.6,8.8 0.7,13.2 0.4,12.4 0.7,24.7 1.6,37.1 0.1,1.3 1.1,3.3 -0.9,3.8 -2.3,0.6 -4.8,1.5 -7.2,0.6 -1.1,-0.4 -0.7,-1.7 -0.7,-2.7 -0.1,-5.4 -0.1,-10.9 -0.1,-16.4 z" />
      <path
         inkscape:connector-curvature="0"
         id="XMLID_65_"
         fill="#F4DBBF"
         d="m 838,284 c 5.2,0 10.3,-0.7 15.2,-2.3 1.9,-0.6 2.8,-0.8 2.2,1.8 -1.1,4.9 -1.8,9.9 0.5,14.7 0.5,1 -0.1,1.6 -0.8,2.1 -4.3,3.2 -8.7,6.4 -13,9.6 -0.8,0.6 -1.3,0.8 -2.2,0 -4,-3.6 -8.1,-7.1 -12.2,-10.6 -1.5,-1.3 -1.8,-2.6 -0.6,-4.4 1.6,-2.5 2.5,-5.4 2.4,-8.4 -0.1,-2.6 1,-3.2 3.3,-2.8 1.8,0.2 3.5,0.2 5.2,0.3 z" />
      <path
         inkscape:connector-curvature="0"
         id="XMLID_64_"
         fill="#F8F7F7"
         d="m 817.4,296.9 c 0.8,0 1.6,-0.3 1.6,0.3 0.2,4.7 5.2,5 7.4,8 2.2,3.2 5.8,5.5 8.9,8.1 2,1.7 2.5,3.1 0.2,4.9 -0.4,0.3 -0.6,0.7 -0.9,1.1 -5.1,6.7 -5.1,6.7 -11.7,1.4 -5.3,-4.3 -9.6,-9.4 -13.7,-14.7 -1,-1.3 -3.8,-2.2 -3.2,-3.5 0.7,-1.4 3.1,-2.1 4.9,-2.9 2.3,-1 4.5,-1.9 6.5,-2.7 z" />
      <path
         inkscape:connector-curvature="0"
         id="XMLID_63_"
         fill="#F8F7F7"
         d="m 846.5,313.9 c 5.8,-4.3 11.1,-8.3 16.5,-12.3 0.5,-0.4 1.2,-0.7 1,-1.4 -1.1,-4.1 1.7,-2.3 3.1,-1.9 7.1,1.7 7.1,1.8 3.5,7.9 -3.3,5.6 -6.6,11.1 -9.8,16.8 -1.1,1.9 -2,1.9 -3.6,0.5 -3.4,-3.1 -6.1,-7 -10.7,-9.6 z" />
      <path
         inkscape:connector-curvature="0"
         id="XMLID_62_"
         fill="#F4DBBF"
         d="m 776.1,239.9 c 0,-1.8 0.3,-3.9 1.5,-5.8 0.6,-0.9 1.3,-1.5 2.4,-1.3 1.2,0.1 1.1,1.1 1.3,1.9 1.4,5 3.1,9.8 5.5,14.4 0.4,0.7 1.1,1.5 0.4,2.3 -0.6,0.7 -1.4,0.2 -2.1,0.2 -6,-0.8 -9.1,-4.5 -9,-11.7 z" />
      <path
         inkscape:connector-curvature="0"
         id="XMLID_61_"
         fill="#F4DBBF"
         d="m 892.8,251.7 c 3.5,-5.7 7.1,-11.2 8.7,-17.7 0.3,-1.1 0.9,-1.4 1.8,-1.3 1,0.2 1.8,0.7 2,1.9 0.6,3.7 0.8,7.2 -2,10.3 -3,3.2 -6.4,5.4 -10.5,6.8 z" />
    </g>
  </g>
</svg>
