<?xml version="1.0" encoding="UTF-8" standalone="no"?>
<svg
   xmlns:dc="http://purl.org/dc/elements/1.1/"
   xmlns:cc="http://creativecommons.org/ns#"
   xmlns:rdf="http://www.w3.org/1999/02/22-rdf-syntax-ns#"
   xmlns:svg="http://www.w3.org/2000/svg"
   xmlns="http://www.w3.org/2000/svg"
   xmlns:xlink="http://www.w3.org/1999/xlink"
   xmlns:sodipodi="http://sodipodi.sourceforge.net/DTD/sodipodi-0.dtd"
   xmlns:inkscape="http://www.inkscape.org/namespaces/inkscape"
   inkscape:version="1.0beta1 (32d4812, 2019-09-19)"
   id="svg1408"
   version="1.1"
   viewBox="0 0 238.12499 317.50001"
   height="1200"
   width="900">
  <defs
     id="defs1402">
    <clipPath
       id="SVGID_2_">
      <use
         xlink:href="#SVGID_1_"
         overflow="visible"
         id="use1978"
         x="0"
         y="0"
         width="100%"
         height="100%" />
    </clipPath>
    <circle
       id="SVGID_1_"
       cx="231.7"
       cy="310.29999"
       r="136.5" />
    <clipPath
       id="SVGID_4_">
      <use
         height="100%"
         width="100%"
         y="0"
         x="0"
         id="use2092"
         overflow="visible"
         xlink:href="#SVGID_3_" />
    </clipPath>
    <circle
       r="136.5"
       cy="310.29999"
       cx="543.90002"
       id="SVGID_3_" />
    <clipPath
       id="SVGID_6_">
      <use
         height="100%"
         width="100%"
         y="0"
         x="0"
         id="use2158"
         overflow="visible"
         xlink:href="#SVGID_5_" />
    </clipPath>
    <circle
       r="136.5"
       cy="310.29999"
       cx="856.09998"
       id="SVGID_5_" />
    <clipPath
       id="SVGID_8_">
      <use
         height="100%"
         width="100%"
         y="0"
         x="0"
         id="use2256"
         overflow="visible"
         xlink:href="#SVGID_7_" />
    </clipPath>
    <circle
       r="136.5"
       cy="310.29999"
       cx="1168.3"
       id="SVGID_7_" />
    <clipPath
       id="SVGID_10_">
      <use
         height="100%"
         width="100%"
         y="0"
         x="0"
         id="use2342"
         overflow="visible"
         xlink:href="#SVGID_9_" />
    </clipPath>
    <circle
       r="136.5"
       cy="669.70001"
       cx="231.7"
       id="SVGID_9_" />
    <clipPath
       id="SVGID_12_">
      <use
         height="100%"
         width="100%"
         y="0"
         x="0"
         id="use2418"
         overflow="visible"
         xlink:href="#SVGID_11_" />
    </clipPath>
    <circle
       r="136.5"
       cy="669.70001"
       cx="543.90002"
       id="SVGID_11_" />
    <clipPath
       id="SVGID_14_">
      <use
         height="100%"
         width="100%"
         y="0"
         x="0"
         id="use2556"
         overflow="visible"
         xlink:href="#SVGID_13_" />
    </clipPath>
    <circle
       r="136.5"
       cy="669.70001"
       cx="856.09998"
       id="SVGID_13_" />
    <clipPath
       id="SVGID_16_">
      <use
         height="100%"
         width="100%"
         y="0"
         x="0"
         id="use2684"
         overflow="visible"
         xlink:href="#SVGID_15_" />
    </clipPath>
    <circle
       r="136.5"
       cy="669.70001"
       cx="1168.3"
       id="SVGID_15_" />
  </defs>
  <sodipodi:namedview
     inkscape:window-maximized="0"
     inkscape:window-y="134"
     inkscape:window-x="20"
     inkscape:window-height="907"
     inkscape:window-width="1600"
     units="px"
     showgrid="false"
     inkscape:document-rotation="0"
     inkscape:current-layer="layer1"
     inkscape:document-units="mm"
     inkscape:cy="560"
     inkscape:cx="400"
     inkscape:zoom="0.35"
     inkscape:pageshadow="2"
     inkscape:pageopacity="0.0"
     borderopacity="1.0"
     bordercolor="#666666"
     pagecolor="#ffffff"
     id="base" />
  <metadata
     id="metadata1405">
    <rdf:RDF>
      <cc:Work
         rdf:about="">
        <dc:format>image/svg+xml</dc:format>
        <dc:type
           rdf:resource="http://purl.org/dc/dcmitype/StillImage" />
        <dc:title></dc:title>
      </cc:Work>
    </rdf:RDF>
  </metadata>
  <g
     id="layer1"
     inkscape:groupmode="layer"
     inkscape:label="Layer 1">
    <g
       transform="matrix(1.3229166,0,0,1.3229166,-1007.4671,-289.58643)"
       style="opacity:1;stop-opacity:1"
       id="g7470">
      <polygon
         id="polygon7392"
         points="791.5,419.3 783.3,457.5 919.9,457.5 911.7,419.3 864,405.3 839.1,405.3 "
         fill="#EA5C5C" />
      <path
         inkscape:connector-curvature="0"
         id="path7394"
         d="m 851.6,427.8 c 10.5,0 19,-8.5 19,-19 v -1.6 l -6.6,-1.9 h -24.9 l -6.6,1.9 v 1.6 c 0.1,10.5 8.6,19 19.1,19 z"
         fill="#FFFFFF" />
      <path
         inkscape:connector-curvature="0"
         id="path7396"
         d="m 851.6,429.2 c -11.2,0 -20.4,-9.1 -20.4,-20.4 v -1.6 c 0,-0.6 0.4,-1.1 1,-1.3 l 6.6,-1.9 c 0.1,0 0.3,-0.1 0.4,-0.1 H 864 c 0.1,0 0.3,0 0.4,0.1 l 6.6,1.9 c 0.6,0.2 1,0.7 1,1.3 v 1.6 c 0,11.2 -9.2,20.4 -20.4,20.4 z m -17.7,-21 v 0.6 c 0,9.7 7.9,17.7 17.7,17.7 9.8,0 17.7,-7.9 17.7,-17.7 v -0.6 l -5.4,-1.6 h -24.5 z"
         fill="#5E1145" />
      <path
         inkscape:connector-curvature="0"
         id="path7398"
         d="M 919.9,458.9 H 783.3 c -0.4,0 -0.8,-0.2 -1.1,-0.5 -0.3,-0.3 -0.4,-0.7 -0.3,-1.1 l 8.2,-38.2 c 0.1,-0.5 0.5,-0.9 0.9,-1 l 47.7,-14 c 0.1,0 0.3,-0.1 0.4,-0.1 H 864 c 0.1,0 0.3,0 0.4,0.1 l 47.7,14 c 0.5,0.1 0.8,0.5 0.9,1 l 8.2,38.2 c 0.1,0.4 0,0.8 -0.3,1.1 -0.2,0.3 -0.6,0.5 -1,0.5 z M 785,456.2 h 133.2 l -7.7,-35.8 -46.7,-13.7 h -24.5 l -46.7,13.7 z"
         fill="#5E1145" />
      <path
         inkscape:connector-curvature="0"
         id="path7400"
         d="m 839.2,385.9 v 22.9 c 0,6.8 5.5,12.4 12.4,12.4 v 0 c 6.8,0 12.4,-5.5 12.4,-12.4 v -22.9 z"
         fill="#FCDFB0" />
      <path
         inkscape:connector-curvature="0"
         id="path7402"
         d="m 839.2,393.4 v 7.7 c 5.1,4.6 18.2,6.8 25.1,7.7 0,-9.5 0,-15.3 0,-15.3 h -25.1 z"
         fill="#DDBC8C" />
      <path
         inkscape:connector-curvature="0"
         id="path7404"
         d="m 851.6,422.5 c -7.6,0 -13.7,-6.2 -13.7,-13.7 v -22.9 c 0,-0.8 0.6,-1.4 1.4,-1.4 H 864 c 0.8,0 1.4,0.6 1.4,1.4 v 22.9 c -0.1,7.6 -6.3,13.7 -13.8,13.7 z m -11,-35.2 v 21.5 c 0,6.1 4.9,11 11,11 6.1,0 11,-4.9 11,-11 v -21.5 z"
         fill="#5E1145" />
      <path
         inkscape:connector-curvature="0"
         id="path7406"
         d="m 913.9,281.6 c 0,0 -2.6,-12.7 -15.5,-11.1 -2,-4.2 -6.5,-12.1 -11.7,-13.3 1.4,5.5 1.2,8.7 1.2,8.7 0,0 -23.4,-25.1 -50.7,-22.2 3.8,5.5 6.7,9.3 6.7,9.3 0,0 -28.9,-8.7 -47.5,10.9 5.9,-1.2 10.5,1.4 10.5,1.4 0,0 -10.5,9.1 -15.8,27.3 4.9,-3 12.5,-3 12.5,-3 0,0 -8.7,7.7 -8.7,27.3 4.9,-7.9 7.1,-5.9 7.1,-5.9 7.3,3.4 10.3,15.2 11.4,18.8 h 76.4 c 1.1,-3.7 4.1,-15.4 11.4,-18.8 0,0 6.9,-21.4 -1.6,-30.1 6.8,-3.8 14.3,0.7 14.3,0.7 z"
         fill="#80643C" />
      <path
         inkscape:connector-curvature="0"
         id="path7408"
         d="m 889.8,331.1 h -76.4 c -0.6,0 -1.1,-0.4 -1.3,-1 -0.1,-0.2 -0.2,-0.5 -0.2,-0.8 -1.3,-4.2 -4.2,-14.2 -10.5,-17.1 -0.1,0 -0.1,-0.1 -0.2,-0.1 -0.2,0 -1.9,0.2 -5.2,5.4 -0.3,0.5 -0.9,0.8 -1.5,0.6 -0.6,-0.2 -1,-0.7 -1,-1.3 0,-13.8 4.2,-21.9 6.9,-25.7 -2.5,0.3 -6.1,1 -8.7,2.6 -0.5,0.3 -1.1,0.3 -1.5,-0.1 -0.5,-0.3 -0.6,-0.9 -0.5,-1.5 4.2,-14.4 11.5,-23.2 14.6,-26.4 -1.7,-0.6 -4.6,-1.2 -7.8,-0.5 -0.6,0.1 -1.2,-0.2 -1.5,-0.7 -0.3,-0.5 -0.2,-1.2 0.2,-1.6 7.9,-8.3 18.8,-12.9 31.7,-13.2 5.6,-0.2 10.5,0.5 13.6,1.1 -1.2,-1.6 -2.8,-3.8 -4.5,-6.3 -0.3,-0.4 -0.3,-0.9 -0.1,-1.4 0.2,-0.4 0.6,-0.7 1.1,-0.8 14.5,-1.5 27.8,4.8 36.5,10.3 5.8,3.7 10.2,7.5 12.8,9.9 -0.2,-1.3 -0.5,-3 -1,-4.9 -0.1,-0.5 0,-1 0.3,-1.3 0.3,-0.3 0.8,-0.5 1.3,-0.4 5.4,1.3 9.9,8.5 12.2,13.2 13.2,-1 16,12.2 16.1,12.3 0.1,0.5 -0.1,1.1 -0.5,1.4 -0.4,0.3 -1,0.3 -1.5,0.1 -0.1,-0.1 -5.8,-3.3 -11.4,-1.5 7.1,9.8 1,29.1 0.7,30 -0.1,0.4 -0.4,0.7 -0.7,0.8 -6.2,2.9 -9.2,12.9 -10.5,17.1 -0.1,0.3 -0.2,0.6 -0.2,0.8 -0.2,0.6 -0.7,1 -1.3,1 z m -75.4,-2.8 h 74.4 c 1.4,-4.6 4.4,-14.7 11.3,-18.4 1,-3.3 5.6,-20.9 -1.5,-28.2 -0.3,-0.3 -0.4,-0.7 -0.4,-1.2 0.1,-0.4 0.3,-0.8 0.7,-1 4.7,-2.5 9.6,-1.6 12.7,-0.5 -1.5,-3.3 -5.1,-8.2 -13.1,-7.2 -0.6,0.1 -1.1,-0.2 -1.4,-0.8 -1.4,-2.9 -4.7,-9.1 -8.6,-11.6 0.8,4 0.7,6.3 0.6,6.4 0,0.5 -0.4,1 -0.9,1.2 -0.5,0.2 -1.1,0 -1.5,-0.4 -0.1,-0.1 -5.9,-6.2 -14.9,-12 -7.8,-5 -19.5,-10.5 -32.3,-10 3.1,4.3 5.3,7.3 5.3,7.3 0.4,0.5 0.4,1.1 0,1.6 -0.3,0.5 -0.9,0.7 -1.5,0.5 -0.1,0 -7.2,-2.1 -16.4,-1.8 -10.8,0.3 -19.9,3.6 -27,9.8 4.3,0.1 7.3,1.8 7.5,1.9 0.4,0.2 0.6,0.6 0.7,1.1 0.1,0.5 -0.1,0.9 -0.5,1.2 -0.1,0.1 -9.1,8.1 -14.4,23.7 4.7,-1.8 10,-1.8 10.3,-1.8 0.6,0 1.1,0.4 1.3,0.9 0.2,0.5 0.1,1.1 -0.4,1.5 -0.1,0.1 -6.9,6.4 -8.1,21.8 1.5,-1.8 2.9,-2.7 4.3,-2.9 0.8,-0.1 1.5,0.1 2,0.4 7.2,3.4 10.4,13.9 11.8,18.5 z M 801,311.9 c 0,0 0,0 0,0 0,0 0,0 0,0 z m 0,0 c 0,0 0,0 0,0 0,0 0,0 0,0 z m 0,0 c 0,0 0,0 0,0 0,0 0,0 0,0 z"
         fill="#5E1145" />
      <g
         id="g7422">
        <g
           id="g7414">
          <path
             inkscape:connector-curvature="0"
             id="path7410"
             d="m 898.3,341.1 c -0.5,-9.3 -4.1,-11.5 -9.6,-12.8 l -3,29.9 c 11.2,4.2 13.2,-7.8 12.6,-17.1 z"
             fill="#FCDFB0" />
          <path
             inkscape:connector-curvature="0"
             id="path7412"
             d="m 889.9,360.4 c -1.4,0 -3,-0.3 -4.7,-1 -0.6,-0.2 -0.9,-0.8 -0.9,-1.4 l 3,-29.9 c 0,-0.4 0.2,-0.7 0.6,-1 0.3,-0.2 0.7,-0.3 1.1,-0.2 6.2,1.4 10.1,4.2 10.7,14 0.3,5.1 0.1,14.2 -5,17.9 -1.4,1.1 -3,1.6 -4.8,1.6 z m -2.8,-3.1 c 2.5,0.7 4.5,0.6 6,-0.5 2.9,-2.1 4.3,-7.9 3.8,-15.5 -0.5,-8 -3.3,-10.1 -7.1,-11.2 z"
             fill="#5E1145" />
        </g>
        <g
           id="g7420">
          <path
             inkscape:connector-curvature="0"
             id="path7416"
             d="m 804.8,341.1 c 0.5,-9.3 4.1,-11.5 9.6,-12.8 l 3,29.9 c -11.1,4.2 -13.1,-7.8 -12.6,-17.1 z"
             fill="#FCDFB0" />
          <path
             inkscape:connector-curvature="0"
             id="path7418"
             d="m 813.3,360.4 c -1.8,0 -3.4,-0.5 -4.8,-1.5 -5,-3.7 -5.3,-12.8 -5,-17.9 0.6,-9.8 4.5,-12.6 10.7,-14 0.4,-0.1 0.8,0 1.1,0.2 0.3,0.2 0.5,0.6 0.6,1 l 3,29.9 c 0.1,0.6 -0.3,1.2 -0.9,1.4 -1.7,0.6 -3.3,0.9 -4.7,0.9 z m -8.5,-19.3 1.4,0.1 c -0.5,7.6 1,13.4 3.8,15.5 1.5,1.1 3.5,1.3 6,0.5 l -2.7,-27.3 c -3.8,1.1 -6.6,3.2 -7.1,11.2 z"
             fill="#5E1145" />
        </g>
      </g>
      <g
         id="g7430">
        <path
           inkscape:connector-curvature="0"
           id="path7424"
           d="m 813.4,311.2 v 40.7 c 0,11.2 4,22 11.4,30.4 l 7.2,8.3 c 4.9,5.7 12.1,8.9 19.6,8.9 v 0 c 7.5,0 14.7,-3.2 19.6,-8.9 l 7.2,-8.3 c 7.3,-8.4 11.4,-19.2 11.4,-30.4 v -40.7 c 0,-6.7 -5.4,-12.1 -12.1,-12.1 h -52.2 c -6.7,-0.1 -12.1,5.4 -12.1,12.1 z"
           fill="#FCDFB0" />
        <path
           inkscape:connector-curvature="0"
           id="path7426"
           d="m 881.3,370.4 h -5.2 l -3.1,-4.3 c -1.6,-2.2 -4.1,-3.5 -6.8,-3.5 H 855.7 846 835.5 c -2.7,0 -5.2,1.3 -6.8,3.5 l -3.1,4.3 h -5.2 l -4.8,-4.5 c 1.9,6 5,11.5 9.2,16.3 l 7.2,8.3 c 4.9,5.7 12.1,8.9 19.6,8.9 v 0 c 7.5,0 14.7,-3.2 19.6,-8.9 l 7.2,-8.3 c 4.6,-5.3 7.9,-11.5 9.7,-18.2 z m -19.7,15.9 v 2.5 c 0,2.1 -1.4,4 -3.4,4.6 l -4.7,1.4 v -7.5 h -5.3 v 7.5 l -4.7,-1.4 c -2,-0.6 -3.4,-2.5 -3.4,-4.6 v -2.5 c 0,-1.1 -0.4,-2.1 -1,-2.9 l -5.5,-7 c -1.4,-1.8 -1.5,-4.4 -0.2,-6.2 l 0.3,-0.5 c 1.3,-1.9 3.4,-3 5.7,-3 h 6.5 9.8 6.5 c 2.3,0 4.4,1.1 5.7,3 l 0.3,0.5 c 1.3,1.9 1.3,4.4 -0.2,6.2 l -5.5,7 c -0.6,0.8 -0.9,1.8 -0.9,2.9 z"
           fill="#D6B485" />
        <path
           inkscape:connector-curvature="0"
           id="path7428"
           d="m 851.6,400.8 c -7.9,0 -15.4,-3.4 -20.6,-9.4 l -7.2,-8.3 c -7.6,-8.7 -11.7,-19.8 -11.7,-31.3 v -40.7 c 0,-7.4 6,-13.5 13.5,-13.5 h 52.2 c 7.4,0 13.5,6 13.5,13.5 v 40.7 c 0,11.5 -4.2,22.6 -11.7,31.3 l -7.2,8.3 c -5.4,5.9 -12.9,9.4 -20.8,9.4 z M 825.5,300.4 c -5.9,0 -10.7,4.8 -10.7,10.7 v 40.7 c 0,10.8 3.9,21.3 11,29.5 l 7.2,8.3 c 4.7,5.4 11.4,8.4 18.6,8.4 7.2,0 13.9,-3.1 18.6,-8.4 l 7.2,-8.3 c 7.1,-8.2 11,-18.6 11,-29.5 v -40.7 c 0,-5.9 -4.8,-10.7 -10.7,-10.7 z"
           fill="#5E1145" />
      </g>
      <path
         inkscape:connector-curvature="0"
         id="path7432"
         d="m 851.6,377.4 c -4.4,0 -8.7,-1.4 -12.7,-4.3 -0.6,-0.4 -0.7,-1.3 -0.3,-1.9 0.4,-0.6 1.3,-0.7 1.9,-0.3 6.9,5 15.2,5 22.2,0 0.6,-0.4 1.5,-0.3 1.9,0.3 0.4,0.6 0.3,1.5 -0.3,1.9 -4,2.9 -8.4,4.3 -12.7,4.3 z"
         fill="#5E1145" />
      <path
         inkscape:connector-curvature="0"
         id="path7434"
         d="m 851.6,359.8 c -3.9,0 -7,-2.5 -7,-5.6 0,-0.8 0.6,-1.4 1.4,-1.4 0.8,0 1.4,0.6 1.4,1.4 0,1.6 2,2.9 4.3,2.9 2.3,0 4.3,-1.3 4.3,-2.9 0,-0.8 0.6,-1.4 1.4,-1.4 0.8,0 1.4,0.6 1.4,1.4 -0.2,3.1 -3.3,5.6 -7.2,5.6 z"
         fill="#5E1145" />
      <g
         id="g7442">
        <g
           id="g7440">
          <path
             inkscape:connector-curvature="0"
             id="path7436"
             d="m 885.6,325.6 c -2.9,-3.6 -8.7,-11.9 -25.3,-3.1 -1.8,2 -0.9,6.9 2.1,5.8 3,-1.1 9.2,-6.7 21.1,-1.4 2.2,1.2 2.1,-1.3 2.1,-1.3 z"
             fill="#80643C" />
          <path
             inkscape:connector-curvature="0"
             id="path7438"
             d="m 817.6,325.6 c 2.9,-3.6 8.7,-11.9 25.3,-3.1 1.8,2 0.9,6.9 -2.1,5.8 -3,-1.1 -9.2,-6.7 -21.1,-1.4 -2.3,1.2 -2.1,-1.3 -2.1,-1.3 z"
             fill="#80643C" />
        </g>
      </g>
      <g
         id="g7448">
        <path
           inkscape:connector-curvature="0"
           id="path7444"
           d="m 861.5,329.8 c -1.1,0 -2,-0.5 -2.7,-1.5 -1.3,-1.9 -1.1,-5.1 0.4,-6.7 0.1,-0.1 0.2,-0.2 0.4,-0.3 7.3,-3.8 13.5,-4.9 18.5,-3.3 4.3,1.4 6.7,4.4 8.2,6.4 l 0.3,0.4 c 0.2,0.2 0.3,0.5 0.3,0.8 0,0.3 0.1,1.9 -1.2,2.7 -0.6,0.4 -1.5,0.6 -2.9,-0.1 -9.3,-4.1 -14.8,-1.2 -18.1,0.5 -0.7,0.4 -1.4,0.7 -1.9,0.9 -0.4,0.1 -0.9,0.2 -1.3,0.2 z m -0.3,-6.2 c -0.6,0.9 -0.6,2.5 -0.1,3.2 0.2,0.3 0.3,0.4 0.8,0.2 0.4,-0.2 1,-0.4 1.6,-0.8 3.5,-1.8 9.9,-5.2 20.3,-0.7 -3,-3.6 -8.5,-9.3 -22.6,-1.9 z"
           fill="#5E1145" />
        <path
           inkscape:connector-curvature="0"
           id="path7446"
           d="m 841.7,329.8 c -0.4,0 -0.9,-0.1 -1.3,-0.2 -0.6,-0.2 -1.2,-0.5 -1.9,-0.9 -3.3,-1.7 -8.8,-4.7 -18.1,-0.5 -1.4,0.8 -2.4,0.5 -2.9,0.1 -1.2,-0.8 -1.2,-2.4 -1.2,-2.7 0,-0.3 0.1,-0.6 0.3,-0.8 l 0.3,-0.4 c 1.6,-2 4,-5 8.2,-6.4 5,-1.6 11.2,-0.5 18.5,3.3 0.1,0.1 0.3,0.2 0.4,0.3 1.5,1.7 1.7,4.8 0.4,6.7 -0.7,1 -1.7,1.5 -2.7,1.5 z m -12.5,-6.5 c 4.8,0 8.2,1.8 10.4,3 0.6,0.3 1.2,0.6 1.6,0.8 0.4,0.2 0.6,0.1 0.8,-0.2 0.5,-0.7 0.5,-2.3 -0.1,-3.2 -14.1,-7.3 -19.6,-1.7 -22.6,2 3.9,-1.8 7.2,-2.4 9.9,-2.4 z"
           fill="#5E1145" />
      </g>
      <g
         id="g7454">
        <ellipse
           id="ellipse7450"
           ry="5.3000002"
           rx="4.4000001"
           cy="336.79999"
           cx="873.09998"
           fill="#5E1145" />
        <ellipse
           id="ellipse7452"
           ry="5.3000002"
           rx="4.4000001"
           cy="336.79999"
           cx="830.09998"
           fill="#5E1145" />
      </g>
      <path
         inkscape:connector-curvature="0"
         id="path7456"
         d="m 869.8,293.6 c -3.2,5.5 -8.2,13 -29.1,13.8 4.5,-3 9.9,-7.6 9.9,-7.6 0,0 -13.6,4.9 -28.2,6.1 5.8,-2.6 12.1,-14.4 12.1,-14.4 z"
         fill="#80643C" />
      <path
         inkscape:connector-curvature="0"
         id="path7458"
         d="m 840.7,308.7 c -0.6,0 -1.1,-0.4 -1.3,-0.9 -0.2,-0.6 0,-1.2 0.5,-1.6 1.4,-0.9 2.9,-2 4.3,-3.1 -5.4,1.5 -13.5,3.4 -21.7,4.1 -0.7,0.1 -1.3,-0.4 -1.4,-1 -0.2,-0.6 0.2,-1.3 0.8,-1.6 4.4,-2 9.8,-10.6 11.5,-13.8 0.4,-0.7 1.2,-0.9 1.8,-0.6 0.7,0.4 0.9,1.2 0.6,1.8 -0.2,0.4 -4,7.4 -8.5,11.8 12.2,-1.7 22.8,-5.4 22.9,-5.4 0.6,-0.2 1.3,0 1.6,0.6 0.3,0.6 0.2,1.3 -0.3,1.7 -0.2,0.1 -2.9,2.4 -6.1,4.9 16.8,-1.6 20.6,-8.3 23.2,-12.8 0.4,-0.7 1.2,-0.9 1.9,-0.5 0.7,0.4 0.9,1.2 0.5,1.9 -3.9,6.7 -9.7,13.8 -30.3,14.5 0,0 0,0 0,0 z"
         fill="#5E1145" />
      <path
         inkscape:connector-curvature="0"
         id="path7460"
         d="m 851.6,406.6 c -2.1,0 -4.1,-0.5 -6,-1.4 -0.7,-0.3 -0.9,-1.2 -0.6,-1.8 0.3,-0.7 1.2,-0.9 1.8,-0.6 3,1.5 6.6,1.5 9.6,0 0.7,-0.3 1.5,-0.1 1.8,0.6 0.3,0.7 0.1,1.5 -0.6,1.8 -1.9,0.9 -4,1.4 -6,1.4 z"
         fill="#5E1145" />
      <g
         id="g7468">
        <path
           inkscape:connector-curvature="0"
           id="path7462"
           d="m 902.8,458.9 c -0.8,0 -1.4,-0.6 -1.4,-1.4 v -23.1 c 0,-0.8 0.6,-1.4 1.4,-1.4 0.8,0 1.4,0.6 1.4,1.4 v 23.1 c 0,0.8 -0.6,1.4 -1.4,1.4 z"
           fill="#5E1145" />
        <g
           id="g7466">
          <path
             inkscape:connector-curvature="0"
             id="path7464"
             d="m 800.3,458.9 c -0.8,0 -1.4,-0.6 -1.4,-1.4 v -23.1 c 0,-0.8 0.6,-1.4 1.4,-1.4 0.8,0 1.4,0.6 1.4,1.4 v 23.1 c 0,0.8 -0.6,1.4 -1.4,1.4 z"
             fill="#5E1145" />
        </g>
      </g>
    </g>
  </g>
</svg>
