<?xml version="1.0" encoding="UTF-8" standalone="no"?>
<svg
   xmlns:dc="http://purl.org/dc/elements/1.1/"
   xmlns:cc="http://creativecommons.org/ns#"
   xmlns:rdf="http://www.w3.org/1999/02/22-rdf-syntax-ns#"
   xmlns:svg="http://www.w3.org/2000/svg"
   xmlns="http://www.w3.org/2000/svg"
   xmlns:xlink="http://www.w3.org/1999/xlink"
   xmlns:sodipodi="http://sodipodi.sourceforge.net/DTD/sodipodi-0.dtd"
   xmlns:inkscape="http://www.inkscape.org/namespaces/inkscape"
   inkscape:version="1.0beta1 (32d4812, 2019-09-19)"
   id="svg1408"
   version="1.1"
   viewBox="0 0 238.12499 317.50001"
   height="1200"
   width="900">
  <defs
     id="defs1402">
    <clipPath
       id="SVGID_2_">
      <use
         xlink:href="#SVGID_1_"
         overflow="visible"
         id="use1978"
         x="0"
         y="0"
         width="100%"
         height="100%" />
    </clipPath>
    <circle
       id="SVGID_1_"
       cx="231.7"
       cy="310.29999"
       r="136.5" />
    <clipPath
       id="SVGID_4_">
      <use
         height="100%"
         width="100%"
         y="0"
         x="0"
         id="use2092"
         overflow="visible"
         xlink:href="#SVGID_3_" />
    </clipPath>
    <circle
       r="136.5"
       cy="310.29999"
       cx="543.90002"
       id="SVGID_3_" />
    <clipPath
       id="SVGID_6_">
      <use
         height="100%"
         width="100%"
         y="0"
         x="0"
         id="use2158"
         overflow="visible"
         xlink:href="#SVGID_5_" />
    </clipPath>
    <circle
       r="136.5"
       cy="310.29999"
       cx="856.09998"
       id="SVGID_5_" />
    <clipPath
       id="SVGID_8_">
      <use
         height="100%"
         width="100%"
         y="0"
         x="0"
         id="use2256"
         overflow="visible"
         xlink:href="#SVGID_7_" />
    </clipPath>
    <circle
       r="136.5"
       cy="310.29999"
       cx="1168.3"
       id="SVGID_7_" />
    <clipPath
       id="SVGID_10_">
      <use
         height="100%"
         width="100%"
         y="0"
         x="0"
         id="use2342"
         overflow="visible"
         xlink:href="#SVGID_9_" />
    </clipPath>
    <circle
       r="136.5"
       cy="669.70001"
       cx="231.7"
       id="SVGID_9_" />
    <clipPath
       id="SVGID_12_">
      <use
         height="100%"
         width="100%"
         y="0"
         x="0"
         id="use2418"
         overflow="visible"
         xlink:href="#SVGID_11_" />
    </clipPath>
    <circle
       r="136.5"
       cy="669.70001"
       cx="543.90002"
       id="SVGID_11_" />
    <clipPath
       id="SVGID_14_">
      <use
         height="100%"
         width="100%"
         y="0"
         x="0"
         id="use2556"
         overflow="visible"
         xlink:href="#SVGID_13_" />
    </clipPath>
    <circle
       r="136.5"
       cy="669.70001"
       cx="856.09998"
       id="SVGID_13_" />
    <clipPath
       id="SVGID_16_">
      <use
         height="100%"
         width="100%"
         y="0"
         x="0"
         id="use2684"
         overflow="visible"
         xlink:href="#SVGID_15_" />
    </clipPath>
    <circle
       r="136.5"
       cy="669.70001"
       cx="1168.3"
       id="SVGID_15_" />
  </defs>
  <sodipodi:namedview
     inkscape:window-maximized="0"
     inkscape:window-y="134"
     inkscape:window-x="20"
     inkscape:window-height="907"
     inkscape:window-width="1600"
     units="px"
     showgrid="false"
     inkscape:document-rotation="0"
     inkscape:current-layer="layer1"
     inkscape:document-units="mm"
     inkscape:cy="560"
     inkscape:cx="400"
     inkscape:zoom="0.35"
     inkscape:pageshadow="2"
     inkscape:pageopacity="0.0"
     borderopacity="1.0"
     bordercolor="#666666"
     pagecolor="#ffffff"
     id="base" />
  <metadata
     id="metadata1405">
    <rdf:RDF>
      <cc:Work
         rdf:about="">
        <dc:format>image/svg+xml</dc:format>
        <dc:type
           rdf:resource="http://purl.org/dc/dcmitype/StillImage" />
        <dc:title></dc:title>
      </cc:Work>
    </rdf:RDF>
  </metadata>
  <g
     id="layer1"
     inkscape:groupmode="layer"
     inkscape:label="Layer 1">
    <g
       transform="matrix(1.0583333,0,0,1.0583333,-158.14288,-564.31193)"
       id="XMLID_269_">
      <path
         inkscape:connector-curvature="0"
         id="XMLID_653_"
         fill="#1B1513"
         d="m 346.8,791.2 c -0.1,11.8 0,23.6 -1.7,35.3 -0.7,4.8 -1.5,5.4 -6.4,5.5 -14.6,0.4 -29.1,0.2 -43.8,-0.5 -22.4,-1.1 -44.9,-0.7 -67.4,0.2 -13,0.5 -26,1.1 -39,1.5 -5.1,0.2 -8.8,-3.3 -9.8,-8.3 -1.1,-5.3 -1,-10.8 -1.2,-16.1 -0.6,-18.8 -1,-37.5 1.2,-56.2 3.1,-26.6 16.2,-46 40.6,-57.6 6.3,-3 12.5,-6.3 19.9,-5.8 0.8,0.1 1.3,-0.3 1.7,-1 2.5,-3.7 1.2,-8 -2.8,-9.4 -12,-4.3 -20.4,-12.8 -27.3,-23 -1.2,-1.7 -1.8,-2.7 -4.5,-1.7 -4.1,1.6 -8.5,0.9 -12.4,-1.4 -1.2,-0.7 -2.3,-1.5 -3.2,-2.5 -5,-5.7 -1.7,-22.1 5.2,-25.1 1.9,-0.8 2.2,-1.8 2.1,-3.6 -0.6,-6.6 -0.4,-13.2 0.2,-19.8 0.1,-1.2 -0.1,-2.5 -0.5,-3.6 -0.5,-1.3 -0.7,-2.7 -0.5,-4 1.7,-7.9 2.5,-16.2 5.5,-23.5 2.2,-5.3 6,-11.2 11.5,-13.4 5.3,-2.1 7.3,-6 10.4,-9.7 5.6,-6.6 13.7,-8.1 21.1,-4 1.7,0.9 2.2,0.6 3.3,-0.8 4.4,-5.1 14.5,-7.2 20.7,-4.5 1.6,0.7 3.3,1.7 4,3.1 1.6,3.6 4.1,3.6 7.3,2.7 1.6,-0.4 3.4,-0.4 5.1,-0.6 4.1,-0.4 6.9,1.4 8.3,5.1 0.7,1.9 1.7,2.4 3.7,2.3 8,-0.4 13,4 14,12.2 0.2,1.5 0.6,2.4 1.9,3.3 6.3,4.3 8.3,9.9 6.3,17.2 -0.5,1.9 -0.5,3.5 0.3,5.5 1.6,3.8 2.1,7.8 0.4,11.8 -0.5,1.1 -0.2,2.2 -0.1,3.2 0.9,6.2 0.9,12.5 0.7,18.7 0,0.9 -0.4,1.7 0.8,2.5 6.2,4.1 8.9,11.4 6.9,18.3 -2.5,8.7 -8.3,12 -19,10.3 -2.2,-0.3 -3.3,0.2 -4.6,1.7 -7.3,7.7 -15,14.8 -24.4,19.9 -1.1,0.6 -2.2,1.3 -2.2,2.7 -0.1,4 -0.1,8.1 0,12.1 0,1 0.4,2 1.9,1.5 6,-2.3 11.6,-0.4 17.1,2 11.4,5 22.1,11.3 30.5,20.7 9.7,10.8 13.8,24 16,38 2.2,13 2.3,25.9 2.2,38.8 z m -9,-4.5 c 0.5,-1.2 0.3,-2.3 -0.1,-3.4 0.5,-7.9 0.2,-15.8 -0.7,-23.6 0.1,-1.1 0.5,-2.2 -0.5,-3.2 -0.5,-8.2 -2.4,-16.1 -5.8,-23.6 -2,-3.7 -4,-7.4 -6,-11 -5.2,-7.3 -12.2,-12.3 -19.9,-16.6 -0.7,-1 -1.7,-1.4 -2.9,-1.5 -0.9,-0.6 -2,-1 -2.8,-1.7 -2.7,-2.1 -3.7,-1.5 -4.9,1.8 -3,8.7 -7.7,16.6 -13.1,24.1 -0.8,0.2 -1.6,0.4 -2.4,0.7 -4.1,-1.3 -7,-4.3 -9.7,-7.4 -6.8,-7.8 -7.4,-7.7 -12.9,1.1 -0.1,0.1 -0.1,0.2 -0.1,0.4 -1.6,0.9 -1.8,2.7 -2.8,4 -4.9,3.3 -5.8,3.2 -10.6,-0.3 -1.8,-1.3 -3.2,-3.4 -5.5,-4.1 -0.2,-0.9 -0.8,-1.5 -1.6,-1.8 -4.2,-5.3 -8.5,-10.6 -12.6,-16 -1.3,-1.7 -2.5,-2.6 -4.4,-0.8 -1.5,0 -2.2,1.1 -3,2.1 -6.7,3.9 -13.1,8.2 -16.9,15.3 -4.3,3.7 -4.6,9.4 -7.2,14 -2.7,7.4 -4.4,15.1 -4.6,23 -0.8,1.1 -0.6,2.3 -0.3,3.5 -1.5,8.6 -1,17.2 -0.7,25.8 -0.4,1.1 -0.4,2.2 0,3.3 -0.2,6.8 -0.5,13.7 0.2,20.5 -0.5,1 -0.5,2.1 -0.2,3.2 -0.1,1.8 -0.2,3.6 -0.2,5.4 -0.1,9.4 0.4,9.8 9.8,7.6 0.2,-0.1 0.5,-0.2 0.7,-0.2 1.9,0.4 3.8,0.4 5.7,-0.2 4.7,-0.6 9.5,-0.2 14.1,-1.2 1.9,0.6 3.7,0.4 5.6,-0.3 4.4,-0.2 8.8,-0.4 13.2,-0.6 1.3,0.4 2.5,0.4 3.7,-0.1 5.7,0.1 11.4,0.4 17.1,-0.2 1.5,0.5 2.9,0.6 4.4,0.1 5.2,0 10.5,0 15.7,0.1 1.6,0.4 3.1,0.4 4.7,0 6.9,0.2 13.8,0.3 20.7,0.5 1.6,0.9 3.3,1 5.1,0.6 5.4,0.9 10.8,0.5 16.2,0.2 1.3,0.5 2.6,0.5 3.8,-0.1 3.2,0 6.3,-0.1 9.5,-0.1 1.7,0 2.4,-0.7 2.3,-2.4 -0.1,-4.4 -0.2,-8.8 -0.3,-13.2 0.5,-1.1 0.4,-2.2 0,-3.3 0.6,-6.9 0.5,-13.7 0.2,-20.4 z M 256.2,671.9 c 5.5,0.3 10.9,-0.7 16,-2.9 16.8,-7.2 28.7,-19.6 37.4,-35.4 1.6,-2.9 2.1,-6.2 2.7,-9.5 0.6,-3.3 0.8,-6.2 -3.3,-7.5 -1.4,-0.5 -2.1,-2 -2.7,-3.3 -0.4,-0.9 -0.6,-1.9 -1.6,-2.3 -4.5,-1.9 -6.8,-6.7 -11.2,-8.7 -0.8,-0.4 -1.7,-1.7 -1.8,-2.7 -0.2,-4.8 -2.2,-3.6 -4.9,-1.8 -4.3,2.8 -7.6,2.9 -10,0.2 -1.7,-2 -2.8,-1.5 -4.4,-0.1 -3,2.5 -7.5,4.4 -10.1,2.1 -3.8,-3.3 -6.8,-2.1 -10.5,-1 -1.7,0.5 -3.7,0.6 -5.5,0.3 -3.5,-0.4 -6.8,-0.9 -9.3,2.5 -0.6,0.8 -2,1.5 -2.9,1.3 -4.7,-0.8 -6.8,3.8 -10.6,4.6 -0.8,0.2 -0.8,0.9 -0.9,1.4 -0.8,3.3 -3.1,5.2 -6.2,5.5 -4,0.3 -7,1.7 -9.7,4.7 -1.1,1.2 -1.7,1.9 -1.4,3.6 1.8,9.5 5.2,18.4 10.8,26.3 9.7,13.8 22.2,23 40.1,22.7 z m -51,-57 c 1.7,-2.7 4.4,-2.7 6.9,-3.5 3.2,-1 6.5,-1.9 6.7,-6.2 0,-1.1 1,-1.7 2,-1.8 2.6,-0.2 4.7,-1.1 5.5,-4 0.3,-1.1 1.3,-1.5 2.4,-1.3 3.8,1 6.2,-0.8 8.5,-3.6 1.5,-1.8 3,-5.9 5.4,-0.7 0.1,0.3 0.9,0.5 1.3,0.5 4.8,0.1 9.7,0.8 13.7,-2.6 1.7,-1.4 2.9,-0.7 4.1,0.6 4,4.4 4.5,4.5 9.7,1.4 2.5,-1.5 5.1,-2.5 7.4,-0.3 2.3,2.2 4.3,1.7 6.5,0.1 2.6,-1.9 5.4,-2.7 8.6,-1.7 1.7,0.5 3.1,0.6 1.5,2.9 -1.1,1.7 0.3,3 1.6,4 2.8,2.1 7.1,2.4 7.7,6.9 0.1,0.4 1,0.8 1.5,0.9 2.1,0.4 2.9,2 3.7,3.7 0.5,1.1 0.8,2.7 2.8,2.7 -0.2,-3 -0.1,-5.9 -0.4,-8.8 -0.3,-4.1 -1.8,-8.9 3.5,-11.5 0.9,-0.4 0.6,-1.5 0.3,-2.3 -0.6,-1.6 -1.4,-3.1 -2.6,-4.4 -0.8,-0.9 -1.2,-1.8 -0.4,-2.9 3.1,-4.5 2.3,-10.5 -2.4,-12.6 -3.6,-1.6 -3.9,-3.7 -4.1,-7 -0.3,-5.3 -4.2,-11.4 -10.4,-9.1 -3.7,1.4 -5.4,-0.2 -6.6,-3.2 -0.7,-1.8 -1.7,-3.5 -3.7,-3.7 -3.4,-0.4 -6.9,-0.2 -10,1.4 -3.4,1.7 -5,1.2 -6,-2.6 -0.5,-2 -1.6,-3.2 -3.4,-4 -3.7,-1.7 -11.4,-1.1 -13.8,2.2 -2.6,3.5 -5.2,3.6 -8.6,2.2 -0.9,-0.4 -1.9,-0.5 -2.9,-0.6 -5.3,-0.7 -9.8,0.3 -13,5.4 -1.9,3 -3.1,6 -4,9.4 -0.8,2.9 -3.7,4 -5.1,1.8 -1.8,-2.8 -2.8,-1.3 -4,0.2 -1.8,2.1 -4,4 -4.7,6.9 -0.3,0.9 -0.8,1.8 -1.7,2.4 -3.3,2.3 -4,5.1 -2,8.5 1.6,2.8 1.3,4.3 -2,5.4 -3.1,1 -3.8,7.7 -1.1,9.5 1.8,1.2 1.3,2.5 1.2,4.2 -0.4,4.8 -0.4,9.9 0.4,15.2 z m 69.3,63.7 c -8.1,3.1 -15.8,3.5 -23.7,2.9 -1.7,-0.1 -2.4,0.3 -2.4,2.2 0,3.1 -0.6,6.2 -2.3,8.8 -1.6,2.4 -0.7,3.8 1,5.3 3.8,3.3 7.6,6.5 11.4,9.9 0.9,0.8 1.5,0.9 2.5,0.2 4.3,-3.2 8.7,-6.4 13,-9.6 0.6,-0.4 1.3,-0.9 0.9,-1.8 -2.9,-5.7 -1.6,-11.4 -0.4,-17.9 z m -50.2,21.9 c 2.6,1.7 4.1,3.8 5.7,5.8 3.8,4.8 7.9,9.4 12.8,13 6.7,5 5,5.1 9.7,-1.2 0.6,-0.9 1.1,-2 1.9,-2.6 1.8,-1.5 1.3,-2.7 -0.3,-3.9 -5.6,-4.1 -9.4,-10.2 -15.7,-13.3 -0.6,-0.3 -0.7,-0.9 -0.7,-1.6 0.2,-2.2 -1,-2.1 -2.5,-1.5 -3.6,1.4 -7.2,2.9 -10.9,5.3 z m 53,21.6 c 1.5,-0.1 1.9,-1 2.4,-1.8 4,-6.7 8,-13.4 12,-20.1 0.4,-0.6 0.9,-1.5 0.1,-1.9 -2.5,-1.3 -5.2,-2.2 -8,-2.5 -2.1,-0.2 -0.3,2 -1.1,2.8 -0.3,0.3 -0.7,0.7 -1,1 -4.8,3.6 -9.7,7.3 -14.6,10.9 -1.1,0.8 -1.4,1.3 -0.1,2.1 3.1,2 5.3,5.1 8,7.5 0.7,0.8 1.6,1.5 2.3,2 z m -82.6,-82.7 c -0.1,5.3 3.1,9.3 8.8,9.9 0.8,0.1 1.8,0.4 2.4,-0.3 0.8,-0.8 -0.2,-1.6 -0.5,-2.3 -2.4,-4.6 -4.1,-9.4 -5.5,-14.3 -0.2,-0.8 -0.1,-1.8 -1.3,-1.9 -1.1,-0.1 -1.8,0.6 -2.4,1.4 -1.2,2 -1.4,4.2 -1.5,7.5 z m 116.8,10.2 c 3.9,-1.6 7.5,-3.6 10.4,-6.8 2.8,-3.1 2.6,-6.6 2.1,-10.3 -0.1,-1.1 -0.9,-1.7 -2,-1.9 -0.9,-0.2 -1.5,0.2 -1.8,1.3 -1.6,6.5 -5.1,12 -8.7,17.7 z" />
      <path
         inkscape:connector-curvature="0"
         id="XMLID_652_"
         fill="#FBE0C4"
         d="m 256.2,671.9 c -18,0.3 -30.4,-8.9 -40.1,-22.8 -5.6,-8 -9,-16.8 -10.8,-26.3 -0.3,-1.7 0.3,-2.4 1.4,-3.6 2.7,-3 5.7,-4.4 9.7,-4.7 3.1,-0.2 5.4,-2.2 6.2,-5.5 0.1,-0.6 0.2,-1.2 0.9,-1.4 3.8,-0.9 6,-5.5 10.6,-4.6 0.9,0.2 2.3,-0.6 2.9,-1.3 2.5,-3.4 5.8,-3 9.3,-2.5 1.8,0.2 3.8,0.2 5.5,-0.3 3.7,-1.1 6.7,-2.3 10.5,1 2.6,2.3 7.1,0.5 10.1,-2.1 1.6,-1.3 2.7,-1.9 4.4,0.1 2.4,2.8 5.7,2.6 10,-0.2 2.7,-1.8 4.7,-3 4.9,1.8 0,0.9 0.9,2.3 1.8,2.7 4.4,2 6.7,6.8 11.2,8.7 1,0.4 1.2,1.4 1.6,2.3 0.6,1.3 1.3,2.9 2.7,3.3 4,1.3 3.9,4.2 3.3,7.5 -0.6,3.3 -1.1,6.6 -2.7,9.5 -8.7,15.8 -20.6,28.2 -37.4,35.4 -5.1,2.2 -10.5,3.2 -16,3 z" />
      <path
         inkscape:connector-curvature="0"
         id="XMLID_632_"
         fill="#F9EEEA"
         d="m 235.6,720.5 c 0.9,0.3 1.4,0.9 1.6,1.8 0.1,2.4 0.2,4.9 0.2,7.3 0,1.7 0.8,2.1 2.2,2 3.3,-0.1 6.6,-0.1 9.9,-0.1 4.3,0 4.3,-0.1 3.8,-4.9 1,-1.3 1.2,-3.1 2.8,-4 0.1,1.8 0.2,3.7 0.1,5.5 -0.2,2.5 0.6,3.5 3.3,3.3 5.6,-0.4 11.2,-0.5 16.9,-0.6 1.6,0 2.6,-0.4 2.4,-2.2 0.8,-0.2 1.6,-0.4 2.4,-0.7 -0.2,2.2 0.9,2.9 3.1,2.8 4.6,-0.3 9.3,-0.6 13.9,-0.6 2.5,0 3.4,-0.7 3.4,-3.2 0,-7.7 0.2,-15.4 0.4,-23.1 1.2,0.1 2.2,0.6 2.9,1.5 0.2,7.4 0.4,14.9 0.5,22.3 0,1.8 0.6,2.4 2.4,2.3 3,-0.2 6.1,-0.4 9.1,-0.5 7.3,-0.2 7.3,-0.1 7.9,-7.6 2,3.7 4,7.4 6,11 -3.4,-0.6 -4.3,1 -4.1,4.2 0.3,3.3 0.1,6.6 0.1,9.9 0.1,3 -1,7.1 0.6,8.8 1.8,2 6,0.5 9.1,0.6 0.9,0.9 0.6,2.1 0.5,3.2 -2.6,0.1 -5.1,0.4 -7.7,0.3 -2,0 -2.5,0.7 -2.4,2.6 0.1,3.4 0,6.8 0.1,10.3 0,10.7 0,10.7 10.8,10.4 0.4,1.1 0.5,2.3 0.1,3.4 -0.4,0 -0.7,0 -1.1,0 -3,0.1 -7,-0.9 -8.9,0.6 -2.2,1.8 -0.8,5.9 -0.8,9 0,3.4 -1.6,7.8 0.7,9.8 2.2,2 6.5,0.6 9.9,0.7 0.5,1.1 0.5,2.2 0,3.3 -2.8,0 -5.6,0.1 -8.4,0.1 -1.6,0 -2.4,0.2 -2.5,2.1 -0.1,4.5 -0.4,9 -0.6,13.5 -1.2,0.6 -2.5,0.6 -3.8,0.1 0.2,-4.3 0.3,-8.6 0.6,-12.8 0.1,-2.1 -0.3,-3.1 -2.8,-3 -3.8,0.2 -7.6,0.2 -11.4,0.1 -2.1,-0.1 -2.8,0.6 -2.7,2.7 0.1,4.3 0.1,8.6 0.1,12.8 -1.8,0.5 -3.5,0.3 -5.1,-0.6 0,-4 -0.1,-8.1 0,-12.1 0.1,-1.9 -0.3,-2.9 -2.5,-2.8 -5,0.2 -10,0.2 -15.1,0 -2.3,-0.1 -3,0.9 -2.9,3 0,3.8 -0.1,7.6 -0.2,11.4 -1.5,0.5 -3.1,0.5 -4.7,0 0.1,-4 0.1,-8.1 0.4,-12.1 0.1,-1.8 -0.4,-2.4 -2.2,-2.3 -4.2,0.1 -8.3,0.2 -12.5,0.1 -2.6,-0.1 -3.1,1 -2.8,3.4 0.6,3.6 0.9,7.3 1.4,10.9 -1.5,0.5 -2.9,0.4 -4.4,-0.1 -0.3,-1.2 -0.4,-2.4 -0.8,-3.6 -1.1,-3.3 0.8,-8.2 -2.1,-9.8 -2.8,-1.5 -7.1,-0.3 -10.8,-0.3 -0.1,0 -0.2,0 -0.4,0 -1.9,-0.2 -2.6,0.5 -2.6,2.5 0,3.8 -0.2,7.6 -0.4,11.3 -1.2,0.5 -2.5,0.4 -3.7,0.1 -0.2,-1.5 -0.3,-2.9 -0.5,-4.4 -0.4,-3.1 1.4,-7.4 -1,-8.9 -2.2,-1.4 -6.1,0 -9.3,0.1 -0.2,0 -0.5,0 -0.7,0 -1.8,-0.2 -2.4,0.7 -2.3,2.4 0.3,3.8 0.4,7.6 0.6,11.3 -1.8,0.7 -3.7,0.9 -5.6,0.3 -0.1,-3.7 -0.4,-7.3 -0.4,-11 0,-1.8 -0.6,-2.4 -2.4,-2.3 -3.7,0.3 -7.3,0.6 -11,0.8 -1.8,0.1 -1.4,1.3 -1.4,2.3 0.3,3.8 0.7,7.6 1,11.3 -1.9,0.5 -3.8,0.6 -5.7,0.2 -0.1,-1.3 -0.3,-2.7 -0.4,-4 -0.7,-9.3 -0.7,-9.3 -9.9,-8.8 -0.3,-1.1 -0.4,-2.1 0.2,-3.2 1.9,-0.1 3.9,-0.2 5.8,-0.3 2,-0.1 3,-0.7 2.6,-3.1 -0.4,-3 -0.3,-6.1 -0.4,-9.1 -0.3,-8.1 -0.3,-8.1 -8.3,-8.1 -0.4,-1.1 -0.4,-2.2 0,-3.3 1.3,0 2.7,-0.2 4,0 3,0.4 4,-0.7 3.8,-3.8 -0.3,-4.9 -0.1,-9.7 -0.1,-14.6 0,-7 0,-7 -7,-7.3 -0.3,-1.2 -0.5,-2.4 0.3,-3.5 1,0 2,-0.1 2.9,0.1 3,0.6 4,-0.4 3.9,-3.6 -0.1,-5.5 0.2,-11 0.7,-16.5 0.2,-2.7 -0.8,-3.2 -3,-3 2.6,-4.5 2.9,-10.3 7.2,-14 0,2.7 0.1,5.4 -0.1,8.1 -0.1,1.8 0.2,2.8 2.3,2.7 3.7,-0.1 7.4,0 11,0 1.6,0 2.4,-0.4 2.5,-2.3 0.3,-8 0.7,-15.9 1.1,-23.9 0.8,-1 1.5,-2.1 3,-2.1 0,8.5 0,16.9 0,25.4 0,1.9 0.4,2.9 2.6,2.8 3.5,-0.2 7.1,-0.2 10.7,-0.1 1.8,0 2.6,-0.6 2.7,-2.5 0.5,-2.3 1,-5.2 1.4,-8.1 z m 42.8,25.1 c 0,-2.1 -0.1,-5 0,-8 0.1,-1.8 -0.3,-2.6 -2.3,-2.5 -5.5,0.3 -11,0.4 -16.5,0.4 -2.6,0 -3,1.1 -2.9,3.3 0.2,3.4 0.1,6.8 0.2,10.3 0.1,10.1 0.1,10.2 10.2,9.3 3.6,-0.3 8.3,1.2 10.5,-1.2 2.1,-2.5 0.4,-7.1 0.8,-11.6 z m -0.7,28.3 c 0.2,0 0.3,0 0.5,0 0,-2.9 -0.1,-5.9 0,-8.8 0.1,-2.1 -0.4,-2.8 -2.6,-2.7 -5.4,0.4 -10.7,0.6 -16.1,0.7 -1.7,0 -2,0.9 -1.9,2.3 0.1,5.9 0.2,11.7 0.2,17.6 0,2.1 0.9,2.4 2.7,2.3 3.2,-0.2 6.4,-0.2 9.5,-0.3 7.6,-0.4 7.6,-0.4 7.8,-8.2 -0.1,-1 -0.1,-2 -0.1,-2.9 z m 23.4,-28.3 c 0,0 0.1,0 0.1,0 0,-3.1 -0.1,-6.1 0,-9.2 0.1,-1.8 -0.6,-2.3 -2.3,-2.2 -4.9,0.3 -9.8,0.4 -14.7,0.5 -1.7,0 -2.6,0.6 -2.6,2.6 0.2,5.9 0.2,11.8 0.2,17.7 0,1.8 0.3,2.7 2.4,2.6 4.8,-0.3 9.6,-0.4 14.3,-0.5 1.9,0 2.6,-0.6 2.5,-2.6 0,-3 0.1,-5.9 0.1,-8.9 z m -0.1,26.8 c 0.1,0 0.1,0 0,0 0.1,-2.9 0,-5.9 0.1,-8.8 0.1,-2 -0.4,-2.8 -2.6,-2.7 -4.6,0.4 -9.3,0.6 -13.9,0.8 -2.1,0.1 -2.7,1 -2.6,3 0.1,3.8 0,7.6 0,11.4 -0.1,8.7 -0.1,8.8 8.7,7.9 3.4,-0.3 8.2,1.5 10,-1.2 1.6,-2.4 0.3,-6.8 0.3,-10.4 z m 22.3,-27.7 c 0.2,0 0.4,0 0.6,0 0,-3.2 -0.1,-6.4 0,-9.6 0.1,-1.9 -0.6,-2.3 -2.4,-2.1 -4.5,0.3 -9.1,0.5 -13.6,0.7 -1.8,0 -2.6,0.6 -2.5,2.5 0.1,6 0.2,12 0.1,18 0,1.7 0.4,2.4 2.2,2.3 4.4,-0.1 8.8,-0.2 13.2,0 2.1,0.1 2.4,-0.9 2.3,-2.6 0.1,-3 0.1,-6.1 0.1,-9.2 z m -0.1,27 c 0.1,0 0.1,0 0,0 0,-3.2 0,-6.4 0.1,-9.5 0,-1.4 -0.4,-2 -1.8,-2 -4.5,0.2 -9,0.4 -13.6,0.5 -1.7,0 -2.3,0.7 -2.3,2.5 0.2,6 0.3,12 0.2,18 0,2.1 0.8,2.8 2.8,2.7 4.1,-0.2 8.3,-0.3 12.5,-0.4 1.6,0 2.2,-0.6 2.1,-2.2 0,-3.3 0,-6.5 0,-9.6 z m -124.5,2.7 c 0.1,0 0.1,0 0.2,0 0,3.4 0,6.8 0,10.3 0,1.6 0.5,2.4 2.4,2.4 3.8,-0.2 7.6,-0.2 11.4,-0.2 1.7,0 2.4,-0.6 2.3,-2.4 -0.1,-6.4 -0.2,-12.7 -0.3,-19.1 0,-1.3 -0.2,-2.3 -2,-2.4 -4.2,-0.1 -8.3,-0.4 -12.4,-0.6 -1.6,-0.1 -2.2,0.5 -2.1,2.1 0.2,3.3 0.4,6.6 0.5,9.9 z M 214.3,748 c 0,-3.6 -0.1,-6.8 0,-10 0.1,-1.8 -0.6,-2.4 -2.3,-2.4 -3.7,0 -7.3,-0.1 -11,-0.3 -2,-0.1 -2.6,0.5 -2.6,2.4 -0.1,5.4 -0.3,10.8 -0.3,16.1 -0.1,4.9 0,4.9 4.9,5 3.6,0 8.5,1.4 10.6,-0.4 2.5,-2.2 0.3,-7.2 0.7,-10.4 z m 76.7,58.7 c 2.5,0 4.9,-0.2 7.4,0.1 2.4,0.2 2.9,-0.8 2.8,-2.9 -0.2,-4.4 -0.2,-8.8 0,-13.2 0.1,-2.7 -0.9,-3 -3.2,-2.7 -2.3,0.3 -4.6,0.3 -7,0.3 -8.8,0.2 -8.8,0.2 -9.5,9.1 -0.7,9.4 -0.7,9.4 8.8,9.5 0.2,-0.2 0.5,-0.2 0.7,-0.2 z m -37.8,-59.2 c 0,0 0.1,0 0.1,0 0,-3.1 -0.1,-6.1 0,-9.2 0.1,-1.9 -0.3,-2.7 -2.4,-2.6 -3.7,0.2 -7.3,0.1 -11,0.1 -1.6,0 -2.5,0.3 -2.4,2.2 0.2,6.1 0.3,12.2 0.3,18.4 0,2.5 1,3.2 3.3,3 3.2,-0.3 6.4,-0.4 9.5,-0.4 2,0 2.5,-0.8 2.4,-2.6 0.1,-3 0.2,-6 0.2,-8.9 z m -19.1,-0.2 c 0,0 0,0 0,0 0,-2.9 -0.1,-5.9 0.1,-8.8 0.1,-2 -0.4,-2.8 -2.6,-2.7 -3.4,0.2 -6.9,0.1 -10.3,0 -2.1,-0.1 -2.8,0.5 -2.7,2.6 0.3,6.2 0.6,12.5 0.7,18.7 0,1.8 0.8,2.3 2.4,2.3 3.3,-0.1 6.6,-0.1 9.9,0.1 1.9,0.1 2.6,-0.6 2.5,-2.5 -0.1,-3.3 0,-6.5 0,-9.7 z m 4.6,29 c 0.2,2 -1.7,7.2 0.7,9.1 2.3,1.8 7.2,0.3 11,0.5 2.2,0.1 2.7,-0.8 2.7,-2.8 0,-5.3 -0.2,-10.5 0.2,-15.8 0.2,-3.4 -0.7,-4.6 -4.2,-4.1 -3.4,0.6 -8.3,-1.3 -10.1,1 -1.7,2.3 -0.3,6.9 -0.3,12.1 z m -4.6,-1.5 c -0.4,-3.6 1.6,-8.8 -0.8,-10.7 -2.5,-1.9 -7.5,-0.6 -11.4,-0.9 -2,-0.1 -2.6,0.6 -2.4,2.5 0.3,3.7 0.4,7.4 0.5,11 0.3,10.7 0.2,10.7 11,9.8 0.2,0 0.5,-0.1 0.7,-0.1 1.8,0 2.6,-0.6 2.5,-2.7 -0.2,-2.8 -0.1,-5.8 -0.1,-8.9 z m 34,14.2 c -1,0.1 -1.7,0.1 -2.4,0.1 -8.2,0.6 -8.2,0.6 -7.8,8.8 0.3,8.7 0.3,8.7 9.4,8.7 9.3,0 9.3,0 9.6,-9 0.1,-2.9 1.3,-6.9 -0.1,-8.3 -1.9,-1.7 -5.8,-0.1 -8.7,-0.3 z m 55.1,8.3 c 0,-2.8 -0.1,-5.2 0,-7.5 0.1,-2.1 -0.5,-2.9 -2.6,-2.7 -4,0.2 -8.1,0.3 -12.1,0.3 -2,0 -2.5,0.8 -2.5,2.6 0.1,3.2 0.1,6.4 0.1,9.6 0,7 0,7.1 7.2,7 3.1,0 7.2,1.4 9.2,-0.6 2,-2 0.4,-6 0.7,-8.7 z M 215,799.9 c 0,-2.4 0,-4.9 0,-7.3 0,-1.6 -0.6,-2.2 -2.2,-2.1 -3.8,0.1 -7.6,0.2 -11.4,0.2 -1.6,0 -2.2,0.6 -2.1,2.2 0.3,3.8 0.4,7.6 0.7,11.3 0.4,5.7 0.4,5.7 6,5.3 9.4,-0.5 9.4,-0.5 9,-9.6 z m 24,-1.3 c 0,0.5 0,1 0,1.5 0,7.5 0,7.5 7.6,7.2 6.6,-0.3 6.6,-0.3 6.5,-7.1 0,-1.6 -0.1,-3.2 -0.1,-4.8 0,-5.7 0,-5.7 -5.7,-5.4 -8.4,0.2 -8.4,0.2 -8.3,8.6 z m -18.2,0.5 c 0,2.2 0.1,4.4 0,6.6 -0.1,1.6 0.3,2.6 2.2,2.4 3.2,-0.3 6.3,-0.5 9.5,-0.6 1.6,-0.1 1.7,-1 1.7,-2.2 0,-3.3 0,-6.6 0,-9.9 0,-5 0,-5.1 -5,-5 -2.8,0.1 -6.4,-1.1 -8.1,0.6 -1.9,1.8 -0.1,5.4 -0.3,8.1 z" />
      <path
         inkscape:connector-curvature="0"
         id="XMLID_631_"
         fill="#5A5B5B"
         d="m 205.2,614.9 c -0.8,-5.3 -0.7,-10.3 -0.2,-15.4 0.2,-1.6 0.6,-3 -1.2,-4.2 -2.7,-1.8 -1.9,-8.5 1.1,-9.5 3.4,-1.1 3.7,-2.6 2,-5.4 -2,-3.4 -1.3,-6.2 2,-8.5 0.8,-0.6 1.4,-1.4 1.7,-2.4 0.8,-2.9 2.9,-4.8 4.7,-6.9 1.2,-1.4 2.2,-3 4,-0.2 1.4,2.2 4.3,1.1 5.1,-1.8 0.9,-3.3 2.2,-6.4 4,-9.4 3.2,-5.1 7.7,-6 13,-5.4 1,0.1 2,0.3 2.9,0.6 3.4,1.4 6.1,1.3 8.6,-2.2 2.4,-3.2 10.1,-3.8 13.8,-2.2 1.8,0.8 2.9,2 3.4,4 1,3.8 2.6,4.4 6,2.6 3.1,-1.6 6.6,-1.8 10,-1.4 2,0.2 3,1.9 3.7,3.7 1.2,3.1 2.9,4.6 6.6,3.2 6.1,-2.3 10.1,3.9 10.4,9.1 0.2,3.3 0.4,5.4 4.1,7 4.7,2.1 5.5,8.1 2.4,12.6 -0.8,1.1 -0.4,2.1 0.4,2.9 1.2,1.3 2,2.8 2.6,4.4 0.3,0.8 0.6,1.9 -0.3,2.3 -5.4,2.5 -3.9,7.3 -3.5,11.5 0.2,2.9 0.2,5.8 0.4,8.8 -2.1,-0.1 -2.3,-1.6 -2.8,-2.7 -0.8,-1.7 -1.6,-3.3 -3.7,-3.7 -0.6,-0.1 -1.5,-0.5 -1.5,-0.9 -0.6,-4.5 -5,-4.9 -7.7,-6.9 -1.3,-1 -2.8,-2.3 -1.6,-4 1.6,-2.3 0.2,-2.4 -1.5,-2.9 -3.2,-1 -6,-0.2 -8.6,1.7 -2.2,1.6 -4.1,2.1 -6.5,-0.1 -2.3,-2.2 -5,-1.2 -7.4,0.3 -5.3,3.2 -5.8,3.1 -9.7,-1.4 -1.1,-1.3 -2.4,-2 -4.1,-0.6 -4.1,3.4 -9,2.7 -13.7,2.6 -0.5,0 -1.2,-0.2 -1.3,-0.5 -2.5,-5.2 -4,-1.2 -5.4,0.7 -2.2,2.7 -4.7,4.6 -8.5,3.6 -1.1,-0.3 -2.1,0.2 -2.4,1.3 -0.8,2.8 -2.9,3.7 -5.5,4 -1.1,0.1 -2,0.6 -2,1.8 -0.2,4.3 -3.5,5.2 -6.7,6.2 -2.7,0.9 -5.4,0.9 -7.1,3.7 z" />
      <path
         inkscape:connector-curvature="0"
         id="XMLID_630_"
         fill="#FBE0C4"
         d="m 274.5,678.6 c -1.2,6.5 -2.5,12.2 0.3,17.7 0.4,0.9 -0.3,1.3 -0.9,1.8 -4.3,3.2 -8.7,6.4 -13,9.6 -1,0.7 -1.5,0.7 -2.5,-0.2 -3.7,-3.4 -7.6,-6.6 -11.4,-9.9 -1.7,-1.5 -2.7,-2.9 -1,-5.3 1.7,-2.6 2.3,-5.7 2.3,-8.8 0,-1.9 0.7,-2.3 2.4,-2.2 7.9,0.8 15.7,0.5 23.8,-2.7 z" />
      <path
         inkscape:connector-curvature="0"
         id="XMLID_629_"
         fill="#D32728"
         d="m 224.3,700.5 c 3.7,-2.4 7.3,-3.8 11,-5.2 1.5,-0.6 2.7,-0.7 2.5,1.5 0,0.6 0,1.3 0.7,1.6 6.3,3.1 10.2,9.2 15.7,13.3 1.5,1.1 2.1,2.3 0.3,3.9 -0.8,0.7 -1.3,1.8 -1.9,2.6 -4.7,6.3 -3.1,6.2 -9.7,1.2 -4.9,-3.7 -9,-8.2 -12.8,-13 -1.7,-2.1 -3.2,-4.2 -5.8,-5.9 z" />
      <path
         inkscape:connector-curvature="0"
         id="XMLID_628_"
         fill="#D32728"
         d="m 302,703.8 c -0.1,7.7 -0.3,15.4 -0.4,23.1 0,2.5 -0.9,3.3 -3.4,3.2 -4.6,0 -9.3,0.3 -13.9,0.6 -2.2,0.2 -3.2,-0.5 -3.1,-2.8 5.4,-7.5 10,-15.4 13.1,-24.1 1.2,-3.3 2.2,-3.8 4.9,-1.8 0.8,0.8 1.9,1.2 2.8,1.8 z" />
      <path
         inkscape:connector-curvature="0"
         id="XMLID_627_"
         fill="#D32728"
         d="m 235.6,720.5 c -0.4,2.9 -0.9,5.8 -1.1,8.8 -0.1,1.9 -0.9,2.5 -2.7,2.5 -3.6,-0.1 -7.1,-0.1 -10.7,0.1 -2.2,0.1 -2.6,-0.8 -2.6,-2.8 0.1,-8.5 0,-16.9 0,-25.4 1.9,-1.8 3.1,-0.9 4.4,0.8 4.2,5.4 8.5,10.7 12.7,16 z" />
      <path
         inkscape:connector-curvature="0"
         id="XMLID_626_"
         fill="#D32728"
         d="m 324.8,721.9 c -0.6,7.4 -0.6,7.4 -7.9,7.6 -3,0.1 -6.1,0.2 -9.1,0.5 -1.7,0.1 -2.3,-0.5 -2.4,-2.3 -0.1,-7.4 -0.3,-14.9 -0.5,-22.3 7.7,4.2 14.7,9.2 19.9,16.5 z" />
      <path
         inkscape:connector-curvature="0"
         id="XMLID_625_"
         fill="#D32728"
         d="m 215.6,705.7 c -0.4,8 -0.8,15.9 -1.1,23.9 -0.1,1.9 -0.9,2.3 -2.5,2.3 -3.7,0 -7.4,-0.1 -11,0 -2.1,0 -2.4,-1 -2.3,-2.7 0.1,-2.7 0,-5.4 0.1,-8.1 3.7,-7.2 10.1,-11.5 16.8,-15.4 z" />
      <path
         inkscape:connector-curvature="0"
         id="XMLID_624_"
         fill="#D32728"
         d="m 277.3,722.1 c -0.7,-0.6 -1.6,-1.2 -2.4,-1.9 -2.7,-2.4 -4.8,-5.5 -8,-7.5 -1.2,-0.8 -0.9,-1.4 0.1,-2.1 4.9,-3.6 9.7,-7.2 14.6,-10.9 0.4,-0.3 0.7,-0.7 1,-1 0.8,-0.8 -1,-3 1.1,-2.8 2.8,0.2 5.5,1.2 8,2.5 0.8,0.4 0.3,1.3 -0.1,1.9 -4,6.7 -8,13.4 -12,20.1 -0.4,0.8 -0.9,1.7 -2.3,1.7 z" />
      <path
         inkscape:connector-curvature="0"
         id="XMLID_623_"
         fill="#D32728"
         d="m 280.4,824.8 c 0.1,-3.8 0.2,-7.6 0.2,-11.4 0,-2.1 0.6,-3.1 2.9,-3 5,0.1 10.1,0.1 15.1,0 2.3,-0.1 2.6,0.9 2.5,2.8 -0.1,4 0,8.1 0,12.1 -6.9,-0.2 -13.8,-0.4 -20.7,-0.5 z" />
      <path
         inkscape:connector-curvature="0"
         id="XMLID_622_"
         fill="#D32728"
         d="m 306.2,825.9 c 0,-4.3 0,-8.6 -0.1,-12.8 -0.1,-2.1 0.6,-2.8 2.7,-2.7 3.8,0.1 7.6,0.2 11.4,-0.1 2.5,-0.1 2.9,0.9 2.8,3 -0.3,4.3 -0.4,8.5 -0.6,12.8 -5.4,0.3 -10.8,0.7 -16.2,-0.2 z" />
      <path
         inkscape:connector-curvature="0"
         id="XMLID_621_"
         fill="#D32728"
         d="m 337.8,783.3 c -10.7,0.3 -10.7,0.3 -10.8,-10.4 0,-3.4 0.1,-6.8 -0.1,-10.3 -0.1,-1.9 0.5,-2.6 2.4,-2.6 2.6,0 5.1,-0.2 7.7,-0.3 1,7.8 1.2,15.7 0.8,23.6 z" />
      <path
         inkscape:connector-curvature="0"
         id="XMLID_620_"
         fill="#D32728"
         d="m 260,824.8 c -0.5,-3.6 -0.8,-7.3 -1.4,-10.9 -0.4,-2.3 0.2,-3.4 2.8,-3.4 4.2,0.1 8.3,0 12.5,-0.1 1.8,-0.1 2.3,0.6 2.2,2.3 -0.2,4 -0.3,8.1 -0.4,12.1 -5.2,0 -10.5,0 -15.7,0 z" />
      <path
         inkscape:connector-curvature="0"
         id="XMLID_619_"
         fill="#D32728"
         d="m 278.8,728.6 c 0.2,1.8 -0.8,2.2 -2.4,2.2 -5.6,0.1 -11.3,0.3 -16.9,0.6 -2.7,0.2 -3.4,-0.9 -3.3,-3.3 0.1,-1.8 -0.1,-3.7 -0.1,-5.5 0,-0.1 0,-0.3 0.1,-0.4 5.5,-8.8 6.1,-8.9 12.9,-1.1 2.7,3.2 5.6,6.2 9.7,7.5 z" />
      <path
         inkscape:connector-curvature="0"
         id="XMLID_618_"
         fill="#D32728"
         d="m 337.7,806.9 c -3.4,-0.1 -7.7,1.3 -9.9,-0.7 -2.3,-2.1 -0.7,-6.5 -0.7,-9.8 0,-3.1 -1.4,-7.3 0.8,-9 1.9,-1.5 5.8,-0.5 8.9,-0.6 0.4,0 0.7,0 1.1,0 0.2,6.6 0.3,13.4 -0.2,20.1 z" />
      <path
         inkscape:connector-curvature="0"
         id="XMLID_617_"
         fill="#D32728"
         d="m 238.5,824.8 c 0.1,-3.8 0.4,-7.6 0.4,-11.3 0,-1.9 0.7,-2.7 2.6,-2.5 0.1,0 0.2,0 0.4,0 3.7,0 8,-1.2 10.8,0.3 2.9,1.6 1.1,6.5 2.1,9.8 0.4,1.2 0.6,2.4 0.8,3.6 -5.7,0.5 -11.4,0.2 -17.1,0.1 z" />
      <path
         inkscape:connector-curvature="0"
         id="XMLID_616_"
         fill="#D32728"
         d="m 186.6,761.5 c 7,0.3 7,0.3 7,7.3 0,4.9 -0.2,9.8 0.1,14.6 0.2,3.1 -0.8,4.1 -3.8,3.8 -1.3,-0.2 -2.7,0 -4,0 -0.2,-8.5 -0.7,-17.1 0.7,-25.7 z" />
      <path
         inkscape:connector-curvature="0"
         id="XMLID_615_"
         fill="#D32728"
         d="m 201.9,826.9 c -0.3,-3.8 -0.7,-7.6 -1,-11.3 -0.1,-1 -0.5,-2.3 1.4,-2.3 3.7,-0.2 7.3,-0.5 11,-0.8 1.8,-0.2 2.4,0.5 2.4,2.3 0,3.7 0.3,7.3 0.4,11 -4.7,0.9 -9.5,0.5 -14.2,1.1 z" />
      <path
         inkscape:connector-curvature="0"
         id="XMLID_614_"
         fill="#D32728"
         d="m 185.9,790.6 c 8,0 8,0 8.3,8.1 0.1,3 -0.1,6.1 0.4,9.1 0.3,2.4 -0.7,3 -2.6,3.1 -1.9,0.1 -3.9,0.2 -5.8,0.3 -0.8,-6.9 -0.5,-13.8 -0.3,-20.6 z" />
      <path
         inkscape:connector-curvature="0"
         id="XMLID_613_"
         fill="#D32728"
         d="m 336.6,756.5 c -3.1,-0.1 -7.3,1.4 -9.1,-0.6 -1.6,-1.7 -0.5,-5.8 -0.6,-8.8 -0.1,-3.3 0.1,-6.6 -0.1,-9.9 -0.3,-3.2 0.6,-4.8 4.1,-4.2 3.2,7.4 5.1,15.3 5.7,23.5 z" />
      <path
         inkscape:connector-curvature="0"
         id="XMLID_612_"
         fill="#D32728"
         d="m 221.6,825.5 c -0.2,-3.8 -0.4,-7.6 -0.6,-11.3 -0.1,-1.7 0.5,-2.5 2.3,-2.4 0.2,0 0.5,0 0.7,0 3.2,-0.1 7.1,-1.5 9.3,-0.1 2.4,1.6 0.5,5.9 1,8.9 0.2,1.4 0.3,2.9 0.5,4.4 -4.4,0.1 -8.8,0.3 -13.2,0.5 z" />
      <path
         inkscape:connector-curvature="0"
         id="XMLID_611_"
         fill="#D32728"
         d="m 326.2,825.9 c 0.2,-4.5 0.6,-9 0.6,-13.5 0,-1.9 0.9,-2.2 2.5,-2.1 2.8,0.1 5.6,0 8.4,-0.1 0.1,4.4 0.1,8.8 0.3,13.2 0.1,1.7 -0.6,2.4 -2.3,2.4 -3.1,0 -6.3,0.1 -9.5,0.1 z" />
      <path
         inkscape:connector-curvature="0"
         id="XMLID_610_"
         fill="#D32728"
         d="m 185.9,814.3 c 9.3,-0.5 9.2,-0.5 9.9,8.8 0.1,1.3 0.3,2.7 0.4,4 -0.2,0.1 -0.4,0.2 -0.7,0.2 -9.4,2.2 -9.9,1.8 -9.8,-7.6 0,-1.8 0.1,-3.6 0.2,-5.4 z" />
      <path
         inkscape:connector-curvature="0"
         id="XMLID_609_"
         fill="#FBE0C4"
         d="m 194.7,639.4 c 0.1,-3.3 0.3,-5.4 1.6,-7.4 0.6,-0.9 1.2,-1.5 2.4,-1.4 1.2,0.1 1.1,1.1 1.3,1.9 1.4,4.9 3.1,9.8 5.5,14.3 0.3,0.7 1.3,1.4 0.5,2.3 -0.6,0.7 -1.6,0.4 -2.4,0.3 -5.7,-0.7 -9,-4.7 -8.9,-10 z" />
      <path
         inkscape:connector-curvature="0"
         id="XMLID_608_"
         fill="#D32728"
         d="m 191.5,735 c 2.2,-0.2 3.2,0.4 3,3 -0.5,5.5 -0.8,11 -0.7,16.5 0,3.1 -0.9,4.2 -3.9,3.6 -0.9,-0.2 -1.9,-0.1 -2.9,-0.1 0.2,-7.9 1.8,-15.6 4.5,-23 z" />
      <path
         inkscape:connector-curvature="0"
         id="XMLID_607_"
         fill="#FBE0C4"
         d="m 311.5,649.6 c 3.6,-5.7 7.1,-11.3 8.7,-17.7 0.3,-1.1 0.9,-1.4 1.8,-1.3 1,0.2 1.8,0.7 2,1.9 0.5,3.7 0.7,7.2 -2.1,10.3 -2.9,3.2 -6.5,5.3 -10.4,6.8 z" />
      <path
         inkscape:connector-curvature="0"
         id="XMLID_606_"
         fill="#D32728"
         d="m 253.3,726.7 c 0.6,4.8 0.6,4.8 -3.8,4.9 -3.3,0 -6.6,0 -9.9,0.1 -1.5,0 -2.3,-0.4 -2.2,-2 0,-2.4 -0.1,-4.9 -0.2,-7.3 2.3,0.7 3.7,2.7 5.5,4.1 4.8,3.4 5.7,3.4 10.6,0.2 z" />
      <path
         inkscape:connector-curvature="0"
         id="XMLID_605_"
         fill="#D32728"
         d="m 278.4,745.6 c -0.4,4.5 1.3,9.1 -0.8,11.5 -2.2,2.5 -6.9,0.9 -10.5,1.2 -10,0.9 -10.1,0.8 -10.2,-9.3 0,-3.4 0,-6.9 -0.2,-10.3 -0.1,-2.2 0.3,-3.3 2.9,-3.3 5.5,0.1 11,-0.1 16.5,-0.4 2.1,-0.1 2.4,0.7 2.3,2.5 -0.1,3.1 0,6 0,8.1 z" />
      <path
         inkscape:connector-curvature="0"
         id="XMLID_604_"
         fill="#D32728"
         d="m 277.7,773.9 c 0,1 0,2 0,2.9 -0.2,7.8 -0.2,7.8 -7.8,8.2 -3.2,0.2 -6.4,0.1 -9.5,0.3 -1.8,0.1 -2.7,-0.2 -2.7,-2.3 0.1,-5.9 -0.1,-11.7 -0.2,-17.6 0,-1.4 0.2,-2.3 1.9,-2.3 5.4,-0.1 10.8,-0.4 16.1,-0.7 2.2,-0.1 2.7,0.6 2.6,2.7 -0.2,2.9 0,5.9 0,8.8 -0.1,0 -0.3,0 -0.4,0 z" />
      <path
         inkscape:connector-curvature="0"
         id="XMLID_603_"
         fill="#D32728"
         d="m 301.1,745.6 c 0,2.9 -0.1,5.9 0,8.8 0.1,2 -0.6,2.6 -2.5,2.6 -4.8,0.1 -9.6,0.2 -14.3,0.5 -2.1,0.1 -2.4,-0.8 -2.4,-2.6 0,-5.9 0,-11.8 -0.2,-17.7 -0.1,-2 0.8,-2.5 2.6,-2.6 4.9,-0.1 9.8,-0.2 14.7,-0.5 1.8,-0.1 2.4,0.4 2.3,2.2 -0.1,3.1 0,6.1 0,9.2 -0.1,0.1 -0.1,0.1 -0.2,0.1 z" />
      <path
         inkscape:connector-curvature="0"
         id="XMLID_602_"
         fill="#D32728"
         d="m 301,772.4 c 0,3.6 1.3,8 -0.3,10.4 -1.8,2.7 -6.5,0.8 -10,1.2 -8.7,0.9 -8.7,0.8 -8.7,-7.9 0,-3.8 0.1,-7.6 0,-11.4 -0.1,-2 0.5,-2.9 2.6,-3 4.6,-0.2 9.3,-0.4 13.9,-0.8 2.2,-0.2 2.7,0.7 2.6,2.7 -0.1,2.9 0,5.9 -0.1,8.8 0.1,0 0.1,0 0,0 z" />
      <path
         inkscape:connector-curvature="0"
         id="XMLID_601_"
         fill="#D32728"
         d="m 323.3,744.7 c 0,3.1 -0.1,6.1 0,9.2 0.1,1.7 -0.2,2.7 -2.3,2.6 -4.4,-0.2 -8.8,-0.1 -13.2,0 -1.8,0.1 -2.3,-0.6 -2.2,-2.3 0.1,-6 0,-12 -0.1,-18 0,-2 0.7,-2.5 2.5,-2.5 4.5,-0.1 9.1,-0.3 13.6,-0.7 1.8,-0.1 2.4,0.3 2.4,2.1 -0.1,3.2 0,6.4 0,9.6 -0.3,0 -0.5,0 -0.7,0 z" />
      <path
         inkscape:connector-curvature="0"
         id="XMLID_600_"
         fill="#D32728"
         d="m 323.2,771.7 c 0,3.2 -0.1,6.4 0,9.5 0,1.6 -0.6,2.1 -2.1,2.2 -4.2,0 -8.3,0.1 -12.5,0.4 -2.1,0.1 -2.8,-0.6 -2.8,-2.7 0,-6 -0.1,-12 -0.2,-18 0,-1.7 0.6,-2.4 2.3,-2.5 4.5,-0.1 9,-0.3 13.6,-0.5 1.5,-0.1 1.9,0.6 1.8,2 -0.1,3.2 0,6.4 -0.1,9.6 0.1,0 0.1,0 0,0 z" />
      <path
         inkscape:connector-curvature="0"
         id="XMLID_599_"
         fill="#D32728"
         d="m 198.7,774.4 c -0.2,-3.3 -0.3,-6.6 -0.5,-9.9 -0.1,-1.6 0.4,-2.2 2.1,-2.1 4.1,0.3 8.3,0.5 12.4,0.6 1.8,0 2,1.1 2,2.4 0.1,6.4 0.1,12.7 0.3,19.1 0,1.7 -0.6,2.4 -2.3,2.4 -3.8,0 -7.6,0 -11.4,0.2 -1.9,0.1 -2.4,-0.7 -2.4,-2.4 0,-3.4 0,-6.8 0,-10.3 -0.1,0 -0.1,0 -0.2,0 z" />
      <path
         inkscape:connector-curvature="0"
         id="XMLID_598_"
         fill="#D32728"
         d="m 214.3,748 c -0.4,3.3 1.8,8.3 -0.7,10.4 -2.1,1.8 -7,0.4 -10.6,0.4 -4.9,-0.1 -5,-0.1 -4.9,-5 0.1,-5.4 0.3,-10.8 0.3,-16.1 0,-1.9 0.6,-2.6 2.6,-2.4 3.7,0.3 7.3,0.3 11,0.3 1.7,0 2.4,0.6 2.3,2.4 0,3.1 0,6.3 0,10 z" />
      <path
         inkscape:connector-curvature="0"
         id="XMLID_597_"
         fill="#D32728"
         d="m 291,806.7 c -0.2,0 -0.5,0 -0.7,0 -9.5,0 -9.5,0 -8.8,-9.5 0.7,-8.9 0.7,-8.9 9.5,-9.1 2.3,0 4.7,0 7,-0.3 2.3,-0.3 3.3,0.1 3.2,2.7 -0.2,4.4 -0.2,8.8 0,13.2 0.1,2.2 -0.4,3.2 -2.8,2.9 -2.4,-0.1 -4.9,0.1 -7.4,0.1 z" />
      <path
         inkscape:connector-curvature="0"
         id="XMLID_596_"
         fill="#D32728"
         d="m 253.2,747.5 c 0,2.9 -0.1,5.9 0,8.8 0.1,1.8 -0.4,2.7 -2.4,2.6 -3.2,0 -6.4,0.1 -9.5,0.4 -2.3,0.2 -3.3,-0.5 -3.3,-3 0,-6.1 -0.1,-12.2 -0.3,-18.4 -0.1,-1.9 0.8,-2.2 2.4,-2.2 3.7,0.1 7.4,0.1 11,-0.1 2,-0.1 2.5,0.7 2.4,2.6 -0.2,3.1 0,6.1 0,9.2 -0.2,0.1 -0.3,0.1 -0.3,0.1 z" />
      <path
         inkscape:connector-curvature="0"
         id="XMLID_595_"
         fill="#D32728"
         d="m 234.1,747.3 c 0,3.2 -0.1,6.4 0,9.6 0.1,1.9 -0.6,2.6 -2.5,2.5 -3.3,-0.1 -6.6,-0.1 -9.9,-0.1 -1.7,0 -2.4,-0.4 -2.4,-2.3 -0.1,-6.2 -0.3,-12.5 -0.7,-18.7 -0.1,-2.1 0.6,-2.7 2.7,-2.6 3.4,0.2 6.9,0.2 10.3,0 2.2,-0.1 2.7,0.7 2.6,2.7 -0.2,3 -0.1,6 -0.1,8.9 0,0 0,0 0,0 z" />
      <path
         inkscape:connector-curvature="0"
         id="XMLID_594_"
         fill="#D32728"
         d="m 238.7,776.3 c 0,-5.2 -1.3,-9.8 0.4,-12 1.8,-2.4 6.6,-0.5 10.1,-1 3.4,-0.6 4.4,0.7 4.2,4.1 -0.3,5.2 -0.2,10.5 -0.2,15.8 0,2 -0.5,2.9 -2.7,2.8 -3.8,-0.2 -8.7,1.4 -11,-0.5 -2.5,-2 -0.6,-7.2 -0.8,-9.2 z" />
      <path
         inkscape:connector-curvature="0"
         id="XMLID_593_"
         fill="#D32728"
         d="m 234.1,774.8 c 0,3.1 -0.1,6.1 0,9 0.1,2 -0.7,2.6 -2.5,2.7 -0.2,0 -0.5,0 -0.7,0.1 -10.7,0.9 -10.7,0.9 -11,-9.8 -0.1,-3.7 -0.2,-7.4 -0.5,-11 -0.2,-1.9 0.4,-2.6 2.4,-2.5 3.9,0.3 8.9,-1 11.4,0.9 2.6,1.8 0.5,7 0.9,10.6 z" />
      <path
         inkscape:connector-curvature="0"
         id="XMLID_592_"
         fill="#D32728"
         d="m 268.1,789 c 2.8,0.2 6.7,-1.4 8.6,0.4 1.4,1.4 0.2,5.4 0.1,8.3 -0.3,8.9 -0.3,8.9 -9.6,9 -9,0 -9,0 -9.4,-8.7 -0.3,-8.2 -0.3,-8.2 7.8,-8.8 0.9,-0.1 1.6,-0.1 2.5,-0.2 z" />
      <path
         inkscape:connector-curvature="0"
         id="XMLID_591_"
         fill="#D32728"
         d="m 323.2,797.3 c -0.3,2.7 1.3,6.7 -0.7,8.7 -2,2 -6.1,0.6 -9.2,0.6 -7.2,0.1 -7.2,0 -7.2,-7 0,-3.2 0,-6.4 -0.1,-9.6 -0.1,-1.8 0.5,-2.7 2.5,-2.6 4,0 8.1,-0.1 12.1,-0.3 2.2,-0.1 2.8,0.7 2.6,2.7 -0.1,2.4 0,4.7 0,7.5 z" />
      <path
         inkscape:connector-curvature="0"
         id="XMLID_590_"
         fill="#D32728"
         d="m 215,799.9 c 0.4,9 0.4,9 -8.9,9.6 -5.6,0.3 -5.6,0.3 -6,-5.3 -0.3,-3.8 -0.4,-7.6 -0.7,-11.3 -0.1,-1.6 0.5,-2.2 2.1,-2.2 3.8,0 7.6,0 11.4,-0.2 1.6,-0.1 2.2,0.5 2.2,2.1 -0.1,2.5 -0.1,4.9 -0.1,7.3 z" />
      <path
         inkscape:connector-curvature="0"
         id="XMLID_589_"
         fill="#D32728"
         d="m 239,798.6 c -0.1,-8.3 -0.1,-8.3 8.3,-8.6 5.7,-0.2 5.7,-0.2 5.7,5.4 0,1.6 0.1,3.2 0.1,4.8 0.1,6.7 0.1,6.7 -6.5,7.1 -7.6,0.4 -7.6,0.4 -7.6,-7.2 0,-0.6 0,-1.1 0,-1.5 z" />
      <path
         inkscape:connector-curvature="0"
         id="XMLID_588_"
         fill="#D32728"
         d="m 220.8,799.1 c 0.2,-2.8 -1.6,-6.3 0.2,-8.1 1.8,-1.7 5.4,-0.5 8.1,-0.6 5,-0.1 5,-0.1 5,5 0,3.3 0,6.6 0,9.9 0,1.2 0,2.1 -1.7,2.2 -3.2,0.1 -6.4,0.3 -9.5,0.6 -1.9,0.2 -2.3,-0.8 -2.2,-2.4 0.2,-2.2 0.1,-4.4 0.1,-6.6 z" />
    </g>
  </g>
</svg>
