<?xml version="1.0" encoding="UTF-8" standalone="no"?>
<svg
   xmlns:dc="http://purl.org/dc/elements/1.1/"
   xmlns:cc="http://creativecommons.org/ns#"
   xmlns:rdf="http://www.w3.org/1999/02/22-rdf-syntax-ns#"
   xmlns:svg="http://www.w3.org/2000/svg"
   xmlns="http://www.w3.org/2000/svg"
   xmlns:xlink="http://www.w3.org/1999/xlink"
   xmlns:sodipodi="http://sodipodi.sourceforge.net/DTD/sodipodi-0.dtd"
   xmlns:inkscape="http://www.inkscape.org/namespaces/inkscape"
   inkscape:version="1.0beta1 (32d4812, 2019-09-19)"
   id="svg1408"
   version="1.1"
   viewBox="0 0 238.12499 317.50001"
   height="1200"
   width="900">
  <defs
     id="defs1402">
    <clipPath
       id="SVGID_2_">
      <use
         xlink:href="#SVGID_1_"
         overflow="visible"
         id="use1978"
         x="0"
         y="0"
         width="100%"
         height="100%" />
    </clipPath>
    <circle
       id="SVGID_1_"
       cx="231.7"
       cy="310.29999"
       r="136.5" />
    <clipPath
       id="SVGID_4_">
      <use
         height="100%"
         width="100%"
         y="0"
         x="0"
         id="use2092"
         overflow="visible"
         xlink:href="#SVGID_3_" />
    </clipPath>
    <circle
       r="136.5"
       cy="310.29999"
       cx="543.90002"
       id="SVGID_3_" />
    <clipPath
       id="SVGID_6_">
      <use
         height="100%"
         width="100%"
         y="0"
         x="0"
         id="use2158"
         overflow="visible"
         xlink:href="#SVGID_5_" />
    </clipPath>
    <circle
       r="136.5"
       cy="310.29999"
       cx="856.09998"
       id="SVGID_5_" />
    <clipPath
       id="SVGID_8_">
      <use
         height="100%"
         width="100%"
         y="0"
         x="0"
         id="use2256"
         overflow="visible"
         xlink:href="#SVGID_7_" />
    </clipPath>
    <circle
       r="136.5"
       cy="310.29999"
       cx="1168.3"
       id="SVGID_7_" />
    <clipPath
       id="SVGID_10_">
      <use
         height="100%"
         width="100%"
         y="0"
         x="0"
         id="use2342"
         overflow="visible"
         xlink:href="#SVGID_9_" />
    </clipPath>
    <circle
       r="136.5"
       cy="669.70001"
       cx="231.7"
       id="SVGID_9_" />
    <clipPath
       id="SVGID_12_">
      <use
         height="100%"
         width="100%"
         y="0"
         x="0"
         id="use2418"
         overflow="visible"
         xlink:href="#SVGID_11_" />
    </clipPath>
    <circle
       r="136.5"
       cy="669.70001"
       cx="543.90002"
       id="SVGID_11_" />
    <clipPath
       id="SVGID_14_">
      <use
         height="100%"
         width="100%"
         y="0"
         x="0"
         id="use2556"
         overflow="visible"
         xlink:href="#SVGID_13_" />
    </clipPath>
    <circle
       r="136.5"
       cy="669.70001"
       cx="856.09998"
       id="SVGID_13_" />
    <clipPath
       id="SVGID_16_">
      <use
         height="100%"
         width="100%"
         y="0"
         x="0"
         id="use2684"
         overflow="visible"
         xlink:href="#SVGID_15_" />
    </clipPath>
    <circle
       r="136.5"
       cy="669.70001"
       cx="1168.3"
       id="SVGID_15_" />
  </defs>
  <sodipodi:namedview
     inkscape:window-maximized="0"
     inkscape:window-y="134"
     inkscape:window-x="20"
     inkscape:window-height="907"
     inkscape:window-width="1600"
     units="px"
     showgrid="false"
     inkscape:document-rotation="0"
     inkscape:current-layer="layer1"
     inkscape:document-units="mm"
     inkscape:cy="560"
     inkscape:cx="400"
     inkscape:zoom="0.35"
     inkscape:pageshadow="2"
     inkscape:pageopacity="0.0"
     borderopacity="1.0"
     bordercolor="#666666"
     pagecolor="#ffffff"
     id="base" />
  <metadata
     id="metadata1405">
    <rdf:RDF>
      <cc:Work
         rdf:about="">
        <dc:format>image/svg+xml</dc:format>
        <dc:type
           rdf:resource="http://purl.org/dc/dcmitype/StillImage" />
        <dc:title></dc:title>
      </cc:Work>
    </rdf:RDF>
  </metadata>
  <g
     id="layer1"
     inkscape:groupmode="layer"
     inkscape:label="Layer 1">
    <g
       transform="matrix(1.0583333,0,0,1.0583333,-456.87263,-143.01452)"
       id="XMLID_171_">
      <path
         inkscape:connector-curvature="0"
         id="XMLID_104_"
         fill="#1D1915"
         d="m 455.3,237.8 c 6.7,-4.4 6.2,-10.8 4.9,-17.4 -2,-10.3 -5.4,-20.3 -6.9,-30.8 -1.7,-12.1 -0.6,-23.6 5.6,-34.5 3.7,-6.5 9,-9.2 16.2,-8 8.6,1.4 16.9,3.5 23.7,9.7 1.8,1.7 4,3 5.3,5.2 1.1,1.9 1.8,0.5 2.7,-0.1 16.3,-10 34.3,-13.4 52.6,-9.4 20.5,4.5 37.6,15 47,35.3 5.1,11 5.8,22.4 4.5,34.1 -0.3,2.9 -0.7,5 2.8,6.7 4.3,2.1 6.4,11.9 4.6,17.5 -2.8,8.6 -8.2,11.7 -18.9,10 -2.2,-0.4 -3.3,0.3 -4.7,1.7 -7.3,7.7 -15,14.9 -24.4,19.9 -1.1,0.6 -2.2,1.3 -2.2,2.7 -0.1,3.9 -0.1,7.9 -0.1,11.8 0,1 0.3,2.4 2,1.8 6,-2.3 11.7,-0.4 17.1,2 13.1,5.9 25.3,13.1 34,25 7.2,10 10.7,21.4 12.5,33.4 3.4,23.1 2.1,46.3 1.1,69.4 0,0.2 0,0.5 -0.1,0.7 -1,8.9 -1.6,9.1 -10.5,9.6 -23.2,1.4 -46.3,-1.5 -69.5,-1.3 -24.7,0.3 -49.3,1.1 -74,2.3 -4.1,0.2 -7.6,-0.5 -10.6,-3.3 -2.3,-2.1 -2.7,-5 -2.8,-7.8 -1.3,-25.7 -2.9,-51.5 1.7,-77.1 5.5,-30.1 25.3,-46.6 53.1,-55.5 1.1,-0.4 2.4,-0.5 3.6,-0.5 4,-0.1 6.8,-4.6 5.3,-8.3 -0.3,-0.8 -1,-1 -1.7,-1.2 -13.3,-4 -22.4,-13.2 -29.9,-24.3 -1,-1.4 -1.4,-2.2 -3.6,-1.3 -5,1.9 -9.9,0.9 -14.3,-2.1 -0.6,-0.4 -1.1,-0.9 -1.6,-1.5 -5.3,-5.9 -1.9,-22.1 5.3,-25.3 1.8,-0.8 2,-1.7 1.9,-3.3 -0.5,-7.5 -0.8,-15 0.8,-22.3 1,-4.6 2.3,-9.3 3.7,-13.8 0.6,-1.8 0.1,-2.6 -1.6,-2.7 -2.6,-0.2 -5.1,-0.5 -7.4,-1.8 -1.9,-1 -1.9,0.8 -2.3,1.8 -2.1,5.5 -3,11.4 -3.9,17.2 -1.7,11.3 -5.8,21.9 -9.9,32.5 -2,5.1 -5.6,6.1 -11.1,3.3 z m 42,190.7 c 9.4,-0.1 18.7,-1.5 28,-1.4 24.4,0.2 48.8,-1.2 73.2,1.4 2.5,0.3 3.6,-0.3 3.3,-3.1 -1,-9.6 -0.1,-19.4 -1.2,-29 -1.5,-13.4 -0.9,-26.7 1.5,-39.9 2.1,-12 2.1,-24.5 7,-36 0.5,-1.2 0,-2.1 -0.9,-2.9 -3.5,-3.2 -7.4,-6.1 -11.4,-8.6 -1.5,-0.9 -2.5,-0.9 -2.7,1.2 -0.3,2.8 -0.7,5.6 -1,8.4 -1.7,14.7 -3.4,29.4 -5.3,44.1 -0.3,2.3 -1.1,4.6 -4.3,4.3 -6.5,-0.5 -13,-0.8 -19.5,-1.2 -14.5,-1 -28.9,-1.5 -43.3,1.3 -2.2,0.4 -4.4,0.7 -6.5,0.9 -0.8,0.1 -1.8,-0.1 -2.1,-1.1 -0.3,-1.1 0.4,-1.6 1.3,-1.9 1.3,-0.5 1.5,-1.3 1.4,-2.6 -1.5,-17.4 -5.4,-34.3 -10.4,-51 -0.6,-2 -1.5,-3.1 -3.6,-1.3 -1.8,1.5 -3.7,2.8 -5.5,4.3 -6,4.9 -6,4.9 -3.6,12.2 0.3,0.9 0.6,1.9 0.9,2.8 3.5,11.3 6.2,22.6 7.1,34.5 0.3,3.8 -1.5,7.2 -1.3,10.8 0.9,17.7 -0.3,35.5 -1.1,53.8 z m 76.4,-210.2 c -4.6,-4 -9.3,-7.8 -12.7,-12.9 -3.5,-5.3 -5.6,-10.9 -4.8,-17.6 1.2,0.4 1.2,1.4 1.4,2.1 2.1,7.4 6.1,13.6 11.9,18.6 8.5,7.3 18.8,11.2 29.5,13.8 2.3,0.6 2.7,-0.4 2.8,-2.4 0.8,-9.1 -1.1,-17.8 -2.7,-26.6 -2.5,-13.8 -10.3,-23.2 -22.5,-29.5 -13.7,-7 -28.2,-7.5 -43.1,-6 -5.3,0.5 -10.2,2.3 -15.2,3.9 -5.9,1.8 -10.2,6.4 -14,11.4 -9.6,12.8 -11.6,27.5 -11.1,42.9 0.1,2.1 -0.2,4.3 0.8,6.6 4.2,-3.7 7.9,-7.4 10.8,-11.8 2.6,-4.1 2.9,-9.1 4.7,-13.5 0.5,-1.3 0.3,-3.2 2.3,-3.3 2.1,-0.1 1.5,1.9 1.8,3 2.1,9.3 7.7,15.7 16.6,19.1 6.2,2.4 12.7,3.7 19.2,4.6 0.8,0.1 1.8,0.5 2,-0.8 -13.6,-8.8 -20.6,-23.5 -15.5,-34.1 1,10.1 3.2,19 11.1,25.3 7.9,6.3 17.2,6.8 26.7,7.2 z m -2.3,79.3 c -0.3,1.6 1.1,2.8 -0.8,4.1 -6.3,4.4 -12.8,8.6 -18.5,13.7 -3.4,3 -4.9,1.9 -7.5,-0.3 -5.8,-4.9 -10.4,-11.2 -17.3,-14.8 -0.4,-0.2 -0.6,-1.1 -0.5,-1.6 0.3,-2.7 -1.3,-2.1 -2.7,-1.6 -5.4,2.1 -10.4,4.8 -15.5,7.5 -2.1,1.1 -2.5,2.2 -1.5,4.3 7.4,16.4 11.9,33.6 13,51.6 0.1,2.4 1.1,2.4 3,2 6.1,-1.2 12.3,-2.1 18.6,-2.4 12.7,-0.6 25.3,0.3 37.9,1.2 2.1,0.1 2.9,-0.1 3.2,-2.5 2.1,-17 3.7,-34.1 9.4,-50.4 0.4,-1.1 0.6,-2.1 -0.8,-2.8 -6.4,-3.3 -12.5,-6.9 -20,-8 z m -59.9,-91.4 c -2.5,8.7 -8.1,14.5 -14,20 -2.1,1.9 -2.2,3.7 -1.5,6.2 2.6,8.6 6.8,16.3 12.4,23.2 15.5,19.5 40.1,24.1 61.1,11.3 10.6,-6.5 19.1,-15.3 26,-25.6 2.5,-3.7 4.3,-7.7 5.3,-12.1 0.4,-1.8 0.4,-2.7 -1.8,-2.7 -3.8,0 -7.6,-0.9 -11.1,-2.4 -2.9,-1.2 -5.1,-1.3 -7.6,0.9 -1.8,1.6 -4.4,2 -6.9,2.3 -13.5,1.7 -26.6,0.2 -39.6,-3.3 -9.8,-2.6 -18,-7.3 -22.3,-17.8 z m 99.7,114.3 c -0.5,5.1 -0.9,9.2 -1.2,13.3 -1,11 -1.7,22 -3.5,32.9 -0.9,5.3 -2.8,10.7 -2.2,15.9 1.6,14.5 2.9,29 3.3,43.6 0,1.8 0.6,2.3 2.3,2.2 4.8,-0.2 9.6,-0.5 14.3,-0.3 2.5,0.1 2.8,-0.9 2.8,-2.9 -0.1,-16.9 0,-33.9 -0.1,-50.8 -0.1,-10.1 -1.1,-20.1 -3.7,-29.9 -2.2,-8.4 -5.3,-16.5 -12,-24 z M 492.9,429 c -0.6,-2.1 -0.9,-4 -0.9,-6 0.4,-9.2 0.7,-18.4 1.2,-27.6 0.4,-8.3 1.9,-16.7 1.3,-24.9 -0.6,-8.7 -1.3,-17.5 -3.3,-26.2 -1.5,-6.7 -2.9,-13.4 -4.5,-20.7 -2.9,3.7 -4.4,7.3 -5.7,11 -5,13.7 -6.3,27.9 -6.4,42.3 -0.1,17.1 -0.1,34.1 -0.2,51.2 0,1.7 0.2,2.2 1.9,2.1 5.4,-0.5 10.9,-0.8 16.6,-1.2 z M 458.2,180.9 c 0.1,1.6 0.2,4.7 0.7,7.7 1.5,9.5 5.1,18.4 6.7,27.8 0.1,0.6 0.1,1.3 0.9,1.2 0.7,-0.1 0.9,-0.7 1.1,-1.3 0.8,-2.8 1.7,-5.6 2.3,-8.5 2.8,-12.3 5,-24.7 13.3,-35 3.2,-4 5.4,-8.8 9.4,-12.1 1.4,-1.1 1.7,-1.9 -0.2,-2.8 -5.4,-2.6 -11,-4.8 -17,-5.6 -6.8,-0.9 -8.8,0.3 -12.1,6.3 -3.7,6.6 -5.2,13.5 -5.1,22.3 z m 105,101.6 c 0.1,-1.7 -1,-1.4 -1.9,-1.1 -7,2.4 -14.1,2.8 -21.4,2.2 -2.2,-0.2 -2.7,0.6 -2.7,2.7 0,3 -0.6,5.9 -2.3,8.4 -1.5,2.2 -0.7,3.6 0.9,5 3.9,3.4 7.8,6.7 11.6,10.1 1.2,1.1 1.8,0.5 2.8,-0.2 3.1,-2.4 6.2,-4.8 9.4,-7 2.8,-1.9 5.3,-3.5 2.8,-7.4 -0.6,-0.9 -0.3,-2.4 -0.3,-3.6 -0.1,-3.2 0.1,-6.2 1.1,-9.1 z m -70,-100.1 c 2.5,-4.6 5.1,-9 8.2,-13.1 2.2,-2.9 -1.5,-4 -2.4,-6 -0.9,-2 -2.4,-0.3 -3.3,0.4 -3.8,3.2 -6.3,7.4 -9,11.5 -1.9,2.9 -1.1,4.1 1.9,4.7 1.8,0.3 3.3,1.1 4.6,2.5 z m -1,68.9 c 2.9,0.5 3.5,-0.2 2.4,-2.2 -2.4,-4.7 -4.2,-9.6 -5.7,-14.7 -0.2,-0.8 -0.2,-1.7 -1.4,-1.8 -1.2,-0.1 -1.9,0.6 -2.4,1.5 -2,3.9 -2,8 -0.3,12.1 1.5,3.4 4.4,5 7.4,5.1 z m 108.2,0.3 c 4.2,-1.5 7.7,-3.8 10.6,-7.1 2.7,-3.1 2.3,-6.5 1.8,-10.1 -0.1,-1.1 -0.9,-1.7 -2,-1.8 -0.8,-0.1 -1.4,0.1 -1.7,1 -1.5,6.7 -5.2,12.3 -8.7,18 z" />
      <path
         inkscape:connector-curvature="0"
         id="XMLID_101_"
         fill="#E03B26"
         d="m 497.3,428.5 c 0.9,-18.2 2,-36.1 1,-54 -0.2,-3.6 1.6,-7 1.3,-10.8 -0.9,-11.8 -3.6,-23.2 -7.1,-34.5 -0.3,-0.9 -0.6,-1.9 -0.9,-2.8 -2.4,-7.3 -2.4,-7.4 3.6,-12.2 1.8,-1.5 3.7,-2.8 5.5,-4.3 2.1,-1.8 3,-0.6 3.6,1.3 5,16.7 8.9,33.6 10.4,51 0.1,1.3 -0.1,2.1 -1.4,2.6 -0.9,0.3 -1.6,0.9 -1.3,1.9 0.3,1 1.3,1.2 2.1,1.1 2.2,-0.2 4.4,-0.4 6.5,-0.9 14.3,-2.9 28.8,-2.3 43.3,-1.3 6.5,0.4 13,0.7 19.5,1.2 3.3,0.2 4,-2 4.3,-4.3 1.8,-14.7 3.5,-29.4 5.3,-44.1 0.3,-2.8 0.7,-5.6 1,-8.4 0.2,-2.1 1.2,-2.1 2.7,-1.2 4,2.5 7.9,5.4 11.4,8.6 0.9,0.8 1.4,1.6 0.9,2.9 -4.9,11.5 -4.9,23.9 -7,36 -2.4,13.2 -3,26.5 -1.5,39.9 1.1,9.7 0.2,19.4 1.2,29 0.3,2.8 -0.8,3.4 -3.3,3.1 -24.4,-2.6 -48.8,-1.1 -73.2,-1.4 -9.3,0 -18.5,1.5 -27.9,1.6 z m 61.9,-43.8 c -14.5,0.1 -28.9,1.7 -43.4,1.5 -1.1,0 -2.2,0.4 -3.2,0.7 -0.9,0.3 -1.4,1 -1.3,2 0.1,0.9 0.6,1.7 1.5,1.9 1.1,0.2 2.2,0.2 3.3,0.3 11.7,0.4 23.3,-0.5 34.9,-0.8 10.2,-0.3 20.4,-0.3 30.5,-0.6 2,-0.1 5.3,0.5 5.2,-2.5 -0.1,-2.7 -3.5,-2.4 -5.5,-2.4 -7.3,-0.3 -14.7,-0.1 -22,-0.1 z" />
      <path
         inkscape:connector-curvature="0"
         id="XMLID_100_"
         fill="#F9E861"
         d="m 573.7,218.3 c -9.5,-0.4 -18.9,-0.9 -26.6,-7.1 -7.8,-6.3 -10,-15.2 -11.1,-25.3 -5.1,10.6 2,25.3 15.5,34.1 -0.3,1.3 -1.3,0.9 -2,0.8 -6.6,-1 -13,-2.3 -19.2,-4.6 -8.9,-3.4 -14.4,-9.8 -16.6,-19.1 -0.3,-1.1 0.3,-3.1 -1.8,-3 -2,0.1 -1.7,1.9 -2.3,3.3 -1.8,4.4 -2,9.4 -4.7,13.5 -2.9,4.5 -6.6,8.1 -10.8,11.8 -1.1,-2.3 -0.8,-4.5 -0.8,-6.6 -0.5,-15.4 1.5,-30.1 11.1,-42.9 3.8,-5 8,-9.6 14,-11.4 4.9,-1.5 9.9,-3.3 15.2,-3.9 14.8,-1.5 29.4,-1 43.1,6 12.2,6.3 20,15.7 22.5,29.5 1.6,8.8 3.5,17.6 2.7,26.6 -0.2,2 -0.6,3 -2.8,2.4 -10.8,-2.7 -21,-6.5 -29.5,-13.8 -5.8,-5 -9.8,-11.2 -11.9,-18.6 -0.2,-0.8 -0.2,-1.7 -1.4,-2.1 -0.9,6.6 1.2,12.3 4.8,17.6 3.3,4.9 8,8.8 12.6,12.8 z" />
      <path
         inkscape:connector-curvature="0"
         id="XMLID_99_"
         fill="#FEFEFE"
         d="m 571.4,297.6 c 7.5,1.1 13.6,4.7 19.9,8.1 1.4,0.7 1.1,1.7 0.8,2.8 -5.7,16.3 -7.3,33.4 -9.4,50.4 -0.3,2.4 -1,2.7 -3.2,2.5 -12.6,-0.9 -25.2,-1.8 -37.9,-1.2 -6.3,0.3 -12.4,1.2 -18.6,2.4 -1.9,0.4 -2.8,0.5 -3,-2 -1.1,-18 -5.6,-35.2 -13,-51.6 -1,-2.1 -0.6,-3.2 1.5,-4.3 5.1,-2.7 10.1,-5.5 15.5,-7.5 1.4,-0.5 3,-1.2 2.7,1.6 -0.1,0.5 0.2,1.4 0.5,1.6 6.9,3.6 11.5,9.9 17.3,14.8 2.6,2.2 4.2,3.4 7.5,0.3 5.7,-5.1 12.2,-9.4 18.5,-13.7 2,-1.4 0.6,-2.7 0.9,-4.2 z" />
      <path
         inkscape:connector-curvature="0"
         id="XMLID_98_"
         fill="#FADFC3"
         d="m 511.5,206.2 c 4.3,10.5 12.6,15.1 22.2,17.8 13,3.6 26.2,5 39.6,3.3 2.5,-0.3 5,-0.7 6.9,-2.3 2.5,-2.2 4.7,-2.1 7.6,-0.9 3.5,1.5 7.2,2.4 11.1,2.4 2.3,0 2.2,0.9 1.8,2.7 -1,4.4 -2.8,8.4 -5.3,12.1 -6.9,10.3 -15.4,19.1 -26,25.6 -20.9,12.8 -45.5,8.1 -61.1,-11.3 -5.6,-7 -9.8,-14.6 -12.4,-23.2 -0.7,-2.4 -0.6,-4.2 1.5,-6.2 6,-5.5 11.6,-11.3 14.1,-20 z" />
      <path
         inkscape:connector-curvature="0"
         id="XMLID_97_"
         fill="#FEFEFE"
         d="m 611.2,320.5 c 6.8,7.6 9.8,15.6 12,24.1 2.6,9.8 3.6,19.8 3.7,29.9 0.2,16.9 0.1,33.9 0.1,50.8 0,2.1 -0.3,3 -2.8,2.9 -4.8,-0.2 -9.6,0.1 -14.3,0.3 -1.8,0.1 -2.3,-0.5 -2.3,-2.2 -0.4,-14.6 -1.7,-29.1 -3.3,-43.6 -0.6,-5.2 1.3,-10.6 2.2,-15.9 1.8,-10.9 2.5,-21.9 3.5,-32.9 0.3,-4.2 0.7,-8.3 1.2,-13.4 z" />
      <path
         inkscape:connector-curvature="0"
         id="XMLID_96_"
         fill="#FEFEFE"
         d="m 492.9,429 c -5.7,0.4 -11.2,0.8 -16.6,1.2 -1.7,0.1 -1.9,-0.4 -1.9,-2.1 0.1,-17.1 0.1,-34.1 0.2,-51.2 0.1,-14.4 1.4,-28.6 6.4,-42.3 1.3,-3.7 2.8,-7.3 5.7,-11 1.6,7.3 3,14 4.5,20.7 1.9,8.6 2.6,17.4 3.3,26.2 0.6,8.2 -0.8,16.6 -1.3,24.9 -0.5,9.2 -0.8,18.4 -1.2,27.6 -0.1,2 0.3,3.9 0.9,6 z" />
      <path
         inkscape:connector-curvature="0"
         id="XMLID_95_"
         fill="#F9E861"
         d="m 458.2,180.9 c -0.1,-8.8 1.4,-15.8 5,-22.3 3.3,-6 5.4,-7.2 12.1,-6.3 6,0.8 11.6,3 17,5.6 1.9,0.9 1.6,1.7 0.2,2.8 -4,3.3 -6.2,8.1 -9.4,12.1 -8.2,10.3 -10.4,22.7 -13.3,35 -0.7,2.9 -1.5,5.7 -2.3,8.5 -0.2,0.6 -0.4,1.3 -1.1,1.3 -0.8,0.1 -0.8,-0.6 -0.9,-1.2 -1.6,-9.4 -5.2,-18.4 -6.7,-27.8 -0.4,-3 -0.5,-6 -0.6,-7.7 z" />
      <path
         inkscape:connector-curvature="0"
         id="XMLID_94_"
         fill="#FADFC3"
         d="m 563.2,282.5 c -1.1,2.9 -1.2,6 -1.1,9 0,1.2 -0.2,2.7 0.3,3.6 2.5,3.9 0,5.5 -2.8,7.4 -3.2,2.2 -6.3,4.6 -9.4,7 -0.9,0.7 -1.6,1.3 -2.8,0.2 -3.8,-3.4 -7.7,-6.7 -11.6,-10.1 -1.6,-1.4 -2.5,-2.8 -0.9,-5 1.7,-2.5 2.3,-5.4 2.3,-8.4 0,-2 0.5,-2.8 2.7,-2.7 7.2,0.6 14.4,0.2 21.4,-2.2 1,-0.2 2,-0.6 1.9,1.2 z" />
      <path
         inkscape:connector-curvature="0"
         id="XMLID_93_"
         fill="#E9877D"
         d="m 493.2,182.4 c -1.3,-1.4 -2.8,-2.2 -4.5,-2.5 -3.1,-0.6 -3.8,-1.8 -1.9,-4.7 2.7,-4.1 5.2,-8.3 9,-11.5 0.9,-0.7 2.3,-2.4 3.3,-0.4 0.9,1.9 4.6,3.1 2.4,6 -3.2,4.1 -5.8,8.5 -8.3,13.1 z" />
      <path
         inkscape:connector-curvature="0"
         id="XMLID_92_"
         fill="#FADFC3"
         d="m 492.2,251.3 c -3,-0.1 -5.9,-1.7 -7.4,-5.2 -1.7,-4 -1.7,-8.1 0.3,-12.1 0.4,-0.8 1.2,-1.5 2.4,-1.5 1.2,0.1 1.2,1 1.4,1.8 1.4,5.1 3.2,10 5.7,14.7 1.1,2.2 0.5,2.8 -2.4,2.3 z" />
      <path
         inkscape:connector-curvature="0"
         id="XMLID_91_"
         fill="#FADFC3"
         d="m 600.4,251.6 c 3.5,-5.8 7.2,-11.3 8.8,-18 0.2,-0.9 0.9,-1.1 1.7,-1 1.1,0.1 1.9,0.7 2,1.8 0.4,3.5 0.9,7 -1.8,10.1 -3,3.4 -6.5,5.7 -10.7,7.1 z" />
      <path
         inkscape:connector-curvature="0"
         id="XMLID_90_"
         fill="#1D1915"
         d="m 559.2,384.7 c 7.4,0 14.7,-0.1 22.1,0.1 2,0.1 5.4,-0.3 5.5,2.4 0.1,2.9 -3.1,2.4 -5.2,2.5 -10.2,0.3 -20.4,0.4 -30.5,0.6 -11.6,0.3 -23.3,1.2 -34.9,0.8 -1.1,0 -2.2,-0.1 -3.3,-0.3 -0.9,-0.2 -1.4,-0.9 -1.5,-1.9 -0.1,-1 0.4,-1.7 1.3,-2 1,-0.3 2.1,-0.7 3.2,-0.7 14.4,0.2 28.8,-1.4 43.3,-1.5 z" />
    </g>
  </g>
</svg>
