<?xml version="1.0" encoding="UTF-8" standalone="no"?>
<svg
   xmlns:dc="http://purl.org/dc/elements/1.1/"
   xmlns:cc="http://creativecommons.org/ns#"
   xmlns:rdf="http://www.w3.org/1999/02/22-rdf-syntax-ns#"
   xmlns:svg="http://www.w3.org/2000/svg"
   xmlns="http://www.w3.org/2000/svg"
   xmlns:xlink="http://www.w3.org/1999/xlink"
   xmlns:sodipodi="http://sodipodi.sourceforge.net/DTD/sodipodi-0.dtd"
   xmlns:inkscape="http://www.inkscape.org/namespaces/inkscape"
   inkscape:version="1.0beta1 (32d4812, 2019-09-19)"
   id="svg1408"
   version="1.1"
   viewBox="0 0 238.12499 317.50001"
   height="1200"
   width="900">
  <defs
     id="defs1402">
    <clipPath
       id="SVGID_2_">
      <use
         xlink:href="#SVGID_1_"
         overflow="visible"
         id="use1978"
         x="0"
         y="0"
         width="100%"
         height="100%" />
    </clipPath>
    <circle
       id="SVGID_1_"
       cx="231.7"
       cy="310.29999"
       r="136.5" />
    <clipPath
       id="SVGID_4_">
      <use
         height="100%"
         width="100%"
         y="0"
         x="0"
         id="use2092"
         overflow="visible"
         xlink:href="#SVGID_3_" />
    </clipPath>
    <circle
       r="136.5"
       cy="310.29999"
       cx="543.90002"
       id="SVGID_3_" />
    <clipPath
       id="SVGID_6_">
      <use
         height="100%"
         width="100%"
         y="0"
         x="0"
         id="use2158"
         overflow="visible"
         xlink:href="#SVGID_5_" />
    </clipPath>
    <circle
       r="136.5"
       cy="310.29999"
       cx="856.09998"
       id="SVGID_5_" />
    <clipPath
       id="SVGID_8_">
      <use
         height="100%"
         width="100%"
         y="0"
         x="0"
         id="use2256"
         overflow="visible"
         xlink:href="#SVGID_7_" />
    </clipPath>
    <circle
       r="136.5"
       cy="310.29999"
       cx="1168.3"
       id="SVGID_7_" />
    <clipPath
       id="SVGID_10_">
      <use
         height="100%"
         width="100%"
         y="0"
         x="0"
         id="use2342"
         overflow="visible"
         xlink:href="#SVGID_9_" />
    </clipPath>
    <circle
       r="136.5"
       cy="669.70001"
       cx="231.7"
       id="SVGID_9_" />
    <clipPath
       id="SVGID_12_">
      <use
         height="100%"
         width="100%"
         y="0"
         x="0"
         id="use2418"
         overflow="visible"
         xlink:href="#SVGID_11_" />
    </clipPath>
    <circle
       r="136.5"
       cy="669.70001"
       cx="543.90002"
       id="SVGID_11_" />
    <clipPath
       id="SVGID_14_">
      <use
         height="100%"
         width="100%"
         y="0"
         x="0"
         id="use2556"
         overflow="visible"
         xlink:href="#SVGID_13_" />
    </clipPath>
    <circle
       r="136.5"
       cy="669.70001"
       cx="856.09998"
       id="SVGID_13_" />
    <clipPath
       id="SVGID_16_">
      <use
         height="100%"
         width="100%"
         y="0"
         x="0"
         id="use2684"
         overflow="visible"
         xlink:href="#SVGID_15_" />
    </clipPath>
    <circle
       r="136.5"
       cy="669.70001"
       cx="1168.3"
       id="SVGID_15_" />
  </defs>
  <sodipodi:namedview
     inkscape:window-maximized="0"
     inkscape:window-y="134"
     inkscape:window-x="20"
     inkscape:window-height="907"
     inkscape:window-width="1600"
     units="px"
     showgrid="false"
     inkscape:document-rotation="0"
     inkscape:current-layer="layer1"
     inkscape:document-units="mm"
     inkscape:cy="560"
     inkscape:cx="400"
     inkscape:zoom="0.35"
     inkscape:pageshadow="2"
     inkscape:pageopacity="0.0"
     borderopacity="1.0"
     bordercolor="#666666"
     pagecolor="#ffffff"
     id="base" />
  <metadata
     id="metadata1405">
    <rdf:RDF>
      <cc:Work
         rdf:about="">
        <dc:format>image/svg+xml</dc:format>
        <dc:type
           rdf:resource="http://purl.org/dc/dcmitype/StillImage" />
        <dc:title></dc:title>
      </cc:Work>
    </rdf:RDF>
  </metadata>
  <g
     id="layer1"
     inkscape:groupmode="layer"
     inkscape:label="Layer 1">
    <g
       transform="matrix(1.0583333,0,0,1.0583333,-773.39059,-564.22865)"
       id="XMLID_511_">
      <path
         inkscape:connector-curvature="0"
         id="XMLID_365_"
         fill="#151815"
         d="m 758.4,797.3 c -0.1,-19.7 -0.2,-35.6 2.6,-51.2 5.5,-30.5 25.2,-47.5 53.4,-56.6 1,-0.3 2.2,-0.4 3.3,-0.4 4.4,-0.1 6.8,-3.7 5.7,-8 -0.3,-1.2 -1.3,-1.4 -2.2,-1.7 -12.6,-4.1 -21.7,-12.6 -28.9,-23.4 -1.2,-1.8 -1.9,-3.3 -5,-2 -4.8,1.9 -9.7,0.6 -13.9,-2.5 -0.5,-0.4 -0.9,-0.8 -1.3,-1.3 -5.3,-5.9 -2,-22.1 5.3,-25.2 2.1,-0.9 2,-2.1 1.8,-3.7 -1.1,-11.8 -0.2,-23.6 2.4,-35.1 5.1,-22.8 25.6,-41 48.8,-44.2 20.2,-2.8 38.4,1.6 53.1,16.2 10.3,10.3 15.4,23.2 17.4,37.6 1.3,9.3 2.8,18.4 2.2,27.8 -0.1,1 0.4,1.4 1.3,1.8 5.3,2.8 8.4,11 6.7,17.6 -1.9,7.5 -6.1,11.1 -13.4,11.3 -0.2,0 -0.5,0.1 -0.7,0 -6.1,-1.7 -10,1.2 -14,5.6 -5.8,6.3 -12.5,11.7 -20.2,15.8 -1.4,0.7 -2.2,1.6 -2.2,3.1 -0.1,3.7 0,7.4 0,11 0,1.6 0.8,2.3 2.3,1.9 5.9,-1.8 11.4,-0.1 16.7,2.3 11.7,5.2 22.7,11.7 31.2,21.6 9.2,10.5 13.2,23.4 15.2,37 3.3,22.8 2.1,45.8 1.1,68.7 0,0.5 -0.1,1 -0.1,1.5 -1,8.5 -1.6,8.7 -10.1,9.2 -22.6,1.5 -45.1,-1.5 -67.7,-1.2 -24.9,0.3 -49.8,1 -74.7,2.2 -3.9,0.2 -7.8,0.6 -11.2,-2.7 -1.8,-1.7 -2.8,-3.3 -3.1,-5.4 -1.6,-10.4 -1.7,-21 -1.8,-27.6 z m 160.8,-1 c 0,-15 0.6,-30 -2,-44.8 -2,-11.4 -4.9,-22.6 -12.7,-31.7 -6.8,-8 -15.7,-13.2 -24.7,-18.2 -2.4,-1.3 -3.2,-0.7 -4,1.7 -2.6,8 -6.9,15.2 -11.4,22.2 -2.1,3.3 -3.9,3.8 -7,1.9 -1.5,-0.9 -2.8,-2 -4,-3.2 -2.4,-2.4 -4.7,-5 -7,-7.5 -1.6,-1.7 -2.9,-1.7 -4.6,0.1 -2.1,2.4 -3.9,5 -5.7,7.6 -3.7,5.3 -6.7,5.8 -11.9,2 -7,-5 -12.1,-11.8 -17.2,-18.5 -4.6,-6 -4.6,-5.9 -10.9,-2.1 -12.3,7.4 -20.4,18 -24.3,31.9 -3.8,13.6 -4.6,27.5 -4.6,41.5 0,15 0.2,30 -0.2,44.9 -0.1,3.4 0.8,4.1 3.7,3.6 0.6,-0.1 1.2,-0.1 1.8,-0.1 19.9,-2 39.9,-2.7 59.9,-3.2 27.7,-0.7 55.4,2.3 83.1,1.3 2.9,-0.1 3.9,-0.8 3.8,-3.7 -0.2,-8.6 -0.1,-17.2 -0.1,-25.7 z M 837.4,671.7 c 1.7,0 3.4,0 5.2,0 0.6,0 1.2,-0.1 1.8,-0.3 22.2,-4.9 36.3,-19.7 46.9,-38.7 0.8,-1.4 1.1,-3 1.5,-4.5 2,-8.3 2,-16.8 1.3,-25.2 -0.3,-3.8 1.2,-7.5 0.2,-11.3 -2,-7.1 -4.7,-13.9 -8.6,-20.2 -18.1,-28.9 -61,-32.8 -85.6,-7.7 -2.1,2.2 -4.5,4.3 -5.8,7.1 -3.8,8.5 -6.2,17.4 -7.7,26.5 -3.4,21.9 1.5,41.4 16.1,58.2 9,10.6 20.4,16.5 34.7,16.1 z m 18.1,7.1 c -8.1,2.7 -15.9,3.4 -23.9,2.6 -1.8,-0.2 -1.9,0.9 -2,2.3 -0.1,3.1 -0.6,6.2 -2.4,8.8 -1.5,2.2 -0.8,3.6 0.9,5 3.9,3.4 7.9,6.7 11.7,10.1 1.2,1.1 1.9,0.5 2.8,-0.2 4,-3 8.1,-6 12.1,-9 0.8,-0.6 1.9,-1.1 1.3,-2.3 -2.9,-5.4 -1.2,-11 -0.5,-17.3 z m -49.8,21.5 c 1.9,1.6 3.2,3 4.5,4.5 5,6.3 10.5,12.2 17.2,16.9 1.8,1.3 2.8,1.5 4,-0.4 1.4,-2 2.8,-4 4.4,-5.9 1.3,-1.5 1.2,-2.8 -0.3,-4 -2.4,-1.9 -5,-3.7 -6.9,-6 -3,-3.7 -8.1,-5.3 -9.8,-10.2 -0.3,-0.9 -1.3,-0.6 -1.9,-0.3 -3.7,1.6 -7.5,3 -11.2,5.4 z m 57.7,-4.7 c 0.7,2 0.7,2.9 -1.2,4.4 -4.6,3.4 -9.1,7 -13.7,10.4 -0.8,0.6 -1.6,1.5 -0.3,2.3 3.5,2.2 5.8,5.6 8.8,8.3 1.6,1.4 2.6,1.2 3.7,-0.6 3.1,-4.7 6.1,-9.5 8.5,-14.6 1.2,-2.5 5.2,-4.8 3.2,-7.4 -1.5,-2 -5.4,-2.5 -9,-2.8 z m -78,-46.3 c 2.2,0.3 2.5,-0.4 1.5,-2.4 -2.3,-4.7 -4.3,-9.6 -5.6,-14.7 -0.2,-0.8 -0.4,-1.7 -1.5,-1.7 -1,0 -1.6,0.5 -2.1,1.3 -2.3,3.9 -2.2,8 -0.6,12 1.3,3.6 4.3,5.4 8.3,5.5 z m 107.3,0.2 c 3.8,-1.4 7.2,-3.5 10.1,-6.5 3.1,-3.1 2.9,-6.8 2.4,-10.6 -0.2,-1.2 -0.9,-1.9 -2.2,-2 -1.1,0 -1.3,0.6 -1.6,1.5 -1.7,6.5 -5,12 -8.7,17.6 z" />
      <path
         inkscape:connector-curvature="0"
         id="XMLID_364_"
         fill="#539571"
         d="m 919.2,796.3 c 0,8.6 -0.1,17.2 0.1,25.8 0.1,3 -0.9,3.6 -3.8,3.7 -27.7,1 -55.4,-2 -83.1,-1.3 -20,0.5 -40,1.2 -59.9,3.2 -0.6,0.1 -1.2,0 -1.8,0.1 -2.9,0.4 -3.7,-0.2 -3.7,-3.6 0.4,-15 0.2,-30 0.2,-44.9 0,-14 0.7,-27.9 4.6,-41.5 3.9,-14 12,-24.5 24.3,-31.9 6.3,-3.8 6.3,-3.8 10.9,2.1 5.1,6.7 10.2,13.4 17.2,18.5 5.2,3.7 8.2,3.3 11.9,-2 1.8,-2.6 3.6,-5.2 5.7,-7.6 1.6,-1.8 3,-1.8 4.6,-0.1 2.3,2.5 4.6,5.1 7,7.5 1.2,1.2 2.6,2.3 4,3.2 3.1,1.9 4.9,1.4 7,-1.9 4.5,-7 8.8,-14.2 11.4,-22.2 0.8,-2.4 1.6,-3 4,-1.7 9.1,5 17.9,10.2 24.7,18.2 7.8,9.1 10.7,20.3 12.7,31.7 2.6,14.7 2,29.7 2,44.7 z" />
      <path
         inkscape:connector-curvature="0"
         id="XMLID_359_"
         fill="#FADFC3"
         d="m 837.4,671.7 c -14.3,0.5 -25.7,-5.5 -34.8,-16.1 -14.5,-16.8 -19.5,-36.3 -16.1,-58.2 1.4,-9.2 3.9,-18.1 7.7,-26.5 1.3,-2.8 3.6,-4.9 5.8,-7.1 24.6,-25 67.6,-21.2 85.6,7.7 3.9,6.3 6.6,13.1 8.6,20.2 1.1,3.8 -0.5,7.4 -0.2,11.3 0.8,8.4 0.8,16.9 -1.3,25.2 -0.4,1.5 -0.7,3.2 -1.5,4.5 -10.6,18.9 -24.7,33.8 -46.9,38.7 -0.6,0.1 -1.2,0.3 -1.8,0.3 -1.7,0 -3.4,0 -5.1,0 z m 3.5,-24.2 c 1.8,2.4 4.3,3.5 7.1,4.2 6.9,1.7 13.9,1.1 20.8,0.9 1.1,0 1.9,-0.5 2.3,-1.5 0.4,-1.1 -0.3,-1.9 -1.2,-2.4 -1.9,-1.2 -2.7,-3.1 -3.7,-4.9 -1.9,-3.6 -4.5,-6.7 -7.8,-9.1 -5.9,-4.3 -12.1,-4.4 -18,-0.1 -1,0.7 -1.4,0.6 -2.3,0 -5.6,-3.4 -11.3,-3 -16.2,1.4 -2,1.8 -3.7,3.9 -5.4,6 -2.7,3.3 -4.9,7.1 -9.5,8.2 -1.1,0.3 -1.6,1.2 -1.6,2.2 0.1,1.4 1,2.2 2.3,2.5 2.6,0.5 5.3,1.2 8,1.2 9.2,0 18.5,-0.1 25.2,-8.6 z m 27.7,-49.6 c -3.3,0 -5.7,0.5 -7.7,1.9 -1.8,1.3 -3.9,2.6 -3.4,5.2 0.7,3.3 3.5,5.5 6.8,4.7 3.5,-0.9 4.6,0.4 5.6,3.4 1,3 3.8,4 6.5,3.3 2.1,-0.5 5,-1.2 4.9,-4.1 0,-7.2 -4.2,-14.6 -12.7,-14.4 z m -52.1,12.2 c 4.6,0 7,-2.3 6.3,-6.2 -0.4,-2.5 -2.3,-4 -4.4,-5 -6.4,-3 -14.3,0.8 -16.9,8.3 -0.9,2.6 -1.6,5.4 1.4,7.2 3,1.8 6.9,1 8.8,-1.8 1.3,-2 2.7,-3.1 4.8,-2.5 z" />
      <path
         inkscape:connector-curvature="0"
         id="XMLID_358_"
         fill="#F4DBBF"
         d="m 855.5,678.8 c -0.7,6.3 -2.4,11.9 0.5,17.4 0.6,1.2 -0.6,1.7 -1.3,2.3 -4,3 -8.1,6 -12.1,9 -0.9,0.7 -1.6,1.3 -2.8,0.2 -3.8,-3.5 -7.8,-6.7 -11.7,-10.1 -1.6,-1.4 -2.4,-2.8 -0.9,-5 1.8,-2.6 2.2,-5.7 2.4,-8.8 0.1,-1.4 0.2,-2.5 2,-2.3 8,0.7 15.8,0 23.9,-2.7 z" />
      <path
         inkscape:connector-curvature="0"
         id="XMLID_357_"
         fill="#539571"
         d="m 805.7,700.3 c 3.7,-2.4 7.5,-3.8 11.2,-5.4 0.6,-0.3 1.6,-0.6 1.9,0.3 1.7,4.9 6.8,6.5 9.8,10.2 1.9,2.3 4.5,4.1 6.9,6 1.5,1.3 1.6,2.5 0.3,4 -1.6,1.9 -3,3.8 -4.4,5.9 -1.3,1.9 -2.2,1.7 -4,0.4 -6.7,-4.7 -12.1,-10.6 -17.2,-16.9 -1.3,-1.5 -2.6,-2.9 -4.5,-4.5 z" />
      <path
         inkscape:connector-curvature="0"
         id="XMLID_356_"
         fill="#539571"
         d="m 863.4,695.6 c 3.6,0.3 7.4,0.8 9,2.8 2.1,2.7 -2,4.9 -3.2,7.4 -2.3,5.1 -5.4,9.8 -8.5,14.6 -1.2,1.8 -2.2,2 -3.7,0.6 -3,-2.6 -5.3,-6.1 -8.8,-8.3 -1.3,-0.8 -0.6,-1.7 0.3,-2.3 4.6,-3.4 9.1,-7 13.7,-10.4 2,-1.4 1.9,-2.4 1.2,-4.4 z" />
      <path
         inkscape:connector-curvature="0"
         id="XMLID_355_"
         fill="#F4DBBF"
         d="m 785.4,649.3 c -3.9,-0.1 -6.9,-1.9 -8.3,-5.6 -1.5,-4 -1.7,-8.1 0.6,-12 0.5,-0.8 1.1,-1.3 2.1,-1.3 1.2,0 1.3,0.9 1.5,1.7 1.3,5.1 3.3,10 5.6,14.7 0.9,2.1 0.6,2.8 -1.5,2.5 z" />
      <path
         inkscape:connector-curvature="0"
         id="XMLID_354_"
         fill="#F4DBBF"
         d="m 892.7,649.5 c 3.6,-5.6 6.9,-11.1 8.7,-17.5 0.3,-0.9 0.5,-1.6 1.6,-1.5 1.4,0 2.1,0.7 2.2,2 0.5,3.8 0.7,7.4 -2.4,10.6 -2.9,2.9 -6.2,5 -10.1,6.4 z" />
      <path
         inkscape:connector-curvature="0"
         id="XMLID_351_"
         fill="#151815"
         d="m 840.9,647.5 c -6.7,8.5 -15.9,8.6 -25.2,8.4 -2.7,-0.1 -5.3,-0.7 -8,-1.2 -1.3,-0.2 -2.3,-1 -2.3,-2.5 0,-1 0.5,-2 1.6,-2.2 4.6,-1.1 6.8,-5 9.5,-8.2 1.7,-2.1 3.4,-4.2 5.4,-6 4.9,-4.4 10.6,-4.8 16.2,-1.4 1,0.6 1.4,0.7 2.3,0 5.9,-4.3 12.1,-4.2 18,0.1 3.3,2.4 5.9,5.5 7.8,9.1 1,1.8 1.8,3.7 3.7,4.9 0.8,0.5 1.6,1.3 1.2,2.4 -0.4,1 -1.2,1.5 -2.3,1.5 -7,0.2 -14,0.9 -20.8,-0.9 -2.8,-0.5 -5.4,-1.6 -7.1,-4 z m 22.1,1.2 c -2.4,-4.8 -4.8,-8.9 -9.1,-11.5 -3.7,-2.3 -11.6,-2.4 -13,0.3 -1,2 -1.3,1.4 -2.6,0.7 -5.9,-3.3 -10.3,-2.5 -14.6,2.7 -2.6,3.2 -4.9,6.6 -7.7,10.4 7,-0.2 13.7,0.4 19.2,-4 3.1,-2.5 5.4,-5.7 9.1,-1.2 0.1,0.2 0.4,0.2 0.7,0.3 5.6,1.6 11.5,2.7 18,2.3 z" />
      <path
         inkscape:connector-curvature="0"
         id="XMLID_348_"
         fill="#151815"
         d="m 868.6,597.9 c 8.5,-0.2 12.7,7.2 12.8,14.4 0,2.9 -2.9,3.6 -4.9,4.1 -2.8,0.7 -5.6,-0.3 -6.5,-3.3 -1,-3 -2,-4.3 -5.6,-3.4 -3.3,0.8 -6.1,-1.3 -6.8,-4.7 -0.6,-2.6 1.6,-3.9 3.4,-5.2 1.9,-1.3 4.3,-1.9 7.6,-1.9 z m 6.9,14.1 c 0.6,-9.3 -6.9,-11.1 -12.1,-8.7 -0.6,0.3 -1.5,0.5 -1.4,1.4 0.1,1 1,1.4 1.9,1.3 5.3,-1.1 8.5,1.3 10.7,5.8 0,0.1 0.4,0.1 0.9,0.2 z" />
      <path
         inkscape:connector-curvature="0"
         id="XMLID_345_"
         fill="#151815"
         d="m 816.5,610.1 c -2.1,-0.6 -3.5,0.6 -4.8,2.5 -1.9,2.8 -5.8,3.6 -8.8,1.8 -3,-1.8 -2.3,-4.6 -1.4,-7.2 2.6,-7.5 10.4,-11.3 16.9,-8.3 2.2,1 4,2.5 4.4,5 0.7,3.9 -1.7,6.2 -6.3,6.2 z m -10.7,1.5 c 2.1,0.2 2.8,-1 3.5,-2.1 1.3,-2.1 3.1,-2.8 5.5,-2.7 1.3,0.1 3.6,0.8 3.8,-0.9 0.2,-1.8 -2,-2.4 -3.7,-2.9 -2,-0.7 -3.6,0 -5,1.3 -2.1,1.9 -3.5,4.2 -4.1,7.3 z" />
      <path
         inkscape:connector-curvature="0"
         id="XMLID_307_"
         fill="#C2C1C1"
         d="m 863,648.7 c -6.5,0.3 -12.4,-0.7 -18.2,-2.4 -0.2,-0.1 -0.5,-0.1 -0.7,-0.3 -3.7,-4.5 -6,-1.3 -9.1,1.2 -5.5,4.5 -12.2,3.8 -19.2,4 2.8,-3.8 5.1,-7.2 7.7,-10.4 4.4,-5.2 8.7,-6 14.6,-2.7 1.3,0.7 1.6,1.3 2.6,-0.7 1.4,-2.7 9.3,-2.6 13,-0.3 4.5,2.7 6.9,6.8 9.3,11.6 z" />
      <path
         inkscape:connector-curvature="0"
         id="XMLID_306_"
         fill="#C2C1C1"
         d="m 875.5,612 c -0.5,-0.1 -0.9,-0.1 -1,-0.2 -2.1,-4.6 -5.4,-6.9 -10.7,-5.8 -0.9,0.2 -1.8,-0.2 -1.9,-1.3 -0.1,-0.9 0.8,-1.2 1.4,-1.4 5.3,-2.4 12.9,-0.6 12.2,8.7 z" />
      <path
         inkscape:connector-curvature="0"
         id="XMLID_305_"
         fill="#C2C1C1"
         d="m 805.8,611.6 c 0.7,-3.1 2.1,-5.4 4.2,-7.4 1.4,-1.3 3,-2 5,-1.3 1.7,0.5 3.9,1.1 3.7,2.9 -0.2,1.7 -2.5,1 -3.8,0.9 -2.4,-0.1 -4.2,0.6 -5.5,2.7 -0.8,1.2 -1.6,2.4 -3.6,2.2 z" />
    </g>
  </g>
</svg>
