<?xml version="1.0" encoding="UTF-8" standalone="no"?>
<svg
   xmlns:dc="http://purl.org/dc/elements/1.1/"
   xmlns:cc="http://creativecommons.org/ns#"
   xmlns:rdf="http://www.w3.org/1999/02/22-rdf-syntax-ns#"
   xmlns:svg="http://www.w3.org/2000/svg"
   xmlns="http://www.w3.org/2000/svg"
   xmlns:xlink="http://www.w3.org/1999/xlink"
   xmlns:sodipodi="http://sodipodi.sourceforge.net/DTD/sodipodi-0.dtd"
   xmlns:inkscape="http://www.inkscape.org/namespaces/inkscape"
   inkscape:version="1.0beta1 (32d4812, 2019-09-19)"
   id="svg1408"
   version="1.1"
   viewBox="0 0 238.12499 317.50001"
   height="1200"
   width="900">
  <defs
     id="defs1402">
    <clipPath
       id="SVGID_2_">
      <use
         xlink:href="#SVGID_1_"
         overflow="visible"
         id="use1978"
         x="0"
         y="0"
         width="100%"
         height="100%" />
    </clipPath>
    <circle
       id="SVGID_1_"
       cx="231.7"
       cy="310.29999"
       r="136.5" />
    <clipPath
       id="SVGID_4_">
      <use
         height="100%"
         width="100%"
         y="0"
         x="0"
         id="use2092"
         overflow="visible"
         xlink:href="#SVGID_3_" />
    </clipPath>
    <circle
       r="136.5"
       cy="310.29999"
       cx="543.90002"
       id="SVGID_3_" />
    <clipPath
       id="SVGID_6_">
      <use
         height="100%"
         width="100%"
         y="0"
         x="0"
         id="use2158"
         overflow="visible"
         xlink:href="#SVGID_5_" />
    </clipPath>
    <circle
       r="136.5"
       cy="310.29999"
       cx="856.09998"
       id="SVGID_5_" />
  </defs>
  <sodipodi:namedview
     inkscape:window-maximized="0"
     inkscape:window-y="134"
     inkscape:window-x="20"
     inkscape:window-height="907"
     inkscape:window-width="1600"
     units="px"
     showgrid="false"
     inkscape:document-rotation="0"
     inkscape:current-layer="layer1"
     inkscape:document-units="mm"
     inkscape:cy="560"
     inkscape:cx="400"
     inkscape:zoom="0.35"
     inkscape:pageshadow="2"
     inkscape:pageopacity="0.0"
     borderopacity="1.0"
     bordercolor="#666666"
     pagecolor="#ffffff"
     id="base" />
  <metadata
     id="metadata1405">
    <rdf:RDF>
      <cc:Work
         rdf:about="">
        <dc:format>image/svg+xml</dc:format>
        <dc:type
           rdf:resource="http://purl.org/dc/dcmitype/StillImage" />
        <dc:title></dc:title>
      </cc:Work>
    </rdf:RDF>
  </metadata>
  <g
     id="layer1"
     inkscape:groupmode="layer"
     inkscape:label="Layer 1">
    <g
       transform="matrix(1.2567708,0,0,1.2567708,-956.85595,-240.38056)"
       style="opacity:1;stop-opacity:1"
       id="g2247">
      <defs
         id="defs2156">
        <circle
           r="136.5"
           cy="310.29999"
           cx="856.09998"
           id="circle5295" />
      </defs>
      <clipPath
         id="clipPath5192">
        <use
           height="100%"
           width="100%"
           y="0"
           x="0"
           id="use5190"
           overflow="visible"
           xlink:href="#SVGID_5_" />
      </clipPath>
      <g
         id="g2245"
         clip-path="url(#SVGID_6_)">
        <g
           id="g2163">
          <path
             inkscape:connector-curvature="0"
             id="path2161"
             d="m 826.5,328.2 c 0,5.7 -4.6,10.2 -10.2,10.2 v 0 c -5.7,0 -10.2,-4.6 -10.2,-10.2 v -8.4 c 0,-5.7 4.6,-10.2 10.2,-10.2 v 0 c 5.7,0 10.2,4.6 10.2,10.2 z"
             fill="#FBB36B" />
        </g>
        <g
           id="g2167">
          <path
             inkscape:connector-curvature="0"
             id="path2165"
             d="m 883.2,328.2 c 0,5.7 4.6,10.2 10.2,10.2 v 0 c 5.7,0 10.2,-4.6 10.2,-10.2 v -8.4 c 0,-5.7 -4.6,-10.2 -10.2,-10.2 v 0 c -5.7,0 -10.2,4.6 -10.2,10.2 z"
             fill="#FBB36B" />
        </g>
        <g
           id="g2171">
          <path
             inkscape:connector-curvature="0"
             id="path2169"
             d="m 903.2,264 c 0,0 3.8,20.5 1,39.5 -2.9,19 -16.6,43.8 -16.6,43.8 l -64.2,2.4 c 0,0 -13.3,-15.2 -14.7,-38.5 -1.4,-23.3 1,-32.3 1,-32.3 z"
             fill="#3C362D" />
        </g>
        <g
           id="g2193">
          <g
             id="g2175">
            <path
               inkscape:connector-curvature="0"
               id="path2173"
               d="m 896.7,387.7 c -18.4,-4.6 -34.3,-7.3 -39.8,-8.2 v -0.3 c 0,0 -0.4,0.1 -1,0.2 -0.7,-0.1 -1,-0.2 -1,-0.2 v 0.3 c -5.5,0.9 -21.4,3.6 -39.8,8.2 -22.8,5.7 -21.9,56.1 -21.9,56.1 h 125.4 c 0,0 1,-50.4 -21.9,-56.1 z"
               fill="#FECE8B" />
          </g>
          <g
             id="g2179">
            <path
               inkscape:connector-curvature="0"
               id="path2177"
               d="m 871.6,378.2 -4.7,-4.7 -21.8,0.9 -4.4,3.8 c 0,0 2.5,9.2 4.4,10.1 1.9,1 10.5,1.9 12.7,1.9 2.2,0 6,-2.5 6,-2.5 z"
               fill="#211A16" />
          </g>
          <g
             id="g2183">
            <path
               inkscape:connector-curvature="0"
               id="path2181"
               d="m 862.6,364.9 -6.9,-1.4 -6.9,1.4 c 0,0 -5.2,14.3 -5.2,20.5 0,6.2 12.1,9 12.1,9 0,0 12.1,-2.9 12.1,-9 0.1,-6.3 -5.2,-20.5 -5.2,-20.5 z"
               fill="#FBB36B" />
          </g>
          <g
             id="g2187">
            <path
               inkscape:connector-curvature="0"
               id="path2185"
               d="m 809.7,390.3 c 0.9,5.5 2.4,15.8 2.4,26.6 0,0 -4.2,13.1 -4.7,27 h 95.9 c -0.4,-13.8 -4.7,-27 -4.7,-27 0,-11.3 1.6,-22 2.5,-27.3 -1.4,-0.8 -2.8,-1.5 -4.4,-1.9 -2.9,-0.7 -5.8,-1.4 -8.6,-2 -3,23.1 -28.2,27.1 -32.8,27.6 -4.6,-0.5 -29.7,-4.5 -32.8,-27.4 -2.4,0.6 -4.9,1.2 -7.5,1.8 -1.9,0.5 -3.7,1.5 -5.3,2.6 z"
               fill="#37302B" />
          </g>
          <g
             id="g2191">
            <path
               inkscape:connector-curvature="0"
               id="path2189"
               d="m 856.1,384.9 c 0,0 -11.5,-2.7 -15.5,-6.7 v 8.9 c 0,0 3.1,7.9 15.5,7.9 12.4,0 15.5,-7.9 15.5,-7.9 v -8.9 c -4,4 -15.5,6.7 -15.5,6.7 z"
               fill="#37302B" />
          </g>
        </g>
        <g
           id="g2197">
          <path
             inkscape:connector-curvature="0"
             id="path2195"
             d="m 855.9,272.1 -39.3,10.4 c 0,0 0,3.3 0,42.4 0,39.1 39.3,53.3 39.3,53.3 0,0 39.3,-14.1 39.3,-53.3 0,-39.1 0,-42.4 0,-42.4 z"
             fill="#FECE8B" />
        </g>
        <g
           id="g2207">
          <g
             id="g2201">
            <path
               inkscape:connector-curvature="0"
               id="path2199"
               d="m 878.1,314.9 c 0,3.2 -1.1,5.9 -2.5,5.9 -1.4,0 -2.5,-2.6 -2.5,-5.9 0,-3.2 1.1,-5.9 2.5,-5.9 1.4,0.1 2.5,2.7 2.5,5.9 z"
               fill="#3C362D" />
          </g>
          <g
             id="g2205">
            <path
               inkscape:connector-curvature="0"
               id="path2203"
               d="m 838.8,314.9 c 0,3.2 -1.1,5.9 -2.5,5.9 -1.4,0 -2.5,-2.6 -2.5,-5.9 0,-3.2 1.1,-5.9 2.5,-5.9 1.4,0.1 2.5,2.7 2.5,5.9 z"
               fill="#3C362D" />
          </g>
        </g>
        <g
           id="g2211">
          <path
             inkscape:connector-curvature="0"
             id="path2209"
             d="m 864,343.4 -8.6,-6.2 -7.6,5.3 c 0,0 2.7,5.3 7.7,4.9 5.1,-0.4 8.5,-4 8.5,-4 z"
             fill="#FBB36B" />
        </g>
        <g
           id="g2215">
          <path
             inkscape:connector-curvature="0"
             id="path2213"
             d="m 839.7,357 v 0 c -0.4,-0.4 -0.4,-1 0,-1.3 v 0 c 0.4,-0.4 1,-0.4 1.4,-0.1 v 0 c 0.1,0 4.1,3.9 12.6,3.9 v 0 c 0.3,0 0.6,0 0.9,0 v 0 c 9.3,-0.3 17.3,-4.3 17.4,-4.3 v 0 c 0.5,-0.2 1,0 1.3,0.4 v 0 c 0.2,0.5 0,1 -0.4,1.3 v 0 c -0.1,0 -8.4,4.2 -18.2,4.5 v 0 c -0.3,0 -0.7,0 -1,0 v 0 c -9.2,0 -13.9,-4.3 -14,-4.4 z"
             fill="#F04B3A" />
        </g>
        <g
           id="g2219">
          <path
             inkscape:connector-curvature="0"
             id="path2217"
             d="m 826.9,306.9 c -1,-0.4 -1.4,-1.5 -1,-2.5 v 0 c 0.1,-0.2 2.2,-5.3 8,-6.5 v 0 c 0.5,-0.1 1,-0.2 1.4,-0.2 v 0 c 5.9,0.2 11.4,5.6 11.6,5.7 v 0 c 0.8,0.7 0.8,1.9 0.1,2.7 v 0 c -0.7,0.8 -1.9,0.8 -2.7,0.1 v 0 c 0,0 -1.4,-1.2 -3.2,-2.4 v 0 c -1.9,-1.2 -4.2,-2.4 -5.9,-2.3 v 0 c -0.2,0 -0.4,0 -0.7,0.1 v 0 c -3.7,0.6 -5.3,4.2 -5.3,4.3 v 0 0 c -0.3,0.7 -1,1.1 -1.7,1.1 v 0 c -0.1,0 -0.3,0 -0.6,-0.1 z"
             fill="#3C362D" />
        </g>
        <g
           id="g2223">
          <path
             inkscape:connector-curvature="0"
             id="path2221"
             d="m 884.7,308.2 c 0,0 -0.9,-1.6 -2.2,-3.1 v 0 c -1.3,-1.6 -3.1,-3.2 -4.9,-3.1 v 0 h -0.1 c -3.6,-0.2 -10,5.7 -10,5.8 v 0 c -0.7,0.7 -1.9,0.7 -2.7,0 v 0 c -0.7,-0.7 -0.7,-1.9 0,-2.7 v 0 c 0.2,0 6.3,-6.7 12.7,-6.9 v 0 c 0.1,0 0.3,0 0.5,0 v 0 c 6.8,0.7 9.9,8.3 10.1,8.3 v 0 c 0.5,0.9 0.1,2.1 -0.9,2.5 v 0 c -0.3,0.1 -0.6,0.2 -0.8,0.2 v 0 c -0.7,0 -1.4,-0.4 -1.7,-1 z"
             fill="#3C362D" />
        </g>
        <g
           id="g2227">
          <polygon
             id="polygon2225"
             points="822,244.1 855,234.9 852.1,232.7 "
             fill="#F04B3A" />
        </g>
        <g
           id="g2231">
          <path
             inkscape:connector-curvature="0"
             id="path2229"
             d="m 854.8,245.6 c 0,0 -9.8,-8.1 -8.1,-19.9 1.7,-11.8 42,-27.5 45.2,-1.5 3.2,26 -12.8,26 -12.8,26 z"
             fill="#3C362D" />
        </g>
        <g
           id="g2235">
          <path
             inkscape:connector-curvature="0"
             id="path2233"
             d="m 888,247.9 c 0,6.7 -9.4,12 -21.1,12 -11.6,0 -21.1,-5.4 -21.1,-12 0,-6.7 9.4,-12.1 21.1,-12.1 11.6,0 21.1,5.4 21.1,12.1 z"
             fill="#F04B3A" />
        </g>
        <g
           id="g2239">
          <path
             inkscape:connector-curvature="0"
             id="path2237"
             d="m 888.6,282.9 c 0,0 -17.8,8.9 -39.5,16.1 -21.7,7.2 -26.7,7.2 -26.7,7.2 L 830,299 c 0,0 -11.9,6.3 -13.5,9.2 -1.6,2.9 -1.3,9.2 -1.3,9.2 0,0 -9.2,-16.1 -8.6,-36.9 0.7,-20.8 29.3,-51.2 66.2,-38.7 0,0 22.2,-3 31.4,16.8 9.2,19.8 -8.3,43.6 -8.3,43.6 z"
             fill="#3C362D" />
        </g>
        <g
           id="g2243">
          <path
             inkscape:connector-curvature="0"
             id="path2241"
             d="m 883.2,225 c 0,0 0.6,2.2 1.6,2.2 1,0 34.2,-10.5 34.2,-10.5 l -1.3,-3.5 z"
             fill="#F04B3A" />
        </g>
      </g>
    </g>
  </g>
</svg>
