<?xml version="1.0" encoding="UTF-8" standalone="no"?>
<svg
   xmlns:dc="http://purl.org/dc/elements/1.1/"
   xmlns:cc="http://creativecommons.org/ns#"
   xmlns:rdf="http://www.w3.org/1999/02/22-rdf-syntax-ns#"
   xmlns:svg="http://www.w3.org/2000/svg"
   xmlns="http://www.w3.org/2000/svg"
   xmlns:xlink="http://www.w3.org/1999/xlink"
   xmlns:sodipodi="http://sodipodi.sourceforge.net/DTD/sodipodi-0.dtd"
   xmlns:inkscape="http://www.inkscape.org/namespaces/inkscape"
   inkscape:version="1.0beta1 (32d4812, 2019-09-19)"
   id="svg1408"
   version="1.1"
   viewBox="0 0 238.12499 317.50001"
   height="1200"
   width="900">
  <defs
     id="defs1402">
    <clipPath
       id="SVGID_2_">
      <use
         xlink:href="#SVGID_1_"
         overflow="visible"
         id="use1978"
         x="0"
         y="0"
         width="100%"
         height="100%" />
    </clipPath>
    <circle
       id="SVGID_1_"
       cx="231.7"
       cy="310.29999"
       r="136.5" />
    <clipPath
       id="SVGID_4_">
      <use
         height="100%"
         width="100%"
         y="0"
         x="0"
         id="use2092"
         overflow="visible"
         xlink:href="#SVGID_3_" />
    </clipPath>
    <circle
       r="136.5"
       cy="310.29999"
       cx="543.90002"
       id="SVGID_3_" />
    <clipPath
       id="SVGID_6_">
      <use
         height="100%"
         width="100%"
         y="0"
         x="0"
         id="use2158"
         overflow="visible"
         xlink:href="#SVGID_5_" />
    </clipPath>
    <circle
       r="136.5"
       cy="310.29999"
       cx="856.09998"
       id="SVGID_5_" />
    <clipPath
       id="SVGID_8_">
      <use
         height="100%"
         width="100%"
         y="0"
         x="0"
         id="use2256"
         overflow="visible"
         xlink:href="#SVGID_7_" />
    </clipPath>
    <circle
       r="136.5"
       cy="310.29999"
       cx="1168.3"
       id="SVGID_7_" />
    <clipPath
       id="SVGID_10_">
      <use
         height="100%"
         width="100%"
         y="0"
         x="0"
         id="use2342"
         overflow="visible"
         xlink:href="#SVGID_9_" />
    </clipPath>
    <circle
       r="136.5"
       cy="669.70001"
       cx="231.7"
       id="SVGID_9_" />
    <clipPath
       id="SVGID_12_">
      <use
         height="100%"
         width="100%"
         y="0"
         x="0"
         id="use2418"
         overflow="visible"
         xlink:href="#SVGID_11_" />
    </clipPath>
    <circle
       r="136.5"
       cy="669.70001"
       cx="543.90002"
       id="SVGID_11_" />
    <clipPath
       id="SVGID_14_">
      <use
         height="100%"
         width="100%"
         y="0"
         x="0"
         id="use2556"
         overflow="visible"
         xlink:href="#SVGID_13_" />
    </clipPath>
    <circle
       r="136.5"
       cy="669.70001"
       cx="856.09998"
       id="SVGID_13_" />
    <clipPath
       id="SVGID_16_">
      <use
         height="100%"
         width="100%"
         y="0"
         x="0"
         id="use2684"
         overflow="visible"
         xlink:href="#SVGID_15_" />
    </clipPath>
    <circle
       r="136.5"
       cy="669.70001"
       cx="1168.3"
       id="SVGID_15_" />
  </defs>
  <sodipodi:namedview
     inkscape:window-maximized="0"
     inkscape:window-y="134"
     inkscape:window-x="20"
     inkscape:window-height="907"
     inkscape:window-width="1600"
     units="px"
     showgrid="false"
     inkscape:document-rotation="0"
     inkscape:current-layer="layer1"
     inkscape:document-units="mm"
     inkscape:cy="560"
     inkscape:cx="400"
     inkscape:zoom="0.35"
     inkscape:pageshadow="2"
     inkscape:pageopacity="0.0"
     borderopacity="1.0"
     bordercolor="#666666"
     pagecolor="#ffffff"
     id="base" />
  <metadata
     id="metadata1405">
    <rdf:RDF>
      <cc:Work
         rdf:about="">
        <dc:format>image/svg+xml</dc:format>
        <dc:type
           rdf:resource="http://purl.org/dc/dcmitype/StillImage" />
        <dc:title></dc:title>
      </cc:Work>
    </rdf:RDF>
  </metadata>
  <g
     id="layer1"
     inkscape:groupmode="layer"
     inkscape:label="Layer 1">
    <g
       transform="matrix(1.3229166,0,0,1.3229166,-606.73089,-289.45414)"
       style="opacity:1;stop-opacity:1"
       id="g7384">
      <g
         id="g7280">
        <path
           inkscape:connector-curvature="0"
           id="path7274"
           d="M 583.7,385 H 513 c -1.1,2.4 -6.4,33.1 -7.7,40.8 -0.2,0.9 0.5,1.7 1.5,1.7 H 590 c 0.9,0 1.6,-0.8 1.5,-1.7 -1.3,-7.6 -6.6,-38.4 -7.8,-40.8 z"
           fill="#ECC19C" />
        <polygon
           id="polygon7276"
           points="590.1,416 584.9,389.9 512.1,389 510.2,398.5 "
           fill="#B2805F" />
        <path
           inkscape:connector-curvature="0"
           id="path7278"
           d="m 590,429 h -83.2 c -0.8,0 -1.6,-0.4 -2.2,-1 -0.5,-0.6 -0.8,-1.5 -0.6,-2.3 2.5,-14.4 6.8,-38.8 7.8,-41.2 0.2,-0.5 0.7,-0.8 1.2,-0.8 h 70.7 c 0.5,0 1,0.3 1.2,0.8 1.1,2.4 5.4,26.8 7.8,41.2 0.1,0.8 -0.1,1.7 -0.6,2.3 -0.4,0.6 -1.2,1 -2.1,1 z m -75.9,-42.6 c -1,3.8 -3.8,19.1 -7.4,39.7 0,0 0,0.1 0,0.1 0,0 0.1,0 0.1,0 H 590 c 0,0 0.1,0 0.1,0 0,0 0,-0.1 0,-0.1 -3.5,-20.6 -6.4,-35.9 -7.4,-39.7 z"
           fill="#5E1145" />
      </g>
      <path
         inkscape:connector-curvature="0"
         id="path7282"
         d="m 621,429.7 c -22.1,-14.9 -47.4,-15.2 -47.4,-15.2 h -50.4 c 0,0 -25.3,0.3 -47.4,15.2 -10.7,15.8 -12,27.8 -12,27.8 h 169.3 c 0,0 -1.3,-12 -12.1,-27.8 z"
         fill="#585B67" />
      <path
         inkscape:connector-curvature="0"
         id="path7284"
         d="M 633.1,458.8 H 463.8 c -0.4,0 -0.8,-0.2 -1,-0.5 -0.3,-0.3 -0.4,-0.7 -0.3,-1.1 0.1,-0.5 1.4,-12.5 12.3,-28.4 0.1,-0.1 0.2,-0.3 0.4,-0.4 22.2,-14.9 47.1,-15.4 48.2,-15.4 0.8,0 1.4,0.6 1.4,1.3 0,0.8 -0.6,1.4 -1.3,1.4 -0.2,0 -25,0.5 -46.5,14.8 -8.1,12 -10.7,21.8 -11.4,25.5 h 166.1 c -0.7,-3.6 -3.3,-13.5 -11.4,-25.5 -21.5,-14.3 -46.2,-14.8 -46.5,-14.8 -0.8,0 -1.4,-0.6 -1.3,-1.4 0,-0.8 0.6,-1.4 1.4,-1.3 1,0 25.9,0.5 48.2,15.4 0.1,0.1 0.3,0.2 0.4,0.4 10.8,15.9 12.2,27.9 12.3,28.4 0,0.4 -0.1,0.8 -0.3,1.1 -0.2,0.3 -1.1,0.5 -1.4,0.5 z"
         fill="#5E1145" />
      <g
         id="g7298">
        <g
           id="g7290">
          <path
             inkscape:connector-curvature="0"
             id="path7286"
             d="m 596.6,330.6 -5.1,39.9 c 10.3,2.7 16.6,-14.5 18.1,-26.3 1.5,-11.8 -8.8,-15 -13,-13.6 z"
             fill="#ECC19C" />
          <path
             inkscape:connector-curvature="0"
             id="path7288"
             d="m 593.7,372.2 c -0.8,0 -1.7,-0.1 -2.5,-0.3 -0.7,-0.2 -1.1,-0.8 -1,-1.5 l 5.1,-39.9 c 0.1,-0.5 0.4,-1 0.9,-1.1 2.6,-0.9 7.1,-0.3 10.5,2.5 2.4,2 5.2,5.8 4.3,12.5 -1.2,9.8 -5.4,21.7 -11.8,26.1 -1.7,1.1 -3.6,1.7 -5.5,1.7 z m -0.6,-2.8 c 1.6,0.2 3.1,-0.3 4.6,-1.3 5.7,-3.9 9.5,-15.2 10.6,-24.1 0.7,-5.5 -1.4,-8.5 -3.3,-10.1 -2.2,-1.8 -5.2,-2.5 -7.1,-2.2 z"
             fill="#5E1145" />
        </g>
        <g
           id="g7296">
          <path
             inkscape:connector-curvature="0"
             id="path7292"
             d="m 500.2,330.6 5.1,39.9 c -10.3,2.7 -16.6,-14.5 -18.1,-26.3 -1.5,-11.8 8.8,-15 13,-13.6 z"
             fill="#ECC19C" />
          <path
             inkscape:connector-curvature="0"
             id="path7294"
             d="m 503.1,372.2 c -1.9,0 -3.7,-0.6 -5.5,-1.8 -6.4,-4.4 -10.6,-16.2 -11.8,-26.1 -0.8,-6.7 1.9,-10.5 4.3,-12.5 3.4,-2.8 7.9,-3.4 10.5,-2.5 0.5,0.2 0.9,0.6 0.9,1.1 l 5.1,39.9 c 0.1,0.7 -0.3,1.3 -1,1.5 -0.8,0.2 -1.6,0.4 -2.5,0.4 z m -5,-40.5 c -1.9,0 -4.3,0.7 -6.2,2.3 -1.9,1.6 -4,4.6 -3.3,10.1 1.1,8.9 4.9,20.3 10.6,24.1 1.5,1 3,1.4 4.6,1.3 L 499,331.8 c -0.3,-0.1 -0.6,-0.1 -0.9,-0.1 z"
             fill="#5E1145" />
        </g>
      </g>
      <path
         inkscape:connector-curvature="0"
         id="path7300"
         d="m 593.4,291 c -7.3,-19.7 -32,-30.6 -45,-30.6 -13,0 -37.7,10.9 -45,30.6 -7.3,19.7 -6.8,44.8 -6.8,44.8 0,0 5.2,39.3 11,50 2.1,4 7.4,9.1 12.7,13.6 7.8,6.8 17.8,10.5 28.2,10.5 v 0 c 10.3,0 20.3,-3.7 28.2,-10.5 5.2,-4.5 10.5,-9.7 12.7,-13.6 5.8,-10.7 11,-50 11,-50 0,0 0.4,-25.1 -7,-44.8 z"
         fill="#ECC19C" />
      <path
         inkscape:connector-curvature="0"
         id="path7302"
         d="m 548.4,411.3 c -10.6,0 -21,-3.8 -29,-10.8 -6.7,-5.8 -11.1,-10.5 -13,-14 -5.9,-10.8 -11,-48.8 -11.2,-50.4 0,-0.1 0,-0.1 0,-0.2 0,-1 -0.4,-25.6 6.9,-45.3 4.3,-11.6 13.8,-19.1 21,-23.4 8.4,-5 18.1,-8.1 25.3,-8.1 7.2,0 17,3.1 25.3,8.1 7.2,4.3 16.6,11.8 21,23.4 7.3,19.7 6.9,44.3 6.9,45.3 0,0.1 0,0.1 0,0.2 -0.2,1.6 -5.3,39.6 -11.2,50.4 -1.9,3.5 -6.3,8.2 -13,14 -8,6.9 -18.3,10.8 -29,10.8 z m -50.5,-75.6 c 0.3,2 5.4,39.3 10.9,49.4 1.7,3.2 6,7.7 12.4,13.2 7.6,6.5 17.3,10.1 27.3,10.1 10,0 19.7,-3.6 27.3,-10.1 6.4,-5.5 10.6,-10.1 12.4,-13.2 5.5,-10.1 10.6,-47.4 10.9,-49.4 0,-1.5 0.2,-25.6 -6.7,-44.3 -7.4,-19.8 -32,-29.7 -43.7,-29.7 -11.7,0 -36.4,9.9 -43.7,29.7 -7.3,18.8 -7.1,42.8 -7.1,44.3 z m 102.4,0.1 z"
         fill="#5E1145" />
      <g
         id="g7328">
        <g
           id="g7314">
          <g
             id="g7308">
            <path
               inkscape:connector-curvature="0"
               id="path7304"
               d="m 581.2,331.3 c -0.3,0 -0.6,-0.1 -0.8,-0.3 l -4.9,-3.9 -14.1,1.5 c -0.7,0.1 -1.4,-0.5 -1.5,-1.2 -0.1,-0.7 0.5,-1.4 1.2,-1.5 l 14.7,-1.6 c 0.4,0 0.7,0.1 1,0.3 l 5.4,4.3 c 0.6,0.5 0.7,1.3 0.2,1.9 -0.4,0.3 -0.8,0.5 -1.2,0.5 z"
               fill="#5E1145" />
            <path
               inkscape:connector-curvature="0"
               id="path7306"
               d="m 572.8,325.8 -8.2,1 c -0.6,0.9 -1,2 -1,3.2 0,3.1 2.5,5.5 5.5,5.5 3.1,0 5.5,-2.5 5.5,-5.5 0.1,-1.7 -0.6,-3.2 -1.8,-4.2 z"
               fill="#5E1145" />
          </g>
          <polygon
             id="polygon7310"
             points="587.3,323.7 588,321.6 578.1,314.9 556.8,317.5 557.4,321.6 578.7,319.6 "
             fill="#9A9694" />
          <path
             inkscape:connector-curvature="0"
             id="path7312"
             d="m 587.3,325.1 c -0.2,0 -0.4,0 -0.6,-0.1 l -8.2,-4 -20.9,2 c -0.7,0.1 -1.4,-0.4 -1.5,-1.2 l -0.6,-4.1 c -0.1,-0.4 0,-0.7 0.3,-1 0.2,-0.3 0.6,-0.5 0.9,-0.5 l 21.3,-2.6 c 0.3,0 0.7,0 0.9,0.2 l 9.9,6.7 c 0.5,0.3 0.7,1 0.5,1.6 l -0.7,2.1 c -0.1,0.4 -0.4,0.7 -0.8,0.8 -0.2,0.1 -0.4,0.1 -0.5,0.1 z m -8.6,-6.9 c 0.2,0 0.4,0 0.6,0.1 l 5,2.5 -6.6,-4.5 -19.4,2.4 0.2,1.4 20,-1.9 c 0.1,0 0.2,0 0.2,0 z"
             fill="#5E1145" />
        </g>
        <g
           id="g7326">
          <g
             id="g7320">
            <path
               inkscape:connector-curvature="0"
               id="path7316"
               d="m 515.6,331.3 c -0.4,0 -0.8,-0.2 -1.1,-0.5 -0.5,-0.6 -0.4,-1.4 0.2,-1.9 l 5.4,-4.3 c 0.3,-0.2 0.6,-0.3 1,-0.3 l 14.7,1.6 c 0.7,0.1 1.3,0.8 1.2,1.5 -0.1,0.7 -0.8,1.3 -1.5,1.2 l -14.1,-1.5 -4.9,3.9 c -0.3,0.2 -0.6,0.3 -0.9,0.3 z"
               fill="#5E1145" />
            <path
               inkscape:connector-curvature="0"
               id="path7318"
               d="m 524,325.8 8.2,1 c 0.6,0.9 1,2 1,3.2 0,3.1 -2.5,5.5 -5.5,5.5 -3.1,0 -5.5,-2.5 -5.5,-5.5 -0.1,-1.7 0.7,-3.2 1.8,-4.2 z"
               fill="#5E1145" />
          </g>
          <polygon
             id="polygon7322"
             points="509.6,323.7 508.8,321.6 518.7,314.9 540,317.5 539.4,321.6 518.1,319.6 "
             fill="#9A9694" />
          <path
             inkscape:connector-curvature="0"
             id="path7324"
             d="m 509.6,325.1 c -0.2,0 -0.4,0 -0.5,-0.1 -0.4,-0.1 -0.6,-0.4 -0.8,-0.8 l -0.7,-2.1 c -0.2,-0.6 0,-1.2 0.5,-1.6 l 9.9,-6.7 c 0.3,-0.2 0.6,-0.3 0.9,-0.2 l 21.3,2.6 c 0.4,0 0.7,0.2 0.9,0.5 0.2,0.3 0.3,0.7 0.3,1 l -0.6,4.1 c -0.1,0.7 -0.8,1.2 -1.5,1.2 l -20.9,-2 -8.2,4 c -0.2,0 -0.4,0.1 -0.6,0.1 z m 9.5,-8.8 -6.6,4.5 5,-2.5 c 0.2,-0.1 0.5,-0.2 0.7,-0.1 l 20,1.9 0.2,-1.4 z"
             fill="#5E1145" />
        </g>
      </g>
      <path
         inkscape:connector-curvature="0"
         id="path7330"
         d="m 548.4,359 c -2,0 -3.9,-1.3 -5,-3.4 H 541 c -1.9,0 -3.4,-1.5 -3.4,-3.4 0,-1.5 0.9,-2.8 2.3,-3.2 0.7,-0.2 1.5,0.2 1.7,0.9 0.2,0.7 -0.2,1.5 -0.9,1.7 -0.3,0.1 -0.5,0.3 -0.5,0.6 0,0.4 0.3,0.7 0.7,0.7 h 3.2 c 0.6,0 1.1,0.3 1.3,0.9 0.6,1.6 1.7,2.5 2.8,2.5 1.1,0 2.2,-1 2.8,-2.5 0.2,-0.5 0.7,-0.9 1.3,-0.9 h 3.2 c 0.4,0 0.7,-0.3 0.7,-0.7 0,-0.3 -0.2,-0.5 -0.5,-0.6 -0.7,-0.2 -1.1,-1 -0.9,-1.7 0.2,-0.7 1,-1.1 1.7,-0.9 1.4,0.5 2.3,1.8 2.3,3.2 0,1.9 -1.5,3.4 -3.4,3.4 H 553 c -0.7,2.2 -2.6,3.4 -4.6,3.4 z"
         fill="#5E1145" />
      <path
         inkscape:connector-curvature="0"
         id="path7332"
         d="m 548.4,370.3 c -5,0 -17.3,-0.9 -19.1,-1.4 -1.8,-0.4 5.1,15 19.1,14.8 14,0.2 20.9,-15.2 19.1,-14.8 -1.7,0.4 -14.1,1.4 -19.1,1.4 z"
         fill="#88234A" />
      <path
         inkscape:connector-curvature="0"
         id="path7334"
         d="m 548.7,385 c -0.1,0 -0.2,0 -0.3,0 -10.6,0.2 -17.5,-8 -19.9,-12.9 -1.3,-2.6 -1,-3.5 -0.5,-4 0.4,-0.5 1,-0.7 1.6,-0.5 1.6,0.4 13.7,1.3 18.8,1.3 5.1,0 17.2,-1 18.8,-1.3 0.6,-0.1 1.2,0.1 1.6,0.5 0.4,0.5 0.7,1.4 -0.5,4 -2.4,4.9 -9.1,12.9 -19.6,12.9 z m -0.3,-2.7 c 0,0 0,0 0,0 10.2,0.1 16.1,-8.3 17.6,-11.8 -4.1,0.5 -13.5,1.1 -17.6,1.1 -4.1,0 -13.5,-0.7 -17.6,-1.1 1.5,3.4 7.4,11.8 17.3,11.8 0.1,0 0.2,0 0.3,0 0,0 0,0 0,0 z"
         fill="#5E1145" />
      <path
         inkscape:connector-curvature="0"
         id="path7336"
         d="m 593.4,291 c -0.9,-2.3 -2,-4.5 -3.2,-6.5 0,0 0,0 0,0 0,0 -0.1,-0.1 -0.1,-0.1 -0.3,-0.4 -0.5,-0.8 -0.8,-1.2 0,0 -0.1,-0.1 -0.1,-0.1 -0.6,-0.9 -1.3,-1.8 -2,-2.7 0,0 -0.1,-0.1 -0.1,-0.1 -0.3,-0.4 -0.6,-0.8 -1,-1.1 -0.1,-0.1 -0.1,-0.1 -0.2,-0.2 -0.4,-0.4 -0.7,-0.8 -1.1,-1.2 0,0 0,0 0,0 -0.8,-0.8 -1.6,-1.6 -2.4,-2.3 -0.1,-0.1 -0.1,-0.1 -0.2,-0.2 -0.4,-0.3 -0.7,-0.6 -1.1,-1 -0.1,0 -0.1,-0.1 -0.2,-0.1 -0.1,-0.1 -0.2,-0.2 -0.3,-0.2 v 0 c -10.4,-8.8 -23.9,-13.4 -32.5,-13.4 -8.6,0 -22.1,4.7 -32.5,13.4 v 0 c -0.1,0.1 -0.2,0.2 -0.3,0.2 -0.1,0 -0.1,0.1 -0.2,0.1 -0.4,0.3 -0.7,0.6 -1.1,1 -0.1,0.1 -0.1,0.1 -0.2,0.2 -0.8,0.8 -1.6,1.5 -2.4,2.3 0,0 0,0 0,0 -0.4,0.4 -0.7,0.8 -1.1,1.2 -0.1,0.1 -0.1,0.1 -0.2,0.2 -0.3,0.4 -0.6,0.8 -1,1.1 0,0 -0.1,0.1 -0.1,0.1 -0.7,0.9 -1.4,1.7 -2,2.7 0,0 -0.1,0.1 -0.1,0.1 -0.3,0.4 -0.5,0.8 -0.8,1.2 0,0 -0.1,0.1 -0.1,0.1 0,0 0,0 0,0 -1.3,2.1 -2.4,4.2 -3.2,6.5 -4.9,13.2 -6.3,28.9 -6.7,37.7 2,-2.2 4.6,-5.3 6.1,-8.7 2.8,-6.5 3.3,-19.9 3.6,-26.1 0.2,-4.1 4.6,-9.8 8.7,-14.2 10.1,-4.9 21.4,-7.7 33.3,-7.7 11.9,0 23.3,2.8 33.3,7.7 4.1,4.4 8.4,10.2 8.7,14.2 0.3,6.2 0.8,19.6 3.6,26.1 1.5,3.4 4,6.6 6.1,8.7 0.3,-8.9 -1.1,-24.5 -6.1,-37.7 z"
         fill="#9A9694" />
      <path
         inkscape:connector-curvature="0"
         id="path7338"
         d="m 600.1,330.1 c -0.4,0 -0.7,-0.1 -1,-0.4 -2,-2.1 -4.7,-5.4 -6.3,-9.1 -2.8,-6.3 -3.4,-18.6 -3.7,-25.2 L 589,294 c -0.1,-2.9 -3.1,-7.7 -8.1,-13.2 -10.2,-4.9 -21.1,-7.4 -32.5,-7.4 -11.4,0 -22.3,2.5 -32.5,7.4 -5,5.5 -8,10.3 -8.1,13.2 l -0.1,1.4 c -0.3,6.6 -0.9,18.9 -3.7,25.2 -1.6,3.7 -4.3,7 -6.3,9.1 -0.4,0.4 -1,0.5 -1.5,0.3 -0.5,-0.2 -0.9,-0.7 -0.8,-1.3 0.4,-8.4 1.7,-24.6 6.8,-38.2 0.8,-2.3 2,-4.5 3.3,-6.7 0,0 0,0 0,-0.1 0,0 0,-0.1 0.1,-0.1 v 0 c 0.3,-0.4 0.5,-0.9 0.8,-1.3 l 0.1,-0.2 c 0.6,-0.9 1.3,-1.9 2.1,-2.7 l 0.1,-0.1 c 0.3,-0.4 0.6,-0.8 1,-1.2 l 0.2,-0.2 c 0.4,-0.4 0.8,-0.8 1.1,-1.2 0,0 0,0 0,0 0.8,-0.8 1.6,-1.6 2.4,-2.4 l 0.2,-0.2 c 0.4,-0.3 0.7,-0.7 1.1,-1 l 0.3,-0.2 c 0.1,0 0.1,-0.1 0.2,-0.1 0,0 0.1,-0.1 0.1,-0.1 11.2,-9.4 25.1,-13.7 33.2,-13.7 8.2,0 22.1,4.3 33.2,13.7 0,0 0.1,0.1 0.1,0.1 0.1,0 0.1,0.1 0.2,0.1 l 0.3,0.2 c 0.4,0.3 0.7,0.7 1.1,1 l 0.2,0.2 c 0.9,0.8 1.7,1.6 2.4,2.4 0.4,0.4 0.7,0.8 1.1,1.2 l 0.2,0.2 c 0.3,0.4 0.7,0.8 1,1.2 l 0.1,0.1 c 0.7,0.9 1.4,1.8 2.1,2.7 l 0.1,0.2 c 0.3,0.4 0.6,0.8 0.8,1.3 v 0 c 0,0 0,0.1 0.1,0.1 0,0 0,0 0,0.1 1.4,2.2 2.5,4.4 3.3,6.7 v 0 c 5.1,13.6 6.4,29.7 6.8,38.2 0,0.6 -0.3,1.1 -0.8,1.3 -0.3,0.1 -0.5,0.1 -0.7,0.1 z m -51.7,-59.5 c 11.9,0 23.3,2.6 33.9,7.8 0.2,0.1 0.3,0.2 0.4,0.3 4,4.3 8.8,10.5 9,15.1 l 0.1,1.4 c 0.3,6.4 0.9,18.4 3.5,24.2 0.8,1.9 2,3.7 3.3,5.3 -0.6,-8.8 -2.2,-22 -6.4,-33.3 -0.8,-2.1 -1.8,-4.2 -3.1,-6.3 0,0 0,0 0,-0.1 v -0.1 c -0.3,-0.4 -0.5,-0.8 -0.8,-1.2 l -0.1,-0.1 c -0.6,-0.9 -1.2,-1.7 -1.9,-2.6 l -0.1,-0.1 c -0.3,-0.4 -0.6,-0.7 -0.9,-1.1 l -0.2,-0.2 c -0.4,-0.4 -0.7,-0.8 -1,-1.1 0,0 0,0 0,0 -0.7,-0.7 -1.5,-1.5 -2.3,-2.3 l -0.2,-0.2 c -0.3,-0.3 -0.7,-0.6 -1.1,-0.9 l -0.3,-0.3 c 0,0 -0.1,0 -0.1,-0.1 -10.7,-9 -23.9,-13.1 -31.6,-13.1 -7.7,0 -20.9,4.1 -31.6,13.1 0,0 -0.1,0.1 -0.1,0.1 l -0.3,0.3 c -0.4,0.3 -0.7,0.6 -1.1,0.9 l -0.2,0.2 c -0.8,0.7 -1.6,1.5 -2.3,2.3 0,0 0,0 0,0 v 0 c -0.3,0.4 -0.7,0.7 -1,1.1 l -0.2,0.2 c -0.3,0.4 -0.6,0.7 -0.9,1.1 l -0.1,0.1 c -0.7,0.8 -1.3,1.7 -1.9,2.6 l -0.1,0.1 c -0.3,0.4 -0.5,0.8 -0.8,1.2 v 0.1 c 0,0 0,0 0,0 -1.3,2 -2.3,4.2 -3.1,6.3 -4.2,11.3 -5.8,24.5 -6.4,33.3 1.2,-1.6 2.4,-3.4 3.3,-5.3 2.5,-5.8 3.1,-17.8 3.5,-24.2 l 0.1,-1.4 c 0.2,-4.6 5,-10.8 9,-15.1 0.1,-0.1 0.3,-0.2 0.4,-0.3 10.4,-5 21.8,-7.7 33.7,-7.7 z"
         fill="#5E1145" />
      <g
         id="g7344">
        <path
           inkscape:connector-curvature="0"
           id="path7340"
           d="m 574.7,386.4 c -0.1,0 -0.2,0 -0.3,0 -0.7,-0.1 -1.2,-0.9 -1.1,-1.6 4.1,-20.3 -3,-25.2 -8.6,-27.1 -0.7,-0.2 -1.1,-1 -0.9,-1.7 0.2,-0.7 1,-1.1 1.7,-0.9 10.4,3.5 13.9,13.4 10.5,30.2 -0.1,0.7 -0.6,1.1 -1.3,1.1 z"
           fill="#5E1145" />
        <path
           inkscape:connector-curvature="0"
           id="path7342"
           d="m 522.1,386.4 c -0.6,0 -1.2,-0.4 -1.3,-1.1 -3.4,-16.9 0,-26.7 10.5,-30.2 0.7,-0.2 1.5,0.1 1.7,0.9 0.2,0.7 -0.1,1.5 -0.9,1.7 -5.7,1.9 -12.7,6.8 -8.6,27.1 0.1,0.7 -0.3,1.5 -1.1,1.6 -0.1,0 -0.2,0 -0.3,0 z"
           fill="#5E1145" />
      </g>
      <path
         inkscape:connector-curvature="0"
         id="path7346"
         d="m 562.3,377.9 c -3.8,-3.1 -8.6,-5 -13.9,-5 -5.3,0 -10.1,1.9 -13.9,5 3.3,3.1 7.9,5.9 13.9,5.8 6,0.1 10.7,-2.7 13.9,-5.8 z"
         fill="#E5658A" />
      <path
         inkscape:connector-curvature="0"
         id="path7348"
         d="m 548.7,385 c -0.1,0 -0.2,0 -0.3,0 -6.9,0.1 -11.9,-3.3 -14.8,-6.2 -0.3,-0.3 -0.4,-0.6 -0.4,-1 0,-0.4 0.2,-0.8 0.5,-1 4.1,-3.4 9.4,-5.3 14.8,-5.3 5.4,0 10.6,1.9 14.8,5.3 0.3,0.2 0.5,0.6 0.5,1 0,0.4 -0.1,0.8 -0.4,1 -3.1,2.9 -8,6.2 -14.7,6.2 z m -0.3,-2.7 c 0,0 0,0 0,0 5.1,0.1 9.1,-2.1 11.8,-4.3 -3.4,-2.4 -7.5,-3.7 -11.8,-3.7 -4.3,0 -8.3,1.3 -11.8,3.7 2.7,2.2 6.7,4.4 11.8,4.3 0,0 0,0 0,0 z"
         fill="#5E1145" />
      <path
         inkscape:connector-curvature="0"
         id="path7350"
         d="m 558.9,392.2 c -0.1,0 -0.3,0 -0.4,-0.1 -6.7,-2.3 -13.4,-2.3 -20.1,0 -0.7,0.2 -1.5,-0.1 -1.7,-0.8 -0.2,-0.7 0.1,-1.5 0.8,-1.7 7.3,-2.5 14.6,-2.5 21.9,0 0.7,0.2 1.1,1 0.8,1.7 -0.2,0.5 -0.7,0.9 -1.3,0.9 z"
         fill="#5E1145" />
      <polygon
         id="polygon7352"
         points="534.4,457.5 562.5,457.5 590.1,416 506.7,416 "
         fill="#FFFFFF" />
      <polygon
         id="polygon7354"
         points="541.9,430.3 539.1,416 558.9,416 556.1,430.3 "
         fill="#585B67" />
      <path
         inkscape:connector-curvature="0"
         id="path7356"
         d="m 556.1,431.7 h -14.2 c -0.7,0 -1.2,-0.5 -1.3,-1.1 l -2.8,-14.3 c -0.1,-0.4 0,-0.8 0.3,-1.1 0.3,-0.3 0.6,-0.5 1.1,-0.5 H 559 c 0.4,0 0.8,0.2 1.1,0.5 0.3,0.3 0.4,0.7 0.3,1.1 l -2.8,14.3 c -0.3,0.6 -0.9,1.1 -1.5,1.1 z M 543,429 h 11.9 l 2.3,-11.6 h -16.5 z"
         fill="#5E1145" />
      <polygon
         id="polygon7358"
         points="541.2,457.2 542.1,430.4 554.7,430.4 555.7,457.2 "
         fill="#585B67" />
      <path
         inkscape:connector-curvature="0"
         id="path7360"
         d="m 555.7,458.6 h -14.5 c -0.4,0 -0.7,-0.2 -1,-0.4 -0.3,-0.3 -0.4,-0.6 -0.4,-1 l 0.9,-26.8 c 0,-0.7 0.6,-1.3 1.4,-1.3 h 12.6 c 0.7,0 1.3,0.6 1.4,1.3 l 0.9,26.8 c 0,0.4 -0.1,0.7 -0.4,1 -0.2,0.2 -0.5,0.4 -0.9,0.4 z m -13.1,-2.8 h 11.7 l -0.9,-24.1 h -10 z"
         fill="#5E1145" />
      <path
         inkscape:connector-curvature="0"
         id="path7362"
         d="m 562.5,458.8 h -28.1 c -0.5,0 -0.9,-0.2 -1.1,-0.6 l -27.6,-41.5 c -0.3,-0.4 -0.3,-1 -0.1,-1.4 0.2,-0.4 0.7,-0.7 1.2,-0.7 h 83.4 c 0.5,0 1,0.3 1.2,0.7 0.2,0.4 0.2,1 -0.1,1.4 l -27.6,41.5 c -0.3,0.4 -0.8,0.6 -1.2,0.6 z m -27.4,-2.7 h 26.7 l 25.8,-38.7 h -78.3 z"
         fill="#5E1145" />
      <g
         id="g7376">
        <g
           id="g7368">
          <polygon
             id="polygon7364"
             points="548.8,416.2 559.2,435.2 590.6,416 588.6,404.6 "
             fill="#FFFFFF" />
          <path
             inkscape:connector-curvature="0"
             id="path7366"
             d="m 559.2,436.6 c -0.1,0 -0.2,0 -0.3,0 -0.4,-0.1 -0.7,-0.3 -0.8,-0.7 l -10.5,-19 c -0.2,-0.4 -0.2,-0.8 -0.1,-1.2 0.2,-0.4 0.5,-0.7 0.9,-0.8 l 39.8,-11.6 c 0.4,-0.1 0.8,-0.1 1.1,0.2 0.3,0.2 0.6,0.5 0.6,0.9 l 2,11.4 c 0.1,0.6 -0.2,1.1 -0.6,1.4 l -31.4,19.2 c -0.2,0.1 -0.4,0.2 -0.7,0.2 z m -8.4,-19.5 9,16.2 29.4,-18 -1.6,-9 z"
             fill="#5E1145" />
        </g>
        <g
           id="g7374">
          <polygon
             id="polygon7370"
             points="548.1,416.2 537.6,435.2 506.2,416 508.3,404.6 "
             fill="#FFFFFF" />
          <path
             inkscape:connector-curvature="0"
             id="path7372"
             d="m 537.6,436.6 c -0.2,0 -0.5,-0.1 -0.7,-0.2 l -31.4,-19.2 c -0.5,-0.3 -0.7,-0.8 -0.6,-1.4 l 2,-11.4 c 0.1,-0.4 0.3,-0.7 0.6,-0.9 0.3,-0.2 0.7,-0.3 1.1,-0.2 l 39.8,11.6 c 0.4,0.1 0.7,0.4 0.9,0.8 0.2,0.4 0.1,0.8 -0.1,1.2 l -10.5,19 c -0.2,0.3 -0.5,0.6 -0.8,0.7 -0.1,-0.1 -0.2,0 -0.3,0 z m -29.9,-21.3 29.4,18 9,-16.2 -36.7,-10.7 z"
             fill="#5E1145" />
        </g>
      </g>
      <g
         id="g7382">
        <path
           inkscape:connector-curvature="0"
           id="path7378"
           d="m 591.7,458.8 c -0.6,0 -1.1,-0.4 -1.3,-0.9 l -5.8,-17.2 c -0.2,-0.6 0,-1.3 0.6,-1.6 l 10.4,-6.3 -2.8,-14.9 c -0.1,-0.7 0.3,-1.5 1.1,-1.6 0.7,-0.1 1.5,0.3 1.6,1.1 l 3,15.8 c 0.1,0.6 -0.1,1.1 -0.6,1.4 l -10.3,6.2 5.5,16.2 c 0.2,0.7 -0.1,1.5 -0.9,1.7 -0.3,0.1 -0.4,0.1 -0.5,0.1 z"
           fill="#5E1145" />
        <path
           inkscape:connector-curvature="0"
           id="path7380"
           d="m 505.2,458.8 c -0.1,0 -0.3,0 -0.4,-0.1 -0.7,-0.2 -1.1,-1 -0.9,-1.7 l 5.5,-16.2 -10.3,-6.2 c -0.5,-0.3 -0.7,-0.9 -0.6,-1.4 l 3,-15.8 c 0.1,-0.7 0.9,-1.2 1.6,-1.1 0.7,0.1 1.2,0.9 1.1,1.6 l -2.8,14.9 10.4,6.3 c 0.5,0.3 0.8,1 0.6,1.6 l -5.8,17.2 c -0.3,0.6 -0.8,0.9 -1.4,0.9 z"
           fill="#5E1145" />
      </g>
    </g>
  </g>
</svg>
