<?xml version="1.0" encoding="UTF-8" standalone="no"?>
<svg
   xmlns:dc="http://purl.org/dc/elements/1.1/"
   xmlns:cc="http://creativecommons.org/ns#"
   xmlns:rdf="http://www.w3.org/1999/02/22-rdf-syntax-ns#"
   xmlns:svg="http://www.w3.org/2000/svg"
   xmlns="http://www.w3.org/2000/svg"
   xmlns:xlink="http://www.w3.org/1999/xlink"
   xmlns:sodipodi="http://sodipodi.sourceforge.net/DTD/sodipodi-0.dtd"
   xmlns:inkscape="http://www.inkscape.org/namespaces/inkscape"
   inkscape:version="1.0beta1 (32d4812, 2019-09-19)"
   id="svg1408"
   version="1.1"
   viewBox="0 0 238.12499 317.50001"
   height="1200"
   width="900">
  <defs
     id="defs1402">
    <clipPath
       id="SVGID_2_">
      <use
         xlink:href="#SVGID_1_"
         overflow="visible"
         id="use1978"
         x="0"
         y="0"
         width="100%"
         height="100%" />
    </clipPath>
    <circle
       id="SVGID_1_"
       cx="231.7"
       cy="310.29999"
       r="136.5" />
    <clipPath
       id="SVGID_4_">
      <use
         height="100%"
         width="100%"
         y="0"
         x="0"
         id="use2092"
         overflow="visible"
         xlink:href="#SVGID_3_" />
    </clipPath>
    <circle
       r="136.5"
       cy="310.29999"
       cx="543.90002"
       id="SVGID_3_" />
  </defs>
  <sodipodi:namedview
     inkscape:window-maximized="0"
     inkscape:window-y="134"
     inkscape:window-x="20"
     inkscape:window-height="907"
     inkscape:window-width="1600"
     units="px"
     showgrid="false"
     inkscape:document-rotation="0"
     inkscape:current-layer="layer1"
     inkscape:document-units="mm"
     inkscape:cy="560"
     inkscape:cx="400"
     inkscape:zoom="0.35"
     inkscape:pageshadow="2"
     inkscape:pageopacity="0.0"
     borderopacity="1.0"
     bordercolor="#666666"
     pagecolor="#ffffff"
     id="base" />
  <metadata
     id="metadata1405">
    <rdf:RDF>
      <cc:Work
         rdf:about="">
        <dc:format>image/svg+xml</dc:format>
        <dc:type
           rdf:resource="http://purl.org/dc/dcmitype/StillImage" />
        <dc:title></dc:title>
      </cc:Work>
    </rdf:RDF>
  </metadata>
  <g
     id="layer1"
     inkscape:groupmode="layer"
     inkscape:label="Layer 1">
    <g
       transform="matrix(1.2567708,0,0,1.2567708,-564.68365,-244.02518)"
       style="opacity:1;stop-opacity:1"
       id="g2149">
      <defs
         id="defs2090">
        <circle
           r="136.5"
           cy="310.29999"
           cx="543.90002"
           id="circle5127" />
      </defs>
      <clipPath
         id="clipPath5056">
        <use
           height="100%"
           width="100%"
           y="0"
           x="0"
           id="use5054"
           overflow="visible"
           xlink:href="#SVGID_3_" />
      </clipPath>
      <g
         id="g2147"
         clip-path="url(#SVGID_4_)">
        <g
           id="g2097">
          <path
             inkscape:connector-curvature="0"
             id="path2095"
             d="m 516.6,325.1 c 0,6.4 -5.2,11.6 -11.6,11.6 v 0 c -6.4,0 -11.6,-5.2 -11.6,-11.6 v -10.3 c 0,-6.4 5.2,-11.6 11.6,-11.6 v 0 c 6.4,0 11.6,5.2 11.6,11.6 z"
             fill="#FBB36B" />
        </g>
        <g
           id="g2101">
          <path
             inkscape:connector-curvature="0"
             id="path2099"
             d="m 575.7,325.1 c 0,6.4 5.2,11.6 11.6,11.6 v 0 c 6.4,0 11.6,-5.2 11.6,-11.6 v -10.3 c 0,-6.4 -5.2,-11.6 -11.6,-11.6 v 0 c -6.4,0 -11.6,5.2 -11.6,11.6 z"
             fill="#FBB36B" />
        </g>
        <g
           id="g2105">
          <path
             inkscape:connector-curvature="0"
             id="path2103"
             d="m 616.2,395.5 c -13.7,-16 -50.9,-20.5 -70.4,-21 v -0.1 c -0.6,0 -1.2,0 -1.8,0 -0.6,0 -1.3,0 -1.8,0 v 0.1 c -19.6,0.5 -56.8,5.1 -70.4,21 -14.6,17 -14.6,71.9 -14.6,71.9 h 173.7 c -0.2,-0.1 -0.2,-54.9 -14.7,-71.9 z"
             fill="#2A3B8F" />
        </g>
        <g
           id="g2109">
          <path
             inkscape:connector-curvature="0"
             id="path2107"
             d="m 546.5,397.9 c 13.6,0 24.7,-7.6 24.7,-17 0,-1.4 -0.3,-2.8 -0.8,-4.2 -9.2,-1.4 -18,-2.1 -24.7,-2.3 v -0.1 c -0.6,0 -1.2,0 -1.8,0 -0.6,0 -1.3,0 -1.8,0 v 0.1 c -5.3,0.1 -12,0.6 -19.1,1.5 -0.7,1.6 -1.2,3.2 -1.2,5 0,9.4 11.1,17 24.7,17 z"
             fill="#1D76BB" />
        </g>
        <g
           id="g2113">
          <path
             inkscape:connector-curvature="0"
             id="path2111"
             d="m 557,382.3 c 0,0 -3.9,11.6 -10.9,11.6 -7,0 -11.6,-11.6 -11.6,-11.6 V 363 H 557 Z"
             fill="#FBB36B" />
        </g>
        <g
           id="g2117">
          <path
             inkscape:connector-curvature="0"
             id="path2115"
             d="m 508.6,329.1 c 0,0 -11.3,-42.1 -13,-60.5 -1.6,-18.4 -1.6,-31.3 3.2,-31.8 4.9,-0.5 8.6,0 8.6,0 0,0 9.2,-15.1 47.5,-17.3 38.3,-2.2 46.4,9.7 45.3,32.9 -1.1,23.2 -13.5,70.7 -14.6,74.5 -0.9,3.8 -77,2.2 -77,2.2 z"
             fill="#3C362D" />
        </g>
        <g
           id="g2121">
          <path
             inkscape:connector-curvature="0"
             id="path2119"
             d="m 546.1,259.4 -40.5,7.9 c 0,0 0,31.5 0,68.1 0,36.6 40.5,34.5 40.5,34.5 0,0 40.5,2.1 40.5,-34.5 0,-36.6 0,-68.1 0,-68.1 z"
             fill="#FECE8B" />
        </g>
        <g
           id="g2125">
          <path
             inkscape:connector-curvature="0"
             id="path2123"
             d="m 555.6,336.3 c 0,0 -4.9,-5.4 -8.4,-5.4 -3.5,0 -8.1,4.9 -8.1,4.9 0,0 3,5.7 8.4,5.7 5.4,0 8.1,-5.2 8.1,-5.2 z"
             fill="#FBB36B" />
        </g>
        <g
           id="g2129">
          <ellipse
             id="ellipse2127"
             ry="5"
             rx="2.2"
             cy="307.10001"
             cx="563.40002"
             fill="#3C362D" />
        </g>
        <g
           id="g2133">
          <path
             inkscape:connector-curvature="0"
             id="path2131"
             d="m 532.1,307.1 c 0,2.8 -1,5 -2.2,5 -1.2,0 -2.2,-2.2 -2.2,-5 0,-2.8 1,-5 2.2,-5 1.2,0 2.2,2.2 2.2,5 z"
             fill="#3C362D" />
        </g>
        <g
           id="g2137">
          <path
             inkscape:connector-curvature="0"
             id="path2135"
             d="m 569.7,294.3 c 0,0 -2.8,-5.5 -5.8,-5.2 v 0 c -3.2,-0.2 -6.1,4.7 -6.1,4.8 v 0 0 c -0.4,0.8 -1.4,1.1 -2.2,0.7 v 0 c -0.8,-0.4 -1.1,-1.4 -0.7,-2.2 v 0 c 0.1,-0.1 3,-6.3 9,-6.5 v 0 c 6.1,0.3 8.6,7.1 8.8,7.2 v 0 c 0.4,0.8 0,1.8 -0.8,2.1 v 0 c -0.2,0.1 -0.4,0.1 -0.6,0.1 v 0 c -0.7,0 -1.3,-0.3 -1.6,-1 z"
             fill="#3C362D" />
        </g>
        <g
           id="g2141">
          <path
             inkscape:connector-curvature="0"
             id="path2139"
             d="m 536.3,294.3 c 0,0 -2.8,-5.5 -5.8,-5.2 v 0 c -3.2,-0.2 -6.1,4.7 -6.1,4.8 v 0 0 c -0.4,0.8 -1.4,1.1 -2.2,0.7 v 0 c -0.8,-0.4 -1.1,-1.4 -0.7,-2.2 v 0 c 0.1,-0.1 3,-6.3 9,-6.5 v 0 c 6.1,0.3 8.6,7.1 8.8,7.2 v 0 c 0.4,0.8 0,1.8 -0.8,2.1 v 0 c -0.2,0.1 -0.4,0.1 -0.6,0.1 v 0 c -0.8,0 -1.4,-0.3 -1.6,-1 z"
             fill="#3C362D" />
        </g>
        <g
           id="g2145">
          <path
             inkscape:connector-curvature="0"
             id="path2143"
             d="m 529.2,350.5 c -0.2,-0.4 -0.1,-0.9 0.3,-1.1 v 0 c 0.4,-0.2 0.9,-0.1 1.1,0.3 v 0 c 0.1,0 4.3,7.2 16.9,7.2 v 0 c 12.5,0 17.4,-8.5 17.4,-8.5 v 0 c 0.2,-0.4 0.7,-0.5 1.1,-0.3 v 0 c 0.4,0.2 0.5,0.7 0.3,1.1 v 0 c -0.1,0.1 -5.4,9.3 -18.8,9.3 v 0 c -13.3,0 -18.2,-7.8 -18.3,-8 z"
             fill="#3C362D" />
        </g>
      </g>
    </g>
  </g>
</svg>
