<?xml version="1.0" encoding="UTF-8" standalone="no"?>
<svg
   xmlns:dc="http://purl.org/dc/elements/1.1/"
   xmlns:cc="http://creativecommons.org/ns#"
   xmlns:rdf="http://www.w3.org/1999/02/22-rdf-syntax-ns#"
   xmlns:svg="http://www.w3.org/2000/svg"
   xmlns="http://www.w3.org/2000/svg"
   xmlns:xlink="http://www.w3.org/1999/xlink"
   xmlns:sodipodi="http://sodipodi.sourceforge.net/DTD/sodipodi-0.dtd"
   xmlns:inkscape="http://www.inkscape.org/namespaces/inkscape"
   inkscape:version="1.0beta1 (32d4812, 2019-09-19)"
   id="svg1408"
   version="1.1"
   viewBox="0 0 238.12499 317.50001"
   height="1200"
   width="900">
  <defs
     id="defs1402">
    <clipPath
       id="SVGID_2_">
      <use
         xlink:href="#SVGID_1_"
         overflow="visible"
         id="use1978"
         x="0"
         y="0"
         width="100%"
         height="100%" />
    </clipPath>
    <circle
       id="SVGID_1_"
       cx="231.7"
       cy="310.29999"
       r="136.5" />
    <clipPath
       id="SVGID_4_">
      <use
         height="100%"
         width="100%"
         y="0"
         x="0"
         id="use2092"
         overflow="visible"
         xlink:href="#SVGID_3_" />
    </clipPath>
    <circle
       r="136.5"
       cy="310.29999"
       cx="543.90002"
       id="SVGID_3_" />
    <clipPath
       id="SVGID_6_">
      <use
         height="100%"
         width="100%"
         y="0"
         x="0"
         id="use2158"
         overflow="visible"
         xlink:href="#SVGID_5_" />
    </clipPath>
    <circle
       r="136.5"
       cy="310.29999"
       cx="856.09998"
       id="SVGID_5_" />
    <clipPath
       id="SVGID_8_">
      <use
         height="100%"
         width="100%"
         y="0"
         x="0"
         id="use2256"
         overflow="visible"
         xlink:href="#SVGID_7_" />
    </clipPath>
    <circle
       r="136.5"
       cy="310.29999"
       cx="1168.3"
       id="SVGID_7_" />
    <clipPath
       id="SVGID_10_">
      <use
         height="100%"
         width="100%"
         y="0"
         x="0"
         id="use2342"
         overflow="visible"
         xlink:href="#SVGID_9_" />
    </clipPath>
    <circle
       r="136.5"
       cy="669.70001"
       cx="231.7"
       id="SVGID_9_" />
    <clipPath
       id="SVGID_12_">
      <use
         height="100%"
         width="100%"
         y="0"
         x="0"
         id="use2418"
         overflow="visible"
         xlink:href="#SVGID_11_" />
    </clipPath>
    <circle
       r="136.5"
       cy="669.70001"
       cx="543.90002"
       id="SVGID_11_" />
    <clipPath
       id="SVGID_14_">
      <use
         height="100%"
         width="100%"
         y="0"
         x="0"
         id="use2556"
         overflow="visible"
         xlink:href="#SVGID_13_" />
    </clipPath>
    <circle
       r="136.5"
       cy="669.70001"
       cx="856.09998"
       id="SVGID_13_" />
    <clipPath
       id="SVGID_16_">
      <use
         height="100%"
         width="100%"
         y="0"
         x="0"
         id="use2684"
         overflow="visible"
         xlink:href="#SVGID_15_" />
    </clipPath>
    <circle
       r="136.5"
       cy="669.70001"
       cx="1168.3"
       id="SVGID_15_" />
  </defs>
  <sodipodi:namedview
     inkscape:window-maximized="0"
     inkscape:window-y="134"
     inkscape:window-x="20"
     inkscape:window-height="907"
     inkscape:window-width="1600"
     units="px"
     showgrid="false"
     inkscape:document-rotation="0"
     inkscape:current-layer="layer1"
     inkscape:document-units="mm"
     inkscape:cy="560"
     inkscape:cx="400"
     inkscape:zoom="0.35"
     inkscape:pageshadow="2"
     inkscape:pageopacity="0.0"
     borderopacity="1.0"
     bordercolor="#666666"
     pagecolor="#ffffff"
     id="base" />
  <metadata
     id="metadata1405">
    <rdf:RDF>
      <cc:Work
         rdf:about="">
        <dc:format>image/svg+xml</dc:format>
        <dc:type
           rdf:resource="http://purl.org/dc/dcmitype/StillImage" />
        <dc:title></dc:title>
      </cc:Work>
    </rdf:RDF>
  </metadata>
  <g
     id="layer1"
     inkscape:groupmode="layer"
     inkscape:label="Layer 1">
    <g
       transform="matrix(1.0583333,0,0,1.0583333,-158.12125,-143.12744)"
       id="XMLID_237_">
      <path
         inkscape:connector-curvature="0"
         id="XMLID_22_"
         fill="#181515"
         d="m 342.6,395.5 c 0.3,9.5 -0.5,18.9 -0.9,28.3 -0.1,2.2 -0.5,4.4 -1,6.5 -0.5,2.4 -1.7,3.6 -4.6,3.7 -29.2,1.4 -58.4,-1.9 -87.6,-0.9 -17.3,0.6 -34.6,1.1 -51.9,2.1 -8,0.5 -12.5,-3.9 -12.9,-11.2 -1,-17.8 -1.5,-35.6 -0.5,-53.4 0.7,-11.8 2.5,-23.4 7.2,-34.4 3.8,-9 9.6,-16.5 17.5,-22.3 8.5,-6.1 17.2,-11.8 27.6,-14.2 1.1,-0.3 2.2,-0.4 3.3,-0.4 4,-0.1 6.4,-3.8 5.1,-7.7 -0.3,-1.1 -1.2,-1.2 -2,-1.4 -6.2,-2 -11.7,-5.1 -16.4,-9.5 -1.1,-1 -2.3,-1.3 -3.7,-1.2 -7.7,0.5 -15.4,0.3 -23,1.5 -3.2,0.5 -4.3,-2.5 -5.2,-4.8 -3.1,-8.3 -6.4,-16.5 -8.8,-24.9 -5.7,-20.7 -5.2,-41.3 4,-61 6.9,-14.8 17.9,-26.1 33.7,-31 7.6,-2.4 15.2,-4.8 22.9,-6.7 44.7,-11.3 78.9,14.5 90.7,51.1 6.3,19.5 4.9,39.4 0.6,59.2 -0.7,3.3 -1.2,6.8 -2.3,10 -1,3.1 -2.4,5.1 -6.8,4.8 -10.9,-0.6 -21.8,0 -32.7,0.1 -1.2,0 -2,0.7 -2.9,1.4 -3.4,2.8 -7,5.4 -10.9,7.4 -1.4,0.7 -2.1,1.7 -2.1,3.2 0,3.3 0,6.6 0,9.9 0,1.8 0.6,2.8 2.7,1.9 3.2,-1.3 6.6,-0.9 9.7,0.2 15.4,5.5 29.3,13.4 38.7,27.2 7.8,11.5 10.3,24.7 11.6,38.3 1,9.6 1.2,18.9 0.9,28.2 z m -8.1,4.5 c -0.1,-11.9 0.5,-23.8 -1,-35.7 -1.4,-11.4 -3.5,-22.6 -10.2,-32.3 -9.5,-13.6 -23.7,-20.5 -38.7,-26.1 -1.1,-0.4 -2.9,-1.1 -2.4,1.5 0.2,0.8 -0.2,1.2 -0.9,1.7 -5.8,4.2 -12,8.1 -17.3,12.9 -3.4,3.1 -4.9,1.7 -7.5,-0.5 -5.4,-4.4 -9.7,-10.1 -15.9,-13.5 -0.6,-0.3 -0.8,-1 -0.7,-1.6 0.3,-2.8 -1.3,-2 -2.7,-1.5 -4.4,1.6 -8.5,3.8 -12.6,6.1 -12.6,7 -23.4,15.6 -28.1,30.1 -3.7,11.3 -5.3,22.9 -5.5,34.7 -0.2,16.7 0.1,33.4 -0.3,50.1 -0.1,4 0.8,4.5 4.4,4.2 12.7,-1.3 25.4,-2.3 38.1,-2.5 25.1,-0.4 50.3,-0.8 75.4,0.7 7.6,0.4 15.2,-0.1 22.8,0 2.5,0 3.1,-0.8 3,-3.1 0.1,-8.2 0.2,-16.7 0.1,-25.2 z m -2.8,-167.6 c 0.2,-6.8 0.2,-12.8 -1,-18.7 -3.8,-18 -12.4,-33.1 -26.8,-44.7 -8.2,-6.6 -17.6,-10.8 -27.8,-12.8 -9.1,-1.7 -18.4,-1.7 -27.4,0.1 -3.4,0.7 -8.9,-0.3 -9.5,5.8 -0.1,1.1 -1.5,1 -2.4,1.3 -3.2,1 -6.6,0 -9.8,1 -16.3,5.1 -26.6,16.6 -33.2,31.9 -2.9,6.8 -3.9,14 -4.6,21.4 -0.9,10.2 -0.4,20.3 2.6,30.1 2.6,8.6 5.9,17.1 8.6,25.7 0.6,1.8 1.6,1.9 3,1.9 3.9,-0.2 7.8,-0.5 11.7,-0.8 2.5,-0.2 2.9,-1.2 1.4,-3.3 -2.9,-3.9 -5.5,-8.1 -7.6,-12.5 -6.6,-13.9 -8.6,-28.4 -6,-43.6 0.2,-1.1 0.6,-2.2 1.2,-3 0.9,-1.2 2.2,-2.1 3.8,-1.2 1.4,0.7 1.7,1.9 1.3,3.4 -1,3.6 -0.5,7.3 -0.5,11 -0.1,3.8 0.4,4.1 3.5,2.1 6.2,-4 11.8,-8.8 16.1,-14.9 3.4,-4.9 7,-9.7 8.2,-15.8 0.3,-1.5 1.2,-3.1 3.2,-3.1 2.3,0 2.1,1.9 2.6,3.4 0.6,1.9 0.2,4 1.8,5.8 11.4,12.4 25.2,20.8 41.4,25.5 6.9,2 14.1,2.9 21.2,4 2.9,0.4 4.1,0 3.9,-3.1 -0.2,-5.3 -0.1,-10.6 -0.2,-15.8 0,-1.9 0.3,-3.9 2.6,-4.3 2.1,-0.3 2.9,1.5 3.7,3 0.3,0.5 0.6,1.1 0.7,1.7 3.1,11.3 3.7,22.7 0,34 -2.6,7.8 -7.6,14.2 -12.9,20.4 -0.5,0.6 -1.5,1.2 -1.2,2.1 0.4,1.3 1.7,0.7 2.6,0.7 4.3,-0.1 8.5,-1 12.8,-0.7 2.8,0.2 6.2,1.1 8.2,-0.1 2.1,-1.4 1.2,-5.2 1.7,-8 1.7,-10.2 4,-20.3 3.1,-29.9 z m -74.3,50.8 c 1.2,0 2.5,0 3.9,0 0.7,0 1.4,-0.2 2.2,-0.3 14,-2 24,-10.4 33.2,-20.2 5.9,-6.3 11.2,-13 13.1,-21.8 0.5,-2.1 0,-2.4 -2,-2.4 -26.4,0.5 -47.6,-10.4 -65,-29.7 -1.8,-2 -2.4,-2.8 -3.9,0.3 -6,12 -14.8,21.3 -27.8,25.8 -2.2,0.8 -1.6,2.1 -1.3,3.5 1.6,8.3 4.8,15.9 9.5,22.9 9.1,13.3 20.8,22.2 38.1,21.9 z m 16.9,6.6 c -7.4,2.6 -14.7,3 -22,2.5 -1.8,-0.1 -2.3,0.5 -2.4,2.3 0,2.8 -0.6,5.7 -2.2,8.1 -1.4,2 -0.8,3.3 0.8,4.7 3.7,3.2 7.5,6.4 11.1,9.7 1.2,1.1 1.9,0.4 2.8,-0.3 2.9,-2.2 5.8,-4.5 8.8,-6.6 2.5,-1.7 5.2,-3.1 2.5,-6.7 -0.5,-0.8 -0.2,-2.2 -0.3,-3.2 -0.2,-3.6 0.6,-6.8 0.9,-10.5 z" />
      <path
         inkscape:connector-curvature="0"
         id="XMLID_21_"
         fill="#F4A5B6"
         d="m 334.5,400 c 0,8.5 -0.1,16.9 0.1,25.4 0,2.4 -0.5,3.2 -3,3.1 -7.6,-0.1 -15.2,0.5 -22.8,0 -25.1,-1.4 -50.3,-1.1 -75.4,-0.7 -12.7,0.2 -25.5,1.2 -38.1,2.5 -3.6,0.4 -4.5,-0.1 -4.4,-4.2 0.4,-16.7 0.1,-33.4 0.3,-50.1 0.1,-11.8 1.8,-23.4 5.5,-34.7 4.7,-14.5 15.5,-23.1 28.1,-30.1 4.1,-2.2 8.2,-4.5 12.6,-6.1 1.4,-0.5 3,-1.3 2.7,1.5 -0.1,0.6 0.1,1.2 0.7,1.6 6.3,3.4 10.6,9.1 15.9,13.5 2.6,2.1 4.1,3.6 7.5,0.5 5.3,-4.8 11.4,-8.7 17.3,-12.9 0.7,-0.5 1.1,-1 0.9,-1.7 -0.5,-2.6 1.2,-1.9 2.4,-1.5 15,5.5 29.2,12.4 38.7,26.1 6.7,9.6 8.8,20.9 10.2,32.3 1.3,11.7 0.8,23.6 0.8,35.5 z" />
      <path
         inkscape:connector-curvature="0"
         id="XMLID_20_"
         fill="#5A5A5A"
         d="m 331.7,232.4 c 0.9,9.6 -1.4,19.7 -3.3,29.8 -0.5,2.7 0.5,6.6 -1.7,8 -1.9,1.3 -5.4,0.3 -8.2,0.1 -4.3,-0.3 -8.5,0.6 -12.8,0.7 -0.9,0 -2.2,0.6 -2.6,-0.7 -0.3,-0.9 0.7,-1.5 1.2,-2.1 5.3,-6.2 10.3,-12.5 12.9,-20.4 3.7,-11.3 3.1,-22.7 0,-34 -0.2,-0.6 -0.5,-1.1 -0.7,-1.7 -0.8,-1.5 -1.6,-3.3 -3.7,-3 -2.3,0.4 -2.6,2.3 -2.6,4.3 0,5.3 -0.1,10.6 0.2,15.8 0.1,3.2 -1,3.6 -3.9,3.1 -7.1,-1.1 -14.3,-2 -21.2,-4 -16.1,-4.7 -29.9,-13.1 -41.4,-25.5 -1.7,-1.8 -1.2,-3.9 -1.8,-5.8 -0.5,-1.5 -0.2,-3.4 -2.6,-3.4 -2,0 -2.9,1.6 -3.2,3.1 -1.2,6.1 -4.8,10.9 -8.2,15.8 -4.3,6.1 -9.8,10.9 -16.1,14.9 -3.1,2 -3.6,1.7 -3.5,-2.1 0.1,-3.7 -0.5,-7.4 0.5,-11 0.4,-1.5 0.1,-2.7 -1.3,-3.4 -1.6,-0.8 -2.9,0 -3.8,1.2 -0.6,0.8 -1,2 -1.2,3 -2.6,15.2 -0.6,29.7 6,43.6 2.1,4.4 4.7,8.6 7.6,12.5 1.5,2.1 1.2,3.1 -1.4,3.3 -3.9,0.3 -7.8,0.6 -11.7,0.8 -1.4,0.1 -2.4,0 -3,-1.9 -2.8,-8.6 -6,-17.1 -8.6,-25.7 -3,-9.8 -3.5,-19.9 -2.6,-30.1 0.7,-7.4 1.6,-14.6 4.6,-21.4 6.6,-15.3 16.9,-26.8 33.2,-31.9 3.2,-1 6.6,0 9.8,-1 0.9,-0.3 2.3,-0.2 2.4,-1.3 0.6,-6.1 6.1,-5.1 9.5,-5.8 9,-1.8 18.3,-1.9 27.4,-0.1 10.2,2 19.6,6.1 27.8,12.8 14.4,11.7 23,26.8 26.8,44.7 1.5,6 1.4,12 1.2,18.8 z" />
      <path
         inkscape:connector-curvature="0"
         id="XMLID_19_"
         fill="#FADFC3"
         d="m 257.4,283.2 c -17.3,0.3 -29,-8.7 -38.2,-22 -4.8,-7 -7.9,-14.6 -9.5,-22.9 -0.3,-1.4 -0.9,-2.7 1.3,-3.5 13,-4.5 21.8,-13.7 27.8,-25.8 1.6,-3.1 2.1,-2.3 3.9,-0.3 17.3,19.3 38.6,30.2 65,29.7 2.1,0 2.5,0.3 2,2.4 -1.9,8.8 -7.2,15.5 -13.1,21.8 -9.2,9.8 -19.2,18.3 -33.2,20.2 -0.7,0.1 -1.4,0.3 -2.2,0.3 -1.3,0.2 -2.7,0.1 -3.8,0.1 z" />
      <path
         inkscape:connector-curvature="0"
         id="XMLID_18_"
         fill="#F4DBC0"
         d="m 274.3,289.8 c -0.3,3.7 -1.1,6.9 -0.9,10.2 0.1,1.1 -0.3,2.5 0.3,3.2 2.7,3.7 0,5 -2.5,6.7 -3,2.1 -5.9,4.4 -8.8,6.6 -0.9,0.7 -1.6,1.4 -2.8,0.3 -3.6,-3.3 -7.4,-6.5 -11.1,-9.7 -1.6,-1.4 -2.1,-2.7 -0.8,-4.7 1.6,-2.4 2.2,-5.2 2.2,-8.1 0,-1.8 0.6,-2.4 2.4,-2.3 7.3,0.8 14.6,0.4 22,-2.2 z" />
    </g>
  </g>
</svg>
