<?xml version="1.0" encoding="UTF-8" standalone="no"?>
<svg
   xmlns:dc="http://purl.org/dc/elements/1.1/"
   xmlns:cc="http://creativecommons.org/ns#"
   xmlns:rdf="http://www.w3.org/1999/02/22-rdf-syntax-ns#"
   xmlns:svg="http://www.w3.org/2000/svg"
   xmlns="http://www.w3.org/2000/svg"
   xmlns:xlink="http://www.w3.org/1999/xlink"
   xmlns:sodipodi="http://sodipodi.sourceforge.net/DTD/sodipodi-0.dtd"
   xmlns:inkscape="http://www.inkscape.org/namespaces/inkscape"
   inkscape:version="1.0beta1 (32d4812, 2019-09-19)"
   id="svg1408"
   version="1.1"
   viewBox="0 0 238.12499 317.50001"
   height="1200"
   width="900">
  <defs
     id="defs1402">
    <clipPath
       id="SVGID_2_">
      <use
         xlink:href="#SVGID_1_"
         overflow="visible"
         id="use1978"
         x="0"
         y="0"
         width="100%"
         height="100%" />
    </clipPath>
    <circle
       id="SVGID_1_"
       cx="231.7"
       cy="310.29999"
       r="136.5" />
    <clipPath
       id="SVGID_4_">
      <use
         height="100%"
         width="100%"
         y="0"
         x="0"
         id="use2092"
         overflow="visible"
         xlink:href="#SVGID_3_" />
    </clipPath>
    <circle
       r="136.5"
       cy="310.29999"
       cx="543.90002"
       id="SVGID_3_" />
    <clipPath
       id="SVGID_6_">
      <use
         height="100%"
         width="100%"
         y="0"
         x="0"
         id="use2158"
         overflow="visible"
         xlink:href="#SVGID_5_" />
    </clipPath>
    <circle
       r="136.5"
       cy="310.29999"
       cx="856.09998"
       id="SVGID_5_" />
    <clipPath
       id="SVGID_8_">
      <use
         height="100%"
         width="100%"
         y="0"
         x="0"
         id="use2256"
         overflow="visible"
         xlink:href="#SVGID_7_" />
    </clipPath>
    <circle
       r="136.5"
       cy="310.29999"
       cx="1168.3"
       id="SVGID_7_" />
    <clipPath
       id="SVGID_10_">
      <use
         height="100%"
         width="100%"
         y="0"
         x="0"
         id="use2342"
         overflow="visible"
         xlink:href="#SVGID_9_" />
    </clipPath>
    <circle
       r="136.5"
       cy="669.70001"
       cx="231.7"
       id="SVGID_9_" />
    <clipPath
       id="SVGID_12_">
      <use
         height="100%"
         width="100%"
         y="0"
         x="0"
         id="use2418"
         overflow="visible"
         xlink:href="#SVGID_11_" />
    </clipPath>
    <circle
       r="136.5"
       cy="669.70001"
       cx="543.90002"
       id="SVGID_11_" />
    <clipPath
       id="SVGID_14_">
      <use
         height="100%"
         width="100%"
         y="0"
         x="0"
         id="use2556"
         overflow="visible"
         xlink:href="#SVGID_13_" />
    </clipPath>
    <circle
       r="136.5"
       cy="669.70001"
       cx="856.09998"
       id="SVGID_13_" />
    <clipPath
       id="SVGID_16_">
      <use
         height="100%"
         width="100%"
         y="0"
         x="0"
         id="use2684"
         overflow="visible"
         xlink:href="#SVGID_15_" />
    </clipPath>
    <circle
       r="136.5"
       cy="669.70001"
       cx="1168.3"
       id="SVGID_15_" />
  </defs>
  <sodipodi:namedview
     inkscape:window-maximized="0"
     inkscape:window-y="134"
     inkscape:window-x="20"
     inkscape:window-height="907"
     inkscape:window-width="1600"
     units="px"
     showgrid="false"
     inkscape:document-rotation="0"
     inkscape:current-layer="layer1"
     inkscape:document-units="mm"
     inkscape:cy="560"
     inkscape:cx="400"
     inkscape:zoom="0.35"
     inkscape:pageshadow="2"
     inkscape:pageopacity="0.0"
     borderopacity="1.0"
     bordercolor="#666666"
     pagecolor="#ffffff"
     id="base" />
  <metadata
     id="metadata1405">
    <rdf:RDF>
      <cc:Work
         rdf:about="">
        <dc:format>image/svg+xml</dc:format>
        <dc:type
           rdf:resource="http://purl.org/dc/dcmitype/StillImage" />
        <dc:title></dc:title>
      </cc:Work>
    </rdf:RDF>
  </metadata>
  <g
     id="layer1"
     inkscape:groupmode="layer"
     inkscape:label="Layer 1">
    <g
       transform="matrix(0.92604166,0,0,0.92604166,-389.58058,-475.65468)"
       id="XMLID_680_">
      <g
         id="XMLID_679_">
        <path
           inkscape:connector-curvature="0"
           id="XMLID_1219_"
           fill="#723F2D"
           d="m 619.1,740.9 c 0,0 17.5,9.8 12.5,39.4 -5,29.6 1.8,54.3 35.6,56.1 0,0 -47.5,16.1 -66.1,-21.5 -18.7,-37.6 -10,-49.7 -25.5,-57" />
      </g>
      <g
         id="XMLID_678_">
        <path
           inkscape:connector-curvature="0"
           id="XMLID_870_"
           fill="#713517"
           d="m 644.5,841.8 c -15.5,0 -34.8,-4.8 -45.3,-26 -8.6,-17.3 -11.5,-29.2 -13.5,-37.9 -2.4,-10 -3.5,-14.6 -11,-18.1 l 1.7,-3.7 c 9.3,4.4 10.8,10.6 13.3,20.9 2,8.5 4.8,20.1 13.2,37.1 12.6,25.4 38.7,25.3 53.3,22.9 -8.4,-2.1 -15,-6 -19.7,-11.9 -8,-9.9 -10.3,-25.1 -6.9,-45.1 4.7,-27.9 -11.3,-37.2 -11.5,-37.3 l 2,-3.6 c 0.8,0.4 18.7,10.8 13.5,41.6 -3.2,18.8 -1.1,32.8 6.1,41.8 5.8,7.2 15.1,11.2 27.6,11.9 1,0.1 1.8,0.8 1.9,1.8 0.1,1 -0.4,1.9 -1.4,2.2 -0.2,0.1 -10.4,3.4 -23.3,3.4 z" />
      </g>
      <g
         id="XMLID_820_">
        <path
           inkscape:connector-curvature="0"
           id="XMLID_1218_"
           fill="#F9C68C"
           d="m 449.7,690.1 c 0,0 -13.1,-6.8 -14,10.9 -0.9,17.8 13.1,32.9 28.7,31.5" />
      </g>
      <g
         id="XMLID_819_">
        <path
           inkscape:connector-curvature="0"
           id="XMLID_869_"
           fill="#713517"
           d="m 462.2,734.7 c -6.7,0 -13.2,-2.7 -18.6,-7.9 -6.9,-6.7 -10.6,-16.1 -10.1,-25.9 0.3,-6.6 2.3,-10.9 5.9,-13 5,-2.8 10.9,0.2 11.2,0.3 l -1.9,3.6 c 0,0 -4.2,-2.1 -7.2,-0.4 -2.8,1.6 -3.6,6.1 -3.8,9.6 -0.4,8.5 2.9,17 8.8,22.7 5,4.8 11.3,7.2 17.6,6.6 l 0.4,4.1 c -0.8,0.3 -1.5,0.3 -2.3,0.3 z" />
      </g>
      <g
         id="XMLID_816_">
        <path
           inkscape:connector-curvature="0"
           id="XMLID_798_"
           fill="#6766AE"
           d="M 620.4,854.5 H 467.9 v 0 c 0,-30.2 24.5,-54.7 54.7,-54.7 h 43 c 30.3,-0.1 54.8,24.5 54.8,54.7 z" />
      </g>
      <g
         id="XMLID_815_">
        <path
           inkscape:connector-curvature="0"
           id="XMLID_863_"
           fill="#713517"
           d="M 622.4,856.5 H 465.9 v -2.1 c 0,-31.3 25.5,-56.8 56.8,-56.8 h 43 c 31.3,0 56.8,25.5 56.8,56.8 v 2.1 z M 470,852.4 h 148.2 c -1.1,-28.1 -24.3,-50.6 -52.6,-50.6 h -43 c -28.3,0 -51.5,22.5 -52.6,50.6 z" />
      </g>
      <g
         id="XMLID_814_">
        <path
           inkscape:connector-curvature="0"
           id="XMLID_1217_"
           fill="#F9C68C"
           d="m 561.5,798.4 v -23.6 h -34.8 v 23.6 c 0.1,22.1 34.8,22.1 34.8,0 z" />
      </g>
      <g
         id="XMLID_813_">
        <path
           inkscape:connector-curvature="0"
           id="XMLID_852_"
           fill="#713517"
           d="m 544.1,817 c -9.7,0 -19.4,-6.4 -19.4,-18.6 v -25.7 h 38.9 v 25.7 c 0,12.2 -9.8,18.6 -19.5,18.6 z m -15.3,-40.2 v 21.6 c 0,10 8,14.5 15.3,14.5 7.3,0 15.3,-4.5 15.3,-14.5 v -21.6 z" />
      </g>
      <g
         id="XMLID_812_">
        <path
           inkscape:connector-curvature="0"
           id="XMLID_1216_"
           fill="#F9C68C"
           d="m 638.6,690.1 c 0,0 13.1,-6.8 14,10.9 0.9,17.8 -13.1,32.9 -28.7,31.5" />
      </g>
      <g
         id="XMLID_811_">
        <path
           inkscape:connector-curvature="0"
           id="XMLID_1215_"
           fill="#F9C68C"
           d="m 638.6,677.3 c 0,52.1 -42.3,110.9 -94.5,110.9 -52.2,0 -94.5,-58.7 -94.5,-110.9 0,-52.2 42.3,-77.9 94.5,-77.9 52.2,0 94.5,25.8 94.5,77.9 z" />
      </g>
      <g
         id="XMLID_810_">
        <path
           inkscape:connector-curvature="0"
           id="XMLID_835_"
           fill="#713517"
           d="m 544.1,790.2 c -54.4,0 -96.5,-60.7 -96.5,-112.9 0,-25.2 9.8,-46 28.5,-60.1 17.1,-13 40.6,-19.8 68,-19.8 27.4,0 50.9,6.9 68,19.8 18.6,14.1 28.5,34.9 28.5,60.1 0.1,52.2 -42.1,112.9 -96.5,112.9 z m 0,-188.7 c -44.7,0 -92.4,19.9 -92.4,75.8 0,25 10.2,52.6 27.2,73.7 18.3,22.6 41.4,35.1 65.2,35.1 23.8,0 46.9,-12.5 65.2,-35.1 17,-21.1 27.2,-48.7 27.2,-73.7 0.1,-55.9 -47.7,-75.8 -92.4,-75.8 z" />
      </g>
      <g
         id="XMLID_809_">
        <path
           inkscape:connector-curvature="0"
           id="XMLID_833_"
           fill="#713517"
           d="m 626,734.7 c -0.7,0 -1.5,0 -2.2,-0.1 l 0.4,-4.1 c 6.3,0.6 12.5,-1.8 17.6,-6.6 6,-5.7 9.3,-14.2 8.8,-22.7 -0.2,-3.5 -1,-8 -3.8,-9.6 -3,-1.7 -7.2,0.4 -7.2,0.4 l -1.9,-3.6 c 0.2,-0.1 6.2,-3.1 11.2,-0.3 3.6,2 5.5,6.4 5.9,13 0.5,9.8 -3.2,19.2 -10.1,25.9 -5.4,4.9 -11.9,7.7 -18.7,7.7 z" />
      </g>
      <g
         id="XMLID_804_">
        <g
           id="XMLID_808_">
          <circle
             id="XMLID_1214_"
             fill="#713517"
             cx="508.89999"
             cy="696.59998"
             r="6.8000002" />
        </g>
        <g
           id="XMLID_805_">
          <circle
             id="XMLID_1213_"
             fill="#713517"
             cx="579.40002"
             cy="696.59998"
             r="6.8000002" />
        </g>
      </g>
      <g
         id="XMLID_800_">
        <g
           id="XMLID_802_">
          <path
             inkscape:connector-curvature="0"
             id="XMLID_1212_"
             fill="#713517"
             d="m 515.7,740.9 h 56.8 c 0,0 -4.6,24.3 -28.4,24.4 -22.9,0.1 -28.4,-24.4 -28.4,-24.4 z" />
        </g>
        <g
           id="XMLID_801_">
          <path
             inkscape:connector-curvature="0"
             id="XMLID_1211_"
             fill="#EF5353"
             d="m 525.5,758.1 c 0,0 7,-8.2 20.7,-7.4 13.7,0.8 17.9,6.3 17.9,6.3 0,0 -4.3,9.2 -18.3,8.3 -13.9,-0.9 -20.3,-7.2 -20.3,-7.2 z" />
        </g>
      </g>
      <g
         id="XMLID_796_">
        <path
           inkscape:connector-curvature="0"
           id="XMLID_829_"
           fill="#713517"
           d="m 544,767.4 c -24.2,0 -30.2,-25.7 -30.3,-26 -0.1,-0.6 0,-1.2 0.4,-1.7 0.4,-0.5 1,-0.8 1.6,-0.8 h 56.8 c 0.6,0 1.2,0.3 1.6,0.7 0.4,0.4 0.5,1.1 0.4,1.7 0,0.3 -5.2,26 -30.4,26.1 0,0 0,0 -0.1,0 z M 518.5,743 c 2,6 8.7,20.4 25.7,20.3 17.7,-0.1 23.9,-14.4 25.8,-20.3 z" />
      </g>
      <g
         id="XMLID_794_">
        <circle
           id="XMLID_1210_"
           fill="#EF5353"
           cx="544.09998"
           cy="717.5"
           r="3.0999999" />
      </g>
      <g
         id="XMLID_649_">
        <g
           id="XMLID_711_">
          <path
             inkscape:connector-curvature="0"
             id="XMLID_1209_"
             fill="#7B4732"
             d="m 443.2,651.3 v -32.5 c 0,-28.5 24.8,-50.8 53.1,-47.6 1.1,0.1 1.7,0.2 1.7,0.2 5.5,-15.1 36.3,-41.1 85.5,-28.4 0.9,0.2 1.7,0.5 2.6,0.7 36.8,10.6 61.7,44.9 61.7,83.2 v 62.7 c -11.3,1.4 -14.1,19.6 -14.1,19.6 v -0.5 c 0.2,-15.4 -11.4,-28.5 -26.8,-29.9 -30.2,-2.7 -77.1,-14.8 -97,-61.3 0,0 -39.1,11.7 -49.6,38.7 -10.5,27 -6.7,49.5 -6.7,49.5 0,0 -4.4,21.2 3.2,35.2 7.5,14 10.9,39.3 -13.6,48.9 0,0 12.4,-11.7 0,-39.2 -12.4,-27.5 -15.3,-48.4 -7.6,-65.8 7.6,-17.4 7.6,-33.5 7.6,-33.5 z" />
        </g>
      </g>
      <g
         id="XMLID_768_">
        <g
           id="XMLID_676_">
          <path
             inkscape:connector-curvature="0"
             id="XMLID_806_"
             fill="#713517"
             d="m 443.2,791.9 c -0.7,0 -1.3,-0.3 -1.7,-1 -0.5,-0.8 -0.4,-1.9 0.3,-2.6 0.5,-0.4 11.2,-11.3 -0.5,-36.9 -12.9,-28.5 -15.3,-49.9 -7.6,-67.5 7.4,-16.9 7.5,-32.5 7.5,-32.7 v -32.5 c 0,-14.3 6.1,-27.9 16.7,-37.4 10.5,-9.4 24.6,-13.9 38.6,-12.3 0,0 0.1,0 0.1,0 7.4,-16.7 39,-40.6 87.3,-28.1 0.9,0.2 1.8,0.5 2.7,0.7 37.2,10.7 63.2,45.8 63.2,85.2 v 62.7 c 0,1 -0.8,1.9 -1.8,2 -9.6,1.2 -12.3,17.7 -12.4,17.8 -0.2,1.1 -1.1,1.8 -2.2,1.7 -1.1,-0.1 -1.9,-1 -1.9,-2.1 0.2,-14.6 -11,-27 -25.4,-28.2 -28,-2.3 -77.5,-13.4 -97.5,-61 -7.6,2.7 -37.7,14.4 -46.5,36.9 -10.1,26.1 -6.6,48.2 -6.6,48.4 0,0.2 0,0.5 0,0.7 0,0.2 -4.1,20.7 3,33.8 4.7,8.7 8.1,22.2 3.8,34 -3,8.2 -9.2,14.2 -18.4,17.8 -0.2,0.5 -0.4,0.6 -0.7,0.6 z m 47.7,-219 c -11.1,0 -21.9,4.1 -30.2,11.5 -9.8,8.7 -15.4,21.2 -15.4,34.3 v 32.5 c 0,0.7 -0.1,16.7 -7.8,34.3 -7.2,16.4 -4.8,36.8 7.6,64.1 7.8,17.1 6.2,28.5 3.6,35 4.7,-3.1 7.9,-7.1 9.8,-12.2 3.9,-10.5 0.5,-23.1 -3.6,-30.6 -7.3,-13.6 -4,-33.2 -3.4,-36.2 -0.5,-3.2 -3,-24.6 6.9,-50.2 10.7,-27.6 49.3,-39.4 50.9,-39.9 1,-0.3 2.1,0.2 2.5,1.2 17.7,44.7 61.3,57.5 94.7,60.2 13.3,1.1 24.2,10.4 27.9,22.7 2.1,-4.9 5.6,-10.1 11.4,-11.7 v -61 c 0,-37.6 -24.8,-71 -60.2,-81.3 -0.8,-0.2 -1.7,-0.5 -2.5,-0.7 -46.7,-12 -77.6,12.1 -83.1,27.1 -0.3,0.9 -1.3,1.5 -2.3,1.3 0,0 -0.6,-0.1 -1.6,-0.2 -1.8,-0.1 -3.5,-0.2 -5.2,-0.2 z" />
        </g>
      </g>
    </g>
  </g>
</svg>
