<?xml version="1.0" encoding="UTF-8" standalone="no"?>
<svg
   xmlns:dc="http://purl.org/dc/elements/1.1/"
   xmlns:cc="http://creativecommons.org/ns#"
   xmlns:rdf="http://www.w3.org/1999/02/22-rdf-syntax-ns#"
   xmlns:svg="http://www.w3.org/2000/svg"
   xmlns="http://www.w3.org/2000/svg"
   xmlns:xlink="http://www.w3.org/1999/xlink"
   xmlns:sodipodi="http://sodipodi.sourceforge.net/DTD/sodipodi-0.dtd"
   xmlns:inkscape="http://www.inkscape.org/namespaces/inkscape"
   inkscape:version="1.0beta1 (32d4812, 2019-09-19)"
   id="svg1408"
   version="1.1"
   viewBox="0 0 238.12499 317.50001"
   height="1200"
   width="900">
  <defs
     id="defs1402">
    <clipPath
       id="SVGID_2_">
      <use
         xlink:href="#SVGID_1_"
         overflow="visible"
         id="use1978"
         x="0"
         y="0"
         width="100%"
         height="100%" />
    </clipPath>
    <circle
       id="SVGID_1_"
       cx="231.7"
       cy="310.29999"
       r="136.5" />
    <clipPath
       id="SVGID_4_">
      <use
         height="100%"
         width="100%"
         y="0"
         x="0"
         id="use2092"
         overflow="visible"
         xlink:href="#SVGID_3_" />
    </clipPath>
    <circle
       r="136.5"
       cy="310.29999"
       cx="543.90002"
       id="SVGID_3_" />
    <clipPath
       id="SVGID_6_">
      <use
         height="100%"
         width="100%"
         y="0"
         x="0"
         id="use2158"
         overflow="visible"
         xlink:href="#SVGID_5_" />
    </clipPath>
    <circle
       r="136.5"
       cy="310.29999"
       cx="856.09998"
       id="SVGID_5_" />
    <clipPath
       id="SVGID_8_">
      <use
         height="100%"
         width="100%"
         y="0"
         x="0"
         id="use2256"
         overflow="visible"
         xlink:href="#SVGID_7_" />
    </clipPath>
    <circle
       r="136.5"
       cy="310.29999"
       cx="1168.3"
       id="SVGID_7_" />
    <clipPath
       id="SVGID_10_">
      <use
         height="100%"
         width="100%"
         y="0"
         x="0"
         id="use2342"
         overflow="visible"
         xlink:href="#SVGID_9_" />
    </clipPath>
    <circle
       r="136.5"
       cy="669.70001"
       cx="231.7"
       id="SVGID_9_" />
    <clipPath
       id="SVGID_12_">
      <use
         height="100%"
         width="100%"
         y="0"
         x="0"
         id="use2418"
         overflow="visible"
         xlink:href="#SVGID_11_" />
    </clipPath>
    <circle
       r="136.5"
       cy="669.70001"
       cx="543.90002"
       id="SVGID_11_" />
    <clipPath
       id="SVGID_14_">
      <use
         height="100%"
         width="100%"
         y="0"
         x="0"
         id="use2556"
         overflow="visible"
         xlink:href="#SVGID_13_" />
    </clipPath>
    <circle
       r="136.5"
       cy="669.70001"
       cx="856.09998"
       id="SVGID_13_" />
    <clipPath
       id="SVGID_16_">
      <use
         height="100%"
         width="100%"
         y="0"
         x="0"
         id="use2684"
         overflow="visible"
         xlink:href="#SVGID_15_" />
    </clipPath>
    <circle
       r="136.5"
       cy="669.70001"
       cx="1168.3"
       id="SVGID_15_" />
  </defs>
  <sodipodi:namedview
     inkscape:window-maximized="0"
     inkscape:window-y="134"
     inkscape:window-x="20"
     inkscape:window-height="907"
     inkscape:window-width="1600"
     units="px"
     showgrid="false"
     inkscape:document-rotation="0"
     inkscape:current-layer="layer1"
     inkscape:document-units="mm"
     inkscape:cy="560"
     inkscape:cx="400"
     inkscape:zoom="0.35"
     inkscape:pageshadow="2"
     inkscape:pageopacity="0.0"
     borderopacity="1.0"
     bordercolor="#666666"
     pagecolor="#ffffff"
     id="base" />
  <metadata
     id="metadata1405">
    <rdf:RDF>
      <cc:Work
         rdf:about="">
        <dc:format>image/svg+xml</dc:format>
        <dc:type
           rdf:resource="http://purl.org/dc/dcmitype/StillImage" />
        <dc:title></dc:title>
      </cc:Work>
    </rdf:RDF>
  </metadata>
  <g
     id="layer1"
     inkscape:groupmode="layer"
     inkscape:label="Layer 1">
    <g
       transform="matrix(1.0583333,0,0,1.0583333,-456.84032,-564.44308)"
       id="XMLID_431_">
      <path
         inkscape:connector-curvature="0"
         id="XMLID_324_"
         fill="#1E1513"
         d="m 493.1,654.8 c -3.7,-0.4 -6.8,0 -9.8,-0.8 -5.7,-1.4 -8.8,-5.2 -8.9,-11 0,-4.4 0.4,-8.8 2.2,-12.9 1,-2.3 2.5,-4.4 5,-5 2.3,-0.6 2.4,-1.9 2.2,-3.8 -1.4,-14.9 1.2,-29.3 6,-43.3 3.8,-11.2 10.7,-20.5 20.1,-27.9 4.8,-3.8 10.2,-5.7 16.1,-4.2 4.4,1.2 8.3,0.2 12.5,-0.5 14.2,-2.2 28.3,-2.6 41,5.3 14.9,9.3 23.3,23.1 25.2,40.6 1,8.9 3.9,17.5 3.1,26.6 -0.1,1.1 0.1,2.2 0,3.3 -0.3,2.3 0.1,3.7 2.7,5 5.2,2.6 7,13.7 4,20.1 -2.5,5.4 -6.5,8.1 -12.5,7.9 -1.5,0 -3.1,0 -5,0 2.6,3.9 4.3,7.7 4.3,12.2 0,0.7 0.1,1.5 1.1,1.5 6.9,0.3 9.5,5.9 12.3,10.8 1.2,2 2,3.1 4.5,3.2 6.4,0.4 10.8,5.2 11.8,13.3 0.3,2.3 0.8,3.1 3.2,2.9 2.8,-0.2 4.9,1.3 6.7,3.2 6.7,7.1 12.2,15 18.2,22.6 0.7,0.9 0.9,1.7 0.2,2.7 -0.7,0.9 -1.6,1.3 -2.6,0.8 -8.8,-3.7 -18.3,-5.6 -26.4,-10.9 -3.1,-2 -5.3,-4.7 -6,-8.4 -0.2,-1.2 -0.2,-2.6 -2.1,-2.9 -7.6,-1.3 -11.6,-6.7 -14.7,-13.1 -0.6,-1.2 -1.1,-1.9 -2.5,-2.2 -6.2,-1.5 -9.8,-5.8 -11.6,-11.6 -0.6,-2.1 -1.6,-2.8 -3.7,-2.9 -3.9,-0.2 -6.8,-2.6 -9.1,-5.5 -1.4,-1.8 -2.4,-1.7 -4.1,-0.4 -2.5,2 -5.1,3.9 -7.9,5.3 -2.9,1.4 -3.9,3.3 -3.7,6.4 0.2,2.9 0,5.9 0.2,8.8 0.1,1.3 0.4,2.4 2.3,1.8 5.6,-2 10.9,-0.4 16,1.8 15.6,6.9 29.9,15.5 38.4,31.1 6.2,11.3 8.8,23.6 9.9,36.3 1.7,20 1,40 0,60 0,0.1 0,0.2 0,0.4 -0.7,9.8 -1.6,10.5 -11.3,10.8 -30.4,0.8 -60.8,-2.3 -91.3,-1 -17.2,0.7 -34.3,1.1 -51.5,2.1 -9,0.5 -13.3,-4.9 -13.7,-12.5 -1,-21.2 -1.9,-42.5 0.1,-63.6 1.4,-15.3 5,-30.1 15.1,-42.3 10.5,-12.6 24.2,-20.5 39.8,-25.2 1.2,-0.3 2.4,-0.4 3.6,-0.5 4.1,-0.1 6.8,-4.5 5.3,-8.4 -0.3,-0.8 -1,-1 -1.7,-1.2 -5.6,-1.7 -10.7,-4.3 -15.2,-8 -1.1,-0.9 -1.8,-1 -2.7,0.2 -2.9,3.6 -6.3,6.1 -11.2,6.2 -1.1,0 -1.3,0.6 -1.6,1.5 -2,6.5 -5.6,11.4 -12.7,12.9 -1.6,0.3 -1.6,1.6 -2.1,2.7 -3.1,6.1 -7.1,11.2 -14.3,12.6 -1.6,0.3 -2,1.2 -2.2,2.4 -0.7,4.3 -3.3,7.2 -6.9,9.4 -7.9,4.9 -17,6.8 -25.4,10.4 -1.1,0.5 -2.2,0.1 -2.9,-1 -0.7,-1.1 -0.1,-1.9 0.5,-2.7 5.5,-7.1 10.7,-14.3 16.7,-21 2.5,-2.8 5.3,-5.2 9.4,-4.7 1.7,0.2 1.6,-0.8 1.7,-2 0.4,-3.6 1.2,-7 3.6,-9.8 2.3,-2.6 5,-4.5 8.5,-4.4 2.3,0 3.3,-0.9 4.2,-3 1.8,-4.2 4.6,-7.9 8.7,-10.2 4,-2.3 4.2,-2.2 5.4,-6.8 1.1,-3.6 2.9,-6.4 5.5,-9.5 z m -21.5,139.9 c 0,9.1 0.1,18.2 0,27.2 -0.1,6.3 -0.1,6.3 6.1,5.7 24.8,-2.4 49.7,-2.8 74.6,-3.1 22.7,-0.3 45.3,2.7 68,1.2 2.9,-0.2 3.7,-0.8 3.7,-3.8 -0.2,-13.7 -0.1,-27.5 -0.1,-41.2 0,-11.5 -0.5,-23 -2.8,-34.4 -3.2,-15.8 -10.3,-29 -24.3,-37.8 -1.8,-1.2 -2.8,-1.2 -4.1,0.7 -3.6,5.2 -8.6,8.8 -14.4,11 -9.9,3.8 -19.8,4.9 -28.9,-2 -1.6,-1.2 -2.4,-0.2 -3.5,0.4 -16.1,9.5 -34.7,4.8 -44.1,-11.1 -1,-1.6 -1.7,-1.8 -3.1,-0.8 -3.3,2.3 -6.5,4.8 -9.4,7.6 -9.9,9.7 -13.4,22.3 -15.7,35.3 -2.6,15.2 -1.9,30.2 -2,45.1 z M 599,616.2 c -0.5,-9.8 0.7,-19.1 -1.1,-28.1 -3.2,-16.1 -11.4,-29.1 -27,-35.6 -12.5,-5.3 -25.6,-4.2 -38.7,-1.5 -2.3,0.5 -5,3.1 -6.8,-1.1 -0.3,-0.7 -1.4,-0.1 -2.1,0 -6.1,0.4 -10.3,4.3 -14.3,8.3 -15.6,16 -19.8,35.5 -17.2,57 0.3,2.3 1.1,2 2.6,1.2 4,-2.1 8.2,-3.8 12.9,-4.1 1.7,-0.1 2.1,-1.1 2.6,-2.5 1.6,-5.1 3.5,-10.2 5.3,-15.3 0.4,-1.1 0.9,-2 2.3,-2 1.1,0.1 1.4,0.9 1.5,1.8 0.5,5 3.5,9.1 4.7,13.8 0.5,2.1 1.6,2.1 3.5,1.7 9.3,-1.9 18.7,-2.5 28.2,-2.5 1,0 2,-0.2 2.9,0.9 1.9,2.3 2.7,1.1 3.1,-1.2 0.9,-4.4 2.2,-8.8 4.3,-12.9 0.5,-1 1.2,-2.1 2.4,-2.1 1.4,0.1 1.4,1.6 1.6,2.6 0.8,4 2.4,7.7 4,11.4 1.1,2.6 2.7,3.7 5.7,3.4 4,-0.4 8.1,-0.3 11.8,1.8 2.3,1.7 4.7,3.2 7.8,5 z m -81.8,-11.4 c -1.1,3.2 -2.4,6.3 -2.2,9.8 0.2,2.9 -1.3,4.3 -4,3.8 -6.6,-1.3 -11.9,1.8 -17.3,4.8 -1.7,0.9 -2,1.9 -1.6,3.9 2.4,9.6 6.8,18.1 12.7,25.8 12.5,16.2 31.8,22.8 50.6,16.9 11.5,-3.6 20.3,-11.2 28.3,-19.8 6.3,-6.8 12,-14 14,-23.3 0.4,-1.7 0.3,-3 -0.9,-4.4 -5.4,-6.1 -12.3,-8.7 -20.3,-8.5 -5.2,0.1 -5.9,-0.1 -7.6,-4.9 -0.5,-1.4 -0.9,-2.7 -1.5,-4.4 -0.8,1.6 -0.9,3.1 -1.1,4.5 -0.5,3.7 -2.4,5 -6.1,4.5 -9.6,-1.4 -19.3,-1 -28.9,0.5 -11.2,1.8 -11.5,1.8 -14.1,-9.2 z m 25.3,76.9 c -1.7,-0.1 -3.5,-0.1 -5.1,-0.3 -2.4,-0.4 -3.2,0.5 -3.2,2.9 0,2.8 -0.6,5.7 -2.3,8.1 -1.6,2.2 -0.8,3.6 0.8,5 3.9,3.4 7.8,6.7 11.6,10.2 1.2,1.1 1.9,0.5 2.8,-0.2 4,-3 8,-6 12.1,-9 1.1,-0.8 1.8,-1.5 1,-3 -2,-3.9 -1.3,-8.1 -0.8,-12.3 0.4,-3.3 -0.3,-4 -3.5,-3.2 -4.4,1.2 -8.8,1.7 -13.4,1.8 z m 20.8,35.8 c 9.7,-0.3 18.1,-3.6 24.7,-10.9 1,-1.1 2.3,-2.2 -0.1,-3.3 -5,-2.4 -9.6,-5.5 -15,-6.8 -1.7,-0.4 -4.7,-3 -4.4,1.8 0,0.3 -0.6,0.7 -1,1 -4.3,3.2 -8.5,6.5 -12.8,9.7 -1,0.8 -1.7,1.7 -2.3,2.8 -1.1,1.7 -1.1,2.6 1,3.6 3.1,1.6 6.4,2.1 9.9,2.1 z m -34.1,-0.6 c 2.4,-0.3 6.2,-0.4 9.8,-1.7 2.7,-0.9 3.7,-1.9 1,-3.9 -5.5,-4 -9.3,-10.1 -15.7,-13 -0.4,-0.2 -0.8,-1.1 -0.7,-1.6 0.4,-2.9 -1.4,-2.3 -2.9,-1.6 -4.7,2.2 -9.3,4.4 -13.9,6.6 -1.7,0.8 -1.9,1.7 -0.8,3.4 5.2,8.1 12.5,12 23.2,11.8 z m -91,4.9 c 0.2,0.3 0.4,0.6 0.6,0.8 6.7,-2.2 13.5,-4.3 18.9,-9.1 2,-1.8 3.6,-4.6 1.9,-7.6 -2,-3.5 -6.2,-3.6 -9.4,0.2 -4.2,5.1 -8,10.5 -12,15.7 z m 211.3,-1.4 c 0.2,-0.3 0.5,-0.5 0.7,-0.8 -3.4,-4.6 -6.7,-9.2 -10.1,-13.7 -1.3,-1.8 -2.7,-3.6 -4.9,-4.3 -1.6,-0.5 -3.4,-1.2 -4.8,0.2 -1.5,1.6 -2.8,3.4 -1.6,5.9 0.6,1.2 1,2.5 2.1,3.4 5.3,5 12.1,6.9 18.6,9.3 z M 461.9,698.2 c 0,4.1 1.7,5.4 5.4,4 2.5,-0.9 4.4,-2.5 6.1,-4.5 1.3,-1.6 3.1,-3.1 3.4,-5.1 0.2,-1.4 -2.5,-1.3 -3.1,-2.7 -1.8,-4 -4.6,-2.4 -7,-1.1 -3.9,1.9 -4.5,5.8 -4.8,9.4 z m 164.7,-2.1 c 0.1,-2.1 -0.4,-4.2 -1.4,-6 -1.6,-2.9 -4,-4.6 -7.3,-4.6 -3.1,0 -3.2,4 -6.1,4.5 -0.4,0.1 -0.1,0.9 0.1,1.3 2.4,3.6 5,7 9.2,8.6 3.9,1.5 5.5,0.3 5.5,-3.8 z M 492,667.6 c -0.1,4.5 0.7,5.1 5.1,4.8 3.1,-0.2 5,-2.3 6.9,-4.3 1.1,-1.1 1.1,-1.8 0,-3 -2.1,-2.2 -4.1,-4.6 -5.8,-7.1 -1.3,-2 -2.3,-1.4 -3.3,0 -1.9,2.8 -2.9,6 -2.9,9.6 z M 596.5,666 c 0,-3.5 -0.8,-6.6 -2.5,-9.5 -0.9,-1.6 -1.6,-1.5 -2.7,-0.3 -1.7,1.8 -3.4,3.5 -5.2,5.2 -3.3,3.2 -3.3,3.3 0.1,6.3 0.5,0.5 1,1.1 1.6,1.4 2.4,1.1 4.9,1.7 7.4,0.7 2,-0.8 1,-2.6 1.3,-3.8 z M 490.1,649.2 c 1.9,0.2 2.4,-0.4 1.5,-2.3 -2.5,-4.6 -4.2,-9.6 -5.7,-14.6 -0.2,-0.8 -0.1,-1.8 -1.3,-1.9 -1.2,-0.1 -1.9,0.5 -2.4,1.4 -2.2,3.9 -2.1,8 -0.5,12 1.5,3.7 4.5,5.3 8.4,5.4 z m 120.5,32.3 c -0.7,-3.5 -3,-6.4 -5.7,-9.1 -0.9,-0.9 -2.4,-2.3 -3.4,-1.2 -1.3,1.3 -3.2,2.5 -3.2,4.6 0,3.8 6,9 9.9,8.9 1.9,-0.1 2.5,-1.1 2.4,-3.2 z m -130.1,5.4 c 3.9,-0.1 9.1,-4.7 9.7,-8.5 0.3,-1.9 -3.1,-5.6 -4.7,-5 -2.9,1 -7.5,7.7 -7.6,10.7 -0.1,2 0.6,3 2.6,2.8 z m 116.8,-37.5 c 4,-1.4 7.4,-3.6 10.4,-6.7 2.9,-3.1 2.7,-6.6 2.2,-10.3 -0.2,-1.3 -1.1,-1.8 -2.3,-1.9 -1.2,-0.1 -1.3,0.7 -1.5,1.6 -1.8,6.2 -5.1,11.8 -8.8,17.3 z" />
      <path
         inkscape:connector-curvature="0"
         id="XMLID_323_"
         fill="#EE5581"
         d="m 471.6,794.7 c 0,-15 -0.6,-30 1.9,-44.8 2.2,-13.1 5.8,-25.6 15.7,-35.3 2.9,-2.8 6.1,-5.3 9.4,-7.6 1.4,-1 2.1,-0.8 3.1,0.8 9.4,15.9 28,20.6 44.1,11.1 1.1,-0.6 1.9,-1.7 3.5,-0.4 9.2,6.9 19.1,5.8 28.9,2 5.8,-2.2 10.8,-5.8 14.4,-11 1.3,-1.9 2.2,-1.8 4.1,-0.7 14,8.8 21.1,22 24.3,37.8 2.3,11.4 2.9,22.8 2.8,34.4 0,13.7 -0.1,27.5 0.1,41.2 0,2.9 -0.7,3.6 -3.7,3.8 -22.7,1.5 -45.3,-1.5 -68,-1.2 -24.9,0.3 -49.8,0.6 -74.6,3.1 -6.2,0.6 -6.1,0.6 -6.1,-5.7 0.2,-9.3 0.1,-18.4 0.1,-27.5 z" />
      <path
         inkscape:connector-curvature="0"
         id="XMLID_322_"
         fill="#F06E32"
         d="m 599,616.2 c -3.1,-1.8 -5.5,-3.3 -7.9,-4.7 -3.7,-2.1 -7.8,-2.2 -11.8,-1.8 -2.9,0.3 -4.5,-0.8 -5.7,-3.4 -1.6,-3.7 -3.2,-7.4 -4,-11.4 -0.2,-1 -0.1,-2.5 -1.6,-2.6 -1.2,-0.1 -1.9,1.1 -2.4,2.1 -2.1,4.1 -3.3,8.4 -4.3,12.9 -0.5,2.2 -1.3,3.5 -3.1,1.2 -0.9,-1.1 -1.9,-0.9 -2.9,-0.9 -9.5,-0.1 -18.9,0.5 -28.2,2.5 -1.9,0.4 -3,0.4 -3.5,-1.7 -1.2,-4.7 -4.2,-8.9 -4.7,-13.8 -0.1,-0.9 -0.3,-1.7 -1.5,-1.8 -1.4,-0.1 -1.9,0.9 -2.3,2 -1.8,5.1 -3.6,10.2 -5.3,15.3 -0.5,1.4 -0.9,2.4 -2.6,2.5 -4.6,0.3 -8.8,1.9 -12.9,4.1 -1.5,0.8 -2.3,1.1 -2.6,-1.2 -2.6,-21.5 1.6,-41 17.2,-57 3.9,-4 8.2,-7.9 14.3,-8.3 0.7,-0.1 1.8,-0.7 2.1,0 1.7,4.2 4.5,1.5 6.8,1.1 13,-2.7 26.2,-3.8 38.7,1.5 15.6,6.6 23.9,19.5 27,35.6 1.9,8.8 0.7,18.1 1.2,27.8 z" />
      <path
         inkscape:connector-curvature="0"
         id="XMLID_321_"
         fill="#FADFC3"
         d="m 517.2,604.8 c 2.7,11 2.9,11 14.2,9.1 9.6,-1.6 19.2,-1.9 28.9,-0.5 3.7,0.5 5.6,-0.8 6.1,-4.5 0.2,-1.4 0.3,-2.9 1.1,-4.5 0.6,1.6 1,3 1.5,4.4 1.7,4.8 2.4,5 7.6,4.9 8,-0.2 14.9,2.4 20.3,8.5 1.2,1.4 1.3,2.7 0.9,4.4 -2,9.4 -7.7,16.6 -14,23.3 -8,8.6 -16.8,16.2 -28.3,19.8 -18.9,5.9 -38.1,-0.6 -50.6,-16.9 -6,-7.8 -10.4,-16.3 -12.7,-25.8 -0.5,-1.9 -0.1,-3 1.6,-3.9 5.4,-2.9 10.6,-6.1 17.3,-4.8 2.7,0.5 4.2,-0.9 4,-3.8 -0.4,-3.3 0.9,-6.5 2.1,-9.7 z" />
      <path
         inkscape:connector-curvature="0"
         id="XMLID_320_"
         fill="#FADFC3"
         d="m 542.5,681.7 c 4.6,-0.1 9,-0.6 13.5,-1.8 3.2,-0.9 3.9,-0.1 3.5,3.2 -0.5,4.1 -1.2,8.3 0.8,12.3 0.8,1.5 0.1,2.2 -1,3 -4.1,3 -8.1,6 -12.1,9 -0.9,0.7 -1.5,1.3 -2.8,0.2 -3.8,-3.5 -7.8,-6.8 -11.6,-10.2 -1.6,-1.4 -2.4,-2.8 -0.8,-5 1.6,-2.3 2.3,-5.2 2.3,-8.1 0,-2.4 0.8,-3.3 3.2,-2.9 1.5,0.3 3.3,0.2 5,0.3 z" />
      <path
         inkscape:connector-curvature="0"
         id="XMLID_319_"
         fill="#EE5581"
         d="m 563.3,717.5 c -3.5,-0.1 -6.8,-0.6 -10,-2.1 -2.1,-1 -2.1,-2 -1,-3.6 0.7,-1 1.3,-2 2.3,-2.8 4.3,-3.2 8.6,-6.5 12.8,-9.7 0.4,-0.3 1,-0.7 1,-1 -0.3,-4.9 2.7,-2.3 4.4,-1.8 5.4,1.3 10.1,4.4 15,6.8 2.4,1.1 1.1,2.2 0.1,3.3 -6.5,7.3 -14.9,10.6 -24.6,10.9 z" />
      <path
         inkscape:connector-curvature="0"
         id="XMLID_318_"
         fill="#EE5581"
         d="m 529.2,716.9 c -10.8,0.1 -18,-3.7 -23.1,-11.8 -1.1,-1.7 -1,-2.6 0.8,-3.4 4.6,-2.2 9.2,-4.5 13.9,-6.6 1.5,-0.7 3.2,-1.3 2.9,1.6 -0.1,0.5 0.3,1.4 0.7,1.6 6.4,2.9 10.2,9.1 15.7,13 2.7,1.9 1.7,2.9 -1,3.9 -3.7,1.3 -7.5,1.4 -9.9,1.7 z" />
      <path
         inkscape:connector-curvature="0"
         id="XMLID_317_"
         fill="#E66B30"
         d="m 438.2,721.8 c 4,-5.2 7.8,-10.6 12,-15.7 3.1,-3.8 7.4,-3.7 9.4,-0.2 1.7,3 0.1,5.8 -1.9,7.6 -5.4,4.8 -12.2,6.9 -18.9,9.1 -0.2,-0.2 -0.4,-0.5 -0.6,-0.8 z" />
      <path
         inkscape:connector-curvature="0"
         id="XMLID_316_"
         fill="#E66B30"
         d="m 649.5,720.4 c -6.5,-2.4 -13.3,-4.3 -18.7,-9.2 -1,-0.9 -1.5,-2.2 -2.1,-3.4 -1.2,-2.5 0.1,-4.3 1.6,-5.9 1.4,-1.4 3.2,-0.7 4.8,-0.2 2.2,0.7 3.6,2.5 4.9,4.3 3.4,4.5 6.7,9.1 10.1,13.7 -0.1,0.2 -0.4,0.5 -0.6,0.7 z" />
      <path
         inkscape:connector-curvature="0"
         id="XMLID_315_"
         fill="#E66B30"
         d="m 461.9,698.2 c 0.4,-3.6 1,-7.5 4.8,-9.4 2.4,-1.2 5.2,-2.8 7,1.1 0.6,1.4 3.3,1.3 3.1,2.7 -0.3,2 -2.1,3.5 -3.4,5.1 -1.7,2 -3.7,3.6 -6.1,4.5 -3.7,1.4 -5.5,0.1 -5.4,-4 z" />
      <path
         inkscape:connector-curvature="0"
         id="XMLID_314_"
         fill="#E66B30"
         d="m 626.6,696.1 c 0,4.1 -1.6,5.3 -5.5,3.8 -4.2,-1.6 -6.8,-5.1 -9.2,-8.6 -0.3,-0.4 -0.5,-1.2 -0.1,-1.3 2.8,-0.5 3,-4.6 6.1,-4.5 3.4,0 5.8,1.8 7.3,4.6 1,1.8 1.5,3.9 1.4,6 z" />
      <path
         inkscape:connector-curvature="0"
         id="XMLID_313_"
         fill="#E66B30"
         d="m 492,667.6 c 0,-3.5 1,-6.8 3,-9.7 1,-1.4 1.9,-2 3.3,0 1.7,2.5 3.7,4.9 5.8,7.1 1.1,1.2 1.1,1.9 0,3 -2,2 -3.8,4.1 -6.9,4.3 -4.5,0.4 -5.2,-0.3 -5.2,-4.7 z" />
      <path
         inkscape:connector-curvature="0"
         id="XMLID_312_"
         fill="#E66B30"
         d="m 596.5,666 c -0.3,1.3 0.7,3.1 -1.2,3.8 -2.6,1 -5.1,0.4 -7.4,-0.7 -0.6,-0.3 -1.1,-1 -1.6,-1.4 -3.4,-3.1 -3.4,-3.2 -0.1,-6.3 1.8,-1.7 3.5,-3.4 5.2,-5.2 1.1,-1.2 1.9,-1.2 2.7,0.3 1.6,2.9 2.5,6 2.4,9.5 z" />
      <path
         inkscape:connector-curvature="0"
         id="XMLID_311_"
         fill="#FADFC3"
         d="m 490.1,649.2 c -3.9,-0.1 -7,-1.7 -8.4,-5.4 -1.6,-4 -1.7,-8.1 0.5,-12 0.5,-0.9 1.2,-1.5 2.4,-1.4 1.2,0.1 1.1,1.1 1.3,1.9 1.5,5 3.2,10 5.7,14.6 1,1.9 0.4,2.6 -1.5,2.3 z" />
      <path
         inkscape:connector-curvature="0"
         id="XMLID_310_"
         fill="#E66B30"
         d="m 610.6,681.5 c 0.1,2.1 -0.5,3.2 -2.5,3.2 -3.9,0.1 -9.9,-5.1 -9.9,-8.9 0,-2 1.9,-3.3 3.2,-4.6 1.1,-1.1 2.5,0.3 3.4,1.2 2.9,2.6 5.2,5.6 5.8,9.1 z" />
      <path
         inkscape:connector-curvature="0"
         id="XMLID_309_"
         fill="#E66B30"
         d="m 480.5,686.9 c -1.9,0.2 -2.6,-0.9 -2.6,-2.8 0.1,-3 4.7,-9.7 7.6,-10.7 1.6,-0.6 5,3.1 4.7,5 -0.7,3.8 -5.8,8.5 -9.7,8.5 z" />
      <path
         inkscape:connector-curvature="0"
         id="XMLID_308_"
         fill="#FADFC3"
         d="m 597.3,649.4 c 3.7,-5.6 7,-11.1 8.7,-17.4 0.2,-0.9 0.3,-1.7 1.5,-1.6 1.2,0.1 2.1,0.6 2.3,1.9 0.5,3.7 0.7,7.2 -2.2,10.3 -2.9,3.2 -6.3,5.5 -10.3,6.8 z" />
    </g>
  </g>
</svg>
