<?xml version="1.0" encoding="UTF-8" standalone="no"?>
<svg
   xmlns:dc="http://purl.org/dc/elements/1.1/"
   xmlns:cc="http://creativecommons.org/ns#"
   xmlns:rdf="http://www.w3.org/1999/02/22-rdf-syntax-ns#"
   xmlns:svg="http://www.w3.org/2000/svg"
   xmlns="http://www.w3.org/2000/svg"
   xmlns:xlink="http://www.w3.org/1999/xlink"
   xmlns:sodipodi="http://sodipodi.sourceforge.net/DTD/sodipodi-0.dtd"
   xmlns:inkscape="http://www.inkscape.org/namespaces/inkscape"
   inkscape:version="1.0beta1 (32d4812, 2019-09-19)"
   id="svg1408"
   version="1.1"
   viewBox="0 0 238.12499 317.50001"
   height="1200"
   width="900">
  <defs
     id="defs1402">
    <clipPath
       id="SVGID_2_">
      <use
         xlink:href="#SVGID_1_"
         overflow="visible"
         id="use1978"
         x="0"
         y="0"
         width="100%"
         height="100%" />
    </clipPath>
    <circle
       id="SVGID_1_"
       cx="231.7"
       cy="310.29999"
       r="136.5" />
    <clipPath
       id="SVGID_4_">
      <use
         height="100%"
         width="100%"
         y="0"
         x="0"
         id="use2092"
         overflow="visible"
         xlink:href="#SVGID_3_" />
    </clipPath>
    <circle
       r="136.5"
       cy="310.29999"
       cx="543.90002"
       id="SVGID_3_" />
    <clipPath
       id="SVGID_6_">
      <use
         height="100%"
         width="100%"
         y="0"
         x="0"
         id="use2158"
         overflow="visible"
         xlink:href="#SVGID_5_" />
    </clipPath>
    <circle
       r="136.5"
       cy="310.29999"
       cx="856.09998"
       id="SVGID_5_" />
    <clipPath
       id="SVGID_8_">
      <use
         height="100%"
         width="100%"
         y="0"
         x="0"
         id="use2256"
         overflow="visible"
         xlink:href="#SVGID_7_" />
    </clipPath>
    <circle
       r="136.5"
       cy="310.29999"
       cx="1168.3"
       id="SVGID_7_" />
    <clipPath
       id="SVGID_10_">
      <use
         height="100%"
         width="100%"
         y="0"
         x="0"
         id="use2342"
         overflow="visible"
         xlink:href="#SVGID_9_" />
    </clipPath>
    <circle
       r="136.5"
       cy="669.70001"
       cx="231.7"
       id="SVGID_9_" />
    <clipPath
       id="SVGID_12_">
      <use
         height="100%"
         width="100%"
         y="0"
         x="0"
         id="use2418"
         overflow="visible"
         xlink:href="#SVGID_11_" />
    </clipPath>
    <circle
       r="136.5"
       cy="669.70001"
       cx="543.90002"
       id="SVGID_11_" />
    <clipPath
       id="SVGID_14_">
      <use
         height="100%"
         width="100%"
         y="0"
         x="0"
         id="use2556"
         overflow="visible"
         xlink:href="#SVGID_13_" />
    </clipPath>
    <circle
       r="136.5"
       cy="669.70001"
       cx="856.09998"
       id="SVGID_13_" />
    <clipPath
       id="SVGID_16_">
      <use
         height="100%"
         width="100%"
         y="0"
         x="0"
         id="use2684"
         overflow="visible"
         xlink:href="#SVGID_15_" />
    </clipPath>
    <circle
       r="136.5"
       cy="669.70001"
       cx="1168.3"
       id="SVGID_15_" />
  </defs>
  <sodipodi:namedview
     inkscape:window-maximized="0"
     inkscape:window-y="134"
     inkscape:window-x="20"
     inkscape:window-height="907"
     inkscape:window-width="1600"
     units="px"
     showgrid="false"
     inkscape:document-rotation="0"
     inkscape:current-layer="layer1"
     inkscape:document-units="mm"
     inkscape:cy="560"
     inkscape:cx="400"
     inkscape:zoom="0.35"
     inkscape:pageshadow="2"
     inkscape:pageopacity="0.0"
     borderopacity="1.0"
     bordercolor="#666666"
     pagecolor="#ffffff"
     id="base" />
  <metadata
     id="metadata1405">
    <rdf:RDF>
      <cc:Work
         rdf:about="">
        <dc:format>image/svg+xml</dc:format>
        <dc:type
           rdf:resource="http://purl.org/dc/dcmitype/StillImage" />
        <dc:title></dc:title>
      </cc:Work>
    </rdf:RDF>
  </metadata>
  <g
     id="layer1"
     inkscape:groupmode="layer"
     inkscape:label="Layer 1">
    <g
       transform="matrix(1.3229166,0,0,1.3229166,-1408.6156,-289.58643)"
       style="opacity:1;stop-opacity:1"
       id="g7566">
      <path
         inkscape:connector-curvature="0"
         id="path7478"
         d="m 1093.8,392 c 12.3,4 27.5,3.6 34.6,3.6 l 4.8,14.3 -9.9,47.7 h -8.6 l -6.7,-25.9 6.7,-6.3 c 0,0 -10.4,-18.2 -20.9,-33.4 z"
         fill="#A7D599" />
      <path
         inkscape:connector-curvature="0"
         id="path7480"
         d="m 1215.7,392 c -12.3,4 -27.5,3.6 -34.6,3.6 l -4.8,14.3 9.9,47.7 h 8.6 l 6.7,-25.9 -6.7,-6.3 c 0,0 10.4,-18.2 20.9,-33.4 z"
         fill="#A7D599" />
      <path
         inkscape:connector-curvature="0"
         id="path7482"
         d="m 1218.6,419.2 c -11.6,-1.8 -26.9,-6.2 -35.2,-11.7 L 1177,375 h -44.6 l -6.3,32.5 c -8.3,5.5 -23.6,9.9 -35.2,11.7 -9.1,17.7 -20,38.4 -20,38.4 h 167.7 c 0,-0.1 -10.9,-20.7 -20,-38.4 z"
         fill="#FBDC99" />
      <path
         inkscape:connector-curvature="0"
         id="path7484"
         d="M 1182.6,403.3 1177,375 h -44.6 l -2.6,13.3 c 6.6,9.7 21,21.8 52.8,15 z"
         fill="#DBBA79" />
      <path
         inkscape:connector-curvature="0"
         id="path7486"
         d="m 1238.6,458.9 h -167.7 c -0.5,0 -0.9,-0.3 -1.2,-0.7 -0.2,-0.4 -0.3,-0.9 0,-1.3 0.1,-0.2 11,-20.8 20,-38.3 0.2,-0.4 0.6,-0.7 1,-0.7 10.7,-1.7 25.8,-5.8 34.2,-11.2 l 6.2,-31.9 c 0.1,-0.6 0.7,-1.1 1.3,-1.1 h 44.6 c 0.7,0 1.2,0.5 1.3,1.1 l 6.2,31.9 c 8.4,5.3 23.5,9.5 34.2,11.2 0.4,0.1 0.8,0.3 1,0.7 9,17.5 19.9,38.1 20,38.3 0.2,0.4 0.2,0.9 0,1.3 -0.2,0.4 -0.6,0.7 -1.1,0.7 z m -165.5,-2.7 h 163.2 c -2.9,-5.5 -11.4,-21.6 -18.6,-35.8 -11.5,-1.9 -26.6,-6.2 -35.1,-11.8 -0.3,-0.2 -0.5,-0.5 -0.6,-0.9 l -6.1,-31.4 h -42.3 l -6.1,31.4 c -0.1,0.4 -0.3,0.7 -0.6,0.9 -8.5,5.6 -23.6,9.9 -35.1,11.8 -7.3,14.2 -15.8,30.2 -18.7,35.8 z"
         fill="#5E1145" />
      <g
         id="g7540">
        <g
           id="g7500">
          <g
             id="g7492">
            <path
               inkscape:connector-curvature="0"
               id="path7488"
               d="m 1210.2,331 c -1.2,-12.9 -11.6,-8.8 -15.4,-4.9 l -4,29 c 9.5,5.6 20.6,-11.2 19.4,-24.1 z"
               fill="#FBDC99" />
            <path
               inkscape:connector-curvature="0"
               id="path7490"
               d="m 1194.8,357.5 c -1.6,0 -3.2,-0.4 -4.7,-1.3 -0.5,-0.3 -0.7,-0.8 -0.7,-1.4 l 4,-29 c 0,-0.3 0.2,-0.6 0.4,-0.8 2.3,-2.3 7.7,-5.4 12.1,-3.8 2.2,0.8 5,3.1 5.6,9.6 0.9,9.1 -4.2,20.5 -11.1,24.9 -1.8,1.2 -3.7,1.8 -5.6,1.8 z m -2.5,-3.2 c 2.1,0.9 4.4,0.6 6.7,-0.8 6,-3.8 10.6,-14.2 9.8,-22.3 -0.4,-4 -1.7,-6.5 -3.8,-7.2 -2.9,-1.1 -6.9,0.9 -9,2.8 z"
               fill="#5E1145" />
          </g>
          <g
             id="g7498">
            <path
               inkscape:connector-curvature="0"
               id="path7494"
               d="m 1099.3,331 c 1.2,-12.9 11.6,-8.8 15.4,-4.9 l 4,29 c -9.5,5.6 -20.7,-11.2 -19.4,-24.1 z"
               fill="#FBDC99" />
            <path
               inkscape:connector-curvature="0"
               id="path7496"
               d="m 1114.7,357.5 c -1.9,0 -3.8,-0.6 -5.7,-1.8 -6.9,-4.3 -11.9,-15.7 -11.1,-24.9 0.6,-6.4 3.4,-8.7 5.6,-9.6 4.4,-1.6 9.8,1.5 12.1,3.8 0.2,0.2 0.4,0.5 0.4,0.8 l 4,29 c 0.1,0.5 -0.2,1.1 -0.7,1.4 -1.4,0.9 -3,1.3 -4.6,1.3 z m -15.4,-26.5 1.4,0.1 c -0.8,8.1 3.8,18.5 9.8,22.3 2.4,1.5 4.6,1.8 6.7,0.8 l -3.8,-27.6 c -2.1,-1.9 -6,-3.9 -9,-2.8 -2.2,0.8 -3.5,3.2 -3.8,7.2 z"
               fill="#5E1145" />
          </g>
        </g>
        <path
           inkscape:connector-curvature="0"
           id="path7502"
           d="m 1108.2,303.2 9.7,69.5 21.4,20.7 h 30.9 l 21.4,-20.7 9.7,-69.5 c 1.9,-17.1 -11.5,-32 -28.8,-32 h -35.6 c -17.2,0 -30.6,14.9 -28.7,32 z"
           fill="#FBDC99" />
        <path
           inkscape:connector-curvature="0"
           id="path7504"
           d="m 1170.2,394.8 h -30.9 c -0.4,0 -0.7,-0.1 -0.9,-0.4 L 1117,373.7 c -0.2,-0.2 -0.4,-0.5 -0.4,-0.8 l -9.7,-69.5 c 0,0 0,0 0,0 -0.9,-8.5 1.8,-17.1 7.6,-23.5 5.7,-6.4 14,-10.1 22.5,-10.1 h 35.6 c 8.6,0 16.8,3.7 22.5,10.1 5.7,6.4 8.5,15 7.6,23.5 0,0 0,0 0,0 l -9.7,69.5 c 0,0.3 -0.2,0.6 -0.4,0.8 l -21.4,20.7 c -0.3,0.3 -0.7,0.4 -1,0.4 z m -30.4,-2.7 h 29.8 l 20.7,-20 9.6,-69 c 0.8,-7.8 -1.7,-15.5 -6.9,-21.4 -5.2,-5.8 -12.7,-9.2 -20.5,-9.2 h -35.6 c -7.8,0 -15.3,3.3 -20.5,9.2 -5.2,5.8 -7.7,13.6 -6.9,21.4 l 9.6,69 z"
           fill="#5E1145" />
        <path
           inkscape:connector-curvature="0"
           id="path7506"
           d="m 1160.2,369.2 h -15.9 c -0.8,0 -1.4,-0.6 -1.4,-1.4 0,-0.8 0.6,-1.4 1.4,-1.4 h 15.9 c 1.8,0 5.5,-2 7.4,-3.3 0.6,-0.4 1.5,-0.2 1.9,0.4 0.4,0.6 0.2,1.5 -0.4,1.9 -0.6,0.4 -5.7,3.8 -8.9,3.8 z"
           fill="#5E1145" />
        <g
           id="g7510">
          <path
             inkscape:connector-curvature="0"
             id="path7508"
             d="m 1154.7,353.5 c -3.1,0 -6,-1.9 -7.2,-4.8 l -0.2,-0.4 h -2 c -0.8,0 -1.4,-0.6 -1.4,-1.4 0,-0.8 0.6,-1.4 1.4,-1.4 h 2.9 c 0.5,0 1,0.3 1.3,0.8 l 0.5,1.2 c 0.8,1.9 2.7,3.1 4.7,3.1 2,0 3.9,-1.2 4.7,-3.1 l 0.5,-1.2 c 0.2,-0.5 0.7,-0.8 1.3,-0.8 h 2.9 c 0.8,0 1.4,0.6 1.4,1.4 0,0.8 -0.6,1.4 -1.4,1.4 h -2 l -0.2,0.4 c -1.2,3 -4,4.8 -7.2,4.8 z"
             fill="#5E1145" />
        </g>
        <g
           id="g7522">
          <g
             id="g7516">
            <circle
               id="circle7512"
               r="6"
               cy="326.10001"
               cx="1177.8"
               fill="#5E1145" />
            <path
               inkscape:connector-curvature="0"
               id="path7514"
               d="m 1169.7,324.6 c -0.4,0 -0.8,-0.2 -1.1,-0.5 -0.5,-0.6 -0.4,-1.5 0.2,-1.9 5.3,-4.1 10.9,-3.6 17.7,-1.5 0.7,0.2 1.1,1 0.9,1.7 -0.2,0.7 -1,1.1 -1.7,0.9 -7.3,-2.3 -11.3,-2 -15.2,1 -0.2,0.2 -0.5,0.3 -0.8,0.3 z"
               fill="#5E1145" />
          </g>
          <path
             inkscape:connector-curvature="0"
             id="path7518"
             d="m 1163.7,312.2 2.3,4.6 c 0,0 17,-7.7 25.7,-1.1 4.5,3.4 3.5,-2 1,-4.4 -2.9,-2.8 -14.3,-8.1 -29,0.9 z"
             fill="#696167" />
          <path
             inkscape:connector-curvature="0"
             id="path7520"
             d="m 1166,318.2 c -0.5,0 -1,-0.3 -1.2,-0.8 l -2.3,-4.6 c -0.3,-0.6 -0.1,-1.4 0.5,-1.8 8.3,-5.1 15.4,-5.6 19.8,-5.1 5.4,0.6 9.2,2.7 10.9,4.4 1.8,1.8 3.4,5.4 1.9,7.1 -0.7,0.8 -2.1,1.3 -4.7,-0.6 -7.9,-6 -24.1,1.2 -24.3,1.3 -0.2,0.1 -0.4,0.1 -0.6,0.1 z m 16.3,-6.5 c 3.7,0 7.3,0.8 10.2,2.9 0.4,0.3 0.7,0.5 0.9,0.6 -0.2,-0.8 -0.7,-2 -1.6,-3 -2,-2 -12.2,-7.5 -26.3,0.5 l 1.2,2.4 c 2.6,-1.1 9.1,-3.4 15.6,-3.4 z"
             fill="#5E1145" />
        </g>
        <g
           id="g7534">
          <g
             id="g7528">
            <circle
               id="circle7524"
               r="6"
               cy="326.10001"
               cx="1131.7"
               fill="#5E1145" />
            <path
               inkscape:connector-curvature="0"
               id="path7526"
               d="m 1139.8,324.6 c -0.3,0 -0.6,-0.1 -0.8,-0.3 -3.9,-3 -7.9,-3.3 -15.2,-1 -0.7,0.2 -1.5,-0.2 -1.7,-0.9 -0.2,-0.7 0.2,-1.5 0.9,-1.7 6.8,-2.1 12.4,-2.6 17.7,1.5 0.6,0.5 0.7,1.3 0.2,1.9 -0.3,0.3 -0.7,0.5 -1.1,0.5 z"
               fill="#5E1145" />
          </g>
          <path
             inkscape:connector-curvature="0"
             id="path7530"
             d="m 1145.8,312.2 -2.3,4.6 c 0,0 -17,-7.7 -25.7,-1.1 -4.5,3.4 -3.5,-2 -1,-4.4 2.8,-2.8 14.3,-8.1 29,0.9 z"
             fill="#696167" />
          <path
             inkscape:connector-curvature="0"
             id="path7532"
             d="m 1143.5,318.2 c -0.2,0 -0.4,0 -0.6,-0.1 -0.2,-0.1 -16.4,-7.3 -24.3,-1.3 -2.6,2 -4,1.4 -4.7,0.6 -1.5,-1.7 0.1,-5.4 1.9,-7.1 1.7,-1.7 5.5,-3.8 10.9,-4.4 4.5,-0.5 11.5,0 19.8,5.1 0.6,0.4 0.8,1.1 0.5,1.8 l -2.3,4.6 c -0.2,0.5 -0.7,0.8 -1.2,0.8 z m -14,-9.7 c -6.3,0 -10.5,2.5 -11.7,3.7 -0.9,0.9 -1.5,2.2 -1.6,3 0.2,-0.1 0.5,-0.3 0.9,-0.6 7.9,-6 21.7,-1.2 25.8,0.4 l 1.2,-2.4 c -5.6,-3 -10.5,-4.1 -14.6,-4.1 z"
             fill="#5E1145" />
        </g>
        <path
           inkscape:connector-curvature="0"
           id="path7536"
           d="m 1194.8,304.7 c 0,0 4,16.5 0.8,39.6 10.2,-15.3 22.9,-56.1 5.9,-83.2 -15.1,-24.2 -63.8,-28.5 -89.8,-9.7 -22.4,0.3 -14.2,48.5 -10.6,63.6 2.6,11.3 13.5,34.6 13.5,34.6 0,0 -4.4,-31.4 -3.5,-39.4 8.2,-6.4 11.2,-25.2 11.2,-29.7 0,0 9.7,17 27.3,22.2 -5.8,-5.5 -13.3,-15.8 -13.3,-15.8 0,0 21.8,13.9 44.3,18.8 -4.9,-5.8 -5.8,-12.3 -5.8,-12.3 z"
           fill="#696167" />
        <path
           inkscape:connector-curvature="0"
           id="path7538"
           d="m 1114.6,351 c -0.5,0 -1,-0.3 -1.2,-0.8 -0.4,-1 -11,-23.6 -13.6,-34.8 -1.1,-4.6 -10.2,-45.4 1.2,-60 2.6,-3.3 6.1,-5.1 10.3,-5.3 7.2,-5.1 16.4,-8.8 26.7,-10.5 9.9,-1.7 20.4,-1.6 30.2,0.3 15.9,3.1 28.1,10.4 34.4,20.5 9.7,15.4 9.4,34.1 7.5,47 -2.5,16.9 -8.8,30.9 -13.4,37.7 -0.4,0.5 -1,0.7 -1.6,0.5 -0.6,-0.2 -1,-0.8 -0.9,-1.5 2.8,-20.2 0,-35.4 -0.7,-38.5 l -16.7,-9.6 c 0.7,2.3 2.1,5.6 4.7,8.7 0.4,0.4 0.4,1.1 0.1,1.6 -0.3,0.5 -0.9,0.8 -1.5,0.6 -15.3,-3.3 -30.5,-10.9 -38.6,-15.4 2.6,3.3 6,7.3 8.9,10.1 0.5,0.4 0.6,1.1 0.2,1.7 -0.3,0.5 -1,0.8 -1.6,0.6 -13.2,-3.9 -22,-14.1 -25.9,-19.4 -1,7.3 -4.1,20.6 -10.9,26.4 -0.6,8.6 3.5,38.2 3.6,38.5 0.1,0.7 -0.3,1.3 -1,1.5 0.1,0 0,0.1 -0.2,0.1 z m 37.6,-109.9 c -15,0 -29.6,4.1 -39.8,11.4 -0.2,0.2 -0.5,0.3 -0.8,0.3 -3.6,0 -6.4,1.4 -8.6,4.2 -8.7,11.1 -4.5,41.5 -0.7,57.7 1.6,6.8 6.3,18.1 9.7,25.9 -1.2,-10 -2.9,-25.2 -2.4,-30.5 0,-0.4 0.2,-0.7 0.5,-0.9 7.5,-5.8 10.7,-23.8 10.7,-28.7 0,-0.6 0.4,-1.2 1,-1.3 0.6,-0.2 1.2,0.1 1.5,0.6 0.1,0.1 7.6,13 20.9,19.4 -4.6,-5.2 -9,-11.2 -9.3,-11.5 -0.4,-0.5 -0.3,-1.3 0.1,-1.7 0.4,-0.5 1.2,-0.6 1.7,-0.2 0.2,0.1 19.6,12.4 40.3,17.8 -3.1,-5 -3.8,-9.7 -3.9,-10 -0.1,-0.5 0.2,-1 0.6,-1.3 0.4,-0.3 1,-0.3 1.4,-0.1 l 20,11.4 c 0.3,0.2 0.6,0.5 0.6,0.9 0.2,0.6 3.3,14 1.6,33.6 3.8,-7.4 7.8,-18.4 9.7,-31 1.9,-12.5 2.1,-30.4 -7.1,-45.1 -5.9,-9.5 -17.5,-16.3 -32.6,-19.3 -4.7,-1.2 -9.9,-1.6 -15.1,-1.6 z"
           fill="#5E1145" />
      </g>
      <path
         inkscape:connector-curvature="0"
         id="path7542"
         d="m 1218.6,419.2 c -9.9,-1.5 -22.4,-5 -31.1,-9.3 -5.7,4.9 -18.3,8.4 -32.8,8.4 -14.5,0 -27.1,-3.4 -32.8,-8.4 -8.6,4.3 -21.2,7.8 -31.1,9.3 -9.1,17.7 -20,38.4 -20,38.4 h 167.7 c 0.1,-0.1 -10.8,-20.7 -19.9,-38.4 z"
         fill="#F2EBEA" />
      <g
         id="g7548">
        <path
           inkscape:connector-curvature="0"
           id="path7544"
           d="m 1118.2,411.6 c -8.3,3.5 -18.8,6.3 -27.3,7.6 -9.1,17.7 -20,38.4 -20,38.4 h 47.3 z"
           fill="#86C879" />
        <path
           inkscape:connector-curvature="0"
           id="path7546"
           d="m 1191.3,457.5 h 47.3 c 0,0 -10.9,-20.6 -20,-38.4 -8.5,-1.3 -19.1,-4.1 -27.3,-7.6 z"
           fill="#86C879" />
      </g>
      <path
         inkscape:connector-curvature="0"
         id="path7550"
         d="m 1238.6,458.9 h -167.7 c -0.5,0 -0.9,-0.3 -1.2,-0.7 -0.2,-0.4 -0.3,-0.9 0,-1.3 0.1,-0.2 11,-20.8 20,-38.3 0.2,-0.4 0.6,-0.7 1,-0.7 10.9,-1.7 23,-5.3 30.7,-9.2 0.5,-0.2 1.1,-0.2 1.5,0.2 5.6,4.9 18.2,8 31.9,8 13.7,0 26.3,-3.2 31.9,-8 0.4,-0.4 1,-0.4 1.5,-0.2 7.7,3.9 19.7,7.5 30.7,9.2 0.4,0.1 0.8,0.3 1,0.7 9,17.5 19.9,38.1 20,38.3 0.2,0.4 0.2,0.9 0,1.3 -0.4,0.4 -0.8,0.7 -1.3,0.7 z m -165.5,-2.7 h 163.2 c -2.9,-5.5 -11.4,-21.6 -18.6,-35.8 -10.6,-1.7 -22.2,-5.2 -30,-8.9 -6.4,5 -18.9,8.1 -33,8.1 -14.1,0 -26.5,-3.1 -33,-8.1 -7.8,3.8 -19.4,7.2 -30,8.9 -7.2,14.2 -15.7,30.2 -18.6,35.8 z"
         fill="#5E1145" />
      <g
         id="g7556">
        <path
           inkscape:connector-curvature="0"
           id="path7552"
           d="m 1217.3,458.9 c -0.8,0 -1.4,-0.6 -1.4,-1.4 v -19.6 c 0,-0.8 0.6,-1.4 1.4,-1.4 0.8,0 1.4,0.6 1.4,1.4 v 19.6 c 0,0.8 -0.7,1.4 -1.4,1.4 z"
           fill="#5E1145" />
        <path
           inkscape:connector-curvature="0"
           id="path7554"
           d="m 1092.2,458.9 c -0.8,0 -1.4,-0.6 -1.4,-1.4 v -19.6 c 0,-0.8 0.6,-1.4 1.4,-1.4 0.8,0 1.4,0.6 1.4,1.4 v 19.6 c -0.1,0.8 -0.7,1.4 -1.4,1.4 z"
           fill="#5E1145" />
      </g>
      <path
         inkscape:connector-curvature="0"
         id="path7558"
         d="m 1205.1,408.2 h -18.9 v 49.3 h 8.6 l 6.7,-25.9 -6.7,-6.3 c 0,0.1 4.3,-7.6 10.3,-17.1 z"
         fill="#A7D599" />
      <path
         inkscape:connector-curvature="0"
         id="path7560"
         d="m 1194.8,458.9 h -8.6 c -0.8,0 -1.4,-0.6 -1.4,-1.4 v -53.2 c 0,-0.8 0.6,-1.4 1.4,-1.4 0.8,0 1.4,0.6 1.4,1.4 v 51.8 h 6.2 l 6.2,-24.1 -6.1,-5.7 c -0.5,-0.4 -0.6,-1.1 -0.3,-1.7 0.1,-0.2 9.2,-16 18.8,-30.3 -10.6,2.7 -22.6,2.6 -29.3,2.6 -0.7,0 -1.4,0 -2.1,0 -0.8,0 -1.4,-0.6 -1.4,-1.4 0,-0.8 0.6,-1.4 1.4,-1.4 0.6,0 1.3,0 2.1,0 7.9,0 21.1,0.1 32.1,-3.5 0.6,-0.2 1.2,0 1.5,0.5 0.4,0.5 0.4,1.1 0,1.6 -9,13 -18,28.4 -20.3,32.3 l 5.9,5.5 c 0.4,0.3 0.5,0.9 0.4,1.3 l -6.7,25.9 c -0.1,0.8 -0.6,1.2 -1.2,1.2 z"
         fill="#5E1145" />
      <path
         inkscape:connector-curvature="0"
         id="path7562"
         d="m 1104.4,408.2 h 18.9 v 49.3 h -8.6 l -6.7,-25.9 6.7,-6.3 c 0,0.1 -4.4,-7.6 -10.3,-17.1 z"
         fill="#A7D599" />
      <path
         inkscape:connector-curvature="0"
         id="path7564"
         d="m 1123.3,458.9 h -8.6 c -0.6,0 -1.2,-0.4 -1.3,-1 l -6.7,-25.9 c -0.1,-0.5 0,-1 0.4,-1.3 l 5.9,-5.5 c -2.3,-3.9 -11.3,-19.3 -20.3,-32.3 -0.3,-0.5 -0.3,-1.1 0,-1.6 0.4,-0.5 1,-0.7 1.5,-0.5 11,3.6 24.2,3.5 32.1,3.5 0.7,0 1.4,0 2.1,0 0.8,0 1.4,0.6 1.4,1.4 0,0.8 -0.6,1.4 -1.4,1.4 -0.6,0 -1.3,0 -2.1,0 -6.7,0 -18.7,0.1 -29.3,-2.6 9.7,14.3 18.7,30.1 18.8,30.3 0.3,0.5 0.2,1.2 -0.3,1.7 l -6.1,5.7 6.2,24.1 h 6.2 v -51.8 c 0,-0.8 0.6,-1.4 1.4,-1.4 0.8,0 1.4,0.6 1.4,1.4 v 53.2 c 0.1,0.6 -0.5,1.2 -1.3,1.2 z"
         fill="#5E1145" />
    </g>
  </g>
</svg>
