<?xml version="1.0" encoding="UTF-8" standalone="no"?>
<svg
   xmlns:dc="http://purl.org/dc/elements/1.1/"
   xmlns:cc="http://creativecommons.org/ns#"
   xmlns:rdf="http://www.w3.org/1999/02/22-rdf-syntax-ns#"
   xmlns:svg="http://www.w3.org/2000/svg"
   xmlns="http://www.w3.org/2000/svg"
   xmlns:xlink="http://www.w3.org/1999/xlink"
   xmlns:sodipodi="http://sodipodi.sourceforge.net/DTD/sodipodi-0.dtd"
   xmlns:inkscape="http://www.inkscape.org/namespaces/inkscape"
   inkscape:version="1.0beta1 (32d4812, 2019-09-19)"
   id="svg1408"
   version="1.1"
   viewBox="0 0 238.12499 317.50001"
   height="1200"
   width="900">
  <defs
     id="defs1402">
    <clipPath
       id="SVGID_2_">
      <use
         xlink:href="#SVGID_1_"
         overflow="visible"
         id="use1978"
         x="0"
         y="0"
         width="100%"
         height="100%" />
    </clipPath>
    <circle
       id="SVGID_1_"
       cx="231.7"
       cy="310.29999"
       r="136.5" />
    <clipPath
       id="SVGID_4_">
      <use
         height="100%"
         width="100%"
         y="0"
         x="0"
         id="use2092"
         overflow="visible"
         xlink:href="#SVGID_3_" />
    </clipPath>
    <circle
       r="136.5"
       cy="310.29999"
       cx="543.90002"
       id="SVGID_3_" />
    <clipPath
       id="SVGID_6_">
      <use
         height="100%"
         width="100%"
         y="0"
         x="0"
         id="use2158"
         overflow="visible"
         xlink:href="#SVGID_5_" />
    </clipPath>
    <circle
       r="136.5"
       cy="310.29999"
       cx="856.09998"
       id="SVGID_5_" />
    <clipPath
       id="SVGID_8_">
      <use
         height="100%"
         width="100%"
         y="0"
         x="0"
         id="use2256"
         overflow="visible"
         xlink:href="#SVGID_7_" />
    </clipPath>
    <circle
       r="136.5"
       cy="310.29999"
       cx="1168.3"
       id="SVGID_7_" />
    <clipPath
       id="SVGID_10_">
      <use
         height="100%"
         width="100%"
         y="0"
         x="0"
         id="use2342"
         overflow="visible"
         xlink:href="#SVGID_9_" />
    </clipPath>
    <circle
       r="136.5"
       cy="669.70001"
       cx="231.7"
       id="SVGID_9_" />
    <clipPath
       id="SVGID_12_">
      <use
         height="100%"
         width="100%"
         y="0"
         x="0"
         id="use2418"
         overflow="visible"
         xlink:href="#SVGID_11_" />
    </clipPath>
    <circle
       r="136.5"
       cy="669.70001"
       cx="543.90002"
       id="SVGID_11_" />
    <clipPath
       id="SVGID_14_">
      <use
         height="100%"
         width="100%"
         y="0"
         x="0"
         id="use2556"
         overflow="visible"
         xlink:href="#SVGID_13_" />
    </clipPath>
    <circle
       r="136.5"
       cy="669.70001"
       cx="856.09998"
       id="SVGID_13_" />
    <clipPath
       id="SVGID_16_">
      <use
         height="100%"
         width="100%"
         y="0"
         x="0"
         id="use2684"
         overflow="visible"
         xlink:href="#SVGID_15_" />
    </clipPath>
    <circle
       r="136.5"
       cy="669.70001"
       cx="1168.3"
       id="SVGID_15_" />
  </defs>
  <sodipodi:namedview
     inkscape:window-maximized="0"
     inkscape:window-y="134"
     inkscape:window-x="20"
     inkscape:window-height="907"
     inkscape:window-width="1600"
     units="px"
     showgrid="false"
     inkscape:document-rotation="0"
     inkscape:current-layer="layer1"
     inkscape:document-units="mm"
     inkscape:cy="560"
     inkscape:cx="400"
     inkscape:zoom="0.35"
     inkscape:pageshadow="2"
     inkscape:pageopacity="0.0"
     borderopacity="1.0"
     bordercolor="#666666"
     pagecolor="#ffffff"
     id="base" />
  <metadata
     id="metadata1405">
    <rdf:RDF>
      <cc:Work
         rdf:about="">
        <dc:format>image/svg+xml</dc:format>
        <dc:type
           rdf:resource="http://purl.org/dc/dcmitype/StillImage" />
        <dc:title></dc:title>
      </cc:Work>
    </rdf:RDF>
  </metadata>
  <g
     id="layer1"
     inkscape:groupmode="layer"
     inkscape:label="Layer 1">
    <g
       transform="matrix(1.2567708,0,0,1.2567708,-1349.4113,-694.32617)"
       style="opacity:1;stop-opacity:1"
       id="g2875">
      <defs
         id="defs2682">
        <circle
           r="136.5"
           cy="669.70001"
           cx="1168.3"
           id="circle6371" />
      </defs>
      <clipPath
         id="clipPath6166">
        <use
           height="100%"
           width="100%"
           y="0"
           x="0"
           id="use6164"
           overflow="visible"
           xlink:href="#SVGID_15_" />
      </clipPath>
      <g
         id="g2873"
         clip-path="url(#SVGID_16_)">
        <g
           id="g2689">
          <path
             inkscape:connector-curvature="0"
             id="path2687"
             d="m 1237.5,758.6 c -13.1,-15.3 -48.7,-19.6 -67.4,-20.1 v 0 c -0.5,0 -1.2,0 -1.7,0 -0.6,0 -1.2,0 -1.7,0 v 0 c -18.8,0.5 -54.3,4.8 -67.4,20.1 -14,16.3 -14,46.5 -14,46.5 h 166.3 c -0.1,0 -0.1,-30.2 -14.1,-46.5 z"
             fill="#54ACD2" />
        </g>
        <g
           id="g2693">
          <polygon
             id="polygon2691"
             points="1170.1,729.7 1170.1,758.8 1166.5,755.2 1163.1,755.2 1154.3,746.4 1154.3,738.8 1152.3,740.8 1144.1,750.6 1145.5,738.6 1152.4,729.7 "
             fill="#547BB2" />
        </g>
        <g
           id="g2697">
          <polygon
             id="polygon2695"
             points="1167.2,729.7 1167.2,758.8 1170.8,755.2 1174.1,755.2 1182.9,746.4 1182.9,738.8 1184.9,740.8 1193.1,750.6 1191.8,738.6 1184.8,729.7 "
             fill="#547BB2" />
        </g>
        <g
           id="g2701">
          <path
             inkscape:connector-curvature="0"
             id="path2699"
             d="m 1179.1,746 c 0,0 -3.7,11.1 -10.4,11.1 -6.8,0 -11.1,-11.1 -11.1,-11.1 v -18.4 h 21.5 z"
             fill="#FBB36B" />
        </g>
        <g
           id="g2705">
          <path
             inkscape:connector-curvature="0"
             id="path2703"
             d="m 1157.7,649.6 c 0,18.8 -15.3,34.1 -34.1,34.1 -18.8,0 -34.1,-15.3 -34.1,-34.1 0,-18.8 15.3,-34.1 34.1,-34.1 18.8,0 34.1,15.3 34.1,34.1 z"
             fill="#3C362D" />
        </g>
        <g
           id="g2709">
          <path
             inkscape:connector-curvature="0"
             id="path2707"
             d="m 1170.5,617.8 c 0,18.8 -15.3,34.1 -34.1,34.1 -18.8,0 -34.1,-15.3 -34.1,-34.1 0,-18.8 15.3,-34.1 34.1,-34.1 18.8,0 34.1,15.3 34.1,34.1 z"
             fill="#3C362D" />
        </g>
        <g
           id="g2713">
          <path
             inkscape:connector-curvature="0"
             id="path2711"
             d="m 1196.4,593.8 c 0,18.8 -15.3,34.1 -34.1,34.1 -18.8,0 -34.1,-15.3 -34.1,-34.1 0,-18.8 15.3,-34.1 34.1,-34.1 18.9,0 34.1,15.3 34.1,34.1 z"
             fill="#3C362D" />
        </g>
        <g
           id="g2717">
          <path
             inkscape:connector-curvature="0"
             id="path2715"
             d="m 1229.4,608.1 c 0,18.8 -15.3,34.1 -34.1,34.1 -18.8,0 -34.1,-15.3 -34.1,-34.1 0,-18.8 15.3,-34.1 34.1,-34.1 18.8,0 34.1,15.3 34.1,34.1 z"
             fill="#3C362D" />
        </g>
        <g
           id="g2721">
          <path
             inkscape:connector-curvature="0"
             id="path2719"
             d="m 1240.6,642.2 c 0,18.8 -15.3,34.1 -34.1,34.1 -18.8,0 -34.1,-15.3 -34.1,-34.1 0,-18.8 15.3,-34.1 34.1,-34.1 18.8,0 34.1,15.3 34.1,34.1 z"
             fill="#3C362D" />
        </g>
        <g
           id="g2725">
          <path
             inkscape:connector-curvature="0"
             id="path2723"
             d="m 1236,679.6 c 0,17.6 -14.3,32 -32,32 -17.7,0 -32,-14.3 -32,-32 0,-17.6 14.3,-32 32,-32 17.6,0 32,14.4 32,32 z"
             fill="#3C362D" />
        </g>
        <g
           id="g2729">
          <path
             inkscape:connector-curvature="0"
             id="path2727"
             d="m 1167,679.6 c 0,17.6 -14.3,32 -32,32 -17.7,0 -32,-14.3 -32,-32 0,-17.6 14.3,-32 32,-32 17.7,0 32,14.4 32,32 z"
             fill="#3C362D" />
        </g>
        <g
           id="g2775">
          <g
             id="g2733">
            <path
               inkscape:connector-curvature="0"
               id="path2731"
               d="m 1140.1,691.2 c 0,6.1 -5,11.1 -11.1,11.1 v 0 c -6.1,0 -11.1,-5 -11.1,-11.1 v -9.8 c 0,-6.1 5,-11.1 11.1,-11.1 v 0 c 6.1,0 11.1,5 11.1,11.1 z"
               fill="#FBB36B" />
          </g>
          <g
             id="g2737">
            <path
               inkscape:connector-curvature="0"
               id="path2735"
               d="m 1196.6,691.2 c 0,6.1 5,11.1 11.1,11.1 v 0 c 6.1,0 11.1,-5 11.1,-11.1 v -9.8 c 0,-6.1 -5,-11.1 -11.1,-11.1 v 0 c -6.1,0 -11.1,5 -11.1,11.1 z"
               fill="#FBB36B" />
          </g>
          <g
             id="g2741">
            <path
               inkscape:connector-curvature="0"
               id="path2739"
               d="m 1207.1,636 h -0.1 c -1.4,-33.1 -38.6,-31.2 -38.6,-31.2 0,0 -37.2,-1.9 -38.6,31.2 h -0.1 c 0,0 0,0.6 0,1.7 0,0 0,0 0,0 0,35 0,65.1 0,65.1 h 0.1 c 1.4,33.1 38.6,31.2 38.6,31.2 0,0 37.2,1.9 38.6,-31.2 h 0.1 c 0,0 0,-0.6 0,-1.7 0,0 0,0 0,0 0,-35 0,-65.1 0,-65.1 z"
               fill="#FECE8B" />
          </g>
          <g
             id="g2745">
            <path
               inkscape:connector-curvature="0"
               id="path2743"
               d="m 1206.9,635.9 c -1.4,-33.1 -38.6,-31.2 -38.6,-31.2 0,0 -1,0 -2.5,0 8.3,0.3 34.9,3.3 36.1,31.2 h 0.1 c 0,0 0,30.1 0,65.1 0,0 0,0 0,0 0,1.1 0,1.7 0,1.7 h -0.1 c -1.2,27.9 -27.8,30.9 -36.1,31.2 1.5,0 2.5,0 2.5,0 0,0 37.2,1.9 38.6,-31.2 h 0.1 c 0,0 0,-0.6 0,-1.7 0,0 0,0 0,0 0,-35 0,-65.1 0,-65.1 z"
               fill="#FBB36B" />
          </g>
          <g
             id="g2749">
            <path
               inkscape:connector-curvature="0"
               id="path2747"
               d="m 1177.4,702 c 0,0 -4.7,-5.2 -8,-5.2 -3.4,0 -7.8,4.6 -7.8,4.6 0,0 2.8,5.4 8,5.4 5.2,0.1 7.8,-4.8 7.8,-4.8 z"
               fill="#FBB36B" />
          </g>
          <g
             id="g2753">
            <path
               inkscape:connector-curvature="0"
               id="path2751"
               d="m 1186.9,674 c 0,2.6 -0.9,4.8 -2.1,4.8 -1.1,0 -2.1,-2.1 -2.1,-4.8 0,-2.6 0.9,-4.8 2.1,-4.8 1.2,0 2.1,2.1 2.1,4.8 z"
               fill="#3C362D" />
          </g>
          <g
             id="g2757">
            <path
               inkscape:connector-curvature="0"
               id="path2755"
               d="m 1154.9,674 c 0,2.6 -0.9,4.8 -2.1,4.8 -1.1,0 -2.1,-2.1 -2.1,-4.8 0,-2.6 0.9,-4.8 2.1,-4.8 1.2,0 2.1,2.1 2.1,4.8 z"
               fill="#3C362D" />
          </g>
          <g
             id="g2761">
            <path
               inkscape:connector-curvature="0"
               id="path2759"
               d="m 1152.2,715.6 c -0.2,-0.4 -0.1,-0.8 0.3,-1.1 v 0 c 0.4,-0.2 0.8,-0.1 1.1,0.3 v 0 c 0.1,0 4.1,6.8 16.1,6.9 v 0 c 12,0 16.6,-8.1 16.6,-8.1 v 0 c 0.2,-0.4 0.7,-0.5 1.1,-0.3 v 0 c 0.4,0.2 0.5,0.7 0.3,1 v 0 c -0.1,0.1 -5.2,8.9 -18,8.9 v 0 c -12.8,0 -17.5,-7.5 -17.5,-7.6 z"
               fill="#3C362D" />
          </g>
          <g
             id="g2765">
            <path
               inkscape:connector-curvature="0"
               id="path2763"
               d="m 1156.2,610.1 c 0.9,1.2 -2.4,5.4 -7.5,9.4 -5.1,4 -10,6.4 -10.9,5.2 -0.9,-1.2 2.4,-5.4 7.5,-9.4 5.1,-4.1 10,-6.4 10.9,-5.2 z"
               fill="#FFE4A6" />
          </g>
          <g
             id="g2769">
            <path
               inkscape:connector-curvature="0"
               id="path2767"
               d="m 1161.1,662.8 c 0,0 -0.9,-0.7 -2.2,-1.3 v 0 c -1.3,-0.7 -3.1,-1.3 -4.8,-1.3 v 0 c -3.7,0 -9.6,1.7 -9.6,1.8 v 0 0 c -0.4,0.1 -0.9,-0.1 -1,-0.5 v 0 c -0.1,-0.4 0.1,-0.8 0.5,-1 v 0 c 0,0 6,-1.8 10,-1.8 v 0 c 4.2,0 7.9,3 8,3 v 0 c 0.3,0.3 0.4,0.7 0.1,1.1 v 0 c -0.2,0.2 -0.4,0.3 -0.6,0.3 v 0 c -0.1,-0.1 -0.2,-0.2 -0.4,-0.3 z"
               fill="#3C362D" />
          </g>
          <g
             id="g2773">
            <path
               inkscape:connector-curvature="0"
               id="path2771"
               d="m 1176.2,662.7 c -0.3,-0.3 -0.2,-0.8 0.1,-1.1 v 0 c 0.1,0 3.7,-3 8,-3 v 0 c 4.1,0 10,1.8 10,1.8 v 0 c 0.4,0.1 0.6,0.6 0.5,1 v 0 c -0.1,0.4 -0.6,0.6 -1,0.5 v 0 c 0,0 -5.9,-1.8 -9.6,-1.8 v 0 c -3.5,0 -7,2.7 -7,2.7 v 0 c -0.1,0.1 -0.3,0.2 -0.5,0.2 v 0 c -0.1,0 -0.3,-0.1 -0.5,-0.3 z"
               fill="#3C362D" />
          </g>
        </g>
        <g
           id="g2779">
          <path
             inkscape:connector-curvature="0"
             id="path2777"
             d="m 1128,651.9 c 0,0 4.1,-20.7 22,-26.6 17.8,-5.9 30,-5.9 39.8,0.3 9.8,6.2 19.9,30.5 20.4,34.4 0.5,3.9 3.9,-30 -4.9,-46 -8.8,-16 -27.1,-23.3 -48.1,-15.5 -20.9,7.7 -22,6.5 -24.8,11.4 -2.9,4.8 -7.8,24.9 -4.4,42 z"
             fill="#3C362D" />
        </g>
        <g
           id="g2783">
          <path
             inkscape:connector-curvature="0"
             id="path2781"
             d="m 1107,805.1 h 8 v -40 c 0,0 -8,32.6 -8,38.2 0,0.6 0,1.2 0,1.8 z m 114.7,-40 v 40 h 8 c 0,-0.6 0,-1.1 0,-1.8 0,-5.7 -8,-38.2 -8,-38.2 z"
             fill="#4792B6" />
        </g>
        <g
           id="g2787">
          <path
             inkscape:connector-curvature="0"
             id="path2785"
             d="m 1139.1,643.2 c 0,4.3 -3.5,7.9 -7.9,7.9 -4.4,0 -7.9,-3.5 -7.9,-7.9 0,-4.4 3.5,-7.9 7.9,-7.9 4.4,0.1 7.9,3.6 7.9,7.9 z"
             fill="#3C362D" />
        </g>
        <g
           id="g2791">
          <path
             inkscape:connector-curvature="0"
             id="path2789"
             d="m 1144.8,634.8 c 0,3.7 -3,6.7 -6.7,6.7 -3.7,0 -6.7,-3 -6.7,-6.7 0,-3.7 3,-6.7 6.7,-6.7 3.7,0 6.7,3 6.7,6.7 z"
             fill="#3C362D" />
        </g>
        <g
           id="g2795">
          <path
             inkscape:connector-curvature="0"
             id="path2793"
             d="m 1148.1,626.3 c 0,2.6 -2.1,4.6 -4.6,4.6 -2.6,0 -4.7,-2.1 -4.7,-4.6 0,-2.6 2.1,-4.7 4.7,-4.7 2.5,0.1 4.6,2.2 4.6,4.7 z"
             fill="#3C362D" />
        </g>
        <g
           id="g2799">
          <path
             inkscape:connector-curvature="0"
             id="path2797"
             d="m 1153.5,620.1 c 0,2.1 -1.7,3.9 -3.9,3.9 -2.1,0 -3.9,-1.7 -3.9,-3.9 0,-2.1 1.7,-3.9 3.9,-3.9 2.2,0 3.9,1.8 3.9,3.9 z"
             fill="#3C362D" />
        </g>
        <g
           id="g2803">
          <path
             inkscape:connector-curvature="0"
             id="path2801"
             d="m 1153.8,625.3 c 0,2.1 -1.7,3.9 -3.9,3.9 -2.2,0 -3.9,-1.7 -3.9,-3.9 0,-2.1 1.7,-3.9 3.9,-3.9 2.2,0 3.9,1.7 3.9,3.9 z"
             fill="#3C362D" />
        </g>
        <g
           id="g2807">
          <polygon
             id="polygon2805"
             points="1131.3,694.8 1129,692.2 1122.5,666.6 1131.3,659.1 "
             fill="#3C362D" />
        </g>
        <g
           id="g2811">
          <path
             inkscape:connector-curvature="0"
             id="path2809"
             d="m 1137,658.3 c 0,5.8 -4.7,10.6 -10.6,10.6 -5.9,0 -10.6,-4.8 -10.6,-10.6 0,-5.8 4.7,-10.6 10.6,-10.6 5.9,0.1 10.6,4.8 10.6,10.6 z"
             fill="#3C362D" />
        </g>
        <g
           id="g2815">
          <path
             inkscape:connector-curvature="0"
             id="path2813"
             d="m 1195.4,643.2 c 0,4.3 3.5,7.9 7.9,7.9 4.4,0 7.9,-3.5 7.9,-7.9 0,-4.4 -3.5,-7.9 -7.9,-7.9 -4.4,0.1 -7.9,3.6 -7.9,7.9 z"
             fill="#3C362D" />
        </g>
        <g
           id="g2819">
          <path
             inkscape:connector-curvature="0"
             id="path2817"
             d="m 1189.7,634.8 c 0,3.7 3,6.7 6.7,6.7 3.7,0 6.7,-3 6.7,-6.7 0,-3.7 -3,-6.7 -6.7,-6.7 -3.7,0 -6.7,3 -6.7,6.7 z"
             fill="#3C362D" />
        </g>
        <g
           id="g2823">
          <circle
             id="circle2821"
             r="4.6999998"
             cy="626.29999"
             cx="1191"
             fill="#3C362D" />
        </g>
        <g
           id="g2827">
          <path
             inkscape:connector-curvature="0"
             id="path2825"
             d="m 1180.9,620.1 c 0,2.1 1.7,3.9 3.9,3.9 2.1,0 3.9,-1.7 3.9,-3.9 0,-2.1 -1.7,-3.9 -3.9,-3.9 -2.1,0 -3.9,1.8 -3.9,3.9 z"
             fill="#3C362D" />
        </g>
        <g
           id="g2831">
          <path
             inkscape:connector-curvature="0"
             id="path2829"
             d="m 1180.7,625.3 c 0,2.1 1.7,3.9 3.9,3.9 2.1,0 3.9,-1.7 3.9,-3.9 0,-2.1 -1.7,-3.9 -3.9,-3.9 -2.2,0 -3.9,1.7 -3.9,3.9 z"
             fill="#3C362D" />
        </g>
        <g
           id="g2835">
          <polygon
             id="polygon2833"
             points="1203.1,694.8 1205.5,692.2 1211.9,666.6 1203.1,659.1 "
             fill="#3C362D" />
        </g>
        <g
           id="g2839">
          <path
             inkscape:connector-curvature="0"
             id="path2837"
             d="m 1197.5,658.3 c 0,5.8 4.7,10.6 10.6,10.6 5.9,0 10.6,-4.8 10.6,-10.6 0,-5.8 -4.7,-10.6 -10.6,-10.6 -5.9,0.1 -10.6,4.8 -10.6,10.6 z"
             fill="#3C362D" />
        </g>
        <g
           id="g2843">
          <path
             inkscape:connector-curvature="0"
             id="path2841"
             d="m 1160.5,616.9 c 0,2.8 -2.3,5 -5,5 -2.8,0 -5,-2.3 -5,-5 0,-2.8 2.3,-5 5,-5 2.8,-0.1 5,2.2 5,5 z"
             fill="#3C362D" />
        </g>
        <g
           id="g2847">
          <path
             inkscape:connector-curvature="0"
             id="path2845"
             d="m 1162.5,621.9 c 0,2.8 -2.3,5 -5,5 -2.8,0 -5,-2.3 -5,-5 0,-2.8 2.3,-5 5,-5 2.7,0 5,2.2 5,5 z"
             fill="#3C362D" />
        </g>
        <g
           id="g2851">
          <path
             inkscape:connector-curvature="0"
             id="path2849"
             d="m 1181.8,623 c 0,2.8 -2.3,5 -5,5 -2.7,0 -5,-2.3 -5,-5 0,-2.8 2.3,-5 5,-5 2.7,0 5,2.2 5,5 z"
             fill="#3C362D" />
        </g>
        <g
           id="g2855">
          <path
             inkscape:connector-curvature="0"
             id="path2853"
             d="m 1173,621.9 c 0,2.8 -2.3,5 -5,5 -2.8,0 -5,-2.3 -5,-5 0,-2.8 2.3,-5 5,-5 2.8,0 5,2.2 5,5 z"
             fill="#3C362D" />
        </g>
        <g
           id="g2859">
          <path
             inkscape:connector-curvature="0"
             id="path2857"
             d="m 1168.4,615.7 c 0,2.8 -2.3,5 -5,5 -2.7,0 -5,-2.3 -5,-5 0,-2.8 2.3,-5 5,-5 2.7,0 5,2.2 5,5 z"
             fill="#3C362D" />
        </g>
        <g
           id="g2863">
          <circle
             id="circle2861"
             r="5"
             cy="615.5"
             cx="1180.4"
             fill="#3C362D" />
        </g>
        <g
           id="g2867">
          <polygon
             id="polygon2865"
             points="1153.4,734.4 1144.1,750.6 1146.3,752.9 1153.2,741.7 1153.2,748.3 1164.1,758.8 1168.7,758.8 1168.7,757.2 1155.7,744.4 1155.7,734.4 "
             fill="#445E77" />
        </g>
        <g
           id="g2871">
          <polygon
             id="polygon2869"
             points="1183.8,734.4 1193.1,750.6 1190.9,752.9 1184,741.7 1184,748.3 1173.2,758.8 1168.5,758.8 1168.5,757.2 1181.5,744.4 1181.5,734.4 "
             fill="#445E77" />
        </g>
      </g>
    </g>
  </g>
</svg>
