<?xml version="1.0" encoding="UTF-8" standalone="no"?>
<svg
   xmlns:dc="http://purl.org/dc/elements/1.1/"
   xmlns:cc="http://creativecommons.org/ns#"
   xmlns:rdf="http://www.w3.org/1999/02/22-rdf-syntax-ns#"
   xmlns:svg="http://www.w3.org/2000/svg"
   xmlns="http://www.w3.org/2000/svg"
   xmlns:xlink="http://www.w3.org/1999/xlink"
   xmlns:sodipodi="http://sodipodi.sourceforge.net/DTD/sodipodi-0.dtd"
   xmlns:inkscape="http://www.inkscape.org/namespaces/inkscape"
   inkscape:version="1.0beta1 (32d4812, 2019-09-19)"
   id="svg1408"
   version="1.1"
   viewBox="0 0 238.12499 317.50001"
   height="1200"
   width="900">
  <defs
     id="defs1402">
    <clipPath
       id="SVGID_2_">
      <use
         xlink:href="#SVGID_1_"
         overflow="visible"
         id="use1978"
         x="0"
         y="0"
         width="100%"
         height="100%" />
    </clipPath>
    <circle
       id="SVGID_1_"
       cx="231.7"
       cy="310.29999"
       r="136.5" />
    <clipPath
       id="SVGID_4_">
      <use
         height="100%"
         width="100%"
         y="0"
         x="0"
         id="use2092"
         overflow="visible"
         xlink:href="#SVGID_3_" />
    </clipPath>
    <circle
       r="136.5"
       cy="310.29999"
       cx="543.90002"
       id="SVGID_3_" />
    <clipPath
       id="SVGID_6_">
      <use
         height="100%"
         width="100%"
         y="0"
         x="0"
         id="use2158"
         overflow="visible"
         xlink:href="#SVGID_5_" />
    </clipPath>
    <circle
       r="136.5"
       cy="310.29999"
       cx="856.09998"
       id="SVGID_5_" />
    <clipPath
       id="SVGID_8_">
      <use
         height="100%"
         width="100%"
         y="0"
         x="0"
         id="use2256"
         overflow="visible"
         xlink:href="#SVGID_7_" />
    </clipPath>
    <circle
       r="136.5"
       cy="310.29999"
       cx="1168.3"
       id="SVGID_7_" />
    <clipPath
       id="SVGID_10_">
      <use
         height="100%"
         width="100%"
         y="0"
         x="0"
         id="use2342"
         overflow="visible"
         xlink:href="#SVGID_9_" />
    </clipPath>
    <circle
       r="136.5"
       cy="669.70001"
       cx="231.7"
       id="SVGID_9_" />
    <clipPath
       id="SVGID_12_">
      <use
         height="100%"
         width="100%"
         y="0"
         x="0"
         id="use2418"
         overflow="visible"
         xlink:href="#SVGID_11_" />
    </clipPath>
    <circle
       r="136.5"
       cy="669.70001"
       cx="543.90002"
       id="SVGID_11_" />
  </defs>
  <sodipodi:namedview
     inkscape:window-maximized="0"
     inkscape:window-y="134"
     inkscape:window-x="20"
     inkscape:window-height="907"
     inkscape:window-width="1600"
     units="px"
     showgrid="false"
     inkscape:document-rotation="0"
     inkscape:current-layer="layer1"
     inkscape:document-units="mm"
     inkscape:cy="560"
     inkscape:cx="400"
     inkscape:zoom="0.35"
     inkscape:pageshadow="2"
     inkscape:pageopacity="0.0"
     borderopacity="1.0"
     bordercolor="#666666"
     pagecolor="#ffffff"
     id="base" />
  <metadata
     id="metadata1405">
    <rdf:RDF>
      <cc:Work
         rdf:about="">
        <dc:format>image/svg+xml</dc:format>
        <dc:type
           rdf:resource="http://purl.org/dc/dcmitype/StillImage" />
        <dc:title></dc:title>
      </cc:Work>
    </rdf:RDF>
  </metadata>
  <g
     id="layer1"
     inkscape:groupmode="layer"
     inkscape:label="Layer 1">
    <g
       transform="matrix(1.2567708,0,0,1.2567708,-564.49896,-695.70862)"
       style="opacity:1;stop-opacity:1"
       id="g2547">
      <defs
         id="defs2416">
        <circle
           r="136.5"
           cy="669.70001"
           cx="543.90002"
           id="circle5836" />
      </defs>
      <clipPath
         id="clipPath5693">
        <use
           height="100%"
           width="100%"
           y="0"
           x="0"
           id="use5691"
           overflow="visible"
           xlink:href="#SVGID_11_" />
      </clipPath>
      <g
         id="g2545"
         clip-path="url(#SVGID_12_)">
        <g
           id="g2423">
          <path
             inkscape:connector-curvature="0"
             id="path2421"
             d="m 523,748.8 c 0,0 -30.4,-1.5 -36.9,-18.6 -6.5,-17.1 0.8,-19.8 1.5,-30 0.8,-10.3 -10.3,6.1 -8.4,14.8 1.9,8.7 1.9,8.7 1.9,8.7 0,0 -7.6,-7.2 -4.9,-21.3 2.7,-14.1 14.8,-28.1 13.7,-42.2 -1.1,-14.1 -0.8,-3 0,-30.8 0.8,-27.7 20.5,-62.3 55.9,-62.3 35.3,0 68.4,15.6 55.5,86.6 -12.9,71.1 -30.8,65 -26.2,79.8 4.6,14.8 7.2,17.5 7.2,17.5 z"
             fill="#3C362D" />
        </g>
        <g
           id="g2427">
          <path
             inkscape:connector-curvature="0"
             id="path2425"
             d="m 509.6,667.6 c 0,6.8 -5.5,12.3 -12.3,12.3 v 0 c -6.8,0 -12.3,-5.5 -12.3,-12.3 v -10.1 c 0,-6.8 5.5,-12.3 12.3,-12.3 v 0 c 6.8,0 12.3,5.5 12.3,12.3 z"
             fill="#FBB36B" />
        </g>
        <g
           id="g2431">
          <path
             inkscape:connector-curvature="0"
             id="path2429"
             d="m 577.6,677.5 c 0,6.8 5.5,12.3 12.3,12.3 v 0 c 6.8,0 12.3,-5.5 12.3,-12.3 v -10.1 c 0,-6.8 -5.5,-12.3 -12.3,-12.3 v 0 c -6.8,0 -12.3,5.5 -12.3,12.3 z"
             fill="#FBB36B" />
        </g>
        <g
           id="g2457">
          <g
             id="g2435">
            <path
               inkscape:connector-curvature="0"
               id="path2433"
               d="m 593.8,738.9 c -22.1,-5.5 -41.1,-8.8 -47.7,-9.9 v -0.4 c 0,0 -0.4,0.1 -1.2,0.2 -0.8,-0.1 -1.2,-0.2 -1.2,-0.2 v 0.4 c -6.6,1.1 -25.6,4.4 -47.7,9.9 -27.4,6.8 -26.2,67.3 -26.2,67.3 h 150.3 c 0,0 1.1,-60.5 -26.3,-67.3 z"
               fill="#FECE8B" />
          </g>
          <g
             id="g2439">
            <path
               inkscape:connector-curvature="0"
               id="path2437"
               d="m 522.9,735.5 c 0,0 -2.3,-7.1 -2,-8.8 0.3,-1.7 0.6,-3.1 2.3,-3.7 1.7,-0.6 12.5,6 26.5,3.7 14,-2.3 21.1,-9.4 25.1,-4.6 4,4.8 -5.7,14.8 -8.3,16.2 -2.6,1.4 -8.5,4.6 -18,3.4 -9.3,-1.1 -25.6,-6.2 -25.6,-6.2 z"
               fill="#9A1F22" />
          </g>
          <g
             id="g2443">
            <path
               inkscape:connector-curvature="0"
               id="path2441"
               d="m 553,711.6 -8.3,-1.7 -8.3,1.7 c 0,0 -6.3,17.1 -6.3,24.5 0,7.4 14.5,10.8 14.5,10.8 0,0 14.5,-3.4 14.5,-10.8 0.2,-7.4 -6.1,-24.5 -6.1,-24.5 z"
               fill="#FBB36B" />
          </g>
          <g
             id="g2447">
            <path
               inkscape:connector-curvature="0"
               id="path2445"
               d="m 499.9,775.7 -7.7,-35.6 c 0,0 -10,6.5 -19.1,29.6 0,0 -0.3,17.1 18.5,17.1 z"
               fill="#564D47" />
          </g>
          <g
             id="g2451">
            <path
               inkscape:connector-curvature="0"
               id="path2449"
               d="m 589.9,775.7 7.7,-35.6 c 0,0 10,8.5 19.1,31.6 0,0 0.3,15.1 -18.5,15.1 z"
               fill="#564D47" />
          </g>
          <g
             id="g2455">
            <path
               inkscape:connector-curvature="0"
               id="path2453"
               d="m 489.5,742 c 1.1,6.6 2.9,18.9 2.9,31.9 0,0 -5.1,15.7 -5.6,32.3 h 114.9 c -0.5,-16.5 -5.6,-32.3 -5.6,-32.3 0,-13.6 1.9,-26.4 3,-32.7 -1.6,-1 -3.4,-1.8 -5.3,-2.2 -3.5,-0.9 -6.9,-1.7 -10.3,-2.4 -3.6,27.7 -33.8,32.5 -39.3,33.1 -5.5,-0.6 -35.6,-5.4 -39.3,-32.8 -2.9,0.7 -5.9,1.4 -8.9,2.2 -2.4,0.4 -4.5,1.5 -6.5,2.9 z"
               fill="#564D47" />
          </g>
        </g>
        <g
           id="g2461">
          <path
             inkscape:connector-curvature="0"
             id="path2459"
             d="m 544.9,594.1 -47.1,18.7 c 0,0 0,4 0,50.8 0,46.9 47.1,63.8 47.1,63.8 0,0 47.1,-17 47.1,-63.8 0,-46.9 0,-50.8 0,-50.8 z"
             fill="#FECE8B" />
        </g>
        <g
           id="g2471">
          <g
             id="g2465">
            <path
               inkscape:connector-curvature="0"
               id="path2463"
               d="m 569.6,659.6 c -0.2,3.9 -1.7,7 -3.4,6.9 -1.7,-0.1 -2.9,-3.3 -2.7,-7.2 0.2,-3.9 1.7,-6.9 3.4,-6.9 1.7,0.1 2.9,3.3 2.7,7.2 z"
               fill="#3C362D" />
          </g>
          <g
             id="g2469">
            <path
               inkscape:connector-curvature="0"
               id="path2467"
               d="m 524.7,659 c -0.2,3.9 -1.7,6.9 -3.4,6.9 -1.7,-0.1 -2.9,-3.3 -2.7,-7.2 0.2,-3.9 1.7,-7 3.4,-6.9 1.7,0.1 2.9,3.3 2.7,7.2 z"
               fill="#3C362D" />
          </g>
        </g>
        <g
           id="g2475">
          <path
             inkscape:connector-curvature="0"
             id="path2473"
             d="m 554.6,691.5 -10.3,-7.4 -9.1,6.4 c 0,0 3.2,6.4 9.3,5.8 6,-0.5 10.1,-4.8 10.1,-4.8 z"
             fill="#FBB36B" />
        </g>
        <g
           id="g2479">
          <path
             inkscape:connector-curvature="0"
             id="path2477"
             d="m 511.1,639.5 c 0,0 4.8,-2.4 10.3,-0.8 5.5,1.5 6.7,5.1 8.6,5.4 1.9,0.3 4.5,-0.9 4.8,-2.8 0.2,-1.9 -13.8,-12.4 -23.7,-1.8 z"
             fill="#3C362D" />
        </g>
        <g
           id="g2483">
          <path
             inkscape:connector-curvature="0"
             id="path2481"
             d="m 580,649.8 c 0,0 -3.8,-3.8 -9.5,-4.2 -5.7,-0.4 -8,2.7 -9.9,2.3 -1.9,-0.4 -4,-2.3 -3.6,-4.2 0.4,-1.9 17.1,-7.2 23,6.1 z"
             fill="#3C362D" />
        </g>
        <g
           id="g2487">
          <path
             inkscape:connector-curvature="0"
             id="path2485"
             d="m 529.3,702.6 c -0.3,-0.6 0,-1.2 0.5,-1.5 v 0 c 0.6,-0.3 1.2,0 1.5,0.5 v 0 c 0.1,-0.1 1.9,4.7 13.2,4.8 v 0 c 11.3,0 15.6,-5.6 15.6,-5.6 v 0 c 0.4,-0.5 1.1,-0.6 1.6,-0.2 v 0 c 0.5,0.4 0.6,1.1 0.2,1.6 v 0 c -0.1,0.2 -5.3,6.4 -17.4,6.4 v 0 c -0.1,0 -0.1,0 -0.2,0 v 0 c -11.8,0.1 -14.9,-5.7 -15,-6 z"
             fill="#F04B3A" />
        </g>
        <g
           id="g2491">
          <path
             inkscape:connector-curvature="0"
             id="path2489"
             d="m 539.4,585 c 0,0 -4.2,33.4 -20.5,42.6 -16.3,9.1 -17.1,28.1 -18.2,45.2 -1.1,17.1 11,51.7 11,51.7 0,0 -10.6,-9.9 -16.3,-42.2 -5.7,-32.3 -2.3,-63.5 1.5,-80.2 3.7,-16.7 42.5,-17.1 42.5,-17.1 z"
             fill="#3C362D" />
        </g>
        <g
           id="g2495">
          <path
             inkscape:connector-curvature="0"
             id="path2493"
             d="m 546.6,588.7 c 0,0 7.6,32.8 24.8,40.2 17.2,7.4 19.9,26.2 22.8,43.1 2.9,16.9 -5.6,52.5 -5.6,52.5 0,0 9.6,-10.9 11.9,-43.6 2.3,-32.7 -4.3,-63.4 -9.8,-79.6 -5.5,-16.2 -44.1,-12.6 -44.1,-12.6 z"
             fill="#3C362D" />
        </g>
        <g
           id="g2499">
          <path
             inkscape:connector-curvature="0"
             id="path2497"
             d="m 514.7,630.2 c 0,0 37.2,-9.9 44.8,-27 L 558,583.1 c 0,0 -20.1,-2.7 -31.2,4.9 -11,7.6 -12.1,42.2 -12.1,42.2 z"
             fill="#3C362D" />
        </g>
        <g
           id="g2503">
          <path
             inkscape:connector-curvature="0"
             id="path2501"
             d="m 548.6,748.3 c 0,0 -10,6.8 -11.7,20.5 -1.7,13.7 1.1,27.9 1.7,30.2 0.6,2.3 -7.1,4.6 -11.7,1.7 -4.6,-2.8 -4.6,-6.3 -6.8,-3.7 -2.3,2.6 -5.7,-25.1 -5.7,-37.9 0,-12.8 11.4,-17.4 11.4,-17.4 z"
             fill="#9A1F22" />
        </g>
        <g
           id="g2507">
          <path
             inkscape:connector-curvature="0"
             id="path2505"
             d="m 523.2,722.9 c 0,0 8.8,12 24.2,11.1 15.4,-0.9 21.9,-11.7 27.4,-12 5.4,-0.3 3.7,7.4 3.7,7.4 0,0 4.6,3.1 3.7,8.5 -0.9,5.4 -17.4,21.1 -40.5,15.4 -23.1,-5.7 -31.6,-15.4 -31.9,-18.8 -0.3,-3.4 6.3,-4.3 6.3,-4.3 0,0 0.3,-6.4 7.1,-7.3 z"
             fill="#BE202E" />
        </g>
        <g
           id="g2525">
          <g
             id="g2511">
            <path
               inkscape:connector-curvature="0"
               id="path2509"
               d="m 467.7,806.2 h 52.2 v -52.4 c 0,0 6,4.3 8.3,3.4 2.3,-0.9 4.8,-9.7 4.8,-9.7 0,0 -20.2,-8.8 -21.9,-11.7 -1.7,-2.9 -1.4,-7.4 -1.7,-8.3 -0.3,-0.9 -4.8,-1.7 -6.8,-0.6 -2,1.1 -2.3,6.8 -2.3,7.7 0,0.9 -12,4.6 -19.4,12.3 -7.4,7.7 -5.7,3.7 -8.8,12.8 -3.3,9.1 -4.4,46.5 -4.4,46.5 z"
               fill="#A87D50" />
          </g>
          <g
             id="g2515">
            <path
               inkscape:connector-curvature="0"
               id="path2513"
               d="m 526.6,753.4 c -4.3,0.3 -15.7,-7.4 -19.4,-10.3 -3.7,-2.8 -5.1,-9.1 -5.1,-9.1 0,0 -1.7,5.4 0,8.3 1.7,2.8 15.4,11.1 15.4,11.1 v 52.8 h 2.3 v -52.4 c 0,0 6,4.3 8.3,3.4 2.3,-0.9 4.8,-9.7 4.8,-9.7 0,0 -0.7,-0.3 -1.6,-0.7 -0.7,2.9 -2.1,6.4 -4.7,6.6 z"
               fill="#754D29" />
          </g>
          <g
             id="g2519">
            <path
               inkscape:connector-curvature="0"
               id="path2517"
               d="m 493.5,806.2 c -0.2,-4.4 0,-15.5 4.9,-24.3 v -6.2 c 0,0 -4.6,-8 -4.8,-9.2 -0.3,-1.1 -0.9,4.3 2.6,9.1 0,0 -6.9,9.7 -7.6,30.5 h 4.9 z"
               fill="#754D29" />
          </g>
          <g
             id="g2523">
            <path
               inkscape:connector-curvature="0"
               id="path2521"
               d="m 473.4,755.1 c 0,0 4.6,3.4 6.8,3.1 2.3,-0.3 13.4,-14.2 16.2,-15.7 2.9,-1.4 -1.1,-6 -1.1,-6 0,0 -12.8,2.4 -21.9,18.6 z"
               fill="#C3996B" />
          </g>
        </g>
        <g
           id="g2543">
          <g
             id="g2529">
            <path
               inkscape:connector-curvature="0"
               id="path2527"
               d="M 620.1,806.2 H 568 v -52.4 c 0,0 -6,4.3 -8.3,3.4 -2.3,-0.9 -4.8,-9.7 -4.8,-9.7 0,0 20.2,-8.8 21.9,-11.7 1.7,-2.9 1.4,-7.4 1.7,-8.3 0.3,-0.9 4.8,-1.7 6.8,-0.6 2,1.1 2.3,6.8 2.3,7.7 0,0.9 12,4.6 19.4,12.3 7.4,7.7 5.7,3.7 8.8,12.8 3.2,9.1 4.3,46.5 4.3,46.5 z"
               fill="#A87D50" />
          </g>
          <g
             id="g2533">
            <path
               inkscape:connector-curvature="0"
               id="path2531"
               d="m 561.1,753.4 c 4.3,0.3 15.7,-7.4 19.4,-10.3 3.7,-2.8 5.1,-9.1 5.1,-9.1 0,0 1.7,5.4 0,8.3 -1.7,2.8 -15.4,11.1 -15.4,11.1 v 52.8 H 568 v -52.4 c 0,0 -6,4.3 -8.3,3.4 -2.3,-0.9 -4.8,-9.7 -4.8,-9.7 0,0 0.7,-0.3 1.6,-0.7 0.7,2.9 2.1,6.4 4.6,6.6 z"
               fill="#754D29" />
          </g>
          <g
             id="g2537">
            <path
               inkscape:connector-curvature="0"
               id="path2535"
               d="m 594.3,806.2 c 0.2,-4.4 0,-15.5 -4.9,-24.3 v -6.2 c 0,0 4.6,-8 4.8,-9.2 0.3,-1.1 0.9,4.3 -2.6,9.1 0,0 6.9,9.7 7.6,30.5 h -4.9 z"
               fill="#754D29" />
          </g>
          <g
             id="g2541">
            <path
               inkscape:connector-curvature="0"
               id="path2539"
               d="m 614.4,755.1 c 0,0 -4.6,3.4 -6.8,3.1 -2.3,-0.3 -13.4,-14.2 -16.2,-15.7 -2.9,-1.4 1.1,-6 1.1,-6 0,0 12.8,2.4 21.9,18.6 z"
               fill="#C3996B" />
          </g>
        </g>
      </g>
    </g>
  </g>
</svg>
