<?xml version="1.0" encoding="UTF-8" standalone="no"?>
<svg
   xmlns:dc="http://purl.org/dc/elements/1.1/"
   xmlns:cc="http://creativecommons.org/ns#"
   xmlns:rdf="http://www.w3.org/1999/02/22-rdf-syntax-ns#"
   xmlns:svg="http://www.w3.org/2000/svg"
   xmlns="http://www.w3.org/2000/svg"
   xmlns:xlink="http://www.w3.org/1999/xlink"
   xmlns:sodipodi="http://sodipodi.sourceforge.net/DTD/sodipodi-0.dtd"
   xmlns:inkscape="http://www.inkscape.org/namespaces/inkscape"
   inkscape:version="1.0beta1 (32d4812, 2019-09-19)"
   id="svg1408"
   version="1.1"
   viewBox="0 0 238.12499 317.50001"
   height="1200"
   width="900">
  <defs
     id="defs1402">
    <clipPath
       id="SVGID_2_">
      <use
         xlink:href="#SVGID_1_"
         overflow="visible"
         id="use1978"
         x="0"
         y="0"
         width="100%"
         height="100%" />
    </clipPath>
    <circle
       id="SVGID_1_"
       cx="231.7"
       cy="310.29999"
       r="136.5" />
    <clipPath
       id="SVGID_4_">
      <use
         height="100%"
         width="100%"
         y="0"
         x="0"
         id="use2092"
         overflow="visible"
         xlink:href="#SVGID_3_" />
    </clipPath>
    <circle
       r="136.5"
       cy="310.29999"
       cx="543.90002"
       id="SVGID_3_" />
    <clipPath
       id="SVGID_6_">
      <use
         height="100%"
         width="100%"
         y="0"
         x="0"
         id="use2158"
         overflow="visible"
         xlink:href="#SVGID_5_" />
    </clipPath>
    <circle
       r="136.5"
       cy="310.29999"
       cx="856.09998"
       id="SVGID_5_" />
    <clipPath
       id="SVGID_8_">
      <use
         height="100%"
         width="100%"
         y="0"
         x="0"
         id="use2256"
         overflow="visible"
         xlink:href="#SVGID_7_" />
    </clipPath>
    <circle
       r="136.5"
       cy="310.29999"
       cx="1168.3"
       id="SVGID_7_" />
    <clipPath
       id="SVGID_10_">
      <use
         height="100%"
         width="100%"
         y="0"
         x="0"
         id="use2342"
         overflow="visible"
         xlink:href="#SVGID_9_" />
    </clipPath>
    <circle
       r="136.5"
       cy="669.70001"
       cx="231.7"
       id="SVGID_9_" />
    <clipPath
       id="SVGID_12_">
      <use
         height="100%"
         width="100%"
         y="0"
         x="0"
         id="use2418"
         overflow="visible"
         xlink:href="#SVGID_11_" />
    </clipPath>
    <circle
       r="136.5"
       cy="669.70001"
       cx="543.90002"
       id="SVGID_11_" />
    <clipPath
       id="SVGID_14_">
      <use
         height="100%"
         width="100%"
         y="0"
         x="0"
         id="use2556"
         overflow="visible"
         xlink:href="#SVGID_13_" />
    </clipPath>
    <circle
       r="136.5"
       cy="669.70001"
       cx="856.09998"
       id="SVGID_13_" />
    <clipPath
       id="SVGID_16_">
      <use
         height="100%"
         width="100%"
         y="0"
         x="0"
         id="use2684"
         overflow="visible"
         xlink:href="#SVGID_15_" />
    </clipPath>
    <circle
       r="136.5"
       cy="669.70001"
       cx="1168.3"
       id="SVGID_15_" />
  </defs>
  <sodipodi:namedview
     inkscape:window-maximized="0"
     inkscape:window-y="134"
     inkscape:window-x="20"
     inkscape:window-height="907"
     inkscape:window-width="1600"
     units="px"
     showgrid="false"
     inkscape:document-rotation="0"
     inkscape:current-layer="layer1"
     inkscape:document-units="mm"
     inkscape:cy="560"
     inkscape:cx="400"
     inkscape:zoom="0.35"
     inkscape:pageshadow="2"
     inkscape:pageopacity="0.0"
     borderopacity="1.0"
     bordercolor="#666666"
     pagecolor="#ffffff"
     id="base" />
  <metadata
     id="metadata1405">
    <rdf:RDF>
      <cc:Work
         rdf:about="">
        <dc:format>image/svg+xml</dc:format>
        <dc:type
           rdf:resource="http://purl.org/dc/dcmitype/StillImage" />
        <dc:title></dc:title>
      </cc:Work>
    </rdf:RDF>
  </metadata>
  <g
     id="layer1"
     inkscape:groupmode="layer"
     inkscape:label="Layer 1">
    <g
       transform="matrix(1.3229166,0,0,1.3229166,-1408.6416,-690.56245)"
       style="opacity:1;stop-opacity:1"
       id="g7954">
      <g
         id="g7870">
        <path
           inkscape:connector-curvature="0"
           id="path7856"
           d="m 1223.3,730.9 c -9.1,-8.6 -37.7,-9 -46.1,-21.2 -8.4,-12.2 -5.4,-28.4 -2.4,-36.7 h -40 c 3,8.3 6,24.6 -2.4,36.7 -8.4,12.2 -37,12.5 -46.1,21.2 -5.7,5.4 -10.5,23.1 -11.1,29.8 h 159.3 c -0.7,-6.6 -5.5,-24.4 -11.2,-29.8 z"
           fill="#FCDFB0" />
        <path
           inkscape:connector-curvature="0"
           id="path7858"
           d="m 1136.3,701.6 c 9,10.3 24.9,20.1 41.9,9.4 -0.4,-0.4 -0.7,-0.8 -1,-1.3 -8.4,-12.2 -5.4,-28.4 -2.4,-36.7 h -17.5 l -19.5,13.7 c 0.3,4.8 0,10 -1.5,14.9 z"
           fill="#DBBB8D" />
        <path
           inkscape:connector-curvature="0"
           id="path7860"
           d="m 1234.4,762 h -159.3 c -0.4,0 -0.7,-0.2 -1,-0.4 -0.3,-0.3 -0.4,-0.7 -0.4,-1 0.6,-6.3 5.3,-24.7 11.5,-30.6 4.3,-4 12.2,-6.3 20.6,-8.6 10.3,-2.9 21,-5.9 25.4,-12.3 9.4,-13.6 3.5,-31.9 2.2,-35.5 -0.2,-0.4 -0.1,-0.9 0.2,-1.2 0.3,-0.4 0.7,-0.6 1.1,-0.6 h 40 c 0.4,0 0.9,0.2 1.1,0.6 0.3,0.4 0.3,0.8 0.2,1.2 -1.3,3.5 -7.2,21.9 2.2,35.5 4.4,6.4 15.1,9.4 25.4,12.3 8.4,2.4 16.3,4.6 20.6,8.6 v 0 c 6.2,5.9 11,24.4 11.5,30.6 0,0.4 -0.1,0.8 -0.4,1 -0.2,0.3 -0.5,0.4 -0.9,0.4 z m -157.8,-2.7 h 156.2 c -1.1,-7.7 -5.7,-22.9 -10.5,-27.4 v 0 c -3.8,-3.6 -11.4,-5.7 -19.4,-8 -10.8,-3 -21.9,-6.2 -26.9,-13.4 -9,-13.1 -5.1,-29.9 -3.2,-36.1 h -36.2 c 1.9,6.2 5.9,23.1 -3.2,36.1 -5,7.2 -16.1,10.4 -26.9,13.4 -8.1,2.3 -15.7,4.4 -19.4,8 -4.7,4.5 -9.4,19.7 -10.5,27.4 z"
           fill="#5E1145" />
        <path
           inkscape:connector-curvature="0"
           id="path7862"
           d="m 1223.3,730.9 c -8.8,-8.3 -35.8,-9 -45.2,-20 -4,8.9 -12.9,15.1 -23.3,15.1 -10.4,0 -19.3,-6.2 -23.3,-15.1 -9.4,11 -36.4,11.7 -45.2,20 -5.7,5.4 -10.5,23.1 -11.1,29.8 h 159.3 c -0.7,-6.6 -5.5,-24.4 -11.2,-29.8 z"
           fill="#7A92CA" />
        <path
           inkscape:connector-curvature="0"
           id="path7864"
           d="m 1234.4,762 h -159.3 c -0.4,0 -0.7,-0.2 -1,-0.4 -0.3,-0.3 -0.4,-0.7 -0.4,-1 0.6,-6.3 5.3,-24.7 11.5,-30.6 4.3,-4 12.2,-6.3 20.6,-8.6 9.7,-2.7 19.7,-5.6 24.6,-11.3 0.3,-0.4 0.8,-0.5 1.2,-0.5 0.5,0.1 0.9,0.4 1.1,0.8 3.9,8.7 12.5,14.3 22.1,14.3 9.6,0 18.2,-5.6 22.1,-14.3 0.2,-0.4 0.6,-0.7 1.1,-0.8 0.5,-0.1 0.9,0.1 1.2,0.5 4.8,5.7 14.9,8.5 24.6,11.3 8.4,2.4 16.3,4.6 20.6,8.6 6.2,5.9 11,24.4 11.5,30.6 0,0.4 -0.1,0.8 -0.4,1 -0.4,0.3 -0.7,0.4 -1.1,0.4 z m -157.8,-2.7 h 156.2 c -1.1,-7.7 -5.7,-22.9 -10.5,-27.4 -3.8,-3.6 -11.4,-5.7 -19.4,-8 -9.3,-2.6 -18.8,-5.3 -24.5,-10.6 -4.7,8.7 -13.7,14.2 -23.7,14.2 -10,0 -19,-5.5 -23.7,-14.2 -5.7,5.3 -15.2,8 -24.5,10.6 -8.1,2.3 -15.7,4.4 -19.4,8 -4.7,4.5 -9.4,19.7 -10.5,27.4 z"
           fill="#5E1145" />
        <path
           inkscape:connector-curvature="0"
           id="path7866"
           d="m 1154.7,732.2 c 12.3,0 22.9,-7 28.2,-17.2 -1.9,-1.2 -3.6,-2.5 -4.9,-4.1 -4,8.9 -12.9,15.1 -23.3,15.1 -10.4,0 -19.3,-6.2 -23.3,-15.1 -1.3,1.5 -3,2.9 -4.9,4.1 5.3,10.2 16,17.2 28.2,17.2 z"
           fill="#FFFFFF" />
        <path
           inkscape:connector-curvature="0"
           id="path7868"
           d="m 1154.7,733.6 c -12.4,0 -23.7,-6.9 -29.4,-18 -0.3,-0.6 -0.1,-1.4 0.5,-1.8 1.9,-1.2 3.4,-2.4 4.6,-3.8 0.3,-0.4 0.8,-0.5 1.2,-0.5 0.5,0.1 0.9,0.4 1.1,0.8 3.9,8.7 12.5,14.3 22.1,14.3 9.6,0 18.2,-5.6 22.1,-14.3 0.2,-0.4 0.6,-0.7 1.1,-0.8 0.5,-0.1 0.9,0.1 1.2,0.5 1.2,1.4 2.7,2.6 4.6,3.8 0.6,0.4 0.8,1.1 0.5,1.8 -5.9,11.1 -17.1,18 -29.6,18 z m -26.3,-18.2 c 5.4,9.5 15.4,15.4 26.4,15.4 11,0 21,-5.9 26.4,-15.4 -1,-0.7 -1.9,-1.4 -2.7,-2.2 -4.7,8.7 -13.7,14.2 -23.7,14.2 -10,0 -19,-5.5 -23.7,-14.2 -0.8,0.8 -1.7,1.6 -2.7,2.2 z"
           fill="#5E1145" />
      </g>
      <g
         id="g7952">
        <path
           inkscape:connector-curvature="0"
           id="path7872"
           d="m 1194,670.7 h -76.4 c 1.4,9.9 5.2,17.5 4.3,24.3 3.7,-1.5 5.2,-2.8 5.2,-2.8 0,0 4.3,4 2.9,10.6 3.3,-1.4 12.3,-10.6 12.3,-10.6 h 27 c 0,0 9.1,9.2 12.3,10.6 -1.4,-6.6 2.9,-10.6 2.9,-10.6 0,0 1.5,1.3 5.2,2.8 -1,-6.8 2.9,-14.5 4.3,-24.3 z"
           fill="#696167" />
        <path
           inkscape:connector-curvature="0"
           id="path7874"
           d="m 1181.6,704.1 c -0.2,0 -0.4,0 -0.5,-0.1 -3.1,-1.3 -10.4,-8.5 -12.4,-10.5 h -25.8 c -2,2 -9.3,9.2 -12.4,10.5 -0.5,0.2 -1,0.1 -1.4,-0.2 -0.4,-0.3 -0.6,-0.8 -0.5,-1.3 0.9,-4.1 -0.8,-7.1 -1.8,-8.5 -0.9,0.6 -2.4,1.4 -4.5,2.2 -0.5,0.2 -1,0.1 -1.4,-0.2 -0.4,-0.3 -0.6,-0.8 -0.5,-1.3 0.5,-3.8 -0.6,-8 -1.9,-12.9 -0.9,-3.3 -1.8,-7 -2.4,-11.1 -0.1,-0.4 0.1,-0.8 0.3,-1.1 0.3,-0.3 0.6,-0.5 1,-0.5 h 76.4 c 0.4,0 0.8,0.2 1,0.5 0.3,0.3 0.4,0.7 0.3,1.1 -0.6,4 -1.5,7.8 -2.4,11.1 -1.3,4.9 -2.4,9.1 -1.9,12.9 0.1,0.5 -0.1,1 -0.5,1.3 -0.4,0.3 -0.9,0.4 -1.4,0.2 -2.1,-0.9 -3.6,-1.7 -4.5,-2.3 -1,1.3 -2.7,4.3 -1.8,8.5 0.1,0.5 -0.1,1 -0.5,1.3 0.1,0.3 -0.2,0.4 -0.5,0.4 z M 1127,690.8 c 0.3,0 0.7,0.1 0.9,0.4 0.2,0.2 3.6,3.4 3.6,8.9 2.8,-2.1 7,-6.1 9.7,-8.9 0.3,-0.3 0.6,-0.4 1,-0.4 h 27 c 0.4,0 0.7,0.1 1,0.4 2.7,2.8 6.9,6.7 9.7,8.9 0,-5.5 3.5,-8.8 3.6,-8.9 0.5,-0.5 1.3,-0.5 1.8,0 0,0 0.9,0.7 2.8,1.7 0,-3.6 1,-7.4 2.1,-11.6 0.8,-2.9 1.6,-5.9 2.1,-9.2 h -73.2 c 0.5,3.3 1.3,6.3 2.1,9.2 1.1,4.2 2.1,8 2.1,11.6 1.9,-1 2.8,-1.7 2.8,-1.7 0.3,-0.3 0.6,-0.4 0.9,-0.4 z"
           fill="#5E1145" />
        <g
           id="g7950">
          <path
             inkscape:connector-curvature="0"
             id="path7876"
             d="m 1133.3,536.6 c -13.3,-3.7 -25.5,0.4 -31.5,14.5 -6,14.1 -0.8,20.9 -7.1,31.3 5,-0.4 8.5,-4.8 8.5,-4.8 l 5.4,25.2 42.3,-39.3 c 2.3,-8.1 -3.9,-23 -17.6,-26.9 z"
             fill="#696167" />
          <path
             inkscape:connector-curvature="0"
             id="path7878"
             d="m 1108.6,604.1 c -0.6,0 -1.2,-0.4 -1.3,-1.1 l -4.9,-22.7 c -1.7,1.4 -4.3,3.2 -7.6,3.4 -0.5,0 -1,-0.2 -1.3,-0.6 -0.3,-0.4 -0.3,-1 0,-1.4 3.1,-5.1 3.3,-9.2 3.5,-14 0.2,-4.7 0.5,-10 3.5,-17.1 3,-7.1 7.6,-12.1 13.7,-14.7 5.6,-2.4 12.3,-2.6 19.4,-0.6 6.6,1.9 12.2,6.4 15.7,12.7 3,5.3 4,11.4 2.8,15.9 -0.2,0.7 -1,1.1 -1.7,0.9 -0.7,-0.2 -1.1,-1 -0.9,-1.7 1.1,-3.8 0.1,-9 -2.5,-13.8 -3.2,-5.7 -8.2,-9.7 -14.1,-11.4 -13.7,-3.9 -24.6,1.1 -29.9,13.7 -2.8,6.6 -3.1,11.5 -3.3,16.2 -0.2,4.1 -0.4,8.1 -2.5,12.5 2.9,-1.2 4.8,-3.6 4.8,-3.6 0.3,-0.4 0.9,-0.6 1.4,-0.5 0.5,0.1 0.9,0.5 1,1 l 5.4,25.2 c 0.2,0.7 -0.3,1.5 -1,1.6 0,0.1 -0.1,0.1 -0.2,0.1 z"
             fill="#5E1145" />
          <g
             id="g7884">
            <path
               inkscape:connector-curvature="0"
               id="path7880"
               d="m 1143.2,570 -26.6,8.8 -3.3,-10.1 c -0.5,-1.6 -0.3,-3.4 0.7,-4.8 5,-7.2 14.3,-10.2 22.6,-7.4 1.6,0.5 2.9,1.8 3.4,3.5 z"
               fill="#7A92CA" />
            <path
               inkscape:connector-curvature="0"
               id="path7882"
               d="m 1116.5,580.1 c -0.6,0 -1.1,-0.4 -1.3,-0.9 l -3.3,-10.1 c -0.7,-2 -0.4,-4.3 0.8,-6 5.3,-7.7 15.3,-10.9 24.1,-8 2,0.7 3.6,2.3 4.3,4.3 l 3.3,10.1 c 0.1,0.3 0.1,0.7 -0.1,1 -0.2,0.3 -0.4,0.6 -0.8,0.7 L 1117,580 c -0.2,0.1 -0.3,0.1 -0.5,0.1 z m 13.7,-23.3 c -5.9,0 -11.7,2.9 -15.2,7.9 -0.7,1 -0.9,2.4 -0.5,3.6 l 2.9,8.8 24,-7.9 -2.9,-8.8 c -0.4,-1.2 -1.3,-2.2 -2.5,-2.6 -1.9,-0.7 -3.9,-1 -5.8,-1 z"
               fill="#5E1145" />
          </g>
          <path
             inkscape:connector-curvature="0"
             id="path7886"
             d="m 1206.6,584.9 c -12,-20.4 -32,-25.6 -49.9,-25.6 h -4.2 c -17.9,0 -37.9,5.2 -49.9,25.6 -10.4,17.7 3.5,49.5 7.1,61.3 h 89.7 c 3.7,-11.7 17.7,-43.6 7.2,-61.3 z"
             fill="#696167" />
          <path
             inkscape:connector-curvature="0"
             id="path7888"
             d="m 1199.5,647.6 h -89.7 c -0.6,0 -1.1,-0.4 -1.3,-1 -0.5,-1.7 -1.3,-3.8 -2.1,-6.3 -2.5,-7.3 -6,-17.3 -7.8,-27.5 -2.1,-12.4 -1.2,-21.8 2.9,-28.7 10.3,-17.4 27.5,-26.3 51.1,-26.3 h 4.2 c 23.6,0 40.8,8.8 51.1,26.3 v 0 c 4.1,6.9 5,16.3 2.9,28.7 -1.8,10.2 -5.2,20.2 -7.8,27.5 -0.9,2.4 -1.6,4.6 -2.1,6.2 -0.3,0.7 -0.8,1.1 -1.4,1.1 z m -88.7,-2.7 h 87.7 c 0.5,-1.5 1.1,-3.3 1.8,-5.4 4.8,-13.7 13.7,-39.3 5.1,-53.9 -9.8,-16.5 -26.2,-24.9 -48.7,-24.9 h -4.2 c -22.6,0 -39,8.4 -48.7,24.9 -8.6,14.6 0.3,40.1 5.1,53.9 0.7,2 1.4,3.8 1.9,5.4 z"
             fill="#5E1145" />
          <g
             id="g7902">
            <g
               id="g7894">
              <path
                 inkscape:connector-curvature="0"
                 id="path7890"
                 d="m 1207.4,647.6 c -0.6,-6.4 -7.8,-6.6 -12.3,-3.3 l -2.5,23.3 c 14.2,4.4 15.4,-13.6 14.8,-20 z"
                 fill="#FCDFB0" />
              <path
                 inkscape:connector-curvature="0"
                 id="path7892"
                 d="m 1196.7,669.7 c -1.4,0 -2.9,-0.2 -4.5,-0.7 -0.6,-0.2 -1,-0.8 -1,-1.4 l 2.5,-23.3 c 0,-0.4 0.2,-0.7 0.5,-1 3.2,-2.4 7.4,-3 10.5,-1.7 2.3,1 3.7,3.2 4,6 v 0 c 0.1,0.6 1.2,14.4 -5.7,20 -1.8,1.3 -3.9,2.1 -6.3,2.1 z m -2.6,-3.1 c 3,0.7 5.3,0.3 7.2,-1.2 4.3,-3.5 5.2,-12.5 4.7,-17.7 v 0 c -0.2,-1.8 -1,-3.1 -2.4,-3.7 -2,-0.9 -5,-0.4 -7.3,1 z"
                 fill="#5E1145" />
            </g>
            <g
               id="g7900">
              <path
                 inkscape:connector-curvature="0"
                 id="path7896"
                 d="m 1101.9,647.6 c 0.6,-6.4 7.8,-6.6 12.3,-3.3 l 2.5,23.3 c -14.2,4.4 -15.4,-13.6 -14.8,-20 z"
                 fill="#FCDFB0" />
              <path
                 inkscape:connector-curvature="0"
                 id="path7898"
                 d="m 1112.6,669.7 c -2.4,0 -4.5,-0.7 -6.3,-2.2 -6.9,-5.6 -5.8,-19.4 -5.7,-20 0.3,-2.8 1.7,-4.9 4,-6 3.1,-1.4 7.3,-0.7 10.5,1.7 0.3,0.2 0.5,0.6 0.5,1 l 2.5,23.3 c 0.1,0.6 -0.3,1.3 -1,1.4 -1.6,0.5 -3.1,0.8 -4.5,0.8 z m -4.6,-26.2 c -0.9,0 -1.7,0.1 -2.4,0.5 -1.4,0.6 -2.2,1.9 -2.4,3.7 v 0 c -0.5,5.2 0.4,14.2 4.7,17.7 1.9,1.5 4.3,1.9 7.2,1.2 l -2.3,-21.6 c -1.4,-0.9 -3.2,-1.5 -4.8,-1.5 z m -6.1,4.1 z"
                 fill="#5E1145" />
            </g>
          </g>
          <path
             inkscape:connector-curvature="0"
             id="path7904"
             d="m 1128.9,591.7 c -13,0.1 -23.1,11.6 -21.4,24.5 1.5,12.1 3.4,38 5,47.1 2.2,12.9 9.4,24.5 19.9,32.3 2,1.4 4,2.9 6,4.3 10.1,7.1 23.7,7 33.7,-0.3 2,-1.4 4,-2.9 5.9,-4.4 10.5,-7.9 17.4,-19.6 19.4,-32.6 1.4,-9.2 3,-35.1 4.3,-47.2 1.4,-13 -8.8,-24.3 -21.8,-24.2 z"
             fill="#FCDFB0" />
          <path
             inkscape:connector-curvature="0"
             id="path7906"
             d="m 1155.1,706.5 c -6.1,0 -12.2,-1.8 -17.5,-5.5 -1.9,-1.3 -3.9,-2.8 -6,-4.3 -10.9,-8 -18.2,-19.8 -20.5,-33.1 -0.9,-5.2 -1.9,-16 -2.9,-26.3 -0.8,-8.1 -1.5,-15.7 -2.1,-20.9 -0.8,-6.5 1.2,-13.2 5.5,-18.1 4.3,-5 10.6,-7.9 17.2,-7.9 v 0 l 51.1,-0.4 c 0.1,0 0.1,0 0.2,0 6.5,0 12.8,2.8 17.2,7.6 4.4,4.9 6.5,11.5 5.8,18 -0.6,5.1 -1.2,12.7 -1.8,20.6 -0.8,10.5 -1.7,21.3 -2.5,26.6 -2.1,13.4 -9.1,25.3 -19.9,33.5 -2.1,1.6 -4.1,3.1 -5.9,4.4 -5.4,3.9 -11.6,5.8 -17.9,5.8 z m -26.2,-113.4 c -5.8,0 -11.4,2.6 -15.2,7 -3.8,4.4 -5.6,10.2 -4.9,16 0.7,5.2 1.4,12.9 2.1,21 1,10.3 2,21 2.8,26.1 2.1,12.6 9,23.8 19.4,31.4 2.1,1.5 4.1,3 6,4.3 9.7,6.8 22.6,6.7 32.1,-0.3 1.9,-1.3 3.8,-2.8 5.9,-4.4 10.2,-7.8 16.9,-19 18.9,-31.7 0.8,-5.2 1.7,-16 2.5,-26.4 0.6,-8 1.2,-15.5 1.8,-20.7 0.6,-5.8 -1.2,-11.6 -5.1,-15.9 -3.9,-4.3 -9.4,-6.7 -15.1,-6.7 -0.1,0 -0.1,0 -0.2,0 z"
             fill="#5E1145" />
          <g
             id="g7932">
            <g
               id="g7918">
              <g
                 id="g7912">
                <circle
                   r="6.5"
                   id="ellipse7908"
                   cy="644.90002"
                   cx="1175.4"
                   fill="#5E1145"
                   transform="matrix(1,-0.00784848,0.00784848,1,-5.0256,9.2448)" />
                <path
                   inkscape:connector-curvature="0"
                   id="path7910"
                   d="m 1184.6,645 c 0,0 0,0 0,0 -1.2,0 -2.1,-0.9 -3,-1.9 -2.5,-2.6 -5.9,-6.2 -15.4,1.3 -0.6,0.5 -1.5,0.4 -1.9,-0.2 -0.5,-0.6 -0.4,-1.5 0.2,-1.9 11.5,-9 16.4,-3.8 19.1,-1 0.3,0.3 0.7,0.8 1,1 0.5,-0.4 1.3,-0.3 1.8,0.1 0.5,0.5 0.5,1.4 0,1.9 -0.7,0.5 -1.4,0.7 -1.8,0.7 z"
                   fill="#5E1145" />
              </g>
              <path
                 inkscape:connector-curvature="0"
                 id="path7914"
                 d="m 1164.8,635.2 c 7.2,-3.3 12.5,-4.4 22.5,1.2 6.3,3.1 5.1,-0.8 1.1,-3.3 -4,-2.5 -14,-9.9 -25.2,-3.3 -6.7,4 -0.2,6.2 1.6,5.4 z"
                 fill="#696167" />
              <path
                 inkscape:connector-curvature="0"
                 id="path7916"
                 d="m 1190.9,638.9 c -1.5,0 -3.3,-0.9 -4.1,-1.3 0,0 0,0 -0.1,0 -9.2,-5.1 -14,-4.5 -21.3,-1.1 v 0 c -1.6,0.7 -5.1,0.1 -6.2,-2 -0.6,-1.1 -0.9,-3.3 3.4,-5.8 11.1,-6.6 20.9,-0.3 25.6,2.7 0.3,0.2 0.7,0.4 0.9,0.6 2.5,1.6 4.7,4.1 3.7,5.9 -0.4,0.7 -1.1,1 -1.9,1 z m -2.9,-3.7 c 0.7,0.4 1.3,0.6 1.7,0.7 -0.4,-0.5 -1.1,-1.1 -2,-1.6 -0.3,-0.2 -0.6,-0.4 -1,-0.6 -4.6,-2.9 -13.1,-8.4 -22.8,-2.7 -2.2,1.3 -2.4,2.1 -2.3,2.2 0.3,0.6 2.1,1 2.6,0.8 7.9,-3.6 13.7,-4.4 23.8,1.2 z m -23.2,0 z"
                 fill="#5E1145" />
            </g>
            <g
               id="g7930">
              <g
                 id="g7924">
                <circle
                   r="6.5"
                   id="ellipse7920"
                   cy="644.90002"
                   cx="1133.9"
                   fill="#5E1145"
                   transform="matrix(0.00784848,-1,1,0.00784848,480.0844,1773.7451)" />
                <path
                   inkscape:connector-curvature="0"
                   id="path7922"
                   d="m 1124.7,645 c -0.4,0 -1.1,-0.1 -1.7,-0.8 -0.5,-0.5 -0.5,-1.4 0,-1.9 0.5,-0.5 1.2,-0.5 1.8,-0.1 0.3,-0.2 0.7,-0.7 1,-1 2.7,-2.8 7.6,-8 19.1,1 0.6,0.5 0.7,1.3 0.2,1.9 -0.5,0.6 -1.3,0.7 -1.9,0.2 -9.5,-7.5 -12.9,-3.9 -15.4,-1.3 -1,1.1 -1.9,2 -3.1,2 0,0 0,0 0,0 z"
                   fill="#5E1145" />
              </g>
              <path
                 inkscape:connector-curvature="0"
                 id="path7926"
                 d="m 1144.5,635.2 c -7.2,-3.3 -12.5,-4.4 -22.5,1.2 -6.3,3.1 -5.1,-0.8 -1.1,-3.3 4,-2.5 14,-9.9 25.2,-3.3 6.7,4 0.1,6.2 -1.6,5.4 z"
                 fill="#696167" />
              <path
                 inkscape:connector-curvature="0"
                 id="path7928"
                 d="m 1118.4,638.9 c -0.8,0 -1.6,-0.3 -2,-1 -1,-1.8 1.2,-4.4 3.7,-5.9 0.3,-0.2 0.6,-0.4 0.9,-0.6 4.7,-3 14.6,-9.3 25.6,-2.7 4.2,2.5 3.9,4.7 3.4,5.8 -1.1,2.1 -4.6,2.7 -6.2,2 v 0 c -7.3,-3.3 -12.1,-4 -21.3,1.1 0,0 0,0 -0.1,0 -0.6,0.4 -2.5,1.3 -4,1.3 z m 18.2,-10.4 c -5.9,0 -10.9,3.2 -14,5.2 -0.4,0.2 -0.7,0.4 -1,0.6 -0.9,0.6 -1.6,1.2 -2,1.6 0.4,-0.1 1,-0.4 1.7,-0.7 10.1,-5.6 15.9,-4.8 23.7,-1.2 0.5,0.2 2.3,-0.2 2.6,-0.8 0.1,-0.1 -0.1,-0.9 -2.3,-2.2 -3,-1.9 -6,-2.5 -8.7,-2.5 z m 8.4,5.5 z"
                 fill="#5E1145" />
            </g>
          </g>
          <path
             inkscape:connector-curvature="0"
             id="path7934"
             d="m 1154.7,671.2 c -0.1,0 -0.2,0 -0.3,0 -0.9,-0.2 -5.2,-1.4 -6.6,-3.5 -0.4,-0.6 -0.2,-1.5 0.4,-1.9 0.6,-0.4 1.5,-0.2 1.9,0.4 0.5,0.8 2.9,1.8 4.6,2.3 1.7,-0.5 4,-1.5 4.6,-2.3 0.4,-0.6 1.2,-0.8 1.9,-0.4 0.6,0.4 0.8,1.2 0.4,1.9 -1.3,2.1 -5.7,3.4 -6.5,3.6 -0.2,-0.2 -0.3,-0.1 -0.4,-0.1 z"
             fill="#5E1145" />
          <path
             inkscape:connector-curvature="0"
             id="path7936"
             d="m 1141.9,679.4 c 2.9,3.4 4.1,7.1 12.7,7.4 8.6,-0.4 9.9,-4 12.7,-7.4 -8.4,5 -16.9,5 -25.4,0 z"
             fill="#F69884" />
          <path
             inkscape:connector-curvature="0"
             id="path7938"
             d="m 1154.6,683.5 c -4.8,0 -9.5,-1.1 -13.4,-3.2 -0.7,-0.4 -0.9,-1.2 -0.5,-1.9 0.4,-0.7 1.2,-0.9 1.9,-0.5 7,3.9 17.2,3.9 24.2,0 0.7,-0.4 1.5,-0.1 1.9,0.5 0.4,0.7 0.1,1.5 -0.5,1.9 -4,2.1 -8.8,3.2 -13.6,3.2 z"
             fill="#5E1145" />
          <path
             inkscape:connector-curvature="0"
             id="path7940"
             d="m 1146.9,689.4 c 1.1,3.3 4.1,5.6 7.7,5.6 3.6,0 6.7,-2.4 7.7,-5.6 z"
             fill="#F3CF9C" />
          <path
             inkscape:connector-curvature="0"
             id="path7942"
             d="m 1206.3,616.4 c -0.4,-0.8 -2.7,-15.5 -3.3,-16.2 -0.6,-0.8 -11.3,-13.9 -11.3,-13.9 l -31.4,-6.2 -19.6,2.3 c 1.2,11.4 13.1,31.1 26.6,37.1 -3.4,-5.2 -4.5,-12.9 -4.5,-12.9 0,0 9.1,15 23.8,20.5 -3.1,-4.1 -3.9,-13.6 -3.9,-13.6 0,0 5.9,9.5 19.2,14.5 0,0 4.8,-10.8 4.4,-11.6 z"
             fill="#696167" />
          <path
             inkscape:connector-curvature="0"
             id="path7944"
             d="m 1138.7,581.5 -22,4.1 -11.4,9.7 -1.2,8.9 0.8,16.2 c 2.1,7.7 1.2,14.8 -1.7,20.8 18,-6.5 13.5,-33.5 13.5,-33.5 0,0 1.4,7.3 5.2,14.1 2.1,-18.4 19.1,-26.7 21.3,-30.3 z"
             fill="#696167" />
          <path
             inkscape:connector-curvature="0"
             id="path7946"
             d="m 1103.2,642.4 c -0.4,0 -0.8,-0.2 -1,-0.5 -0.4,-0.4 -0.5,-1 -0.2,-1.5 3,-6 3.5,-12.9 1.6,-19.8 -0.2,-0.7 0.2,-1.5 1,-1.7 0.7,-0.2 1.5,0.2 1.7,1 1.7,6.3 1.6,12.6 -0.4,18.4 13.1,-7.9 9.6,-30.3 9.6,-30.5 -0.1,-0.7 0.4,-1.4 1.1,-1.6 0.7,-0.1 1.4,0.4 1.6,1.1 0,0.1 0.9,4.8 3.3,10.1 2.9,-11.8 11.7,-19 17.1,-23.4 1.7,-1.4 3.2,-2.7 3.7,-3.4 0.4,-0.6 1.2,-0.9 1.9,-0.5 0.6,0.4 0.9,1.2 0.5,1.9 -0.7,1.1 -2.2,2.4 -4.3,4.1 -5.7,4.7 -15.3,12.5 -16.9,25.7 -0.1,0.6 -0.5,1.1 -1.1,1.2 -0.6,0.1 -1.2,-0.1 -1.5,-0.7 -0.9,-1.5 -1.6,-3.1 -2.3,-4.6 -0.1,1.4 -0.2,2.8 -0.4,4.3 -1.6,10.4 -6.5,17.4 -14.4,20.3 -0.3,0.1 -0.5,0.1 -0.6,0.1 z"
             fill="#5E1145" />
          <path
             inkscape:connector-curvature="0"
             id="path7948"
             d="m 1201.9,629.4 c -0.2,0 -0.3,0 -0.5,-0.1 -8.1,-3.1 -13.5,-7.7 -16.7,-11 0.5,2.8 1.4,6.1 2.9,8 0.4,0.5 0.4,1.2 0,1.6 -0.4,0.5 -1,0.7 -1.6,0.5 -9.2,-3.5 -16.2,-10.4 -20.3,-15.4 0.7,1.9 1.5,4 2.7,5.8 0.3,0.5 0.3,1.2 -0.1,1.6 -0.4,0.5 -1,0.6 -1.6,0.4 -6.4,-2.9 -13,-8.9 -18.5,-17 -5,-7.3 -8.3,-15.3 -8.9,-21.2 -0.1,-0.7 0.5,-1.4 1.2,-1.5 0.7,-0.1 1.4,0.5 1.5,1.2 1.1,10.4 10.9,26.6 22,33.9 -1.9,-4.6 -2.6,-9.1 -2.6,-9.4 -0.1,-0.6 0.3,-1.3 0.9,-1.5 0.6,-0.2 1.3,0 1.6,0.6 0.1,0.1 7.6,12.3 19.6,18.4 -1.7,-4.6 -2.2,-10.3 -2.2,-10.6 -0.1,-0.6 0.3,-1.2 0.9,-1.4 0.6,-0.2 1.3,0 1.6,0.6 0.1,0.1 5.9,9.2 18.5,13.9 0.7,0.3 1.1,1.1 0.8,1.8 -0.1,0.5 -0.6,0.8 -1.2,0.8 z"
             fill="#5E1145" />
        </g>
      </g>
    </g>
  </g>
</svg>
