<?xml version="1.0" encoding="UTF-8" standalone="no"?>
<svg
   xmlns:dc="http://purl.org/dc/elements/1.1/"
   xmlns:cc="http://creativecommons.org/ns#"
   xmlns:rdf="http://www.w3.org/1999/02/22-rdf-syntax-ns#"
   xmlns:svg="http://www.w3.org/2000/svg"
   xmlns="http://www.w3.org/2000/svg"
   xmlns:xlink="http://www.w3.org/1999/xlink"
   xmlns:sodipodi="http://sodipodi.sourceforge.net/DTD/sodipodi-0.dtd"
   xmlns:inkscape="http://www.inkscape.org/namespaces/inkscape"
   inkscape:version="1.0beta1 (32d4812, 2019-09-19)"
   id="svg1408"
   version="1.1"
   viewBox="0 0 238.12499 317.50001"
   height="1200"
   width="900">
  <defs
     id="defs1402">
    <clipPath
       id="SVGID_2_">
      <use
         xlink:href="#SVGID_1_"
         overflow="visible"
         id="use1978"
         x="0"
         y="0"
         width="100%"
         height="100%" />
    </clipPath>
    <circle
       id="SVGID_1_"
       cx="231.7"
       cy="310.29999"
       r="136.5" />
    <clipPath
       id="SVGID_4_">
      <use
         height="100%"
         width="100%"
         y="0"
         x="0"
         id="use2092"
         overflow="visible"
         xlink:href="#SVGID_3_" />
    </clipPath>
    <circle
       r="136.5"
       cy="310.29999"
       cx="543.90002"
       id="SVGID_3_" />
    <clipPath
       id="SVGID_6_">
      <use
         height="100%"
         width="100%"
         y="0"
         x="0"
         id="use2158"
         overflow="visible"
         xlink:href="#SVGID_5_" />
    </clipPath>
    <circle
       r="136.5"
       cy="310.29999"
       cx="856.09998"
       id="SVGID_5_" />
    <clipPath
       id="SVGID_8_">
      <use
         height="100%"
         width="100%"
         y="0"
         x="0"
         id="use2256"
         overflow="visible"
         xlink:href="#SVGID_7_" />
    </clipPath>
    <circle
       r="136.5"
       cy="310.29999"
       cx="1168.3"
       id="SVGID_7_" />
    <clipPath
       id="SVGID_10_">
      <use
         height="100%"
         width="100%"
         y="0"
         x="0"
         id="use2342"
         overflow="visible"
         xlink:href="#SVGID_9_" />
    </clipPath>
    <circle
       r="136.5"
       cy="669.70001"
       cx="231.7"
       id="SVGID_9_" />
    <clipPath
       id="SVGID_12_">
      <use
         height="100%"
         width="100%"
         y="0"
         x="0"
         id="use2418"
         overflow="visible"
         xlink:href="#SVGID_11_" />
    </clipPath>
    <circle
       r="136.5"
       cy="669.70001"
       cx="543.90002"
       id="SVGID_11_" />
    <clipPath
       id="SVGID_14_">
      <use
         height="100%"
         width="100%"
         y="0"
         x="0"
         id="use2556"
         overflow="visible"
         xlink:href="#SVGID_13_" />
    </clipPath>
    <circle
       r="136.5"
       cy="669.70001"
       cx="856.09998"
       id="SVGID_13_" />
    <clipPath
       id="SVGID_16_">
      <use
         height="100%"
         width="100%"
         y="0"
         x="0"
         id="use2684"
         overflow="visible"
         xlink:href="#SVGID_15_" />
    </clipPath>
    <circle
       r="136.5"
       cy="669.70001"
       cx="1168.3"
       id="SVGID_15_" />
  </defs>
  <sodipodi:namedview
     inkscape:window-maximized="0"
     inkscape:window-y="134"
     inkscape:window-x="20"
     inkscape:window-height="907"
     inkscape:window-width="1600"
     units="px"
     showgrid="false"
     inkscape:document-rotation="0"
     inkscape:current-layer="layer1"
     inkscape:document-units="mm"
     inkscape:cy="560"
     inkscape:cx="400"
     inkscape:zoom="0.35"
     inkscape:pageshadow="2"
     inkscape:pageopacity="0.0"
     borderopacity="1.0"
     bordercolor="#666666"
     pagecolor="#ffffff"
     id="base" />
  <metadata
     id="metadata1405">
    <rdf:RDF>
      <cc:Work
         rdf:about="">
        <dc:format>image/svg+xml</dc:format>
        <dc:type
           rdf:resource="http://purl.org/dc/dcmitype/StillImage" />
        <dc:title></dc:title>
      </cc:Work>
    </rdf:RDF>
  </metadata>
  <g
     id="layer1"
     inkscape:groupmode="layer"
     inkscape:label="Layer 1">
    <g
       transform="matrix(1.3229166,0,0,1.3229166,-205.51509,-289.58643)"
       style="opacity:1;stop-opacity:1"
       id="g7266">
      <g
         id="g7212">
        <g
           id="g7200">
          <rect
             id="rect7194"
             height="38.700001"
             width="20.1"
             fill="#FBDC99"
             y="375.89999"
             x="235.2" />
          <path
             inkscape:connector-curvature="0"
             id="path7196"
             d="m 234.7,384.1 c 2.2,4 15.8,8.6 20.6,10.2 0,-7.3 0.5,-10.2 0.5,-10.2 z"
             fill="#E5C079" />
          <path
             inkscape:connector-curvature="0"
             id="path7198"
             d="m 255.3,415.9 h -20.1 c -0.8,0 -1.4,-0.6 -1.4,-1.4 v -38.7 c 0,-0.8 0.6,-1.4 1.4,-1.4 h 20.1 c 0.8,0 1.4,0.6 1.4,1.4 v 38.7 c 0,0.8 -0.6,1.4 -1.4,1.4 z m -18.7,-2.7 H 254 v -36 h -17.4 z"
             fill="#5E1145" />
        </g>
        <path
           inkscape:connector-curvature="0"
           id="path7202"
           d="m 299.4,415.4 c -10.9,-2.3 -33.3,-12.5 -43.5,-17.3 0,5.9 -4.8,10.6 -10.6,10.6 -5.9,0 -10.6,-4.8 -10.6,-10.6 0,-0.3 0,-0.6 0,-0.9 -8.3,4.2 -31.9,15.7 -43.5,18.2 -10.3,18.8 -14.2,42.1 -14.2,42.1 h 136.7 c -0.1,0 -4,-23.3 -14.3,-42.1 z"
           fill="#7A92CA" />
        <path
           inkscape:connector-curvature="0"
           id="path7204"
           d="M 313.6,458.9 H 176.9 c -0.4,0 -0.8,-0.2 -1,-0.5 -0.3,-0.3 -0.4,-0.7 -0.3,-1.1 0,-0.2 4.1,-23.8 14.4,-42.6 0.2,-0.3 0.5,-0.6 0.9,-0.7 11.6,-2.5 36,-14.5 43.2,-18.1 0.4,-0.2 1,-0.2 1.4,0.1 0.4,0.3 0.6,0.8 0.6,1.2 0,0.3 0,0.6 0,0.8 0,5.1 4.2,9.3 9.3,9.3 5.1,0 9.3,-4.2 9.3,-9.3 0,-0.5 0.2,-0.9 0.6,-1.2 0.4,-0.2 0.9,-0.3 1.3,-0.1 9.4,4.4 32.3,14.9 43.2,17.2 0.4,0.1 0.7,0.3 0.9,0.7 10.3,18.8 14.4,42.3 14.4,42.6 0.1,0.4 0,0.8 -0.3,1.1 -0.4,0.4 -0.8,0.6 -1.2,0.6 z m -135,-2.7 H 312 c -1.1,-5.5 -5.2,-24.1 -13.5,-39.6 -10.3,-2.4 -29.6,-10.9 -41.4,-16.4 -1,5.6 -5.9,9.9 -11.8,9.9 -6.2,0 -11.3,-4.7 -11.9,-10.7 -10.1,5 -30.2,14.7 -41.3,17.2 -8.4,15.5 -12.5,34.1 -13.5,39.6 z"
           fill="#5E1145" />
        <g
           id="g7210">
          <path
             inkscape:connector-curvature="0"
             id="path7206"
             d="m 294.2,458.9 c -0.1,0 -0.3,0 -0.4,-0.1 -0.7,-0.2 -1.1,-1 -0.9,-1.7 3.3,-9.7 2.7,-29.5 2.7,-29.7 0,-0.8 0.6,-1.4 1.3,-1.4 0.8,0 1.4,0.6 1.4,1.3 0,0.8 0.5,20.5 -2.9,30.6 -0.1,0.6 -0.6,1 -1.2,1 z"
             fill="#5E1145" />
          <path
             inkscape:connector-curvature="0"
             id="path7208"
             d="m 196.3,458.9 c -0.6,0 -1.1,-0.4 -1.3,-0.9 -3.4,-10.1 -2.9,-29.8 -2.9,-30.6 0,-0.8 0.7,-1.4 1.4,-1.3 0.8,0 1.3,0.6 1.3,1.4 0,0.2 -0.5,20 2.7,29.7 0.2,0.7 -0.1,1.5 -0.9,1.7 0,0 -0.2,0 -0.3,0 z"
             fill="#5E1145" />
        </g>
      </g>
      <g
         id="g7220">
        <g
           id="g7218">
          <path
             inkscape:connector-curvature="0"
             id="path7214"
             d="m 284.9,307.9 c 7.5,0.6 11.3,11 9.7,21.8 -1.7,10.8 -12.9,13.1 -12.9,13.1 z"
             fill="#FBDC99" />
          <path
             inkscape:connector-curvature="0"
             id="path7216"
             d="m 205.6,307.9 c -7.5,0.6 -11.3,11 -9.7,21.8 1.7,10.8 12.9,13.1 12.9,13.1 z"
             fill="#FBDC99" />
        </g>
      </g>
      <g
         id="g7226">
        <path
           inkscape:connector-curvature="0"
           id="path7222"
           d="m 281.7,344.1 c -0.3,0 -0.7,-0.1 -0.9,-0.3 -0.3,-0.3 -0.5,-0.7 -0.4,-1.1 l 3.2,-34.9 c 0.1,-0.7 0.7,-1.3 1.5,-1.2 2.8,0.2 5.3,1.6 7.2,4.1 3.4,4.4 4.9,11.8 3.7,19.3 -0.7,4.8 -3.4,8.8 -7.7,11.5 -3.2,2 -6.2,2.6 -6.3,2.7 -0.2,-0.1 -0.2,-0.1 -0.3,-0.1 z m 4.4,-34.6 -2.9,31.4 c 3,-1.1 8.9,-4.1 10,-11.4 1.1,-6.8 -0.1,-13.4 -3.1,-17.2 -1.2,-1.4 -2.5,-2.4 -4,-2.8 z"
           fill="#5E1145" />
        <path
           inkscape:connector-curvature="0"
           id="path7224"
           d="m 208.9,344.1 c -0.1,0 -0.2,0 -0.3,0 -0.1,0 -3.1,-0.6 -6.3,-2.7 -4.3,-2.7 -6.9,-6.7 -7.7,-11.5 -1.2,-7.5 0.2,-14.9 3.7,-19.3 1.9,-2.4 4.4,-3.9 7.2,-4.1 0.7,-0.1 1.4,0.5 1.5,1.2 l 3.2,34.9 c 0,0.4 -0.1,0.9 -0.4,1.1 -0.3,0.3 -0.6,0.4 -0.9,0.4 z m -4.5,-34.6 c -1.5,0.4 -2.8,1.4 -4,2.8 -3,3.8 -4.2,10.4 -3.1,17.2 1.1,7.3 7,10.3 10,11.4 z"
           fill="#5E1145" />
      </g>
      <path
         inkscape:connector-curvature="0"
         id="path7228"
         d="m 204.7,275.6 1.7,83.8 17.4,27.4 h 43 l 17.4,-27.4 1.7,-83.8 c 0.3,-13.7 -10.8,-25 -24.5,-25 h -32.2 c -13.7,0.1 -24.8,11.3 -24.5,25 z"
         fill="#FBDC99" />
      <path
         inkscape:connector-curvature="0"
         id="path7230"
         d="m 266.8,388.2 h -43 c -0.5,0 -0.9,-0.2 -1.2,-0.6 l -17.4,-27.4 c -0.1,-0.2 -0.2,-0.5 -0.2,-0.7 l -1.7,-83.8 c 0,0 0,0 0,0 -0.1,-7 2.5,-13.6 7.4,-18.6 4.9,-5 11.5,-7.7 18.5,-7.7 h 32.2 c 7,0 13.6,2.8 18.5,7.7 4.9,5 7.5,11.6 7.4,18.6 l -1.7,83.8 c 0,0.3 -0.1,0.5 -0.2,0.7 L 268,387.6 c -0.3,0.3 -0.8,0.6 -1.2,0.6 z m -42.3,-2.7 H 266 l 16.8,-26.4 1.6,-83.4 c 0.1,-6.3 -2.2,-12.2 -6.6,-16.6 -4.4,-4.5 -10.3,-6.9 -16.5,-6.9 h -32.2 c -6.3,0 -12.1,2.5 -16.5,6.9 -4.4,4.5 -6.7,10.4 -6.6,16.6 l 1.6,83.4 z"
         fill="#5E1145" />
      <path
         inkscape:connector-curvature="0"
         id="path7232"
         d="m 249.4,347.8 h -8.3 c -1.3,0 -2.5,-0.6 -3.4,-1.5 -0.9,-1 -1.3,-2.2 -1.1,-3.5 l 2.2,-18.3 c 0.1,-0.7 0.8,-1.3 1.5,-1.2 0.7,0.1 1.3,0.8 1.2,1.5 l -2.2,18.3 c -0.1,0.5 0.1,1 0.4,1.4 0.3,0.4 0.8,0.6 1.3,0.6 h 8.3 c 0.5,0 1,-0.2 1.3,-0.6 0.3,-0.4 0.5,-0.9 0.4,-1.4 l -2.2,-18.3 c -0.1,-0.7 0.4,-1.4 1.2,-1.5 0.7,-0.1 1.4,0.4 1.5,1.2 l 2.2,18.3 c 0.2,1.3 -0.2,2.6 -1.1,3.5 -0.9,0.9 -1.9,1.5 -3.2,1.5 z"
         fill="#5E1145" />
      <path
         inkscape:connector-curvature="0"
         id="path7234"
         d="m 245.3,363.9 c -3.8,0 -7.6,-1.5 -11.4,-4.6 -0.6,-0.5 -0.7,-1.3 -0.2,-1.9 0.5,-0.6 1.3,-0.7 1.9,-0.2 6.5,5.3 12.9,5.3 19.4,0 0.6,-0.5 1.4,-0.4 1.9,0.2 0.5,0.6 0.4,1.4 -0.2,1.9 -3.8,3 -7.6,4.6 -11.4,4.6 z"
         fill="#5E1145" />
      <g
         id="g7252">
        <path
           inkscape:connector-curvature="0"
           id="path7236"
           d="m 275.6,315.6 c -0.1,0 -0.2,0 -0.3,0 L 259,312 l -3.3,3.3 c -0.5,0.5 -1.4,0.5 -1.9,0 -0.5,-0.5 -0.5,-1.4 0,-1.9 l 3.8,-3.8 c 0.3,-0.3 0.8,-0.5 1.3,-0.4 l 17,3.8 c 0.7,0.2 1.2,0.9 1,1.6 -0.1,0.6 -0.7,1 -1.3,1 z"
           fill="#5E1145" />
        <circle
           id="circle7238"
           r="5.3000002"
           cy="316.39999"
           cx="265.20001"
           fill="#5E1145" />
        <polygon
           id="polygon7240"
           points="268.9,302.1 279.2,306.7 270.9,295.2 249.6,300.6 251.4,305.5 "
           fill="#696167" />
        <path
           inkscape:connector-curvature="0"
           id="path7242"
           d="m 279.2,308.1 c -0.2,0 -0.4,0 -0.6,-0.1 l -9.9,-4.4 -17.1,3.3 c -0.7,0.1 -1.3,-0.2 -1.5,-0.9 l -1.8,-5 c -0.1,-0.4 -0.1,-0.8 0.1,-1.1 0.2,-0.3 0.5,-0.6 0.9,-0.7 l 21.2,-5.3 c 0.5,-0.1 1.1,0.1 1.4,0.5 l 8.3,11.5 c 0.4,0.5 0.3,1.2 0,1.7 -0.2,0.3 -0.6,0.5 -1,0.5 z m -27.8,-6.6 0.9,2.5 16.3,-3.2 c 0.3,-0.1 0.6,0 0.8,0.1 l 5.7,2.5 -4.8,-6.6 z"
           fill="#5E1145" />
        <path
           inkscape:connector-curvature="0"
           id="path7244"
           d="m 214.9,315.6 c -0.6,0 -1.2,-0.4 -1.3,-1.1 -0.2,-0.7 0.3,-1.5 1,-1.6 l 17,-3.8 c 0.5,-0.1 0.9,0 1.3,0.4 l 3.8,3.8 c 0.5,0.5 0.5,1.4 0,1.9 -0.5,0.5 -1.4,0.5 -1.9,0 l -3.3,-3.3 -16.2,3.6 c -0.2,0.1 -0.3,0.1 -0.4,0.1 z"
           fill="#5E1145" />
        <circle
           id="circle7246"
           r="5.3000002"
           cy="316.39999"
           cx="225.3"
           fill="#5E1145" />
        <polygon
           id="polygon7248"
           points="221.6,302.1 211.3,306.7 219.6,295.2 240.9,300.6 239.1,305.5 "
           fill="#696167" />
        <path
           inkscape:connector-curvature="0"
           id="path7250"
           d="m 211.3,308.1 c -0.4,0 -0.8,-0.2 -1.1,-0.5 -0.4,-0.5 -0.4,-1.2 0,-1.7 l 8.3,-11.5 c 0.3,-0.5 0.9,-0.7 1.4,-0.5 l 21.2,5.3 c 0.4,0.1 0.7,0.3 0.9,0.7 0.2,0.4 0.2,0.7 0.1,1.1 l -1.8,5 c -0.2,0.6 -0.9,1 -1.5,0.9 l -17.1,-3.3 -9.9,4.4 c -0.1,0.1 -0.3,0.1 -0.5,0.1 z m 10.3,-7.3 c 0.1,0 0.2,0 0.3,0 l 16.3,3.2 0.9,-2.5 -18.9,-4.7 -4.8,6.6 5.7,-2.5 c 0.1,-0.1 0.3,-0.1 0.5,-0.1 z"
           fill="#5E1145" />
      </g>
      <path
         inkscape:connector-curvature="0"
         id="path7254"
         d="m 201.6,301.8 v 28.7 h 6.9 v -28.7 c 0,0 -6.3,-12.5 0.4,-26.9 19.9,-23.8 64.2,-5.3 73.2,1.4 5.4,11.9 0,25.5 0,25.5 v 28.7 h 6.9 v -28.7 c 0,0 9.4,-24.3 8.7,-36.4 -0.6,-12.1 -14.3,-17.6 -14.3,-17.6 0,0 -2.6,-22 -25.3,-19.8 -22.6,2.2 -53.2,6.3 -58.8,34.6 -5.7,28.3 2.3,39.2 2.3,39.2 z"
         fill="#696167" />
      <path
         inkscape:connector-curvature="0"
         id="path7256"
         d="m 289,331.9 h -6.9 c -0.8,0 -1.4,-0.6 -1.4,-1.4 v -28.7 c 0,-0.2 0,-0.3 0.1,-0.5 0.1,-0.1 5,-13 0.2,-24.1 -4.9,-3.4 -17.9,-9.3 -31.7,-11.7 -12.3,-2.1 -29,-2 -39.3,10.1 -6.3,13.5 -0.4,25.4 -0.4,25.5 0.1,0.2 0.1,0.4 0.1,0.6 v 28.7 c 0,0.8 -0.6,1.4 -1.4,1.4 h -6.9 c -0.8,0 -1.4,-0.6 -1.4,-1.4 v -28.3 c -1.4,-2.2 -7.4,-13.9 -2.3,-39.9 2.6,-13.1 10.4,-22.2 23.8,-28 11.2,-4.8 24.6,-6.5 36.2,-7.6 12.4,-1.2 19,4.6 22.4,9.7 2.9,4.3 3.9,8.8 4.2,10.5 3,1.4 13.9,7.1 14.5,18.5 0.6,11.8 -7.7,34 -8.7,36.7 v 28.4 c 0.2,0.9 -0.4,1.5 -1.1,1.5 z m -5.5,-2.8 h 4.1 v -27.3 c 0,-0.2 0,-0.3 0.1,-0.5 0.1,-0.2 9.2,-24.1 8.7,-35.8 -0.6,-11.1 -13.4,-16.3 -13.5,-16.4 -0.5,-0.2 -0.8,-0.6 -0.9,-1.1 0,-0.1 -0.7,-5.3 -4,-10.2 -4.3,-6.4 -11,-9.3 -19.8,-8.4 -11.4,1.1 -24.5,2.7 -35.4,7.4 -12.5,5.4 -19.8,13.9 -22.2,26.1 -5.5,27.4 2,38 2,38.1 0.2,0.2 0.3,0.5 0.3,0.8 v 27.3 h 4.1 v -27 c -1,-2.1 -5.9,-14.1 0.6,-27.8 0,-0.1 0.1,-0.2 0.2,-0.3 11.1,-13.3 28.9,-13.4 42,-11.2 14.6,2.5 28.2,8.7 33.1,12.4 0.2,0.1 0.3,0.3 0.4,0.5 5.2,11.5 0.9,24.3 0.1,26.3 v 27.1 z"
         fill="#5E1145" />
      <path
         inkscape:connector-curvature="0"
         id="path7258"
         d="m 277,274.6 c -0.1,0 -0.1,0 -0.2,0 -0.7,-0.1 -1.3,-0.8 -1.2,-1.5 0.5,-4.1 -1.4,-11.2 -6.6,-17.2 -3.5,-4 -9.7,-8.9 -19.5,-9.1 -18.7,-0.4 -39.6,19.6 -39.8,19.8 -0.5,0.5 -1.4,0.5 -1.9,0 -0.5,-0.5 -0.5,-1.4 0,-1.9 0.9,-0.9 22,-21 41.7,-20.6 10.7,0.2 17.6,5.6 21.5,10.1 5.8,6.7 7.8,14.5 7.2,19.3 0.1,0.6 -0.5,1.1 -1.2,1.1 z"
         fill="#5E1145" />
      <path
         inkscape:connector-curvature="0"
         id="path7260"
         d="m 266.7,270.2 c -0.4,0 -0.8,-0.2 -1.1,-0.6 -0.2,-0.3 -0.4,-0.6 -0.6,-0.9 -4.2,-5.7 -12.8,-17.7 -34.3,-16.7 -0.7,0 -1.4,-0.6 -1.4,-1.3 0,-0.8 0.6,-1.4 1.3,-1.4 22.9,-1 32.1,11.7 36.6,17.8 0.2,0.3 0.4,0.6 0.6,0.8 0.4,0.6 0.3,1.5 -0.3,1.9 -0.3,0.3 -0.5,0.4 -0.8,0.4 z"
         fill="#5E1145" />
      <path
         inkscape:connector-curvature="0"
         id="path7262"
         d="m 244.2,264.8 c -0.2,0 -0.4,-0.1 -0.6,-0.2 -5,-2.7 -17.2,-5.5 -27,-4 -0.7,0.1 -1.4,-0.4 -1.6,-1.1 -0.1,-0.7 0.4,-1.4 1.1,-1.6 10.3,-1.7 23.3,1.4 28.7,4.3 0.7,0.4 0.9,1.2 0.6,1.8 -0.3,0.6 -0.7,0.8 -1.2,0.8 z"
         fill="#5E1145" />
      <path
         inkscape:connector-curvature="0"
         id="path7264"
         d="m 238,367.2 c 1.1,3 3.9,5.1 7.2,5.1 3.3,0 6.2,-2.1 7.2,-5.1 z"
         fill="#E5C079" />
    </g>
  </g>
</svg>
