<?xml version="1.0" encoding="UTF-8" standalone="no"?>
<svg
   xmlns:dc="http://purl.org/dc/elements/1.1/"
   xmlns:cc="http://creativecommons.org/ns#"
   xmlns:rdf="http://www.w3.org/1999/02/22-rdf-syntax-ns#"
   xmlns:svg="http://www.w3.org/2000/svg"
   xmlns="http://www.w3.org/2000/svg"
   xmlns:xlink="http://www.w3.org/1999/xlink"
   xmlns:sodipodi="http://sodipodi.sourceforge.net/DTD/sodipodi-0.dtd"
   xmlns:inkscape="http://www.inkscape.org/namespaces/inkscape"
   inkscape:version="1.0beta1 (32d4812, 2019-09-19)"
   id="svg1408"
   version="1.1"
   viewBox="0 0 238.12499 317.50001"
   height="1200"
   width="900">
  <defs
     id="defs1402">
    <clipPath
       id="SVGID_2_">
      <use
         xlink:href="#SVGID_1_"
         overflow="visible"
         id="use1978"
         x="0"
         y="0"
         width="100%"
         height="100%" />
    </clipPath>
    <circle
       id="SVGID_1_"
       cx="231.7"
       cy="310.29999"
       r="136.5" />
    <clipPath
       id="SVGID_4_">
      <use
         height="100%"
         width="100%"
         y="0"
         x="0"
         id="use2092"
         overflow="visible"
         xlink:href="#SVGID_3_" />
    </clipPath>
    <circle
       r="136.5"
       cy="310.29999"
       cx="543.90002"
       id="SVGID_3_" />
    <clipPath
       id="SVGID_6_">
      <use
         height="100%"
         width="100%"
         y="0"
         x="0"
         id="use2158"
         overflow="visible"
         xlink:href="#SVGID_5_" />
    </clipPath>
    <circle
       r="136.5"
       cy="310.29999"
       cx="856.09998"
       id="SVGID_5_" />
    <clipPath
       id="SVGID_8_">
      <use
         height="100%"
         width="100%"
         y="0"
         x="0"
         id="use2256"
         overflow="visible"
         xlink:href="#SVGID_7_" />
    </clipPath>
    <circle
       r="136.5"
       cy="310.29999"
       cx="1168.3"
       id="SVGID_7_" />
    <clipPath
       id="SVGID_10_">
      <use
         height="100%"
         width="100%"
         y="0"
         x="0"
         id="use2342"
         overflow="visible"
         xlink:href="#SVGID_9_" />
    </clipPath>
    <circle
       r="136.5"
       cy="669.70001"
       cx="231.7"
       id="SVGID_9_" />
    <clipPath
       id="SVGID_12_">
      <use
         height="100%"
         width="100%"
         y="0"
         x="0"
         id="use2418"
         overflow="visible"
         xlink:href="#SVGID_11_" />
    </clipPath>
    <circle
       r="136.5"
       cy="669.70001"
       cx="543.90002"
       id="SVGID_11_" />
    <clipPath
       id="SVGID_14_">
      <use
         height="100%"
         width="100%"
         y="0"
         x="0"
         id="use2556"
         overflow="visible"
         xlink:href="#SVGID_13_" />
    </clipPath>
    <circle
       r="136.5"
       cy="669.70001"
       cx="856.09998"
       id="SVGID_13_" />
    <clipPath
       id="SVGID_16_">
      <use
         height="100%"
         width="100%"
         y="0"
         x="0"
         id="use2684"
         overflow="visible"
         xlink:href="#SVGID_15_" />
    </clipPath>
    <circle
       r="136.5"
       cy="669.70001"
       cx="1168.3"
       id="SVGID_15_" />
  </defs>
  <sodipodi:namedview
     inkscape:window-maximized="0"
     inkscape:window-y="134"
     inkscape:window-x="20"
     inkscape:window-height="907"
     inkscape:window-width="1600"
     units="px"
     showgrid="false"
     inkscape:document-rotation="0"
     inkscape:current-layer="layer1"
     inkscape:document-units="mm"
     inkscape:cy="560"
     inkscape:cx="400"
     inkscape:zoom="0.35"
     inkscape:pageshadow="2"
     inkscape:pageopacity="0.0"
     borderopacity="1.0"
     bordercolor="#666666"
     pagecolor="#ffffff"
     id="base" />
  <metadata
     id="metadata1405">
    <rdf:RDF>
      <cc:Work
         rdf:about="">
        <dc:format>image/svg+xml</dc:format>
        <dc:type
           rdf:resource="http://purl.org/dc/dcmitype/StillImage" />
        <dc:title></dc:title>
      </cc:Work>
    </rdf:RDF>
  </metadata>
  <g
     id="layer1"
     inkscape:groupmode="layer"
     inkscape:label="Layer 1">
    <g
       transform="matrix(0.92604166,0,0,0.92604165,-97.862759,-97.644472)"
       id="XMLID_734_">
      <g
         id="XMLID_690_">
        <path
           inkscape:connector-curvature="0"
           id="XMLID_1275_"
           fill="#F9C68C"
           d="m 139.7,281.8 c 0,0 -13.1,-6.8 -14,10.9 -0.9,17.8 13.1,32.9 28.7,31.5" />
      </g>
      <g
         id="XMLID_697_">
        <path
           inkscape:connector-curvature="0"
           id="XMLID_1198_"
           fill="#713517"
           d="m 152.3,326.4 c -6.7,0 -13.2,-2.7 -18.6,-7.9 -6.9,-6.7 -10.6,-16.1 -10.1,-25.9 0.3,-6.6 2.3,-10.9 5.9,-13 5,-2.8 10.9,0.2 11.2,0.3 l -1.9,3.6 c 0,0 -4.2,-2.1 -7.2,-0.4 -2.8,1.6 -3.6,6.1 -3.8,9.6 -0.4,8.5 2.9,17 8.8,22.7 5,4.8 11.3,7.2 17.6,6.6 l 0.4,4.1 c -0.8,0.3 -1.5,0.3 -2.3,0.3 z" />
      </g>
      <g
         id="XMLID_693_">
        <path
           inkscape:connector-curvature="0"
           id="XMLID_1179_"
           fill="#DC4647"
           d="M 310.4,446.2 H 158 v 0 c 0,-30.2 24.5,-54.7 54.7,-54.7 h 43 c 30.2,0 54.7,24.5 54.7,54.7 z" />
      </g>
      <g
         id="XMLID_659_">
        <path
           inkscape:connector-curvature="0"
           id="XMLID_1194_"
           fill="#713517"
           d="M 312.5,448.3 H 156 v -2.1 c 0,-31.3 25.5,-56.8 56.8,-56.8 h 43 c 31.3,0 56.8,25.5 56.8,56.8 v 2.1 z M 160.1,444.2 H 308.3 C 307.2,416.1 284,393.6 255.7,393.6 h -43 c -28.3,-0.1 -51.5,22.5 -52.6,50.6 z" />
      </g>
      <g
         id="XMLID_658_">
        <path
           inkscape:connector-curvature="0"
           id="XMLID_1274_"
           fill="#F9C68C"
           d="m 251.6,390.1 v -23.6 h -34.8 v 23.6 c 0,22.1 34.8,22.1 34.8,0 z" />
      </g>
      <g
         id="XMLID_692_">
        <path
           inkscape:connector-curvature="0"
           id="XMLID_1191_"
           fill="#713517"
           d="m 234.2,408.7 c -9.7,0 -19.4,-6.4 -19.4,-18.6 v -25.7 h 38.9 v 25.7 c 0,12.2 -9.8,18.6 -19.5,18.6 z m -15.3,-40.2 v 21.6 c 0,10 8,14.5 15.3,14.5 7.4,0 15.3,-4.5 15.3,-14.5 v -21.6 z" />
      </g>
      <g
         id="XMLID_689_">
        <path
           inkscape:connector-curvature="0"
           id="XMLID_1273_"
           fill="#F9C68C"
           d="m 328.7,281.8 c 0,0 13.1,-6.8 14,10.9 0.9,17.8 -13.1,32.9 -28.7,31.5" />
      </g>
      <g
         id="XMLID_662_">
        <path
           inkscape:connector-curvature="0"
           id="XMLID_1272_"
           fill="#F9C68C"
           d="m 328.7,269 c 0,52.1 -42.3,110.9 -94.5,110.9 -52.2,0 -94.5,-58.7 -94.5,-110.9 0,-52.2 42.3,-77.9 94.5,-77.9 52.2,0 94.5,25.8 94.5,77.9 z" />
      </g>
      <g
         id="XMLID_642_">
        <path
           inkscape:connector-curvature="0"
           id="XMLID_1188_"
           fill="#713517"
           d="m 234.2,382 c -54.4,0 -96.5,-60.7 -96.5,-112.9 0,-25.2 9.8,-46 28.5,-60.1 17.1,-13 40.6,-19.8 68,-19.8 27.4,0 50.9,6.9 68,19.8 18.6,14.1 28.5,34.9 28.5,60.1 0,52.2 -42.1,112.9 -96.5,112.9 z m 0,-188.8 c -44.7,0 -92.4,19.9 -92.4,75.8 0,25 10.2,52.6 27.2,73.7 18.3,22.6 41.4,35.1 65.2,35.1 23.8,0 46.9,-12.5 65.2,-35.1 17,-21.1 27.2,-48.7 27.2,-73.7 0,-55.9 -47.7,-75.8 -92.4,-75.8 z" />
      </g>
      <g
         id="XMLID_660_">
        <path
           inkscape:connector-curvature="0"
           id="XMLID_1187_"
           fill="#713517"
           d="m 316.1,326.4 c -0.7,0 -1.5,0 -2.2,-0.1 l 0.4,-4.1 c 6.3,0.6 12.5,-1.8 17.6,-6.6 6,-5.7 9.3,-14.2 8.8,-22.7 -0.2,-3.5 -1,-8 -3.8,-9.6 -3,-1.7 -7.2,0.4 -7.2,0.4 l -1.9,-3.6 c 0.2,-0.1 6.2,-3.2 11.2,-0.3 3.6,2 5.5,6.4 5.9,13 0.5,9.8 -3.2,19.2 -10.1,25.9 -5.4,5 -12,7.7 -18.7,7.7 z" />
      </g>
      <g
         id="XMLID_695_">
        <path
           inkscape:connector-curvature="0"
           id="XMLID_1271_"
           fill="#7B4732"
           d="m 303.9,163.6 13.2,-20.7 -34.8,10.5 v 0 c -6.7,-1.9 -13.8,-3 -21.1,-3 h -52.9 c -41.8,0 -75.7,33.9 -75.7,75.7 v 54.4 c 8.1,9 16,31.5 16,31.5 v -40.8 c 0,-13 10.6,-23.6 23.6,-23.6 h 62.5 l 17.3,-31.9 7.5,32.6 h 38 c 13,0 23.6,10.6 23.6,23.6 v 36.7 L 336.8,281 v -54.9 c 0.1,-25.9 -13,-48.8 -32.9,-62.5 z" />
      </g>
      <g
         id="XMLID_698_">
        <path
           inkscape:connector-curvature="0"
           id="XMLID_1184_"
           fill="#713517"
           d="m 148.6,314 c -0.8,0 -1.6,-0.5 -1.9,-1.3 -5.1,-13.2 -12,-28.4 -14.4,-30.2 -0.4,-0.1 -0.8,-0.2 -1.1,-0.5 -0.4,-0.4 -0.7,-0.9 -0.7,-1.5 v -54.4 c 0,-42.9 34.9,-77.8 77.8,-77.8 h 52.9 c 7.1,0 14.2,1 21.1,2.9 l 34.2,-10.3 c 0.8,-0.2 1.7,0 2.2,0.7 0.5,0.7 0.6,1.6 0.1,2.3 L 306.7,163 c 20.2,14.6 32.3,38.1 32.3,63.1 V 281 c 0,0.4 -0.1,0.8 -0.3,1.1 -0.1,0.2 -11.2,17 -15.6,27.3 -0.4,0.9 -1.3,1.4 -2.3,1.2 -1,-0.2 -1.6,-1 -1.6,-2 v -35.5 c 0,-12.6 -10.2,-22.8 -22.8,-22.8 h -36.7 c -1,0 -1.8,-0.7 -2,-1.6 l -6.3,-27.3 -14.7,27.1 c -0.4,0.7 -1.1,1.1 -1.8,1.1 h -61.3 c -12.6,0 -22.8,10.2 -22.8,22.8 V 312 c 0,1 -0.7,1.8 -1.7,2 -0.3,0 -0.4,0 -0.5,0 z m -14,-34.7 c 2.1,1.7 5.6,6.8 11.9,22 v -28.8 c 0,-14.8 12.1,-26.9 26.9,-26.9 h 60.1 l 16.8,-30.8 c 0.4,-0.7 1.2,-1.2 2.1,-1.1 0.8,0.1 1.5,0.7 1.7,1.6 l 7.2,31 h 35.1 c 14.8,0 26.9,12.1 26.9,26.9 v 26.7 c 4.5,-8.4 10.2,-17.2 11.6,-19.4 v -54.2 c 0,-24.3 -12,-47.1 -32.1,-60.8 -0.9,-0.6 -1.2,-1.9 -0.6,-2.8 l 10.2,-16.1 -29.2,8.8 c -0.4,0.2 -1,0.3 -1.5,0.1 -6.7,-1.9 -13.6,-2.9 -20.6,-2.9 h -52.9 c -40.6,0 -73.7,33 -73.7,73.7 v 53 z" />
      </g>
      <g
         id="XMLID_691_">
        <g
           id="XMLID_661_">
          <circle
             id="XMLID_1270_"
             fill="#713517"
             cx="199"
             cy="288.29999"
             r="6.8000002" />
        </g>
        <g
           id="XMLID_694_">
          <circle
             id="XMLID_1269_"
             fill="#713517"
             cx="269.5"
             cy="288.29999"
             r="6.8000002" />
        </g>
      </g>
      <g
         id="XMLID_729_">
        <g
           id="XMLID_731_">
          <path
             inkscape:connector-curvature="0"
             id="XMLID_1268_"
             fill="#713517"
             d="m 205.8,332.7 h 56.8 c 0,0 -4.6,24.3 -28.4,24.4 -22.9,0.1 -28.4,-24.4 -28.4,-24.4 z" />
        </g>
        <g
           id="XMLID_730_">
          <path
             inkscape:connector-curvature="0"
             id="XMLID_1267_"
             fill="#EF5353"
             d="m 215.6,349.8 c 0,0 7,-8.2 20.7,-7.4 13.7,0.8 17.9,6.3 17.9,6.3 0,0 -4.3,9.2 -18.3,8.3 -13.9,-0.9 -20.3,-7.2 -20.3,-7.2 z" />
        </g>
      </g>
      <g
         id="XMLID_732_">
        <path
           inkscape:connector-curvature="0"
           id="XMLID_1181_"
           fill="#713517"
           d="m 234.1,359.1 c -24.2,0 -30.2,-25.7 -30.3,-26 -0.1,-0.6 0,-1.2 0.4,-1.7 0.4,-0.5 1,-0.8 1.6,-0.8 h 56.8 c 0.6,0 1.2,0.3 1.6,0.7 0.4,0.5 0.5,1.1 0.4,1.7 0,0.3 -5.2,26 -30.4,26.1 0,0 -0.1,0 -0.1,0 z m -25.5,-24.4 c 2,5.9 8.6,20.3 25.5,20.3 0,0 0.1,0 0.1,0 17.5,-0.1 23.9,-14.4 25.7,-20.3 z" />
      </g>
      <g
         id="XMLID_733_">
        <circle
           id="XMLID_1266_"
           fill="#EF5353"
           cx="234.2"
           cy="309.20001"
           r="3.0999999" />
      </g>
    </g>
  </g>
</svg>
