<?xml version="1.0" encoding="UTF-8" standalone="no"?>
<svg
   xmlns:dc="http://purl.org/dc/elements/1.1/"
   xmlns:cc="http://creativecommons.org/ns#"
   xmlns:rdf="http://www.w3.org/1999/02/22-rdf-syntax-ns#"
   xmlns:svg="http://www.w3.org/2000/svg"
   xmlns="http://www.w3.org/2000/svg"
   xmlns:xlink="http://www.w3.org/1999/xlink"
   xmlns:sodipodi="http://sodipodi.sourceforge.net/DTD/sodipodi-0.dtd"
   xmlns:inkscape="http://www.inkscape.org/namespaces/inkscape"
   inkscape:version="1.0beta1 (32d4812, 2019-09-19)"
   id="svg1408"
   version="1.1"
   viewBox="0 0 238.12499 317.50001"
   height="1200"
   width="900">
  <defs
     id="defs1402">
    <clipPath
       id="SVGID_2_">
      <use
         xlink:href="#SVGID_1_"
         overflow="visible"
         id="use1978"
         x="0"
         y="0"
         width="100%"
         height="100%" />
    </clipPath>
    <circle
       id="SVGID_1_"
       cx="231.7"
       cy="310.29999"
       r="136.5" />
    <clipPath
       id="SVGID_4_">
      <use
         height="100%"
         width="100%"
         y="0"
         x="0"
         id="use2092"
         overflow="visible"
         xlink:href="#SVGID_3_" />
    </clipPath>
    <circle
       r="136.5"
       cy="310.29999"
       cx="543.90002"
       id="SVGID_3_" />
    <clipPath
       id="SVGID_6_">
      <use
         height="100%"
         width="100%"
         y="0"
         x="0"
         id="use2158"
         overflow="visible"
         xlink:href="#SVGID_5_" />
    </clipPath>
    <circle
       r="136.5"
       cy="310.29999"
       cx="856.09998"
       id="SVGID_5_" />
    <clipPath
       id="SVGID_8_">
      <use
         height="100%"
         width="100%"
         y="0"
         x="0"
         id="use2256"
         overflow="visible"
         xlink:href="#SVGID_7_" />
    </clipPath>
    <circle
       r="136.5"
       cy="310.29999"
       cx="1168.3"
       id="SVGID_7_" />
    <clipPath
       id="SVGID_10_">
      <use
         height="100%"
         width="100%"
         y="0"
         x="0"
         id="use2342"
         overflow="visible"
         xlink:href="#SVGID_9_" />
    </clipPath>
    <circle
       r="136.5"
       cy="669.70001"
       cx="231.7"
       id="SVGID_9_" />
    <clipPath
       id="SVGID_12_">
      <use
         height="100%"
         width="100%"
         y="0"
         x="0"
         id="use2418"
         overflow="visible"
         xlink:href="#SVGID_11_" />
    </clipPath>
    <circle
       r="136.5"
       cy="669.70001"
       cx="543.90002"
       id="SVGID_11_" />
    <clipPath
       id="SVGID_14_">
      <use
         height="100%"
         width="100%"
         y="0"
         x="0"
         id="use2556"
         overflow="visible"
         xlink:href="#SVGID_13_" />
    </clipPath>
    <circle
       r="136.5"
       cy="669.70001"
       cx="856.09998"
       id="SVGID_13_" />
    <clipPath
       id="SVGID_16_">
      <use
         height="100%"
         width="100%"
         y="0"
         x="0"
         id="use2684"
         overflow="visible"
         xlink:href="#SVGID_15_" />
    </clipPath>
    <circle
       r="136.5"
       cy="669.70001"
       cx="1168.3"
       id="SVGID_15_" />
  </defs>
  <sodipodi:namedview
     inkscape:window-maximized="0"
     inkscape:window-y="134"
     inkscape:window-x="20"
     inkscape:window-height="907"
     inkscape:window-width="1600"
     units="px"
     showgrid="false"
     inkscape:document-rotation="0"
     inkscape:current-layer="layer1"
     inkscape:document-units="mm"
     inkscape:cy="560"
     inkscape:cx="400"
     inkscape:zoom="0.35"
     inkscape:pageshadow="2"
     inkscape:pageopacity="0.0"
     borderopacity="1.0"
     bordercolor="#666666"
     pagecolor="#ffffff"
     id="base" />
  <metadata
     id="metadata1405">
    <rdf:RDF>
      <cc:Work
         rdf:about="">
        <dc:format>image/svg+xml</dc:format>
        <dc:type
           rdf:resource="http://purl.org/dc/dcmitype/StillImage" />
        <dc:title></dc:title>
      </cc:Work>
    </rdf:RDF>
  </metadata>
  <g
     id="layer1"
     inkscape:groupmode="layer"
     inkscape:label="Layer 1">
    <g
       transform="matrix(1.0583333,0,0,1.0583333,-1085.3101,-564.23256)"
       id="XMLID_1_">
      <path
         inkscape:connector-curvature="0"
         id="XMLID_276_"
         fill="#1A1815"
         d="m 1053.1,793.7 c -0.1,-14.6 -0.3,-28.5 1.7,-42.3 2.2,-15.2 6.8,-29.4 17.8,-40.7 1.3,-1.3 1.5,-2.6 1.4,-4.3 -0.9,-10.8 -3.9,-21.1 -6.2,-31.6 -3.2,-14.3 -6.9,-28.5 -8.3,-43.2 -1.9,-20.2 0.3,-39.9 9.3,-58.4 5.4,-11.2 13.8,-18.6 26.6,-20 1,-0.1 1.8,-0.5 2.6,-1.1 19.6,-14.5 41.1,-17.5 64,-9.9 16.2,5.4 29.7,14.9 39.3,29.4 6.2,9.3 8.7,19.9 9.6,30.9 1.4,16.7 0.6,33.3 -0.6,50 -0.4,6 -3.1,11.5 -4.1,17.3 -2.2,12.5 -4.1,25.1 -6.2,37.6 -0.2,1.3 0.1,2.3 1.1,3.3 11.9,11.1 17.2,25.5 19.5,41 3.5,23.4 2.4,47 1,70.6 -0.5,9 -1.6,9.4 -10.8,9.7 -30.1,0.8 -60.1,-2.3 -90.2,-1 -17.7,0.7 -35.3,1.1 -53,2.1 -9,0.5 -13.5,-4.7 -13.7,-12.6 -0.1,-9.1 -1.1,-18.3 -0.8,-26.8 z m 8.4,2.6 c 0,8.2 0,16.4 0,24.7 0,7.6 -0.1,7.5 7.5,6.8 17.1,-1.6 34.2,-2.4 51.4,-2.9 30.1,-0.9 60.1,2 90.1,1.1 2.6,-0.1 3.6,-0.4 3.6,-3.4 -0.2,-14.4 -0.1,-28.7 -0.1,-43.1 0,-9.1 -0.3,-18.1 -1.7,-27.1 -2.7,-18 -9.4,-33.6 -25.5,-43.9 -3.3,-2.1 -5.2,-2.9 -8.7,0.3 -6.5,5.9 -15.1,6.4 -23.4,7.1 -10.5,0.9 -21.1,0.8 -31.6,0.1 -10.7,-0.7 -20.9,-2.8 -29.2,-10.1 -1.3,-1.2 -2.2,-1 -3.5,-0.1 -7.1,4.5 -13.3,10 -17.7,17.1 -5.1,8.2 -7.6,17.4 -9.1,26.9 -2.8,15.3 -2,30.9 -2.1,46.5 z m 127.1,-181.5 c 0,-4.9 0.1,-8.8 0,-12.7 -0.1,-2.2 -0.3,-4.4 0.5,-6.5 0.4,-1.1 0.9,-2.1 2.2,-2.2 1.2,-0.1 2.2,0.6 2.7,1.6 0.8,1.6 1.6,3.3 2.1,5.1 2.1,7.2 1.7,14.6 1.7,21.9 0,1 -0.7,2.7 0.5,3 3.7,1 4.9,4.3 6.7,7.1 1.1,-0.8 0.9,-1.7 0.9,-2.5 0,-9.9 0.2,-19.9 -0.9,-29.8 -1.3,-11.2 -4.6,-21.6 -12,-30.3 -12.9,-15.3 -29.6,-24.4 -49.3,-26.3 -16.3,-1.5 -32.2,1 -44.8,13.4 -0.6,0.5 -1.5,0.8 -2.4,0.9 -11.3,1.7 -18.9,8.1 -23.5,18.3 -6.5,14.4 -9.2,29.6 -8.9,45.4 0.1,3.8 0.3,7.6 0.5,11.4 2.2,-2.4 3,-5.6 5.8,-6.8 3.1,-1.4 3.4,-3.8 3.4,-6.6 0,-1.2 -0.3,-2.4 -0.3,-3.7 0.1,-5.9 -0.2,-11.8 1.7,-17.5 0.6,-1.7 1.8,-3.1 3.9,-2.6 2.2,0.5 1.8,2.2 1.6,3.8 -0.6,4.4 -0.8,8.8 -0.5,13.2 0.1,1.4 0.3,2.6 2.1,1.6 6.9,-3.7 13.4,-7.8 17.1,-15.1 0.6,-1.3 1.5,-2.5 0.9,-4.2 -0.5,-1.3 -1.4,-3 1,-3.4 2,-0.3 4.1,-0.4 4.1,2.5 0,1.3 0.6,2.3 1.5,3.3 5.6,5.9 11.9,11 19.1,14.8 1,0.5 2.3,1.8 3.2,0.5 0.7,-1 -0.7,-1.9 -1.3,-2.8 -3.6,-4.7 -7.1,-9.4 -9.1,-15 -0.4,-1.1 -0.9,-2.2 0.2,-3 1.2,-0.8 1.7,0.6 2.4,1.1 3.6,2.5 6.8,5.6 10.7,7.8 8.8,4.9 18.4,5.5 28.1,5.6 10.1,0 20.2,-0.1 28.4,8.7 z m -84.3,-13.5 c -6.8,10.8 -8.2,11.9 -20,17.8 -0.2,0.1 -0.4,0.2 -0.7,0.3 -2.3,0.7 -2.7,2.1 -2.2,4.5 2.8,13.9 9.2,25.8 19.5,35.5 14.8,14.1 36.7,16.7 54.3,6.2 11.3,-6.8 20.4,-16 27.6,-27 3.3,-5 5.2,-10.5 5.6,-16.5 0.1,-1 0.5,-2.1 -0.4,-2.7 -5.1,-3.4 -9.5,-7.8 -16.4,-8.2 -9.5,-0.5 -19.1,0.2 -28.6,-2 -4.9,-1.1 -9.3,-3.1 -14.5,-5.9 5,7.1 10.8,11.8 17.9,15 -11,6.5 -25.2,0.6 -42.1,-17 z m 91.2,104.6 c 2.5,-19.8 6.2,-39 9.1,-58.5 -4.4,7.7 -11.3,7.4 -18.3,6.5 -2.1,-0.3 -3.1,0.2 -4.4,1.6 -5.9,6.6 -12.2,13.1 -20,17.2 -6.1,3.2 -7.5,7.3 -7.1,13.4 0.2,3.4 1.5,4.9 4.5,4.7 8.1,-0.5 15,2.9 21.9,6.4 4.9,2.4 9.3,5.6 14.3,8.7 z m -99.3,-3.6 c 3.8,2.6 7.3,4.7 11.3,5.5 19.9,4 39.9,3.4 59.9,0.1 3.2,-0.5 6.1,-1.7 8.8,-3.4 0.9,-0.6 1.8,-1.2 0.2,-2 -6.1,-3.3 -12.3,-6.4 -19.4,-6.7 -6.3,-0.3 -8,-1.6 -7.8,-8 0,-2.1 0.2,-4.2 0.7,-6.2 0.6,-2.5 -0.2,-2.7 -2.3,-2.1 -5.8,1.8 -11.8,2.6 -17.8,2 -3.8,-0.4 -5.5,0.1 -5.9,4.6 -0.5,6.6 -2.8,8.5 -7.9,9.3 -1.7,0.3 -3,-1.4 -4.9,-0.5 -4.9,2.2 -9.9,4.3 -14.9,7.4 z m -17,2.3 c 5.4,-3.4 10.3,-7 15.8,-9.8 5.5,-2.7 11,-5.5 17.2,-6 4.4,-0.3 5.1,-1 5.7,-5.6 0.3,-2.3 -0.2,-3.7 -2.7,-4.3 -3.2,-0.8 -6.2,-2.3 -9,-4 -8.2,-5 -14.5,-11.9 -19.9,-19.8 -0.6,-0.8 -0.8,-2.7 -2.6,-1.8 -5.4,2.5 -10.4,1.1 -15.8,-1.6 3.8,17.9 7.5,35.2 11.3,52.9 z m -8.5,-67.1 c -0.1,7.3 2.9,11 9.2,11.8 2.2,0.3 2.7,-0.2 1.7,-2.3 -2.4,-4.8 -4.5,-9.8 -5.6,-15.1 -0.2,-0.8 -0.5,-1.3 -1.3,-1.4 -1,-0.1 -1.7,0.4 -2.2,1.1 -1.4,1.8 -1.9,4 -1.8,5.9 z m 116,12.6 c 4.6,-2 7.8,-4.2 10.7,-7 3.1,-3.1 3,-6.8 2.4,-10.6 -0.2,-1.2 -0.9,-1.7 -1.9,-1.9 -0.7,-0.1 -1.5,0 -1.7,0.9 -1.5,6.5 -5.3,12.1 -9.5,18.6 z" />
      <path
         inkscape:connector-curvature="0"
         id="XMLID_275_"
         fill="#BA9FCB"
         d="m 1061.5,796.3 c 0.1,-15.6 -0.6,-31.2 2,-46.6 1.6,-9.5 4,-18.7 9.1,-26.9 4.5,-7.1 10.7,-12.6 17.7,-17.1 1.3,-0.8 2.2,-1 3.5,0.1 8.3,7.4 18.5,9.4 29.2,10.1 10.6,0.7 21.1,0.8 31.6,-0.1 8.3,-0.7 17,-1.2 23.4,-7.1 3.5,-3.2 5.3,-2.4 8.7,-0.3 16.2,10.3 22.8,25.9 25.5,43.9 1.3,9 1.7,18.1 1.7,27.1 -0.1,14.4 -0.1,28.7 0.1,43.1 0,2.9 -1,3.3 -3.6,3.4 -30.1,0.9 -60.1,-2 -90.1,-1.1 -17.2,0.5 -34.3,1.3 -51.4,2.9 -7.6,0.7 -7.6,0.8 -7.5,-6.8 0.1,-8.1 0.1,-16.4 0.1,-24.6 z" />
      <path
         inkscape:connector-curvature="0"
         id="XMLID_274_"
         fill="#F9E861"
         d="m 1188.6,614.8 c -8.2,-8.8 -18.3,-8.7 -28.4,-8.8 -9.7,-0.1 -19.3,-0.7 -28.1,-5.6 -3.9,-2.2 -7.1,-5.2 -10.7,-7.8 -0.7,-0.5 -1.2,-1.9 -2.4,-1.1 -1.1,0.8 -0.6,2 -0.2,3 2,5.6 5.5,10.4 9.1,15 0.6,0.8 2,1.7 1.3,2.8 -1,1.4 -2.3,0 -3.2,-0.5 -7.3,-3.8 -13.5,-8.9 -19.1,-14.8 -0.9,-0.9 -1.4,-2 -1.5,-3.3 -0.1,-2.9 -2.2,-2.8 -4.1,-2.5 -2.4,0.4 -1.5,2.1 -1,3.4 0.6,1.6 -0.2,2.9 -0.9,4.2 -3.7,7.3 -10.2,11.4 -17.1,15.1 -1.9,1 -2,-0.2 -2.1,-1.6 -0.3,-4.4 -0.2,-8.8 0.5,-13.2 0.2,-1.7 0.6,-3.3 -1.6,-3.8 -2.1,-0.5 -3.3,0.8 -3.9,2.6 -1.9,5.7 -1.6,11.6 -1.7,17.5 0,1.2 0.3,2.4 0.3,3.7 0,2.8 -0.3,5.2 -3.4,6.6 -2.8,1.2 -3.6,4.4 -5.8,6.8 -0.2,-3.8 -0.4,-7.6 -0.5,-11.4 -0.3,-15.8 2.4,-31 8.9,-45.4 4.6,-10.2 12.2,-16.6 23.5,-18.3 0.8,-0.1 1.8,-0.4 2.4,-0.9 12.6,-12.4 28.4,-14.9 44.8,-13.4 19.8,1.9 36.4,11 49.3,26.3 7.4,8.7 10.7,19.1 12,30.3 1.1,9.9 0.9,19.9 0.9,29.8 0,0.8 0.3,1.7 -0.9,2.5 -1.8,-2.7 -3,-6.1 -6.7,-7.1 -1.2,-0.3 -0.5,-2 -0.5,-3 0,-7.4 0.4,-14.7 -1.7,-21.9 -0.5,-1.7 -1.3,-3.4 -2.1,-5.1 -0.5,-1 -1.4,-1.8 -2.7,-1.6 -1.3,0.1 -1.8,1.1 -2.2,2.2 -0.8,2.1 -0.6,4.3 -0.5,6.5 0.1,4 0,7.9 0,12.8 z" />
      <path
         inkscape:connector-curvature="0"
         id="XMLID_273_"
         fill="#FADFC3"
         d="m 1104.3,601.3 c 16.8,17.7 31.1,23.5 42.1,17 -7.1,-3.2 -12.9,-7.9 -17.9,-15 5.2,2.8 9.7,4.8 14.5,5.9 9.4,2.1 19,1.4 28.6,2 6.9,0.4 11.3,4.7 16.4,8.2 1,0.6 0.5,1.8 0.4,2.7 -0.4,6 -2.3,11.5 -5.6,16.5 -7.3,11 -16.3,20.2 -27.6,27 -17.6,10.5 -39.5,7.9 -54.3,-6.2 -10.3,-9.8 -16.6,-21.6 -19.5,-35.5 -0.5,-2.4 -0.1,-3.8 2.2,-4.5 0.2,-0.1 0.4,-0.2 0.7,-0.3 11.9,-5.9 13.2,-7.1 20,-17.8 z" />
      <path
         inkscape:connector-curvature="0"
         id="XMLID_272_"
         fill="#F7E660"
         d="m 1195.5,705.9 c -5,-3.1 -9.4,-6.3 -14.2,-8.7 -6.9,-3.5 -13.8,-6.8 -21.9,-6.4 -3,0.2 -4.3,-1.4 -4.5,-4.7 -0.4,-6.2 1,-10.2 7.1,-13.4 7.8,-4.1 14.1,-10.6 20,-17.2 1.2,-1.4 2.3,-1.8 4.4,-1.6 6.9,0.9 13.9,1.2 18.3,-6.5 -2.9,19.5 -6.7,38.6 -9.2,58.5 z" />
      <path
         inkscape:connector-curvature="0"
         id="XMLID_271_"
         fill="#FADFC3"
         d="m 1096.2,702.3 c 5,-3.1 10,-5.2 14.9,-7.5 1.9,-0.9 3.1,0.8 4.9,0.5 5.1,-0.8 7.4,-2.7 7.9,-9.3 0.3,-4.4 2.1,-5 5.9,-4.6 6,0.6 12,-0.2 17.8,-2 2.2,-0.7 2.9,-0.4 2.3,2.1 -0.5,2 -0.7,4.1 -0.7,6.2 -0.2,6.3 1.5,7.7 7.8,8 7.1,0.3 13.3,3.3 19.4,6.7 1.6,0.9 0.7,1.5 -0.2,2 -2.7,1.8 -5.6,2.9 -8.8,3.4 -20,3.2 -39.9,3.9 -59.9,-0.1 -4,-0.7 -7.5,-2.8 -11.3,-5.4 z" />
      <path
         inkscape:connector-curvature="0"
         id="XMLID_270_"
         fill="#F7E660"
         d="m 1079.2,704.6 c -3.8,-17.7 -7.5,-35.1 -11.3,-52.9 5.4,2.6 10.5,4.1 15.8,1.6 1.8,-0.8 2,1 2.6,1.8 5.3,7.9 11.7,14.8 19.9,19.8 2.8,1.7 5.8,3.2 9,4 2.5,0.6 3,2 2.7,4.3 -0.5,4.6 -1.3,5.3 -5.7,5.6 -6.2,0.5 -11.7,3.2 -17.2,6 -5.5,2.8 -10.5,6.4 -15.8,9.8 z" />
      <path
         inkscape:connector-curvature="0"
         id="XMLID_56_"
         fill="#FADFC3"
         d="m 1070.7,637.5 c -0.1,-1.9 0.4,-4 1.7,-5.9 0.5,-0.7 1.2,-1.2 2.2,-1.1 0.9,0.1 1.2,0.6 1.3,1.4 1.2,5.3 3.2,10.3 5.6,15.1 1.1,2.1 0.5,2.6 -1.7,2.3 -6.2,-0.8 -9.2,-4.5 -9.1,-11.8 z" />
      <path
         inkscape:connector-curvature="0"
         id="XMLID_55_"
         fill="#FADFC3"
         d="m 1186.7,650.1 c 4.1,-6.5 7.9,-12 9.5,-18.7 0.2,-0.9 1,-1 1.7,-0.9 1,0.2 1.8,0.7 1.9,1.9 0.5,3.8 0.7,7.5 -2.4,10.6 -2.8,2.9 -6,5.1 -10.7,7.1 z" />
    </g>
  </g>
</svg>
