<?xml version="1.0" encoding="UTF-8" standalone="no"?>
<svg
   xmlns:dc="http://purl.org/dc/elements/1.1/"
   xmlns:cc="http://creativecommons.org/ns#"
   xmlns:rdf="http://www.w3.org/1999/02/22-rdf-syntax-ns#"
   xmlns:svg="http://www.w3.org/2000/svg"
   xmlns="http://www.w3.org/2000/svg"
   xmlns:xlink="http://www.w3.org/1999/xlink"
   xmlns:sodipodi="http://sodipodi.sourceforge.net/DTD/sodipodi-0.dtd"
   xmlns:inkscape="http://www.inkscape.org/namespaces/inkscape"
   inkscape:version="1.0beta1 (32d4812, 2019-09-19)"
   id="svg1408"
   version="1.1"
   viewBox="0 0 238.12499 317.50001"
   height="1200"
   width="900">
  <defs
     id="defs1402">
    <clipPath
       id="SVGID_2_">
      <use
         xlink:href="#SVGID_1_"
         overflow="visible"
         id="use1978"
         x="0"
         y="0"
         width="100%"
         height="100%" />
    </clipPath>
    <circle
       id="SVGID_1_"
       cx="231.7"
       cy="310.29999"
       r="136.5" />
    <clipPath
       id="SVGID_4_">
      <use
         height="100%"
         width="100%"
         y="0"
         x="0"
         id="use2092"
         overflow="visible"
         xlink:href="#SVGID_3_" />
    </clipPath>
    <circle
       r="136.5"
       cy="310.29999"
       cx="543.90002"
       id="SVGID_3_" />
    <clipPath
       id="SVGID_6_">
      <use
         height="100%"
         width="100%"
         y="0"
         x="0"
         id="use2158"
         overflow="visible"
         xlink:href="#SVGID_5_" />
    </clipPath>
    <circle
       r="136.5"
       cy="310.29999"
       cx="856.09998"
       id="SVGID_5_" />
    <clipPath
       id="SVGID_8_">
      <use
         height="100%"
         width="100%"
         y="0"
         x="0"
         id="use2256"
         overflow="visible"
         xlink:href="#SVGID_7_" />
    </clipPath>
    <circle
       r="136.5"
       cy="310.29999"
       cx="1168.3"
       id="SVGID_7_" />
    <clipPath
       id="SVGID_10_">
      <use
         height="100%"
         width="100%"
         y="0"
         x="0"
         id="use2342"
         overflow="visible"
         xlink:href="#SVGID_9_" />
    </clipPath>
    <circle
       r="136.5"
       cy="669.70001"
       cx="231.7"
       id="SVGID_9_" />
  </defs>
  <sodipodi:namedview
     inkscape:window-maximized="0"
     inkscape:window-y="134"
     inkscape:window-x="20"
     inkscape:window-height="907"
     inkscape:window-width="1600"
     units="px"
     showgrid="false"
     inkscape:document-rotation="0"
     inkscape:current-layer="layer1"
     inkscape:document-units="mm"
     inkscape:cy="560"
     inkscape:cx="400"
     inkscape:zoom="0.35"
     inkscape:pageshadow="2"
     inkscape:pageopacity="0.0"
     borderopacity="1.0"
     bordercolor="#666666"
     pagecolor="#ffffff"
     id="base" />
  <metadata
     id="metadata1405">
    <rdf:RDF>
      <cc:Work
         rdf:about="">
        <dc:format>image/svg+xml</dc:format>
        <dc:type
           rdf:resource="http://purl.org/dc/dcmitype/StillImage" />
        <dc:title></dc:title>
      </cc:Work>
    </rdf:RDF>
  </metadata>
  <g
     id="layer1"
     inkscape:groupmode="layer"
     inkscape:label="Layer 1">
    <g
       transform="matrix(1.2567708,0,0,1.2567708,-171.95144,-695.70863)"
       style="opacity:1;stop-opacity:1"
       id="g2409">
      <defs
         id="defs2340">
        <circle
           r="136.5"
           cy="669.70001"
           cx="231.7"
           id="circle5623" />
      </defs>
      <clipPath
         id="clipPath5542">
        <use
           height="100%"
           width="100%"
           y="0"
           x="0"
           id="use5540"
           overflow="visible"
           xlink:href="#SVGID_9_" />
      </clipPath>
      <g
         id="g2407"
         clip-path="url(#SVGID_10_)">
        <g
           id="g2347">
          <path
             inkscape:connector-curvature="0"
             id="path2345"
             d="M 315.3,756.5 C 299.5,738 256.4,732.8 233.7,732.2 v -0.1 c -0.7,0 -1.4,0 -2.1,0 -0.7,0 -1.5,0 -2.1,0 v 0.1 c -22.7,0.6 -65.7,5.8 -81.6,24.3 C 131,776.2 131,812.7 131,812.7 h 201.1 c 0.1,0 0.1,-36.5 -16.8,-56.2 z"
             fill="#F69321" />
        </g>
        <g
           id="g2351">
          <rect
             id="rect2349"
             height="14.1"
             width="138.3"
             fill="#FFFFFF"
             y="794.90002"
             x="163" />
        </g>
        <g
           id="g2355">
          <path
             inkscape:connector-curvature="0"
             id="path2353"
             d="m 244.7,741.2 c 0,0 -4.5,13.4 -12.6,13.4 -8.2,0 -13.4,-13.4 -13.4,-13.4 v -22.3 h 26 z"
             fill="#FBB36B" />
        </g>
        <g
           id="g2401">
          <g
             id="g2359">
            <path
               inkscape:connector-curvature="0"
               id="path2357"
               d="m 197.5,675 c 0,7.4 -6,13.4 -13.4,13.4 v 0 c -7.4,0 -13.4,-6 -13.4,-13.4 v -11.9 c 0,-7.4 6,-13.4 13.4,-13.4 v 0 c 7.4,0 13.4,6 13.4,13.4 z"
               fill="#FBB36B" />
          </g>
          <g
             id="g2363">
            <path
               inkscape:connector-curvature="0"
               id="path2361"
               d="m 265.9,675 c 0,7.4 6,13.4 13.4,13.4 v 0 c 7.4,0 13.4,-6 13.4,-13.4 v -11.9 c 0,-7.4 -6,-13.4 -13.4,-13.4 v 0 c -7.4,0 -13.4,6 -13.4,13.4 z"
               fill="#FBB36B" />
          </g>
          <g
             id="g2367">
            <path
               inkscape:connector-curvature="0"
               id="path2365"
               d="m 278.5,608.2 h -0.2 c -1.7,-40 -46.7,-37.7 -46.7,-37.7 0,0 -45,-2.3 -46.7,37.7 h -0.1 c 0,0 0,0.8 0,2.1 0,0 0,0 0,0.1 0,42.4 0,78.8 0,78.8 h 0.2 c 1.7,40 46.7,37.7 46.7,37.7 0,0 45,2.3 46.7,-37.7 h 0.2 c 0,0 0,-0.8 0,-2.1 0,0 0,0 0,-0.1 -0.1,-42.4 -0.1,-78.8 -0.1,-78.8 z"
               fill="#FECE8B" />
          </g>
          <g
             id="g2371">
            <path
               inkscape:connector-curvature="0"
               id="path2369"
               d="m 278.3,608.1 c -1.7,-40 -46.7,-37.7 -46.7,-37.7 0,0 -1.2,0 -3,0 10,0.3 42.2,3.9 43.6,37.7 h 0.2 c 0,0 0,36.4 0,78.8 0,0 0,0 0,0.1 0,1.3 0,2.1 0,2.1 h -0.2 c -1.4,33.7 -33.6,37.4 -43.6,37.7 1.9,0.1 3,0 3,0 0,0 45,2.3 46.7,-37.7 h 0.2 c 0,0 0,-0.8 0,-2.1 0,0 0,0 0,-0.1 0,-42.4 0,-78.8 0,-78.8 z"
               fill="#FBB36B" />
          </g>
          <g
             id="g2375">
            <path
               inkscape:connector-curvature="0"
               id="path2373"
               d="m 242.6,688 c 0,0 -5.6,-6.3 -9.7,-6.3 -4.1,0 -9.4,5.6 -9.4,5.6 0,0 3.4,6.6 9.7,6.6 6.3,0.1 9.4,-5.9 9.4,-5.9 z"
               fill="#FBB36B" />
          </g>
          <g
             id="g2379">
            <path
               inkscape:connector-curvature="0"
               id="path2377"
               d="m 254.2,654.1 c 0,3.2 -1.1,5.8 -2.5,5.8 -1.4,0 -2.5,-2.6 -2.5,-5.8 0,-3.2 1.1,-5.8 2.5,-5.8 1.3,0.1 2.5,2.6 2.5,5.8 z"
               fill="#3C362D" />
          </g>
          <g
             id="g2383">
            <path
               inkscape:connector-curvature="0"
               id="path2381"
               d="m 215.4,654.1 c 0,3.2 -1.1,5.8 -2.5,5.8 -1.4,0 -2.5,-2.6 -2.5,-5.8 0,-3.2 1.1,-5.8 2.5,-5.8 1.4,0.1 2.5,2.6 2.5,5.8 z"
               fill="#3C362D" />
          </g>
          <g
             id="g2387">
            <path
               inkscape:connector-curvature="0"
               id="path2385"
               d="m 212.1,704.5 c -0.3,-0.4 -0.1,-1 0.3,-1.3 v 0 c 0.4,-0.3 1,-0.1 1.3,0.3 v 0 c 0.1,0 4.9,8.3 19.5,8.3 v 0 c 14.5,0 20.1,-9.8 20.1,-9.8 v 0 c 0.2,-0.5 0.8,-0.6 1.3,-0.4 v 0 c 0.4,0.3 0.6,0.8 0.4,1.3 v 0 c -0.1,0.1 -6.3,10.8 -21.7,10.8 v 0 c -15.5,0 -21.1,-9.1 -21.2,-9.2 z"
               fill="#3C362D" />
          </g>
          <g
             id="g2391">
            <path
               inkscape:connector-curvature="0"
               id="path2389"
               d="m 217,576.9 c 1.1,1.4 -2.9,6.5 -9.1,11.4 -6.1,4.9 -12,7.7 -13.2,6.3 -1.1,-1.4 2.9,-6.5 9.1,-11.4 6.2,-5 12.1,-7.8 13.2,-6.3 z"
               fill="#FFE4A6" />
          </g>
          <g
             id="g2395">
            <path
               inkscape:connector-curvature="0"
               id="path2393"
               d="m 223,640.7 c 0,0 -1.1,-0.8 -2.7,-1.6 v 0 c -1.6,-0.8 -3.7,-1.6 -5.8,-1.6 v 0 c -4.4,0 -11.6,2.1 -11.6,2.1 v 0 0 c -0.5,0.2 -1,-0.1 -1.2,-0.6 v 0 c -0.2,-0.5 0.1,-1 0.6,-1.2 v 0 c 0,0 7.2,-2.2 12.1,-2.2 v 0 c 5.1,0 9.6,3.6 9.7,3.7 v 0 c 0.4,0.3 0.5,0.9 0.2,1.3 v 0 c -0.2,0.2 -0.5,0.4 -0.7,0.4 v 0 c -0.3,-0.1 -0.5,-0.2 -0.6,-0.3 z"
               fill="#3C362D" />
          </g>
          <g
             id="g2399">
            <path
               inkscape:connector-curvature="0"
               id="path2397"
               d="m 241.2,640.5 c -0.3,-0.4 -0.2,-1 0.2,-1.3 v 0 c 0.1,0 4.5,-3.6 9.7,-3.6 v 0 c 4.9,0 12.1,2.2 12.1,2.2 v 0 c 0.5,0.2 0.8,0.7 0.6,1.2 v 0 c -0.2,0.5 -0.7,0.8 -1.2,0.6 v 0 c 0,0 -7.2,-2.2 -11.6,-2.1 v 0 c -4.3,0 -8.5,3.2 -8.5,3.2 v 0 c -0.2,0.1 -0.4,0.2 -0.6,0.2 v 0 c -0.2,0 -0.5,-0.2 -0.7,-0.4 z"
               fill="#3C362D" />
          </g>
        </g>
        <g
           id="g2405">
          <path
             inkscape:connector-curvature="0"
             id="path2403"
             d="m 157.5,812.7 h 9.7 v -48.4 c 0,0 -9.7,39.4 -9.7,46.3 -0.1,0.7 0,1.5 0,2.1 z m 138.7,-48.4 v 48.4 h 9.7 c 0,-0.7 0,-1.4 0,-2.2 0,-6.8 -9.7,-46.2 -9.7,-46.2 z"
             fill="#CF712C" />
        </g>
      </g>
    </g>
  </g>
</svg>
