<?xml version="1.0" encoding="UTF-8" standalone="no"?>
<svg
   xmlns:dc="http://purl.org/dc/elements/1.1/"
   xmlns:cc="http://creativecommons.org/ns#"
   xmlns:rdf="http://www.w3.org/1999/02/22-rdf-syntax-ns#"
   xmlns:svg="http://www.w3.org/2000/svg"
   xmlns="http://www.w3.org/2000/svg"
   xmlns:xlink="http://www.w3.org/1999/xlink"
   xmlns:sodipodi="http://sodipodi.sourceforge.net/DTD/sodipodi-0.dtd"
   xmlns:inkscape="http://www.inkscape.org/namespaces/inkscape"
   inkscape:version="1.0beta1 (32d4812, 2019-09-19)"
   id="svg1408"
   version="1.1"
   viewBox="0 0 238.12499 317.50001"
   height="1200"
   width="900">
  <defs
     id="defs1402">
    <clipPath
       id="SVGID_2_">
      <use
         xlink:href="#SVGID_1_"
         overflow="visible"
         id="use1978"
         x="0"
         y="0"
         width="100%"
         height="100%" />
    </clipPath>
    <circle
       id="SVGID_1_"
       cx="231.7"
       cy="310.29999"
       r="136.5" />
  </defs>
  <sodipodi:namedview
     inkscape:window-maximized="0"
     inkscape:window-y="25"
     inkscape:window-x="0"
     inkscape:window-height="907"
     inkscape:window-width="1600"
     units="px"
     showgrid="false"
     inkscape:document-rotation="0"
     inkscape:current-layer="layer1"
     inkscape:document-units="mm"
     inkscape:cy="560"
     inkscape:cx="400"
     inkscape:zoom="0.35"
     inkscape:pageshadow="2"
     inkscape:pageopacity="0.0"
     borderopacity="1.0"
     bordercolor="#666666"
     pagecolor="#ffffff"
     id="base" />
  <metadata
     id="metadata1405">
    <rdf:RDF>
      <cc:Work
         rdf:about="">
        <dc:format>image/svg+xml</dc:format>
        <dc:type
           rdf:resource="http://purl.org/dc/dcmitype/StillImage" />
        <dc:title></dc:title>
      </cc:Work>
    </rdf:RDF>
  </metadata>
  <g
     id="layer1"
     inkscape:groupmode="layer"
     inkscape:label="Layer 1">
    <g
       transform="matrix(1.2402344,0,0,1.2402343,-168.2378,-236.63667)"
       id="g2083"
       style="opacity:1;stop-opacity:1">
      <defs
         id="defs1976">
        <circle
           r="136.5"
           cy="310.29999"
           cx="231.7"
           id="circle4513" />
      </defs>
      <clipPath
         id="clipPath4390">
        <use
           height="100%"
           width="100%"
           y="0"
           x="0"
           id="use4388"
           overflow="visible"
           xlink:href="#SVGID_1_" />
      </clipPath>
      <g
         id="g2081"
         clip-path="url(#SVGID_2_)">
        <g
           id="g1983">
          <path
             inkscape:connector-curvature="0"
             id="path1981"
             d="m 195.6,305.2 c 0,6.9 -5.6,12.5 -12.5,12.5 v 0 c -6.9,0 -12.5,-5.6 -12.5,-12.5 v -10.3 c 0,-6.9 5.6,-12.5 12.5,-12.5 v 0 c 6.9,0 12.5,5.6 12.5,12.5 z"
             fill="#FBB36B" />
        </g>
        <g
           id="g1987">
          <path
             inkscape:connector-curvature="0"
             id="path1985"
             d="m 286.1,242.9 c 0,0 5.5,39.6 3.8,71.7 -1.7,32 -11.1,48.1 -11.1,48.1 0,0 -15.4,-16 -51.9,-10.8 -36.4,5.2 -39.6,9.6 -39.6,9.6 0,0 -11.7,-32.6 -11.7,-41.1 0,-8.4 9.3,-74.9 9.3,-74.9 0,0 6.7,-18.4 17.8,-20.1 11.2,-1.7 83.4,17.5 83.4,17.5 z"
             fill="#353028" />
        </g>
        <g
           id="g1991">
          <path
             inkscape:connector-curvature="0"
             id="path1989"
             d="m 265,315.3 c 0,6.9 5.6,12.5 12.5,12.5 v 0 c 6.9,0 12.5,-5.6 12.5,-12.5 V 305 c 0,-6.9 -5.6,-12.5 -12.5,-12.5 v 0 c -6.9,0 -12.5,5.6 -12.5,12.5 z"
             fill="#FBB36B" />
        </g>
        <g
           id="g2005">
          <g
             id="g1995">
            <path
               inkscape:connector-curvature="0"
               id="path1993"
               d="m 281.7,378.1 c -22.5,-5.6 -42,-9 -48.8,-10.1 v -0.4 c 0,0 -0.5,0.1 -1.3,0.2 -0.8,-0.1 -1.3,-0.2 -1.3,-0.2 v 0.4 c -6.7,1.1 -26.2,4.5 -48.8,10.1 -28,7 -26.8,68.7 -26.8,68.7 h 153.6 c 0.2,0 1.3,-61.7 -26.6,-68.7 z"
               fill="#FECE8B" />
          </g>
          <g
             id="g1999">
            <path
               inkscape:connector-curvature="0"
               id="path1997"
               d="m 239.9,350.1 -8.4,-1.7 -8.4,1.7 c 0,0 -6.4,17.5 -6.4,25.1 0,7.6 14.9,11.1 14.9,11.1 0,0 14.9,-3.5 14.9,-11.1 -0.2,-7.6 -6.6,-25.1 -6.6,-25.1 z"
               fill="#FBB36B" />
          </g>
          <g
             id="g2003">
            <path
               inkscape:connector-curvature="0"
               id="path2001"
               d="m 175,381.2 c 1.1,6.7 2.9,19.3 2.9,32.6 0,0 -5.2,16.1 -5.7,33 h 117.5 c -0.5,-16.9 -5.7,-33 -5.7,-33 0,-13.9 2,-27 3.1,-33.5 -1.7,-1 -3.5,-1.8 -5.4,-2.3 -3.6,-0.9 -7.1,-1.7 -10.5,-2.5 -3.7,28.3 -34.6,33.2 -40.2,33.9 -5.6,-0.7 -36.4,-5.5 -40.2,-33.6 -3,0.7 -6,1.4 -9.1,2.2 -2.5,0.7 -4.7,1.9 -6.7,3.2 z"
               fill="#6CA0CA" />
          </g>
        </g>
        <g
           id="g2009">
          <path
             inkscape:connector-curvature="0"
             id="path2007"
             d="m 231.7,236.5 -48.2,12.7 c 0,0 0,4.1 0,52 0,47.9 48.2,65.3 48.2,65.3 0,0 48.2,-17.3 48.2,-65.3 0,-47.9 0,-52 0,-52 z"
             fill="#FECE8B" />
        </g>
        <g
           id="g2013">
          <path
             inkscape:connector-curvature="0"
             id="path2011"
             d="m 270.1,252.2 c 0,0 11.1,45.4 11.1,46.3 0,0.9 6.1,-46.3 5.2,-51.3 -0.8,-4.9 -16.3,5 -16.3,5 z"
             fill="#3C362D" />
        </g>
        <g
           id="g2023">
          <g
             id="g2017">
            <path
               inkscape:connector-curvature="0"
               id="path2015"
               d="m 258.9,294.8 c 0,4 -1.4,7.2 -3.1,7.2 -1.7,0 -3.1,-3.2 -3.1,-7.2 0,-4 1.4,-7.2 3.1,-7.2 1.7,0 3.1,3.2 3.1,7.2 z"
               fill="#3C362D" />
          </g>
          <g
             id="g2021">
            <path
               inkscape:connector-curvature="0"
               id="path2019"
               d="m 210.7,294.8 c 0,4 -1.4,7.2 -3.1,7.2 -1.7,0 -3.1,-3.2 -3.1,-7.2 0,-4 1.4,-7.2 3.1,-7.2 1.7,0 3.1,3.2 3.1,7.2 z"
               fill="#3C362D" />
          </g>
        </g>
        <g
           id="g2027">
          <path
             inkscape:connector-curvature="0"
             id="path2025"
             d="m 241.6,329.7 -10.5,-7.6 -9.3,6.5 c 0,0 3.3,6.5 9.5,6 6.1,-0.5 10.3,-4.9 10.3,-4.9 z"
             fill="#FBB36B" />
        </g>
        <g
           id="g2031">
          <path
             inkscape:connector-curvature="0"
             id="path2029"
             d="m 185.6,415.7 -7.9,-36.4 c 0,0 -16.3,6.4 -25.6,30 0,0 5.8,17.8 25.1,17.8 z"
             fill="#6CA0CA" />
        </g>
        <g
           id="g2035">
          <path
             inkscape:connector-curvature="0"
             id="path2033"
             d="m 277.7,415.7 7.9,-36.4 c 0,0 16.3,6.4 25.6,30 0,0 -5.8,17.8 -25.1,17.8 z"
             fill="#6CA0CA" />
        </g>
        <g
           id="g2039">
          <path
             inkscape:connector-curvature="0"
             id="path2037"
             d="m 231.1,382.2 c -15.3,0 -19.4,-12 -19.5,-12.1 v 0 0 l 2.2,-0.8 c 0.1,0 3.4,10.6 17.2,10.6 v 0 c 13.9,0 16.6,-9.7 16.7,-9.7 v 0 l 2.2,0.7 c 0,0.1 -3.6,11.3 -18.8,11.3 v 0 c 0,0 0,0 0,0 z"
             fill="#625E5B" />
        </g>
        <g
           id="g2043">
          <path
             inkscape:connector-curvature="0"
             id="path2041"
             d="m 216.8,345.5 c 0,0 15.4,-1.7 20.7,-1.7 5.2,0 9.6,1.2 9.6,1.2 0,0 -9,-5.5 -10.8,-5.5 -1.7,0 -5.5,2.6 -5.5,2.6 0,0 -2.3,-1.5 -5,-1.5 -2.6,-0.1 -9,4.9 -9,4.9 z"
             fill="#F04B3A" />
        </g>
        <g
           id="g2047">
          <path
             inkscape:connector-curvature="0"
             id="path2045"
             d="m 224.1,348.4 c 0,0 5.8,2.9 10.8,1.5 5,-1.5 8.2,-2.6 8.2,-2.6 z"
             fill="#F04B3A" />
        </g>
        <g
           id="g2051">
          <path
             inkscape:connector-curvature="0"
             id="path2049"
             d="m 194.1,286.3 c 0,0 6.7,-5.5 11.4,-5.5 4.7,0 7.6,1.2 9.3,1.2 1.7,0 2,-2 2,-2 0,0 -10.2,-7.7 -22.7,6.3 z"
             fill="#3C362D" />
        </g>
        <g
           id="g2055">
          <path
             inkscape:connector-curvature="0"
             id="path2053"
             d="m 271,286.3 c 0,0 -6.7,-5.5 -11.4,-5.5 -4.7,0 -7.6,1.2 -9.3,1.2 -1.7,0 -2,-2 -2,-2 0,0 10.2,-7.7 22.7,6.3 z"
             fill="#3C362D" />
        </g>
        <g
           id="g2059">
          <path
             inkscape:connector-curvature="0"
             id="path2057"
             d="m 192.3,297.1 c 0,-8.4 6.8,-15.1 15.2,-15.2 v 0 c 8.4,0 15.1,6.8 15.1,15.2 v 0 c 0,8.4 -6.8,15.1 -15.1,15.2 v 0 c -8.4,-0.1 -15.2,-6.8 -15.2,-15.2 z m 2.4,0 c 0,7.1 5.7,12.8 12.8,12.8 v 0 c 7.1,0 12.8,-5.7 12.8,-12.8 v 0 c 0,-7.1 -5.7,-12.8 -12.8,-12.8 v 0 c -7.1,0 -12.8,5.7 -12.8,12.8 z"
             fill="#3C362D" />
        </g>
        <g
           id="g2063">
          <path
             inkscape:connector-curvature="0"
             id="path2061"
             d="m 240.7,297.1 c 0,-8.4 6.8,-15.1 15.1,-15.2 v 0 c 8.4,0 15.2,6.8 15.2,15.2 v 0 c 0,8.4 -6.8,15.1 -15.2,15.2 v 0 c -8.3,-0.1 -15.1,-6.8 -15.1,-15.2 z m 2.3,0 c 0,7.1 5.7,12.8 12.8,12.8 v 0 c 7.1,0 12.8,-5.7 12.8,-12.8 v 0 c 0,-7.1 -5.7,-12.8 -12.8,-12.8 v 0 c -7,0 -12.8,5.7 -12.8,12.8 z"
             fill="#3C362D" />
        </g>
        <g
           id="g2067">
          <polygon
             id="polygon2065"
             points="221.5,298.3 221.5,295.9 240.7,295.9 240.7,298.3 "
             fill="#3C362D" />
        </g>
        <g
           id="g2071">
          <polygon
             id="polygon2069"
             points="182.4,289.1 183.7,287.2 193.9,294.1 192.6,296 "
             fill="#3C362D" />
        </g>
        <g
           id="g2075">
          <polygon
             id="polygon2073"
             points="270.1,294.1 280.2,287.2 281.5,289.1 271.4,296 "
             fill="#3C362D" />
        </g>
        <g
           id="g2079">
          <path
             inkscape:connector-curvature="0"
             id="path2077"
             d="m 195,369.1 c 0,0 -7.9,-35.2 -8.4,-69.9 -0.6,-34.7 4.1,-46.6 4.1,-46.6 0,0 2.3,15.1 1.7,16.6 -0.6,1.5 21,2.3 50.4,-5.8 29.4,-8.2 37.1,-14.1 37.1,-14.1 l -16.4,12.9 c 0,0 21.3,-8.7 23,-14.9 1.7,-6.1 -12.5,-41.9 -55.9,-41.9 -43.4,0 -64.4,31.8 -68.2,77.2 -3.8,45.4 4.4,71.1 4.4,71.1 z"
             fill="#3C362D" />
        </g>
      </g>
    </g>
  </g>
</svg>
