<?xml version="1.0" encoding="UTF-8" standalone="no"?>
<svg
   xmlns:dc="http://purl.org/dc/elements/1.1/"
   xmlns:cc="http://creativecommons.org/ns#"
   xmlns:rdf="http://www.w3.org/1999/02/22-rdf-syntax-ns#"
   xmlns:svg="http://www.w3.org/2000/svg"
   xmlns="http://www.w3.org/2000/svg"
   xmlns:xlink="http://www.w3.org/1999/xlink"
   xmlns:sodipodi="http://sodipodi.sourceforge.net/DTD/sodipodi-0.dtd"
   xmlns:inkscape="http://www.inkscape.org/namespaces/inkscape"
   inkscape:version="1.0beta1 (32d4812, 2019-09-19)"
   id="svg1408"
   version="1.1"
   viewBox="0 0 238.12499 317.50001"
   height="1200"
   width="900">
  <defs
     id="defs1402">
    <clipPath
       id="SVGID_2_">
      <use
         xlink:href="#SVGID_1_"
         overflow="visible"
         id="use1978"
         x="0"
         y="0"
         width="100%"
         height="100%" />
    </clipPath>
    <circle
       id="SVGID_1_"
       cx="231.7"
       cy="310.29999"
       r="136.5" />
    <clipPath
       id="SVGID_4_">
      <use
         height="100%"
         width="100%"
         y="0"
         x="0"
         id="use2092"
         overflow="visible"
         xlink:href="#SVGID_3_" />
    </clipPath>
    <circle
       r="136.5"
       cy="310.29999"
       cx="543.90002"
       id="SVGID_3_" />
    <clipPath
       id="SVGID_6_">
      <use
         height="100%"
         width="100%"
         y="0"
         x="0"
         id="use2158"
         overflow="visible"
         xlink:href="#SVGID_5_" />
    </clipPath>
    <circle
       r="136.5"
       cy="310.29999"
       cx="856.09998"
       id="SVGID_5_" />
    <clipPath
       id="SVGID_8_">
      <use
         height="100%"
         width="100%"
         y="0"
         x="0"
         id="use2256"
         overflow="visible"
         xlink:href="#SVGID_7_" />
    </clipPath>
    <circle
       r="136.5"
       cy="310.29999"
       cx="1168.3"
       id="SVGID_7_" />
    <clipPath
       id="SVGID_10_">
      <use
         height="100%"
         width="100%"
         y="0"
         x="0"
         id="use2342"
         overflow="visible"
         xlink:href="#SVGID_9_" />
    </clipPath>
    <circle
       r="136.5"
       cy="669.70001"
       cx="231.7"
       id="SVGID_9_" />
    <clipPath
       id="SVGID_12_">
      <use
         height="100%"
         width="100%"
         y="0"
         x="0"
         id="use2418"
         overflow="visible"
         xlink:href="#SVGID_11_" />
    </clipPath>
    <circle
       r="136.5"
       cy="669.70001"
       cx="543.90002"
       id="SVGID_11_" />
    <clipPath
       id="SVGID_14_">
      <use
         height="100%"
         width="100%"
         y="0"
         x="0"
         id="use2556"
         overflow="visible"
         xlink:href="#SVGID_13_" />
    </clipPath>
    <circle
       r="136.5"
       cy="669.70001"
       cx="856.09998"
       id="SVGID_13_" />
    <clipPath
       id="SVGID_16_">
      <use
         height="100%"
         width="100%"
         y="0"
         x="0"
         id="use2684"
         overflow="visible"
         xlink:href="#SVGID_15_" />
    </clipPath>
    <circle
       r="136.5"
       cy="669.70001"
       cx="1168.3"
       id="SVGID_15_" />
  </defs>
  <sodipodi:namedview
     inkscape:window-maximized="0"
     inkscape:window-y="134"
     inkscape:window-x="20"
     inkscape:window-height="907"
     inkscape:window-width="1600"
     units="px"
     showgrid="false"
     inkscape:document-rotation="0"
     inkscape:current-layer="layer1"
     inkscape:document-units="mm"
     inkscape:cy="560"
     inkscape:cx="400"
     inkscape:zoom="0.35"
     inkscape:pageshadow="2"
     inkscape:pageopacity="0.0"
     borderopacity="1.0"
     bordercolor="#666666"
     pagecolor="#ffffff"
     id="base" />
  <metadata
     id="metadata1405">
    <rdf:RDF>
      <cc:Work
         rdf:about="">
        <dc:format>image/svg+xml</dc:format>
        <dc:type
           rdf:resource="http://purl.org/dc/dcmitype/StillImage" />
        <dc:title></dc:title>
      </cc:Work>
    </rdf:RDF>
  </metadata>
  <g
     id="layer1"
     inkscape:groupmode="layer"
     inkscape:label="Layer 1">
    <g
       transform="matrix(1.0583333,0,0,1.0583333,-1085.161,-143.22641)"
       id="XMLID_57_">
      <path
         inkscape:connector-curvature="0"
         id="XMLID_41_"
         fill="#161413"
         d="m 1130.2,433.2 c -24.1,-0.1 -43.3,1.1 -62.6,2.1 -9,0.5 -13.2,-4.9 -13.6,-12.6 -1,-21.1 -1.8,-42.2 0.1,-63.3 1.4,-15.6 5.1,-30.6 15.4,-42.9 10.4,-12.3 23.8,-20.2 39.2,-24.9 1.6,-0.5 3.2,-0.7 4.7,-0.5 3,0.5 4.1,-1.3 4.2,-3.7 0.1,-2.4 1.7,-5.1 -2.5,-6.4 -12.6,-3.8 -21.3,-12.7 -28.4,-23.3 -1.3,-2 -2.2,-2.6 -4.8,-1.7 -4.5,1.6 -9,0.7 -13,-1.9 -0.8,-0.5 -1.6,-1.1 -2.3,-1.9 -5.2,-5.8 -1.8,-22.2 5.3,-25.2 2.1,-0.9 1.9,-2.1 1.8,-3.7 -0.5,-7.4 -0.6,-14.7 0.8,-22 2.3,-12.5 7.4,-23.6 15.5,-33.6 5.9,-7.2 13.6,-10.4 22.1,-12.9 11.4,-3.3 23.2,-5.7 34.8,-2.7 16.6,4.4 31.5,11.9 41.6,26.9 8.8,13.1 11.5,27.4 9.4,42.7 -0.4,2.8 -0.8,5 2.9,6.6 4,1.7 6.2,11.4 4.7,16.8 -2.4,9 -8.1,12.3 -19.1,10.6 -2.2,-0.3 -3.3,0.3 -4.7,1.7 -7.3,7.7 -15,14.8 -24.4,19.9 -1.1,0.6 -2.2,1.2 -2.2,2.7 -0.1,3.9 -0.1,7.9 0,11.8 0,1.1 0.3,2.4 2,1.8 6.6,-2.4 12.6,-0.1 18.4,2.6 12.8,6 24.7,13.2 33,25 7,10 10.4,21.3 12.1,33.2 3.3,22.9 2.1,45.8 1,68.7 -0.5,9.8 -1.5,10.3 -11.4,10.7 -28.1,1.6 -56.4,-2.4 -80,-0.6 z m -68.1,-35.6 c -0.1,0 -0.2,0 -0.2,0 0,10.2 0.1,20.4 -0.1,30.5 0,2.1 1,1.9 2.1,1.8 3.4,-0.2 6.8,-0.4 10.2,-0.8 16,-1.6 32,-2.6 48,-2.7 19.7,-0.1 39.4,-0.6 59.2,1.1 9.9,0.9 19.9,0 29.8,0.2 2.8,0 2.9,-1.4 2.8,-3.5 -0.3,-19.7 0.7,-39.5 -0.7,-59.2 -0.7,-9.3 -2.3,-18.5 -5.3,-27.3 -2,-5.8 -4.6,-11.4 -8.8,-16 -10.2,-11.1 -22.9,-18.1 -36.8,-23.2 -1.5,-0.6 -3.8,-2.1 -3.2,1.8 0.1,0.7 -0.7,1.2 -1.5,1.4 -2.6,0.7 -4.4,2.8 -6.6,3.8 -5,2.3 -9.5,4.8 -11.7,10.3 -0.7,1.7 -2.1,1.6 -3.6,0.4 -2.1,-1.6 -2.9,-3.9 -3.8,-6.1 -0.5,-1.2 -0.7,-2.7 -2.6,-2.5 -6.7,1 -9.5,-6.1 -15.1,-7.2 -0.1,0 -0.2,-0.2 -0.2,-0.3 -0.5,-5.3 -3.7,-2.5 -5.7,-1.6 -8.3,3.6 -16.2,8.1 -23.5,13.6 -6,4.5 -10.8,10.2 -14.1,17.1 -6.3,13.1 -7.9,27.1 -8.5,41.4 -0.4,9 -0.1,18 -0.1,27 z m 31.3,-191.4 c -0.6,2.3 -1.2,4.6 -1.9,6.8 -1.7,5.1 -3.6,10.4 -7.5,14.1 -1.8,1.7 -1.7,2.8 -1.2,4.5 2.8,10 7.9,18.7 14.7,26.5 15.7,18 38.7,19.6 55.5,10.8 13.3,-7 23.4,-17.7 31.3,-30.4 1.5,-2.5 2.6,-5.3 3.2,-8.2 0.2,-1.2 0.4,-1.9 -1.2,-2.3 -10.1,-2.6 -13.6,-10.5 -15,-19.6 -0.4,-2.7 -1,-2.5 -3.1,-1.7 -9.3,3.4 -18.9,5.8 -28.8,6.8 -16,1.6 -31.4,-0.5 -46,-7.3 z m -12.2,15.2 c 3.8,-5.2 5.7,-10.6 8.1,-15.8 2.1,-4.6 3,-4.9 7.8,-3.1 8.4,3.2 17.1,4.6 26.1,5 16,0.8 31.3,-2.6 46.6,-6.4 3.1,-0.8 4.7,-0.3 5.3,3.3 1,6.5 4.4,11.9 9.4,16.2 1,0.8 2.2,1.5 3.3,1.2 1.5,-0.4 1.2,-2 1.1,-3.2 -0.2,-6.4 -0.1,-12.8 -0.8,-19 -0.6,-5.3 -1.5,-10.8 -3.7,-15.6 -3.5,-7.8 -10.1,-13.4 -17.1,-17.9 -15.3,-9.7 -32.1,-10.7 -49.5,-7.3 -5.1,1 -10.6,1.6 -15,4 -5.2,2.9 -9.2,7.7 -12.7,12.9 -6,8.9 -8.2,19 -9.3,29.4 -0.6,5.3 -0.7,10.6 0.4,16.3 z m 56,90.2 c 1,-1.8 1.4,-2.6 1.9,-3.4 1.2,-2.2 2.2,-4.4 5.4,-4.6 1.9,-0.1 3.6,-1.9 5.4,-3 0.7,-0.4 1.6,-1 1,-2 -2.9,-5.1 -1.8,-10.4 -0.7,-15.7 0.4,-1.8 -0.3,-1.9 -1.7,-1.4 -7.1,2.4 -14.4,2.7 -21.8,2.2 -1.4,-0.1 -2.4,0.2 -2.4,1.9 0,4 -1.2,7.7 -3.4,11.1 -0.7,1 -0.8,2 0.3,2.9 1.7,1.4 3.3,3.5 5.4,3.6 5.5,0.1 9.3,2.1 10.6,8.4 z M 1079,251.3 c 3.1,0.4 3.8,-0.1 2.7,-2.2 -2.5,-4.6 -4.3,-9.5 -5.6,-14.6 -0.2,-0.8 -0.1,-1.8 -1.3,-1.9 -1.1,-0.1 -1.9,0.4 -2.4,1.3 -2.2,3.9 -2.1,8 -0.6,12 1.4,3.6 4.3,5.4 7.2,5.4 z m 108.5,0.3 c 3.9,-1.5 7.2,-3.5 10.1,-6.5 3,-3.1 2.9,-6.8 2.3,-10.6 -0.2,-1.2 -0.9,-1.7 -1.9,-1.9 -0.9,-0.2 -1.6,0.1 -1.9,1.2 -1.5,6.6 -5.1,12.1 -8.6,17.8 z" />
      <path
         inkscape:connector-curvature="0"
         id="XMLID_37_"
         fill="#5A5B5B"
         d="m 1062.1,397.6 c 0,-9 -0.3,-17.9 0.1,-26.9 0.6,-14.2 2.2,-28.3 8.5,-41.4 3.3,-6.9 8.1,-12.6 14.1,-17.1 7.3,-5.5 15.1,-10 23.5,-13.6 2,-0.8 5.2,-3.6 5.7,1.6 0,0.1 0.1,0.3 0.2,0.3 5.7,1.1 8.5,8.2 15.1,7.2 1.9,-0.3 2.1,1.2 2.6,2.5 0.9,2.3 1.7,4.5 3.8,6.1 1.5,1.2 2.9,1.3 3.6,-0.4 2.2,-5.5 6.6,-8 11.7,-10.3 2.3,-1 4,-3.1 6.6,-3.8 0.7,-0.2 1.6,-0.7 1.5,-1.4 -0.6,-3.8 1.7,-2.3 3.2,-1.8 14,5.1 26.7,12.1 36.8,23.2 4.2,4.6 6.9,10.2 8.8,16 3,8.8 4.6,18 5.3,27.3 1.4,19.7 0.4,39.5 0.7,59.2 0,2 0,3.5 -2.8,3.5 -9.9,-0.1 -19.9,0.7 -29.8,-0.2 -19.7,-1.7 -39.4,-1.3 -59.2,-1.1 -16,0.1 -32,1.1 -48,2.7 -3.4,0.3 -6.8,0.6 -10.2,0.8 -1.2,0.1 -2.2,0.3 -2.1,-1.8 0.2,-10.2 0.1,-20.4 0.1,-30.5 0,-0.1 0.1,-0.1 0.2,-0.1 z M 1151,320 c 3.3,-0.6 7.2,-2.3 10.2,-5.6 1.2,-1.4 2.5,-2.7 2.7,-4.7 0.1,-0.7 0.2,-1.5 -0.6,-1.9 -0.6,-0.3 -1.2,0 -1.7,0.4 -4.2,3.9 -9.2,6.3 -14.6,8.1 -2.2,0.7 -1.7,2 -0.1,3.1 0.9,0.6 2,0.8 4.1,0.6 z m -21.8,-2.1 c -2,-1.7 -4.1,-2.1 -6,-2.8 -4.3,-1.5 -8.7,-2.6 -10.9,-7.2 -0.3,-0.6 -0.8,-1 -1.5,-0.7 -1,0.4 -0.8,1.4 -0.9,2.2 -0.3,4.4 2.5,6.7 5.8,8.5 4.3,2.2 8.7,2.6 13.5,0 z" />
      <path
         inkscape:connector-curvature="0"
         id="XMLID_36_"
         fill="#FBDFC4"
         d="m 1093.4,206.2 c 14.6,6.9 29.9,8.9 45.8,7.3 9.9,-1 19.5,-3.4 28.8,-6.8 2.1,-0.8 2.7,-0.9 3.1,1.7 1.4,9.1 4.9,17 15,19.6 1.6,0.4 1.5,1.2 1.2,2.3 -0.6,2.9 -1.7,5.7 -3.2,8.2 -7.9,12.8 -18,23.4 -31.3,30.4 -16.8,8.8 -39.7,7.2 -55.5,-10.8 -6.8,-7.8 -11.8,-16.5 -14.7,-26.5 -0.5,-1.7 -0.5,-2.8 1.2,-4.5 3.9,-3.8 5.7,-9 7.5,-14.1 1,-2.3 1.5,-4.5 2.1,-6.8 z" />
      <path
         inkscape:connector-curvature="0"
         id="XMLID_35_"
         fill="#5C120B"
         d="m 1081.2,221.4 c -1,-5.8 -0.9,-11.1 -0.4,-16.2 1,-10.4 3.2,-20.5 9.3,-29.4 3.5,-5.1 7.5,-9.9 12.7,-12.9 4.4,-2.5 9.9,-3 15,-4 17.3,-3.4 34.2,-2.4 49.5,7.3 7.1,4.5 13.6,10.1 17.1,17.9 2.2,4.8 3.1,10.3 3.7,15.6 0.8,6.3 0.6,12.7 0.8,19 0,1.2 0.3,2.7 -1.1,3.2 -1.1,0.3 -2.3,-0.3 -3.3,-1.2 -5.1,-4.3 -8.4,-9.7 -9.4,-16.2 -0.6,-3.7 -2.2,-4.1 -5.3,-3.3 -15.3,3.8 -30.7,7.1 -46.6,6.4 -9,-0.4 -17.7,-1.9 -26.1,-5 -4.7,-1.8 -5.7,-1.5 -7.8,3.1 -2.4,5.1 -4.3,10.5 -8.1,15.7 z" />
      <path
         inkscape:connector-curvature="0"
         id="XMLID_34_"
         fill="#F4DBBF"
         d="m 1137.2,311.6 c -1.3,-6.3 -5.2,-8.4 -10.6,-8.6 -2.1,-0.1 -3.7,-2.2 -5.4,-3.6 -1.1,-0.9 -1,-1.9 -0.3,-2.9 2.2,-3.4 3.4,-7 3.4,-11.1 0,-1.7 0.9,-2 2.4,-1.9 7.4,0.5 14.7,0.3 21.8,-2.2 1.4,-0.5 2.1,-0.3 1.7,1.4 -1.1,5.3 -2.1,10.6 0.7,15.7 0.6,1 -0.3,1.6 -1,2 -1.8,1.1 -3.5,2.9 -5.4,3 -3.3,0.3 -4.2,2.4 -5.4,4.6 -0.5,1 -0.9,1.8 -1.9,3.6 z" />
      <path
         inkscape:connector-curvature="0"
         id="XMLID_33_"
         fill="#F4DBBF"
         d="m 1079,251.3 c -2.9,0 -5.8,-1.8 -7.2,-5.4 -1.6,-4 -1.6,-8.1 0.6,-12 0.5,-0.9 1.3,-1.4 2.4,-1.3 1.2,0.1 1.1,1.1 1.3,1.9 1.4,5.1 3.1,10 5.6,14.6 1.1,2.1 0.3,2.6 -2.7,2.2 z" />
      <path
         inkscape:connector-curvature="0"
         id="XMLID_32_"
         fill="#F4DBBF"
         d="m 1187.5,251.6 c 3.5,-5.7 7,-11.2 8.6,-17.7 0.3,-1.1 0.9,-1.4 1.9,-1.2 1,0.2 1.7,0.7 1.9,1.9 0.6,3.8 0.7,7.5 -2.3,10.6 -2.8,2.9 -6.2,4.9 -10.1,6.4 z" />
      <path
         inkscape:connector-curvature="0"
         id="XMLID_31_"
         fill="#161413"
         d="m 1151,320 c -2.1,0.2 -3.2,0 -4.1,-0.7 -1.6,-1.1 -2.1,-2.4 0.1,-3.1 5.4,-1.8 10.4,-4.2 14.6,-8.1 0.5,-0.4 1.1,-0.7 1.7,-0.4 0.8,0.4 0.7,1.2 0.6,1.9 -0.2,1.9 -1.4,3.3 -2.7,4.7 -3,3.4 -6.9,5.1 -10.2,5.7 z" />
      <path
         inkscape:connector-curvature="0"
         id="XMLID_30_"
         fill="#161413"
         d="m 1129.2,317.9 c -4.7,2.5 -9.2,2.1 -13.4,-0.1 -3.3,-1.7 -6.1,-4.1 -5.8,-8.5 0.1,-0.8 -0.2,-1.8 0.9,-2.2 0.7,-0.3 1.2,0.2 1.5,0.7 2.1,4.7 6.6,5.8 10.9,7.2 1.8,0.8 3.9,1.3 5.9,2.9 z" />
    </g>
  </g>
</svg>
