<?xml version="1.0" encoding="UTF-8" standalone="no"?>
<svg
   xmlns:dc="http://purl.org/dc/elements/1.1/"
   xmlns:cc="http://creativecommons.org/ns#"
   xmlns:rdf="http://www.w3.org/1999/02/22-rdf-syntax-ns#"
   xmlns:svg="http://www.w3.org/2000/svg"
   xmlns="http://www.w3.org/2000/svg"
   xmlns:xlink="http://www.w3.org/1999/xlink"
   xmlns:sodipodi="http://sodipodi.sourceforge.net/DTD/sodipodi-0.dtd"
   xmlns:inkscape="http://www.inkscape.org/namespaces/inkscape"
   inkscape:version="1.0beta1 (32d4812, 2019-09-19)"
   id="svg1408"
   version="1.1"
   viewBox="0 0 238.12499 317.50001"
   height="1200"
   width="900">
  <defs
     id="defs1402">
    <clipPath
       id="SVGID_2_">
      <use
         xlink:href="#SVGID_1_"
         overflow="visible"
         id="use1978"
         x="0"
         y="0"
         width="100%"
         height="100%" />
    </clipPath>
    <circle
       id="SVGID_1_"
       cx="231.7"
       cy="310.29999"
       r="136.5" />
    <clipPath
       id="SVGID_4_">
      <use
         height="100%"
         width="100%"
         y="0"
         x="0"
         id="use2092"
         overflow="visible"
         xlink:href="#SVGID_3_" />
    </clipPath>
    <circle
       r="136.5"
       cy="310.29999"
       cx="543.90002"
       id="SVGID_3_" />
    <clipPath
       id="SVGID_6_">
      <use
         height="100%"
         width="100%"
         y="0"
         x="0"
         id="use2158"
         overflow="visible"
         xlink:href="#SVGID_5_" />
    </clipPath>
    <circle
       r="136.5"
       cy="310.29999"
       cx="856.09998"
       id="SVGID_5_" />
    <clipPath
       id="SVGID_8_">
      <use
         height="100%"
         width="100%"
         y="0"
         x="0"
         id="use2256"
         overflow="visible"
         xlink:href="#SVGID_7_" />
    </clipPath>
    <circle
       r="136.5"
       cy="310.29999"
       cx="1168.3"
       id="SVGID_7_" />
    <clipPath
       id="SVGID_10_">
      <use
         height="100%"
         width="100%"
         y="0"
         x="0"
         id="use2342"
         overflow="visible"
         xlink:href="#SVGID_9_" />
    </clipPath>
    <circle
       r="136.5"
       cy="669.70001"
       cx="231.7"
       id="SVGID_9_" />
    <clipPath
       id="SVGID_12_">
      <use
         height="100%"
         width="100%"
         y="0"
         x="0"
         id="use2418"
         overflow="visible"
         xlink:href="#SVGID_11_" />
    </clipPath>
    <circle
       r="136.5"
       cy="669.70001"
       cx="543.90002"
       id="SVGID_11_" />
    <clipPath
       id="SVGID_14_">
      <use
         height="100%"
         width="100%"
         y="0"
         x="0"
         id="use2556"
         overflow="visible"
         xlink:href="#SVGID_13_" />
    </clipPath>
    <circle
       r="136.5"
       cy="669.70001"
       cx="856.09998"
       id="SVGID_13_" />
    <clipPath
       id="SVGID_16_">
      <use
         height="100%"
         width="100%"
         y="0"
         x="0"
         id="use2684"
         overflow="visible"
         xlink:href="#SVGID_15_" />
    </clipPath>
    <circle
       r="136.5"
       cy="669.70001"
       cx="1168.3"
       id="SVGID_15_" />
  </defs>
  <sodipodi:namedview
     inkscape:window-maximized="0"
     inkscape:window-y="134"
     inkscape:window-x="20"
     inkscape:window-height="907"
     inkscape:window-width="1600"
     units="px"
     showgrid="false"
     inkscape:document-rotation="0"
     inkscape:current-layer="layer1"
     inkscape:document-units="mm"
     inkscape:cy="560"
     inkscape:cx="400"
     inkscape:zoom="0.35"
     inkscape:pageshadow="2"
     inkscape:pageopacity="0.0"
     borderopacity="1.0"
     bordercolor="#666666"
     pagecolor="#ffffff"
     id="base" />
  <metadata
     id="metadata1405">
    <rdf:RDF>
      <cc:Work
         rdf:about="">
        <dc:format>image/svg+xml</dc:format>
        <dc:type
           rdf:resource="http://purl.org/dc/dcmitype/StillImage" />
        <dc:title></dc:title>
      </cc:Work>
    </rdf:RDF>
  </metadata>
  <g
     id="layer1"
     inkscape:groupmode="layer"
     inkscape:label="Layer 1">
    <g
       transform="matrix(0.92604165,0,0,0.92604166,-942.04232,-97.644476)"
       id="XMLID_631_">
      <g
         id="XMLID_777_">
        <path
           inkscape:connector-curvature="0"
           id="XMLID_1247_"
           fill="#F9C68C"
           d="m 1051.3,281.8 c 0,0 -13.1,-6.8 -14,10.9 -0.9,17.8 13.1,32.9 28.7,31.5" />
      </g>
      <g
         id="XMLID_776_">
        <path
           inkscape:connector-curvature="0"
           id="XMLID_1139_"
           fill="#713517"
           d="m 1063.9,326.4 c -6.7,0 -13.2,-2.7 -18.6,-7.9 -6.9,-6.7 -10.6,-16.1 -10.1,-25.9 0.3,-6.6 2.3,-10.9 5.9,-13 5,-2.8 10.9,0.2 11.2,0.3 l -1.9,3.6 c 0,0 -4.2,-2.1 -7.2,-0.4 -2.8,1.6 -3.6,6.1 -3.8,9.6 -0.4,8.5 2.9,17 8.8,22.7 5,4.8 11.3,7.2 17.6,6.6 l 0.4,4.1 c -0.8,0.3 -1.6,0.3 -2.3,0.3 z" />
      </g>
      <g
         id="XMLID_641_">
        <path
           inkscape:connector-curvature="0"
           id="XMLID_1124_"
           fill="#6766AE"
           d="m 1222,446.2 h -152.4 v 0 c 0,-30.2 24.5,-54.7 54.7,-54.7 h 43 c 30.2,0 54.7,24.5 54.7,54.7 z" />
      </g>
      <g
         id="XMLID_640_">
        <path
           inkscape:connector-curvature="0"
           id="XMLID_1135_"
           fill="#713517"
           d="m 1224,448.3 h -156.5 v -2.1 c 0,-31.3 25.5,-56.8 56.8,-56.8 h 43 c 31.3,0 56.8,25.5 56.8,56.8 v 2.1 z m -152.4,-4.1 h 148.2 c -1.1,-28.1 -24.3,-50.6 -52.6,-50.6 h -43 c -28.3,-0.1 -51.5,22.5 -52.6,50.6 z" />
      </g>
      <g
         id="XMLID_639_">
        <path
           inkscape:connector-curvature="0"
           id="XMLID_1246_"
           fill="#F9C68C"
           d="m 1163.2,390.1 v -23.6 h -34.8 v 23.6 c 0,22.1 34.8,22.1 34.8,0 z" />
      </g>
      <g
         id="XMLID_638_">
        <path
           inkscape:connector-curvature="0"
           id="XMLID_1132_"
           fill="#713517"
           d="m 1145.8,408.7 c -9.7,0 -19.4,-6.4 -19.4,-18.6 v -25.7 h 38.9 v 25.7 c -0.1,12.2 -9.9,18.6 -19.5,18.6 z m -15.4,-40.2 v 21.6 c 0,10 8,14.5 15.3,14.5 7.4,0 15.3,-4.5 15.3,-14.5 v -21.6 z" />
      </g>
      <g
         id="XMLID_637_">
        <path
           inkscape:connector-curvature="0"
           id="XMLID_1245_"
           fill="#F9C68C"
           d="m 1240.2,281.8 c 0,0 13.1,-6.8 14,10.9 0.9,17.8 -13.1,32.9 -28.7,31.5" />
      </g>
      <g
         id="XMLID_636_">
        <path
           inkscape:connector-curvature="0"
           id="XMLID_1244_"
           fill="#F9C68C"
           d="m 1240.2,269 c 0,52.1 -42.3,110.9 -94.5,110.9 -52.2,0 -94.5,-58.7 -94.5,-110.9 0,-52.2 42.3,-77.9 94.5,-77.9 52.2,0 94.5,25.8 94.5,77.9 z" />
      </g>
      <g
         id="XMLID_635_">
        <path
           inkscape:connector-curvature="0"
           id="XMLID_1129_"
           fill="#713517"
           d="m 1145.8,382 c -54.4,0 -96.5,-60.7 -96.5,-112.9 0,-25.2 9.8,-46 28.5,-60.1 17.1,-13 40.6,-19.8 68,-19.8 27.4,0 50.9,6.9 68,19.8 18.6,14.1 28.5,34.9 28.5,60.1 0,52.2 -42.2,112.9 -96.5,112.9 z m 0,-188.8 c -44.7,0 -92.4,19.9 -92.4,75.8 0,25 10.2,52.6 27.2,73.7 18.3,22.6 41.4,35.1 65.2,35.1 23.8,0 46.9,-12.5 65.2,-35.1 17,-21.1 27.2,-48.7 27.2,-73.7 0,-55.9 -47.8,-75.8 -92.4,-75.8 z" />
      </g>
      <g
         id="XMLID_634_">
        <path
           inkscape:connector-curvature="0"
           id="XMLID_1128_"
           fill="#713517"
           d="m 1227.7,326.4 c -0.7,0 -1.5,0 -2.2,-0.1 l 0.4,-4.1 c 6.3,0.6 12.5,-1.8 17.6,-6.6 6,-5.7 9.3,-14.2 8.8,-22.7 -0.2,-3.5 -1,-8 -3.8,-9.6 -3,-1.7 -7.2,0.4 -7.2,0.4 l -1.9,-3.6 c 0.2,-0.1 6.2,-3.2 11.2,-0.3 3.6,2 5.5,6.4 5.9,13 0.5,9.8 -3.2,19.2 -10.1,25.9 -5.5,5 -12,7.7 -18.7,7.7 z" />
      </g>
      <g
         id="XMLID_624_">
        <g
           id="XMLID_628_">
          <circle
             id="XMLID_1243_"
             fill="#713517"
             cx="1110.5"
             cy="288.29999"
             r="6.8000002" />
        </g>
        <g
           id="XMLID_626_">
          <circle
             id="XMLID_1242_"
             fill="#713517"
             cx="1181"
             cy="288.29999"
             r="6.8000002" />
        </g>
      </g>
      <g
         id="XMLID_621_">
        <g
           id="XMLID_623_">
          <path
             inkscape:connector-curvature="0"
             id="XMLID_1241_"
             fill="#713517"
             d="m 1117.4,332.7 h 56.8 c 0,0 -4.6,24.3 -28.4,24.4 -23,0.1 -28.4,-24.4 -28.4,-24.4 z" />
        </g>
        <g
           id="XMLID_622_">
          <path
             inkscape:connector-curvature="0"
             id="XMLID_1240_"
             fill="#EF5353"
             d="m 1127.1,349.8 c 0,0 7,-8.2 20.7,-7.4 13.7,0.8 17.9,6.3 17.9,6.3 0,0 -4.3,9.2 -18.3,8.3 -13.8,-0.9 -20.3,-7.2 -20.3,-7.2 z" />
        </g>
      </g>
      <g
         id="XMLID_620_">
        <path
           inkscape:connector-curvature="0"
           id="XMLID_1125_"
           fill="#713517"
           d="m 1145.6,359.1 c -24.2,0 -30.2,-25.7 -30.3,-26 -0.1,-0.6 0,-1.2 0.4,-1.7 0.4,-0.5 1,-0.8 1.6,-0.8 h 56.8 c 0.6,0 1.2,0.3 1.6,0.7 0.4,0.5 0.5,1.1 0.4,1.7 0,0.3 -5.2,26 -30.4,26.1 0,0 0,0 -0.1,0 z m -25.5,-24.4 c 2,5.9 8.6,20.3 25.5,20.3 0,0 0.1,0 0.1,0 17.5,-0.1 23.9,-14.4 25.7,-20.3 z" />
      </g>
      <g
         id="XMLID_619_">
        <circle
           id="XMLID_1239_"
           fill="#EF5353"
           cx="1145.8"
           cy="309.20001"
           r="3.0999999" />
      </g>
      <g
         id="XMLID_630_">
        <g
           id="XMLID_616_">
          <path
             inkscape:connector-curvature="0"
             id="XMLID_1119_"
             fill="#3A2D24"
             d="m 1249.4,281.5 v -62.7 c 0,-38.3 -24.9,-72.6 -61.7,-83.2 -0.9,-0.2 -1.7,-0.5 -2.6,-0.7 -49.3,-12.7 -80.1,13.3 -85.5,28.4 0,0 -0.6,-0.1 -1.7,-0.2 -28.3,-3.3 -53.1,19.1 -53.1,47.6 v 67.2 2.9 c 9.1,5.1 10.4,16.9 10.4,16.9 0,0 -3.7,-22.6 6.7,-49.5 10.5,-27 49.6,-38.7 49.6,-38.7 12,28.5 41.9,64.5 116.6,62 l 7.7,-0.4 -0.5,30.2 c 0,-0.3 2.8,-18.5 14.1,-19.8 z" />
        </g>
        <g
           id="XMLID_617_">
          <path
             inkscape:connector-curvature="0"
             id="XMLID_1121_"
             fill="#713517"
             d="m 1235.3,303.1 c -0.1,0 -0.1,0 -0.2,0 -1.1,-0.1 -1.9,-1 -1.9,-2.1 l 0.4,-28 -5.5,0.3 c -2.5,0.1 -5,0.1 -7.5,0.1 -68.1,0 -97.6,-32.8 -110.3,-61.6 -7.6,2.6 -37.8,14.4 -46.5,36.9 -9.3,23.9 -7.1,44.5 -6.7,47.9 0.1,0.3 0.1,0.6 0.1,0.6 0.1,1.1 -0.7,2.1 -1.8,2.3 -1.1,0.1 -2.1,-0.6 -2.3,-1.7 0,-0.1 0,-0.3 -0.1,-0.6 -0.4,-2.2 -2.2,-10.9 -9.3,-14.8 -0.6,-0.4 -1,-1 -1,-1.8 v -70.1 c 0,-14.3 6.1,-27.9 16.7,-37.4 10.5,-9.4 24.6,-13.9 38.6,-12.3 0,0 0.1,0 0.1,0 7.4,-16.7 39,-40.6 87.3,-28.1 0.9,0.2 1.8,0.5 2.7,0.7 37.2,10.7 63.2,45.8 63.2,85.2 v 62.7 c 0,1 -0.8,1.9 -1.8,2 -9.6,1.2 -12.3,17.7 -12.4,17.8 0.1,1.3 -0.8,2 -1.8,2 z m 0.4,-34.3 c 0.5,0 1,0.2 1.4,0.6 0.4,0.4 0.6,0.9 0.6,1.5 l -0.3,17.5 c 2.2,-3.8 5.3,-7.4 9.8,-8.6 v -61 c 0,-37.6 -24.8,-71 -60.2,-81.3 -0.8,-0.2 -1.7,-0.5 -2.5,-0.7 -46.7,-12 -77.6,12.1 -83.1,27.1 -0.3,0.9 -1.3,1.5 -2.3,1.3 0,0 -0.6,-0.1 -1.6,-0.2 -12.8,-1.5 -25.7,2.6 -35.4,11.2 -9.8,8.7 -15.4,21.2 -15.4,34.3 v 68.9 c 2.4,1.5 4.2,3.5 5.6,5.5 0.2,-9.3 1.7,-22.8 7.5,-37.7 10.7,-27.6 49.3,-39.4 50.9,-39.9 1,-0.3 2.1,0.2 2.5,1.2 12.2,29.1 42.1,63.2 114.6,60.7 l 7.9,-0.4 c 0,0 0,0 0,0 z" />
        </g>
      </g>
    </g>
  </g>
</svg>
