<?xml version="1.0" encoding="UTF-8" standalone="no"?>
<svg
   xmlns:dc="http://purl.org/dc/elements/1.1/"
   xmlns:cc="http://creativecommons.org/ns#"
   xmlns:rdf="http://www.w3.org/1999/02/22-rdf-syntax-ns#"
   xmlns:svg="http://www.w3.org/2000/svg"
   xmlns="http://www.w3.org/2000/svg"
   xmlns:xlink="http://www.w3.org/1999/xlink"
   xmlns:sodipodi="http://sodipodi.sourceforge.net/DTD/sodipodi-0.dtd"
   xmlns:inkscape="http://www.inkscape.org/namespaces/inkscape"
   inkscape:version="1.0beta1 (32d4812, 2019-09-19)"
   id="svg1408"
   version="1.1"
   viewBox="0 0 238.12499 317.50001"
   height="1200"
   width="900">
  <defs
     id="defs1402">
    <clipPath
       id="SVGID_2_">
      <use
         xlink:href="#SVGID_1_"
         overflow="visible"
         id="use1978"
         x="0"
         y="0"
         width="100%"
         height="100%" />
    </clipPath>
    <circle
       id="SVGID_1_"
       cx="231.7"
       cy="310.29999"
       r="136.5" />
    <clipPath
       id="SVGID_4_">
      <use
         height="100%"
         width="100%"
         y="0"
         x="0"
         id="use2092"
         overflow="visible"
         xlink:href="#SVGID_3_" />
    </clipPath>
    <circle
       r="136.5"
       cy="310.29999"
       cx="543.90002"
       id="SVGID_3_" />
    <clipPath
       id="SVGID_6_">
      <use
         height="100%"
         width="100%"
         y="0"
         x="0"
         id="use2158"
         overflow="visible"
         xlink:href="#SVGID_5_" />
    </clipPath>
    <circle
       r="136.5"
       cy="310.29999"
       cx="856.09998"
       id="SVGID_5_" />
    <clipPath
       id="SVGID_8_">
      <use
         height="100%"
         width="100%"
         y="0"
         x="0"
         id="use2256"
         overflow="visible"
         xlink:href="#SVGID_7_" />
    </clipPath>
    <circle
       r="136.5"
       cy="310.29999"
       cx="1168.3"
       id="SVGID_7_" />
    <clipPath
       id="SVGID_10_">
      <use
         height="100%"
         width="100%"
         y="0"
         x="0"
         id="use2342"
         overflow="visible"
         xlink:href="#SVGID_9_" />
    </clipPath>
    <circle
       r="136.5"
       cy="669.70001"
       cx="231.7"
       id="SVGID_9_" />
    <clipPath
       id="SVGID_12_">
      <use
         height="100%"
         width="100%"
         y="0"
         x="0"
         id="use2418"
         overflow="visible"
         xlink:href="#SVGID_11_" />
    </clipPath>
    <circle
       r="136.5"
       cy="669.70001"
       cx="543.90002"
       id="SVGID_11_" />
    <clipPath
       id="SVGID_14_">
      <use
         height="100%"
         width="100%"
         y="0"
         x="0"
         id="use2556"
         overflow="visible"
         xlink:href="#SVGID_13_" />
    </clipPath>
    <circle
       r="136.5"
       cy="669.70001"
       cx="856.09998"
       id="SVGID_13_" />
    <clipPath
       id="SVGID_16_">
      <use
         height="100%"
         width="100%"
         y="0"
         x="0"
         id="use2684"
         overflow="visible"
         xlink:href="#SVGID_15_" />
    </clipPath>
    <circle
       r="136.5"
       cy="669.70001"
       cx="1168.3"
       id="SVGID_15_" />
  </defs>
  <sodipodi:namedview
     inkscape:window-maximized="0"
     inkscape:window-y="134"
     inkscape:window-x="20"
     inkscape:window-height="907"
     inkscape:window-width="1600"
     units="px"
     showgrid="false"
     inkscape:document-rotation="0"
     inkscape:current-layer="layer1"
     inkscape:document-units="mm"
     inkscape:cy="560"
     inkscape:cx="400"
     inkscape:zoom="0.35"
     inkscape:pageshadow="2"
     inkscape:pageopacity="0.0"
     borderopacity="1.0"
     bordercolor="#666666"
     pagecolor="#ffffff"
     id="base" />
  <metadata
     id="metadata1405">
    <rdf:RDF>
      <cc:Work
         rdf:about="">
        <dc:format>image/svg+xml</dc:format>
        <dc:type
           rdf:resource="http://purl.org/dc/dcmitype/StillImage" />
        <dc:title></dc:title>
      </cc:Work>
    </rdf:RDF>
  </metadata>
  <g
     id="layer1"
     inkscape:groupmode="layer"
     inkscape:label="Layer 1">
    <g
       transform="matrix(0.92604166,0,0,0.92604166,-665.43369,-97.644476)"
       id="g10431">
      <g
         id="XMLID_791_">
        <path
           inkscape:connector-curvature="0"
           d="m 752.8,281.8 c 0,0 -13.1,-6.8 -14,10.9 -0.9,17.8 13.1,32.9 28.7,31.5"
           fill="#F9C68C"
           id="XMLID_1265_" />
      </g>
      <g
         id="XMLID_790_">
        <path
           inkscape:connector-curvature="0"
           d="m 765.4,326.4 c -6.7,0 -13.2,-2.7 -18.6,-7.9 -6.9,-6.7 -10.6,-16.1 -10.1,-25.9 0.3,-6.6 2.3,-10.9 5.9,-13 5,-2.8 10.9,0.2 11.2,0.3 l -1.9,3.6 c 0,0 -4.2,-2.1 -7.2,-0.4 -2.8,1.6 -3.6,6.1 -3.8,9.6 -0.4,8.5 2.9,17 8.8,22.7 5,4.8 11.3,7.2 17.6,6.6 l 0.4,4.1 c -0.8,0.3 -1.6,0.3 -2.3,0.3 z"
           fill="#713517"
           id="XMLID_1180_" />
      </g>
      <g
         id="XMLID_787_">
        <path
           inkscape:connector-curvature="0"
           d="M 923.5,446.2 H 771 v 0 c 0,-30.2 24.5,-54.7 54.7,-54.7 h 43 c 30.3,0 54.8,24.5 54.8,54.7 z"
           fill="#85B440"
           id="XMLID_1165_" />
      </g>
      <g
         id="XMLID_786_">
        <path
           inkscape:connector-curvature="0"
           d="M 925.5,448.3 H 769 v -2.1 c 0,-31.3 25.5,-56.8 56.8,-56.8 h 43 c 31.3,0 56.8,25.5 56.8,56.8 v 2.1 z M 773.1,444.2 H 921.3 C 920.2,416.1 897,393.6 868.7,393.6 h -43 c -28.3,-0.1 -51.5,22.5 -52.6,50.6 z"
           fill="#713517"
           id="XMLID_1176_" />
      </g>
      <g
         id="XMLID_785_">
        <path
           inkscape:connector-curvature="0"
           d="m 864.7,390.1 v -23.6 h -34.8 v 23.6 c 0,22.1 34.8,22.1 34.8,0 z"
           fill="#F9C68C"
           id="XMLID_1264_" />
      </g>
      <g
         id="XMLID_784_">
        <path
           inkscape:connector-curvature="0"
           d="m 847.3,408.7 c -9.7,0 -19.4,-6.4 -19.4,-18.6 v -25.7 h 38.9 v 25.7 c -0.1,12.2 -9.9,18.6 -19.5,18.6 z m -15.4,-40.2 v 21.6 c 0,10 8,14.5 15.3,14.5 7.4,0 15.3,-4.5 15.3,-14.5 v -21.6 z"
           fill="#713517"
           id="XMLID_1173_" />
      </g>
      <g
         id="XMLID_783_">
        <path
           inkscape:connector-curvature="0"
           d="m 941.7,281.8 c 0,0 13.1,-6.8 14,10.9 0.9,17.8 -13.1,32.9 -28.7,31.5"
           fill="#F9C68C"
           id="XMLID_1263_" />
      </g>
      <g
         id="XMLID_782_">
        <path
           inkscape:connector-curvature="0"
           d="m 941.7,269 c 0,52.1 -42.3,110.9 -94.5,110.9 -52.2,0 -94.5,-58.7 -94.5,-110.9 0,-52.2 42.3,-77.9 94.5,-77.9 52.2,0 94.5,25.8 94.5,77.9 z"
           fill="#F9C68C"
           id="XMLID_1262_" />
      </g>
      <g
         id="XMLID_781_">
        <path
           inkscape:connector-curvature="0"
           d="m 847.3,382 c -54.4,0 -96.5,-60.7 -96.5,-112.9 0,-25.2 9.8,-46 28.5,-60.1 17.1,-13 40.6,-19.8 68,-19.8 27.4,0 50.9,6.9 68,19.8 18.6,14.1 28.5,34.9 28.5,60.1 0,52.2 -42.2,112.9 -96.5,112.9 z m 0,-188.8 c -44.7,0 -92.4,19.9 -92.4,75.8 0,25 10.2,52.6 27.2,73.7 18.3,22.6 41.4,35.1 65.2,35.1 23.8,0 46.9,-12.5 65.2,-35.1 17,-21.1 27.2,-48.7 27.2,-73.7 0,-55.9 -47.8,-75.8 -92.4,-75.8 z"
           fill="#713517"
           id="XMLID_1170_" />
      </g>
      <g
         id="XMLID_780_">
        <path
           inkscape:connector-curvature="0"
           d="m 929.2,326.4 c -0.7,0 -1.5,0 -2.2,-0.1 l 0.4,-4.1 c 6.3,0.6 12.5,-1.8 17.6,-6.6 6,-5.7 9.3,-14.2 8.8,-22.7 -0.2,-3.5 -1,-8 -3.8,-9.6 -3,-1.7 -7.2,0.4 -7.2,0.4 l -1.9,-3.6 c 0.2,-0.1 6.2,-3.2 11.2,-0.3 3.6,2 5.5,6.4 5.9,13 0.5,9.8 -3.2,19.2 -10.1,25.9 -5.5,5 -12,7.7 -18.7,7.7 z"
           fill="#713517"
           id="XMLID_1169_" />
      </g>
      <g
         id="XMLID_767_">
        <g
           id="XMLID_775_">
          <circle
             r="6.8000002"
             cy="288.29999"
             cx="812"
             fill="#713517"
             id="XMLID_1261_" />
        </g>
        <g
           id="XMLID_773_">
          <circle
             r="6.8000002"
             cy="288.29999"
             cx="882.5"
             fill="#713517"
             id="XMLID_1260_" />
        </g>
      </g>
      <g
         id="XMLID_764_">
        <g
           id="XMLID_766_">
          <path
             inkscape:connector-curvature="0"
             d="m 818.9,332.7 h 56.8 c 0,0 -4.6,24.3 -28.4,24.4 -23,0.1 -28.4,-24.4 -28.4,-24.4 z"
             fill="#713517"
             id="XMLID_1259_" />
        </g>
        <g
           id="XMLID_765_">
          <path
             inkscape:connector-curvature="0"
             d="m 828.6,349.8 c 0,0 7,-8.2 20.7,-7.4 13.7,0.8 17.9,6.3 17.9,6.3 0,0 -4.3,9.2 -18.3,8.3 -13.8,-0.9 -20.3,-7.2 -20.3,-7.2 z"
             fill="#EF5353"
             id="XMLID_1258_" />
        </g>
      </g>
      <g
         id="XMLID_763_">
        <path
           inkscape:connector-curvature="0"
           d="m 847.1,359.1 c -24.2,0 -30.2,-25.7 -30.3,-26 -0.1,-0.6 0,-1.2 0.4,-1.7 0.4,-0.5 1,-0.8 1.6,-0.8 h 56.8 c 0.6,0 1.2,0.3 1.6,0.7 0.4,0.5 0.5,1.1 0.4,1.7 0,0.3 -5.2,26 -30.4,26.1 0,0 0,0 -0.1,0 z m -25.5,-24.4 c 2,5.9 8.6,20.3 25.5,20.3 0,0 0.1,0 0.1,0 17.5,-0.1 23.9,-14.4 25.7,-20.3 z"
           fill="#713517"
           id="XMLID_1166_" />
      </g>
      <g
         id="XMLID_758_">
        <circle
           r="3.0999999"
           cy="309.20001"
           cx="847.29999"
           fill="#EF5353"
           id="XMLID_1257_" />
      </g>
      <g
         id="XMLID_615_">
        <path
           inkscape:connector-curvature="0"
           d="m 955.4,246.2 c 5.3,-4.5 8.6,-11.2 8.6,-18.7 0,-10.6 -6.6,-19.6 -16,-23.1 2.4,-3.8 3.8,-8.3 3.8,-13.2 0,-13.7 -11.1,-24.7 -24.7,-24.7 -0.8,0 -1.5,0 -2.3,0.1 C 922.7,150.5 909,138 892.3,138 c -5,0 -9.8,1.1 -14,3.1 -5.8,-9.3 -16.1,-15.5 -27.9,-15.5 -12.9,0 -24.1,7.5 -29.4,18.3 -5.3,-3.7 -11.8,-5.9 -18.8,-5.9 -16.7,0 -30.5,12.5 -32.5,28.6 -0.7,-0.1 -1.5,-0.1 -2.3,-0.1 -13.7,0 -24.7,11.1 -24.7,24.7 0,4.9 1.4,9.4 3.8,13.2 -9.3,3.5 -16,12.5 -16,23.1 0,7.5 3.3,14.2 8.6,18.7 -6.6,2.6 -11.3,9 -11.3,16.6 0,9.8 8,17.8 17.8,17.8 3.8,-0.3 16,31.5 16,31.5 v -39.5 c -0.1,-15.5 9.5,-20.7 16,-23.2 0.2,-8.6 7.2,-15.5 15.8,-15.5 4.1,0 7.8,1.6 10.6,4.1 3.2,3 7.8,3.9 11.9,2.2 2.5,-1.1 5.3,-1.7 8.3,-1.7 3.5,0 6.9,0.9 9.8,2.4 3.4,1.8 7.4,1.8 10.8,0 2.9,-1.5 6.3,-2.4 9.8,-2.4 6.7,0 12.7,3.2 16.6,8.1 0.8,1 2,1.6 3.2,1.6 h 0.2 c 1.5,0 2.8,-0.8 3.6,-2 2.9,-4.6 8,-7.7 13.9,-7.7 6.7,0 12.5,4.1 15.1,9.9 h 2.2 c 22.3,0.7 24.5,16.6 24.8,24.4 0,0.2 0,35.9 0,35.9 4.5,-10.6 15.7,-27.6 15.7,-27.6 v -0.6 c 9.3,-0.5 16.8,-8.3 16.8,-17.7 0,-7.6 -4.7,-14 -11.3,-16.6 z"
           fill="#7B4732"
           id="XMLID_1138_" />
      </g>
      <g
         id="XMLID_618_">
        <path
           inkscape:connector-curvature="0"
           d="m 761.6,314 c -0.8,0 -1.6,-0.5 -1.9,-1.3 -5.1,-13.2 -11.9,-28.2 -14.4,-30.1 -10.8,-0.2 -19.6,-9 -19.6,-19.8 0,-7.2 3.8,-13.6 9.8,-17.1 -4.6,-4.9 -7.1,-11.4 -7.1,-18.2 0,-10.2 6,-19.6 15.1,-24.1 -2,-3.8 -3,-8 -3,-12.2 0,-14.8 12,-26.8 26.8,-26.8 0.2,0 0.3,0 0.5,0 3,-16.4 17.4,-28.5 34.3,-28.5 6.4,0 12.6,1.7 18,5 6.2,-10.8 17.6,-17.4 30.2,-17.4 11.5,0 22.1,5.6 28.7,15 4.2,-1.7 8.6,-2.6 13.2,-2.6 16.8,0 31.2,12.1 34.3,28.5 0.2,0 0.3,0 0.5,0 14.8,0 26.8,12 26.8,26.8 0,4.3 -1,8.4 -3,12.2 9.1,4.4 15.1,13.8 15.1,24.1 0,6.8 -2.6,13.2 -7.1,18.2 6.1,3.5 9.8,10 9.8,17.1 0,10 -7.5,18.4 -17.3,19.7 -1.4,2.1 -11.3,17.4 -15.4,27 -0.4,0.9 -1.3,1.4 -2.3,1.2 -1,-0.2 -1.6,-1 -1.6,-2 0,-0.4 0,-35.4 0,-35.9 -0.7,-14.6 -8.1,-21.9 -22.8,-22.4 H 907 c -0.8,0 -1.5,-0.5 -1.9,-1.2 -2.3,-5.3 -7.5,-8.7 -13.2,-8.7 -5,0 -9.5,2.5 -12.1,6.7 -1.2,1.9 -3.2,3 -5.3,3 0,0 0,0 0,0 h -0.2 c -1.9,0 -3.7,-0.9 -4.8,-2.4 -3.6,-4.7 -9.1,-7.3 -15,-7.3 -3.1,0 -6.1,0.7 -8.8,2.2 -4,2.1 -8.8,2.1 -12.8,0 -2.7,-1.4 -5.7,-2.2 -8.8,-2.2 -2.6,0 -5.1,0.5 -7.5,1.5 -4.6,2 -10.2,1 -14.1,-2.6 -2.5,-2.3 -5.8,-3.6 -9.2,-3.6 -7.4,0 -13.6,6 -13.7,13.4 0,0.8 -0.5,1.6 -1.3,1.9 -6.3,2.4 -14.7,7.3 -14.7,21.3 V 312 c 0,1 -0.7,1.8 -1.7,2 0,0 -0.1,0 -0.3,0 z m -15.9,-35.5 c 1.5,0 4.9,1.3 13.8,22.8 v -28.8 c -0.1,-17 11,-22.6 16.1,-24.7 0.9,-9 8.6,-16.1 17.7,-16.1 4.4,0 8.7,1.6 12,4.6 2.7,2.5 6.5,3.2 9.7,1.8 2.9,-1.2 5.9,-1.9 9.1,-1.9 3.7,0 7.5,0.9 10.8,2.7 2.8,1.5 6.1,1.5 8.9,0 3.3,-1.7 7,-2.7 10.8,-2.7 7.2,0 13.8,3.2 18.2,8.9 0.4,0.5 1,0.8 1.6,0.8 h 0.2 c 0,0 0,0 0,0 0.7,0 1.4,-0.4 1.8,-1.1 3.4,-5.4 9.2,-8.6 15.6,-8.6 6.9,0 13.2,3.8 16.4,9.9 h 0.9 c 11.8,0.4 25.9,5.2 26.9,26.4 0,0.2 0,15.4 0,27.2 4.5,-8.4 10.2,-17.2 11.6,-19.4 0,-1.1 0.9,-1.9 1.9,-2 8.3,-0.5 14.8,-7.4 14.8,-15.7 0,-6.5 -3.9,-12.3 -10,-14.6 -0.7,-0.3 -1.2,-0.9 -1.3,-1.6 -0.1,-0.7 0.1,-1.4 0.7,-1.9 5,-4.3 7.9,-10.6 7.9,-17.2 0,-9.4 -5.9,-17.9 -14.7,-21.2 -0.6,-0.2 -1,-0.7 -1.2,-1.3 -0.2,-0.6 -0.1,-1.2 0.2,-1.7 2.3,-3.6 3.5,-7.8 3.5,-12.1 0,-12.5 -10.2,-22.7 -22.7,-22.7 -0.6,0 -1.3,0 -2.1,0.1 -1.1,0.1 -2.1,-0.7 -2.2,-1.8 -2,-15.3 -15.1,-26.8 -30.5,-26.8 -4.6,0 -9,1 -13.1,2.9 -0.9,0.4 -2.1,0.1 -2.6,-0.8 -5.7,-9.1 -15.4,-14.6 -26.2,-14.6 -11.8,0 -22.4,6.6 -27.6,17.2 -0.3,0.5 -0.7,0.9 -1.3,1.1 -0.6,0.1 -1.2,0 -1.7,-0.3 -5.2,-3.6 -11.3,-5.5 -17.6,-5.5 -15.4,0 -28.5,11.5 -30.5,26.8 -0.1,1.1 -1.1,1.9 -2.2,1.8 -0.8,-0.1 -1.5,-0.1 -2.1,-0.1 -12.5,0 -22.7,10.2 -22.7,22.7 0,4.3 1.2,8.5 3.5,12.1 0.3,0.5 0.4,1.2 0.2,1.7 -0.2,0.6 -0.6,1.1 -1.2,1.3 -8.8,3.3 -14.7,11.8 -14.7,21.2 0,6.6 2.9,12.8 7.9,17.2 0.5,0.5 0.8,1.2 0.7,1.9 -0.1,0.7 -0.6,1.3 -1.3,1.6 -6.1,2.4 -10,8.1 -10,14.6 0,8.7 7,15.7 15.7,15.7 0.3,0.2 0.4,0.2 0.4,0.2 z"
           fill="#713517"
           id="XMLID_1140_" />
      </g>
    </g>
  </g>
</svg>
