<?xml version="1.0" encoding="UTF-8" standalone="no"?>
<svg
   xmlns:dc="http://purl.org/dc/elements/1.1/"
   xmlns:cc="http://creativecommons.org/ns#"
   xmlns:rdf="http://www.w3.org/1999/02/22-rdf-syntax-ns#"
   xmlns:svg="http://www.w3.org/2000/svg"
   xmlns="http://www.w3.org/2000/svg"
   xmlns:xlink="http://www.w3.org/1999/xlink"
   xmlns:sodipodi="http://sodipodi.sourceforge.net/DTD/sodipodi-0.dtd"
   xmlns:inkscape="http://www.inkscape.org/namespaces/inkscape"
   inkscape:version="1.0beta1 (32d4812, 2019-09-19)"
   id="svg1408"
   version="1.1"
   viewBox="0 0 238.12499 317.50001"
   height="1200"
   width="900">
  <defs
     id="defs1402">
    <clipPath
       id="SVGID_2_">
      <use
         xlink:href="#SVGID_1_"
         overflow="visible"
         id="use1978"
         x="0"
         y="0"
         width="100%"
         height="100%" />
    </clipPath>
    <circle
       id="SVGID_1_"
       cx="231.7"
       cy="310.29999"
       r="136.5" />
    <clipPath
       id="SVGID_4_">
      <use
         height="100%"
         width="100%"
         y="0"
         x="0"
         id="use2092"
         overflow="visible"
         xlink:href="#SVGID_3_" />
    </clipPath>
    <circle
       r="136.5"
       cy="310.29999"
       cx="543.90002"
       id="SVGID_3_" />
    <clipPath
       id="SVGID_6_">
      <use
         height="100%"
         width="100%"
         y="0"
         x="0"
         id="use2158"
         overflow="visible"
         xlink:href="#SVGID_5_" />
    </clipPath>
    <circle
       r="136.5"
       cy="310.29999"
       cx="856.09998"
       id="SVGID_5_" />
    <clipPath
       id="SVGID_8_">
      <use
         height="100%"
         width="100%"
         y="0"
         x="0"
         id="use2256"
         overflow="visible"
         xlink:href="#SVGID_7_" />
    </clipPath>
    <circle
       r="136.5"
       cy="310.29999"
       cx="1168.3"
       id="SVGID_7_" />
    <clipPath
       id="SVGID_10_">
      <use
         height="100%"
         width="100%"
         y="0"
         x="0"
         id="use2342"
         overflow="visible"
         xlink:href="#SVGID_9_" />
    </clipPath>
    <circle
       r="136.5"
       cy="669.70001"
       cx="231.7"
       id="SVGID_9_" />
    <clipPath
       id="SVGID_12_">
      <use
         height="100%"
         width="100%"
         y="0"
         x="0"
         id="use2418"
         overflow="visible"
         xlink:href="#SVGID_11_" />
    </clipPath>
    <circle
       r="136.5"
       cy="669.70001"
       cx="543.90002"
       id="SVGID_11_" />
    <clipPath
       id="SVGID_14_">
      <use
         height="100%"
         width="100%"
         y="0"
         x="0"
         id="use2556"
         overflow="visible"
         xlink:href="#SVGID_13_" />
    </clipPath>
    <circle
       r="136.5"
       cy="669.70001"
       cx="856.09998"
       id="SVGID_13_" />
    <clipPath
       id="SVGID_16_">
      <use
         height="100%"
         width="100%"
         y="0"
         x="0"
         id="use2684"
         overflow="visible"
         xlink:href="#SVGID_15_" />
    </clipPath>
    <circle
       r="136.5"
       cy="669.70001"
       cx="1168.3"
       id="SVGID_15_" />
  </defs>
  <sodipodi:namedview
     inkscape:window-maximized="0"
     inkscape:window-y="134"
     inkscape:window-x="20"
     inkscape:window-height="907"
     inkscape:window-width="1600"
     units="px"
     showgrid="false"
     inkscape:document-rotation="0"
     inkscape:current-layer="layer1"
     inkscape:document-units="mm"
     inkscape:cy="560"
     inkscape:cx="400"
     inkscape:zoom="0.35"
     inkscape:pageshadow="2"
     inkscape:pageopacity="0.0"
     borderopacity="1.0"
     bordercolor="#666666"
     pagecolor="#ffffff"
     id="base" />
  <metadata
     id="metadata1405">
    <rdf:RDF>
      <cc:Work
         rdf:about="">
        <dc:format>image/svg+xml</dc:format>
        <dc:type
           rdf:resource="http://purl.org/dc/dcmitype/StillImage" />
        <dc:title></dc:title>
      </cc:Work>
    </rdf:RDF>
  </metadata>
  <g
     id="layer1"
     inkscape:groupmode="layer"
     inkscape:label="Layer 1">
    <g
       transform="matrix(1.3229166,0,0,1.3229167,-606.42496,-690.56253)"
       style="opacity:1;stop-opacity:1"
       id="g7768">
      <path
         inkscape:connector-curvature="0"
         id="path7664"
         d="m 616.9,730.9 c -9.1,-8.6 -37.7,-9 -46.1,-21.2 -8.4,-12.2 -5.4,-28.4 -2.4,-36.7 h -40 c 3,8.3 6,24.6 -2.4,36.7 -8.4,12.2 -37,12.5 -46.1,21.2 -5.7,5.4 -10.5,23.1 -11.1,29.8 h 159.3 c -0.6,-6.6 -5.4,-24.4 -11.2,-29.8 z"
         fill="#FCDFB0" />
      <path
         inkscape:connector-curvature="0"
         id="path7666"
         d="m 544.2,673 -13.2,9.9 c 0.8,5.4 0.9,11.6 -0.7,17.6 8.6,8.4 21.3,15 40.8,9.5 -0.1,-0.1 -0.2,-0.2 -0.3,-0.3 -8.4,-12.2 -5.4,-28.4 -2.4,-36.7 z"
         fill="#DBBB8D" />
      <path
         inkscape:connector-curvature="0"
         id="path7668"
         d="M 628.1,762 H 468.8 c -0.4,0 -0.7,-0.2 -1,-0.4 -0.3,-0.2 -0.4,-0.7 -0.4,-1 0.6,-6.3 5.3,-24.7 11.5,-30.6 4.3,-4 12.2,-6.3 20.6,-8.6 10.3,-2.9 21,-5.9 25.4,-12.3 9.4,-13.6 3.5,-31.9 2.2,-35.5 -0.2,-0.4 -0.1,-0.9 0.2,-1.2 0.3,-0.4 0.7,-0.6 1.1,-0.6 h 40 c 0.4,0 0.9,0.2 1.1,0.6 0.3,0.4 0.3,0.8 0.2,1.2 -1.3,3.5 -7.2,21.9 2.2,35.5 4.4,6.4 15.1,9.4 25.4,12.3 8.4,2.4 16.3,4.6 20.6,8.6 v 0 c 6.2,5.9 11,24.4 11.5,30.6 0,0.4 -0.1,0.8 -0.4,1 -0.2,0.3 -0.6,0.4 -0.9,0.4 z m -157.8,-2.7 h 156.2 c -1.1,-7.7 -5.7,-22.9 -10.5,-27.4 -3.8,-3.6 -11.4,-5.7 -19.4,-8 -10.8,-3 -21.9,-6.2 -26.9,-13.4 -9,-13.1 -5.1,-29.9 -3.2,-36.1 h -36.2 c 1.9,6.2 5.9,23.1 -3.2,36.1 -5,7.2 -16.1,10.4 -26.9,13.4 -8.1,2.3 -15.7,4.4 -19.4,8 -4.7,4.5 -9.4,19.7 -10.5,27.4 z"
         fill="#5E1145" />
      <g
         id="g7744">
        <g
           id="g7676">
          <g
             id="g7674">
            <path
               inkscape:connector-curvature="0"
               id="path7670"
               d="m 594.1,631.4 -5.3,25.7 c 9.5,3.3 11.1,-3.8 13.6,-13 2.5,-9.2 -2.8,-13.3 -8.3,-12.7 z"
               fill="#FCDFB0" />
            <path
               inkscape:connector-curvature="0"
               id="path7672"
               d="m 502.8,632.1 5.7,25.6 c -9.5,3.5 -11.1,-3.6 -13.8,-12.7 -2.7,-9.2 2.5,-13.4 8.1,-12.9 z"
               fill="#FCDFB0" />
          </g>
        </g>
        <g
           id="g7682">
          <path
             inkscape:connector-curvature="0"
             id="path7678"
             d="m 593,659.3 c -1.4,0 -3,-0.3 -4.7,-0.9 -0.6,-0.2 -1,-0.9 -0.9,-1.6 l 5.3,-25.7 c 0.1,-0.6 0.6,-1 1.2,-1.1 3.3,-0.4 6.3,0.7 8.3,3 1.6,1.9 3.2,5.4 1.5,11.4 l -0.3,1.1 c -1.6,5.8 -3,10.9 -6.8,12.9 -1.1,0.6 -2.3,0.9 -3.6,0.9 z m -2.7,-3.2 c 2.1,0.6 3.8,0.5 5,-0.1 2.7,-1.4 4,-5.9 5.4,-11.2 l 0.3,-1.1 c 1.1,-3.9 0.7,-6.9 -0.9,-8.9 -1.2,-1.4 -2.9,-2.1 -4.9,-2.1 z"
             fill="#5E1145" />
          <path
             inkscape:connector-curvature="0"
             id="path7680"
             d="m 504.2,660 c -1.3,0 -2.4,-0.3 -3.5,-0.8 -3.8,-1.9 -5.3,-6.9 -7,-12.8 l -0.3,-1.1 c -1.8,-6 -0.3,-9.5 1.3,-11.5 1.9,-2.3 4.9,-3.4 8.2,-3.1 0.6,0.1 1.1,0.5 1.2,1.1 l 5.7,25.6 c 0.2,0.7 -0.2,1.3 -0.9,1.6 -1.7,0.6 -3.3,1 -4.7,1 z m -2.5,-26.5 c -2,0 -3.7,0.8 -4.9,2.2 -1.7,2 -1.9,5.1 -0.8,8.9 l 0.3,1.1 c 1.5,5.2 2.9,9.7 5.6,11.1 1.3,0.6 2.9,0.7 5,0.1 z"
             fill="#5E1145" />
        </g>
        <path
           inkscape:connector-curvature="0"
           id="path7684"
           d="m 521.3,584.8 c -13.6,0.1 -24.1,12.1 -22.4,25.6 1.6,12.6 3.6,34.3 5.2,43.8 2.3,13.5 9.8,25.6 20.8,33.8 6.4,4.7 13.4,9.6 19,12.7 3.1,1.7 6.9,1.7 9.9,-0.1 5.5,-3.2 12.5,-8.2 18.8,-13 10.9,-8.3 18.2,-20.5 20.3,-34.1 1.5,-9.6 3.1,-31.3 4.5,-43.9 1.5,-13.6 -9.2,-25.4 -22.8,-25.3 z"
           fill="#FCDFB0" />
        <path
           inkscape:connector-curvature="0"
           id="path7686"
           d="m 548.9,703.4 c -1.9,0 -3.8,-0.5 -5.6,-1.5 -4.8,-2.7 -11.3,-7 -19.1,-12.8 -11.4,-8.4 -19,-20.7 -21.4,-34.6 -1,-5.9 -2.1,-16.4 -3.2,-26.5 -0.7,-6.4 -1.4,-12.5 -2,-17.4 -0.9,-6.8 1.2,-13.7 5.8,-18.9 4.5,-5.2 11.1,-8.2 18,-8.2 v 1.4 -1.4 l 53.5,-0.4 c 0.1,0 0.1,0 0.2,0 6.8,0 13.3,2.9 17.9,8 4.6,5.1 6.8,12 6.1,18.8 -0.5,4.9 -1.1,11 -1.7,17.4 -0.9,10.1 -1.9,20.6 -2.8,26.6 -2.1,14 -9.5,26.4 -20.8,35 -7.8,5.9 -14.1,10.3 -18.9,13.1 -2,0.9 -4,1.4 -6,1.4 z M 575,585.8 c -0.1,0 -0.1,0 -0.2,0 l -53.5,0.4 c -6.1,0 -11.9,2.7 -15.9,7.3 -4,4.6 -5.9,10.7 -5.1,16.8 0.6,4.9 1.3,11 2,17.4 1.1,10.1 2.2,20.5 3.2,26.3 2.2,13.2 9.5,24.9 20.3,32.9 7.8,5.7 14.1,9.9 18.8,12.6 2.7,1.5 6,1.5 8.6,-0.1 4.7,-2.7 11,-7.1 18.6,-12.9 10.7,-8.1 17.8,-19.9 19.8,-33.2 0.9,-5.9 1.9,-16.3 2.8,-26.4 0.6,-6.5 1.2,-12.6 1.7,-17.5 0.7,-6.1 -1.3,-12.2 -5.4,-16.7 -3.9,-4.4 -9.7,-6.9 -15.7,-6.9 z"
           fill="#5E1145" />
        <path
           inkscape:connector-curvature="0"
           id="path7688"
           d="m 530.8,672.9 c 2.6,3.6 6.2,7.2 17.6,6.3 h 0.9 c 11.4,0.7 15,-3 17.5,-6.6 -12.6,1.4 -24.6,1.5 -36,0.3 z"
           fill="#F69884" />
        <g
           id="g7692">
          <path
             inkscape:connector-curvature="0"
             id="path7690"
             d="m 537,675.2 c -2.4,0 -4.9,-0.4 -7.2,-1.4 -0.7,-0.3 -1,-1.1 -0.6,-1.8 0.3,-0.7 1.1,-1 1.8,-0.6 4.1,1.9 9.3,1 13.5,0.3 v 0 c 2.8,-0.5 5.7,-0.5 8.5,-0.1 v 0 c 4.2,0.7 9.4,1.5 13.5,-0.5 0.7,-0.3 1.5,-0.1 1.8,0.6 0.3,0.7 0.1,1.5 -0.6,1.8 -4.9,2.4 -10.8,1.5 -15.2,0.8 v 0 c -2.5,-0.4 -5.1,-0.4 -7.6,0.1 v 0 c -2.3,0.3 -5.1,0.8 -7.9,0.8 z"
             fill="#5E1145" />
        </g>
        <path
           inkscape:connector-curvature="0"
           id="path7694"
           d="m 548.6,662.9 c -2.2,0 -6.3,-1.2 -8,-3.4 -0.5,-0.6 -0.4,-1.4 0.2,-1.9 0.6,-0.5 1.4,-0.4 1.9,0.2 1,1.3 4.1,2.4 5.9,2.4 0,0 0,0 0,0 1.8,0 4.9,-1.1 5.9,-2.4 0.5,-0.6 1.3,-0.7 1.9,-0.3 0.6,0.5 0.7,1.3 0.3,1.9 -1.7,2.3 -5.8,3.5 -8.1,3.5 0.1,0 0.1,0 0,0 z"
           fill="#5E1145" />
        <g
           id="g7700">
          <circle
             r="5.5"
             id="ellipse7696"
             cy="637"
             cx="570.59998"
             fill="#5E1145"
             transform="matrix(1,-0.00784848,0.00784848,1,-4.982,4.4983)" />
          <path
             inkscape:connector-curvature="0"
             id="path7698"
             d="m 561.5,636.8 c -0.5,0 -0.9,-0.3 -1.2,-0.7 -0.4,-0.7 -0.1,-1.5 0.5,-1.9 0.4,-0.2 0.8,-0.5 1.2,-0.7 2.9,-1.8 6.8,-4.3 14.5,-1.2 5.2,2.1 6.7,1.6 7,1.5 0.3,-0.5 0.9,-0.8 1.5,-0.7 0.7,0.2 1.2,0.9 1,1.7 -0.1,0.2 -0.3,0.9 -1.3,1.4 -1.7,0.9 -4.8,0.4 -9.3,-1.4 -6.4,-2.6 -9.3,-0.8 -12.1,1 -0.5,0.3 -0.9,0.5 -1.3,0.8 0,0.1 -0.2,0.2 -0.5,0.2 z m 22,-2.7 c 0,0 0,0 0,0 0,0 0,0 0,0 z m 0,0 z"
             fill="#5E1145" />
        </g>
        <path
           inkscape:connector-curvature="0"
           id="path7702"
           d="m 558.6,628.3 c 8.5,-3 22.7,-5.7 33.5,-0.3 -2.5,-2.8 -9.5,-6.5 -9.5,-6.5 -9.6,-1.3 -17.9,0.7 -25.5,4.3 z"
           fill="#696167" />
        <path
           inkscape:connector-curvature="0"
           id="path7704"
           d="m 538.2,628.4 c -8.5,-2.9 -22.8,-5.4 -33.5,0.3 2.4,-2.8 9.4,-6.6 9.4,-6.6 9.6,-1.4 17.9,0.4 25.5,3.9 z"
           fill="#696167" />
        <path
           inkscape:connector-curvature="0"
           id="path7706"
           d="m 558.6,629.6 c -0.5,0 -0.9,-0.2 -1.2,-0.7 l -1.5,-2.4 c -0.2,-0.3 -0.3,-0.7 -0.1,-1.1 0.1,-0.4 0.4,-0.7 0.7,-0.8 8.8,-4.1 17.4,-5.6 26.2,-4.4 0.2,0 0.3,0.1 0.5,0.1 0.3,0.2 7.3,3.9 9.9,6.8 0.4,0.5 0.5,1.2 0.1,1.7 -0.4,0.5 -1.1,0.7 -1.7,0.4 -12.1,-6.1 -27.9,-1.3 -32.5,0.3 -0.1,0.1 -0.3,0.1 -0.4,0.1 z m 0.5,-3.2 0.1,0.2 c 4.6,-1.5 15,-4.3 25.1,-2.6 -0.8,-0.5 -1.6,-0.9 -2.1,-1.2 -7.9,-0.9 -15.3,0.2 -23.1,3.6 z"
           fill="#5E1145" />
        <g
           id="g7712">
          <circle
             r="5.5"
             id="ellipse7708"
             cy="637.40002"
             cx="526.29999"
             fill="#5E1145"
             transform="matrix(1,-0.00784848,0.00784848,1,-4.9861,4.1505)" />
          <path
             inkscape:connector-curvature="0"
             id="path7710"
             d="m 514.1,637.2 c -0.8,0 -1.5,-0.1 -2,-0.4 -1,-0.5 -1.2,-1.2 -1.3,-1.4 -0.2,-0.7 0.2,-1.5 1,-1.7 0.6,-0.2 1.2,0.1 1.5,0.6 0.3,0.1 1.9,0.6 7,-1.6 7.6,-3.2 11.6,-0.8 14.5,1 0.4,0.3 0.8,0.5 1.2,0.7 0.7,0.4 0.9,1.2 0.6,1.8 -0.4,0.7 -1.2,0.9 -1.8,0.6 -0.4,-0.2 -0.9,-0.5 -1.3,-0.8 -2.8,-1.7 -5.7,-3.4 -12.1,-0.8 -3.1,1.3 -5.5,2 -7.3,2 z m -0.7,-2.6 c 0,0 0,0 0,0 0,0 0,0 0,0 z m 0,0 c 0,0 0,0 0,0 0,0 0,0 0,0 z"
             fill="#5E1145" />
        </g>
        <path
           inkscape:connector-curvature="0"
           id="path7714"
           d="m 504.7,630.1 c -0.4,0 -0.8,-0.2 -1.1,-0.5 -0.4,-0.5 -0.4,-1.2 0,-1.7 2.6,-3 9.5,-6.8 9.8,-6.9 0.1,-0.1 0.3,-0.1 0.5,-0.2 8.8,-1.3 17.4,0 26.3,4 0.4,0.2 0.6,0.5 0.7,0.8 0.1,0.4 0.1,0.8 -0.1,1.1 l -1.5,2.5 c -0.3,0.6 -1,0.8 -1.6,0.6 -4.6,-1.5 -20.5,-6.1 -32.5,0.2 -0.1,0 -0.3,0.1 -0.5,0.1 z M 520,624 c 7.4,0 14.2,1.8 17.6,2.8 l 0.1,-0.2 c -7.9,-3.3 -15.3,-4.3 -23.1,-3.2 -0.5,0.3 -1.3,0.7 -2.1,1.2 2.5,-0.4 5,-0.6 7.5,-0.6 z"
           fill="#5E1145" />
        <path
           inkscape:connector-curvature="0"
           id="path7716"
           d="m 500.5,626.6 c -0.7,0 -1.4,-0.6 -1.4,-1.4 -0.1,-7.7 0.8,-14.8 2.4,-20.4 2.9,-9.9 8.1,-15.6 15.6,-16.9 0.1,0 0.1,0 0.2,0 l 61.5,-0.5 c 0.1,0 0.1,0 0.2,0 7.5,1.1 12.8,6.7 15.8,16.6 1.7,5.6 2.7,12.7 2.7,20.4 0,0.8 -0.6,1.4 -1.4,1.4 0,0 0,0 0,0 -0.7,0 -1.4,-0.6 -1.4,-1.4 -0.1,-7.5 -1,-14.3 -2.6,-19.6 -2.7,-8.8 -7.2,-13.7 -13.5,-14.7 l -61.3,0.5 c -6.3,1.1 -10.7,6.1 -13.3,14.9 -1.6,5.4 -2.3,12.2 -2.3,19.7 0.2,0.8 -0.4,1.4 -1.2,1.4 0.1,0 0.1,0 0,0 z"
           fill="#5E1145" />
        <path
           inkscape:connector-curvature="0"
           id="path7718"
           d="m 605.2,595 c -4.1,-17.7 -14.8,-32.1 -32.7,-37.5 -17.9,-5.4 -44.3,-3.4 -61.4,7.6 -21.7,6.2 -20.7,20.8 -20.8,35 -0.1,14.2 5.3,30.9 6.3,30.9 1.1,0 1.9,5.5 5.8,10.2 -3,-29.1 10.3,-47.1 16.4,-52 l 60.1,-0.5 c 13.6,7.2 17.1,37.3 15.3,55.8 3,-8.2 15.1,-31.8 11,-49.5 z"
           fill="#696167" />
        <path
           inkscape:connector-curvature="0"
           id="path7720"
           d="m 594.2,646 c -0.1,0 -0.2,0 -0.3,0 -0.7,-0.2 -1.1,-0.8 -1.1,-1.5 1.7,-17.8 -1.6,-47.2 -14.3,-54.3 l -59.2,0.5 c -3.1,2.6 -7.4,8.1 -10.8,16.1 -4.4,10.4 -6,21.9 -4.7,34.4 0.1,0.6 -0.3,1.2 -0.8,1.4 -0.6,0.2 -1.2,0.1 -1.6,-0.4 -2.4,-2.9 -3.7,-6 -4.5,-8.1 -0.3,-0.6 -0.6,-1.4 -0.8,-1.8 -0.2,-0.1 -0.4,-0.2 -0.6,-0.4 -1.9,-1.9 -6.7,-18.2 -6.6,-31.7 0,-0.7 0,-1.3 0,-2 0.1,-13.8 0.2,-28 21.6,-34.3 8.3,-5.3 19,-8.7 30.8,-10 11.2,-1.2 22.4,-0.4 31.5,2.4 17.1,5.2 29,18.9 33.6,38.5 3.5,15.1 -4.3,33.8 -8.9,45 -0.9,2.1 -1.7,4 -2.2,5.4 0,0.4 -0.6,0.8 -1.1,0.8 z m -15.3,-58.5 c 0.2,0 0.4,0.1 0.6,0.2 8.2,4.3 12.2,15.8 14.1,24.6 1.6,7.5 2.4,16.2 2.3,24.4 4.6,-11 11,-27.8 7.9,-41.2 v 0 c -4.3,-18.7 -15.6,-31.7 -31.7,-36.5 -18.8,-5.7 -44.7,-2.5 -60.3,7.5 -0.1,0.1 -0.2,0.1 -0.4,0.2 -19.6,5.7 -19.7,18.3 -19.8,31.7 0,0.7 0,1.4 0,2 -0.1,12.9 4.3,27.3 5.6,29.6 0.9,0.4 1.4,1.5 2,3.2 0.4,0.9 0.8,1.9 1.3,3 -0.4,-10.8 1.4,-21.2 5.3,-30.3 3.7,-8.7 8.6,-14.7 12,-17.4 0.2,-0.2 0.5,-0.3 0.8,-0.3 l 60.3,-0.7 c 0,0 0,0 0,0 z m -82.3,42.2 c 0,0 0,0 0,0 0,0 0,0 0,0 z"
           fill="#5E1145" />
        <path
           inkscape:connector-curvature="0"
           id="path7722"
           d="m 513.6,574.6 c 3,6.3 4.6,16.3 30.8,25.2 26.2,8.9 30,17.4 30,17.4 0,0 -1.5,-11.9 -5.5,-17.5 9.3,6.4 20.5,21.6 21.9,45 2.2,-10.4 2.7,-20.1 2.7,-20.1 0,0 2.8,16.8 2.3,26.6 4.9,-15.1 14.4,-41.1 -4.2,-68.7 z"
           fill="#696167" />
        <path
           inkscape:connector-curvature="0"
           id="path7724"
           d="m 595.9,652.5 c -0.1,0 -0.2,0 -0.2,0 -0.7,-0.1 -1.2,-0.7 -1.1,-1.4 0.2,-4.3 -0.2,-10 -0.8,-15 -0.4,2.7 -0.9,5.8 -1.5,8.8 -0.1,0.7 -0.8,1.1 -1.4,1.1 -0.7,-0.1 -1.2,-0.6 -1.3,-1.3 -1.1,-18.7 -8.6,-32.3 -16.5,-40 2,5.7 2.8,11.9 2.8,12.3 0.1,0.7 -0.3,1.3 -1,1.5 -0.6,0.2 -1.3,-0.1 -1.6,-0.8 0,-0.1 -4.2,-8.1 -29.2,-16.6 -10.6,-3.6 -18.2,-7.7 -23.3,-12.5 -4.4,-4.2 -6.1,-8.2 -7.5,-11.4 -0.3,-0.7 -0.6,-1.4 -0.9,-2 -0.3,-0.7 0,-1.5 0.7,-1.8 0.7,-0.3 1.5,0 1.8,0.7 0.3,0.7 0.6,1.4 0.9,2.1 2.6,6.2 6.2,14.6 29.1,22.4 15.7,5.4 23.6,10.6 27.4,14.1 -0.8,-3.8 -2.2,-9.1 -4.4,-12.2 -0.4,-0.5 -0.3,-1.3 0.1,-1.7 0.5,-0.5 1.2,-0.5 1.7,-0.2 8.5,5.9 18,18.3 21.3,36.6 0.8,-6.1 1.1,-10.7 1.1,-10.7 0,-0.7 0.6,-1.3 1.3,-1.3 0.7,0 1.3,0.4 1.4,1.1 0.1,0.5 1.6,9.8 2.2,18.5 4.5,-15.1 8.8,-36.9 -6.5,-59.6 -0.4,-0.6 -0.3,-1.5 0.4,-1.9 0.6,-0.4 1.5,-0.3 1.9,0.4 18.2,27.1 9.9,52.8 4.9,68.1 -0.2,0.6 -0.4,1.2 -0.6,1.8 -0.1,0.5 -0.6,0.9 -1.2,0.9 z"
           fill="#5E1145" />
        <path
           inkscape:connector-curvature="0"
           id="path7726"
           d="m 499,611.8 c -0.7,0 -1.3,-0.6 -1.4,-1.3 -0.3,-7.7 5.2,-23.6 9.3,-29 0.5,-0.6 1.3,-0.7 1.9,-0.3 0.6,0.5 0.7,1.3 0.3,1.9 -3.6,4.9 -9,20.3 -8.7,27.3 -0.1,0.8 -0.7,1.4 -1.4,1.4 0,0 0,0 0,0 z"
           fill="#5E1145" />
        <path
           inkscape:connector-curvature="0"
           id="path7728"
           d="m 570.3,593 c -0.3,0 -0.6,-0.1 -0.9,-0.3 -11.6,-9.3 -22.3,-11.9 -30.8,-14 -1.9,-0.5 -3.6,-0.9 -5.2,-1.3 -0.7,-0.2 -1.1,-1 -0.9,-1.7 0.2,-0.7 1,-1.1 1.7,-0.9 1.6,0.4 3.3,0.9 5.1,1.3 8.4,2 19.8,4.8 31.9,14.5 0.6,0.5 0.7,1.3 0.2,1.9 -0.3,0.3 -0.7,0.5 -1.1,0.5 z"
           fill="#5E1145" />
        <g
           id="g7742">
          <g
             id="g7734">
            <circle
               r="2.5999999"
               id="ellipse7730"
               cy="656.40002"
               cx="501.5"
               fill="#FFFFFF"
               transform="matrix(1,-0.00784848,0.00784848,1,-5.1363,3.9562)" />
            <path
               inkscape:connector-curvature="0"
               id="path7732"
               d="m 501.5,660.4 c -1.1,0 -2,-0.4 -2.8,-1.1 -0.8,-0.7 -1.2,-1.7 -1.2,-2.8 0,-1.1 0.4,-2.1 1.1,-2.8 0.7,-0.8 1.7,-1.2 2.8,-1.2 0,0 0,0 0,0 1.1,0 2,0.4 2.8,1.1 0.8,0.7 1.2,1.7 1.2,2.8 0,1.1 -0.4,2.1 -1.1,2.8 -0.7,0.8 -1.7,1.2 -2.8,1.2 0,0 0,0 0,0 z m 0,-5.2 c 0,0 0,0 0,0 -0.3,0 -0.7,0.1 -0.9,0.4 -0.2,0.2 -0.4,0.6 -0.4,0.9 0,0.3 0.1,0.6 0.4,0.9 0.2,0.2 0.6,0.3 0.9,0.4 0.3,0 0.6,-0.1 0.9,-0.4 0.2,-0.2 0.4,-0.6 0.4,-0.9 0,-0.3 -0.1,-0.6 -0.4,-0.9 -0.3,-0.3 -0.6,-0.4 -0.9,-0.4 z"
               fill="#5E1145" />
          </g>
          <g
             id="g7740">
            <circle
               r="2.5999999"
               id="ellipse7736"
               cy="655.70001"
               cx="595.79999"
               fill="#FFFFFF"
               transform="matrix(1,-0.00784848,0.00784848,1,-5.1276,4.6961)" />
            <path
               inkscape:connector-curvature="0"
               id="path7738"
               d="m 595.8,659.7 c -2.2,0 -4,-1.8 -4,-4 0,-2.2 1.8,-4 4,-4 2.2,0 4,1.8 4,4 0,1.1 -0.4,2.1 -1.1,2.8 -0.8,0.7 -1.8,1.1 -2.9,1.2 0,0 0,0 0,0 z m 0,-5.3 c 0,0 0,0 0,0 -0.7,0 -1.3,0.6 -1.3,1.3 0,0.7 0.6,1.2 1.3,1.2 0,0 0,0 0,0 0.3,0 0.6,-0.1 0.9,-0.4 0.2,-0.2 0.4,-0.6 0.4,-0.9 -0.1,-0.6 -0.6,-1.2 -1.3,-1.2 z"
               fill="#5E1145" />
          </g>
        </g>
      </g>
      <path
         inkscape:connector-curvature="0"
         id="path7746"
         d="m 616.9,730.9 c -5.9,-5.6 -20,-7.7 -31.5,-11.8 -9.8,5 -22.8,8.1 -37,8.1 -14.2,0 -27.2,-3.1 -37,-8.1 -11.5,4.1 -25.6,6.3 -31.5,11.8 -5.7,5.4 -10.5,23.1 -11.1,29.8 h 159.3 c -0.6,-6.6 -5.4,-24.4 -11.2,-29.8 z"
         fill="#EA5C5C" />
      <path
         inkscape:connector-curvature="0"
         id="path7748"
         d="M 628.1,762 H 468.8 c -0.4,0 -0.7,-0.2 -1,-0.4 -0.3,-0.2 -0.4,-0.7 -0.4,-1 0.6,-6.3 5.3,-24.7 11.5,-30.6 4.3,-4 12.2,-6.3 20.6,-8.6 3.8,-1.1 7.8,-2.2 11.4,-3.5 0.4,-0.1 0.7,-0.1 1.1,0.1 10,5.1 22.9,7.9 36.4,7.9 13.5,0 26.4,-2.8 36.4,-7.9 0.3,-0.2 0.7,-0.2 1.1,-0.1 3.6,1.3 7.6,2.4 11.4,3.5 8.4,2.4 16.3,4.6 20.6,8.6 6.2,5.9 11,24.4 11.5,30.6 0,0.4 -0.1,0.8 -0.4,1 -0.2,0.3 -0.6,0.4 -0.9,0.4 z m -157.8,-2.7 h 156.2 c -1.1,-7.7 -5.7,-22.9 -10.5,-27.4 -3.8,-3.6 -11.4,-5.7 -19.4,-8 -3.7,-1 -7.5,-2.1 -11,-3.4 -10.3,5.1 -23.4,7.9 -37.1,7.9 -13.7,0 -26.8,-2.8 -37.1,-7.9 -3.6,1.3 -7.4,2.3 -11,3.4 -8.1,2.3 -15.7,4.4 -19.4,8 -4.9,4.5 -9.6,19.7 -10.7,27.4 z"
         fill="#5E1145" />
      <g
         id="g7754">
        <path
           inkscape:connector-curvature="0"
           id="path7750"
           d="m 586.9,720.7 c 0.1,-0.3 0.1,-0.7 0.2,-1 -0.6,-0.2 -1.1,-0.4 -1.7,-0.6 -9.5,4.9 -22.1,7.9 -35.9,8.1 3.7,10.2 29.6,32.2 37.4,-6.5 z"
           fill="#FFFFFF" />
        <path
           inkscape:connector-curvature="0"
           id="path7752"
           d="m 509.9,720.7 c 7.8,38.7 33.8,16.7 37.4,6.4 -13.8,-0.2 -26.4,-3.2 -35.9,-8.1 -0.6,0.2 -1.1,0.4 -1.7,0.6 0.1,0.4 0.1,0.7 0.2,1.1 z"
           fill="#FFFFFF" />
      </g>
      <g
         id="g7760">
        <path
           inkscape:connector-curvature="0"
           id="path7756"
           d="m 570.1,744.1 c -10,0 -19.7,-10.5 -21.9,-16.5 -0.1,-0.4 -0.1,-0.9 0.2,-1.2 0.3,-0.4 0.7,-0.6 1.1,-0.6 13.1,-0.1 25.6,-3 35.3,-7.9 0.3,-0.2 0.7,-0.2 1.1,-0.1 0.5,0.2 1.1,0.4 1.6,0.6 0.6,0.2 1,0.9 0.9,1.5 -0.1,0.3 -0.1,0.7 -0.2,1 0,0 0,0 0,0 -3.7,18.3 -11.4,22.7 -17.2,23.1 -0.2,0.1 -0.6,0.1 -0.9,0.1 z m -18.5,-15.6 c 3,5.5 11.3,13.4 19.3,12.9 6.9,-0.5 12,-7.7 14.7,-20.7 0,0 0,0 0,0 -9.5,4.6 -21.5,7.4 -34,7.8 z m 35.3,-7.8 z"
           fill="#5E1145" />
        <path
           inkscape:connector-curvature="0"
           id="path7758"
           d="m 526.7,744.1 c -0.3,0 -0.7,0 -1,0 -5.8,-0.4 -13.5,-4.8 -17.2,-23.1 0,0 0,0 0,0 -0.1,-0.3 -0.1,-0.7 -0.2,-1 -0.1,-0.7 0.3,-1.3 0.9,-1.5 0.6,-0.2 1.1,-0.4 1.6,-0.6 0.4,-0.1 0.7,-0.1 1.1,0.1 9.7,5 22.2,7.8 35.3,7.9 0.4,0 0.9,0.2 1.1,0.6 0.3,0.4 0.3,0.8 0.2,1.2 -2,5.9 -11.8,16.4 -21.8,16.4 z m -15.4,-23.5 c 2.7,13.1 7.7,20.2 14.7,20.7 8,0.6 16.3,-7.3 19.3,-12.9 -12.6,-0.3 -24.5,-3.1 -34,-7.8 0,0 0,0 0,0 z"
           fill="#5E1145" />
      </g>
      <g
         id="g7766">
        <path
           inkscape:connector-curvature="0"
           id="path7762"
           d="m 606.8,762 c -0.1,0 -0.1,0 -0.2,0 -0.7,-0.1 -1.3,-0.8 -1.2,-1.5 0.4,-3.6 -3.5,-14.4 -5.1,-18.2 -0.3,-0.7 0.1,-1.5 0.8,-1.8 0.7,-0.3 1.5,0.1 1.8,0.8 0.6,1.5 5.8,14.7 5.2,19.6 -0.1,0.6 -0.7,1.1 -1.3,1.1 z"
           fill="#5E1145" />
        <path
           inkscape:connector-curvature="0"
           id="path7764"
           d="m 490.1,762 c -0.7,0 -1.3,-0.5 -1.4,-1.2 -0.6,-4.9 4.6,-18.1 5.2,-19.6 0.3,-0.7 1.1,-1 1.8,-0.8 0.7,0.3 1,1.1 0.8,1.8 -1.6,3.9 -5.5,14.7 -5.1,18.2 0.1,0.7 -0.4,1.4 -1.2,1.5 0,0.1 -0.1,0.1 -0.1,0.1 z"
           fill="#5E1145" />
      </g>
    </g>
  </g>
</svg>
