<?xml version="1.0" encoding="UTF-8" standalone="no"?>
<svg
   xmlns:dc="http://purl.org/dc/elements/1.1/"
   xmlns:cc="http://creativecommons.org/ns#"
   xmlns:rdf="http://www.w3.org/1999/02/22-rdf-syntax-ns#"
   xmlns:svg="http://www.w3.org/2000/svg"
   xmlns="http://www.w3.org/2000/svg"
   xmlns:xlink="http://www.w3.org/1999/xlink"
   xmlns:sodipodi="http://sodipodi.sourceforge.net/DTD/sodipodi-0.dtd"
   xmlns:inkscape="http://www.inkscape.org/namespaces/inkscape"
   inkscape:version="1.0beta1 (32d4812, 2019-09-19)"
   id="svg1408"
   version="1.1"
   viewBox="0 0 238.12499 317.50001"
   height="1200"
   width="900">
  <defs
     id="defs1402">
    <clipPath
       id="SVGID_2_">
      <use
         xlink:href="#SVGID_1_"
         overflow="visible"
         id="use1978"
         x="0"
         y="0"
         width="100%"
         height="100%" />
    </clipPath>
    <circle
       id="SVGID_1_"
       cx="231.7"
       cy="310.29999"
       r="136.5" />
    <clipPath
       id="SVGID_4_">
      <use
         height="100%"
         width="100%"
         y="0"
         x="0"
         id="use2092"
         overflow="visible"
         xlink:href="#SVGID_3_" />
    </clipPath>
    <circle
       r="136.5"
       cy="310.29999"
       cx="543.90002"
       id="SVGID_3_" />
    <clipPath
       id="SVGID_6_">
      <use
         height="100%"
         width="100%"
         y="0"
         x="0"
         id="use2158"
         overflow="visible"
         xlink:href="#SVGID_5_" />
    </clipPath>
    <circle
       r="136.5"
       cy="310.29999"
       cx="856.09998"
       id="SVGID_5_" />
    <clipPath
       id="SVGID_8_">
      <use
         height="100%"
         width="100%"
         y="0"
         x="0"
         id="use2256"
         overflow="visible"
         xlink:href="#SVGID_7_" />
    </clipPath>
    <circle
       r="136.5"
       cy="310.29999"
       cx="1168.3"
       id="SVGID_7_" />
    <clipPath
       id="SVGID_10_">
      <use
         height="100%"
         width="100%"
         y="0"
         x="0"
         id="use2342"
         overflow="visible"
         xlink:href="#SVGID_9_" />
    </clipPath>
    <circle
       r="136.5"
       cy="669.70001"
       cx="231.7"
       id="SVGID_9_" />
    <clipPath
       id="SVGID_12_">
      <use
         height="100%"
         width="100%"
         y="0"
         x="0"
         id="use2418"
         overflow="visible"
         xlink:href="#SVGID_11_" />
    </clipPath>
    <circle
       r="136.5"
       cy="669.70001"
       cx="543.90002"
       id="SVGID_11_" />
    <clipPath
       id="SVGID_14_">
      <use
         height="100%"
         width="100%"
         y="0"
         x="0"
         id="use2556"
         overflow="visible"
         xlink:href="#SVGID_13_" />
    </clipPath>
    <circle
       r="136.5"
       cy="669.70001"
       cx="856.09998"
       id="SVGID_13_" />
    <clipPath
       id="SVGID_16_">
      <use
         height="100%"
         width="100%"
         y="0"
         x="0"
         id="use2684"
         overflow="visible"
         xlink:href="#SVGID_15_" />
    </clipPath>
    <circle
       r="136.5"
       cy="669.70001"
       cx="1168.3"
       id="SVGID_15_" />
  </defs>
  <sodipodi:namedview
     inkscape:window-maximized="0"
     inkscape:window-y="134"
     inkscape:window-x="20"
     inkscape:window-height="907"
     inkscape:window-width="1600"
     units="px"
     showgrid="false"
     inkscape:document-rotation="0"
     inkscape:current-layer="layer1"
     inkscape:document-units="mm"
     inkscape:cy="560"
     inkscape:cx="400"
     inkscape:zoom="0.35"
     inkscape:pageshadow="2"
     inkscape:pageopacity="0.0"
     borderopacity="1.0"
     bordercolor="#666666"
     pagecolor="#ffffff"
     id="base" />
  <metadata
     id="metadata1405">
    <rdf:RDF>
      <cc:Work
         rdf:about="">
        <dc:format>image/svg+xml</dc:format>
        <dc:type
           rdf:resource="http://purl.org/dc/dcmitype/StillImage" />
        <dc:title></dc:title>
      </cc:Work>
    </rdf:RDF>
  </metadata>
  <g
     id="layer1"
     inkscape:groupmode="layer"
     inkscape:label="Layer 1">
    <g
       transform="matrix(0.92604166,0,0,0.92604166,-384.84307,-97.644476)"
       id="XMLID_747_">
      <g
         id="XMLID_761_">
        <path
           inkscape:connector-curvature="0"
           id="XMLID_1161_"
           fill="#CD5227"
           d="m 632.5,323.4 c 0,0 -10.7,42.2 -3.8,68.1 6.8,25.8 17.1,36.8 17.1,36.8 H 617.3 471 442.5 c 0,0 10.3,-10.9 17.1,-36.8 6.8,-25.8 -3.8,-68.1 -3.8,-68.1 z" />
      </g>
      <g
         id="XMLID_735_">
        <path
           inkscape:connector-curvature="0"
           id="XMLID_1164_"
           fill="#713517"
           d="m 471,430.3 h -28.5 c -0.8,0 -1.6,-0.5 -1.9,-1.2 -0.3,-0.8 -0.2,-1.6 0.4,-2.2 0.1,-0.1 10.1,-11 16.7,-35.9 6.6,-25 -3.7,-66.6 -3.8,-67 l 4,-1 c 0.4,1.7 10.7,43.1 3.8,69.1 -4.8,18.2 -11.3,29.1 -14.9,34.2 H 471 Z" />
      </g>
      <g
         id="XMLID_762_">
        <path
           inkscape:connector-curvature="0"
           id="XMLID_1163_"
           fill="#713517"
           d="m 645.8,430.3 h -28.5 v -4.1 h 24.3 c -3.6,-5.1 -10.1,-16 -14.9,-34.2 -6.9,-26 3.4,-67.3 3.8,-69.1 l 4,1 c -0.1,0.4 -10.5,42 -3.8,67 6.6,24.9 16.6,35.8 16.7,35.9 0.6,0.6 0.7,1.5 0.4,2.2 -0.4,0.8 -1.2,1.3 -2,1.3 z" />
      </g>
      <g
         id="XMLID_736_">
        <g
           id="XMLID_760_">
          <path
             inkscape:connector-curvature="0"
             id="XMLID_1256_"
             fill="#F9C68C"
             d="m 449.7,281.8 c 0,0 -13.1,-6.8 -14,10.9 -0.9,17.8 13.1,32.9 28.7,31.5" />
        </g>
        <g
           id="XMLID_759_">
          <path
             inkscape:connector-curvature="0"
             id="XMLID_1162_"
             fill="#713517"
             d="m 462.2,326.4 c -6.7,0 -13.2,-2.7 -18.6,-7.9 -6.9,-6.7 -10.6,-16.1 -10.1,-25.9 0.3,-6.6 2.3,-10.9 5.9,-13 5,-2.9 10.9,0.2 11.2,0.3 l -1.9,3.6 c 0,0 -4.2,-2.1 -7.2,-0.4 -2.8,1.6 -3.6,6.1 -3.8,9.6 -0.4,8.5 2.9,17 8.8,22.7 5,4.9 11.3,7.2 17.6,6.6 l 0.4,4.1 c -0.8,0.3 -1.5,0.3 -2.3,0.3 z" />
        </g>
        <g
           id="XMLID_756_">
          <path
             inkscape:connector-curvature="0"
             id="XMLID_1150_"
             fill="#40AFB0"
             d="M 620.4,446.2 H 467.9 v 0 c 0,-30.2 24.5,-54.7 54.7,-54.7 h 43 c 30.3,0 54.8,24.5 54.8,54.7 z" />
        </g>
        <g
           id="XMLID_755_">
          <path
             inkscape:connector-curvature="0"
             id="XMLID_1158_"
             fill="#713517"
             d="M 622.4,448.3 H 465.9 v -2.1 c 0,-31.3 25.5,-56.8 56.8,-56.8 h 43 c 31.3,0 56.8,25.5 56.8,56.8 v 2.1 z M 470,444.2 h 148.2 c -1.1,-28.1 -24.3,-50.6 -52.6,-50.6 h -43 c -28.3,-0.1 -51.5,22.5 -52.6,50.6 z" />
        </g>
        <g
           id="XMLID_754_">
          <path
             inkscape:connector-curvature="0"
             id="XMLID_1255_"
             fill="#F9C68C"
             d="m 561.5,390.1 v -23.6 h -34.8 v 23.6 c 0.1,22.1 34.8,22.1 34.8,0 z" />
        </g>
        <g
           id="XMLID_753_">
          <path
             inkscape:connector-curvature="0"
             id="XMLID_1155_"
             fill="#713517"
             d="m 544.1,408.7 c -9.7,0 -19.4,-6.4 -19.4,-18.6 v -25.7 h 38.9 v 25.7 c 0,12.2 -9.8,18.6 -19.5,18.6 z m -15.3,-40.2 v 21.6 c 0,10 8,14.5 15.3,14.5 7.3,0 15.3,-4.5 15.3,-14.5 v -21.6 z" />
        </g>
        <g
           id="XMLID_752_">
          <path
             inkscape:connector-curvature="0"
             id="XMLID_1254_"
             fill="#F9C68C"
             d="m 638.6,281.8 c 0,0 13.1,-6.8 14,10.9 0.9,17.8 -13.1,32.9 -28.7,31.5" />
        </g>
        <g
           id="XMLID_751_">
          <path
             inkscape:connector-curvature="0"
             id="XMLID_1253_"
             fill="#F9C68C"
             d="m 638.6,269 c 0,52.1 -42.3,110.9 -94.5,110.9 -52.2,0 -94.5,-58.7 -94.5,-110.9 0,-52.2 42.3,-77.9 94.5,-77.9 52.2,0 94.5,25.8 94.5,77.9 z" />
        </g>
        <g
           id="XMLID_750_">
          <path
             inkscape:connector-curvature="0"
             id="XMLID_1152_"
             fill="#713517"
             d="m 544.1,382 c -54.4,0 -96.5,-60.7 -96.5,-112.9 0,-25.2 9.8,-46 28.5,-60.1 17.1,-13 40.6,-19.8 68,-19.8 27.4,0 50.9,6.9 68,19.8 18.6,14.1 28.5,34.9 28.5,60.1 0.1,52.2 -42.1,112.9 -96.5,112.9 z m 0,-188.8 c -44.7,0 -92.4,19.9 -92.4,75.8 0,25 10.2,52.6 27.2,73.7 18.3,22.6 41.4,35.1 65.2,35.1 23.8,0 46.9,-12.5 65.2,-35.1 17,-21.1 27.2,-48.7 27.2,-73.7 0.1,-55.9 -47.7,-75.8 -92.4,-75.8 z" />
        </g>
        <g
           id="XMLID_749_">
          <path
             inkscape:connector-curvature="0"
             id="XMLID_1151_"
             fill="#713517"
             d="m 626,326.4 c -0.7,0 -1.5,0 -2.2,-0.1 l 0.4,-4.1 c 6.3,0.6 12.5,-1.8 17.6,-6.6 6,-5.7 9.3,-14.2 8.8,-22.7 -0.2,-3.5 -1,-8 -3.8,-9.6 -3,-1.7 -7.2,0.4 -7.2,0.4 l -1.9,-3.6 c 0.2,-0.1 6.2,-3.2 11.2,-0.3 3.6,2 5.5,6.4 5.9,13 0.5,9.8 -3.2,19.2 -10.1,25.9 -5.4,5 -11.9,7.7 -18.7,7.7 z" />
        </g>
        <g
           id="XMLID_746_">
          <path
             inkscape:connector-curvature="0"
             id="XMLID_1143_"
             fill="#F3712A"
             d="m 613.8,163.6 13.2,-20.7 -34.8,10.5 v 0 c -6.7,-1.9 -13.8,-3 -21.1,-3 h -52.9 c -41.8,0 -75.7,33.9 -75.7,75.7 v 54.4 c 7.5,39.6 16.2,76.5 16.2,76.5 l -0.2,-84.6 c 0,-13.7 11.1,-24.9 24.9,-24.9 h 25 c 22.4,0 42.9,-12.2 53.6,-31.9 v 0 0 c 4.4,19.1 21.4,32.6 40.9,32.6 h 3.3 c 13.7,0 24.9,11.1 24.9,24.9 l -3.7,80.1 c 4.5,-10.6 19.5,-72.3 19.5,-72.3 V 226 c -0.1,-25.8 -13.2,-48.7 -33.1,-62.4 z" />
        </g>
        <g
           id="XMLID_745_">
          <path
             inkscape:connector-curvature="0"
             id="XMLID_1147_"
             fill="#713517"
             d="m 461.3,359.1 c -0.9,0 -1.6,-0.5 -1.9,-1.4 -0.1,-0.2 -7.9,-22 -13.5,-49.7 -3.6,-17.6 -5.4,-35.8 -5.4,-54.1 v -27.8 c 0,-42.9 34.9,-77.8 77.8,-77.8 h 52.9 c 7.1,0 14.2,1 21.1,2.9 l 34.2,-10.3 c 0.8,-0.2 1.7,0 2.2,0.7 0.5,0.7 0.6,1.6 0.1,2.3 L 616.7,163 c 20.2,14.6 32.3,38.1 32.3,63.1 v 33.7 c 0,14.4 -1.8,28.8 -5.3,42.7 -2.8,11 -5.7,21.1 -8.5,30.9 -2,7.1 -4,13.7 -5.7,20.3 -0.3,1 -1.3,1.7 -2.3,1.5 -1,-0.2 -1.8,-1.1 -1.7,-2.1 l 3.7,-80.1 c 0,-12.5 -10.2,-22.7 -22.8,-22.7 h -3.3 c -19,0 -35.5,-11.9 -41.6,-29.5 -11.6,17.9 -31.4,28.8 -53,28.8 h -25 c -12.6,0 -22.8,10.2 -22.8,22.8 l 2.8,84.5 c 0,1 -0.7,1.9 -1.7,2.1 -0.3,0.1 -0.4,0.1 -0.5,0.1 z m 56.9,-206.6 c -40.6,0 -73.7,33 -73.7,73.7 V 254 c 0,18 1.8,36 5.3,53.3 2.8,14 6.3,26.4 8.9,35.3 l -2.3,-70 c 0,-14.9 12.1,-27 26.9,-27 h 25 c 21.6,0 41.5,-11.8 51.8,-30.8 0.4,-0.7 1.2,-1.2 2.1,-1.1 0.8,0.1 1.5,0.7 1.7,1.6 4.2,18.2 20.2,31 38.9,31 h 3.3 c 14.8,0 26.9,12.1 26.9,26.9 l -2.9,62.2 c 0.3,-1 0.6,-2 0.9,-3.1 2.8,-9.7 5.7,-19.8 8.5,-30.7 3.4,-13.6 5.1,-27.6 5.1,-41.7 v -33.7 c 0,-24.3 -12,-47.1 -32.1,-60.8 -0.9,-0.6 -1.2,-1.9 -0.6,-2.8 l 10.2,-16.1 -29.2,8.8 c -0.4,0.2 -1,0.3 -1.5,0.1 -6.7,-1.9 -13.6,-2.9 -20.6,-2.9 z" />
        </g>
        <g
           id="XMLID_742_">
          <g
             id="XMLID_744_">
            <circle
               id="XMLID_1252_"
               fill="#713517"
               cx="508.89999"
               cy="288.29999"
               r="6.8000002" />
          </g>
          <g
             id="XMLID_743_">
            <circle
               id="XMLID_1251_"
               fill="#713517"
               cx="579.40002"
               cy="288.29999"
               r="6.8000002" />
          </g>
        </g>
        <g
           id="XMLID_739_">
          <g
             id="XMLID_741_">
            <path
               inkscape:connector-curvature="0"
               id="XMLID_1250_"
               fill="#713517"
               d="m 515.7,332.7 h 56.8 c 0,0 -4.6,24.3 -28.4,24.4 -22.9,0.1 -28.4,-24.4 -28.4,-24.4 z" />
          </g>
          <g
             id="XMLID_740_">
            <path
               inkscape:connector-curvature="0"
               id="XMLID_1249_"
               fill="#EF5353"
               d="m 525.5,349.8 c 0,0 7,-8.2 20.7,-7.4 13.7,0.8 17.9,6.3 17.9,6.3 0,0 -4.3,9.2 -18.3,8.3 -13.9,-0.9 -20.3,-7.2 -20.3,-7.2 z" />
          </g>
        </g>
        <g
           id="XMLID_738_">
          <path
             inkscape:connector-curvature="0"
             id="XMLID_1144_"
             fill="#713517"
             d="m 544,359.1 c -24.2,0 -30.2,-25.7 -30.3,-26 -0.1,-0.6 0,-1.2 0.4,-1.7 0.4,-0.5 1,-0.8 1.6,-0.8 h 56.8 c 0.6,0 1.2,0.3 1.6,0.7 0.4,0.5 0.5,1.1 0.4,1.7 0,0.3 -5.2,26 -30.4,26.1 0,0 0,0 -0.1,0 z m -25.5,-24.4 c 2,6 8.7,20.4 25.7,20.3 17.7,-0.1 23.9,-14.4 25.8,-20.3 z" />
        </g>
        <g
           id="XMLID_737_">
          <circle
             id="XMLID_1248_"
             fill="#EF5353"
             cx="544.09998"
             cy="309.20001"
             r="3.0999999" />
        </g>
      </g>
    </g>
  </g>
</svg>
