<?xml version="1.0" encoding="UTF-8" standalone="no"?>
<svg
   xmlns:dc="http://purl.org/dc/elements/1.1/"
   xmlns:cc="http://creativecommons.org/ns#"
   xmlns:rdf="http://www.w3.org/1999/02/22-rdf-syntax-ns#"
   xmlns:svg="http://www.w3.org/2000/svg"
   xmlns="http://www.w3.org/2000/svg"
   xmlns:xlink="http://www.w3.org/1999/xlink"
   xmlns:sodipodi="http://sodipodi.sourceforge.net/DTD/sodipodi-0.dtd"
   xmlns:inkscape="http://www.inkscape.org/namespaces/inkscape"
   inkscape:version="1.0beta1 (32d4812, 2019-09-19)"
   id="svg1408"
   version="1.1"
   viewBox="0 0 238.12499 317.50001"
   height="1200"
   width="900">
  <defs
     id="defs1402">
    <clipPath
       id="SVGID_2_">
      <use
         xlink:href="#SVGID_1_"
         overflow="visible"
         id="use1978"
         x="0"
         y="0"
         width="100%"
         height="100%" />
    </clipPath>
    <circle
       id="SVGID_1_"
       cx="231.7"
       cy="310.29999"
       r="136.5" />
    <clipPath
       id="SVGID_4_">
      <use
         height="100%"
         width="100%"
         y="0"
         x="0"
         id="use2092"
         overflow="visible"
         xlink:href="#SVGID_3_" />
    </clipPath>
    <circle
       r="136.5"
       cy="310.29999"
       cx="543.90002"
       id="SVGID_3_" />
    <clipPath
       id="SVGID_6_">
      <use
         height="100%"
         width="100%"
         y="0"
         x="0"
         id="use2158"
         overflow="visible"
         xlink:href="#SVGID_5_" />
    </clipPath>
    <circle
       r="136.5"
       cy="310.29999"
       cx="856.09998"
       id="SVGID_5_" />
    <clipPath
       id="SVGID_8_">
      <use
         height="100%"
         width="100%"
         y="0"
         x="0"
         id="use2256"
         overflow="visible"
         xlink:href="#SVGID_7_" />
    </clipPath>
    <circle
       r="136.5"
       cy="310.29999"
       cx="1168.3"
       id="SVGID_7_" />
    <clipPath
       id="SVGID_10_">
      <use
         height="100%"
         width="100%"
         y="0"
         x="0"
         id="use2342"
         overflow="visible"
         xlink:href="#SVGID_9_" />
    </clipPath>
    <circle
       r="136.5"
       cy="669.70001"
       cx="231.7"
       id="SVGID_9_" />
    <clipPath
       id="SVGID_12_">
      <use
         height="100%"
         width="100%"
         y="0"
         x="0"
         id="use2418"
         overflow="visible"
         xlink:href="#SVGID_11_" />
    </clipPath>
    <circle
       r="136.5"
       cy="669.70001"
       cx="543.90002"
       id="SVGID_11_" />
    <clipPath
       id="SVGID_14_">
      <use
         height="100%"
         width="100%"
         y="0"
         x="0"
         id="use2556"
         overflow="visible"
         xlink:href="#SVGID_13_" />
    </clipPath>
    <circle
       r="136.5"
       cy="669.70001"
       cx="856.09998"
       id="SVGID_13_" />
    <clipPath
       id="SVGID_16_">
      <use
         height="100%"
         width="100%"
         y="0"
         x="0"
         id="use2684"
         overflow="visible"
         xlink:href="#SVGID_15_" />
    </clipPath>
    <circle
       r="136.5"
       cy="669.70001"
       cx="1168.3"
       id="SVGID_15_" />
  </defs>
  <sodipodi:namedview
     inkscape:window-maximized="0"
     inkscape:window-y="134"
     inkscape:window-x="20"
     inkscape:window-height="907"
     inkscape:window-width="1600"
     units="px"
     showgrid="false"
     inkscape:document-rotation="0"
     inkscape:current-layer="layer1"
     inkscape:document-units="mm"
     inkscape:cy="560"
     inkscape:cx="400"
     inkscape:zoom="0.35"
     inkscape:pageshadow="2"
     inkscape:pageopacity="0.0"
     borderopacity="1.0"
     bordercolor="#666666"
     pagecolor="#ffffff"
     id="base" />
  <metadata
     id="metadata1405">
    <rdf:RDF>
      <cc:Work
         rdf:about="">
        <dc:format>image/svg+xml</dc:format>
        <dc:type
           rdf:resource="http://purl.org/dc/dcmitype/StillImage" />
        <dc:title></dc:title>
      </cc:Work>
    </rdf:RDF>
  </metadata>
  <g
     id="layer1"
     inkscape:groupmode="layer"
     inkscape:label="Layer 1">
    <g
       transform="matrix(1.3229166,0,0,1.3229167,-205.44894,-690.56253)"
       style="opacity:1;stop-opacity:1"
       id="g7656">
      <path
         inkscape:connector-curvature="0"
         id="path7574"
         d="m 304.3,735.1 c -7.8,-7.4 -35.5,-7.8 -42.7,-18.2 -7.2,-10.5 -4.7,-24.5 -2.1,-31.6 H 231 c 2.6,7.1 5.2,21.2 -2.1,31.6 -7.2,10.5 -34.9,10.8 -42.7,18.2 -4.9,4.7 -9.1,19.9 -9.6,25.6 h 137.2 c -0.5,-5.7 -4.6,-21 -9.5,-25.6 z"
         fill="#F4D2B8" />
      <path
         inkscape:connector-curvature="0"
         id="path7576"
         d="m 231,685.2 c 2,5.4 3.9,14.8 1.6,23.5 5.4,4.7 13.3,8 28.7,7.7 -6.9,-10.4 -4.3,-24.1 -1.8,-31.2 z"
         fill="#D6AE92" />
      <path
         inkscape:connector-curvature="0"
         id="path7578"
         d="M 313.9,762 H 176.7 c -0.4,0 -0.7,-0.2 -1,-0.4 -0.3,-0.2 -0.4,-0.7 -0.4,-1 0.5,-5.4 4.6,-21.4 10,-26.5 3.7,-3.5 11.2,-5.5 19.1,-7.5 9.7,-2.5 19.6,-5.1 23.4,-10.5 8.1,-11.7 3,-27.4 1.9,-30.4 -0.2,-0.4 -0.1,-0.9 0.2,-1.2 0.3,-0.4 0.7,-0.6 1.1,-0.6 h 28.5 c 0.4,0 0.9,0.2 1.1,0.6 0.2,0.4 0.3,0.8 0.2,1.2 -1.1,3 -6.2,18.7 1.9,30.4 3.8,5.4 13.7,8 23.4,10.5 7.9,2.1 15.4,4 19.1,7.5 5.4,5.1 9.5,21.1 10,26.5 0,0.4 -0.1,0.8 -0.4,1 -0.3,0.2 -0.6,0.4 -0.9,0.4 z m -135.7,-2.7 h 134.1 c -1,-6.7 -4.9,-19.4 -9,-23.3 v 0 c -3.2,-3 -10.4,-4.9 -17.9,-6.9 -10.1,-2.6 -20.6,-5.3 -24.9,-11.6 -6.4,-9.3 -5.8,-21.8 -2.8,-31 H 233 c 2.9,9.3 3.6,21.8 -2.8,31 -4.3,6.3 -14.8,9 -24.9,11.6 -7.6,2 -14.7,3.8 -17.9,6.9 -4.3,3.9 -8.2,16.7 -9.2,23.3 z"
         fill="#5E1145" />
      <g
         id="g7646">
        <path
           inkscape:connector-curvature="0"
           id="path7580"
           d="m 201.8,629.6 v 55.7 c 0,6.2 6.1,22.1 11.9,20.1 20.5,-7.3 41,-7.7 61.5,-0.2 5.8,2.1 11.9,-2.2 11.9,-8.4 v -67.2 z"
           fill="#CCB551" />
        <path
           inkscape:connector-curvature="0"
           id="path7582"
           d="m 278.2,707.1 c -1.2,0 -2.4,-0.2 -3.5,-0.6 -19.7,-7.2 -40.1,-7.1 -60.6,0.2 -1.1,0.4 -2.7,0.5 -4.7,-0.9 -4.9,-3.5 -9,-15 -9,-20.5 v -55.7 c 0,-0.8 0.6,-1.4 1.4,-1.4 h 85.3 c 0.8,0 1.4,0.6 1.4,1.4 v 67.2 c 0,3.3 -1.6,6.5 -4.4,8.4 -1.8,1.3 -3.8,1.9 -5.9,1.9 z m -33.1,-8.7 c 10.3,0 20.6,1.8 30.6,5.5 2.3,0.8 4.8,0.5 6.8,-0.9 2,-1.4 3.2,-3.7 3.2,-6.2 V 631 h -82.6 v 54.3 c 0,4.8 3.8,15.4 7.9,18.3 1.2,0.9 2,0.6 2.2,0.5 10.7,-3.8 21.3,-5.7 31.9,-5.7 z"
           fill="#5E1145" />
        <g
           id="g7644">
          <path
             inkscape:connector-curvature="0"
             id="path7584"
             d="m 207.8,593.9 c -5,18.7 -9.8,65.6 0,84.5 6.3,12.1 13.4,18 19.3,21.9 5.4,3.6 11.7,5.4 18.1,5.4 v 0 c 6.4,0 12.8,-1.9 18.1,-5.4 5.9,-3.9 13.1,-9.8 19.3,-21.9 9.8,-19 5,-65.8 0,-84.5 z"
             fill="#F4D2B8" />
          <path
             inkscape:connector-curvature="0"
             id="path7586"
             d="m 230.3,683.8 c 1.6,2.4 4.2,9.2 15,8.9 10.8,0.3 13.4,-6.5 15,-8.9 -9.4,5 -19.4,5 -30,0 z"
             fill="#E96887" />
          <path
             inkscape:connector-curvature="0"
             id="path7588"
             d="m 245.3,707.2 c -6.7,0 -13.3,-2 -18.9,-5.7 -5.8,-3.8 -13.2,-9.8 -19.8,-22.4 -5.6,-10.9 -6.2,-29.4 -5.7,-43 0.6,-17.2 3.3,-33.8 5.6,-42.5 0.2,-0.7 0.9,-1.2 1.7,-1 0.7,0.2 1.2,0.9 1,1.7 -5,18.7 -9.6,65.2 -0.1,83.6 6.3,12.1 13.4,17.8 18.9,21.4 5.2,3.4 11.2,5.2 17.4,5.2 6.2,0 12.2,-1.8 17.4,-5.2 5.5,-3.6 12.6,-9.3 18.9,-21.4 9.5,-18.4 4.9,-64.8 -0.1,-83.6 -0.2,-0.7 0.2,-1.5 1,-1.7 0.7,-0.2 1.5,0.2 1.7,1 2.3,8.7 5,25.2 5.6,42.5 0.5,13.6 -0.1,32.2 -5.7,43 -6.6,12.6 -14,18.6 -19.8,22.4 -5.9,3.8 -12.4,5.7 -19.1,5.7 z"
             fill="#5E1145" />
          <path
             inkscape:connector-curvature="0"
             id="path7590"
             d="m 245.3,688.6 c -5.5,0 -11,-1.3 -16.4,-3.9 -0.7,-0.3 -1,-1.1 -0.7,-1.8 0.3,-0.7 1.1,-1 1.8,-0.7 10.1,4.8 20.4,4.8 30.5,0 0.7,-0.3 1.5,0 1.8,0.7 0.3,0.7 0,1.5 -0.7,1.8 -5.3,2.6 -10.8,3.9 -16.3,3.9 z"
             fill="#5E1145" />
          <path
             inkscape:connector-curvature="0"
             id="path7592"
             d="m 245.3,677 c -2.5,0 -6.4,-1.9 -7.9,-4.7 -0.4,-0.7 -0.1,-1.5 0.5,-1.9 0.7,-0.4 1.5,-0.1 1.9,0.5 1,1.9 4,3.3 5.5,3.3 1.5,0 4.5,-1.4 5.5,-3.3 0.4,-0.7 1.2,-0.9 1.9,-0.5 0.7,0.4 0.9,1.2 0.5,1.9 -1.6,2.8 -5.4,4.7 -7.9,4.7 z"
             fill="#5E1145" />
          <path
             inkscape:connector-curvature="0"
             id="path7594"
             d="m 237.3,687.7 c -0.5,0 -1.1,-0.3 -1.3,-0.9 -0.3,-0.7 0.1,-1.5 0.8,-1.8 2.9,-1.1 5.5,-1.8 8.3,-2 2.6,-0.2 7,1 9.4,1.7 0.7,0.2 1.1,1 0.9,1.7 -0.2,0.7 -1,1.1 -1.7,0.9 -3.7,-1.1 -6.9,-1.7 -8.4,-1.6 -2.5,0.2 -4.9,0.8 -7.5,1.8 -0.1,0.1 -0.3,0.2 -0.5,0.2 z"
             fill="#5E1145" />
          <circle
             id="circle7596"
             r="5.9000001"
             cy="649.70001"
             cx="266"
             fill="#5E1145" />
          <path
             inkscape:connector-curvature="0"
             id="path7598"
             d="m 273.9,655.3 c -0.3,0 -0.6,-0.1 -0.8,-0.3 -0.6,-0.5 -0.7,-1.3 -0.2,-1.9 1.3,-1.6 2.1,-4.4 2.6,-5.9 -9.8,-3.2 -11.8,-1.8 -15.6,0.9 -0.8,0.6 -1.7,1.2 -2.7,1.9 -0.6,0.4 -1.5,0.2 -1.9,-0.4 -0.4,-0.6 -0.2,-1.5 0.4,-1.9 1,-0.6 1.8,-1.2 2.6,-1.8 4.7,-3.4 7.7,-4.9 19.3,-0.9 0.7,0.2 1,0.9 0.9,1.6 0,0.2 -1.2,5.3 -3.4,8.2 -0.4,0.3 -0.8,0.5 -1.2,0.5 z"
             fill="#5E1145" />
          <circle
             id="circle7600"
             r="5.9000001"
             cy="649.70001"
             cx="224.5"
             fill="#5E1145" />
          <path
             inkscape:connector-curvature="0"
             id="path7602"
             d="m 216.6,655.3 c -0.4,0 -0.8,-0.2 -1.1,-0.5 -2.2,-2.8 -3.3,-8 -3.4,-8.2 -0.2,-0.7 0.2,-1.4 0.9,-1.6 11.6,-4 14.6,-2.5 19.3,0.9 0.8,0.6 1.6,1.2 2.6,1.8 0.6,0.4 0.8,1.2 0.4,1.9 -0.4,0.6 -1.2,0.8 -1.9,0.4 -1,-0.6 -1.9,-1.3 -2.7,-1.9 -3.8,-2.8 -5.8,-4.2 -15.6,-0.9 0.4,1.6 1.3,4.3 2.6,5.9 0.5,0.6 0.3,1.5 -0.2,1.9 -0.3,0.2 -0.6,0.3 -0.9,0.3 z"
             fill="#5E1145" />
          <g
             id="g7610">
            <g
               id="g7608">
              <path
                 inkscape:connector-curvature="0"
                 id="path7604"
                 d="m 254.4,641 c 2.1,-0.2 16.3,-3.1 19,-3.7 2.7,-0.6 6.6,3 6.6,3 0,0 2.3,-0.2 1,-1.7 -1.3,-1.5 -4.8,-4.9 -7.9,-4.8 -3.1,0.1 -14.2,0.4 -19.6,4.3 -3,2.2 -1,3.1 0.9,2.9 z"
                 fill="#EDD766" />
              <path
                 inkscape:connector-curvature="0"
                 id="path7606"
                 d="m 236.2,641 c -2.1,-0.2 -16.3,-3.1 -19,-3.7 -2.7,-0.6 -6.6,3 -6.6,3 0,0 -2.3,-0.2 -1,-1.7 1.2,-1.5 4.8,-4.9 7.9,-4.8 3.1,0.1 14.2,0.4 19.6,4.3 3,2.2 0.9,3.1 -0.9,2.9 z"
                 fill="#EDD766" />
            </g>
          </g>
          <g
             id="g7616">
            <path
               inkscape:connector-curvature="0"
               id="path7612"
               d="m 253.8,642.4 c -1.3,0 -2.6,-0.4 -3.1,-1.6 -0.5,-1.2 0.2,-2.5 2.1,-3.9 3.8,-2.7 10.8,-4.3 20.3,-4.5 0,0 0.1,0 0.1,0 4.2,0 8.3,4.7 8.8,5.3 0.9,1.1 0.7,2 0.6,2.4 -0.5,1.2 -2,1.5 -2.5,1.5 -0.4,0 -0.8,-0.1 -1.1,-0.4 -1.4,-1.3 -4,-3 -5.4,-2.7 -2.6,0.6 -16.9,3.5 -19.2,3.8 0,0 0,0 0,0 -0.1,0.1 -0.4,0.1 -0.6,0.1 z m 0.6,-1.4 z m -0.6,-1.3 c 0.1,0 0.3,0 0.4,0 v 0 c 2,-0.2 16,-3 18.9,-3.7 1.1,-0.3 2.2,-0.1 3.3,0.4 -1.1,-0.7 -2.2,-1.2 -3.2,-1.1 -11.3,0.3 -16.5,2.3 -18.8,4 -0.2,0.1 -0.4,0.2 -0.6,0.4 z"
               fill="#5E1145" />
            <path
               inkscape:connector-curvature="0"
               id="path7614"
               d="m 236.7,642.4 c -0.2,0 -0.5,0 -0.7,0 0,0 0,0 0,0 -2.3,-0.3 -16.6,-3.1 -19.2,-3.8 -1.5,-0.4 -4.3,1.6 -5.4,2.7 -0.3,0.3 -0.7,0.4 -1.1,0.4 -0.5,0 -2,-0.3 -2.5,-1.5 -0.2,-0.4 -0.3,-1.3 0.6,-2.4 0.5,-0.5 4.6,-5.3 8.8,-5.3 0,0 0.1,0 0.1,0 9.5,0.2 16.5,1.8 20.3,4.5 1.9,1.3 2.6,2.6 2.1,3.9 -0.4,1.1 -1.7,1.5 -3,1.5 z m -0.4,-2.7 c 0.1,0 0.3,0 0.4,0 -0.2,-0.1 -0.4,-0.3 -0.6,-0.5 -2.3,-1.7 -7.5,-3.7 -18.8,-4 -1,0 -2.1,0.4 -3.2,1.1 1.1,-0.4 2.2,-0.6 3.3,-0.4 2.9,0.7 17,3.5 18.9,3.8 z"
               fill="#5E1145" />
          </g>
          <path
             inkscape:connector-curvature="0"
             id="path7618"
             d="m 269.3,586.3 h -48.1 c -8,0 -14.7,5.9 -15.7,13.9 -0.8,6.5 -1.5,13.7 -2.1,19.1 2.2,-7.2 6.1,-15.1 12,-17.4 9.6,-3.7 50,-3.7 59.6,0 5.9,2.3 9.8,10.2 12,17.4 -0.6,-5.4 -1.3,-12.6 -2.1,-19.1 -0.9,-8 -7.6,-13.9 -15.6,-13.9 z"
             fill="#EDD766" />
          <path
             inkscape:connector-curvature="0"
             id="path7620"
             d="m 195.2,660.4 c 17.8,-8.9 12.6,-31.2 32.2,-55.5 19.6,-24.3 31.7,-11.9 34.7,-5.3 l 8.7,-9.1 -17.3,-17.8 -37,4.2 -14.5,13.6 -6.9,37.2 v 32.7 z"
             fill="#EDD766" />
          <path
             inkscape:connector-curvature="0"
             id="path7622"
             d="m 266.7,600.1 c 2.1,9.3 10.9,32.8 21.7,41 -1,20.4 -2.4,47.1 -17.5,77.9 14.6,-3 20,-19.9 23.3,-30.4 3.3,-10.5 17.6,-53.5 14.6,-80 -3,-26.5 -17.3,-39.5 -27.4,-35.1 -11.2,-16 -46.3,-20.8 -65.9,-8.2 -19.6,12.6 -34.1,39.3 -28.9,78.5 5.2,39.3 13,55.6 30.5,74.9 -7.4,-26 -15.4,-51.8 -15,-70 0.4,-18.2 11.4,-55 11.4,-55 h 16.8 z"
             fill="#EDD766" />
          <path
             inkscape:connector-curvature="0"
             id="path7624"
             d="m 266.5,601.4 c -0.1,0 -0.1,0 -0.2,0 -9,-1.1 -22.6,-1.3 -34,-0.7 -0.8,0 -1.4,-0.5 -1.4,-1.3 0,-0.8 0.5,-1.4 1.3,-1.4 11.5,-0.7 25.4,-0.4 34.5,0.7 0.7,0.1 1.3,0.8 1.2,1.5 -0.1,0.7 -0.7,1.2 -1.4,1.2 z"
             fill="#5E1145" />
          <path
             inkscape:connector-curvature="0"
             id="path7626"
             d="m 270.9,720.3 c -0.4,0 -0.8,-0.2 -1.1,-0.5 -0.3,-0.4 -0.4,-1 -0.1,-1.4 14.8,-30.3 16.3,-57 17.3,-76.7 -11.3,-9.2 -20.5,-36.2 -22.4,-44.6 -0.2,-0.7 0.3,-1.5 1,-1.6 0.7,-0.2 1.5,0.3 1.6,1 2.2,9.6 11.6,35.7 21.9,43.5 0.4,0.3 0.6,0.7 0.5,1.2 -1,19.4 -2.3,45.7 -16.3,75.7 11.6,-4.2 16.3,-18.6 19.4,-28.4 l 0.4,-1.3 c 11.3,-35.2 16.1,-61.6 14.2,-78.5 -2.1,-18.7 -9.7,-29.3 -16.1,-33 -3.3,-1.9 -6.5,-2.2 -9.4,-1 -0.6,0.3 -1.3,0.1 -1.7,-0.5 -5.1,-7.3 -15.9,-12.6 -28.9,-14.2 -13.1,-1.7 -26.3,0.7 -35.2,6.4 -22.2,14.3 -32.8,43.2 -28.3,77.2 4.9,37.2 12.6,53.5 26.1,69.6 -0.1,-0.3 -0.2,-0.7 -0.3,-1 -6,-21 -11.7,-40.7 -12.9,-56.7 -0.1,-0.8 0.5,-1.4 1.3,-1.5 0.7,-0.1 1.4,0.5 1.5,1.3 1.1,15.6 6.8,35.3 12.8,56.1 0.7,2.3 1.3,4.6 2,6.9 0.2,0.6 -0.1,1.3 -0.6,1.6 -0.6,0.3 -1.2,0.2 -1.7,-0.3 -9.6,-10.6 -15.6,-19.7 -20.1,-30.4 -4.8,-11.4 -8.1,-25.4 -10.7,-45.3 -2.5,-18.7 -0.7,-35.5 5.2,-50 5.2,-12.7 13.7,-23.1 24.3,-29.9 9.4,-6.1 23.3,-8.6 37,-6.8 13.2,1.7 24.4,7.1 30.1,14.5 3.4,-1.1 7.2,-0.6 10.8,1.5 4.2,2.4 8,6.7 11,12.5 3.3,6.2 5.5,14 6.5,22.6 1.2,11.1 -0.3,26.3 -4.7,45.2 -3.5,15.1 -7.8,28.7 -9.7,34.5 l -0.4,1.3 c -3.4,10.4 -9,27.9 -24.2,31 0.1,0 0,0 -0.1,0 z"
             fill="#5E1145" />
          <path
             inkscape:connector-curvature="0"
             id="path7628"
             d="m 195.2,661.7 c -0.5,0 -1,-0.3 -1.2,-0.8 -0.3,-0.7 -0.1,-1.5 0.6,-1.8 9,-4.5 11.9,-12.8 15.5,-23.2 3.3,-9.6 7,-20.4 16.3,-31.9 8.7,-10.8 17,-15.8 24.6,-14.8 6.3,0.8 10.6,5.8 12.4,9.8 0.3,0.7 0,1.5 -0.7,1.8 -0.7,0.3 -1.5,0 -1.8,-0.7 -1.5,-3.4 -5.1,-7.5 -10.3,-8.2 -6.5,-0.9 -14.1,3.9 -22.1,13.8 -9,11.1 -12.6,21.7 -15.8,31.1 -3.7,10.6 -6.8,19.8 -16.8,24.8 -0.3,0.1 -0.5,0.1 -0.7,0.1 z"
             fill="#5E1145" />
          <path
             inkscape:connector-curvature="0"
             id="path7630"
             d="m 255.6,600.6 c -0.6,0 -1.2,-0.4 -1.3,-1 -0.7,-2.7 -5.1,-6.4 -11.5,-6.4 -0.8,0 -1.4,-0.6 -1.4,-1.4 0,-0.8 0.6,-1.4 1.4,-1.4 0,0 0,0 0,0 7.3,0 13,4.4 14.1,8.4 0.2,0.7 -0.2,1.5 -1,1.7 0,0.1 -0.1,0.1 -0.3,0.1 z"
             fill="#5E1145" />
          <path
             inkscape:connector-curvature="0"
             id="path7632"
             d="m 245,600.4 c -0.2,0 -0.5,-0.1 -0.7,-0.2 -0.6,-0.4 -1.3,-0.8 -1.9,-1.3 -1.6,-1.1 -3.4,-2.4 -5.2,-2.5 -0.8,0 -1.3,-0.7 -1.3,-1.4 0,-0.8 0.7,-1.3 1.4,-1.3 2.6,0.1 4.8,1.7 6.7,3 0.6,0.4 1.2,0.8 1.7,1.1 0.7,0.4 0.9,1.2 0.5,1.9 -0.3,0.4 -0.7,0.7 -1.2,0.7 z"
             fill="#5E1145" />
          <path
             inkscape:connector-curvature="0"
             id="path7634"
             d="m 272.9,591.9 c -0.6,0 -1.1,-0.4 -1.3,-1 -1.1,-3.4 -8.2,-9.6 -18.3,-11.6 -8.5,-1.7 -20.9,-1 -32.2,12.1 -0.5,0.6 -1.4,0.6 -1.9,0.2 -0.6,-0.5 -0.6,-1.4 -0.2,-1.9 12.8,-14.9 27.3,-14.6 34.8,-13 10.7,2.2 18.9,8.7 20.4,13.5 0.2,0.7 -0.2,1.5 -0.9,1.7 -0.1,-0.1 -0.2,0 -0.4,0 z"
             fill="#5E1145" />
          <path
             inkscape:connector-curvature="0"
             id="path7636"
             d="m 207.8,591.9 c -0.2,0 -0.5,-0.1 -0.7,-0.2 -0.7,-0.4 -0.9,-1.2 -0.5,-1.9 8.6,-15.5 19.9,-23.8 33.5,-24.5 11,-0.6 20.6,3.8 25.8,6.2 0.5,0.2 0.9,0.4 1.3,0.6 0.7,0.3 1,1.1 0.7,1.8 -0.3,0.7 -1.1,1 -1.8,0.7 -0.4,-0.2 -0.8,-0.4 -1.3,-0.6 -10.1,-4.7 -36.9,-17 -55.8,17.2 -0.2,0.4 -0.7,0.7 -1.2,0.7 z"
             fill="#5E1145" />
          <path
             inkscape:connector-curvature="0"
             id="path7638"
             d="m 193.6,646.2 c -0.5,0 -1,-0.3 -1.2,-0.7 -0.3,-0.7 -0.1,-1.5 0.6,-1.8 7.7,-4 10,-13.2 12.8,-24.8 l 0.2,-0.7 c 0.2,-0.7 0.9,-1.2 1.6,-1 0.7,0.2 1.2,0.9 1,1.6 l -0.2,0.7 c -2.9,11.8 -5.4,22 -14.2,26.6 -0.2,0.1 -0.4,0.1 -0.6,0.1 z"
             fill="#5E1145" />
          <path
             inkscape:connector-curvature="0"
             id="path7640"
             d="m 298,646.2 c -0.1,0 -0.2,0 -0.4,-0.1 -0.2,-0.1 -6.2,-1.7 -9.9,-3.9 -0.6,-0.4 -0.9,-1.2 -0.5,-1.9 0.4,-0.6 1.2,-0.9 1.9,-0.5 3.5,2 9.2,3.6 9.3,3.7 0.7,0.2 1.2,1 0.9,1.7 -0.1,0.6 -0.7,1 -1.3,1 z"
             fill="#5E1145" />
          <path
             inkscape:connector-curvature="0"
             id="path7642"
             d="m 299.2,612.5 c -0.7,0 -1.3,-0.5 -1.4,-1.2 -1.3,-13.5 -4.6,-22.7 -9.6,-26.5 -2.3,-1.8 -5,-2.5 -8,-2 -0.7,0.1 -1.4,-0.4 -1.6,-1.1 -0.1,-0.7 0.4,-1.4 1.1,-1.6 3.7,-0.6 7.2,0.3 10.1,2.5 5.7,4.4 9.3,14 10.7,28.4 0.1,0.7 -0.5,1.4 -1.2,1.5 0,0 -0.1,0 -0.1,0 z"
             fill="#5E1145" />
        </g>
      </g>
      <path
         inkscape:connector-curvature="0"
         id="path7648"
         d="m 313.9,760.7 c -0.5,-5.7 -4.7,-21 -9.6,-25.6 -6.6,-6.3 -27.2,-7.5 -37.9,-14 -2,1.7 -7.4,6.5 -12.3,10.8 -5.1,4.4 -12.6,4.4 -17.7,0 l -12.3,-10.8 c -10.7,6.5 -31.3,7.7 -37.9,14 -4.9,4.7 -9.1,19.9 -9.6,25.6 z"
         fill="#F2EBEA" />
      <path
         inkscape:connector-curvature="0"
         id="path7650"
         d="M 313.9,762 H 176.7 c -0.4,0 -0.7,-0.2 -1,-0.4 -0.3,-0.2 -0.4,-0.7 -0.4,-1 0.5,-5.4 4.6,-21.4 10,-26.5 3.7,-3.5 11.2,-5.5 19.1,-7.5 6.9,-1.8 14.1,-3.6 19,-6.6 0.5,-0.3 1.2,-0.3 1.6,0.1 l 12.3,10.8 c 4.5,4 11.4,4 15.9,0 l 12.3,-10.8 c 0.4,-0.4 1.1,-0.4 1.6,-0.1 4.9,3 12.1,4.8 19,6.6 7.9,2.1 15.4,4 19.1,7.5 5.4,5.1 9.5,21.1 10,26.5 0,0.4 -0.1,0.8 -0.4,1 -0.3,0.2 -0.6,0.4 -0.9,0.4 z m -135.7,-2.7 h 134.1 c -1,-6.7 -4.9,-19.4 -9,-23.3 -3.2,-3 -10.4,-4.9 -17.9,-6.9 -6.7,-1.7 -13.7,-3.5 -18.8,-6.4 L 255,732.9 c -5.6,4.9 -13.9,4.9 -19.5,0 L 224,722.8 c -5.2,2.9 -12.1,4.7 -18.8,6.4 -7.6,2 -14.7,3.8 -17.9,6.9 -4.2,3.8 -8.1,16.6 -9.1,23.2 z"
         fill="#5E1145" />
      <path
         inkscape:connector-curvature="0"
         id="path7652"
         d="m 304.3,735.1 c -3.2,-3 -9.7,-4.9 -16.7,-6.7 -5.7,11.1 -22.5,19.1 -42.3,19.1 -19.8,0 -36.6,-8 -42.3,-19.1 -7,1.8 -13.5,3.7 -16.7,6.7 -4.9,4.7 -9.1,19.9 -9.6,25.6 h 137.2 c -0.6,-5.7 -4.7,-21 -9.6,-25.6 z"
         fill="#86C879" />
      <path
         inkscape:connector-curvature="0"
         id="path7654"
         d="M 313.9,762 H 176.7 c -0.4,0 -0.7,-0.2 -1,-0.4 -0.3,-0.2 -0.4,-0.7 -0.4,-1 0.5,-5.4 4.6,-21.4 10,-26.5 3.4,-3.2 9.9,-5.1 17.3,-7 0.6,-0.2 1.3,0.1 1.6,0.7 2.7,5.2 8.1,9.8 15.2,13.1 7.5,3.5 16.5,5.3 25.9,5.3 9.4,0 18.4,-1.8 25.9,-5.3 7.2,-3.3 12.6,-7.9 15.2,-13.1 0.3,-0.6 0.9,-0.9 1.6,-0.7 7.5,1.9 13.9,3.8 17.3,7 5.4,5.1 9.5,21.1 10,26.5 0,0.4 -0.1,0.8 -0.4,1 -0.3,0.2 -0.7,0.4 -1,0.4 z m -135.7,-2.7 h 134.1 c -1,-6.7 -4.9,-19.4 -9,-23.3 v 0 c -2.8,-2.6 -8.7,-4.4 -15.1,-6.1 -6.5,11.3 -23.6,18.9 -43,18.9 -19.4,0 -36.5,-7.5 -43,-18.9 -6.4,1.7 -12.3,3.5 -15.1,6.1 -4,3.9 -7.9,16.7 -8.9,23.3 z"
         fill="#5E1145" />
    </g>
  </g>
</svg>
