<?xml version="1.0" encoding="UTF-8" standalone="no"?>
<svg
   xmlns:dc="http://purl.org/dc/elements/1.1/"
   xmlns:cc="http://creativecommons.org/ns#"
   xmlns:rdf="http://www.w3.org/1999/02/22-rdf-syntax-ns#"
   xmlns:svg="http://www.w3.org/2000/svg"
   xmlns="http://www.w3.org/2000/svg"
   xmlns:xlink="http://www.w3.org/1999/xlink"
   xmlns:sodipodi="http://sodipodi.sourceforge.net/DTD/sodipodi-0.dtd"
   xmlns:inkscape="http://www.inkscape.org/namespaces/inkscape"
   inkscape:version="1.0beta1 (32d4812, 2019-09-19)"
   id="svg1408"
   version="1.1"
   viewBox="0 0 238.12499 317.50001"
   height="1200"
   width="900">
  <defs
     id="defs1402">
    <clipPath
       id="SVGID_2_">
      <use
         xlink:href="#SVGID_1_"
         overflow="visible"
         id="use1978"
         x="0"
         y="0"
         width="100%"
         height="100%" />
    </clipPath>
    <circle
       id="SVGID_1_"
       cx="231.7"
       cy="310.29999"
       r="136.5" />
    <clipPath
       id="SVGID_4_">
      <use
         height="100%"
         width="100%"
         y="0"
         x="0"
         id="use2092"
         overflow="visible"
         xlink:href="#SVGID_3_" />
    </clipPath>
    <circle
       r="136.5"
       cy="310.29999"
       cx="543.90002"
       id="SVGID_3_" />
    <clipPath
       id="SVGID_6_">
      <use
         height="100%"
         width="100%"
         y="0"
         x="0"
         id="use2158"
         overflow="visible"
         xlink:href="#SVGID_5_" />
    </clipPath>
    <circle
       r="136.5"
       cy="310.29999"
       cx="856.09998"
       id="SVGID_5_" />
    <clipPath
       id="SVGID_8_">
      <use
         height="100%"
         width="100%"
         y="0"
         x="0"
         id="use2256"
         overflow="visible"
         xlink:href="#SVGID_7_" />
    </clipPath>
    <circle
       r="136.5"
       cy="310.29999"
       cx="1168.3"
       id="SVGID_7_" />
    <clipPath
       id="SVGID_10_">
      <use
         height="100%"
         width="100%"
         y="0"
         x="0"
         id="use2342"
         overflow="visible"
         xlink:href="#SVGID_9_" />
    </clipPath>
    <circle
       r="136.5"
       cy="669.70001"
       cx="231.7"
       id="SVGID_9_" />
    <clipPath
       id="SVGID_12_">
      <use
         height="100%"
         width="100%"
         y="0"
         x="0"
         id="use2418"
         overflow="visible"
         xlink:href="#SVGID_11_" />
    </clipPath>
    <circle
       r="136.5"
       cy="669.70001"
       cx="543.90002"
       id="SVGID_11_" />
    <clipPath
       id="SVGID_14_">
      <use
         height="100%"
         width="100%"
         y="0"
         x="0"
         id="use2556"
         overflow="visible"
         xlink:href="#SVGID_13_" />
    </clipPath>
    <circle
       r="136.5"
       cy="669.70001"
       cx="856.09998"
       id="SVGID_13_" />
    <clipPath
       id="SVGID_16_">
      <use
         height="100%"
         width="100%"
         y="0"
         x="0"
         id="use2684"
         overflow="visible"
         xlink:href="#SVGID_15_" />
    </clipPath>
    <circle
       r="136.5"
       cy="669.70001"
       cx="1168.3"
       id="SVGID_15_" />
  </defs>
  <sodipodi:namedview
     inkscape:window-maximized="0"
     inkscape:window-y="134"
     inkscape:window-x="20"
     inkscape:window-height="907"
     inkscape:window-width="1600"
     units="px"
     showgrid="false"
     inkscape:document-rotation="0"
     inkscape:current-layer="layer1"
     inkscape:document-units="mm"
     inkscape:cy="560"
     inkscape:cx="400"
     inkscape:zoom="0.35"
     inkscape:pageshadow="2"
     inkscape:pageopacity="0.0"
     borderopacity="1.0"
     bordercolor="#666666"
     pagecolor="#ffffff"
     id="base" />
  <metadata
     id="metadata1405">
    <rdf:RDF>
      <cc:Work
         rdf:about="">
        <dc:format>image/svg+xml</dc:format>
        <dc:type
           rdf:resource="http://purl.org/dc/dcmitype/StillImage" />
        <dc:title></dc:title>
      </cc:Work>
    </rdf:RDF>
  </metadata>
  <g
     id="layer1"
     inkscape:groupmode="layer"
     inkscape:label="Layer 1">
    <g
       transform="matrix(1.3229166,0,0,1.3229166,-1007.401,-690.56245)"
       style="opacity:1;stop-opacity:1"
       id="g7848">
      <rect
         id="rect7778"
         height="118"
         width="83.900002"
         fill="#6E512C"
         y="613.29999"
         x="808.59998" />
      <path
         inkscape:connector-curvature="0"
         id="path7780"
         d="m 920.1,730.9 c -9.1,-8.6 -37.7,-9 -46.1,-21.2 -8.4,-12.2 -5.4,-28.4 -2.4,-36.7 h -40 c 3,8.3 6,24.6 -2.4,36.7 -8.4,12.2 -37,12.5 -46.1,21.2 -5.7,5.4 -10.5,23.1 -11.1,29.8 h 159.3 c -0.7,-6.6 -5.5,-24.4 -11.2,-29.8 z"
         fill="#FCDFB0" />
      <path
         inkscape:connector-curvature="0"
         id="path7782"
         d="m 865.7,673 h -22.5 l -10.2,4.7 c 1.3,5.2 2.2,11.8 1.3,18.5 8,6.6 25.5,13.6 38,10.9 -5.7,-10.5 -4,-23.3 -1.6,-31.4 z"
         fill="#DBBB8D" />
      <path
         inkscape:connector-curvature="0"
         id="path7784"
         d="M 931.2,762 H 771.9 c -0.4,0 -0.7,-0.2 -1,-0.4 -0.3,-0.3 -0.4,-0.7 -0.4,-1 0.6,-6.3 5.3,-24.7 11.5,-30.6 4.3,-4 12.2,-6.3 20.6,-8.6 10.3,-2.9 21,-5.9 25.4,-12.3 9.4,-13.6 3.5,-31.9 2.2,-35.5 -0.2,-0.4 -0.1,-0.9 0.2,-1.2 0.3,-0.4 0.7,-0.6 1.1,-0.6 h 40 c 0.4,0 0.9,0.2 1.1,0.6 0.3,0.4 0.3,0.8 0.2,1.2 -1.3,3.5 -7.2,21.9 2.2,35.5 4.4,6.4 15.1,9.4 25.4,12.3 8.4,2.4 16.3,4.6 20.6,8.6 v 0 c 6.2,5.9 11,24.4 11.5,30.6 0,0.4 -0.1,0.8 -0.4,1 -0.1,0.3 -0.5,0.4 -0.9,0.4 z m -157.7,-2.7 h 156.2 c -1.1,-7.7 -5.7,-22.9 -10.5,-27.4 v 0 c -3.8,-3.6 -11.4,-5.7 -19.4,-8 -10.8,-3 -21.9,-6.2 -26.9,-13.4 -9,-13.1 -5.1,-29.9 -3.2,-36.1 h -36.2 c 1.9,6.2 5.9,23.1 -3.2,36.1 -5,7.2 -16.1,10.4 -26.9,13.4 -8.1,2.3 -15.7,4.4 -19.4,8 -4.8,4.5 -9.4,19.7 -10.5,27.4 z"
         fill="#5E1145" />
      <path
         inkscape:connector-curvature="0"
         id="path7786"
         d="m 868.1,581.7 h -33 c -14.9,0 -26.9,12.3 -26.5,27.3 0.5,17.9 2.5,52 3.8,55.6 2.1,5.7 23.2,27.7 31,29.2 h 16.2 c 7.8,-1.5 28.9,-23.5 31,-29.2 1.3,-3.7 3.3,-37.7 3.8,-55.6 0.6,-15 -11.4,-27.3 -26.3,-27.3 z"
         fill="#FCDFB0" />
      <path
         inkscape:connector-curvature="0"
         id="path7788"
         d="m 859.7,695.2 h -16.2 c -0.1,0 -0.2,0 -0.3,0 -8.6,-1.6 -29.9,-24.2 -32.1,-30.1 -1.5,-4.1 -3.4,-39.1 -3.9,-56.1 -0.2,-7.6 2.6,-14.8 7.9,-20.2 5.3,-5.4 12.4,-8.5 20,-8.5 h 33 c 7.6,0 14.7,3 20,8.5 5.3,5.5 8.1,12.6 7.9,20.2 -0.5,17 -2.4,52 -3.9,56.1 -2.2,5.9 -23.5,28.4 -32.1,30.1 -0.1,0 -0.2,0 -0.3,0 z m -16.1,-2.7 h 16 c 3.2,-0.7 9.6,-5.5 16.8,-12.6 6.5,-6.4 12.1,-13.1 13,-15.7 1.2,-3.3 3.2,-36.8 3.8,-55.2 0.2,-6.9 -2.3,-13.3 -7.1,-18.3 -4.8,-4.9 -11.2,-7.6 -18,-7.6 h -33 c -6.9,0 -13.3,2.7 -18,7.6 -4.8,4.9 -7.3,11.4 -7.1,18.3 0.5,18.4 2.5,51.9 3.8,55.2 0.9,2.6 6.6,9.3 13,15.7 7.2,7 13.6,11.9 16.8,12.6 z"
         fill="#5E1145" />
      <g
         id="g7814">
        <g
           id="g7800">
          <g
             id="g7794">
            <circle
               r="5.8000002"
               id="ellipse7790"
               cy="637.5"
               cx="870.90002"
               fill="#5E1145"
               transform="matrix(1,-0.00784848,0.00784848,1,-4.9764,6.8546)" />
            <path
               inkscape:connector-curvature="0"
               id="path7792"
               d="m 861.2,637.1 c -0.5,0 -0.9,-0.3 -1.2,-0.7 -0.4,-0.7 -0.1,-1.5 0.5,-1.9 0.2,-0.1 0.5,-0.3 0.8,-0.4 3.5,-2 8.8,-5 15.2,-1.5 2.1,1.2 4,0.5 4.1,0.5 0.7,-0.2 1.5,0.1 1.7,0.9 0.2,0.7 -0.1,1.5 -0.9,1.7 -0.1,0 -3.1,1 -6.3,-0.7 -5.1,-2.8 -9.2,-0.4 -12.5,1.5 -0.3,0.2 -0.5,0.3 -0.8,0.5 -0.2,0.1 -0.4,0.1 -0.6,0.1 z"
               fill="#5E1145" />
          </g>
          <path
             inkscape:connector-curvature="0"
             id="path7796"
             d="m 859.3,628.5 c 9,-0.7 17.3,-3.3 28,1.9 -3,-4.2 -7.9,-8.5 -17.9,-8 -10,0.5 -14.7,6.5 -10.1,6.1 z"
             fill="#80643C" />
          <path
             inkscape:connector-curvature="0"
             id="path7798"
             d="m 887.3,631.8 c -0.2,0 -0.4,0 -0.6,-0.1 -8.3,-4.1 -15,-3.2 -22.1,-2.4 -1.7,0.2 -3.4,0.4 -5.1,0.6 v 0 c -1.4,0.1 -2.4,-0.2 -2.9,-1 -0.4,-0.6 -0.5,-1.5 -0.1,-2.3 1.2,-2.4 6.3,-5.1 12.9,-5.5 8.4,-0.5 14.7,2.3 19.1,8.5 0.4,0.5 0.3,1.2 -0.1,1.7 -0.3,0.3 -0.7,0.5 -1.1,0.5 z m -28,-3.3 z m 11.8,-4.7 c -0.5,0 -1,0 -1.6,0 -5.3,0.3 -8.7,2.1 -10,3.3 1.6,-0.1 3.2,-0.3 4.8,-0.5 5.6,-0.7 11.3,-1.4 17.8,0.4 -2.5,-1.8 -6,-3.2 -11,-3.2 z"
             fill="#5E1145" />
        </g>
        <g
           id="g7812">
          <g
             id="g7806">
            <circle
               r="5.8000002"
               id="ellipse7802"
               cy="637.5"
               cx="832.29999"
               fill="#5E1145"
               transform="matrix(0.00784848,-1,1,0.00784848,188.3085,1464.7461)" />
            <path
               inkscape:connector-curvature="0"
               id="path7804"
               d="m 842,637.1 c -0.2,0 -0.5,-0.1 -0.7,-0.2 -0.3,-0.1 -0.5,-0.3 -0.8,-0.5 -3.3,-1.9 -7.4,-4.3 -12.5,-1.5 -3.2,1.7 -6.1,0.8 -6.3,0.7 -0.7,-0.2 -1.1,-1 -0.9,-1.7 0.2,-0.7 1,-1.1 1.7,-0.9 0.1,0 2,0.6 4.1,-0.5 6.4,-3.5 11.7,-0.5 15.2,1.5 0.3,0.2 0.5,0.3 0.8,0.4 0.7,0.4 0.9,1.2 0.5,1.9 -0.2,0.6 -0.6,0.8 -1.1,0.8 z"
               fill="#5E1145" />
          </g>
          <path
             inkscape:connector-curvature="0"
             id="path7808"
             d="m 843.8,628.5 c -9,-0.7 -17.3,-3.3 -28,1.9 3,-4.2 7.9,-8.5 17.9,-8 10,0.5 14.8,6.5 10.1,6.1 z"
             fill="#80643C" />
          <path
             inkscape:connector-curvature="0"
             id="path7810"
             d="m 815.8,631.8 c -0.4,0 -0.8,-0.2 -1,-0.5 -0.4,-0.5 -0.4,-1.2 -0.1,-1.7 4.4,-6.2 10.6,-9 19.1,-8.5 6.5,0.4 11.7,3.1 12.9,5.5 0.4,0.8 0.4,1.6 -0.1,2.3 -0.5,0.8 -1.5,1.1 -2.9,1 v 0 c -1.7,-0.1 -3.5,-0.4 -5.1,-0.6 -7.1,-0.9 -13.8,-1.7 -22.1,2.4 -0.3,0 -0.5,0.1 -0.7,0.1 z m 13.9,-6 c 3.1,0 6.2,0.4 9.1,0.7 1.6,0.2 3.2,0.4 4.8,0.5 -1.3,-1.2 -4.7,-3 -10,-3.3 -5.9,-0.3 -9.9,1.2 -12.6,3.1 3.1,-0.7 6,-1 8.7,-1 z"
             fill="#5E1145" />
        </g>
      </g>
      <path
         inkscape:connector-curvature="0"
         id="path7816"
         d="m 851.6,662.6 c -0.1,0 -0.2,0 -0.3,0 -0.9,-0.2 -5.4,-1.5 -6.8,-3.7 -0.4,-0.6 -0.2,-1.5 0.4,-1.9 0.6,-0.4 1.5,-0.2 1.9,0.4 0.6,0.9 3.1,1.9 4.9,2.4 1.7,-0.5 4.3,-1.6 4.8,-2.5 0.4,-0.6 1.2,-0.8 1.9,-0.4 0.6,0.4 0.8,1.2 0.4,1.9 -1.4,2.2 -5.9,3.5 -6.8,3.8 -0.2,0 -0.3,0 -0.4,0 z"
         fill="#5E1145" />
      <path
         inkscape:connector-curvature="0"
         id="path7818"
         d="m 838.2,671.3 c 3,3.6 4.3,7.4 13.3,7.8 9,-0.4 10.3,-4.2 13.3,-7.8 -8.8,5.1 -17.7,5.1 -26.6,0 z"
         fill="#E96887" />
      <path
         inkscape:connector-curvature="0"
         id="path7820"
         d="m 851.6,675.5 c -5,0 -9.9,-1.1 -14,-3.3 -0.7,-0.4 -0.9,-1.2 -0.5,-1.9 0.4,-0.7 1.2,-0.9 1.9,-0.5 7.3,4 18,4 25.3,0 0.7,-0.4 1.5,-0.1 1.9,0.5 0.4,0.7 0.1,1.5 -0.5,1.9 -4.2,2.2 -9.2,3.3 -14.1,3.3 z"
         fill="#5E1145" />
      <g
         id="g7836">
        <path
           inkscape:connector-curvature="0"
           id="path7822"
           d="m 803,737.5 c 32.4,0 64.8,0 97.2,0 7,7.3 11.8,15.8 12.4,23.1 -40.6,0 -81.3,0 -121.9,0 0.5,-7.2 5.3,-15.8 12.3,-23.1 z"
           fill="#F2EBEA" />
        <g
           id="g7828">
          <path
             inkscape:connector-curvature="0"
             id="path7824"
             d="m 790.6,760.7 c 40.6,0 81.3,0 121.9,0 -0.2,-2.3 -0.8,-4.6 -1.7,-7.1 H 792.3 c -0.9,2.4 -1.5,4.8 -1.7,7.1 z"
             fill="#7ACED7" />
          <path
             inkscape:connector-curvature="0"
             id="path7826"
             d="m 907.2,746.5 c -1.9,-3.1 -4.3,-6.1 -7,-8.9 -32.4,0 -64.8,0 -97.2,0 -2.7,2.8 -5.1,5.9 -7,8.9 z"
             fill="#7ACED7" />
        </g>
        <path
           inkscape:connector-curvature="0"
           id="path7830"
           d="m 912.6,762 h -122 c -0.4,0 -0.7,-0.2 -1,-0.4 -0.3,-0.3 -0.4,-0.7 -0.4,-1 0.6,-7.3 5.2,-16.1 12.7,-24 0.3,-0.3 0.6,-0.4 1,-0.4 h 97.2 c 0.4,0 0.7,0.2 1,0.4 7.5,7.9 12.2,16.6 12.7,24 0,0.4 -0.1,0.8 -0.4,1 -0.1,0.3 -0.5,0.4 -0.8,0.4 z M 792.1,759.3 H 911 c -1,-6.2 -5.1,-13.7 -11.4,-20.4 h -96 c -6.3,6.7 -10.5,14.2 -11.5,20.4 z"
           fill="#5E1145" />
        <path
           inkscape:connector-curvature="0"
           id="path7832"
           d="m 803,738.9 c -0.4,0 -0.9,-0.2 -1.1,-0.6 -0.4,-0.6 -0.3,-1.5 0.4,-1.9 10,-6.7 17.7,-16.2 20.2,-22.1 0.3,-0.7 1.1,-1 1.8,-0.7 0.7,0.3 1,1.1 0.7,1.8 -2.6,6.1 -10.3,15.9 -21.2,23.3 -0.3,0.1 -0.6,0.2 -0.8,0.2 z"
           fill="#5E1145" />
        <path
           inkscape:connector-curvature="0"
           id="path7834"
           d="m 899.6,738.9 c -0.3,0 -0.5,-0.1 -0.8,-0.2 -10.9,-7.4 -18.6,-17.2 -21.2,-23.3 -0.3,-0.7 0,-1.5 0.7,-1.8 0.7,-0.3 1.5,0 1.8,0.7 2.5,5.9 10.2,15.4 20.2,22.1 0.6,0.4 0.8,1.3 0.4,1.9 -0.2,0.4 -0.6,0.6 -1.1,0.6 z"
           fill="#5E1145" />
      </g>
      <g
         id="g7846">
        <g
           id="g7840">
          <path
             inkscape:connector-curvature="0"
             id="path7838"
             d="m 851.6,587.9 c -4.8,8.3 -37.7,11 -37.7,38.5 v 100 c 0,9.3 -3.7,18.3 -10.3,24.9 v 0 -146.2 c 0,-23.1 18.7,-41.8 41.8,-41.8 H 858 c 23.1,0 41.8,18.7 41.8,41.8 v 146.3 0 c -6.6,-6.6 -10.3,-15.6 -10.3,-24.9 v -100 c -0.2,-27.6 -33.1,-30.3 -37.9,-38.6 z"
             fill="#80643C" />
        </g>
        <g
           id="g7844">
          <path
             inkscape:connector-curvature="0"
             id="path7842"
             d="m 899.6,752.7 c -0.4,0 -0.7,-0.1 -1,-0.4 -6.9,-6.9 -10.7,-16.1 -10.7,-25.9 v -100 c 0,-17.9 -14.3,-24.6 -25.7,-30.1 -4.6,-2.2 -8.4,-4 -10.6,-6.2 -2.2,2.3 -6,4.1 -10.6,6.2 -11.5,5.4 -25.7,12.2 -25.7,30.1 v 100 c 0,9.8 -3.8,19 -10.7,25.9 -0.4,0.4 -1,0.5 -1.5,0.3 -0.5,-0.2 -0.8,-0.7 -0.8,-1.3 V 605.1 c 0,-23.8 19.3,-43.1 43.1,-43.1 H 858 c 23.8,0 43.1,19.3 43.1,43.1 v 146.3 c 0,0.6 -0.3,1 -0.8,1.3 -0.3,0 -0.5,0 -0.7,0 z m -48,-166.2 c 0.5,0 0.9,0.3 1.2,0.7 1.3,2.3 5.6,4.3 10.6,6.7 11.5,5.4 27.3,12.9 27.3,32.5 v 100 c 0,7.9 2.7,15.4 7.6,21.4 V 605.1 c 0,-22.3 -18.1,-40.4 -40.4,-40.4 h -12.6 c -22.3,0 -40.4,18.1 -40.4,40.4 v 142.7 c 4.9,-6 7.6,-13.5 7.6,-21.4 v -100 c 0,-19.6 15.8,-27.1 27.3,-32.5 5,-2.4 9.3,-4.4 10.6,-6.7 0.2,-0.4 0.7,-0.7 1.2,-0.7 z"
             fill="#5E1145" />
        </g>
      </g>
    </g>
  </g>
</svg>
