<?xml version="1.0" encoding="UTF-8" standalone="no"?>
<svg
   height="512px"
   id="Layer_1"
   style="enable-background:new 0 0 512 512;"
   version="1.1"
   viewBox="0 0 512 512"
   width="512px"
   xml:space="preserve"
   sodipodi:docname="211751_gear_icon.svg"
   inkscape:version="1.2.1 (9c6d41e, 2022-07-14)"
   inkscape:export-filename="../website/img/gear_icon.png"
   inkscape:export-xdpi="11.69"
   inkscape:export-ydpi="11.69"
   xmlns:inkscape="http://www.inkscape.org/namespaces/inkscape"
   xmlns:sodipodi="http://sodipodi.sourceforge.net/DTD/sodipodi-0.dtd"
   xmlns="http://www.w3.org/2000/svg"
   xmlns:svg="http://www.w3.org/2000/svg"><defs
     id="defs137" /><sodipodi:namedview
     id="namedview135"
     pagecolor="#ffffff"
     bordercolor="#666666"
     borderopacity="1.0"
     inkscape:showpageshadow="2"
     inkscape:pageopacity="0.0"
     inkscape:pagecheckerboard="0"
     inkscape:deskcolor="#d1d1d1"
     showgrid="false"
     inkscape:zoom="0.4609375"
     inkscape:cx="157.28814"
     inkscape:cy="270.10169"
     inkscape:window-width="1193"
     inkscape:window-height="797"
     inkscape:window-x="0"
     inkscape:window-y="38"
     inkscape:window-maximized="0"
     inkscape:current-layer="Layer_1" /><path
     d="M424.5,216.5h-15.2c-12.4,0-22.8-10.7-22.8-23.4c0-6.4,2.7-12.2,7.5-16.5l9.8-9.6c9.7-9.6,9.7-25.3,0-34.9l-22.3-22.1  c-4.4-4.4-10.9-7-17.5-7c-6.6,0-13,2.6-17.5,7l-9.4,9.4c-4.5,5-10.5,7.7-17,7.7c-12.8,0-23.5-10.4-23.5-22.7V89.1  c0-13.5-10.9-25.1-24.5-25.1h-30.4c-13.6,0-24.4,11.5-24.4,25.1v15.2c0,12.3-10.7,22.7-23.5,22.7c-6.4,0-12.3-2.7-16.6-7.4l-9.7-9.6  c-4.4-4.5-10.9-7-17.5-7s-13,2.6-17.5,7L110,132c-9.6,9.6-9.6,25.3,0,34.8l9.4,9.4c5,4.5,7.8,10.5,7.8,16.9  c0,12.8-10.4,23.4-22.8,23.4H89.2c-13.7,0-25.2,10.7-25.2,24.3V256v15.2c0,13.5,11.5,24.3,25.2,24.3h15.2  c12.4,0,22.8,10.7,22.8,23.4c0,6.4-2.8,12.4-7.8,16.9l-9.4,9.3c-9.6,9.6-9.6,25.3,0,34.8l22.3,22.2c4.4,4.5,10.9,7,17.5,7  c6.6,0,13-2.6,17.5-7l9.7-9.6c4.2-4.7,10.2-7.4,16.6-7.4c12.8,0,23.5,10.4,23.5,22.7v15.2c0,13.5,10.8,25.1,24.5,25.1h30.4  c13.6,0,24.4-11.5,24.4-25.1v-15.2c0-12.3,10.7-22.7,23.5-22.7c6.4,0,12.4,2.8,17,7.7l9.4,9.4c4.5,4.4,10.9,7,17.5,7  c6.6,0,13-2.6,17.5-7l22.3-22.2c9.6-9.6,9.6-25.3,0-34.9l-9.8-9.6c-4.8-4.3-7.5-10.2-7.5-16.5c0-12.8,10.4-23.4,22.8-23.4h15.2  c13.6,0,23.3-10.7,23.3-24.3V256v-15.2C447.8,227.2,438.1,216.5,424.5,216.5z M336.8,256L336.8,256c0,44.1-35.7,80-80,80  c-44.3,0-80-35.9-80-80l0,0l0,0c0-44.1,35.7-80,80-80C301.1,176,336.8,211.9,336.8,256L336.8,256z"
     id="path132"
     style="fill:#fc7200;fill-opacity:1;stroke:#000000;stroke-opacity:1;stroke-width:10;stroke-dasharray:none" /></svg>
