<?xml version="1.0" encoding="UTF-8" standalone="no"?>
<svg
   xmlns:dc="http://purl.org/dc/elements/1.1/"
   xmlns:cc="http://creativecommons.org/ns#"
   xmlns:rdf="http://www.w3.org/1999/02/22-rdf-syntax-ns#"
   xmlns:svg="http://www.w3.org/2000/svg"
   xmlns="http://www.w3.org/2000/svg"
   xmlns:sodipodi="http://sodipodi.sourceforge.net/DTD/sodipodi-0.dtd"
   xmlns:inkscape="http://www.inkscape.org/namespaces/inkscape"
   viewBox="4970 1643 60 80.019"
   id="svg2"
   version="1.1"
   inkscape:version="0.91 r13725"
   sodipodi:docname="award-ribbon-stretch.svg"
   inkscape:export-filename="/Users/jeffpiazza/Cub Scouts/Pinewood Derby/Software Development/derbynet/website/img/award-ribbon-54x72.png"
   inkscape:export-xdpi="81"
   inkscape:export-ydpi="81">
  <metadata
     id="metadata12">
    <rdf:RDF>
      <cc:Work
         rdf:about="">
        <dc:format>image/svg+xml</dc:format>
        <dc:type
           rdf:resource="http://purl.org/dc/dcmitype/StillImage" />
      </cc:Work>
    </rdf:RDF>
  </metadata>
  <sodipodi:namedview
     pagecolor="#ffffff"
     bordercolor="#666666"
     borderopacity="1"
     objecttolerance="10"
     gridtolerance="10"
     guidetolerance="10"
     inkscape:pageopacity="0"
     inkscape:pageshadow="2"
     inkscape:window-width="1730"
     inkscape:window-height="1153"
     id="namedview10"
     showgrid="false"
     inkscape:zoom="2"
     inkscape:cx="-48.862176"
     inkscape:cy="-16.502146"
     inkscape:window-x="0"
     inkscape:window-y="0"
     inkscape:window-maximized="0"
     inkscape:current-layer="svg2" />
  <defs
     id="defs4">
    <style
       id="style6">.a{fill:#c32a27;}</style>
  </defs>
  <path
     class="a"
     d=" M 48.365, 49.707 a 3.517, 3.517, 0, 0, 1, .488, -.854 a 7.429, 7.429, 0, 0, 1, 2.5, -1.1 c 1.708, -.488, 3.659, -1.1, 4.574, -2.806 c .976, -1.647, .488, -3.6, .122, -5.306 a 6.889, 6.889, 0, 0, 1, -.3, -2.806 A 6.386, 6.386, 0, 0, 1, 57.331, 34.7 c 1.22, -1.281, 2.623, -2.806, 2.623, -4.757 s -1.4, -3.476, -2.623, -4.757 a 6.386, 6.386, 0, 0, 1, -1.586, -2.135 a 7.072, 7.072, 0, 0, 1, .3, -2.806 c .427, -1.708, .854, -3.659, -.122, -5.306 S 53, 12.686, 51.354, 12.2 a 6, 6, 0, 0, 1, -2.5, -1.1 a 7.429, 7.429, 0, 0, 1, -1.1, -2.5 c -.488, -1.708, -1.1, -3.6, -2.745, -4.574 s -3.6, -.488, -5.306, -.122 a 6.889, 6.889, 0, 0, 1, -2.806, .3 a 7.363, 7.363, 0, 0, 1, -2.135, -1.586 C 33.484, 1.4, 31.959, 0, 30.007, 0 S 26.531, 1.4, 25.25, 2.623 a 6.386, 6.386, 0, 0, 1, -2.135, 1.586 a 7.072, 7.072, 0, 0, 1, -2.806, -.3 C 18.6, 3.476, 16.65, 3.05, 15, 4.025 S 12.747, 6.953, 12.259, 8.6 a 6, 6, 0, 0, 1, -1.1, 2.5 a 7.429, 7.429, 0, 0, 1, -2.5, 1.1 C 6.953, 12.686, 5, 13.3, 4.086, 15 c -.976, 1.647, -.488, 3.6, -.122, 5.306 a 6.889, 6.889, 0, 0, 1, .3, 2.806 A 6.386, 6.386, 0, 0, 1, 2.684, 25.25 C 1.4, 26.531, 0, 28.056, 0, 30.007 s 1.4, 3.476, 2.623, 4.757 A 6.386, 6.386, 0, 0, 1, 4.208, 36.9 A 7.072, 7.072, 0, 0, 1, 3.9, 39.7 c -.427, 1.708, -.854, 3.659, .122, 5.306 S 6.953, 47.267, 8.6, 47.755 a 6, 6, 0, 0, 1, 2.5, 1.1 a 2.249, 2.249, 0, 0, 1, .488, .854 L .122, 77.7 a 1.576, 1.576, 0, 0, 0, .427, 1.83 a 1.61, 1.61, 0, 0, 0, 1.159, .427 a 1.624, 1.624, 0, 0, 0, .732, -.183 l 12.442, -6.221, 9.21, 6.16 a 1.567, 1.567, 0, 0, 0, 1.464, .183 a 1.819, 1.819, 0, 0, 0, 1.037, -.976 l 3.659, -9.7, 3.232, 9.636 A 1.743, 1.743, 0, 0, 0, 34.52, 79.9 a 1.567, 1.567, 0, 0, 0, 1.464, -.183 l 9.149, -6.1, 12.442, 6.221 a 1.624, 1.624, 0, 0, 0, .732, .183 a 2.08, 2.08, 0, 0, 0, 1.159, -.427 a 1.728, 1.728, 0, 0, 0, .427, -1.83 Z m -19.944, 14.7 L 24.152, 75.75 l -8.234, -5.489 a 1.762, 1.762, 0, 0, 0, -1.647, -.122 L 4.879, 74.9 l 8.478, -20.615 A 4.9, 4.9, 0, 0, 0, 15, 55.989 c 1.647, .976, 3.6, .488, 5.306, .122 a 6.889, 6.889, 0, 0, 1, 2.806, -.3 a 7.363, 7.363, 0, 0, 1, 2.135, 1.586 c .488, .427, .976, .854, 1.525, 1.281 v .183 l 1.769, 5.367 C 28.543, 64.345, 28.482, 64.345, 28.421, 64.406 Z m 1.586, -7.746 c -.671, 0, -1.647, -.915, -2.5, -1.708 a 8.66, 8.66, 0, 0, 0, -3.537, -2.379 a 5.08, 5.08, 0, 0, 0, -1.342, -.183 a 13.242, 13.242, 0, 0, 0, -3.05, .488 c -1.037, .244, -2.379, .549, -2.928, .244 s -.915, -1.586, -1.281, -2.684 a 8.983, 8.983, 0, 0, 0, -1.891, -3.9 a 8.983, 8.983, 0, 0, 0, -3.9, -1.891 c -1.1, -.3, -2.379, -.732, -2.684, -1.281 c -.3, -.488, 0, -1.83, .244, -2.928 a 8.982, 8.982, 0, 0, 0, .3, -4.391 a 8.66, 8.66, 0, 0, 0, -2.379, -3.537 c -.793, -.854, -1.708, -1.83, -1.708, -2.5 s .915, -1.647, 1.708, -2.5 a 8.66, 8.66, 0, 0, 0, 2.379, -3.537 a 8.982, 8.982, 0, 0, 0, -.3, -4.391 c -.244, -1.037, -.549, -2.379, -.244, -2.928 s1.586, -.915, 2.684, -1.281 a 8.983, 8.983, 0, 0, 0, 3.9, -1.891 a 8.983, 8.983, 0, 0, 0, 1.891, -3.9 c .366, -1.1, .732, -2.379, 1.281, -2.684 s 1.83, 0, 2.928, .244 a 8.982, 8.982, 0, 0, 0, 4.391, .3 a 8.66, 8.66, 0, 0, 0, 3.537, -2.379 c .854, -.793, 1.83, -1.708, 2.5, -1.708 s 1.647, .915, 2.5, 1.708 a 8.66, 8.66, 0, 0, 0, 3.537, 2.379 a 8.982, 8.982, 0, 0, 0, 4.391, -.3 c 1.037, -.244, 2.379, -.549, 2.928, -.244 s .915, 1.586, 1.281, 2.684 a 8.983, 8.983, 0, 0, 0, 1.891, 3.9 a 8.983, 8.983, 0, 0, 0, 3.9, 1.891 c 1.1, .3, 2.379, .732, 2.684, 1.281 c .3, .488, 0, 1.83, -.244, 2.928 a 8.983, 8.983, 0, 0, 0, -.3, 4.391 a 8.66, 8.66, 0, 0, 0, 2.379, 3.537 c .793, .854, 1.708, 1.83, 1.708, 2.5 s -.915, 1.647, -1.708, 2.5 a 8.66, 8.66, 0, 0, 0, -2.379, 3.537 a 8.983, 8.983, 0, 0, 0, .3, 4.391 c .244, 1.037, .549, 2.379, .244, 2.928 s -1.586, .915, -2.684, 1.281 a 8.983, 8.983, 0, 0, 0, -3.9, 1.891 a 8.983, 8.983, 0, 0, 0, -1.891, 3.9 c -.366, 1.1, -.732, 2.379, -1.281, 2.684 c -.488, .3, -1.83, 0, -2.928, -.244 a 8.983, 8.983, 0, 0, 0, -4.391, -.3 a 8.66, 8.66, 0, 0, 0, -3.537, 2.379 C 31.654, 55.745, 30.678, 56.66, 30.007, 56.66 Z M 45.743, 70.2 a 1.6, 1.6, 0, 0, 0, -1.647, .122 L 35.923, 75.75, 30.617, 59.892 a 8.136, 8.136, 0, 0, 0, 4.147, -2.5 A 6.386, 6.386, 0, 0, 1, 36.9, 55.806 a 6.981, 6.981, 0, 0, 1, 2.806, .3 c 1.708, .427, 3.659, .854, 5.306, -.122 A 4.249, 4.249, 0, 0, 0, 46.6, 54.281 L 55.074, 74.9 Z m 4.269, -40.193 a 20, 20, 0, 1, 0, -20, 20 A 20.016, 20.016, 0, 0, 0, 50.012, 30.007 Z m -20, 16.65 a 16.65, 16.65, 0, 1, 1, 16.65, -16.65 A 16.672, 16.672, 0, 0, 1, 30.007, 46.658 Z"
     transform="translate(4970 1643)"
     id="path8"
     style="fill:#c32a27;fill-opacity:1" />
  <path
     style="opacity:1;fill:#fadc64;fill-opacity:1;fill-rule:nonzero;stroke:none;stroke-width:5;stroke-linecap:round;stroke-linejoin:round;stroke-miterlimit:4;stroke-dasharray:none;stroke-dashoffset:0;stroke-opacity:1"
     d="m 28.578716,46.576067 c -2.176459,-0.178569 -4.183214,-0.740092 -6.097466,-1.706168 -1.705445,-0.860697 -3.007884,-1.820705 -4.349277,-3.205785 -2.386606,-2.464335 -3.947193,-5.546037 -4.528428,-8.942317 -0.859762,-5.02378 0.561889,-9.934668 3.985464,-13.767207 2.098511,-2.34919 4.878305,-4.124263 7.774034,-4.964211 3.699408,-1.073066 7.766365,-0.781861 11.366491,0.813871 4.648005,2.060198 8.004262,5.911259 9.312812,10.685776 0.952928,3.476958 0.744736,7.289309 -0.581975,10.656973 -0.976396,2.478437 -2.70973,4.864765 -4.822871,6.639776 -1.282373,1.077177 -3.304867,2.245494 -4.897503,2.8291 -2.26004,0.82817 -4.7315,1.159546 -7.161281,0.960192 z"
     id="path4163"
     inkscape:connector-curvature="0"
     transform="translate(4970,1643)" />
  <path
     style="opacity:1;fill:#003882;fill-opacity:1;fill-rule:nonzero;stroke:none;stroke-width:5;stroke-linecap:round;stroke-linejoin:round;stroke-miterlimit:4;stroke-dasharray:none;stroke-dashoffset:0;stroke-opacity:1"
     d="M 29.4,56.418796 C 28.981965,56.1938 28.247965,55.578777 27.025,54.428772 26.253177,53.702996 25.28139,53.070614 24.360689,52.694996 23.64637,52.403575 23.482809,52.384832 22.2125,52.448827 c -0.75625,0.0381 -1.825,0.185664 -2.375,0.327923 -0.55,0.142259 -1.478125,0.293519 -2.0625,0.336134 -0.964893,0.07036 -1.083419,0.05416 -1.290215,-0.17645 C 16.189126,52.606735 15.620988,51.204105 15.280719,49.963811 14.91401,48.627147 14.223669,47.353682 13.434451,46.558022 12.673111,45.790466 11.033964,44.95935 9.5441992,44.5855 8.2370591,44.257479 7.129248,43.684932 6.9105938,43.224382 6.7231095,42.829485 6.6933272,43.04762 7.4826445,39.034499 7.7442348,37.704496 7.6231442,36.326102 7.1568118,35.325491 6.664899,34.269991 6.3809132,33.876234 5.15,32.54297 3.8723962,31.159132 3.4,30.483522 3.4,30.040161 3.4,29.570131 3.9642559,28.738604 5.1084435,27.522477 6.2491801,26.310019 6.7848222,25.56714 7.2429137,24.562195 7.7085945,23.5406 7.7055382,21.544201 7.2354362,19.677625 7.0561408,18.96572 6.8720958,18.053131 6.8264472,17.64965 6.7457288,16.936195 6.7550388,16.904571 7.1654748,16.498064 7.5102435,16.156596 7.9617783,15.957987 9.6320493,15.413137 13.432042,14.173561 14.206292,13.383215 15.469138,9.4546998 15.955396,7.9420302 16.144512,7.5184412 16.487369,7.1740338 16.89513,6.7644287 16.9309,6.7537099 17.619839,6.834681 c 0.391275,0.045987 1.331565,0.2323968 2.089535,0.4142445 1.935848,0.4644382 3.810451,0.4641847 4.843322,-6.5e-4 0.999074,-0.4496297 1.742695,-0.9847671 2.960283,-2.1303287 1.21408,-1.142267 2.047576,-1.7084483 2.515064,-1.7084483 0.452087,0 1.202331,0.5306882 2.746957,1.9430718 1.696616,1.5513615 2.835149,2.1459327 4.3125,2.2521005 1.013744,0.072851 1.402689,0.019276 4.176624,-0.5753099 2.18664,-0.4687009 2.426234,-0.2907397 3.278975,2.4354974 1.239509,3.9627417 2.225907,4.9007967 6.465297,6.1484397 0.643994,0.189526 1.39687,0.508287 1.673062,0.708358 l 0.502165,0.363766 -0.06602,1.018288 c -0.03631,0.560059 -0.196326,1.496414 -0.355584,2.080789 -0.22853,0.838557 -0.290609,1.391826 -0.294537,2.625 l -0.005,1.5625 0.549868,1.040263 c 0.372242,0.704222 0.910882,1.431054 1.667428,2.25 1.244581,1.347237 1.791621,2.077723 1.910426,2.551082 0.122328,0.48739 -0.287926,1.151426 -1.552952,2.513611 -1.286972,1.385814 -1.759215,2.030005 -2.239747,3.055249 -0.308658,0.658542 -0.334606,0.837758 -0.329715,2.277295 0.0042,1.23927 0.06428,1.769366 0.290365,2.5625 0.156782,0.55 0.316734,1.459655 0.35545,2.021455 0.06713,0.974062 0.05581,1.03496 -0.243941,1.3125 -0.299394,0.277211 -1.438436,0.72657 -3.449314,1.360776 -1.084221,0.34195 -2.249043,1.002612 -2.879783,1.633354 -0.63577,0.635768 -1.313457,1.833986 -1.637264,2.894846 -0.595809,1.95199 -1.045593,3.098675 -1.340091,3.416444 -0.294979,0.318287 -0.349073,0.329608 -1.266933,0.265153 -0.527339,-0.03703 -1.436922,-0.19721 -2.021297,-0.355951 -0.836844,-0.227324 -1.394348,-0.28968 -2.625,-0.2936 -1.439165,-0.0046 -1.618922,0.02147 -2.277295,0.330046 -1.009418,0.473114 -1.71635,0.985077 -2.900874,2.100827 -1.718526,1.618743 -2.320983,1.915076 -3.071834,1.510947 z m 2.878279,-6.515904 c 2.409017,-0.299317 4.344239,-0.86158 6.434221,-1.86941 6.110028,-2.946372 10.341111,-8.867985 11.191845,-15.663546 0.210721,-1.683212 0.09605,-4.651474 -0.246031,-6.368622 C 48.441749,19.894554 44.484028,14.785237 38.848136,12.045655 33.214426,9.3071333 26.901119,9.2335257 21.46424,11.842974 c -2.053458,0.985563 -3.701406,2.185208 -5.573481,4.057283 -3.142421,3.14242 -4.959078,6.559518 -5.68679,10.696742 -0.2648044,1.505477 -0.3010262,4.654682 -0.07045,6.125 1.421585,9.065006 8.23083,15.917141 17.01648,17.123661 1.486661,0.204161 3.743065,0.229342 5.128279,0.05723 z"
     id="path4165"
     inkscape:connector-curvature="0"
     transform="translate(4970,1643)" />
  <path
     style="fill:#003882;fill-opacity:1"
     d="m 5000.0276,1643 c -1.234,0 -2.2976,0.5606 -3.2363,1.2813 l 0,0.062 c -0.5326,0.4142 -1.007,0.826 -1.4805,1.2402 -0.013,0.013 -0.028,0.026 -0.041,0.039 a 6.386,6.386 0 0 1 -2.1348,1.586 7.363,7.363 0 0 1 -0,0 6.889,6.889 0 0 1 -2.8046,-0.3007 c -1.706,-0.366 -3.6597,-0.855 -5.3067,0.1211 a 4.9,4.9 0 0 0 -0.2793,0.1933 4.9,4.9 0 0 0 -0.09,0.064 4.9,4.9 0 0 0 -0.3574,0.2988 4.9,4.9 0 0 0 -0.037,0.039 4.9,4.9 0 0 0 -0.3086,0.3144 c -0,0 -0,0 -0.01,0.01 -0.8733,1.0351 -1.2992,2.4276 -1.6621,3.6523 a 6,6 0 0 1 -0.877,2.1777 2.249,2.249 0 0 1 -0.02,0.033 2.249,2.249 0 0 1 -0.1777,0.252 6,6 0 0 1 -0.027,0.037 7.429,7.429 0 0 1 -0.01,0.01 2.249,2.249 0 0 1 -0.051,0.061 6,6 0 0 1 -2.5,1.0996 c -1.3442,0.3983 -2.8846,0.89 -3.9394,1.9492 -0.2158,0.2355 -0.4148,0.4887 -0.5742,0.7852 -0.976,1.647 -0.4871,3.6006 -0.1211,5.3066 a 6.889,6.889 0 0 1 0.2988,2.8047 6.386,6.386 0 0 1 -1.5801,2.1387 c -0.755,0.7532 -1.5433,1.5938 -2.0703,2.5527 -0.033,0.06 -0.073,0.1184 -0.1035,0.1797 -9e-4,0 -0,0 -0,0.01 -0.207,0.4143 -0.3639,0.8526 -0.4453,1.3144 -0.04,0.2286 -0.062,0.4639 -0.062,0.7051 0,0 0,0 0,0 0,7e-4 0,0 0,0 4e-4,0.2417 0.022,0.476 0.062,0.7051 0.081,0.4618 0.2383,0.8982 0.4453,1.3125 0.046,0.091 0.102,0.1782 0.1524,0.2675 0.5266,0.9253 1.2897,1.7407 2.0234,2.4727 a 6.386,6.386 0 0 1 1.5801,2.1367 6.889,6.889 0 0 1 -0.2988,2.8066 c -0.366,1.706 -0.8549,3.6597 0.1211,5.3067 0.155,0.2883 0.3481,0.5351 0.5566,0.7656 1.0552,1.0718 2.6052,1.5682 3.957,1.9688 a 6,6 0 0 1 2.5,1.0996 2.249,2.249 0 0 1 0.051,0.061 7.429,7.429 0 0 1 0.01,0.01 6,6 0 0 1 0.027,0.037 2.249,2.249 0 0 1 0.1777,0.2519 2.249,2.249 0 0 1 0.02,0.033 6,6 0 0 1 0.877,2.1778 c 0.3629,1.2247 0.7888,2.6171 1.6621,3.6523 a 4.9,4.9 0 0 0 0.01,0.01 4.9,4.9 0 0 0 0.3086,0.3144 4.9,4.9 0 0 0 0.037,0.039 4.9,4.9 0 0 0 0.3574,0.2988 4.9,4.9 0 0 0 0.074,0.053 4.9,4.9 0 0 0 0.2949,0.2031 c 1.647,0.976 3.6007,0.489 5.3067,0.123 a 6.889,6.889 0 0 1 0.01,-0 7.072,7.072 0 0 1 0.024,-0.01 6.889,6.889 0 0 1 2.7714,-0.2911 7.363,7.363 0 0 1 0,0 6.386,6.386 0 0 1 2.1348,1.5859 c 0.01,0.01 0.012,0.011 0.018,0.016 0.4812,0.421 0.9625,0.8426 1.5039,1.2636 l 0,0.062 c 0.9387,0.7206 2.0023,1.2813 3.2363,1.2813 0.2179,0 0.4273,-0.024 0.6348,-0.057 l -0.025,-0.072 a 8.136,8.136 0 0 0 2.8223,-1.3106 c 0.4462,-0.3588 0.8637,-0.7461 1.2578,-1.1211 a 8.136,8.136 0 0 0 0.066,-0.068 6.386,6.386 0 0 1 2.1367,-1.586 6.981,6.981 0 0 1 2.8047,0.2989 c 0.1923,0.048 0.396,0.089 0.5937,0.1347 1.0718,0.2278 2.2042,0.4298 3.2872,0.2539 0.4906,-0.085 0.97,-0.2397 1.4257,-0.5097 a 4.249,4.249 0 0 0 0.2403,-0.1621 c 0.049,-0.034 0.098,-0.068 0.1445,-0.1035 a 4.249,4.249 0 0 0 1.2031,-1.4375 l 0.018,0.041 c 0.5308,-0.8914 0.8575,-1.9231 1.1367,-2.9004 a 7.429,7.429 0 0 1 0.625,-1.6836 l -0.014,-0.031 a 3.517,3.517 0 0 1 0.4882,-0.8535 7.429,7.429 0 0 1 2.5,-1.0996 c 1.708,-0.488 3.6593,-1.1006 4.5743,-2.8066 0.7076,-1.1942 0.6431,-2.5484 0.416,-3.8535 -4e-4,-0 -0,-0 -0,-0.01 -0.085,-0.4467 -0.1906,-0.8875 -0.2969,-1.3125 a 7.072,7.072 0 0 1 -0.33,-2.1563 6.889,6.889 0 0 1 0,-0.01 6.889,6.889 0 0 1 0.033,-0.7735 6.386,6.386 0 0 1 1.582,-2.1367 c 1.2057,-1.266 2.585,-2.771 2.6172,-4.6894 -0.033,-1.9176 -1.4118,-3.4238 -2.6172,-4.6895 a 6.386,6.386 0 0 1 -1.582,-2.1348 6.889,6.889 0 0 1 -0.033,-0.7734 6.889,6.889 0 0 1 0,-0.01 7.072,7.072 0 0 1 0.33,-2.1582 c 0.1062,-0.4244 0.2123,-0.8625 0.2969,-1.3086 5e-4,-0 0,-0.01 0,-0.01 0.2271,-1.3052 0.2917,-2.6592 -0.416,-3.8535 -0.915,-1.706 -2.8663,-2.3186 -4.5743,-2.8066 a 7.429,7.429 0 0 1 -2.5,-1.0996 3.517,3.517 0 0 1 -0.4882,-0.8535 l 0.014,-0.031 a 7.429,7.429 0 0 1 -0.625,-1.6836 c -0.2792,-0.9771 -0.6061,-2.0091 -1.1367,-2.9004 l -0.018,0.041 a 4.249,4.249 0 0 0 -1.1914,-1.4316 c -0.051,-0.039 -0.1062,-0.076 -0.1601,-0.1133 a 4.249,4.249 0 0 0 -0.2364,-0.1582 c -0.4557,-0.27 -0.9351,-0.4248 -1.4257,-0.5098 -1.087,-0.1764 -2.2237,0.027 -3.2989,0.2559 -0.1937,0.045 -0.3935,0.084 -0.582,0.1309 a 6.981,6.981 0 0 1 -2.8047,0.3007 6.386,6.386 0 0 1 -2.1367,-1.5859 8.136,8.136 0 0 0 -0.086,-0.088 c -0.3886,-0.3695 -0.799,-0.7483 -1.2382,-1.1015 a 8.136,8.136 0 0 0 -2.8223,-1.3106 l 0.025,-0.072 c -0.2075,-0.033 -0.4169,-0.057 -0.6348,-0.057 z m -0,3.3555 c 0.5862,0 1.4042,0.7018 2.1718,1.4082 0.1096,0.1003 0.2217,0.2004 0.3282,0.2988 a 8.66,8.66 0 0 0 0,0 8.66,8.66 0 0 0 0.5449,0.5507 8.66,8.66 0 0 0 0.047,0.047 8.66,8.66 0 0 0 0.5195,0.4317 8.66,8.66 0 0 0 0.1523,0.1269 8.66,8.66 0 0 0 0.711,0.4785 8.66,8.66 0 0 0 0.7637,0.4102 8.66,8.66 0 0 0 0.7988,0.332 8.983,8.983 0 0 0 0.4277,0.057 8.982,8.982 0 0 0 0.4375,0.057 8.983,8.983 0 0 0 0.877,0.029 8.983,8.983 0 0 0 0.7929,-0.053 8.982,8.982 0 0 0 0.1036,-0.01 8.983,8.983 0 0 0 0.01,-0 8.983,8.983 0 0 0 0.7929,-0.1328 8.982,8.982 0 0 0 0.086,-0.014 8.983,8.983 0 0 0 0,-0 8.983,8.983 0 0 0 0.8613,-0.2324 c 0.7869,-0.1852 1.7479,-0.405 2.4063,-0.3672 0.2169,0.01 0.3972,0.047 0.5214,0.123 0.1373,0.076 0.2637,0.2126 0.3809,0.3926 3e-4,5e-4 -3e-4,0 0,0 0.1169,0.1797 0.2254,0.4013 0.3281,0.6484 0.2062,0.496 0.3891,1.091 0.5723,1.6406 a 8.983,8.983 0 0 0 0.2109,0.8047 8.983,8.983 0 0 0 0.2071,0.5703 8.983,8.983 0 0 0 0.096,0.2559 8.983,8.983 0 0 0 0.2558,0.5391 8.983,8.983 0 0 0 0.1407,0.2832 8.983,8.983 0 0 0 0.2734,0.4531 8.983,8.983 0 0 0 0.1973,0.3125 8.983,8.983 0 0 0 0.5097,0.6816 8.983,8.983 0 0 0 0.6582,0.4942 8.983,8.983 0 0 0 0.4473,0.2812 8.983,8.983 0 0 0 0.332,0.2012 8.983,8.983 0 0 0 0.4082,0.2012 8.983,8.983 0 0 0 0.3985,0.1894 8.983,8.983 0 0 0 0.4961,0.1856 8.983,8.983 0 0 0 0.33,0.1191 8.983,8.983 0 0 0 0.8301,0.2187 c 0.9633,0.2628 2.0639,0.6289 2.5274,1.084 0.066,0.063 0.1181,0.1287 0.1562,0.1973 0.04,0.065 0.068,0.1473 0.088,0.2402 0.018,0.084 0.031,0.1786 0.035,0.2813 0.038,0.6584 -0.1821,1.6193 -0.3672,2.4062 a 8.983,8.983 0 0 0 -0.2286,0.8457 8.983,8.983 0 0 0 -0.076,0.4453 8.983,8.983 0 0 0 -0.074,0.4375 8.983,8.983 0 0 0 -0.029,0.4141 8.983,8.983 0 0 0 -0.033,0.4922 8.983,8.983 0 0 0 0.012,0.334 8.983,8.983 0 0 0 0.019,0.5547 8.983,8.983 0 0 0 0.1113,0.8672 8.983,8.983 0 0 0 0,0 8.66,8.66 0 0 0 0.1582,0.3828 8.66,8.66 0 0 0 0.168,0.4024 8.66,8.66 0 0 0 0.2402,0.4511 8.66,8.66 0 0 0 0.17,0.3145 8.66,8.66 0 0 0 0.1718,0.2559 8.66,8.66 0 0 0 0.3164,0.4687 8.66,8.66 0 0 0 0,0 8.66,8.66 0 0 0 0.5371,0.6465 8.66,8.66 0 0 0 0.6152,0.6094 c 4e-4,3e-4 -3e-4,0 0,0 0.198,0.2129 0.4046,0.4327 0.6016,0.6543 3e-4,4e-4 -3e-4,0 0,0 0.1969,0.2216 0.3852,0.4432 0.5488,0.6601 3e-4,4e-4 -3e-4,0 0,0 0.3273,0.4341 0.5567,0.845 0.5567,1.1797 0,0.1675 -0.056,0.3536 -0.1543,0.5527 -3e-4,6e-4 3e-4,0 0,0 -0.1965,0.3977 -0.557,0.8454 -0.9512,1.289 -3e-4,4e-4 3e-4,0 0,0 -0.197,0.2217 -0.4036,0.4411 -0.6016,0.6543 -3e-4,3e-4 4e-4,0 0,0 a 8.66,8.66 0 0 0 -0.6093,0.6016 8.66,8.66 0 0 0 -0.3594,0.4336 8.66,8.66 0 0 0 -0.1856,0.2246 8.66,8.66 0 0 0 -0.2363,0.3496 8.66,8.66 0 0 0 -0.2578,0.3828 8.66,8.66 0 0 0 -0.037,0.072 8.66,8.66 0 0 0 -0.3672,0.6855 8.66,8.66 0 0 0 -0.168,0.4024 8.66,8.66 0 0 0 -0.1582,0.3828 8.66,8.66 0 0 0 0,0 8.983,8.983 0 0 0 -0.1113,0.8633 8.983,8.983 0 0 0 -0.019,0.5547 8.983,8.983 0 0 0 -0.012,0.3379 8.983,8.983 0 0 0 0.033,0.5 8.983,8.983 0 0 0 0.029,0.4062 8.983,8.983 0 0 0 0.074,0.4375 8.983,8.983 0 0 0 0.076,0.4454 8.983,8.983 0 0 0 0.2286,0.8437 8.983,8.983 0 0 0 0,0 c 0,0.011 0.01,0.024 0.01,0.035 0.1834,0.7806 0.3966,1.722 0.3594,2.3711 -0,0.1033 -0.017,0.1969 -0.035,0.2813 -0.017,0.08 -0.044,0.1474 -0.076,0.207 -0,0.01 -0.01,0.023 -0.012,0.031 -3e-4,5e-4 3e-4,0 0,0 -0.019,0.034 -0.052,0.065 -0.078,0.098 -0.026,0.033 -0.045,0.068 -0.078,0.1 -0.458,0.4497 -1.5372,0.8102 -2.4922,1.0722 -0.012,0 -0.023,0.01 -0.035,0.012 a 8.983,8.983 0 0 0 -0.8301,0.2188 8.983,8.983 0 0 0 -0.33,0.1191 8.983,8.983 0 0 0 -0.4961,0.1856 8.983,8.983 0 0 0 -0.3985,0.1894 8.983,8.983 0 0 0 -0.4082,0.2012 8.983,8.983 0 0 0 -0.332,0.2012 8.983,8.983 0 0 0 -0.4492,0.2812 8.983,8.983 0 0 0 -0.4473,0.336 8.983,8.983 0 0 0 -0.209,0.1582 8.983,8.983 0 0 0 -0.5039,0.6699 8.983,8.983 0 0 0 -0.2441,0.3926 8.983,8.983 0 0 0 -0.2266,0.373 8.983,8.983 0 0 0 -0.1719,0.3457 8.983,8.983 0 0 0 -0.2285,0.4785 8.983,8.983 0 0 0 -0.1133,0.3047 8.983,8.983 0 0 0 -0.1914,0.5313 8.983,8.983 0 0 0 -0.1894,0.7246 8.983,8.983 0 0 0 -0.021,0.078 c -0.183,0.549 -0.3664,1.145 -0.5723,1.6406 -2e-4,6e-4 2e-4,0 0,0 -0.1027,0.2471 -0.2111,0.4687 -0.3281,0.6484 -3e-4,4e-4 3e-4,0 0,0 -0.058,0.09 -0.1187,0.1683 -0.1816,0.2343 -0.063,0.066 -0.1306,0.1201 -0.1993,0.1582 -0.1259,0.077 -0.3104,0.1124 -0.5312,0.1211 -0.6581,0.035 -1.6137,-0.181 -2.3965,-0.3652 a 8.983,8.983 0 0 0 -0.8418,-0.2305 8.982,8.982 0 0 0 -0.5176,-0.088 8.983,8.983 0 0 0 -0.3652,-0.062 8.982,8.982 0 0 0 -0.4297,-0.029 8.983,8.983 0 0 0 -0.4805,-0.033 8.982,8.982 0 0 0 -0.3281,0.012 8.983,8.983 0 0 0 -0.5625,0.019 8.982,8.982 0 0 0 -0.8652,0.1113 8.66,8.66 0 0 0 -0.793,0.3301 8.66,8.66 0 0 0 -0.2695,0.1445 8.66,8.66 0 0 0 -0.4903,0.2618 8.66,8.66 0 0 0 -0.3144,0.2128 8.66,8.66 0 0 0 -0.4063,0.2735 8.66,8.66 0 0 0 -0.3007,0.248 8.66,8.66 0 0 0 -0.3594,0.2989 8.66,8.66 0 0 0 -0.6035,0.6093 c -0.853,0.793 -1.83,1.7071 -2.5,1.7071 -0.67,0 -1.646,-0.9141 -2.5,-1.7071 a 8.66,8.66 0 0 0 -3.5371,-2.3789 8.982,8.982 0 0 0 -2.043,-0.123 13.242,13.242 0 0 0 -2.3477,0.4238 c -0.7811,0.1838 -1.7346,0.401 -2.3925,0.3672 -0.1074,-0.01 -0.2073,-0.017 -0.2969,-0.037 -0.09,-0.02 -0.1703,-0.048 -0.2383,-0.086 -0.069,-0.038 -0.134,-0.092 -0.1973,-0.1582 -0.4425,-0.4638 -0.7639,-1.5633 -1.0839,-2.5253 a 8.983,8.983 0 0 0 0,-0 8.983,8.983 0 0 0 -0.2149,-0.8105 8.983,8.983 0 0 0 -0.1426,-0.3985 8.983,8.983 0 0 0 -0.1699,-0.4551 8.983,8.983 0 0 0 -0.1465,-0.3086 8.983,8.983 0 0 0 -0.25,-0.5058 8.983,8.983 0 0 0 -0.1816,-0.2988 8.983,8.983 0 0 0 -0.2813,-0.4512 8.983,8.983 0 0 0 -0.4082,-0.5449 8.983,8.983 0 0 0 -0.096,-0.125 8.983,8.983 0 0 0 -0.6953,-0.5215 8.983,8.983 0 0 0 -0.25,-0.1563 8.983,8.983 0 0 0 -0.4922,-0.2988 8.983,8.983 0 0 0 -0.4082,-0.2012 8.983,8.983 0 0 0 -0.3984,-0.1894 8.983,8.983 0 0 0 -0.3613,-0.1367 8.983,8.983 0 0 0 -0.5039,-0.1797 8.983,8.983 0 0 0 -0.4883,-0.1289 8.983,8.983 0 0 0 -0.3028,-0.078 c -0.9633,-0.2627 -2.0619,-0.6288 -2.5254,-1.0839 -0.066,-0.063 -0.1201,-0.1291 -0.1582,-0.1973 -2e-4,-5e-4 3e-4,-0 0,-0 -0.04,-0.065 -0.068,-0.1472 -0.088,-0.2402 -0.018,-0.084 -0.031,-0.1787 -0.035,-0.2812 -0.038,-0.6579 0.1821,-1.6178 0.3672,-2.4043 a 8.982,8.982 0 0 0 0,-0 8.982,8.982 0 0 0 0.051,-0.1836 8.982,8.982 0 0 0 0.1777,-0.6582 8.982,8.982 0 0 0 0.062,-0.3672 8.982,8.982 0 0 0 0.09,-0.5312 8.982,8.982 0 0 0 0,-0.01 8.982,8.982 0 0 0 0.014,-0.209 8.982,8.982 0 0 0 0.045,-0.6738 8.982,8.982 0 0 0 -0.01,-0.293 8.982,8.982 0 0 0 -0.02,-0.5996 8.982,8.982 0 0 0 -0.1,-0.7539 8.982,8.982 0 0 0 -0.014,-0.1094 8.66,8.66 0 0 0 0,-0 8.66,8.66 0 0 0 -0.3301,-0.793 8.66,8.66 0 0 0 -0,-0.01 8.66,8.66 0 0 0 -0.068,-0.1269 8.66,8.66 0 0 0 -0.3418,-0.6348 8.66,8.66 0 0 0 -0.4785,-0.7129 8.66,8.66 0 0 0 -0,-0.01 8.66,8.66 0 0 0 -0.1426,-0.1699 8.66,8.66 0 0 0 -0.4121,-0.4942 8.66,8.66 0 0 0 -0.043,-0.041 8.66,8.66 0 0 0 -0.5566,-0.5508 c -3e-4,-3e-4 3e-4,-0 0,-0 -0.5943,-0.6393 -1.2579,-1.3482 -1.5527,-1.9453 -3e-4,-6e-4 3e-4,-0 0,-0 -0.098,-0.1991 -0.1543,-0.3852 -0.1543,-0.5527 0,-0.3347 0.2293,-0.7458 0.5566,-1.1797 3e-4,-4e-4 -3e-4,-0 0,-0 0.1637,-0.2168 0.3519,-0.4385 0.5488,-0.6601 4e-4,-4e-4 -3e-4,-0 0,-0 0.197,-0.2217 0.4037,-0.4411 0.6016,-0.6543 3e-4,-3e-4 -3e-4,-0 0,-0 a 8.66,8.66 0 0 0 0.5566,-0.5508 8.66,8.66 0 0 0 0.043,-0.041 8.66,8.66 0 0 0 0.418,-0.5039 8.66,8.66 0 0 0 0.1367,-0.1621 8.66,8.66 0 0 0 0,-0.01 8.66,8.66 0 0 0 0.4785,-0.7109 8.66,8.66 0 0 0 0.2715,-0.5059 8.66,8.66 0 0 0 0.1445,-0.2695 8.66,8.66 0 0 0 0,-0.01 8.66,8.66 0 0 0 0.3223,-0.7774 8.982,8.982 0 0 0 0,-0 8.982,8.982 0 0 0 0.014,-0.1094 8.982,8.982 0 0 0 0.1,-0.7539 8.982,8.982 0 0 0 0.02,-0.5918 8.982,8.982 0 0 0 0.01,-0.3008 8.982,8.982 0 0 0 -0.045,-0.6816 8.982,8.982 0 0 0 -0.014,-0.2012 8.982,8.982 0 0 0 -0,-0.01 8.982,8.982 0 0 0 -0.09,-0.5312 8.982,8.982 0 0 0 -0.062,-0.3672 8.982,8.982 0 0 0 -0.2285,-0.8438 c -0.1854,-0.7877 -0.4056,-1.7478 -0.3672,-2.4062 0,-0.1026 0.017,-0.1953 0.035,-0.2793 0.02,-0.094 0.048,-0.1767 0.088,-0.2422 0.305,-0.549 1.5836,-0.9813 2.6836,-1.2813 a 8.983,8.983 0 0 0 0.8106,-0.2128 8.983,8.983 0 0 0 0.418,-0.1504 8.983,8.983 0 0 0 0.4277,-0.1602 8.983,8.983 0 0 0 0.3984,-0.1894 8.983,8.983 0 0 0 0.4082,-0.2012 8.983,8.983 0 0 0 0.4922,-0.2988 8.983,8.983 0 0 0 0.25,-0.1563 8.983,8.983 0 0 0 0.6953,-0.5215 8.983,8.983 0 0 0 0.5039,-0.6699 8.983,8.983 0 0 0 0.2813,-0.4512 8.983,8.983 0 0 0 0.1816,-0.2988 8.983,8.983 0 0 0 0.25,-0.5059 8.983,8.983 0 0 0 0.1465,-0.3086 8.983,8.983 0 0 0 0.1641,-0.4355 8.983,8.983 0 0 0 0.1504,-0.4238 8.983,8.983 0 0 0 0.2129,-0.8067 c 0.2742,-0.8228 0.549,-1.7484 0.9003,-2.289 3e-4,-5e-4 -3e-4,-0 0,-0 0.1173,-0.1801 0.2437,-0.3163 0.3809,-0.3926 0.068,-0.038 0.1481,-0.066 0.2383,-0.086 0.058,-0.013 0.1258,-0.019 0.1914,-0.025 0.038,-0 0.073,-0.012 0.1133,-0.014 0.6576,-0.031 1.607,0.1862 2.3847,0.3692 a 13.242,13.242 0 0 0 2.3848,0.4258 8.982,8.982 0 0 0 2.0059,-0.125 8.66,8.66 0 0 0 3.5371,-2.3789 c 0.854,-0.793 1.83,-1.709 2.5,-1.709 z m -0.3242,6.666 a 20,20 0 0 0 -1.5137,0.094 20,20 0 0 0 -0.4785,0.039 20,20 0 0 0 -1.4844,0.2422 20,20 0 0 0 -0.4883,0.088 20,20 0 0 0 -1.4883,0.4004 20,20 0 0 0 -0.4316,0.123 20,20 0 0 0 -1.4512,0.5508 20,20 0 0 0 -0.418,0.166 20,20 0 0 0 -1.3164,0.6563 20,20 0 0 0 -0.4843,0.2519 20,20 0 0 0 -1.1778,0.7422 20,20 0 0 0 -0.5156,0.3379 20,20 0 0 0 -1.1113,0.8672 20,20 0 0 0 -0.4512,0.3633 20,20 0 0 0 -1.0019,0.957 20,20 0 0 0 -0.4454,0.4394 20,20 0 0 0 -0.9121,1.0645 20,20 0 0 0 -0.3711,0.4492 20,20 0 0 0 -0.7793,1.1192 20,20 0 0 0 -0.3671,0.5468 20,20 0 0 0 -0.6133,1.0996 20,20 0 0 0 -0.3535,0.6582 20,20 0 0 0 -0.4864,1.125 20,20 0 0 0 -0.2988,0.7247 20,20 0 0 0 -0.3359,1.0507 20,20 0 0 0 -0.2637,0.8828 20,20 0 0 0 -0.207,0.9747 20,20 0 0 0 -0.1914,0.9921 20,20 0 0 0 -0.1094,1.0098 20,20 0 0 0 -0.09,0.9629 20,20 0 0 0 -0.01,1.0098 20,20 0 0 0 0.01,1.0117 20,20 0 0 0 0.088,0.9551 20,20 0 0 0 0.1114,1.0175 20,20 0 0 0 0.1894,0.9825 20,20 0 0 0 0.209,0.9882 20,20 0 0 0 0.2637,0.875 20,20 0 0 0 0.3339,1.0469 20,20 0 0 0 0.3086,0.752 20,20 0 0 0 0.4786,1.1054 20,20 0 0 0 0.3535,0.6582 20,20 0 0 0 0.6133,1.0997 20,20 0 0 0 0.3671,0.5468 20,20 0 0 0 0.7793,1.1192 20,20 0 0 0 0.3594,0.4336 20,20 0 0 0 0.9356,1.0898 20,20 0 0 0 0.3886,0.3867 20,20 0 0 0 1.0489,1 20,20 0 0 0 0.4492,0.3633 20,20 0 0 0 1.1094,0.8652 20,20 0 0 0 0.5527,0.3633 20,20 0 0 0 1.125,0.7071 20,20 0 0 0 0.5898,0.3066 20,20 0 0 0 1.209,0.6035 20,20 0 0 0 0.5391,0.2129 20,20 0 0 0 1.3281,0.5039 20,20 0 0 0 0.5391,0.1563 20,20 0 0 0 1.4043,0.375 20,20 0 0 0 0.4687,0.086 20,20 0 0 0 1.5039,0.2461 20,20 0 0 0 0.4766,0.039 20,20 0 0 0 1.5137,0.094 20,20 0 0 0 0.791,-0.016 20.016,20.016 0 0 0 1.3593,-0.068 20,20 0 0 0 0.5977,-0.074 20.016,20.016 0 0 0 1.3906,-0.2109 20,20 0 0 0 0.541,-0.1211 20.016,20.016 0 0 0 1.4336,-0.3692 20,20 0 0 0 0.4239,-0.1406 20.016,20.016 0 0 0 1.4687,-0.5371 20,20 0 0 0 0.3789,-0.1699 20.016,20.016 0 0 0 1.4297,-0.6914 20,20 0 0 0 0.3516,-0.2012 20.016,20.016 0 0 0 1.3574,-0.834 20,20 0 0 0 0.3418,-0.2441 20.016,20.016 0 0 0 1.25,-0.9532 20,20 0 0 0 0.332,-0.291 20.016,20.016 0 0 0 1.1289,-1.0527 20,20 0 0 0 0.3301,-0.3535 20.016,20.016 0 0 0 1,-1.1406 20,20 0 0 0 0.2969,-0.3907 20.016,20.016 0 0 0 0.8691,-1.2168 20,20 0 0 0 0.2832,-0.4609 20.016,20.016 0 0 0 0.7149,-1.2481 20,20 0 0 0 0.2617,-0.5429 20.016,20.016 0 0 0 0.5625,-1.2578 20,20 0 0 0 0.2305,-0.6348 20.016,20.016 0 0 0 0.4082,-1.2344 20,20 0 0 0 0.1855,-0.7226 20.016,20.016 0 0 0 0.2695,-1.209 20,20 0 0 0 0.1211,-0.8028 20.016,20.016 0 0 0 0.1387,-1.1406 20,20 0 0 0 0.082,-1.6426 20.016,20.016 0 0 0 0,-0.019 20.016,20.016 0 0 0 0,-0.014 20,20 0 0 0 -0.082,-1.6425 20.016,20.016 0 0 0 -0.1387,-1.1465 20,20 0 0 0 -0.1211,-0.7969 20.016,20.016 0 0 0 -0.2714,-1.2168 20,20 0 0 0 -0.1817,-0.7109 20.016,20.016 0 0 0 -0.4082,-1.2344 20,20 0 0 0 -0.2363,-0.6465 20.016,20.016 0 0 0 -0.5625,-1.2578 20,20 0 0 0 -0.2539,-0.5254 20.016,20.016 0 0 0 -0.7266,-1.2715 20,20 0 0 0 -0.2734,-0.4453 20.016,20.016 0 0 0 -0.8535,-1.1953 20,20 0 0 0 -0.3243,-0.4277 20.016,20.016 0 0 0 -0.9843,-1.1211 20,20 0 0 0 -0.336,-0.3594 20.016,20.016 0 0 0 -1.1191,-1.0449 20,20 0 0 0 -0.3457,-0.3028 20.016,20.016 0 0 0 -1.2598,-0.9589 20,20 0 0 0 -0.3242,-0.2325 20.016,20.016 0 0 0 -1.3613,-0.8359 20,20 0 0 0 -0.3535,-0.2031 20.016,20.016 0 0 0 -1.3829,-0.67 20,20 0 0 0 -0.4472,-0.1992 20.016,20.016 0 0 0 -1.3867,-0.5078 20,20 0 0 0 -0.5059,-0.168 20.016,20.016 0 0 0 -1.3984,-0.3593 20,20 0 0 0 -0.5528,-0.1231 20.016,20.016 0 0 0 -1.3906,-0.2109 20,20 0 0 0 -0.5977,-0.074 20.016,20.016 0 0 0 -1.3593,-0.068 20,20 0 0 0 -0.791,-0.016 z m 0.3261,3.3418 0,0 0,0 a 16.672,16.672 0 0 1 0.5157,0.018 16.65,16.65 0 0 1 0.6152,0.021 16.672,16.672 0 0 1 0.01,0 16.65,16.65 0 0 1 0.041,0.01 16.65,16.65 0 0 1 1.6132,0.1934 16.65,16.65 0 0 1 12.5333,9.9179 16.672,16.672 0 0 1 0,0 16.65,16.65 0 0 1 0.016,0.041 16.65,16.65 0 0 1 0.545,1.4863 16.672,16.672 0 0 1 0.092,0.3379 16.65,16.65 0 0 1 0.3203,1.2558 16.672,16.672 0 0 1 0.082,0.5 16.65,16.65 0 0 1 0.1719,1.1328 16.672,16.672 0 0 1 0.043,0.6797 16.65,16.65 0 0 1 0.055,1.0508 16.672,16.672 0 0 1 0,0.01 16.65,16.65 0 0 1 -0.055,1.0508 16.672,16.672 0 0 1 -0.043,0.6796 16.65,16.65 0 0 1 -0.1719,1.1329 16.672,16.672 0 0 1 -0.082,0.5 16.65,16.65 0 0 1 -0.3203,1.2558 16.672,16.672 0 0 1 -0.092,0.3379 16.65,16.65 0 0 1 -0.545,1.4863 16.672,16.672 0 0 1 -0.016,0.041 16.65,16.65 0 0 1 -0,0 16.65,16.65 0 0 1 -12.5333,9.9179 16.65,16.65 0 0 1 -1.6308,0.1953 16.672,16.672 0 0 1 -0.023,0 16.65,16.65 0 0 1 -0,0 16.65,16.65 0 0 1 -0.5996,0.022 16.672,16.672 0 0 1 -0.5371,0.02 l 0,-0 a 16.65,16.65 0 0 1 -0.2109,-0.01 16.65,16.65 0 0 1 -1.1445,-0.057 16.65,16.65 0 0 1 -0.5235,-0.049 16.65,16.65 0 0 1 -1.1308,-0.1719 16.65,16.65 0 0 1 -0.5118,-0.1 16.65,16.65 0 0 1 -1.0585,-0.2695 16.65,16.65 0 0 1 -0.5743,-0.1719 16.65,16.65 0 0 1 -1.0156,-0.3711 16.65,16.65 0 0 1 -0.5293,-0.2187 16.65,16.65 0 0 1 -0.9629,-0.4649 16.65,16.65 0 0 1 -0.5351,-0.2851 16.65,16.65 0 0 1 -0.9239,-0.5684 16.65,16.65 0 0 1 -0.4609,-0.3086 16.65,16.65 0 0 1 -0.8574,-0.6504 16.65,16.65 0 0 1 -0.4844,-0.4023 16.65,16.65 0 0 1 -0.7441,-0.6934 16.65,16.65 0 0 1 -0.4493,-0.457 16.65,16.65 0 0 1 -0.6621,-0.7519 16.65,16.65 0 0 1 -0.4316,-0.5333 16.65,16.65 0 0 1 -0.5684,-0.7949 16.65,16.65 0 0 1 -0.3652,-0.5586 16.65,16.65 0 0 1 -0.502,-0.8769 16.65,16.65 0 0 1 -0.3066,-0.5918 16.65,16.65 0 0 1 -0.3906,-0.8731 16.65,16.65 0 0 1 -0.2676,-0.6699 16.65,16.65 0 0 1 -0.2949,-0.8867 16.65,16.65 0 0 1 -0.2051,-0.7109 16.65,16.65 0 0 1 -0.1973,-0.877 16.65,16.65 0 0 1 -0.1386,-0.7637 16.65,16.65 0 0 1 -0.1055,-0.8808 16.65,16.65 0 0 1 -0.062,-0.7813 16.65,16.65 0 0 1 -0.018,-0.8457 16.65,16.65 0 0 1 0.018,-0.8476 16.65,16.65 0 0 1 0.062,-0.7813 16.65,16.65 0 0 1 0.1055,-0.8808 16.65,16.65 0 0 1 0.1386,-0.7637 16.65,16.65 0 0 1 0.1973,-0.877 16.65,16.65 0 0 1 0.2051,-0.7109 16.65,16.65 0 0 1 0.2949,-0.8867 16.65,16.65 0 0 1 0.2695,-0.6739 16.65,16.65 0 0 1 0.3828,-0.8593 16.65,16.65 0 0 1 0.3204,-0.6172 16.65,16.65 0 0 1 0.4941,-0.8594 16.65,16.65 0 0 1 0.3652,-0.5605 16.65,16.65 0 0 1 0.5684,-0.795 16.65,16.65 0 0 1 0.4316,-0.5332 16.65,16.65 0 0 1 0.6661,-0.7578 16.65,16.65 0 0 1 0.4296,-0.4355 16.65,16.65 0 0 1 0.7735,-0.7227 16.65,16.65 0 0 1 0.4668,-0.3847 16.65,16.65 0 0 1 0.8437,-0.6407 16.65,16.65 0 0 1 0.5059,-0.3398 16.65,16.65 0 0 1 0.8926,-0.5488 16.65,16.65 0 0 1 0.5468,-0.2911 16.65,16.65 0 0 1 0.9395,-0.455 16.65,16.65 0 0 1 0.5527,-0.2286 16.65,16.65 0 0 1 1.0332,-0.3769 16.65,16.65 0 0 1 0.5137,-0.1543 16.65,16.65 0 0 1 1.0879,-0.2773 16.65,16.65 0 0 1 0.5371,-0.1036 16.65,16.65 0 0 1 1.1074,-0.1679 16.65,16.65 0 0 1 0.5371,-0.049 16.65,16.65 0 0 1 1.1133,-0.057 16.65,16.65 0 0 1 0.2285,-0.012 z"
     id="path4216"
     inkscape:connector-curvature="0" />
</svg>
