<?xml version="1.0" encoding="UTF-8" standalone="no"?>
<svg
   xmlns:dc="http://purl.org/dc/elements/1.1/"
   xmlns:cc="http://creativecommons.org/ns#"
   xmlns:rdf="http://www.w3.org/1999/02/22-rdf-syntax-ns#"
   xmlns:svg="http://www.w3.org/2000/svg"
   xmlns="http://www.w3.org/2000/svg"
   xmlns:sodipodi="http://sodipodi.sourceforge.net/DTD/sodipodi-0.dtd"
   xmlns:inkscape="http://www.inkscape.org/namespaces/inkscape"
   viewBox="4970 1643 60 80.019"
   id="svg2"
   version="1.1"
   inkscape:version="0.91 r13725"
   sodipodi:docname="award-ribbon-stretch.svg"
   inkscape:export-filename="/Users/jeffpiazza/Cub Scouts/Pinewood Derby/Software Development/derbynet/website/img/award-ribbon-27x36.png"
   inkscape:export-xdpi="40.5"
   inkscape:export-ydpi="40.5">
  <metadata
     id="metadata12">
    <rdf:RDF>
      <cc:Work
         rdf:about="">
        <dc:format>image/svg+xml</dc:format>
        <dc:type
           rdf:resource="http://purl.org/dc/dcmitype/StillImage" />
      </cc:Work>
    </rdf:RDF>
  </metadata>
  <sodipodi:namedview
     pagecolor="#ffffff"
     bordercolor="#666666"
     borderopacity="1"
     objecttolerance="10"
     gridtolerance="10"
     guidetolerance="10"
     inkscape:pageopacity="0"
     inkscape:pageshadow="2"
     inkscape:window-width="1730"
     inkscape:window-height="1153"
     id="namedview10"
     showgrid="false"
     inkscape:zoom="1"
     inkscape:cx="30"
     inkscape:cy="50.009499"
     inkscape:window-x="0"
     inkscape:window-y="0"
     inkscape:window-maximized="0"
     inkscape:current-layer="svg2" />
  <defs
     id="defs4">
    <style
       id="style6">.a{fill:#c32a27;}</style>
  </defs>
  <path
     class="a"
     d=" M 48.365, 49.707 a 3.517, 3.517, 0, 0, 1, .488, -.854 a 7.429, 7.429, 0, 0, 1, 2.5, -1.1 c 1.708, -.488, 3.659, -1.1, 4.574, -2.806 c .976, -1.647, .488, -3.6, .122, -5.306 a 6.889, 6.889, 0, 0, 1, -.3, -2.806 A 6.386, 6.386, 0, 0, 1, 57.331, 34.7 c 1.22, -1.281, 2.623, -2.806, 2.623, -4.757 s -1.4, -3.476, -2.623, -4.757 a 6.386, 6.386, 0, 0, 1, -1.586, -2.135 a 7.072, 7.072, 0, 0, 1, .3, -2.806 c .427, -1.708, .854, -3.659, -.122, -5.306 S 53, 12.686, 51.354, 12.2 a 6, 6, 0, 0, 1, -2.5, -1.1 a 7.429, 7.429, 0, 0, 1, -1.1, -2.5 c -.488, -1.708, -1.1, -3.6, -2.745, -4.574 s -3.6, -.488, -5.306, -.122 a 6.889, 6.889, 0, 0, 1, -2.806, .3 a 7.363, 7.363, 0, 0, 1, -2.135, -1.586 C 33.484, 1.4, 31.959, 0, 30.007, 0 S 26.531, 1.4, 25.25, 2.623 a 6.386, 6.386, 0, 0, 1, -2.135, 1.586 a 7.072, 7.072, 0, 0, 1, -2.806, -.3 C 18.6, 3.476, 16.65, 3.05, 15, 4.025 S 12.747, 6.953, 12.259, 8.6 a 6, 6, 0, 0, 1, -1.1, 2.5 a 7.429, 7.429, 0, 0, 1, -2.5, 1.1 C 6.953, 12.686, 5, 13.3, 4.086, 15 c -.976, 1.647, -.488, 3.6, -.122, 5.306 a 6.889, 6.889, 0, 0, 1, .3, 2.806 A 6.386, 6.386, 0, 0, 1, 2.684, 25.25 C 1.4, 26.531, 0, 28.056, 0, 30.007 s 1.4, 3.476, 2.623, 4.757 A 6.386, 6.386, 0, 0, 1, 4.208, 36.9 A 7.072, 7.072, 0, 0, 1, 3.9, 39.7 c -.427, 1.708, -.854, 3.659, .122, 5.306 S 6.953, 47.267, 8.6, 47.755 a 6, 6, 0, 0, 1, 2.5, 1.1 a 2.249, 2.249, 0, 0, 1, .488, .854 L .122, 77.7 a 1.576, 1.576, 0, 0, 0, .427, 1.83 a 1.61, 1.61, 0, 0, 0, 1.159, .427 a 1.624, 1.624, 0, 0, 0, .732, -.183 l 12.442, -6.221, 9.21, 6.16 a 1.567, 1.567, 0, 0, 0, 1.464, .183 a 1.819, 1.819, 0, 0, 0, 1.037, -.976 l 3.659, -9.7, 3.232, 9.636 A 1.743, 1.743, 0, 0, 0, 34.52, 79.9 a 1.567, 1.567, 0, 0, 0, 1.464, -.183 l 9.149, -6.1, 12.442, 6.221 a 1.624, 1.624, 0, 0, 0, .732, .183 a 2.08, 2.08, 0, 0, 0, 1.159, -.427 a 1.728, 1.728, 0, 0, 0, .427, -1.83 Z m -19.944, 14.7 L 24.152, 75.75 l -8.234, -5.489 a 1.762, 1.762, 0, 0, 0, -1.647, -.122 L 4.879, 74.9 l 8.478, -20.615 A 4.9, 4.9, 0, 0, 0, 15, 55.989 c 1.647, .976, 3.6, .488, 5.306, .122 a 6.889, 6.889, 0, 0, 1, 2.806, -.3 a 7.363, 7.363, 0, 0, 1, 2.135, 1.586 c .488, .427, .976, .854, 1.525, 1.281 v .183 l 1.769, 5.367 C 28.543, 64.345, 28.482, 64.345, 28.421, 64.406 Z m 1.586, -7.746 c -.671, 0, -1.647, -.915, -2.5, -1.708 a 8.66, 8.66, 0, 0, 0, -3.537, -2.379 a 5.08, 5.08, 0, 0, 0, -1.342, -.183 a 13.242, 13.242, 0, 0, 0, -3.05, .488 c -1.037, .244, -2.379, .549, -2.928, .244 s -.915, -1.586, -1.281, -2.684 a 8.983, 8.983, 0, 0, 0, -1.891, -3.9 a 8.983, 8.983, 0, 0, 0, -3.9, -1.891 c -1.1, -.3, -2.379, -.732, -2.684, -1.281 c -.3, -.488, 0, -1.83, .244, -2.928 a 8.982, 8.982, 0, 0, 0, .3, -4.391 a 8.66, 8.66, 0, 0, 0, -2.379, -3.537 c -.793, -.854, -1.708, -1.83, -1.708, -2.5 s .915, -1.647, 1.708, -2.5 a 8.66, 8.66, 0, 0, 0, 2.379, -3.537 a 8.982, 8.982, 0, 0, 0, -.3, -4.391 c -.244, -1.037, -.549, -2.379, -.244, -2.928 s1.586, -.915, 2.684, -1.281 a 8.983, 8.983, 0, 0, 0, 3.9, -1.891 a 8.983, 8.983, 0, 0, 0, 1.891, -3.9 c .366, -1.1, .732, -2.379, 1.281, -2.684 s 1.83, 0, 2.928, .244 a 8.982, 8.982, 0, 0, 0, 4.391, .3 a 8.66, 8.66, 0, 0, 0, 3.537, -2.379 c .854, -.793, 1.83, -1.708, 2.5, -1.708 s 1.647, .915, 2.5, 1.708 a 8.66, 8.66, 0, 0, 0, 3.537, 2.379 a 8.982, 8.982, 0, 0, 0, 4.391, -.3 c 1.037, -.244, 2.379, -.549, 2.928, -.244 s .915, 1.586, 1.281, 2.684 a 8.983, 8.983, 0, 0, 0, 1.891, 3.9 a 8.983, 8.983, 0, 0, 0, 3.9, 1.891 c 1.1, .3, 2.379, .732, 2.684, 1.281 c .3, .488, 0, 1.83, -.244, 2.928 a 8.983, 8.983, 0, 0, 0, -.3, 4.391 a 8.66, 8.66, 0, 0, 0, 2.379, 3.537 c .793, .854, 1.708, 1.83, 1.708, 2.5 s -.915, 1.647, -1.708, 2.5 a 8.66, 8.66, 0, 0, 0, -2.379, 3.537 a 8.983, 8.983, 0, 0, 0, .3, 4.391 c .244, 1.037, .549, 2.379, .244, 2.928 s -1.586, .915, -2.684, 1.281 a 8.983, 8.983, 0, 0, 0, -3.9, 1.891 a 8.983, 8.983, 0, 0, 0, -1.891, 3.9 c -.366, 1.1, -.732, 2.379, -1.281, 2.684 c -.488, .3, -1.83, 0, -2.928, -.244 a 8.983, 8.983, 0, 0, 0, -4.391, -.3 a 8.66, 8.66, 0, 0, 0, -3.537, 2.379 C 31.654, 55.745, 30.678, 56.66, 30.007, 56.66 Z M 45.743, 70.2 a 1.6, 1.6, 0, 0, 0, -1.647, .122 L 35.923, 75.75, 30.617, 59.892 a 8.136, 8.136, 0, 0, 0, 4.147, -2.5 A 6.386, 6.386, 0, 0, 1, 36.9, 55.806 a 6.981, 6.981, 0, 0, 1, 2.806, .3 c 1.708, .427, 3.659, .854, 5.306, -.122 A 4.249, 4.249, 0, 0, 0, 46.6, 54.281 L 55.074, 74.9 Z m 4.269, -40.193 a 20, 20, 0, 1, 0, -20, 20 A 20.016, 20.016, 0, 0, 0, 50.012, 30.007 Z m -20, 16.65 a 16.65, 16.65, 0, 1, 1, 16.65, -16.65 A 16.672, 16.672, 0, 0, 1, 30.007, 46.658 Z"
     transform="translate(4970 1643)"
     id="path8" />
  <path
     style="opacity:1;fill:#fadc64;fill-opacity:1;fill-rule:nonzero;stroke:none;stroke-width:5;stroke-linecap:round;stroke-linejoin:round;stroke-miterlimit:4;stroke-dasharray:none;stroke-dashoffset:0;stroke-opacity:1"
     d="m 28.578716,46.576067 c -2.176459,-0.178569 -4.183214,-0.740092 -6.097466,-1.706168 -1.705445,-0.860697 -3.007884,-1.820705 -4.349277,-3.205785 -2.386606,-2.464335 -3.947193,-5.546037 -4.528428,-8.942317 -0.859762,-5.02378 0.561889,-9.934668 3.985464,-13.767207 2.098511,-2.34919 4.878305,-4.124263 7.774034,-4.964211 3.699408,-1.073066 7.766365,-0.781861 11.366491,0.813871 4.648005,2.060198 8.004262,5.911259 9.312812,10.685776 0.952928,3.476958 0.744736,7.289309 -0.581975,10.656973 -0.976396,2.478437 -2.70973,4.864765 -4.822871,6.639776 -1.282373,1.077177 -3.304867,2.245494 -4.897503,2.8291 -2.26004,0.82817 -4.7315,1.159546 -7.161281,0.960192 z"
     id="path4163"
     inkscape:connector-curvature="0"
     transform="translate(4970,1643)" />
  <path
     style="opacity:1;fill:#003882;fill-opacity:1;fill-rule:nonzero;stroke:none;stroke-width:5;stroke-linecap:round;stroke-linejoin:round;stroke-miterlimit:4;stroke-dasharray:none;stroke-dashoffset:0;stroke-opacity:1"
     d="M 29.4,56.418796 C 28.981965,56.1938 28.247965,55.578777 27.025,54.428772 26.253177,53.702996 25.28139,53.070614 24.360689,52.694996 23.64637,52.403575 23.482809,52.384832 22.2125,52.448827 c -0.75625,0.0381 -1.825,0.185664 -2.375,0.327923 -0.55,0.142259 -1.478125,0.293519 -2.0625,0.336134 -0.964893,0.07036 -1.083419,0.05416 -1.290215,-0.17645 C 16.189126,52.606735 15.620988,51.204105 15.280719,49.963811 14.91401,48.627147 14.223669,47.353682 13.434451,46.558022 12.673111,45.790466 11.033964,44.95935 9.5441992,44.5855 8.2370591,44.257479 7.129248,43.684932 6.9105938,43.224382 6.7231095,42.829485 6.6933272,43.04762 7.4826445,39.034499 7.7442348,37.704496 7.6231442,36.326102 7.1568118,35.325491 6.664899,34.269991 6.3809132,33.876234 5.15,32.54297 3.8723962,31.159132 3.4,30.483522 3.4,30.040161 3.4,29.570131 3.9642559,28.738604 5.1084435,27.522477 6.2491801,26.310019 6.7848222,25.56714 7.2429137,24.562195 7.7085945,23.5406 7.7055382,21.544201 7.2354362,19.677625 7.0561408,18.96572 6.8720958,18.053131 6.8264472,17.64965 6.7457288,16.936195 6.7550388,16.904571 7.1654748,16.498064 7.5102435,16.156596 7.9617783,15.957987 9.6320493,15.413137 13.432042,14.173561 14.206292,13.383215 15.469138,9.4546998 15.955396,7.9420302 16.144512,7.5184412 16.487369,7.1740338 16.89513,6.7644287 16.9309,6.7537099 17.619839,6.834681 c 0.391275,0.045987 1.331565,0.2323968 2.089535,0.4142445 1.935848,0.4644382 3.810451,0.4641847 4.843322,-6.5e-4 0.999074,-0.4496297 1.742695,-0.9847671 2.960283,-2.1303287 1.21408,-1.142267 2.047576,-1.7084483 2.515064,-1.7084483 0.452087,0 1.202331,0.5306882 2.746957,1.9430718 1.696616,1.5513615 2.835149,2.1459327 4.3125,2.2521005 1.013744,0.072851 1.402689,0.019276 4.176624,-0.5753099 2.18664,-0.4687009 2.426234,-0.2907397 3.278975,2.4354974 1.239509,3.9627417 2.225907,4.9007967 6.465297,6.1484397 0.643994,0.189526 1.39687,0.508287 1.673062,0.708358 l 0.502165,0.363766 -0.06602,1.018288 c -0.03631,0.560059 -0.196326,1.496414 -0.355584,2.080789 -0.22853,0.838557 -0.290609,1.391826 -0.294537,2.625 l -0.005,1.5625 0.549868,1.040263 c 0.372242,0.704222 0.910882,1.431054 1.667428,2.25 1.244581,1.347237 1.791621,2.077723 1.910426,2.551082 0.122328,0.48739 -0.287926,1.151426 -1.552952,2.513611 -1.286972,1.385814 -1.759215,2.030005 -2.239747,3.055249 -0.308658,0.658542 -0.334606,0.837758 -0.329715,2.277295 0.0042,1.23927 0.06428,1.769366 0.290365,2.5625 0.156782,0.55 0.316734,1.459655 0.35545,2.021455 0.06713,0.974062 0.05581,1.03496 -0.243941,1.3125 -0.299394,0.277211 -1.438436,0.72657 -3.449314,1.360776 -1.084221,0.34195 -2.249043,1.002612 -2.879783,1.633354 -0.63577,0.635768 -1.313457,1.833986 -1.637264,2.894846 -0.595809,1.95199 -1.045593,3.098675 -1.340091,3.416444 -0.294979,0.318287 -0.349073,0.329608 -1.266933,0.265153 -0.527339,-0.03703 -1.436922,-0.19721 -2.021297,-0.355951 -0.836844,-0.227324 -1.394348,-0.28968 -2.625,-0.2936 -1.439165,-0.0046 -1.618922,0.02147 -2.277295,0.330046 -1.009418,0.473114 -1.71635,0.985077 -2.900874,2.100827 -1.718526,1.618743 -2.320983,1.915076 -3.071834,1.510947 z m 2.878279,-6.515904 c 2.409017,-0.299317 4.344239,-0.86158 6.434221,-1.86941 6.110028,-2.946372 10.341111,-8.867985 11.191845,-15.663546 0.210721,-1.683212 0.09605,-4.651474 -0.246031,-6.368622 C 48.441749,19.894554 44.484028,14.785237 38.848136,12.045655 33.214426,9.3071333 26.901119,9.2335257 21.46424,11.842974 c -2.053458,0.985563 -3.701406,2.185208 -5.573481,4.057283 -3.142421,3.14242 -4.959078,6.559518 -5.68679,10.696742 -0.2648044,1.505477 -0.3010262,4.654682 -0.07045,6.125 1.421585,9.065006 8.23083,15.917141 17.01648,17.123661 1.486661,0.204161 3.743065,0.229342 5.128279,0.05723 z"
     id="path4165"
     inkscape:connector-curvature="0"
     transform="translate(4970,1643)" />
</svg>
