<?xml version="1.0" encoding="UTF-8" standalone="no"?>
<svg
   xmlns:dc="http://purl.org/dc/elements/1.1/"
   xmlns:cc="http://creativecommons.org/ns#"
   xmlns:rdf="http://www.w3.org/1999/02/22-rdf-syntax-ns#"
   xmlns:svg="http://www.w3.org/2000/svg"
   xmlns="http://www.w3.org/2000/svg"
   xmlns:sodipodi="http://sodipodi.sourceforge.net/DTD/sodipodi-0.dtd"
   xmlns:inkscape="http://www.inkscape.org/namespaces/inkscape"
   sodipodi:docname="barcode.svg"
   inkscape:version="1.0beta1 (32d4812, 2019-09-19)"
   inkscape:export-ydpi="13.32"
   inkscape:export-xdpi="13.32"
   inkscape:export-filename="/Users/jeffpiazza/Cub Scouts/Pinewood Derby/Software Development/derbynet/website/img/barcode.png"
   id="svg899"
   version="1.1"
   viewBox="0 0 210 297"
   height="297mm"
   width="210mm">
  <defs
     id="defs893" />
  <sodipodi:namedview
     inkscape:window-maximized="0"
     inkscape:window-y="23"
     inkscape:window-x="19"
     inkscape:window-height="907"
     inkscape:window-width="1600"
     showgrid="false"
     inkscape:document-rotation="0"
     inkscape:current-layer="layer1"
     inkscape:document-units="mm"
     inkscape:cy="277.69695"
     inkscape:cx="375.01867"
     inkscape:zoom="1.4142136"
     inkscape:pageshadow="2"
     inkscape:pageopacity="0.0"
     borderopacity="1.0"
     bordercolor="#666666"
     pagecolor="#ffffff"
     id="base" />
  <metadata
     id="metadata896">
    <rdf:RDF>
      <cc:Work
         rdf:about="">
        <dc:format>image/svg+xml</dc:format>
        <dc:type
           rdf:resource="http://purl.org/dc/dcmitype/StillImage" />
        <dc:title></dc:title>
      </cc:Work>
    </rdf:RDF>
  </metadata>
  <g
     style="display:none"
     inkscape:label="Layer 2"
     id="layer3"
     inkscape:groupmode="layer">
    <path
       inkscape:connector-curvature="0"
       d="M 48.761719,103.94141 H 156.85742 V 53.296875 H 48.761719 Z"
       style="opacity:0.75;fill:none;stroke:#000000;stroke-width:1.18"
       id="path1465" />
  </g>
  <g
     id="layer1"
     inkscape:groupmode="layer"
     inkscape:label="Layer 1">
    <path
       transform="scale(0.26458333)"
       d="M 154.28572 217.44204 L 154.28572 171.42857 L 154.28572 171.42857 L 200.30126 171.42857 "
       style="opacity:0.75;fill:none;stroke:#000000;stroke-width:18.89763804;stroke-miterlimit:4;stroke-dasharray:none"
       id="rect1462" />
    <path
       transform="scale(0.26458333)"
       d="M 200.30127 422.85712 L 154.28572 422.85712 L 154.28572 376.84562 "
       style="opacity:0.75;fill:none;stroke:#000000;stroke-width:18.89763804;stroke-miterlimit:4;stroke-dasharray:none"
       id="path1521" />
    <path
       transform="scale(0.26458333)"
       d="M 622.85715 376.84561 L 622.85714 422.85712 L 576.84355 422.85713 "
       style="opacity:0.75;fill:none;stroke:#000000;stroke-width:18.89763804;stroke-miterlimit:4;stroke-dasharray:none"
       id="path1509" />
    <path
       transform="scale(0.26458333)"
       d="M 576.84354 171.42857 L 622.85714 171.42857 L 622.85716 217.44204 "
       style="opacity:0.75;fill:none;stroke:#000000;stroke-width:18.89763804;stroke-miterlimit:4;stroke-dasharray:none"
       id="path1516" />
    <path
       transform="scale(0.26458333)"
       d="M 184.29688 201.4375 L 184.29688 392.84961 L 206.29688 392.84961 L 206.29688 201.4375 L 184.29688 201.4375 z "
       style="opacity:1;fill:#000000;fill-opacity:1;stroke:none;stroke-width:4.79902"
       id="rect1528" />
    <path
       transform="scale(0.26458333)"
       d="M 225.29688 201.4375 L 225.29688 392.84961 L 232.29688 392.84961 L 232.29688 201.4375 L 225.29688 201.4375 z "
       style="opacity:1;fill:#000000;fill-opacity:1;stroke:none;stroke-width:2.70701"
       id="rect1542" />
    <path
       transform="scale(0.26458333)"
       d="M 254.04688 201.4375 L 254.04688 392.84961 L 280.29688 392.84961 L 280.29688 201.4375 L 254.04688 201.4375 z "
       style="opacity:1;fill:#000000;fill-opacity:1;stroke:none;stroke-width:5.24209"
       id="rect1544" />
    <path
       transform="scale(0.26458333)"
       d="M 295.54688 201.4375 L 295.54688 392.84961 L 312.79688 392.84961 L 312.79688 201.4375 L 295.54688 201.4375 z "
       style="opacity:1;fill:#000000;fill-opacity:1;stroke:none;stroke-width:4.24951"
       id="rect1546" />
    <path
       transform="scale(0.26458333)"
       d="M 333.54688 201.4375 L 333.54688 392.84961 L 350.79688 392.84961 L 350.79688 201.4375 L 333.54688 201.4375 z "
       style="opacity:1;fill:#000000;fill-opacity:1;stroke:none;stroke-width:4.24951"
       id="rect1548" />
    <path
       transform="scale(0.26458333)"
       d="M 368.04688 201.4375 L 368.04688 392.84961 L 394.29688 392.84961 L 394.29688 201.4375 L 368.04688 201.4375 z "
       style="opacity:1;fill:#000000;fill-opacity:1;stroke:none;stroke-width:5.24209"
       id="rect1550" />
    <path
       transform="scale(0.26458333)"
       d="M 410.04688 201.4375 L 410.04688 392.84961 L 436.29688 392.84961 L 436.29688 201.4375 L 410.04688 201.4375 z "
       style="opacity:1;fill:#000000;fill-opacity:1;stroke:none;stroke-width:5.24209"
       id="rect1552" />
    <path
       transform="scale(0.26458333)"
       d="M 455.54688 201.4375 L 455.54688 392.84961 L 472.79688 392.84961 L 472.79688 201.4375 L 455.54688 201.4375 z "
       style="opacity:1;fill:#000000;fill-opacity:1;stroke:none;stroke-width:4.24951"
       id="rect1554" />
    <path
       transform="scale(0.26458333)"
       d="M 499.29688 201.4375 L 499.29688 392.84961 L 506.29688 392.84961 L 506.29688 201.4375 L 499.29688 201.4375 z "
       style="opacity:1;fill:#000000;fill-opacity:1;stroke:none;stroke-width:2.70701"
       id="rect1556" />
    <path
       transform="scale(0.26458333)"
       d="M 526.04492 201.4375 L 526.04492 392.84961 L 552.29492 392.84961 L 552.29492 201.4375 L 526.04492 201.4375 z "
       style="opacity:1;fill:#000000;fill-opacity:1;stroke:none;stroke-width:5.24209"
       id="rect1558" />
    <path
       transform="scale(0.26458333)"
       d="M 570.84766 201.4375 L 570.84766 392.84961 L 592.84766 392.84961 L 592.84766 201.4375 L 570.84766 201.4375 z "
       style="opacity:1;fill:#000000;fill-opacity:1;stroke:none;stroke-width:4.79902"
       id="rect1560" />
  </g>
</svg>
