<?xml version="1.0" encoding="UTF-8" standalone="no"?>
<!-- Created with Inkscape (http://www.inkscape.org/) -->

<svg
   xmlns:dc="http://purl.org/dc/elements/1.1/"
   xmlns:cc="http://creativecommons.org/ns#"
   xmlns:rdf="http://www.w3.org/1999/02/22-rdf-syntax-ns#"
   xmlns:svg="http://www.w3.org/2000/svg"
   xmlns="http://www.w3.org/2000/svg"
   xmlns:sodipodi="http://sodipodi.sourceforge.net/DTD/sodipodi-0.dtd"
   xmlns:inkscape="http://www.inkscape.org/namespaces/inkscape"
   id="svg6549"
   sodipodi:docname="book-open-modified.svg"
   inkscape:export-ydpi="57.060001"
   inkscape:export-filename="/Users/jeffpiazza/Cub Scouts/Pinewood Derby/Software Development/derbynet/website/img/rulebook.png"
   viewBox="0 0 315.48 230.87"
   inkscape:export-xdpi="57.060001"
   version="1.1"
   inkscape:version="0.91 r13725">
  <defs
     id="defs6551">
    <clipPath
       id="clipPath594"
       clipPathUnits="userSpaceOnUse">
      <path
         id="path596"
         inkscape:connector-curvature="0"
         d="m1388.5 4235.1s178.55 301.54 445.04 303.91c266.5 2.33 558.43-112.31 558.43-112.31v703.51 703.51s-277.41 112.67-558.43 112.28c-281.02-0.38-445.04-303.91-445.04-303.91v-703.5-703.49" />
    </clipPath>
    <clipPath
       id="clipPath574"
       clipPathUnits="userSpaceOnUse">
      <path
         id="path576"
         inkscape:connector-curvature="0"
         d="m1388.5 4235.1s291.5 195.39 557.98 197.75c266.49 2.34 558.45-112.31 558.45-112.31v703.51 703.51s-277.43 112.68-558.45 112.3c-281.01-0.39-557.98-197.77-557.98-197.77v-703.5-703.49" />
    </clipPath>
    <clipPath
       id="clipPath552"
       clipPathUnits="userSpaceOnUse">
      <path
         id="path554"
         inkscape:connector-curvature="0"
         d="m1388.5 4235.1s307.49 109.94 588.16 112.28c280.67 2.35 588.17-112.28 588.17-112.28v703.49 703.5s-292.19 112.69-588.17 112.3-588.16-112.3-588.16-112.3v-703.5-703.49" />
    </clipPath>
    <clipPath
       id="clipPath532"
       clipPathUnits="userSpaceOnUse">
      <path
         id="path534"
         inkscape:connector-curvature="0"
         d="m1389 4235.1s-178.54 301.54-445.03 303.91c-266.49 2.33-558.43-112.31-558.43-112.31v703.51 703.51s277.42 112.67 558.43 112.28c281.02-0.38 445.03-303.91 445.03-303.91v-703.5-703.49" />
    </clipPath>
    <clipPath
       id="clipPath512"
       clipPathUnits="userSpaceOnUse">
      <path
         id="path514"
         inkscape:connector-curvature="0"
         d="m1389 4235.1s-291.49 195.39-557.99 197.75c-266.48 2.34-558.44-112.31-558.44-112.31v703.51 703.51s277.42 112.68 558.44 112.3c281.03-0.39 557.99-197.77 557.99-197.77v-703.5-703.49" />
    </clipPath>
    <clipPath
       id="clipPath492"
       clipPathUnits="userSpaceOnUse">
      <path
         id="path494"
         inkscape:connector-curvature="0"
         d="m1389 4235.1s-307.48 109.94-588.16 112.28c-280.67 2.35-588.16-112.28-588.16-112.28v703.49 703.5s292.18 112.69 588.16 112.3 588.16-112.3 588.16-112.3v-703.5-703.49" />
    </clipPath>
    <clipPath
       id="clipPath470"
       clipPathUnits="userSpaceOnUse">
      <path
         id="path472"
         inkscape:connector-curvature="0"
         d="m2019.5 5773.5c-312.25-0.4-578.25-100.59-578.25-100.59-28.92-10.88-76.23-10.88-105.14 0 0 0-266 100.19-578.24 100.59-317.58 0.42-578.68-100.26-578.68-100.26-28.828-11.13-52.411-45.49-52.411-76.39v-1397.4c0-30.9 23.684-47.34 52.637-36.54 0 0 277.29 103.38 578.46 100.86 294.34-2.46 575.31-46.41 575.31-46.41 30.53-4.78 80.47-4.78 110.99 0 0 0 280.97 43.95 575.33 46.41 301.14 2.52 578.44-100.86 578.44-100.86 28.96-10.8 52.64 5.64 52.64 36.54v1397.4c0 30.9-23.58 65.26-52.41 76.39 0 0-261.1 100.68-578.67 100.26" />
    </clipPath>
  </defs>
  <sodipodi:namedview
     id="base"
     bordercolor="#666666"
     inkscape:pageshadow="2"
     inkscape:window-y="0"
     fit-margin-left="0"
     pagecolor="#ffffff"
     inkscape:window-height="1155"
     inkscape:window-maximized="1"
     inkscape:zoom="1.979899"
     inkscape:window-x="0"
     showgrid="false"
     borderopacity="1.0"
     inkscape:current-layer="layer1"
     inkscape:cx="135.73274"
     inkscape:cy="101.10304"
     fit-margin-top="0"
     fit-margin-right="0"
     fit-margin-bottom="0"
     inkscape:window-width="1880"
     inkscape:pageopacity="0.0"
     inkscape:document-units="px" />
  <g
     id="layer1"
     inkscape:label="Layer 1"
     inkscape:groupmode="layer"
     transform="translate(-216.55 -392.14)">
    <g
       id="g466"
       style="fill:#553203"
       inkscape:export-ydpi="6.2762299"
       inkscape:export-filename="/home/kdm/code/dxp-admin/WebContent/lib/images/book.png"
       transform="matrix(.125 0 0 -.12969 200.7 1162.5)"
       inkscape:export-xdpi="6.2762299">
      <g
         id="g468"
         style="fill:#553203"
         clip-path="url(#clipPath470)">
        <path
           id="path486"
           sodipodi:nodetypes="cccccssccccsscc"
           d="m2019.5 5773.5c-312.25-0.4-578.25-100.59-578.25-100.59-28.92-10.88-76.23-10.88-105.14 0 0 0-266 100.19-578.24 100.59-317.58 0.42-578.68-100.26-578.68-100.26-28.828-11.13-52.411-45.49-52.411-76.39v-1397.4c0-30.9 23.684-47.34 52.637-36.54 0 0-587.4-519.72 578.46 100.86 1386.2-985.55-150.95-46.162 1261.6 0 301.14 2.52 578.44-100.86 578.44-100.86 28.96-10.8 52.64 5.64 52.64 36.54v1397.4c0 30.9-23.58 65.26-52.41 76.39 0 0-261.1 100.68-578.67 100.26"
           style="fill:#6c5353"
           inkscape:connector-curvature="0" />
      </g>
    </g>
    <g
       id="g488"
       style="fill:#ffffff;fill-opacity:1"
       inkscape:export-ydpi="6.2762299"
       inkscape:export-filename="/home/kdm/code/dxp-admin/WebContent/lib/images/book.png"
       transform="matrix(.125 0 0 -.125 200.7 1135.4)"
       inkscape:export-xdpi="6.2762299">
      <g
         id="g490"
         style="fill:#ffffff;fill-opacity:1"
         clip-path="url(#clipPath492)">
        <path
           id="path504"
           d="m1389 4235.1s-307.48 109.94-588.16 112.28c-280.67 2.35-588.16-112.28-588.16-112.28v1407s292.18 112.69 588.16 112.3 588.16-112.3 588.16-112.3v-1407"
           style="fill:#ffffff;fill-opacity:1"
           inkscape:connector-curvature="0" />
      </g>
    </g>
    <g
       id="g508"
       style="fill:#ffffff;stroke:#000000;stroke-opacity:1;stroke-width:8;stroke-miterlimit:4;stroke-dasharray:none;fill-opacity:1"
       inkscape:export-ydpi="6.2762299"
       inkscape:export-filename="/home/kdm/code/dxp-admin/WebContent/lib/images/book.png"
       transform="matrix(.125 0 0 -.125 200.7 1135.4)"
       inkscape:export-xdpi="6.2762299">
      <g
         id="g510"
         style="fill:#ffffff;stroke:#000000;stroke-opacity:1;stroke-width:8;stroke-miterlimit:4;stroke-dasharray:none;fill-opacity:1"
         clip-path="url(#clipPath512)">
        <path
           id="path524"
           d="m1389 4235.1s-291.49 195.39-557.99 197.75c-266.48 2.34-558.44-112.31-558.44-112.31v1407s277.42 112.68 558.44 112.3c281.03-0.39 557.99-197.77 557.99-197.77v-1407"
           style="fill:#ffffff;stroke:#000000;stroke-opacity:1;stroke-width:8;stroke-miterlimit:4;stroke-dasharray:none;fill-opacity:1"
           inkscape:connector-curvature="0" />
      </g>
    </g>
    <g
       id="g528"
       style="stroke:#000000;stroke-width:16;fill:#ffffff;fill-opacity:1"
       inkscape:export-ydpi="6.2762299"
       inkscape:export-filename="/home/kdm/code/dxp-admin/WebContent/lib/images/book.png"
       transform="matrix(.125 0 0 -.125 200.7 1135.4)"
       inkscape:export-xdpi="6.2762299">
      <g
         id="g530"
         style="stroke:#000000;stroke-width:16;fill:#ffffff;fill-opacity:1"
         clip-path="url(#clipPath532)">
        <path
           id="path546"
           d="m1389 4235.1s-178.54 301.54-445.03 303.91c-266.49 2.33-558.43-112.31-558.43-112.31v1407s277.42 112.67 558.43 112.28c281.02-0.38 445.03-303.91 445.03-303.91v-1407"
           style="stroke:#000000;stroke-width:16;fill:#ffffff;fill-opacity:1"
           inkscape:connector-curvature="0" />
      </g>
    </g>
    <g
       id="g548"
       style="fill:#ffffff"
       inkscape:export-ydpi="6.2762299"
       inkscape:export-filename="/home/kdm/code/dxp-admin/WebContent/lib/images/book.png"
       transform="matrix(.125 0 0 -.125 200.7 1135.4)"
       inkscape:export-xdpi="6.2762299">
      <g
         id="g550"
         style="fill:#ffffff"
         clip-path="url(#clipPath552)">
        <path
           id="path566"
           d="m1388.5 4235.1s307.49 109.94 588.16 112.28c280.67 2.35 588.17-112.28 588.17-112.28v1407s-292.19 112.69-588.17 112.3-588.16-112.3-588.16-112.3v-1407"
           style="fill:#ffffff"
           inkscape:connector-curvature="0" />
      </g>
    </g>
    <g
       id="g570"
       style="stroke:#000000;stroke-width:8;fill:#ffffff"
       inkscape:export-ydpi="6.2762299"
       inkscape:export-filename="/home/kdm/code/dxp-admin/WebContent/lib/images/book.png"
       transform="matrix(.125 0 0 -.125 200.7 1135.4)"
       inkscape:export-xdpi="6.2762299">
      <g
         id="g572"
         style="stroke:#000000;stroke-width:8;fill:#ffffff"
         clip-path="url(#clipPath574)">
        <path
           id="path586"
           d="m1388.5 4235.1s291.5 195.39 557.98 197.75c266.49 2.34 558.45-112.31 558.45-112.31v1407s-277.43 112.68-558.45 112.3c-281.01-0.39-557.98-197.77-557.98-197.77v-1407"
           style="stroke:#000000;stroke-width:8;fill:#ffffff"
           inkscape:connector-curvature="0" />
      </g>
    </g>
    <path
       id="path588"
       style="fill:#b3b3b3"
       d="m374.25 607.52s19.621-28.024 52.754-30.941c33.182-2.92 70.736 8.02 70.736 8.02l1.9438-86.491-125.43 23.954v85.459"
       inkscape:export-ydpi="6.2762299"
       inkscape:export-filename="/home/kdm/code/dxp-admin/WebContent/lib/images/book.png"
       inkscape:connector-curvature="0"
       inkscape:export-xdpi="6.2762299" />
    <g
       id="g590"
       style="stroke:#000000;stroke-width:16;fill:#ffffff"
       inkscape:export-ydpi="6.2762299"
       inkscape:export-filename="/home/kdm/code/dxp-admin/WebContent/lib/images/book.png"
       transform="matrix(.125 0 0 -.125 200.7 1135.4)"
       inkscape:export-xdpi="6.2762299">
      <g
         id="g592"
         style="stroke:#000000;stroke-width:16;fill:#ffffff"
         clip-path="url(#clipPath594)">
        <path
           id="path608"
           d="m1388.5 4235.1s178.55 301.54 445.04 303.91c266.5 2.33 558.43-112.31 558.43-112.31v1407s-277.41 112.67-558.43 112.28c-281.02-0.38-445.04-303.91-445.04-303.91v-1407"
           style="stroke:#000000;stroke-width:16;fill:#ffffff"
           inkscape:connector-curvature="0" />
      </g>
    </g>
  </g>
  <metadata
     id="metadata4565">
    <rdf:RDF>
      <cc:Work>
        <dc:format>image/svg+xml</dc:format>
        <dc:type
           rdf:resource="http://purl.org/dc/dcmitype/StillImage" />
        <cc:license
           rdf:resource="http://creativecommons.org/publicdomain/zero/1.0/" />
        <dc:publisher>
          <cc:Agent
             rdf:about="http://openclipart.org/">
            <dc:title>Openclipart</dc:title>
          </cc:Agent>
        </dc:publisher>
        <dc:title></dc:title>
        <dc:date>2012-04-20T12:35:01</dc:date>
        <dc:description>a simple open book</dc:description>
        <dc:source>https://openclipart.org/detail/169614/open-book-by-dynnamitt</dc:source>
        <dc:creator>
          <cc:Agent>
            <dc:title>dynnamitt</dc:title>
          </cc:Agent>
        </dc:creator>
        <dc:subject>
          <rdf:Bag>
            <rdf:li>book</rdf:li>
            <rdf:li>open</rdf:li>
          </rdf:Bag>
        </dc:subject>
      </cc:Work>
      <cc:License
         rdf:about="http://creativecommons.org/publicdomain/zero/1.0/">
        <cc:permits
           rdf:resource="http://creativecommons.org/ns#Reproduction" />
        <cc:permits
           rdf:resource="http://creativecommons.org/ns#Distribution" />
        <cc:permits
           rdf:resource="http://creativecommons.org/ns#DerivativeWorks" />
      </cc:License>
    </rdf:RDF>
  </metadata>
</svg>
