<?xml version="1.0" encoding="UTF-8" standalone="no"?>
<!-- Created with Inkscape (http://www.inkscape.org/) -->

<svg
   xmlns:dc="http://purl.org/dc/elements/1.1/"
   xmlns:cc="http://creativecommons.org/ns#"
   xmlns:rdf="http://www.w3.org/1999/02/22-rdf-syntax-ns#"
   xmlns:svg="http://www.w3.org/2000/svg"
   xmlns="http://www.w3.org/2000/svg"
   xmlns:sodipodi="http://sodipodi.sourceforge.net/DTD/sodipodi-0.dtd"
   xmlns:inkscape="http://www.inkscape.org/namespaces/inkscape"
   width="210mm"
   height="297mm"
   viewBox="0 0 744.09448819 1052.3622047"
   id="svg4217"
   version="1.1"
   inkscape:version="0.91 r13725"
   sodipodi:docname="cancel-cross.svg">
  <defs
     id="defs4219" />
  <sodipodi:namedview
     id="base"
     pagecolor="#ffffff"
     bordercolor="#666666"
     borderopacity="1.0"
     inkscape:pageopacity="0.0"
     inkscape:pageshadow="2"
     inkscape:zoom="0.35"
     inkscape:cx="-976.42858"
     inkscape:cy="520"
     inkscape:document-units="px"
     inkscape:current-layer="layer1"
     showgrid="false"
     inkscape:window-width="1881"
     inkscape:window-height="1155"
     inkscape:window-x="0"
     inkscape:window-y="1"
     inkscape:window-maximized="1" />
  <metadata
     id="metadata4222">
    <rdf:RDF>
      <cc:Work
         rdf:about="">
        <dc:format>image/svg+xml</dc:format>
        <dc:type
           rdf:resource="http://purl.org/dc/dcmitype/StillImage" />
        <dc:title />
      </cc:Work>
    </rdf:RDF>
  </metadata>
  <g
     inkscape:label="Layer 1"
     inkscape:groupmode="layer"
     id="layer1">
    <path
       style="opacity:1;fill:#adadad;fill-opacity:1;fill-rule:nonzero;stroke:none;stroke-width:3;stroke-linecap:square;stroke-linejoin:miter;stroke-miterlimit:4;stroke-dasharray:none;stroke-dashoffset:0;stroke-opacity:1"
       d="m 472.68839,270.06145 c -9.0099,-9.00995 -23.5169,-9.00995 -32.5269,0 l -38.1837,38.18377 c -9.01,9.00995 -23.517,9.00995 -32.527,0 l -38.1837,-38.18377 c -9.01,-9.00995 -23.517,-9.00995 -32.5269,0 l -38.1838,38.18377 c -9.0099,9.00995 -9.0099,23.51695 0,32.52691 l 38.1838,38.18376 c 9.0099,9.00996 9.0099,23.51696 0,32.52692 l -38.1838,38.18376 c -9.0099,9.00996 -9.0099,23.51696 0,32.52691 l 38.1838,38.18377 c 9.0099,9.00995 23.5169,9.00995 32.5269,0 l 38.1837,-38.18377 c 9.01,-9.00995 23.517,-9.00995 32.527,0 l 38.1837,38.18377 c 9.01,9.00995 23.517,9.00995 32.5269,0 l 38.1838,-38.18377 c 9.0099,-9.00995 9.0099,-23.51695 0,-32.52691 l -38.1838,-38.18376 c -9.0099,-9.00996 -9.0099,-23.51696 0,-32.52692 l 38.1838,-38.18376 c 9.0099,-9.00996 9.0099,-23.51696 0,-32.52691 z"
       id="rect4197"
       inkscape:connector-curvature="0"
       sodipodi:nodetypes="sssssssssssssssssssssssss"
       inkscape:export-xdpi="4.0900002"
       inkscape:export-ydpi="4.0900002"
       inkscape:export-filename="/Users/jeffpiazza/Cub Scouts/Pinewood Derby/Software Development/derbynet/website/img/cancel-12.png" />
  </g>
</svg>
