<?xml version="1.0" encoding="UTF-8" standalone="no"?>
<svg
   xmlns:dc="http://purl.org/dc/elements/1.1/"
   xmlns:cc="http://creativecommons.org/ns#"
   xmlns:rdf="http://www.w3.org/1999/02/22-rdf-syntax-ns#"
   xmlns:svg="http://www.w3.org/2000/svg"
   xmlns="http://www.w3.org/2000/svg"
   xmlns:sodipodi="http://sodipodi.sourceforge.net/DTD/sodipodi-0.dtd"
   xmlns:inkscape="http://www.inkscape.org/namespaces/inkscape"
   version="1.0"
   inkscape:output_extension="org.inkscape.output.svg.inkscape"
   sodipodi:docname="checkbox_with_check.svg"
   inkscape:version="1.0beta1 (32d4812, 2019-09-19)"
   sodipodi:version="0.32"
   id="svg2"
   height="197"
   width="206.5"
   inkscape:export-filename="/Users/jeffpiazza/Cub Scouts/Pinewood Derby/Software Development/derbynet/website/img/checkbox-without-check.png"
   inkscape:export-xdpi="50.799999"
   inkscape:export-ydpi="50.799999">
  <defs
     id="defs4">
    <inkscape:perspective
       id="perspective10"
       inkscape:persp3d-origin="372.04724 : 357.78739 : 1"
       inkscape:vp_z="744.09448 : 533.18109 : 1"
       inkscape:vp_y="0 : 1000 : 0"
       inkscape:vp_x="0 : 533.18109 : 1"
       sodipodi:type="inkscape:persp3d" />
    <inkscape:perspective
       sodipodi:type="inkscape:persp3d"
       inkscape:vp_x="0 : 533.18109 : 1"
       inkscape:vp_y="0 : 1000 : 0"
       inkscape:vp_z="744.09448 : 533.18109 : 1"
       inkscape:persp3d-origin="372.04724 : 357.78739 : 1"
       id="perspective3331" />
    <inkscape:perspective
       id="perspective2502"
       inkscape:persp3d-origin="372.04724 : 357.78739 : 1"
       inkscape:vp_z="744.09448 : 533.18109 : 1"
       inkscape:vp_y="0 : 1000 : 0"
       inkscape:vp_x="0 : 533.18109 : 1"
       sodipodi:type="inkscape:persp3d" />
    <inkscape:perspective
       sodipodi:type="inkscape:persp3d"
       inkscape:vp_x="0 : 533.18109 : 1"
       inkscape:vp_y="0 : 1000 : 0"
       inkscape:vp_z="744.09448 : 533.18109 : 1"
       inkscape:persp3d-origin="372.04724 : 357.78739 : 1"
       id="perspective2504" />
    <inkscape:perspective
       id="perspective2448"
       inkscape:persp3d-origin="372.04724 : 357.78739 : 1"
       inkscape:vp_z="744.09448 : 533.18109 : 1"
       inkscape:vp_y="0 : 1000 : 0"
       inkscape:vp_x="0 : 533.18109 : 1"
       sodipodi:type="inkscape:persp3d" />
    <inkscape:perspective
       sodipodi:type="inkscape:persp3d"
       inkscape:vp_x="0 : 533.18109 : 1"
       inkscape:vp_y="0 : 1000 : 0"
       inkscape:vp_z="744.09448 : 533.18109 : 1"
       inkscape:persp3d-origin="372.04724 : 357.78739 : 1"
       id="perspective2409" />
    <inkscape:perspective
       sodipodi:type="inkscape:persp3d"
       inkscape:vp_x="0 : 533.18109 : 1"
       inkscape:vp_y="0 : 1000 : 0"
       inkscape:vp_z="744.09448 : 533.18109 : 1"
       inkscape:persp3d-origin="372.04724 : 357.78739 : 1"
       id="perspective2407" />
  </defs>
  <sodipodi:namedview
     inkscape:window-maximized="0"
     showguides="false"
     inkscape:document-rotation="0"
     inkscape:window-y="23"
     inkscape:window-x="0"
     inkscape:window-height="907"
     inkscape:window-width="1600"
     showgrid="false"
     inkscape:current-layer="svg2"
     inkscape:document-units="px"
     inkscape:cy="560"
     inkscape:cx="400"
     inkscape:zoom="0.35"
     inkscape:pageshadow="2"
     inkscape:pageopacity="0.0"
     objecttolerance="10"
     guidetolerance="10"
     gridtolerance="10000"
     borderopacity="1.0"
     bordercolor="#666666"
     pagecolor="#ffffff"
     id="base" />
  <metadata
     id="metadata7">
    <rdf:RDF>
      <cc:Work
         rdf:about="">
        <dc:format>image/svg+xml</dc:format>
        <dc:type
           rdf:resource="http://purl.org/dc/dcmitype/StillImage" />
        <dc:title />
      </cc:Work>
    </rdf:RDF>
  </metadata>
  <g
     transform="translate(-59.248047,-52.677734)"
     style="display:inline"
     id="layer1"
     inkscape:groupmode="layer"
     inkscape:label="Box">
    <rect
       y="78.678329"
       x="85.247787"
       height="145"
       width="154.5"
       id="rect866"
       style="fill:none;stroke:#000000;stroke-width:12;stroke-opacity:1" />
    <text
       id="text3228"
       y="150.48622"
       x="39.930447"
       style="font-style:normal;font-variant:normal;font-weight:normal;font-stretch:normal;font-size:40px;font-family:'Kochi Gothic';-inkscape-font-specification:'Kochi Gothic';opacity:1;fill:#000000;fill-opacity:1;stroke:none;stroke-width:1px;stroke-linecap:butt;stroke-linejoin:miter;stroke-opacity:1;stop-opacity:1"
       xml:space="preserve"><tspan
         y="150.48622"
         x="39.930447"
         id="tspan3230"
         sodipodi:role="line" /></text>
  </g>
  <g
     inkscape:groupmode="layer"
     id="layer2"
     inkscape:label="Check"
     style="display:none">
    <path
       transform="translate(-59.248047,-52.677734)"
       inkscape:connector-curvature="0"
       d="m 245.20312,56.878906 h -0.004 -0.0156 -0.0176 -0.0254 -0.0254 l -1.05859,0.02734 -0.0742,0.002 -0.0293,0.0039 -0.97265,0.04297 h -0.0937 l -0.0781,0.0098 -0.92578,0.05664 h -0.0332 l -0.0801,0.0059 -1.00391,0.08203 -0.0195,0.002 -0.0176,0.002 -0.0195,0.002 -0.0195,0.002 h -0.002 l -0.98242,0.09961 h -0.002 l -0.0176,0.002 -0.0195,0.002 -0.0215,0.002 -0.0195,0.002 -0.9668,0.117188 -0.0371,0.0059 h -0.008 l -0.0117,0.002 -0.0332,0.0039 -0.94922,0.136718 -0.0234,0.0039 -0.0312,0.0039 -0.0137,0.002 -0.006,0.002 -0.93164,0.152344 -0.004,0.002 h -0.002 l -0.0234,0.0039 -0.0605,0.0098 -0.0606,0.01367 h -0.004 l -0.0215,0.0059 -0.79102,0.148438 -0.0137,0.002 -0.01,0.002 -0.0195,0.0039 -0.041,0.0059 -0.0566,0.01367 h -0.004 l -0.0254,0.0059 -0.83594,0.179687 -0.0195,0.0039 -0.008,0.002 -0.0586,0.01172 -0.0664,0.01758 -0.0117,0.0039 -0.01,0.002 -0.79883,0.1875 -0.0117,0.0039 -0.0137,0.002 -0.0254,0.0059 -0.0312,0.0078 -0.0312,0.0078 -0.85352,0.226562 h -0.004 l -0.0723,0.01758 -0.0586,0.01953 -0.0137,0.0059 -0.77929,0.224609 -0.01,0.0039 -0.0176,0.0039 -0.0195,0.0059 -0.0195,0.0059 -0.0254,0.0078 -0.0117,0.0039 -0.0117,0.0039 -0.79687,0.255859 -0.0234,0.0078 h -0.002 l -0.0664,0.02148 -0.0644,0.02344 -0.0254,0.0098 -0.66992,0.236328 -0.0156,0.0039 -0.01,0.0039 -0.0664,0.02148 -0.0644,0.02344 -0.0195,0.0078 -0.006,0.002 -0.77734,0.296875 -0.002,0.002 h -0.004 l -0.0254,0.0098 -0.0606,0.02344 -0.0586,0.02734 -0.0137,0.0059 -0.0117,0.0059 -0.64648,0.265625 -0.0449,0.01953 0.0195,-0.0098 -0.0605,0.02344 -0.0586,0.02734 -0.002,0.002 -0.0234,0.0098 -0.72461,0.324219 -0.0156,0.0059 -0.0156,0.0078 -0.0293,0.01367 -0.0293,0.01367 -0.0137,0.0059 -0.0137,0.0078 -0.72852,0.353515 -0.0117,0.0039 -0.01,0.0059 -0.0274,0.01367 -0.0273,0.01367 -0.0156,0.0078 -0.0176,0.0098 -0.67579,0.353515 -0.0273,0.01367 -0.006,0.0039 -0.0176,0.0078 -0.0234,0.01172 -0.0293,0.01563 -0.0215,0.01172 -0.0215,0.01172 -0.69141,0.390625 -0.0644,0.03711 -0.0215,0.01367 -0.0117,0.0078 -0.67383,0.40625 -0.0234,0.01563 -0.0254,0.01563 -0.0273,0.01758 -0.0274,0.01758 -0.004,0.002 -0.002,0.002 -0.6504,0.421874 -0.006,0.0039 -0.0215,0.01367 -0.041,0.02539 -0.0391,0.0293 -0.008,0.0059 -0.0156,0.01172 -0.004,0.002 -0.58399,0.40625 -0.0293,0.01953 -0.004,0.0039 -0.0606,0.03906 -0.0625,0.04883 -0.0273,0.02148 -0.51953,0.390625 -0.008,0.0059 -0.0176,0.01172 -0.0723,0.05078 -0.0703,0.05664 0.01,-0.0059 -0.0332,0.02539 -0.5664,0.453125 -0.0137,0.01172 -0.008,0.0059 -0.008,0.0078 -0.0117,0.0078 -0.002,0.002 -0.0254,0.02148 -0.004,0.002 -0.0332,0.02734 -0.57227,0.490234 -0.01,0.0078 -0.0156,0.01367 -0.0332,0.0293 -0.0332,0.0293 -0.0195,0.01758 -0.006,0.0059 -0.5586,0.511718 -0.0234,0.02148 -0.0312,0.0293 -0.0312,0.03125 -0.008,0.0078 -0.0156,0.01563 -0.5293,0.517578 -0.008,0.0078 -0.008,0.0078 -0.0254,0.02539 -0.0254,0.02539 -0.0254,0.02734 -0.01,0.01172 -0.0156,0.01563 -0.47461,0.5 -0.0234,0.02344 -0.0117,0.01367 -0.0195,0.01758 -0.0293,0.03125 -0.0215,0.02344 -0.01,0.01172 -0.01,0.0098 -0.50781,0.570313 -0.006,0.0059 -0.006,0.0078 -0.0137,0.01563 -0.0137,0.01563 -0.008,0.0078 -0.008,0.0098 -1.89062,2.214844 -0.0391,0.04492 -0.0156,0.01953 -0.0606,0.07031 -0.004,0.0078 -1.83399,2.173828 -0.0234,0.02734 -0.0176,0.02148 -0.0195,0.02344 -0.0527,0.0625 -0.004,0.0039 -1.83204,2.207031 -0.16992,0.167969 -0.0488,0.09766 -1.75195,2.134766 -0.0781,0.07813 -0.0625,0.09375 -1.85352,2.289062 -0.002,0.002 -0.0156,0.02148 -0.041,0.04883 -0.0117,0.01563 -0.125,0.152344 -0.006,0.0098 -1.78125,2.224609 -0.0684,0.06836 -0.0723,0.107422 -1.86328,2.357422 -0.0137,0.01367 -0.0762,0.0957 -2.00195,2.560547 -0.2129,0.273437 -0.004,0.01172 -1.60742,2.080078 -0.17578,0.117187 -0.15626,0.3125 -1.82617,2.386719 -0.0527,0.05273 -0.084,0.125 -1.9082,2.525391 -0.13867,0.138672 -0.0703,0.140625 -1.84375,2.46875 -0.13672,0.134766 -0.0723,0.144531 -1.94922,2.63281 -0.0117,0.0176 -0.0176,0.0215 -0.0195,0.0273 -0.008,0.0137 -0.004,0.006 -1.92383,2.62695 -0.12891,0.12695 -0.0762,0.15235 -1.88867,2.60742 -0.004,0.004 -0.084,0.11718 -0.0117,0.0156 -0.084,0.11719 -1.91407,2.66406 -0.004,0.004 -0.0859,0.1211 -0.0117,0.0156 -0.0801,0.11328 -2.01758,2.83985 -0.0898,0.125 -0.0117,0.0234 -1.72265,2.44727 -0.1504,0.0762 -0.23437,0.4668 -2.03711,2.91992 -0.084,0.11914 -0.0117,0.0234 -1.9375,2.80273 -0.0117,0.0117 -0.10547,0.15235 -2.13867,3.12304 -0.0781,0.11328 -0.01,0.0215 -1.96094,2.88672 -0.10156,0.10156 -0.0937,0.1875 -1.97266,2.93164 -0.10156,0.0996 -0.0937,0.1875 -2.09961,3.14648 -0.004,0.006 -0.004,0.006 -0.004,0.004 -0.002,0.006 -4.36914,6.62891 -0.004,0.006 -0.002,0.004 -0.002,0.002 -0.008,0.01 -0.006,0.0117 -4.4043,6.78906 -0.004,0.006 -0.004,0.006 -0.006,0.01 -0.006,0.006 -0.01,0.0176 -4.4375,6.95117 -0.004,0.006 -0.002,0.004 -0.002,0.002 -0.0156,0.0215 -0.0137,0.0234 -3.92578,6.24218 -0.41016,-0.89453 -0.0156,-0.0371 -0.44532,-1.03125 -0.002,-0.004 -0.004,-0.008 v -0.002 l -0.004,-0.01 -0.4668,-1.14843 -0.004,-0.01 -0.008,-0.0195 -0.52734,-1.35938 -0.004,-0.004 -0.52343,-1.40625 -0.006,-0.0156 -0.002,-0.006 -0.56445,-1.5664 -0.004,-0.0117 -0.004,-0.0137 -0.58985,-1.68946 -0.006,-0.0176 v -0.002 -0.002 l -0.002,-0.004 -0.62305,-1.84375 -0.0176,-0.0508 -0.31055,-0.9375 -0.002,-0.002 -0.0117,-0.0352 -0.0156,-0.0469 -0.0176,-0.0449 -0.004,-0.0117 -0.01,-0.0234 -0.33984,-0.91016 -0.002,-0.006 -0.002,-0.006 -0.0156,-0.041 -0.006,-0.0137 -0.006,-0.0156 -0.0156,-0.0391 -0.008,-0.0195 -0.008,-0.0195 -0.36914,-0.86914 -0.004,-0.008 -0.004,-0.008 -0.0195,-0.0449 -0.0215,-0.0488 -0.0234,-0.0488 -0.01,-0.0176 -0.0117,-0.0254 -0.375,-0.77539 -0.002,-0.004 -0.0215,-0.0449 -0.0215,-0.0449 -0.0234,-0.043 -0.0254,-0.0469 -0.002,-0.006 -0.004,-0.006 -0.4082,-0.74023 -0.002,-0.004 -0.002,-0.002 -0.0293,-0.0527 -0.0215,-0.0391 -0.0234,-0.0391 -0.0312,-0.0508 -0.006,-0.01 -0.006,-0.01 -0.42773,-0.67774 -0.004,-0.006 -0.006,-0.008 -0.0352,-0.0547 -0.0254,-0.041 -0.0293,-0.0391 -0.0391,-0.0547 -0.006,-0.008 -0.004,-0.008 -0.44531,-0.61133 -0.01,-0.0117 -0.008,-0.01 -0.0469,-0.0625 -0.0312,-0.041 -0.0312,-0.041 -0.0488,-0.0586 -0.008,-0.008 -0.008,-0.01 -0.4668,-0.54688 -0.006,-0.008 -0.008,-0.008 -0.0527,-0.0605 -0.0332,-0.0391 -0.0371,-0.0371 -0.0566,-0.0586 -0.0137,-0.0137 -0.0117,-0.0137 -0.48437,-0.48242 -0.0137,-0.0117 -0.0137,-0.0137 -0.0469,-0.0449 -0.0312,-0.0293 -0.0332,-0.0293 -0.0488,-0.043 -0.002,-0.002 -0.002,-0.002 -0.22656,-0.19727 -0.0215,-0.0195 -0.0176,-0.0156 -0.0606,-0.0547 -0.0644,-0.0508 -0.0176,-0.0117 -0.0234,-0.0195 -0.23242,-0.18164 -0.01,-0.008 -0.0117,-0.008 -0.0332,-0.0254 -0.0215,-0.0176 -0.0215,-0.0156 -0.0352,-0.0254 -0.002,-0.002 h -0.002 l -0.25781,-0.18554 -0.002,-0.002 -0.004,-0.002 -0.041,-0.0293 -0.0176,-0.0137 -0.0176,-0.0117 -0.043,-0.0293 -0.0215,-0.0156 -0.0215,-0.0137 -0.26367,-0.16992 -0.004,-0.002 h -0.002 l -0.0488,-0.0312 -0.0644,-0.041 -0.0664,-0.0371 -0.0137,-0.006 -0.0371,-0.0215 -0.19922,-0.11328 -0.043,-0.0254 -0.0449,-0.0254 -0.0449,-0.0234 -0.041,-0.0215 -0.0137,-0.008 -0.0137,-0.008 -0.27149,-0.13672 -0.0176,-0.008 -0.0156,-0.008 -0.0527,-0.0254 -0.0547,-0.0254 -0.0586,-0.0234 -0.0117,-0.004 -0.0332,-0.0137 -0.008,-0.004 -0.19922,-0.0879 -0.0469,-0.0215 -0.0566,-0.0254 -0.0586,-0.0234 -0.0508,-0.0195 -0.0117,-0.004 -0.01,-0.004 -0.2832,-0.10547 -0.0117,-0.004 -0.0137,-0.004 -0.0547,-0.0195 -0.0391,-0.0156 -0.0391,-0.0117 -0.0566,-0.0176 -0.004,-0.002 h -0.004 l -0.28711,-0.0879 -0.01,-0.002 -0.008,-0.004 -0.0527,-0.0156 -0.041,-0.0117 -0.043,-0.01 -0.0547,-0.0137 -0.002,-0.002 h -0.004 l -0.25196,-0.0625 -0.0508,-0.0137 -0.0762,-0.0195 -0.0801,-0.0156 -0.041,-0.008 -0.0117,-0.002 -0.26758,-0.0508 -0.0176,-0.004 -0.041,-0.008 -0.0957,-0.0195 -0.0976,-0.01 -0.0586,-0.006 -0.17187,-0.0215 -0.0176,-0.002 -0.0293,-0.006 -0.0762,-0.0137 -0.0781,-0.006 -0.0449,-0.004 h -0.004 l -0.004,-0.002 -0.30664,-0.0254 -0.0254,-0.002 -0.0645,-0.006 -0.0664,-0.002 -0.0566,-0.002 -0.01,-0.002 h -0.008 l -0.3125,-0.008 h -0.0254 -0.0254 -0.0469 -0.0469 -0.0215 -0.0215 l -0.53515,0.0117 h -0.0215 l -0.0195,0.002 -0.0469,0.002 h -0.002 l -0.0449,0.002 -0.0254,0.002 h -0.0234 l -0.54687,0.0371 -0.0273,0.002 -0.0273,0.004 -0.041,0.004 -0.0469,0.004 -0.0469,0.006 -0.0234,0.004 -0.0176,0.002 -0.47266,0.0508 -0.0176,0.002 -0.0215,0.002 -0.0566,0.006 -0.0566,0.01 -0.0176,0.002 -0.0195,0.004 -0.53711,0.0781 -0.01,0.002 -0.0312,0.004 -0.0547,0.008 -0.0547,0.0117 -0.0195,0.004 -0.0195,0.004 -0.51172,0.0977 -0.0312,0.006 h -0.004 l -0.01,0.002 -0.0566,0.008 -0.0644,0.0156 -0.0156,0.004 -0.0176,0.004 -0.56836,0.1289 -0.008,0.002 -0.01,0.002 -0.0332,0.008 -0.0117,0.004 -0.0137,0.004 -0.0312,0.008 -0.0117,0.002 -0.01,0.002 -0.59765,0.15625 -0.0156,0.004 -0.0137,0.004 -0.0352,0.01 -0.0156,0.004 -0.0137,0.006 -0.0332,0.01 h -0.006 l -0.004,0.002 -0.60547,0.18164 -0.0859,0.0254 -0.0273,0.0117 -0.01,0.004 -0.60742,0.20117 -0.0215,0.008 -0.0195,0.008 -0.0273,0.01 -0.0273,0.01 -0.008,0.002 -0.006,0.002 -0.61329,0.22461 -0.0137,0.004 -0.0137,0.006 -0.0586,0.0195 -0.0371,0.0176 -0.0195,0.008 -0.0274,0.0117 -0.56836,0.22461 -0.0254,0.01 -0.0254,0.01 -0.0254,0.0117 -0.0234,0.01 -0.01,0.004 -0.01,0.004 -0.62695,0.26953 -0.0195,0.008 -0.004,0.002 -0.0625,0.0254 -0.0625,0.0312 -0.0137,0.006 -0.01,0.006 -0.59179,0.27148 -0.008,0.004 -0.0137,0.006 -0.0664,0.0293 -0.041,0.0234 -0.63086,0.30859 -0.008,0.004 -0.008,0.004 -0.0195,0.01 -0.0391,0.0195 -0.0312,0.0176 -0.006,0.004 -0.0176,0.01 -0.55665,0.28711 -0.0176,0.008 -0.0859,0.0391 -0.0879,0.0527 -0.01,0.006 -0.63476,0.34571 -0.0215,0.0117 -0.0371,0.0195 -0.0234,0.0156 -0.0117,0.006 -0.0195,0.0117 -1.05469,0.60742 -0.006,0.004 -0.0215,0.0117 -0.0273,0.0156 -0.0312,0.0176 -0.0293,0.0176 -1.01953,0.63086 -0.0293,0.0176 -0.0273,0.0195 -0.0117,0.008 -0.0176,0.0117 -0.008,0.004 -0.0273,0.0176 -0.95117,0.63672 -0.01,0.008 -0.01,0.006 -0.0312,0.0215 -0.0254,0.0176 -0.0254,0.0176 -0.0195,0.0156 -0.01,0.006 -0.85156,0.61718 -0.0332,0.0234 -0.0606,0.043 -0.0566,0.0488 -0.002,0.002 -0.01,0.008 -0.0215,0.0176 -0.73828,0.58399 -0.0293,0.0215 -0.01,0.008 -0.002,0.002 -0.0898,0.0664 -0.082,0.0781 -0.0137,0.0117 -0.0215,0.0215 -0.61523,0.53516 -0.0391,0.0312 -0.0859,0.0703 -0.0781,0.0781 -0.01,0.01 -0.0254,0.0254 -0.63672,0.61328 -0.008,0.008 -0.0352,0.0332 -0.0488,0.0488 -0.0469,0.0508 -0.0371,0.0391 -0.004,0.006 -0.59375,0.64453 v 0.002 h -0.002 l -0.043,0.0469 -0.0449,0.0488 -0.043,0.0527 -0.0312,0.041 -0.008,0.008 -0.52149,0.64648 -0.006,0.008 -0.006,0.008 -0.0449,0.0566 -0.0371,0.0469 -0.0352,0.0488 -0.041,0.0586 -0.002,0.002 v 0.002 l -0.45703,0.65625 0.008,-0.0137 -0.0332,0.0469 -0.0332,0.0469 -0.0293,0.0488 -0.0293,0.0469 -0.004,0.006 -0.004,0.006 -0.20313,0.33008 -0.006,0.01 -0.006,0.01 -0.0234,0.0391 -0.008,0.0137 -0.008,0.0137 -0.0215,0.0371 -0.01,0.0156 -0.008,0.0137 -0.1836,0.33008 -0.01,0.0195 -0.01,0.0176 -0.0176,0.0332 -0.0176,0.0332 -0.008,0.0137 -0.008,0.0156 -0.16797,0.33008 -0.002,0.006 -0.004,0.006 -0.0195,0.0391 -0.0156,0.0332 -0.0156,0.0332 -0.0195,0.043 v 0.002 l -0.002,0.002 -0.15039,0.33204 -0.006,0.0137 -0.006,0.0137 -0.0195,0.0449 -0.006,0.0137 -0.006,0.0137 -0.0195,0.0469 -0.008,0.0176 -0.008,0.0195 -0.12695,0.32227 -0.004,0.01 -0.0117,0.0293 -0.0215,0.0547 -0.0176,0.0547 -0.008,0.0215 -0.006,0.0195 -0.10938,0.3125 v 0.002 l -0.0176,0.0488 -0.0215,0.0664 -0.0195,0.0684 -0.0137,0.0508 -0.0742,0.26172 -0.0312,0.0937 -0.0234,0.0957 -0.004,0.0195 -0.006,0.0234 -0.0742,0.31054 -0.002,0.008 -0.002,0.01 -0.0117,0.0508 -0.008,0.0352 -0.008,0.0371 -0.01,0.0508 v 0.006 l -0.002,0.006 -0.0625,0.33594 v 0.006 l -0.002,0.008 -0.01,0.0547 -0.008,0.0391 -0.004,0.0391 -0.008,0.0566 -0.002,0.01 -0.002,0.01 -0.043,0.33594 0.002,-0.004 -0.006,0.0449 -0.002,0.004 v 0.006 l -0.006,0.0469 -0.006,0.043 -0.004,0.043 -0.0273,0.33594 v 0.0137 l -0.002,0.0156 -0.004,0.0586 -0.002,0.0312 v 0.0332 l -0.002,0.0566 -0.002,0.0117 v 0.01 l -0.008,0.33789 v 0.0234 0.0234 0.0605 0.0332 l 0.002,0.0312 0.002,0.0605 v 0.004 0.006 l 0.0254,0.67578 v 0.01 l 0.002,0.0508 0.002,0.0644 0.006,0.0644 0.006,0.0606 v 0.002 l 0.0762,0.78516 0.002,0.0137 0.002,0.0293 0.008,0.0801 0.0117,0.0664 0.002,0.0137 0.1289,0.90235 0.006,0.0312 0.006,0.0332 0.002,0.0137 0.004,0.0195 0.002,0.0156 0.002,0.0117 0.002,0.0117 0.17188,0.96093 0.002,0.0137 0.002,0.0137 0.0117,0.084 0.0156,0.0625 0.004,0.0195 0.002,0.006 0.004,0.0195 0.22461,1.08594 0.002,0.0117 0.002,0.008 0.0137,0.0664 0.0156,0.0586 0.002,0.008 0.27344,1.20117 -0.004,-0.0117 0.004,0.0176 0.004,0.0176 0.006,0.0234 0.006,0.0234 0.33984,1.37305 v 0.002 l 0.002,0.002 0.004,0.0156 0.008,0.0332 0.002,0.006 0.006,0.0254 0.004,0.0137 0.36328,1.375 0.004,0.0234 0.0254,0.0898 0.002,0.0117 0.43359,1.55664 v 0.004 l 0.006,0.0215 0.006,0.0195 0.0117,0.0391 0.0176,0.0664 0.006,0.0137 0.45507,1.57617 0.002,0.01 0.0156,0.0508 0.002,0.01 0.01,0.0293 0.0156,0.0566 0.006,0.0137 0.50195,1.67578 0.0352,0.17578 0.0508,0.10352 0.51171,1.65234 0.0156,0.0996 0.0606,0.14844 1.33789,4.16797 0.0469,0.14648 0.0156,0.0312 1.42187,4.25586 v 0.0137 l 0.10547,0.31446 0.73438,2.16015 0.0449,0.12891 0.008,0.0156 0.67578,1.90235 0.006,0.0215 0.008,0.0176 0.0195,0.0547 0.002,0.004 0.70898,1.90821 0.008,0.0195 0.004,0.01 0.002,0.006 0.004,0.008 v 0.002 l 0.002,0.002 0.002,0.004 0.002,0.008 0.69726,1.78906 0.0137,0.0332 0.004,0.01 0.004,0.01 0.004,0.0117 0.004,0.006 v 0.002 l 0.002,0.002 0.004,0.0117 0.008,0.0176 0.66602,1.61328 0.008,0.0195 0.002,0.002 0.0117,0.0332 0.0156,0.0352 0.004,0.006 0.004,0.0117 0.65625,1.49805 0.01,0.0234 0.004,0.008 0.0215,0.0547 0.0195,0.0391 0.0117,0.0234 0.64648,1.38281 0.004,0.01 0.008,0.0156 0.0254,0.0566 0.0176,0.0293 0.0117,0.0234 v 0.002 l 0.0137,0.0234 0.625,1.2461 0.0117,0.0215 0.01,0.0215 0.0156,0.0293 0.0156,0.0293 0.006,0.008 0.004,0.008 0.63672,1.16797 0.004,0.008 0.004,0.006 0.0195,0.0351 0.0195,0.0352 0.0156,0.0293 0.0156,0.0273 0.62696,1.04688 0.008,0.0137 0.008,0.0117 0.0254,0.041 0.0117,0.0195 0.0117,0.0176 0.0254,0.0391 0.006,0.01 0.006,0.008 0.61328,0.92188 0.008,0.0117 0.008,0.01 0.0254,0.0371 0.0137,0.0215 0.0156,0.0215 0.0254,0.0352 0.004,0.004 0.002,0.004 0.30274,0.41406 0.008,0.01 0.008,0.01 0.0176,0.0234 0.0176,0.0234 0.01,0.0137 0.01,0.0137 0.29883,0.38477 0.01,0.0117 0.008,0.0117 0.0234,0.0293 0.0234,0.0293 0.0156,0.0176 0.0137,0.0176 0.29492,0.35157 0.0176,0.0195 0.0156,0.0195 0.0293,0.0332 0.0195,0.0215 0.0215,0.0215 0.0137,0.0137 0.0156,0.0176 0.24805,0.27148 0.0273,0.0312 0.0215,0.0254 0.0215,0.0234 0.0274,0.0293 0.0215,0.0215 0.0215,0.0234 0.28907,0.29102 0.0215,0.0195 0.0215,0.0195 0.0391,0.0371 0.0195,0.0195 0.0195,0.0176 0.0352,0.0312 0.004,0.004 0.27735,0.25 0.006,0.006 0.0391,0.0352 0.0508,0.0488 0.0547,0.043 0.0391,0.0293 0.008,0.008 0.25391,0.20117 0.0234,0.0195 0.0215,0.0176 0.0508,0.043 0.0547,0.0391 0.0488,0.0352 0.006,0.004 0.006,0.006 0.28125,0.19922 0.0117,0.008 0.0117,0.008 0.0625,0.043 0.041,0.0274 0.041,0.0254 0.0664,0.041 0.0117,0.008 0.0117,0.008 0.27734,0.16601 0.0176,0.01 0.0176,0.01 0.0684,0.0391 0.0488,0.0273 0.0488,0.0254 0.0703,0.0352 0.002,0.002 h 0.004 l 0.25195,0.125 0.006,0.002 0.0176,0.01 0.0527,0.0273 0.0898,0.0469 0.0957,0.0371 0.0742,0.0293 0.006,0.002 0.21484,0.084 0.0176,0.008 0.0644,0.0254 0.10938,0.0449 0.11523,0.0312 0.0469,0.0117 0.0391,0.0117 0.22851,0.0664 0.0312,0.01 0.0312,0.01 0.0879,0.0293 0.0937,0.0195 0.041,0.008 0.0234,0.006 0.32617,0.0723 0.006,0.002 h 0.002 l 0.084,0.0215 0.0957,0.0156 0.0391,0.006 0.32227,0.0586 0.0332,0.006 0.0156,0.004 0.082,0.0156 0.082,0.01 0.0195,0.002 0.0195,0.002 0.0117,0.002 0.98047,0.12891 h -0.01 l 0.043,0.006 0.043,0.006 0.0449,0.004 0.043,0.004 h 0.004 0.004 l 1.23633,0.10742 0.0137,0.002 0.0195,0.002 h 0.004 l 0.0176,0.002 0.0137,0.002 h 0.0156 l 0.0508,0.004 1.41797,0.0801 h 0.002 l 0.0195,0.002 0.0918,0.008 h 0.0898 0.006 0.0156 l 1.56445,0.0547 0.0664,0.008 h 0.0937 0.0176 0.0176 l 1.92578,0.0352 h 0.0176 0.0176 0.0117 0.0117 l 2.1875,0.0137 h 0.006 0.006 0.0234 0.0234 0.0176 0.0176 l 1.08398,-0.0195 h 0.0332 0.002 0.0566 l 0.0586,-0.004 h 0.0176 l 1.07031,-0.0547 h 0.002 0.002 l 0.0371,-0.002 0.0527,-0.004 0.0508,-0.006 h 0.004 l 0.0332,-0.004 0.99024,-0.0859 h 0.0117 l 0.0117,-0.002 0.0391,-0.004 0.0723,-0.008 0.0703,-0.0117 0.0215,-0.004 0.0234,-0.004 0.8125,-0.10547 0.0117,-0.002 0.0313,-0.002 0.0879,-0.008 0.0879,-0.0176 0.043,-0.008 -0.0117,0.004 0.92578,-0.16211 0.0234,-0.004 0.0234,-0.006 0.0488,-0.01 0.0488,-0.01 0.0254,-0.004 0.0254,-0.006 0.87695,-0.19921 0.0391,-0.01 0.0371,-0.01 0.0332,-0.01 0.0176,-0.004 0.0352,-0.01 0.0234,-0.006 0.0215,-0.006 0.83008,-0.23633 h 0.002 l 0.0547,-0.0156 0.0625,-0.0195 0.0606,-0.0215 0.041,-0.0137 0.0137,-0.006 0.74023,-0.25781 0.0254,-0.008 0.0332,-0.0117 0.0664,-0.0215 0.0664,-0.0273 0.0566,-0.0234 0.002,-0.002 h 0.004 l 0.72265,-0.30274 0.01,-0.004 0.0566,-0.0234 0.0898,-0.0371 0.0859,-0.0469 0.0254,-0.0137 0.006,-0.004 0.0312,-0.0156 0.64258,-0.32227 0.006,-0.004 0.0566,-0.0273 0.0644,-0.0332 0.0625,-0.0371 0.0625,-0.0371 h 0.002 l 0.002,-0.002 0.63476,-0.37891 h 0.002 l 0.002,-0.002 0.0684,-0.041 0.0586,-0.0352 0.0566,-0.0391 0.0645,-0.0449 0.006,-0.006 0.008,-0.004 0.58789,-0.41797 0.01,-0.008 0.008,-0.006 0.0644,-0.0469 0.0566,-0.041 0.0527,-0.043 0.0586,-0.0508 h 0.002 l 0.52539,-0.44141 0.004,-0.002 0.008,-0.008 0.0547,-0.0449 0.0625,-0.0508 0.0566,-0.0566 0.0625,-0.0605 0.0117,-0.008 0.01,-0.01 0.49218,-0.49024 v -0.002 l 0.002,-0.002 0.0469,-0.0469 0.0586,-0.0586 0.0547,-0.0645 0.0176,-0.0215 0.0156,-0.0176 0.01,-0.0117 0.19922,-0.22461 0.002,-0.004 0.0274,-0.0293 0.041,-0.0469 0.0371,-0.0488 0.008,-0.0117 0.0195,-0.0234 0.14257,-0.17969 0.0117,-0.0137 0.0156,-0.0176 0.0684,-0.0781 0.0605,-0.084 0.0234,-0.0332 0.14649,-0.20117 0.0195,-0.0254 0.008,-0.01 0.004,-0.006 0.0566,-0.0723 0.0449,-0.0723 0.008,-0.01 0.0195,-0.0312 0.004,-0.006 0.16015,-0.23828 0.004,-0.006 0.041,-0.0625 0.002,-0.002 0.004,-0.008 2.53906,-3.95117 0.002,-0.002 0.11524,-0.17579 2.67187,-4.12695 0.0137,-0.0293 2.54688,-3.9004 0.004,-0.004 0.11133,-0.16992 2.69727,-4.09375 0.0664,-0.0996 v -0.002 l 2.53516,-3.8125 0.0918,-0.0898 0.0898,-0.18164 2.6582,-3.9707 0.004,-0.01 2.72852,-4.03711 v -0.002 l 0.004,-0.004 0.004,-0.006 0.004,-0.006 2.74219,-4.02343 v -0.002 l 0.0762,-0.10937 0.002,-0.006 2.68945,-3.91406 0.008,-0.0117 0.008,-0.0117 0.004,-0.006 2.76172,-3.98828 0.01,-0.0156 0.01,-0.0137 0.004,-0.006 2.77148,-3.9668 v -0.002 l 0.0391,-0.0547 0.004,-0.006 2.76563,-3.92773 0.0156,-0.0215 0.004,-0.006 0.01,-0.0156 0.004,-0.006 2.79101,-3.92969 0.0176,-0.0234 0.004,-0.008 2.81641,-3.93164 0.0195,-0.0273 2.81445,-3.9043 0.006,-0.006 0.002,-0.002 0.008,-0.0117 2.86524,-3.93555 0.0234,-0.0332 2.76757,-3.77344 0.0879,-0.11914 2.89258,-3.91211 0.0293,-0.0391 0.002,-0.002 2.79102,-3.7461 0.084,-0.11132 0.0312,-0.043 2.8086,-3.73242 0.082,-0.10938 2.92383,-3.86133 0.008,-0.006 2.875,-3.76367 0.0781,-0.10156 2.96289,-3.84766 0.043,-0.0547 0.002,-0.004 2.85937,-3.67969 0.0742,-0.0957 2.97656,-3.802733 0.01,-0.0078 2.93945,-3.72461 0.0703,-0.08789 2.95118,-3.708984 0.002,-0.002 0.0684,-0.08398 2.9668,-3.701172 0.0664,-0.08203 3.04883,-3.767578 0.0586,-0.07227 2.93946,-3.607422 0.0625,-0.07617 3.01172,-3.666015 0.004,-0.0039 0.0606,-0.07227 3.05664,-3.691406 0.0176,-0.01953 0.0215,-0.02344 0.0371,-0.04492 0.0156,-0.01953 0.004,-0.0059 0.006,-0.0078 0.98633,-1.251953 0.01,-0.01367 0.006,-0.0059 0.0274,-0.03711 0.0273,-0.03711 0.002,-0.002 0.0137,-0.01953 0.83203,-1.115234 0.004,-0.0039 0.0137,-0.01953 0.002,-0.002 0.0293,-0.03906 0.0293,-0.04102 0.0137,-0.01953 0.004,-0.0059 0.72656,-1.041016 0.0117,-0.01758 0.0117,-0.01758 0.0234,-0.03516 0.0234,-0.03516 0.0117,-0.01758 0.0117,-0.01758 0.59766,-0.939453 0.002,-0.0039 0.002,-0.002 0.0234,-0.03711 0.0195,-0.0332 0.0195,-0.0332 0.0215,-0.03711 h 0.002 v -0.002 l 0.24805,-0.429687 0.0137,-0.02539 0.0156,-0.02734 0.0137,-0.02539 0.0117,-0.02344 0.002,-0.002 0.20703,-0.386718 0.008,-0.01367 0.0137,-0.02539 0.0195,-0.0332 0.0176,-0.03516 0.0195,-0.03906 0.006,-0.01172 0.006,-0.01172 0.18164,-0.375 0.004,-0.0078 0.002,-0.0078 0.0176,-0.03711 0.01,-0.01758 0.008,-0.01758 0.0176,-0.03906 0.006,-0.01367 0.006,-0.01172 0.15039,-0.347656 0.0254,-0.05859 0.0215,-0.05273 0.0195,-0.05273 0.0215,-0.05859 0.002,-0.0059 0.004,-0.0059 0.11523,-0.320313 0.004,-0.01367 0.004,-0.01367 0.0215,-0.0625 0.0215,-0.0625 0.0176,-0.0625 0.01,-0.03906 0.008,-0.02539 0.0742,-0.257812 0.002,-0.0098 0.0254,-0.08398 0.0293,-0.09961 0.0176,-0.09961 0.0176,-0.0957 0.0488,-0.265625 v -0.002 -0.002 l 0.0195,-0.107422 0.0195,-0.105469 0.008,-0.107422 0.008,-0.105469 v -0.002 l 0.0176,-0.226562 V 63.875 l 0.0117,-0.136719 0.0117,-0.158203 -0.0117,-0.158203 -0.0117,-0.140625 v -0.0078 l -0.0215,-0.275391 v -0.0039 -0.0039 l -0.0137,-0.171875 -0.0137,-0.162109 -0.0391,-0.160156 -0.041,-0.166016 v -0.0039 l -0.002,-0.0039 -0.0684,-0.267578 v -0.0039 l -0.0371,-0.144531 -0.0371,-0.150391 -0.0605,-0.144531 -0.0566,-0.134766 -0.002,-0.0039 -0.10742,-0.255859 -0.002,-0.002 v -0.002 l -0.0645,-0.152344 -0.0645,-0.152344 -0.0879,-0.138672 -0.0859,-0.134765 -0.002,-0.0039 -0.14062,-0.222656 -0.0137,-0.02148 -0.0605,-0.09961 -0.0879,-0.142578 -0.10938,-0.126953 -0.0781,-0.08789 -0.0156,-0.01953 -0.18359,-0.214844 -0.002,-0.002 v -0.002 l -0.0801,-0.09375 -0.0742,-0.08594 -0.082,-0.07617 -0.0898,-0.08398 -0.006,-0.0059 -0.006,-0.0059 -0.24218,-0.222656 -0.008,-0.0078 -0.008,-0.0059 -0.0781,-0.07031 -0.0586,-0.05273 -0.0625,-0.04687 -0.084,-0.06445 -0.0117,-0.01172 -0.0137,-0.0098 -0.28711,-0.21289 -0.008,-0.0059 -0.01,-0.0059 -0.0781,-0.05664 -0.0684,-0.04883 -0.0703,-0.04297 -0.084,-0.05078 -0.004,-0.002 -0.002,-0.002 -0.33203,-0.199219 -0.008,-0.0039 -0.008,-0.0059 -0.0996,-0.05859 -0.0781,-0.04492 -0.082,-0.03906 -0.10352,-0.04883 -0.0137,-0.0059 -0.0137,-0.0078 -0.39649,-0.179687 h -0.002 -0.002 l -0.0996,-0.04492 -0.10352,-0.04687 -0.10742,-0.03516 -0.0918,-0.0293 -0.0117,-0.0039 -0.46094,-0.150391 -0.01,-0.0039 -0.0723,-0.02344 -0.084,-0.0293 -0.0859,-0.01953 -0.082,-0.01953 h -0.002 l -0.002,-0.002 -0.56446,-0.132813 -0.0664,-0.01563 -0.084,-0.01953 -0.084,-0.01172 -0.0312,-0.0039 -0.0352,-0.0059 -0.61328,-0.101563 h -0.002 l -0.0449,-0.0078 -0.0391,-0.0078 -0.041,-0.0039 -0.0469,-0.0059 -0.008,-0.002 h -0.008 l -0.70899,-0.08203 -0.0254,-0.0039 -0.0195,-0.002 -0.084,-0.01172 -0.0879,-0.0039 -0.0391,-0.002 h -0.006 l -0.6875,-0.04883 -0.0508,-0.0078 -0.0703,-0.0039 -0.0312,-0.002 -0.0215,-0.002 h -0.0215 l -0.85351,-0.03516 -0.0293,-0.002 -0.0664,-0.0039 h -0.0664 -0.006 -0.0234 l -0.96484,-0.01172 h -0.0117 -0.0117 -0.0195 -0.0176 -0.002 -0.002 z m -19.32226,48.878904 -2.00781,-1.27539 2.56836,-1.82422 z m -11.78906,15.44141 -2.125,-1.32617 2.66015,-1.89453 z m -68.11914,31.7539 -2.82032,-2.89453 3.23828,-1.125 z m 34.69726,14.93946 -2.83203,1.51953 0.93945,-3.07422 z m -10.95312,16.34765 -1.67188,0.90235 0.78516,-1.72852 z"
       style="font-style:normal;font-variant:normal;font-weight:normal;font-stretch:normal;font-size:12px;font-family:Webdings;-inkscape-font-specification:Webdings;display:inline;opacity:1;fill:#ffffff;fill-opacity:1;stroke:none;stroke-width:1px;stroke-linecap:butt;stroke-linejoin:miter;stroke-opacity:1;stop-opacity:1"
       id="path868" />
    <path
       transform="translate(-59.248047,-52.677734)"
       id="path2510"
       d="m 135.54716,142.77173 c 3.3481,9e-5 5.88067,2.74727 7.59774,8.24162 3.43394,10.30209 5.88067,15.45308 7.34018,15.45303 1.11599,5e-5 2.27498,-0.85844 3.47696,-2.57551 24.12379,-38.63249 46.44482,-69.88192 66.96313,-93.74842 5.32256,-6.18103 13.7788,-9.27164 25.36873,-9.27181 2.74706,1.7e-4 4.59283,0.25771 5.53734,0.77264 0.94418,0.51527 1.41637,1.15915 1.41654,1.93165 -1.7e-4,1.20206 -1.41669,3.56295 -4.24959,7.08264 -33.13832,39.8346 -63.87266,81.90116 -92.2031,126.19977 -1.97465,3.09064 -6.00959,4.63595 -12.1049,4.63592 -6.18125,3e-5 -9.8299,-0.25753 -10.94587,-0.77267 -2.91896,-1.28771 -6.35297,-7.85524 -10.30203,-19.7026 -4.46425,-13.13503 -6.69637,-21.37663 -6.69632,-24.72486 -5e-5,-3.60563 3.00472,-7.08256 9.01426,-10.43079 3.69152,-2.06034 6.95382,-3.09052 9.78693,-3.09061"
       style="font-style:normal;font-variant:normal;font-weight:normal;font-stretch:normal;font-size:12px;font-family:Webdings;-inkscape-font-specification:Webdings;display:inline;opacity:1;fill:#000000;fill-opacity:1;stroke:none;stroke-width:1px;stroke-linecap:butt;stroke-linejoin:miter;stroke-opacity:1;stop-opacity:1"
       inkscape:connector-curvature="0" />
  </g>
</svg>
