<?xml version="1.0" encoding="UTF-8" standalone="no"?>
<svg
   xmlns:dc="http://purl.org/dc/elements/1.1/"
   xmlns:cc="http://creativecommons.org/ns#"
   xmlns:rdf="http://www.w3.org/1999/02/22-rdf-syntax-ns#"
   xmlns:svg="http://www.w3.org/2000/svg"
   xmlns="http://www.w3.org/2000/svg"
   xmlns:sodipodi="http://sodipodi.sourceforge.net/DTD/sodipodi-0.dtd"
   xmlns:inkscape="http://www.inkscape.org/namespaces/inkscape"
   width="210mm"
   height="297mm"
   viewBox="0 0 210 297"
   version="1.1"
   id="svg8"
   inkscape:version="1.0.1 (c497b03c, 2020-09-10)"
   sodipodi:docname="check-and-cross.svg">
  <defs
     id="defs2" />
  <sodipodi:namedview
     id="base"
     pagecolor="#ffffff"
     bordercolor="#666666"
     borderopacity="1.0"
     inkscape:pageopacity="0.0"
     inkscape:pageshadow="2"
     inkscape:zoom="3.1433045"
     inkscape:cx="327.34376"
     inkscape:cy="207.8747"
     inkscape:document-units="mm"
     inkscape:current-layer="layer3"
     inkscape:document-rotation="0"
     showgrid="false"
     inkscape:window-width="1621"
     inkscape:window-height="943"
     inkscape:window-x="0"
     inkscape:window-y="25"
     inkscape:window-maximized="0" />
  <metadata
     id="metadata5">
    <rdf:RDF>
      <cc:Work
         rdf:about="">
        <dc:format>image/svg+xml</dc:format>
        <dc:type
           rdf:resource="http://purl.org/dc/dcmitype/StillImage" />
        <dc:title></dc:title>
      </cc:Work>
    </rdf:RDF>
  </metadata>
  <g
     inkscape:groupmode="layer"
     id="layer2"
     inkscape:label="Check"
     style="display:inline">
    <path
       id="path1226"
       style="display:inline;fill:#30b34b;fill-opacity:1;stroke-width:0.333333"
       d="m 203.77734,142.24219 c -23.95708,0.0312 -23.21511,0.37577 -25.93359,1.93359 -1.99494,1.14319 -4.82085,4.05169 -5.79687,5.96484 -1.77261,3.47462 -1.70313,1.07393 -1.70313,57.73438 0,56.66045 -0.0695,54.26171 1.70313,57.73633 0.93572,1.83415 3.75675,4.78019 5.62695,5.87695 0.82757,0.48532 2.47825,1.13995 3.66992,1.45313 2.00508,0.52678 6.13252,0.56412 55.33398,0.50195 l 53.16602,-0.0684 1.87305,-0.75781 c 4.2851,-1.73328 7.3664,-4.87712 8.82226,-9.00196 l 0.79102,-2.24023 v -53.5 -53.5 l -0.79102,-2.24023 c -1.45586,-4.12484 -4.53716,-7.26868 -8.82226,-9.00196 l -1.87305,-0.75781 -52.83203,-0.0937 c -14.51731,-0.0257 -25.24868,-0.0495 -33.23438,-0.0391 z m 8.39258,11.6914 c 6.66904,-0.002 14.70215,0.005 24.28711,0.0215 l 51.61133,0.0879 0.80469,0.93555 0.80468,0.93359 v 51.96289 51.96289 l -0.80468,0.93555 -0.80469,0.93554 -51.7793,0.0723 c -55.75417,0.0772 -53.01924,0.1555 -53.93554,-1.55664 -0.22919,-0.42825 -0.3418,-17.69004 -0.3418,-52.41992 0,-56.59217 -0.13894,-52.71246 1.90234,-53.55469 0.5181,-0.21373 8.24874,-0.30913 28.25586,-0.31641 z m 55.06055,25.71094 c -1.03932,-0.0192 -2.06287,0.24765 -2.95703,0.8418 -0.45973,0.30547 -7.71257,6.78034 -16.11719,14.38867 -22.13978,20.04217 -26.56281,24 -26.82031,24 -0.12654,0 -3.33656,-3.375 -7.13282,-7.5 -7.6089,-8.26783 -7.37848,-8.11427 -10.13476,-6.75 -3.28397,1.62547 -6.94847,6.62387 -6.13281,8.36523 0.18501,0.395 1.59077,2.07538 3.12304,3.73243 1.53227,1.65705 6.21642,6.73441 10.41016,11.2832 7.33469,7.95566 7.66453,8.26279 8.64648,8.06641 2.65645,-0.53129 4.52285,-1.89659 12.41407,-9.07227 12.33904,-11.2202 37.84701,-34.24865 39.11328,-35.3125 2.42702,-2.03906 2.97914,-5.15187 1.45117,-8.16797 -1.21661,-2.40148 -3.57678,-3.83279 -5.86328,-3.875 z"
       transform="scale(0.26458333)"
       inkscape:export-filename="/Users/jeffpiazza/Cub Scouts/Pinewood Derby/Software Development/derbynet/website/img/small-check.png"
       inkscape:export-xdpi="17.59"
       inkscape:export-ydpi="17.59" />
  </g>
  <g
     inkscape:groupmode="layer"
     id="layer3"
     inkscape:label="Cross"
     style="display:inline;opacity:1">
    <path
       id="path1233"
       style="display:inline;fill:#ed2724;fill-opacity:1;stroke-width:0.333333"
       d="m 441.39258,142.25586 c -6.75183,-0.002 -14.73152,0.006 -24.04883,0.0234 l -52.5,0.0957 -1.80273,0.73828 c -4.43395,1.81515 -7.41253,4.83147 -8.88086,8.99219 l -0.80078,2.26953 v 53.5 53.5 l 0.80078,2.26953 c 1.74997,4.9588 6.12152,8.71051 11.14062,9.55859 0.84872,0.1434 24.86866,0.27641 53.37695,0.29493 56.8139,0.0366 54.55392,0.11097 58.13086,-1.93555 2.07821,-1.18902 4.84345,-4.00958 5.83399,-5.95117 1.77256,-3.47462 1.70117,-1.07588 1.70117,-57.73633 0,-56.67894 0.0713,-54.2584 -1.70703,-57.74414 -1.88277,-3.69057 -6.30047,-6.84354 -10.625,-7.58008 -1.15359,-0.19635 -10.36365,-0.28932 -30.61914,-0.29492 z m 1.15625,11.67773 c 19.98554,0.007 27.70652,0.10265 28.22461,0.31641 2.04132,0.84223 1.90429,-3.03748 1.90429,53.55469 0,34.87715 -0.11244,51.98992 -0.34375,52.42187 -0.18878,0.35272 -0.78096,0.8696 -1.3164,1.14649 -0.85663,0.44311 -7.13108,0.49961 -52.24024,0.47656 -28.19659,-0.0145 -51.49062,-0.10845 -51.76562,-0.20899 -0.275,-0.10052 -0.8375,-0.48996 -1.25,-0.86523 l -0.75,-0.68164 V 207.875 155.6582 l 0.85937,-0.80859 0.85938,-0.80664 51.55664,-0.0879 c 9.57446,-0.0163 17.59987,-0.0239 24.26172,-0.0215 z m -48.61914,23.8418 c -1.66243,0.0516 -3.34894,0.81827 -4.34766,2.1582 -1.16719,1.56593 -1.0418,6.47854 0.14649,5.74414 0.25133,-0.15541 0.29545,-0.0904 0.125,0.18555 -0.17753,0.28726 3.20113,3.88601 10.52929,11.2168 l 10.79102,10.79492 -10.79102,10.79492 c -7.32816,7.33079 -10.70693,10.93151 -10.52929,11.21875 0.17045,0.27595 0.12633,0.34096 -0.125,0.18555 -0.5,-0.30902 -1.05079,1.12888 -1.05079,2.74414 0,2.35118 1.74379,4.52752 4.04102,5.04297 1.43649,0.32232 2.85791,0.0877 4.125,-0.67969 0.55,-0.33311 5.72045,-5.33889 11.49023,-11.125 l 10.49219,-10.51953 11.00977,10.97266 c 11.98511,11.94625 11.98073,11.94462 14.96289,11.30859 1.93651,-0.41302 3.70564,-2.26731 4.03711,-4.23047 0.4659,-2.75759 0.20825,-3.09006 -11.43946,-14.79492 L 426.5332,207.875 437.39648,196.95898 c 11.63872,-11.69566 11.90497,-12.03925 11.44141,-14.7832 -0.25682,-1.51998 -1.81319,-3.51784 -3.13867,-4.02539 -1.17052,-0.4482 -3.46415,-0.41303 -4.4082,0.0664 -0.42898,0.21786 -5.65886,5.25724 -11.6211,11.19922 l -10.83984,10.80273 -10.49219,-10.52148 c -5.77107,-5.7874 -10.98981,-10.83263 -11.5957,-11.21094 -0.82606,-0.51581 -1.81504,-0.7419 -2.8125,-0.71094 z"
       transform="scale(0.26458333)"
       inkscape:export-filename="/Users/jeffpiazza/Cub Scouts/Pinewood Derby/Software Development/derbynet/website/img/small-cross.png"
       inkscape:export-xdpi="17.59"
       inkscape:export-ydpi="17.59" />
  </g>
</svg>
