<?xml version="1.0" encoding="UTF-8" standalone="no"?>
<svg
   xmlns:dc="http://purl.org/dc/elements/1.1/"
   xmlns:cc="http://creativecommons.org/ns#"
   xmlns:rdf="http://www.w3.org/1999/02/22-rdf-syntax-ns#"
   xmlns:svg="http://www.w3.org/2000/svg"
   xmlns="http://www.w3.org/2000/svg"
   xmlns:sodipodi="http://sodipodi.sourceforge.net/DTD/sodipodi-0.dtd"
   xmlns:inkscape="http://www.inkscape.org/namespaces/inkscape"
   inkscape:version="1.0beta1 (32d4812, 2019-09-19)"
   inkscape:export-ydpi="72"
   inkscape:export-xdpi="72"
   inkscape:export-filename="/Users/jeffpiazza/Cub Scouts/Pinewood Derby/Software Development/derbynet/website/img/timer-testing.png"
   sodipodi:docname="gears.svg"
   id="svg22"
   preserveAspectRatio="xMidYMid meet"
   viewBox="0 0 512 512"
   height="512pt"
   width="512pt"
   version="1.0">
  <defs
     id="defs26" />
  <sodipodi:namedview
     inkscape:current-layer="layer2"
     inkscape:window-maximized="0"
     inkscape:window-y="23"
     inkscape:window-x="0"
     inkscape:cy="560"
     inkscape:cx="348.57143"
     inkscape:zoom="0.35"
     showgrid="false"
     id="namedview24"
     inkscape:window-height="907"
     inkscape:window-width="1600"
     inkscape:pageshadow="2"
     inkscape:pageopacity="0"
     guidetolerance="10"
     gridtolerance="10"
     objecttolerance="10"
     borderopacity="1"
     inkscape:document-rotation="0"
     bordercolor="#666666"
     pagecolor="#ffffff" />
  <metadata
     id="metadata10">
Created by potrace 1.15, written by Peter Selinger 2001-2017
<rdf:RDF>
  <cc:Work
     rdf:about="">
    <dc:format>image/svg+xml</dc:format>
    <dc:type
       rdf:resource="http://purl.org/dc/dcmitype/StillImage" />
    <dc:title></dc:title>
  </cc:Work>
</rdf:RDF>
</metadata>
  <g
     style="display:none"
     inkscape:label="Layer 1"
     id="layer1"
     inkscape:groupmode="layer">
    <path
       d="m 361.5282,-173.24427 c -1.92,7.2 -4,14.72 -4.64,16.72 l -1.04,3.68 -5.04,0.56 c -2.72,0.32 -7.36,1.12 -10.32,1.76 -2.96,0.72 -5.76,1.04 -6.16,0.8 -0.4,-0.32 -4.8,-6.32 -9.68,-13.52 -4.96,-7.12 -9.28,-13.28 -9.6,-13.6 -0.4,-0.48 -21.04,8.24 -22.16,9.36 -0.16,0.08 1.76,7.68 4.24,16.8 2.4,9.2 4.32,16.72 4.16,16.8 -2.08,1.52 -10.72,8.4 -13.36,10.72 l -3.6,3.12 -15.44,-7.44 -15.44,-7.44 -6.8,9.6 c -3.76,5.28 -6.8,9.84 -6.8,10.16 0,0.32 5.44,5.92 12,12.56 l 12,12 -2.64,6.4 c -1.52,3.52 -3.12,8.08 -3.68,10.16 -1.2,4.4 -0.16,4.08 -18.48,5.44 -5.92,0.48 -12.32,1.04 -14.08,1.28 l -3.28,0.4 -1.04,11.52 c -0.56,6.4 -0.88,11.84 -0.56,12.08 0.24,0.24 7.44,2.4 16,4.72 8.56,2.32 16,4.4 16.48,4.72 0.48,0.32 0.88,1.92 0.88,3.52 0,1.600002 0.72,6.160002 1.52,10.160002 0.8,3.92 1.36,7.44 1.2,7.76 -0.24,0.32 -6.48,4.8 -13.92,9.9199996 -7.52,5.1199999 -13.6,9.6800004 -13.6,10.0800004 0,0.88 8.72,20 9.44,20.8 0.48,0.48 24.48,-5.28 31.84,-7.68 1.36,-0.4 2.4,0.48 6.16,5.28 2.4,3.2 5.52,6.88 6.88,8.16 1.36,1.36 2.48,2.64 2.48,2.96 0,0.32 -3.28,7.52 -7.2,15.92 -4,8.48 -7.2,15.52 -7.04,15.6 2,1.76 18.8,13.2 19.44,13.2 0.48,0 6.16,-5.36 12.72,-11.92 l 11.92,-11.92 4.08,1.84 c 2.24,0.96 6.64,2.56 9.68,3.6 3.12,0.96 5.84,2.08 6.24,2.32 0.32,0.32 1.12,7.92 1.84,16.96 0.72,8.96 1.52,16.559998 1.84,16.879998 0.24,0.32 5.68,1.04 12,1.6 9.36,0.88 11.52,0.96 11.84,0.08 0.24,-0.56 2.32,-7.999998 4.64,-16.479998 l 4.16,-15.36 2.72,-0.56 c 1.52,-0.32 6.4,-1.2 10.96,-2 l 8.16,-1.52 9.84,14.16 c 9.44,13.6 9.84,14.08 11.76,13.2 1.12,-0.48 6,-2.72 10.96,-5.04 l 8.96,-4.16 -4,-15.04 c -2.16,-8.24 -4.16,-15.76 -4.4,-16.72 -0.32,-1.36 0.4,-2.32 3.84,-4.72 2.32,-1.68 6.08,-4.88 8.4,-7.04 l 4.16,-3.92 15.68,7.36 c 8.56,4.08 15.76,7.28 15.92,7.12 1.12,-1.28 12.64,-17.84 12.88,-18.56 0.16,-0.56 -5.04,-6.56 -11.52,-13.36 -10.56,-10.96 -11.84,-12.5600005 -11.04,-14.0000005 0.48,-0.88 2.16,-5.35999992 3.84,-9.9999995 l 2.96,-8.4 9.84,-0.88 c 5.44,-0.56 13.2,-1.2 17.2,-1.52 l 7.28,-0.56 0.96,-9.68 c 0.48,-5.360002 0.88,-10.880002 0.88,-12.160002 v -2.4 l -16.4,-4.4 c -14.16,-3.76 -16.48,-4.56 -16.72,-6 -0.16,-0.88 -0.88,-5.2 -1.52,-9.6 -0.72,-4.4 -1.44,-8.56 -1.76,-9.2 -0.32,-0.88 3.52,-3.92 13.92,-11.12 l 14.32,-9.84 -4.96,-10.72 c -3.04,-6.64 -5.36,-10.64 -6.08,-10.72 -0.64,0 -7.92,1.84 -16.16,4 -15.28,4.08 -17.44,4.48 -17.44,3.36 0,-0.4 -2.88,-4.16 -6.4,-8.48 l -6.48,-7.76 6.88,-14.56 c 3.84,-8 7.12,-14.96 7.36,-15.44 0.16,-0.56 -4.08,-4.08 -9.52,-7.84 l -9.76,-6.88 -12.16,12.08 -12.16,12.16 -7.12,-2.88 c -3.84,-1.52 -8.56,-3.2 -10.32,-3.68 -3.84,-1.04 -3.44,0.56 -5.2,-22.64 l -0.96,-12.56 -3.28,-0.48 c -3.2,-0.4 -19.28,-2 -20.4,-2 -0.24,0 -2.08,5.84 -4,12.96 z m 15.12,47.44 c 31.2,4.72 57.52,26.72 67.6,56.48 2.96,8.72 4.4,17.52 4.4,27.52 0,19.680002 -6.24,37.520002 -18.4,52.640002 -11.76,14.64 -26.96,24.56 -45.28,29.44 -9.12,2.48 -27.84,3.04 -37.12,1.12 -32.24,-6.56 -57.36,-29.84 -66,-61.28 -2.88,-10.240002 -3.6,-26.720002 -1.68,-36.960002 3.44,-18.08 11.76,-33.44 25.12,-46.32 19.2,-18.48 45.04,-26.72 71.36,-22.64 z"
       id="path12"
       inkscape:connector-curvature="0"
       style="opacity:1;fill:#000000;stroke:none;stroke-width:0.08;stop-opacity:1" />
    <path
       d="m -114.0718,-100.84427 c -0.24,0.8 -3.12,10.56 -6.48,21.76 -3.28,11.12 -6,20.32 -6,20.48 0,0.08 -2.64,0.4 -5.76,0.72 -3.2,0.32 -9.76,1.36 -14.64,2.4 -4.8,1.04 -8.8,1.84 -8.88,1.76 -0.08,0 -5.6,-8 -12.32,-17.68 -6.64,-9.68 -12.4,-17.92 -12.72,-18.24 -0.48,-0.48 -28.32,11.44 -29.6,12.64 -0.16,0.24 2.16,10.08 5.12,22.08 4.72,18.72 5.28,21.84 4.24,22.4 -2.16,1.2 -10.8,7.840002 -15.2,11.680002 -2.32,2.08 -4.8,4.24 -5.52,4.8 -1.12,0.88 -4.16,-0.24 -21.44,-8.16 -11.04,-5.04 -20.4,-9.200002 -20.8,-9.200002 -0.56,0 -16.56,20.960002 -18.72,24.560002 -0.4,0.72 4.32,5.8399996 15.36,16.64 l 15.92,15.68 -2.64,5.76 c -1.44,3.2 -3.84,9.2 -5.28,13.36 -1.44,4.16 -2.64,7.68 -2.72,7.84 -0.16,0.16 -10.4,1.12 -22.88,2.24 -12.48,1.12 -22.96,2.32 -23.2,2.56 -0.48,0.56 -4.16,30.64 -3.76,30.96 0.16,0.08 10.16,2.64 22.24,5.76 l 22,5.599998 0.56,5.92 c 0.56,5.52 2.48,16.56 3.52,20.4 0.4,1.52 -1.92,3.36 -18.24,14.32 -10.24,6.96 -18.96,12.88 -19.28,13.2 -0.56,0.48 10.72,26.56 12.16,28.16 0.24,0.32 10.56,-2.08 22.88,-5.36 12.24,-3.28 22.32,-5.92 22.4,-5.76 1.2,1.92 11.04,14.16 14.08,17.52 l 4.08,4.56 -10.24,20.08 -10.32,20.16 2.48,1.92 c 1.36,1.04 7.2,5.2 12.96,9.12 l 10.48,7.2 16.56,-15.76 c 9.04,-8.72 17.12,-15.76 17.84,-15.76 0.72,0.08 4,1.28 7.28,2.72 3.28,1.36 8.88,3.36 12.4,4.4 l 6.4,1.84 0.48,4 c 0.32,2.16 0.96,11.92 1.52,21.6 0.56,9.76 1.28,18.08 1.6,18.56 0.56,0.96 30.88,3.84 31.68,3.04 0.24,-0.24 2.16,-6.56 4.4,-13.92 8.4,-28.56 8.64,-29.04 10.56,-29.44 0.96,-0.16 4.96,-0.8 8.8,-1.28 3.92,-0.56 9.6,-1.6 12.64,-2.4 l 5.600001,-1.36 5.44,7.68 c 2.96,4.24 8.72,12.48 12.8,18.32 6.08,8.72 7.68,10.56 8.96,10.16 2,-0.64 27.199997,-12.24 27.759997,-12.72 0.24,-0.24 -2,-9.92 -4.959997,-21.44 -2.88,-11.6 -5.28,-21.28 -5.28,-21.52 0,-0.32 2.8,-2.64 6.24,-5.12 3.359997,-2.56 8.479997,-6.72 11.359997,-9.28 l 5.2,-4.56 8,3.6 c 4.4,2 13.6799999,6.32 20.64,9.52 l 12.64,5.84 9.6,-12.88 9.6,-12.96 -15.92,-16 -16,-16.08 3.12,-6.4 c 1.68,-3.52 4,-9.36 5.2,-13.04 1.2,-3.6 2.4,-6.8 2.72,-6.96 0.32,-0.16 10.72,-1.28 23.2,-2.4 12.48,-1.12 22.8,-2.16 22.88,-2.24 0.16,-0.24 3.12,-27.999998 3.12,-29.679998 0,-1.36 -2.88,-2.24 -22,-7.2 l -22,-5.68 -0.96,-8.24 c -0.48,-4.56 -1.52,-10.8 -2.16,-13.76 -0.72,-3.04 -1.28,-5.68 -1.28,-5.92 0,-0.16 8.64,-6.16 19.2,-13.28 10.56,-7.04 19.2,-12.96 19.2,-13.12 0,-0.08 -2.88,-6.48 -6.4,-14.1600005 -5.04,-11.1199995 -6.64,-13.8399995 -7.76,-13.6799995 -0.8,0.16 -10.96,2.8 -22.56,5.8399996 -11.6,3.11999994 -21.1200001,5.5199999 -21.2800001,5.3599999 -0.16,-0.16 -1.84,-2.47999996 -3.84,-5.1999999 C 0.00819796,-4.604268 -4.071802,-9.404268 -7.031802,-12.524268 l -5.36,-5.76 10.16,-19.840002 c 5.5199999,-10.96 10.0799999,-20.24 10.0799999,-20.72 0,-0.8 -24.2399999,-17.76 -25.4399999,-17.76 -0.64,0 -11.28,9.92 -29.439997,27.44 l -4.16,3.92 -8.48,-3.28 c -4.64,-1.84 -10.8,-3.92 -13.6,-4.64 l -5.12,-1.36 -0.4,-4.48 c -0.32,-2.4 -0.96,-12.24 -1.44,-21.76 -0.56,-9.6 -1.2,-17.76 -1.52,-18.16 -0.24,-0.48 -7.120001,-1.36 -15.200001,-2 -18,-1.52 -16.64,-1.6 -17.12,0.08 z m 22.8,78.480002 c 43.760001,10.32 75.039998,41.36 83.999998,83.44 2.32,10.8 2.56,29.52 0.48,40.399998 -8.72,46.8 -45.519997,83.6 -92.959998,93.04 -36.48,7.2 -74.8,-3.76 -100.56,-28.88 -9.12,-8.88 -15.76,-18.16 -21.52,-29.84 -5.36,-10.96 -8.08,-19.84 -9.84,-31.84 -5.04,-33.919998 7.36,-69.439998 33.2,-94.959998 16.48,-16.24 39.28,-28 62.72,-32.4 9.44,-1.68 35.2,-1.12 44.48,1.04 z"
       id="path14"
       inkscape:connector-curvature="0"
       style="opacity:1;fill:#000000;stroke:none;stroke-width:0.08;stop-opacity:1" />
    <path
       d="m 562.2482,156.83573 -4.24,16.8 -6.08,0.96 c -3.36,0.48 -8.16,1.44 -10.8,2.08 -2.56,0.64 -4.72,1.12 -4.88,0.96 -0.08,-0.16 -4.4,-6.16 -9.6,-13.44 -5.12,-7.28 -9.68,-13.52 -10,-13.84 -0.88,-0.96 -22.48,9.52 -22,10.8 0.8,2.24 9.12,32.16 8.96,32.32 -5.68,4.4 -10.48,8.4 -13.12,10.96 l -3.36,3.2 -15.28,-6.96 c -8.4,-3.76 -15.52,-6.88 -15.92,-6.88 -0.4,0 -3.68,4.4 -7.28,9.68 l -6.64,9.76 12.24,12.08 12.16,12.08 -1.36,3.6 c -0.8,2 -2.32,6.48 -3.44,10 -1.12,3.52 -2.16,6.56 -2.32,6.72 -0.16,0.24 -7.92,1.12 -17.28,2 l -16.96,1.68 -0.56,6.4 c -0.32,3.52 -0.72,8.96 -1.04,12.08 l -0.48,5.68 16.8,4.24 16.8,4.24 0.56,3.68 c 0.48,3.44 2,11.68 3.04,16.08 0.4,1.84 -0.72,2.8 -13.6,11.92 -7.68,5.44 -13.92,10.16 -13.76,10.48 2.8,6.88 10,20.8 10.8,20.8 0.64,0 8.16,-2 16.88,-4.48 l 15.76,-4.4 2,2.56 c 1.12,1.44 4.32,5.28 7.12,8.56 l 5.04,5.84 -6.88,15.04 c -3.76,8.32 -6.88,15.36 -6.88,15.76 0,0.4 4.4,3.76 9.84,7.44 l 9.76,6.64 12.08,-12.56 c 11.6,-12.08 12.16,-12.56 14,-11.52 1.04,0.56 5.68,2.32 10.32,3.92 l 8.4,2.88 1.6,16.4 c 0.88,8.96 1.84,16.72 2.16,17.2 0.4,0.56 4.8,1.12 10.8,1.44 5.68,0.32 10.8,0.72 11.52,0.96 1.04,0.24 2,-2.72 5.52,-16.48 3.76,-14.64 4.48,-16.88 5.92,-17.12 0.96,-0.16 4.96,-0.88 8.88,-1.6 4,-0.72 8.08,-1.44 9.2,-1.76 1.92,-0.4 2.8,0.64 11.6,12.96 5.28,7.36 9.84,13.68 10.08,14.08 0.24,0.4 5.28,-1.68 11.2,-4.56 8.08,-4 10.64,-5.6 10.48,-6.64 -0.16,-0.72 -2.24,-8.24 -4.64,-16.56 l -4.24,-15.2 2.56,-2 c 1.36,-1.12 5.12,-4.24 8.32,-7.04 3.2,-2.72 6,-4.96 6.24,-4.96 0.24,0 7.28,3.12 15.68,6.88 8.4,3.84 15.52,6.56 15.84,6.24 0.32,-0.4 3.44,-4.8 6.88,-9.84 l 6.24,-9.04 -12.24,-12.24 -12.24,-12.24 2.88,-7.92 c 1.6,-4.32 3.2,-8.96 3.6,-10.24 l 0.72,-2.4 16.88,-1.68 c 9.36,-0.96 17.12,-1.84 17.28,-2 0.4,-0.48 2.16,-23.28 1.84,-23.6 -0.16,-0.24 -7.68,-2.24 -16.8,-4.56 l -16.4,-4.16 -0.96,-6.16 c -0.48,-3.44 -1.44,-8.32 -2.08,-10.8 -0.64,-2.48 -0.88,-4.72 -0.56,-5.04 0.32,-0.32 6.4,-4.64 13.44,-9.6 7.04,-4.96 13.12,-9.28 13.44,-9.6 1.04,-0.88 -9.52,-22.48 -10.8,-22 -0.56,0.24 -7.52,2.24 -15.44,4.4 -7.92,2.24 -14.96,4.24 -15.68,4.4 -0.88,0.32 -2,-0.56 -3.28,-2.56 -1.12,-1.68 -4.32,-5.52 -7.04,-8.48 l -4.96,-5.44 6.88,-15.12 c 3.76,-8.4 6.88,-15.52 6.88,-15.92 0,-0.4 -4.4,-3.68 -9.68,-7.28 l -9.68,-6.56 -12.24,12.16 -12.24,12.24 -3.52,-1.44 c -1.84,-0.8 -6.48,-2.4 -10.24,-3.6 l -6.8,-2.16 -1.6,-17.12 -1.6,-17.12 -6.8,-0.56 c -3.76,-0.24 -9.2,-0.72 -12.08,-1.04 l -5.28,-0.48 z m 22.8,44.56 c 18.56,3.84 36.96,15.28 48.88,30.24 6,7.52 13.04,21.2 15.44,30.16 8.16,30.24 -0.32,61.6 -22.64,83.44 -32.96,32.24 -86.48,32 -118.88,-0.4 -16.8,-16.8 -24.96,-36.32 -25.12,-59.84 -0.16,-21.6 6.48,-39.52 20.72,-56.32 12.4,-14.56 33.04,-25.68 52.8,-28.4 7.44,-1.04 20.88,-0.48 28.8,1.12 z"
       id="path18"
       inkscape:connector-curvature="0"
       style="opacity:1;fill:#000000;stroke:none;stroke-width:0.08;stop-opacity:1" />
  </g>
  <g
     inkscape:label="Layer 2"
     id="layer2"
     inkscape:groupmode="layer">
    <path
       d="m 185.5282,20.835732 c -2.4,8.88 -4.8,16.16 -5.52,16.72 -0.72,0.56 -2.56,1.04 -4.08,1.04 -1.6,0 -6,0.64 -9.92,1.44 l -6.96,1.44 -9.68,-14.24 c -5.36,-7.92 -10.16,-14.16 -10.64,-14 -0.48,0.24 -5.44,2.48 -11.12,4.96 -8.96,4.08 -10.16,4.8 -9.68,6.24 0.24,0.88 2.24,8.4 4.32,16.72 l 3.84,15.12 -4.48,3.28 c -2.56,1.84 -6.24,4.96 -8.32,6.88 l -3.84,3.6 -4.96,-2.24 c -2.8,-1.2 -9.600002,-4.48 -15.200002,-7.28 -5.6,-2.8 -10.56,-5.12 -10.96,-5.12 -0.4,0 -3.84,4.4 -7.68,9.68 l -6.96,9.68 12.16,12.24 12.16,12.159998 -2.24,5.12 c -1.12,2.8 -2.96,7.44 -3.92,10.32 -1.6,4.72 -2,5.2 -4.08,5.44 -1.28,0.08 -8.88,0.64 -16.88,1.2 -8.08,0.64 -14.8,1.28 -14.96,1.44 -0.32,0.32 -2.88,23.36 -2.56,23.68 0.08,0.08 7.52,2.24 16.64,4.72 l 16.48,4.56 0.56,5.28 c 0.24,2.88 1.04,7.52 1.68,10.32 0.64,2.8 1.12,5.36 1.12,5.68 0,0.32 -6.32,4.88 -14,10.08 -7.68,5.2 -14,9.84 -14,10.16 0,0.64 8.72,20.56 9.36,21.36 0.08,0.16 7.44,-1.52 16.24,-3.76 8.72,-2.32 16.24,-4.16 16.64,-4.16 0.4,0 2.32,2.08 4.24,4.56 1.920002,2.56 5.040002,6.32 6.880002,8.32 l 3.44,3.68 -7.52,15.68 -7.520002,15.6 9.280002,6.64 c 5.04,3.68 9.6,6.88 10,7.04 0.4,0.16 6.16,-5.12 12.88,-11.76 l 12.08,-12.08 3.6,1.6 c 2,0.96 6.48,2.72 10,4 3.92,1.36 6.56,2.8 6.96,3.68 0.24,0.8 0.96,8.56 1.52,17.2 0.56,8.72 1.2,15.84 1.44,15.84 0.24,0 5.2,0.56 10.88,1.2 5.76,0.64 10.96,1.2 11.68,1.2 0.88,0 2.24,-3.76 5.52,-15.44 2.32,-8.4 4.56,-16 4.96,-16.8 0.48,-0.88 1.68,-1.36 3.68,-1.36 1.6,0 6.4,-0.72 10.56,-1.52 4.16,-0.88 7.6,-1.44 7.68,-1.36 0,0 4.24,6.32 9.44,13.92 5.2,7.68 9.28,14 9.12,14.16 -0.16,0.16 -5.36,-2 -11.6,-4.88 -6.32,-2.8 -11.52,-5.12 -11.68,-5.12 -0.56,0 -13.36,19.04 -13.36,19.76 0,0.32 5.44,5.84 12.08,12.16 8.4,8.08 11.92,11.92 11.6,12.8 -0.24,0.72 -1.84,5.44 -3.6,10.48 -2.4,6.8 -3.6,9.28 -4.64,9.44 -0.8,0.08 -8.4,0.88 -16.88,1.68 -8.56,0.88 -15.6,1.68 -15.76,1.84 -0.48,0.48 -2.16,23.12 -1.76,23.52 0.24,0.24 7.68,2.32 16.64,4.56 l 16.16,4.24 1.84,9.52 c 0.96,5.28 2,10.16 2.24,10.8 0.32,0.88 -3.44,4 -13.52,11.12 -7.68,5.44 -14,10.24 -14,10.56 0,0.32 2.08,4.96 4.72,10.16 2.56,5.28 4.8,10 4.96,10.48 0.24,0.56 6.4,-0.88 17.12,-3.84 9.2,-2.64 16.8,-4.72 16.8,-4.64 0.16,0.72 7.12,9.04 10.24,12.24 l 3.92,4.16 -7.2,15.84 -7.2,15.84 9.68,6.64 c 5.36,3.68 9.92,6.64 10.24,6.64 0.32,0 5.84,-5.44 12.32,-12.16 11.28,-11.52 11.84,-12.08 13.92,-11.28 1.12,0.48 5.68,2.08 10.08,3.52 4.4,1.44 8.08,2.72 8.24,2.8 0.16,0.08 1.04,7.84 2,17.28 l 1.76,17.04 5.2,0.48 c 2.88,0.32 8.24,0.72 12,1.04 l 6.8,0.56 2.32,-9.04 c 1.2,-4.96 3.2,-12.48 4.24,-16.8 l 2.08,-7.68 6.24,-0.96 c 3.44,-0.48 8.16,-1.36 10.48,-2 2.32,-0.56 4.48,-0.88 4.8,-0.72 0.24,0.16 4.96,6.48 10.32,14 5.36,7.44 10,13.44 10.32,13.36 6.64,-2.64 20.8,-10 20.8,-10.72 0,-0.64 -2,-8.16 -4.48,-16.8 -2.4,-8.64 -4.32,-15.76 -4.16,-15.92 0.16,-0.08 2.4,-1.92 5.04,-4 2.64,-2.08 6.32,-5.28 8.16,-6.96 l 3.28,-3.2 15.12,6.88 c 8.24,3.76 15.44,6.88 15.84,6.88 0.48,0 3.92,-4.4 7.6,-9.76 l 6.72,-9.76 -12.48,-12.08 -12.48,-12 1.92,-4.4 c 1.04,-2.4 2.64,-6.96 3.6,-10 0.88,-3.12 1.84,-5.76 2,-5.92 0.16,-0.16 7.92,-1.04 17.28,-2 l 17.04,-1.68 0.88,-11.6 c 0.48,-6.4 0.72,-11.84 0.4,-12.16 -0.24,-0.24 -7.68,-2.32 -16.4,-4.56 -8.8,-2.24 -16.08,-4.24 -16.24,-4.4 -0.16,-0.16 -0.64,-2.56 -1.04,-5.36 -0.48,-2.8 -1.36,-7.6 -2.08,-10.56 -0.72,-2.96 -1.2,-5.52 -1.04,-5.68 0.16,-0.08 6.48,-4.64 14.08,-10 l 13.76,-9.76 -1.84,-4.16 c -5.28,-11.68 -8.16,-17.28 -8.96,-17.36 -0.48,0 -8,2 -16.8,4.48 l -15.92,4.4 -1.44,-1.84 c -0.8,-1.04 -3.92,-4.64 -6.8,-8.08 -2.96,-3.44 -5.44,-6.56 -5.6,-6.88 -0.08,-0.32 2.88,-7.36 6.64,-15.6 3.76,-8.24 6.8,-15.28 6.8,-15.52 -0.08,-0.32 -4.48,-3.52 -9.84,-7.2 l -9.76,-6.64 -12.16,12.4 -12.08,12.4 -5.6,-2.32 c -3.12,-1.28 -7.76,-2.88 -10.4,-3.6 l -4.72,-1.36 -1.6,-16.72 c -0.88,-9.2 -1.84,-16.96 -2.16,-17.28 -0.72,-0.8 -22.72,-2.24 -23.36,-1.6 -0.32,0.24 -2.4,7.84 -4.72,16.72 l -4.16,16.24 -4.72,0.56 c -2.56,0.24 -7.2,1.04 -10.16,1.76 -3.04,0.72 -5.76,1.28 -6.16,1.28 -0.64,0 -20,-26.56 -20,-27.44 0,-0.24 5.44,2.24 12.08,5.52 6.64,3.28 12.16,5.92 12.32,5.92 0.08,0 3.36,-4.32 7.2,-9.6 l 6.96,-9.6 -11.92,-12.56 -11.92,-12.48 2.96,-7.28 c 1.6,-4 3.2,-8.48 3.52,-9.92 0.32,-1.52 0.96,-2.8 1.44,-2.96 0.56,-0.24 8.32,-0.88 17.28,-1.6 9.04,-0.64 16.48,-1.36 16.64,-1.44 0.48,-0.48 2.72,-23.2 2.32,-23.6 -0.24,-0.24 -7.76,-2.48 -16.64,-4.96 l -16.24,-4.56 -0.24,-2.72 c -0.24,-2.88 -2.24,-14.4 -3.04,-17.2 -0.4,-1.36 1.68,-3.04 14,-11.36 l 14.32,-9.76 -4.8,-10.799998 c -2.72,-5.92 -5.28,-10.8 -5.84,-10.8 -0.56,0 -7.92,1.76 -16.48,4 -8.56,2.16 -15.76,4 -16,4 -0.24,0 -1.6,-1.6 -3.04,-3.6 -1.44,-2 -4.56,-5.84 -6.88,-8.48 l -4.24,-4.88 7.12,-14.72 c 3.92,-8.08 7.2,-15.12 7.28,-15.6 0.24,-0.96 -17.44,-14.32 -18.96,-14.32 -0.4,0 -6,5.2 -12.4,11.6 -6.4,6.4 -12.08,11.6 -12.64,11.6 -0.56,0 -2.32,-0.64 -4,-1.52 -1.6,-0.8 -5.92,-2.48 -9.44,-3.68 l -6.56,-2.16 -0.48,-4.96 c -0.24,-2.64 -0.88,-10.32 -1.36,-16.88 -0.48,-6.64 -1.12,-12.24 -1.36,-12.48 -0.56,-0.4800005 -18.64,-2.3200005 -22.16,-2.3200005 -1.36,0 -2.16,2 -5.92,15.8400005 z m 16.8,44.56 c 35.44,6.16 63.28,34.399998 69.12,70.079998 6.56,40.64 -17.28,80.4 -56.48,93.76 -42.48,14.64 -89.2,-6.88 -106.32,-48.8 -6.56,-16.32 -7.76,-36.72 -3.12,-53.84 2,-7.12 7.36,-18.88 11.68,-25.36 9.36,-14.239998 26.96,-27.519998 43.68,-33.039998 12.16,-4 28.56,-5.12 41.44,-2.8 z m 67.2,163.999998 2.4,1.28 -10.64,5.2 c -5.84,2.88 -10.72,5.36 -10.8,5.44 -0.08,0.08 1.92,7.52 4.48,16.64 l 4.64,16.56 -6.08,4.8 c -3.36,2.64 -7.12,5.84 -8.4,7.2 l -2.24,2.4 -3.52,-1.76 c -1.92,-0.88 -3.52,-1.84 -3.52,-2.08 0,-0.32 4.88,-2.64 10.8,-5.2 5.92,-2.56 10.8,-4.88 10.8,-5.04 0,-0.24 -1.76,-7.36 -4,-15.92 -2.16,-8.56 -4,-16 -4,-16.64 0,-0.56 2.4,-2.88 5.44,-5.12 2.96,-2.16 6.4,-5.12 7.68,-6.48 2.72,-2.8 3.6,-2.96 6.96,-1.28 z m 76.32,54.32 c 14.08,4.16 25.6,10.64 35.52,20.08 19.52,18.56 29.12,43.76 26.48,69.76 -3.04,29.92 -20.24,54.8 -46.8,67.84 -15.28,7.44 -30.72,10.32 -46.24,8.64 -48.32,-5.52 -82.32,-48.48 -75.68,-95.92 4.4,-31.76 26.56,-58.8 56.48,-68.8 10.96,-3.68 15.6,-4.32 29.84,-4 11.44,0.24 14.16,0.56 20.4,2.4 z"
       id="path16"
       inkscape:connector-curvature="0"
       style="opacity:1;fill:#ffff00;stroke:none;stroke-width:0.08;stop-opacity:1" />
  </g>
</svg>
