<?xml version="1.0" encoding="UTF-8" standalone="no"?>
<!-- Created with Inkscape (http://www.inkscape.org/) -->

<svg
   xmlns:dc="http://purl.org/dc/elements/1.1/"
   xmlns:cc="http://creativecommons.org/ns#"
   xmlns:rdf="http://www.w3.org/1999/02/22-rdf-syntax-ns#"
   xmlns:svg="http://www.w3.org/2000/svg"
   xmlns="http://www.w3.org/2000/svg"
   xmlns:sodipodi="http://sodipodi.sourceforge.net/DTD/sodipodi-0.dtd"
   xmlns:inkscape="http://www.inkscape.org/namespaces/inkscape"
   width="440"
   height="350"
   viewBox="0 0 440.00001 350.00001"
   id="svg4497"
   version="1.1"
   inkscape:version="0.91 r13725"
   sodipodi:docname="groups.svg"
   inkscape:export-filename="/Users/jeffpiazza/Cub Scouts/Pinewood Derby/Software Development/derbynet/website/img/settings-groups.png"
   inkscape:export-xdpi="40.91"
   inkscape:export-ydpi="40.91">
  <defs
     id="defs4499" />
  <sodipodi:namedview
     id="base"
     pagecolor="#ffffff"
     bordercolor="#666666"
     borderopacity="1.0"
     inkscape:pageopacity="0.0"
     inkscape:pageshadow="2"
     inkscape:zoom="1"
     inkscape:cx="249"
     inkscape:cy="250"
     inkscape:document-units="px"
     inkscape:current-layer="layer1"
     showgrid="false"
     units="px"
     inkscape:window-width="1880"
     inkscape:window-height="1155"
     inkscape:window-x="0"
     inkscape:window-y="0"
     inkscape:window-maximized="1" />
  <metadata
     id="metadata4502">
    <rdf:RDF>
      <cc:Work
         rdf:about="">
        <dc:format>image/svg+xml</dc:format>
        <dc:type
           rdf:resource="http://purl.org/dc/dcmitype/StillImage" />
        <dc:title></dc:title>
      </cc:Work>
    </rdf:RDF>
  </metadata>
  <g
     inkscape:label="Layer 1"
     inkscape:groupmode="layer"
     id="layer1"
     transform="translate(0,-702.36216)">
    <path
       id="path5066"
       d="m 407.61635,1008.1507 c 0,-34.42242 -22.40373,-62.3104 -50,-62.3104 -27.59627,0 -50,27.88798 -50,62.3104 0,5.3675 22.40373,9.7433 50,9.7433 27.59627,0 50,-4.3758 50,-9.7433 z"
       style="clip-rule:evenodd;fill:#c01b00;fill-opacity:1;fill-rule:evenodd;stroke:#000000;stroke-opacity:1;image-rendering:optimizeQuality;shape-rendering:geometricPrecision;text-rendering:geometricPrecision"
       inkscape:connector-curvature="0" />
    <path
       id="path5068"
       d="m 357.61635,888.89747 c 15.05251,0 27.24621,12.1937 27.24621,27.24621 0,15.05251 -12.1937,27.24621 -27.24621,27.24621 -15.05251,0 -27.24621,-12.1937 -27.24621,-27.24621 0,-15.05251 12.1937,-27.24621 27.24621,-27.24621 z"
       style="clip-rule:evenodd;fill:#ebb88b;fill-opacity:1;fill-rule:evenodd;stroke:#000000;stroke-opacity:1;image-rendering:optimizeQuality;shape-rendering:geometricPrecision;text-rendering:geometricPrecision"
       inkscape:connector-curvature="0" />
    <path
       style="clip-rule:evenodd;fill:#0046c0;fill-opacity:1;fill-rule:evenodd;stroke:#000000;stroke-opacity:1;image-rendering:optimizeQuality;shape-rendering:geometricPrecision;text-rendering:geometricPrecision"
       d="m 167.61635,862.15068 c 0,-34.4224 -22.40373,-62.31038 -50,-62.31038 -27.59627,0 -50.000004,27.88798 -50.000004,62.31038 0,5.36757 22.403734,9.7433 50.000004,9.7433 27.59627,0 50,-4.37573 50,-9.7433 z"
       id="path4516"
       inkscape:connector-curvature="0" />
    <path
       style="clip-rule:evenodd;fill:#ebb88b;fill-opacity:1;fill-rule:evenodd;stroke:#000000;stroke-opacity:1;image-rendering:optimizeQuality;shape-rendering:geometricPrecision;text-rendering:geometricPrecision"
       d="m 117.61635,742.89747 c 15.05251,0 27.24621,12.1937 27.24621,27.24621 0,15.05251 -12.1937,27.24621 -27.24621,27.24621 -15.05251,0 -27.24621,-12.1937 -27.24621,-27.24621 0,-15.05251 12.1937,-27.24621 27.24621,-27.24621 z"
       id="path4481"
       inkscape:connector-curvature="0" />
    <path
       id="path5058"
       d="m 127.61635,1008.1507 c 0,-34.42242 -22.40373,-62.3104 -50,-62.3104 -27.59627,0 -50,27.88798 -50,62.3104 0,5.3675 22.40373,9.7433 50,9.7433 27.59627,0 50,-4.3758 50,-9.7433 z"
       style="clip-rule:evenodd;fill:#0046c0;fill-opacity:1;fill-rule:evenodd;stroke:#000000;stroke-opacity:1;image-rendering:optimizeQuality;shape-rendering:geometricPrecision;text-rendering:geometricPrecision"
       inkscape:connector-curvature="0" />
    <path
       id="path5060"
       d="m 77.61635,888.89747 c 15.05251,0 27.24621,12.1937 27.24621,27.24621 0,15.05251 -12.1937,27.24621 -27.24621,27.24621 -15.05251,0 -27.24621,-12.1937 -27.24621,-27.24621 0,-15.05251 12.1937,-27.24621 27.24621,-27.24621 z"
       style="clip-rule:evenodd;fill:#c6845d;fill-opacity:1;fill-rule:evenodd;stroke:#000000;stroke-opacity:1;image-rendering:optimizeQuality;shape-rendering:geometricPrecision;text-rendering:geometricPrecision"
       inkscape:connector-curvature="0" />
    <path
       inkscape:connector-curvature="0"
       style="clip-rule:evenodd;fill:#0046c0;fill-opacity:1;fill-rule:evenodd;stroke:#000000;stroke-opacity:1;image-rendering:optimizeQuality;shape-rendering:geometricPrecision;text-rendering:geometricPrecision"
       d="m 213.61635,996.15068 c 0,-34.4224 -22.40373,-62.31038 -50,-62.31038 -27.59627,0 -50,27.88798 -50,62.31038 0,5.36752 22.40373,9.74332 50,9.74332 27.59627,0 50,-4.3758 50,-9.74332 z"
       id="path5062" />
    <path
       inkscape:connector-curvature="0"
       style="clip-rule:evenodd;fill:#593b2c;fill-opacity:1;fill-rule:evenodd;stroke:#000000;stroke-opacity:1;image-rendering:optimizeQuality;shape-rendering:geometricPrecision;text-rendering:geometricPrecision"
       d="m 163.61635,876.89747 c 15.05251,0 27.24621,12.1937 27.24621,27.24621 0,15.05251 -12.1937,27.24621 -27.24621,27.24621 -15.05251,0 -27.24621,-12.1937 -27.24621,-27.24621 0,-15.05251 12.1937,-27.24621 27.24621,-27.24621 z"
       id="path5064" />
    <path
       id="path5074"
       d="m 353.61635,1024.1507 c 0,-34.42242 -22.40373,-62.3104 -50,-62.3104 -27.59627,0 -50,27.88798 -50,62.3104 0,5.3675 22.40373,9.7433 50,9.7433 27.59627,0 50,-4.3758 50,-9.7433 z"
       style="clip-rule:evenodd;fill:#c01b00;fill-opacity:1;fill-rule:evenodd;stroke:#000000;stroke-opacity:1;image-rendering:optimizeQuality;shape-rendering:geometricPrecision;text-rendering:geometricPrecision"
       inkscape:connector-curvature="0" />
    <path
       id="path5076"
       d="m 303.61635,904.89747 c 15.05251,0 27.24621,12.1937 27.24621,27.24621 0,15.05251 -12.1937,27.24621 -27.24621,27.24621 -15.05251,0 -27.24621,-12.1937 -27.24621,-27.24621 0,-15.05251 12.1937,-27.24621 27.24621,-27.24621 z"
       style="clip-rule:evenodd;fill:#593b2c;fill-opacity:1;fill-rule:evenodd;stroke:#000000;stroke-opacity:1;image-rendering:optimizeQuality;shape-rendering:geometricPrecision;text-rendering:geometricPrecision"
       inkscape:connector-curvature="0" />
    <path
       inkscape:connector-curvature="0"
       style="clip-rule:evenodd;fill:#c01b00;fill-opacity:1;fill-rule:evenodd;stroke:#000000;stroke-opacity:1;image-rendering:optimizeQuality;shape-rendering:geometricPrecision;text-rendering:geometricPrecision"
       d="m 387.61635,868.15068 c 0,-34.4224 -22.40373,-62.31038 -50,-62.31038 -27.59627,0 -50,27.88798 -50,62.31038 0,5.36757 22.40373,9.7433 50,9.7433 27.59627,0 50,-4.37573 50,-9.7433 z"
       id="path5070" />
    <path
       inkscape:connector-curvature="0"
       style="clip-rule:evenodd;fill:#c6845d;fill-opacity:1;fill-rule:evenodd;stroke:#000000;stroke-opacity:1;image-rendering:optimizeQuality;shape-rendering:geometricPrecision;text-rendering:geometricPrecision"
       d="m 337.61635,748.89747 c 15.05251,0 27.24621,12.1937 27.24621,27.24621 0,15.05251 -12.1937,27.24621 -27.24621,27.24621 -15.05251,0 -27.24621,-12.1937 -27.24621,-27.24621 0,-15.05251 12.1937,-27.24621 27.24621,-27.24621 z"
       id="path5072" />
  </g>
</svg>
