<?xml version="1.0" encoding="UTF-8" standalone="no"?>
<svg
   xmlns:dc="http://purl.org/dc/elements/1.1/"
   xmlns:cc="http://creativecommons.org/ns#"
   xmlns:rdf="http://www.w3.org/1999/02/22-rdf-syntax-ns#"
   xmlns:svg="http://www.w3.org/2000/svg"
   xmlns="http://www.w3.org/2000/svg"
   xmlns:sodipodi="http://sodipodi.sourceforge.net/DTD/sodipodi-0.dtd"
   xmlns:inkscape="http://www.inkscape.org/namespaces/inkscape"
   version="1.0"
   width="1280.000000pt"
   height="1248.000000pt"
   viewBox="0 0 1280.000000 1248.000000"
   preserveAspectRatio="xMidYMid meet"
   id="svg4209"
   inkscape:version="0.91 r13725"
   sodipodi:docname="laurel.svg"
   inkscape:export-filename="/Users/jeffpiazza/Cub Scouts/Pinewood Derby/Software Development/derbynet/website/img/laurel.png"
   inkscape:export-xdpi="8.4399996"
   inkscape:export-ydpi="8.4399996">
  <defs
     id="defs4219" />
  <sodipodi:namedview
     pagecolor="#ffffff"
     bordercolor="#666666"
     borderopacity="1"
     objecttolerance="10"
     gridtolerance="10"
     guidetolerance="10"
     inkscape:pageopacity="0"
     inkscape:pageshadow="2"
     inkscape:window-width="1320"
     inkscape:window-height="938"
     id="namedview4217"
     showgrid="false"
     inkscape:zoom="0.15128205"
     inkscape:cx="800"
     inkscape:cy="780"
     inkscape:window-x="0"
     inkscape:window-y="0"
     inkscape:window-maximized="0"
     inkscape:current-layer="svg4209" />
  <metadata
     id="metadata4211">
Created by potrace 1.15, written by Peter Selinger 2001-2017
<rdf:RDF>
  <cc:Work
     rdf:about="">
    <dc:format>image/svg+xml</dc:format>
    <dc:type
       rdf:resource="http://purl.org/dc/dcmitype/StillImage" />
  </cc:Work>
</rdf:RDF>
</metadata>
  <path
     style="fill:#ffd700;stroke:#000000;fill-opacity:0.50196081;stroke-opacity:0.50196081;stroke-width:2.4;stroke-miterlimit:4;stroke-dasharray:none"
     inkscape:connector-curvature="0"
     id="path4215"
     d="M 523.5,2.6 C 519.7,4 507.3,7.7 496,11 443.9,26 427.4,37.7 417.1,66.8 l -2.6,7.4 -23.2,15.4 C 378.5,98 368,104.8 368,104.5 c 0,-0.2 1.8,-3.3 4.1,-6.7 5.6,-8.7 11.2,-20.8 15.3,-33 3.6,-10.9 14,-50.8 13.3,-51.4 -0.2,-0.2 -5.2,2.6 -11.1,6.1 -44.7,26.9 -73,54.9 -84.6,83.9 -6.3,15.6 -7.5,28.6 -4,42 l 2.1,7.8 -4.3,3.7 c -9.9,8.4 -27.6,25.2 -36.5,34.6 -7.9,8.4 -9.1,9.4 -7.5,6 5.7,-11.7 11.2,-32.2 13.2,-49 1.8,-16.2 0.8,-44.6 -2.5,-69.2 L 264.9,75 253.6,89.3 c -17.9,22.7 -25.8,33.4 -33.8,45.7 -14.6,22.4 -18.9,33.7 -21.9,57.4 -2.7,21.9 1.8,53 8.5,58.5 1.5,1.2 2.1,1.1 4.6,-0.7 1.6,-1.2 3.2,-2.2 3.5,-2.2 0.3,0 -2.8,4.6 -6.9,10.2 -7.7,10.8 -24.7,37.6 -31,49 -2.1,3.8 -3.9,6.8 -4,6.8 -0.2,0 0.1,-2.4 0.7,-5.3 0.5,-2.8 1,-13.3 1,-23.2 0,-26.2 -1.7,-34.8 -17.3,-84.3 -4.1,-12.8 -7.7,-22.9 -8,-22.5 -0.7,0.8 -9.9,29.1 -17.4,53.3 -4.9,15.9 -11.2,40.6 -13.2,52 -1.1,6.1 -1.8,14.9 -1.8,24.5 0,16.7 1.7,26 7.6,39.9 3.4,7.9 15.8,30.9 16.9,31.4 0.4,0.2 -0.4,3.3 -1.8,7 -4.3,11.1 -13.9,40.2 -15.9,47.9 -1,4 -2.1,7.3 -2.5,7.3 -0.4,0 -1,-2.1 -1.4,-4.8 -1,-7.1 -10,-33.1 -16,-46.4 -2.9,-6.5 -7.4,-14.6 -9.9,-18.2 -2.5,-3.6 -9.7,-15 -16,-25.3 C 63.1,323.2 61,322.4 61,340.5 c 0,4.4 -0.5,15 -1,23.5 -4.7,71.4 -2,99.5 11.8,126.5 5.7,11 15.3,21.2 26.1,27.5 7.3,4.3 7.3,4.4 6.7,8 -1.5,9.3 -3.7,37.2 -4.3,54.2 L 99.7,599 94.8,589.8 C 88.3,577.8 76.4,558.6 68.7,548 57.5,532.4 50.8,525 39.6,516 33.5,511.1 25.4,504.6 21.7,501.6 c -9.9,-8.1 -11.8,-7.5 -9.3,2.7 0.8,3.4 3.8,18.8 6.6,34.2 7.7,43 12.8,61.6 22.6,82.4 12.2,25.9 32,46.2 57.5,59.2 l 5.7,2.8 1.1,8.3 c 2.4,16.7 7.6,43.4 11.1,57.2 1,3.9 1.7,7.2 1.6,7.3 -0.2,0.2 -1.8,-1.8 -3.6,-4.3 C 109.2,743.3 97.8,732.6 88,726 82.8,722.5 71.8,714.9 63.5,709 39.8,692.2 2.6,668 0.5,668 c -1.5,0 0.5,4.8 11,26.9 16,33.8 33.5,68.1 41,80.6 18.1,30.3 44.3,51.3 78.3,63 5.7,1.9 12,3.5 13.9,3.5 3.3,0 3.6,0.3 6.1,6.3 3.8,9.1 25.2,51.1 30.1,59 4.4,7.2 4.2,7.3 -2.6,2.1 C 167.4,901.1 145.6,889 127.5,881.1 114,875.2 104.3,872 87.6,868 c -7.1,-1.7 -19.2,-5.4 -26.8,-8 -20.5,-7.3 -21.3,-5.9 -7,11.6 5.3,6.6 14.3,18 19.8,25.4 13,17.3 24.4,29.9 38.6,42.7 28.4,25.6 40.8,33.2 65.6,40.3 20.4,5.9 31,6.9 47.6,4.9 l 8.9,-1.1 2.6,3.4 c 10,12.8 33.9,37.6 54.6,56.7 l 8,7.4 -15.2,-7.7 c -17.1,-8.6 -19.7,-9.3 -52.8,-14 -48.5,-6.9 -99.7,-11.1 -105.8,-8.8 -1.5,0.7 -1.3,1.2 2,4.3 7.1,6.8 49.7,37.8 65.7,47.9 12.7,8 24.8,13.9 40.6,19.8 28.2,10.5 39.6,12.6 64.1,11.9 20.2,-0.6 26.8,-1.8 42.9,-8.2 l 11.6,-4.6 13.8,8.6 c 15,9.4 39.3,23 49.6,27.8 16.8,7.8 18.7,8.8 15,8.2 -1.9,-0.3 -14,-0.8 -26.8,-1.2 -31.8,-0.8 -39.3,0.1 -90.2,10.1 -15.1,3 -35.9,6.9 -46.2,8.8 -22.1,3.9 -23.5,5 -10.9,8.6 4.3,1.2 20.2,6.1 35.2,10.8 51.4,16 61.4,17.8 96.9,17.9 22.8,0 26.7,-0.2 36.3,-2.3 23,-4.8 38.6,-12.2 52.6,-24.8 6.2,-5.6 8.9,-7.5 10.5,-7.1 1.1,0.2 8.9,2.3 17.2,4.6 8.3,2.3 22.4,5.7 31.3,7.5 8.8,1.8 16.3,3.5 16.6,3.8 0.2,0.2 -1.9,1 -4.8,1.7 -13.3,3.4 -49.4,20.3 -102.7,48 -30.2,15.7 -39.4,21.2 -37.7,22.3 3.1,2 54.6,0 84.2,-3.3 36.5,-4 83.4,-20.3 102.6,-35.7 7.1,-5.7 14.5,-13.1 22,-21.9 l 3.6,-4.3 20.5,0 20.6,0 14.3,13.7 c 24.7,23.6 28.6,25.7 72.9,39.1 25.4,7.7 33,8.9 82.1,12.3 44.1,3.1 46.9,3.1 46.9,-0.2 0,-2.5 -26.5,-16.8 -43,-23.2 -5.2,-2 -13.8,-6.4 -19,-9.8 -13.6,-8.8 -24.9,-14.9 -38.5,-20.9 -12.4,-5.4 -45.7,-17 -48.7,-17 -1,0 -1.8,-0.3 -1.8,-0.8 0,-0.4 4.6,-1.6 10.3,-2.6 12.1,-2.2 37,-8.4 51.5,-12.8 5.6,-1.7 10.3,-2.9 10.5,-2.7 0.1,0.2 0.9,1.7 1.7,3.4 5,9.7 38.5,27 61,31.4 17.5,3.5 54.8,3.2 74,-0.4 17.3,-3.4 78.6,-22.1 88,-27 4.1,-2.1 3.9,-5 -0.2,-6.4 -5.2,-1.6 -40.2,-8.7 -64.8,-13 -40,-7.1 -51.7,-8.5 -72,-8.5 -17.9,0 -22.3,0.5 -45.8,4.9 -1.5,0.3 -0.4,-0.5 2.3,-1.7 23.8,-10.4 60.6,-30.7 84.2,-46.6 11.7,-7.9 12.1,-8 10.9,-4.9 -2.4,5.8 0.4,9.3 10.6,13.1 11.6,4.4 22.7,6 40.8,6 18.1,0 25.3,-1.1 44.5,-6.9 17.5,-5.3 31,-11.4 47.6,-21.5 27.7,-16.8 65.9,-43 71.8,-49.4 3,-3.2 2.2,-5.3 -2.4,-6.2 -5.9,-1.1 -70.9,3.8 -95,7.2 -29.5,4.1 -56.4,12.6 -76.5,24.3 l -5.5,3.2 5.5,-4.8 c 21.7,-18.9 43.2,-40.8 62.4,-63.5 5.4,-6.4 5.8,-6.7 7.9,-5.4 9.3,5.8 35,3.9 61.6,-4.6 13.2,-4.2 21.5,-8.6 35.6,-18.7 33,-23.6 45.6,-36.3 65.3,-65.7 8.3,-12.4 15,-20.4 22.5,-26.5 7,-5.8 8.8,-8.5 6.6,-10 -1.9,-1.3 -6.1,-0.5 -21.4,4.1 -7.1,2.1 -19.5,5.5 -27.5,7.6 -14.9,3.8 -25.9,7.6 -39,13.7 -18,8.3 -42,23.1 -56.9,35.1 -8.1,6.5 -8.3,6.6 -6,2.9 12.3,-19.9 31.6,-56.6 38.4,-73.1 1.5,-3.6 2.9,-5.5 3.7,-5.2 7.5,2.6 35.5,-8.1 56,-21.5 12.2,-8.1 29.6,-24.8 36.1,-35 12.3,-19.3 47,-88.4 53.3,-106.2 2.9,-8.2 1.4,-8.3 -10.7,-1.1 -14.1,8.5 -58,37.7 -70.9,47.3 -11.9,8.9 -26.5,23 -33.3,32.4 -2.6,3.5 -4.7,6.1 -4.7,5.9 0,-0.3 1.3,-5.6 3,-11.9 3.6,-14.1 8.3,-37.1 11,-54.9 1.2,-7.4 2.2,-13.5 2.3,-13.5 0.1,-0.1 2,-0.7 4.3,-1.3 5.8,-1.7 25,-13.4 32.3,-19.7 12.6,-11.1 21.6,-23.1 30.2,-40.5 9.6,-19.3 15.7,-40.5 21.9,-76.2 2.2,-12.8 5.5,-29 7.2,-35.9 4.3,-17.6 3.2,-19.5 -6.9,-11.1 -12.9,10.9 -49.1,50 -61.3,66.3 -7.4,9.9 -14.4,22.2 -19,33.2 l -3.7,8.7 -0.6,-21.7 c -0.6,-19 -2.4,-43.5 -4.3,-58.5 -0.6,-4.4 -0.5,-4.6 1.4,-4.1 3.9,1 11.4,-3.8 21.3,-13.6 8.4,-8.4 10.2,-10.8 14.1,-19.1 7.9,-16.6 12,-32.8 13.8,-54.7 1.7,-21.1 1.2,-38.4 -2.5,-85.3 -2.4,-30.1 -0.8,-29.2 -13.9,-7.9 -21,34.3 -36.9,64.4 -41.7,79.4 -1.8,5.8 -2.3,10 -2.7,24.8 -0.2,9.8 -0.6,17.7 -0.8,17.5 -0.2,-0.2 -1.9,-6.7 -3.9,-14.3 -4.5,-17.5 -13.9,-47 -20.4,-63.8 -3.3,-8.6 -4.3,-12.3 -3.2,-11.3 4.5,4.1 9.6,0 16.6,-13.6 5.2,-10.1 11.6,-28.6 14.1,-40.8 2.9,-14.6 0.8,-30.3 -9.2,-67.5 -5.1,-19 -18.7,-60.9 -20.4,-63 -3.3,-4 -8.1,4.9 -19,35 -4.9,13.7 -6.1,21.1 -7.2,47.6 -0.8,18.2 -0.9,29.4 -0.1,38.5 0.5,7.1 0.9,13 0.8,13.2 -0.2,0.2 -2.8,-4.4 -5.8,-10.1 -11.5,-21.4 -28.6,-48.1 -43.6,-68.1 -7.9,-10.6 -8.2,-12.5 -0.6,-4.6 2.2,2.3 6.2,5.8 8.9,7.8 l 4.9,3.6 2.3,-2.7 c 4.8,-5.6 7.7,-21.9 7.7,-43.2 0,-34.7 -8.8,-56.6 -37.7,-94 -5.7,-7.4 -28.6,-35.5 -31.8,-39 -0.9,-1 -0.4,21.3 1.3,64.6 0.9,24.7 2.3,36.1 5.4,45.4 1.9,5.6 9,20.7 13,27.5 1.5,2.5 2,3.6 1.1,2.6 -10.9,-13.4 -39.9,-42.5 -55.9,-56.4 -3.4,-2.9 -3.7,-3.4 -2.3,-4.8 2.8,-2.7 4,-9.7 4,-22.4 0,-14.5 -1.3,-20.8 -6.1,-30.5 C 968.6,82 948.2,58.5 927.2,41.8 914.7,31.9 890.2,16 887.3,16 c -3,0 -0.1,16 8.2,43.9 6.4,21.6 10.6,29.9 23.4,46.5 4.5,5.8 4.9,6.7 2.5,5.1 -1.6,-1 -9.2,-5.3 -16.9,-9.6 C 887,92.3 872.8,84.1 871.6,83 871.1,82.5 870.3,79.3 869.8,75.8 867.9,62 856.6,45.2 841.7,33.9 827.7,23.3 814.5,18.1 766.1,3.9 750.7,-0.6 748,-0.9 748,2 c 0,4.4 26.9,40.2 43.7,58 13.8,14.7 32.8,25.3 52.7,29.6 6.4,1.3 8.6,2.6 27.8,16.1 11.4,8 20.7,14.8 20.5,15 -0.2,0.1 -5.5,-0.1 -11.7,-0.6 -13.7,-1.1 -25.8,-0.1 -41.8,3.5 -14.5,3.2 -34.8,9.3 -46.7,13.9 -25.5,9.9 -22.6,11.5 32,17.5 15.4,1.7 28.7,3.3 29.5,3.5 0.8,0.3 9.8,0.9 19.9,1.5 20.4,1.2 51.8,-0.1 63.1,-2.4 l 6.5,-1.4 11.5,9.4 c 6.3,5.1 14.4,12 18,15.2 l 6.5,6 -9,-2.4 c -18.1,-4.8 -28.9,-5.9 -58.5,-5.8 -29.9,0.1 -36.2,0.9 -36.8,5 -0.4,3 2.1,4.7 15.8,10.7 6.9,3 22.6,10.3 35,16.2 22.2,10.6 44.2,19.7 55.2,22.9 8.4,2.4 27,5.4 38.6,6.2 l 10.4,0.7 10.5,13.7 c 5.7,7.6 13.2,17.8 16.6,22.6 5.3,7.7 5.8,8.6 3.2,6.9 -22.1,-14.6 -70.8,-32.3 -94.1,-34.2 -7.6,-0.6 -9.3,0.2 -7.5,3.6 2,3.6 72.9,63.6 87.2,73.7 20.5,14.6 44.3,28.2 53.3,30.5 l 4.5,1.1 4.7,10.7 c 4.8,10.8 17.4,43.5 17.4,45.1 0,0.5 -5.1,-4.3 -11.2,-10.7 -14.1,-14.4 -25.4,-23 -44.4,-33.9 -28.2,-16.2 -46.4,-24.1 -46.4,-20.2 0,2.1 4.9,9.2 12.1,17.3 12,13.8 26.6,35.4 39.3,58.4 3.2,5.7 7.4,12.7 9.5,15.5 12,16.2 34.6,38.1 51.3,49.8 4.9,3.5 9.6,6.7 10.4,7.3 2.2,1.5 6.5,31.7 9.3,64.5 0.4,5.2 0.7,9.6 0.6,9.8 -0.1,0.1 -1.7,-3.9 -3.5,-9 -4.3,-12.6 -10.8,-24.9 -17.5,-33.3 -7,-8.7 -62.4,-66 -63.9,-66 -2.1,0 -0.8,6.2 6.3,30.5 14.8,50.3 24.5,76.8 37.1,101.5 10,19.8 22.2,37.8 35,51.8 l 5.3,5.8 -0.7,8.2 c -1.6,18.1 -8.3,61.7 -9.6,61.7 -0.4,0 -1,-2.8 -1.3,-6.3 -1.9,-20.3 -13.3,-46 -40.5,-91.2 -11.3,-18.9 -17,-26.7 -19,-26.3 -2.5,0.5 -2.6,9.3 -0.7,41.3 3.4,58.7 6.4,91.2 9.7,104 4.5,18.2 17.4,46.8 25.9,57.6 l 2.8,3.6 -5.8,14.4 c -9.4,23.2 -27.1,60.1 -27.1,56.4 0,-0.6 0.5,-7.5 1,-15.4 2,-29.7 -3.8,-69.8 -15.1,-103.6 -4.4,-13.3 -7.9,-19.5 -10.9,-19.5 -2.7,0 -3.7,2.4 -4.5,11.5 -0.9,10.3 -4.3,28 -11,57.5 -11,48.2 -13,62 -12.2,85.8 0.6,17.9 1.7,24 7.9,41.9 l 3.2,9.2 -8.6,11.3 c -8.9,11.7 -27.8,34.1 -29.9,35.4 -0.9,0.5 -1,0 -0.5,-1.7 1.3,-4.8 4.6,-25.6 5.6,-35.8 1.5,-15.1 1.2,-48.7 -0.5,-70.6 -0.9,-10.4 -1.7,-19.5 -1.9,-20 -0.2,-0.6 -3.8,6 -8.1,14.5 -11.7,23.4 -27,51.2 -34.7,63.3 -19.5,30.7 -24,47.5 -26.4,98.2 l -0.6,14.1 -6.2,4.5 c -13.6,10.2 -44.6,30.9 -46.1,30.9 -0.3,0 1.3,-2.9 3.5,-6.4 11,-17.3 22,-45.6 27.4,-70.4 2.2,-9.9 6.6,-38.5 6,-39.1 -0.7,-0.8 -54.3,53 -69.7,69.9 -29.4,32.4 -42.3,54.6 -45.2,78.1 l -0.7,5.6 -13.6,4.6 c -11,3.7 -38.3,11.7 -39.9,11.7 -0.2,0 4.1,-4.5 9.6,-10 20.8,-20.8 40.6,-51.1 45.4,-69.5 3.3,-13 4.7,-12.5 -12,-4.1 -13.2,6.5 -25.6,11.8 -51.8,21.8 -4.4,1.7 -13.4,5.8 -20,9.2 -10.8,5.5 -13,7.1 -22.1,16.1 -16.6,16.6 -30.5,37.2 -30.8,45.5 l -0.1,3.7 -7.4,0.7 c -11.2,0.9 -53.7,0.7 -56.3,-0.3 -1.6,-0.6 -3,-2.8 -4.7,-7.2 -3.2,-8.6 -9.4,-21 -13.3,-26.7 -5.2,-7.7 -16.7,-18.5 -26.1,-24.6 -10.2,-6.7 -22.2,-12.5 -39.7,-19.1 -23.5,-8.8 -45.6,-18.9 -56.9,-25.7 l -3.3,-2.1 0.7,3.4 c 5.1,22.9 23.7,52 51,79.7 6.1,6.2 10.4,11 9.6,10.8 -0.9,-0.3 -7.9,-2.1 -15.6,-4.1 -7.7,-2 -20.1,-5.6 -27.6,-8.1 l -13.6,-4.4 -0.7,-6.3 c -2.8,-24.9 -10.7,-39.9 -37.2,-69.7 -9.5,-10.6 -76.5,-80.2 -76.9,-79.8 -0.9,0.8 4.9,32.4 8.5,46.5 8.1,32.2 17.3,54.5 29.7,72.1 1.4,2 0.8,1.8 -4.8,-1.4 -8.5,-4.9 -32.5,-20.7 -42.2,-27.9 -5.6,-4.1 -7.7,-6.2 -7.2,-7.3 0.3,-0.8 1.1,-5 1.6,-9.1 2.8,-19.5 -3.2,-50.1 -15.6,-79.7 -5,-11.9 -8.5,-18.4 -18.6,-35.1 -6.6,-10.8 -22.7,-40.7 -30.5,-56.6 -2.1,-4.2 -4.3,-7.7 -5,-7.7 -1.8,0 -2.4,13.5 -2.4,54.5 0,50.1 0.7,57.7 7.6,78.5 1,2.9 -20.9,-21.6 -34.9,-39.3 l -8.6,-10.7 2.5,-5.7 c 5.3,-12 10.4,-40.6 10.4,-58.6 0,-17.3 -3.6,-39.2 -14.4,-87.4 -6.6,-29.5 -10.3,-49.1 -10.8,-57.3 -0.2,-3.4 -0.7,-4.6 -2.1,-4.8 -1.3,-0.3 -2.7,1.6 -5.6,8 -6.4,13.7 -13.6,41.4 -19.8,75.8 -3.5,19.8 -3.7,41.2 -0.5,59 1.2,6.3 1.9,11.6 1.8,11.8 -0.2,0.1 -5.5,-10 -11.8,-22.5 -10.1,-20.1 -21,-44.6 -24.9,-55.5 l -1.2,-3.6 6.1,-6.8 c 10.4,-11.3 23.5,-40.4 26.7,-59.2 4.1,-24.1 11.8,-131.4 9.9,-137.4 -0.8,-2.6 -2.6,-2.2 -6,1.4 -11.3,12.1 -42.2,67.2 -48.8,86.9 -3.5,10.5 -6.5,26.6 -7.3,38.6 -0.3,5.7 -0.8,10.2 -1,10 -1.6,-1.7 -10,-50.3 -12.4,-71.9 l -1.2,-10.8 2.6,-2 c 7.3,-5.8 39.5,-52.2 46.8,-67.5 8.5,-17.8 40.1,-118.3 38.7,-122.7 -0.6,-1.6 -14.4,11 -34.3,31.3 -35.1,35.6 -42.8,48 -54.4,86.9 -2.8,9.2 0.8,-39.2 5.1,-68.3 l 2.1,-14.8 4.1,-2.1 c 7,-3.5 22.5,-15.6 32.4,-25.2 18.5,-17.9 31.5,-34.5 56,-71.6 8.5,-12.9 19.8,-29.4 25.2,-36.6 5.4,-7.2 10.3,-14.1 10.9,-15.2 1.6,-2.9 1.4,-5.2 -0.4,-5.2 -4.1,0 -41.5,21 -65.5,36.9 -11.9,7.8 -28.1,22.5 -36.1,32.7 -2.4,3.1 -5.2,6.6 -6.1,7.8 -3.2,3.9 14.6,-44.3 21.5,-58.4 2,-3.9 2.7,-4.6 7.1,-5.7 6.4,-1.6 23.2,-9.7 36.6,-17.8 21.7,-13.1 42.1,-28.4 62.5,-46.9 6.6,-6 17.4,-15.4 24,-20.9 17.5,-14.5 21.7,-18.6 21.3,-21.1 -0.4,-3 -4.7,-3.1 -17.3,-0.6 -32.5,6.6 -61.5,18.3 -85.4,34.6 -5.1,3.5 -9.5,6.4 -9.7,6.4 -1.6,0 32.1,-46.5 36.2,-50.1 1.5,-1.3 5,-1.8 14.9,-2.2 28.8,-1.3 53.7,-8.8 90.5,-27.2 9.1,-4.5 23.5,-11.3 32,-15 8.5,-3.7 17,-7.9 18.8,-9.2 9.3,-7 -1.7,-10.3 -34.3,-10.3 -28.5,0 -53.8,3.5 -70.4,9.8 -2.2,0.8 15.7,-15 28.1,-24.9 6.8,-5.4 10.6,-7.8 11.7,-7.4 5.3,2.1 19.4,4.6 30.6,5.6 16.1,1.3 32.8,0.2 72.5,-4.6 15.7,-2 35.7,-4.1 44.5,-4.8 15.7,-1.3 21,-2.6 20.2,-5 -1.6,-4.9 -34.7,-17.5 -59.7,-22.7 -19.6,-4 -47.2,-5 -62,-2.1 -2.5,0.5 -4.6,0.8 -4.8,0.7 -0.1,-0.2 8.5,-7.1 19.1,-15.3 l 19.3,-15.1 11,-1.1 c 24,-2.4 40.7,-11.6 64.5,-35.3 13.4,-13.4 25.4,-27.6 32.9,-39 6.3,-9.4 7.7,-13.2 5.9,-15.4 -1.5,-1.8 -2,-1.7 -10.4,1.2 z"
     inkscape:export-xdpi="1.6900001"
     inkscape:export-ydpi="1.6900001" />
</svg>
