<?xml version="1.0" encoding="UTF-8" standalone="no"?>
<!-- Created with Inkscape (http://www.inkscape.org/) -->

<svg
   xmlns:dc="http://purl.org/dc/elements/1.1/"
   xmlns:cc="http://creativecommons.org/ns#"
   xmlns:rdf="http://www.w3.org/1999/02/22-rdf-syntax-ns#"
   xmlns:svg="http://www.w3.org/2000/svg"
   xmlns="http://www.w3.org/2000/svg"
   xmlns:sodipodi="http://sodipodi.sourceforge.net/DTD/sodipodi-0.dtd"
   xmlns:inkscape="http://www.inkscape.org/namespaces/inkscape"
   width="300"
   height="400"
   viewBox="0 0 300.00001 400.00001"
   id="svg4228"
   version="1.1"
   inkscape:version="0.91 r13725"
   sodipodi:docname="car-photo.svg"
   inkscape:export-filename="/Users/jeffpiazza/Cub Scouts/Pinewood Derby/Software Development/derbynet/website/img/car-photo.png"
   inkscape:export-xdpi="13.5"
   inkscape:export-ydpi="13.5">
  <defs
     id="defs4230" />
  <sodipodi:namedview
     id="base"
     pagecolor="#ffffff"
     bordercolor="#666666"
     borderopacity="1.0"
     inkscape:pageopacity="0.0"
     inkscape:pageshadow="2"
     inkscape:zoom="1"
     inkscape:cx="299.50893"
     inkscape:cy="288.86111"
     inkscape:document-units="px"
     inkscape:current-layer="layer1"
     showgrid="false"
     units="px"
     inkscape:window-width="1272"
     inkscape:window-height="845"
     inkscape:window-x="0"
     inkscape:window-y="1"
     inkscape:window-maximized="0" />
  <metadata
     id="metadata4233">
    <rdf:RDF>
      <cc:Work
         rdf:about="">
        <dc:format>image/svg+xml</dc:format>
        <dc:type
           rdf:resource="http://purl.org/dc/dcmitype/StillImage" />
        <dc:title></dc:title>
      </cc:Work>
    </rdf:RDF>
  </metadata>
  <g
     inkscape:label="Car"
     inkscape:groupmode="layer"
     id="layer1"
     transform="translate(0,-652.36216)">
    <g
       id="g4824"
       transform="matrix(0.75,0,0,0.75,-41.999991,217.73356)">
      <path
         inkscape:connector-curvature="0"
         sodipodi:nodetypes="ccccccccc"
         id="path2167"
         d="m 96.532617,729.47608 336.387863,0 0,-17.39552 -185.57894,-30.17839 0,12.99703 -45.21035,0 0,-16.53977 -122.300051,-12.32397 16.701478,63.44062 z"
         style="display:inline;fill:#fce94f;fill-opacity:1;fill-rule:evenodd;stroke:#000000;stroke-width:4.5;stroke-linecap:butt;stroke-linejoin:miter;stroke-miterlimit:4;stroke-dasharray:none;stroke-opacity:1" />
      <circle
         r="31.829594"
         cy="726.56732"
         cx="130.59357"
         id="path2173"
         style="color:#000000;display:inline;overflow:visible;visibility:visible;fill:#2e3436;fill-opacity:1;fill-rule:evenodd;stroke:none;stroke-width:2;stroke-linecap:butt;stroke-linejoin:miter;stroke-miterlimit:4;stroke-dasharray:none;stroke-dashoffset:0;stroke-opacity:1;marker:none;marker-start:none;marker-mid:none;marker-end:none" />
      <circle
         r="17.731554"
         cy="726.56732"
         cx="130.59357"
         id="path2175"
         style="color:#000000;display:inline;overflow:visible;visibility:visible;fill:#888a85;fill-opacity:1;fill-rule:evenodd;stroke:none;stroke-width:2;stroke-linecap:butt;stroke-linejoin:miter;stroke-miterlimit:4;stroke-dasharray:none;stroke-dashoffset:0;stroke-opacity:1;marker:none;marker-start:none;marker-mid:none;marker-end:none" />
      <circle
         r="4.5055585"
         cy="726.56732"
         cx="130.59357"
         id="path2169"
         style="color:#000000;display:inline;overflow:visible;visibility:visible;fill:#eeeeec;fill-opacity:1;fill-rule:evenodd;stroke:none;stroke-width:2;stroke-linecap:butt;stroke-linejoin:miter;stroke-miterlimit:4;stroke-dasharray:none;stroke-dashoffset:0;stroke-opacity:1;marker:none;marker-start:none;marker-mid:none;marker-end:none" />
      <circle
         r="31.829594"
         cy="726.56732"
         cx="352.81937"
         id="path2184"
         style="color:#000000;display:inline;overflow:visible;visibility:visible;fill:#2e3436;fill-opacity:1;fill-rule:evenodd;stroke:none;stroke-width:2;stroke-linecap:butt;stroke-linejoin:miter;stroke-miterlimit:4;stroke-dasharray:none;stroke-dashoffset:0;stroke-opacity:1;marker:none;marker-start:none;marker-mid:none;marker-end:none" />
      <circle
         r="17.731554"
         cy="726.56732"
         cx="352.81937"
         id="path2186"
         style="color:#000000;display:inline;overflow:visible;visibility:visible;fill:#888a85;fill-opacity:1;fill-rule:evenodd;stroke:none;stroke-width:2;stroke-linecap:butt;stroke-linejoin:miter;stroke-miterlimit:4;stroke-dasharray:none;stroke-dashoffset:0;stroke-opacity:1;marker:none;marker-start:none;marker-mid:none;marker-end:none" />
      <circle
         r="4.5055585"
         cy="726.56732"
         cx="352.81937"
         id="path2188"
         style="color:#000000;display:inline;overflow:visible;visibility:visible;fill:#eeeeec;fill-opacity:1;fill-rule:evenodd;stroke:none;stroke-width:2;stroke-linecap:butt;stroke-linejoin:miter;stroke-miterlimit:4;stroke-dasharray:none;stroke-dashoffset:0;stroke-opacity:1;marker:none;marker-start:none;marker-mid:none;marker-end:none" />
    </g>
  </g>
  <g
     inkscape:groupmode="layer"
     id="layer3"
     inkscape:label="Camera"
     transform="translate(0,-112)">
    <g
       transform="translate(-120,-482.36218)"
       id="g4764">
      <path
         style="fill:#ffffff;fill-opacity:1"
         sodipodi:nodetypes="sccssccssssssss"
         id="path4762"
         d="m 353.0625,833.54966 -46.60575,0 -1.39425,-10.875 c 0,-6.213 -5.037,-11.25 -11.25,-11.25 l -48,0 c -6.213,0 -11.25,5.037 -11.25,11.25 l -1.39425,10.875 -46.23075,0 c -4.14225,0 -7.5,3.17025 -7.5,7.3125 l 0,96.75004 c 0,4.1422 3.35775,7.6875 7.5,7.6875 l 166.125,0 c 4.14225,0 7.5,-3.5453 7.5,-7.6875 l 0,-96.75004 c 0,-4.14225 -3.35775,-7.3125 -7.5,-7.3125 z"
         inkscape:connector-curvature="0" />
      <circle
         cx="270.11664"
         cy="889.16553"
         r="28.206375"
         id="circle5" />
      <path
         inkscape:connector-curvature="0"
         d="m 353.0625,833.54966 -46.60575,0 -1.39425,-10.875 c 0,-6.213 -5.037,-11.25 -11.25,-11.25 l -48,0 c -6.213,0 -11.25,5.037 -11.25,11.25 l -1.39425,10.875 -46.23075,0 c -4.14225,0 -7.5,3.17025 -7.5,7.3125 l 0,96.75 c 0,4.14225 3.35775,7.6875 7.5,7.6875 l 166.125,0 c 4.14225,0 7.5,-3.54525 7.5,-7.6875 l 0,-96.75 c 0,-4.14225 -3.35775,-7.3125 -7.5,-7.3125 z m -83.02688,101.83575 c -25.473,0 -46.12275,-20.64975 -46.12275,-46.12237 0,-25.47301 20.64975,-46.12275 46.12275,-46.12275 25.473,0 46.12275,20.64974 46.12275,46.12275 0,25.47224 -20.64975,46.12237 -46.12275,46.12237 z m 81.90188,-81.96075 -39.375,0 0,-11.625 39.375,0 0,11.625 z"
         id="path7" />
    </g>
  </g>
</svg>
