<?xml version="1.0" standalone="no"?>
<!DOCTYPE svg PUBLIC "-//W3C//DTD SVG 20010904//EN"
  "http://www.w3.org/TR/2001/REC-SVG-20010904/DTD/svg10.dtd">
<svg width="256" height="264">
<g style="" transform="scale(1.25086,1.25)">
<g style="fill:#424242;stroke:none;" transform="matrix(0.1 0 0 -0.1 0 300)">
<g style="" transform="matrix(0.1 0 0 -0.1 0 300)">
  <path d="M380 2993 c-14 -2 -61 -22 -105 -43 -95 -45 -168 -113 -213 -198 -147 -275 -22 -587 278 -698 31 -11 13 -13 -153 -13 l-187 -1 2 -497 3 -498 253 -3 252 -2 0 -181 c0 -99 4 -188 9 -198 8 -13 -4 -39 -50 -112 -32 -52 -71 -114 -86 -138 -16 -24 -48 -77 -73 -117 -25 -40 -73 -118 -107 -173 -34 -55 -59 -102 -55 -105 3 -3 67 -6 143 -6 l138 0 32 43 c55 74 379 570 379 578 0 5 11 9 24 9 21 0 24 -6 30 -57 3 -32 9 -152 12 -268 2 -116 7 -234 10 -262 l5 -53 142 0 142 0 -3 321 -3 320 26 -3 c22 -2 59 -52 233 -313 155 -231 214 -311 232 -316 14 -4 83 -7 154 -8 104 -1 127 2 123 13 -7 17 -190 307 -332 525 -58 89 -65 105 -51 113 14 8 16 34 16 198 l0 190 278 0 c203 0 281 3 290 12 7 7 12 35 12 64 l0 52 38 -14 c81 -28 152 24 152 112 0 23 3 24 65 24 60 0 65 2 65 21 0 30 18 23 135 -53 219 -142 245 -159 260 -164 13 -5 15 49 15 465 0 290 -4 471 -9 471 -6 0 -56 -31 -113 -68 -244 -163 -288 -187 -288 -162 0 6 -28 10 -65 10 l-65 0 0 43 c0 90 -75 146 -154 113 l-35 -15 -3 42 -3 42 -180 5 c-99 3 -173 7 -164 8 45 6 160 76 213 130 97 98 140 201 140 337 1 171 -76 315 -218 407 -273 176 -628 45 -729 -269 -10 -31 -17 -85 -17 -136 0 -211 128 -387 335 -461 36 -13 -14 -15 -465 -15 -468 0 -501 2 -455 16 28 8 80 35 117 59 158 105 238 289 208 479 -29 184 -165 335 -349 389 -51 15 -171 19 -231 9z"/>
</g>
</g>
<g style="fill:#FFFFFF;stroke:none;</g>
</g>
</svg>
