<?xml version="1.0" encoding="UTF-8" standalone="no"?>
<svg
   id="Layer_1"
   data-name="Layer 1"
   viewBox="0 0 122.88 111.54"
   version="1.1"
   sodipodi:docname="warning-icon.svg"
   inkscape:export-filename="../website/img/warning-icon.png"
   inkscape:export-xdpi="399.98834"
   inkscape:export-ydpi="399.98834"
   inkscape:version="1.2.1 (9c6d41e, 2022-07-14)"
   xmlns:inkscape="http://www.inkscape.org/namespaces/inkscape"
   xmlns:sodipodi="http://sodipodi.sourceforge.net/DTD/sodipodi-0.dtd"
   xmlns="http://www.w3.org/2000/svg"
   xmlns:svg="http://www.w3.org/2000/svg"
   xmlns:rdf="http://www.w3.org/1999/02/22-rdf-syntax-ns#"
   xmlns:cc="http://creativecommons.org/ns#"
   xmlns:dc="http://purl.org/dc/elements/1.1/">
  <sodipodi:namedview
     id="namedview2879"
     pagecolor="#ffffff"
     bordercolor="#666666"
     borderopacity="1.0"
     inkscape:showpageshadow="2"
     inkscape:pageopacity="0.0"
     inkscape:pagecheckerboard="0"
     inkscape:deskcolor="#d1d1d1"
     showgrid="false"
     inkscape:zoom="2.1158329"
     inkscape:cx="34.265466"
     inkscape:cy="58.36945"
     inkscape:window-width="1210"
     inkscape:window-height="791"
     inkscape:window-x="292"
     inkscape:window-y="123"
     inkscape:window-maximized="0"
     inkscape:current-layer="Layer_1" />
  <defs
     id="defs2868">
    <style
       id="style2866">.cls-1{fill:#cf1f25;}.cls-2{fill:#fec901;fill-rule:evenodd;}.cls-3{fill:#010101;}</style>
  </defs>
  <title
     id="title2870">warning</title>
  <path
     id="path2872"
     class="cls-1"
     d="M 61.570312 0 A 17 17 0 0 0 52.5 2.6894531 A 23 23 0 0 0 45.449219 9.9296875 L 45.279297 10.199219 L 2.3496094 84.419922 L 2.3398438 84.419922 A 7.66 7.66 0 0 0 1.5703125 85.929688 A 23 23 0 0 0 0 94.669922 A 17.53 17.53 0 0 0 3 104.24023 A 16.42 16.42 0 0 0 10.759766 110.35938 A 18.07 18.07 0 0 0 16.960938 111.50977 L 17.609375 111.50977 L 104.08984 111.50977 A 21.19 21.19 0 0 0 113.19922 109.75977 C 113.38922 109.67977 113.5893 109.6 113.7793 109.5 A 15.94 15.94 0 0 0 120.71094 102.90039 A 17.63 17.63 0 0 0 122.88086 94.550781 A 22.48 22.48 0 0 0 120.50977 84.359375 L 120.26953 83.919922 L 78.039062 10.580078 C 77.925729 10.373412 77.806354 10.162552 77.679688 9.9492188 A 22.79 22.79 0 0 0 70.679688 2.6894531 A 16.7 16.7 0 0 0 61.570312 0 z M 61.521484 7.8945312 C 64.917731 7.8682813 68.325237 9.9301605 70.990234 14.160156 L 113.41992 87.849609 C 116.80992 94.659603 115.12983 103.84914 104.08984 103.61914 L 17.609375 103.61914 C 10.349382 103.79914 5.6700033 97.429991 9 88.75 L 52.119141 14.160156 C 54.739138 10.03516 58.125238 7.9207812 61.521484 7.8945312 z "
     inkscape:label="outer-triangle" />
  <path
     class="cls-2"
     d="M 9,88.75 52.12,14.16 c 5.24,-8.25 13.54,-8.46 18.87,0 l 42.43,73.69 c 3.39,6.81 1.71,16 -9.33,15.77 H 17.61 C 10.35,103.8 5.67,97.43 9,88.75 Z"
     id="path2874"
     style="display:none"
     inkscape:label="yellow-interior" />
  <path
     class="cls-3"
     d="M 57.57,83.78 A 5.53,5.53 0 0 1 61,82.2 a 5.6,5.6 0 0 1 2.4,0.36 5.7,5.7 0 0 1 2,1.3 5.56,5.56 0 0 1 1.54,5 6.23,6.23 0 0 1 -0.42,1.35 A 5.57,5.57 0 0 1 61.3,93.47 5.72,5.72 0 0 1 59.03,92.94 5.51,5.51 0 0 1 56.28,90 5.18,5.18 0 0 1 55.92,88.73 5.83,5.83 0 0 1 55.86,87.42 v 0 a 6.53,6.53 0 0 1 0.57,-2 4.7,4.7 0 0 1 1.14,-1.56 z m 8.15,-10.24 c -0.19,4.79 -8.31,4.8 -8.49,0 -0.82,-8.21 -2.92,-29.34 -2.86,-37.05 0.07,-2.38 2,-3.79 4.56,-4.33 a 12.83,12.83 0 0 1 5,0 c 2.61,0.56 4.65,2 4.65,4.44 v 0.24 z"
     id="path2876"
     style="display:inline"
     inkscape:label="black-excl" />
  <metadata
     id="metadata2998">
    <rdf:RDF>
      <cc:Work
         rdf:about="">
        <dc:title>warning</dc:title>
      </cc:Work>
    </rdf:RDF>
  </metadata>
  <path
     class="cls-3"
     d="M 57.57,83.78 A 5.53,5.53 0 0 1 61,82.2 a 5.6,5.6 0 0 1 2.4,0.36 5.7,5.7 0 0 1 2,1.3 5.56,5.56 0 0 1 1.54,5 6.23,6.23 0 0 1 -0.42,1.35 A 5.57,5.57 0 0 1 61.3,93.47 5.72,5.72 0 0 1 59.03,92.94 5.51,5.51 0 0 1 56.28,90 5.18,5.18 0 0 1 55.92,88.73 5.83,5.83 0 0 1 55.86,87.42 v 0 a 6.53,6.53 0 0 1 0.57,-2 4.7,4.7 0 0 1 1.14,-1.56 z m 8.15,-10.24 c -0.19,4.79 -8.31,4.8 -8.49,0 -0.82,-8.21 -2.92,-29.34 -2.86,-37.05 0.07,-2.38 2,-3.79 4.56,-4.33 a 12.83,12.83 0 0 1 5,0 c 2.61,0.56 4.65,2 4.65,4.44 v 0.24 z"
     id="path3019"
     style="display:inline;fill:#cf1f25;fill-opacity:1"
     inkscape:label="red-excl" />
</svg>
