<?xml version="1.0" encoding="UTF-8" standalone="no"?>
<!-- Created with Inkscape (http://www.inkscape.org/) -->

<svg
   xmlns:dc="http://purl.org/dc/elements/1.1/"
   xmlns:cc="http://creativecommons.org/ns#"
   xmlns:rdf="http://www.w3.org/1999/02/22-rdf-syntax-ns#"
   xmlns:svg="http://www.w3.org/2000/svg"
   xmlns="http://www.w3.org/2000/svg"
   xmlns:sodipodi="http://sodipodi.sourceforge.net/DTD/sodipodi-0.dtd"
   xmlns:inkscape="http://www.inkscape.org/namespaces/inkscape"
   version="1.1"
   width="766.25"
   height="496.25"
   id="svg2"
   xml:space="preserve"
   inkscape:version="0.48.1 r9760"
   sodipodi:docname="racing_car yellow.svg"
   inkscape:export-filename="/Users/jeffpiazza/Cub Scouts/Pinewood Derby/Artwork/racing car/racing_car yellow.png"
   inkscape:export-xdpi="719.97302"
   inkscape:export-ydpi="719.97302"><sodipodi:namedview
     pagecolor="#ffffff"
     bordercolor="#666666"
     borderopacity="1"
     objecttolerance="10"
     gridtolerance="10"
     guidetolerance="10"
     inkscape:pageopacity="0"
     inkscape:pageshadow="2"
     inkscape:window-width="1380"
     inkscape:window-height="976"
     id="namedview40"
     showgrid="false"
     inkscape:zoom="1"
     inkscape:cx="322.37214"
     inkscape:cy="248.125"
     inkscape:window-x="0"
     inkscape:window-y="0"
     inkscape:window-maximized="0"
     inkscape:current-layer="svg2" /><metadata
     id="metadata8"><rdf:RDF><cc:Work
         rdf:about=""><dc:format>image/svg+xml</dc:format><dc:type
           rdf:resource="http://purl.org/dc/dcmitype/StillImage" /><dc:title></dc:title></cc:Work></rdf:RDF></metadata><defs
     id="defs6" /><path
     d="M 468.1325,21.42875 405.36625,172.0175 c 86.335,-17.1175 169.94,11.16375 203.43125,48.12875 L 600.85875,239 c 25.305,15.87875 60.03625,14.14125 92.28875,1.7375 l 62.765,-150.34 c -32.25125,12.40375 -66.9825,14.14 -92.2875,-1.985 l 7.93875,-18.855 C 637.82375,32.5925 554.21875,4.31125 468.1325,21.42875"
     inkscape:connector-curvature="0"
     id="path14"
     style="fill:#ffffff;fill-opacity:1;fill-rule:evenodd;stroke:none" /><path
     d="M 468.1325,21.42875 405.36625,172.0175 c 86.335,-17.1175 169.94,11.16375 203.43125,48.12875 L 600.85875,239 c 25.305,15.87875 60.03625,14.14125 92.28875,1.7375 l 62.765,-150.34 c -32.25125,12.40375 -66.9825,14.14 -92.2875,-1.985 l 7.93875,-18.855 C 637.82375,32.5925 554.21875,4.31125 468.1325,21.42875 z"
     inkscape:connector-curvature="0"
     id="path16"
     style="fill:none;stroke:#231f20;stroke-width:12.40431213;stroke-linecap:round;stroke-linejoin:round;stroke-miterlimit:2.61313009;stroke-opacity:1;stroke-dasharray:none" /><path
     d="m 428.43875,168.29625 c 7.93875,-0.49625 16.37375,-1.24 24.56125,-1.24 l 7.4425,-18.855 c -7.94,0 -16.6225,0.74375 -24.56125,1.48875 l -7.4425,18.60625 z m 56.0675,-19.59875 c 7.69,0.49625 15.13375,1.24 23.0725,2.72875 l -7.69125,18.60625 c -7.93875,-1.24 -15.38125,-1.985 -23.07125,-2.48125 l 7.69,-18.85375 z m 37.70875,25.80125 7.4425,-18.855 c 7.195,1.73625 14.6375,3.96875 21.58375,6.45 l -7.4425,18.855 C 536.605,178.4675 529.41,176.235 522.215,174.49875 z m 49.6175,-4.2175 -7.4425,19.1025 c 6.69875,2.97625 13.14875,6.45 19.59875,10.6675 l 7.69125,-18.855 c -6.45,-4.2175 -12.90125,-7.93875 -19.8475,-10.915 z m 30.515,43.6625 6.45,6.2025 7.69125,-18.855 -6.45125,-6.2025 -7.69,18.855 z m 6.45,6.2025 -7.93875,19.1025 c 4.2175,2.2325 8.435,4.2175 13.14875,5.95375 l 7.69125,-18.60625 c -4.71375,-1.985 -8.9325,-3.72125 -12.90125,-6.45 z m 34.73125,11.16375 -7.44125,18.855 c 7.93875,0.49625 15.8775,0.2475 24.3125,-0.745 l 7.69,-18.85375 c -8.435,0.99125 -16.87,1.4875 -24.56125,0.74375 z m 51.10625,-7.19375 6.2025,-2.23375 -7.69,18.855 -5.70625,1.98375 7.19375,-18.605 z M 413.0575,153.1625 c 7.69,-1.73625 15.38125,-2.72875 23.0725,-3.4725 2.2325,-6.45125 4.71375,-12.6525 7.4425,-18.855 -7.4425,0.74375 -15.13375,1.985 -22.57625,3.225 l -7.93875,19.1025 z m 55.3225,-23.81625 -7.69,18.855 c 8.1875,-0.24875 15.8775,0 23.81625,0.49625 l 7.69,-18.855 c -7.9375,-0.49625 -15.8775,-0.74375 -23.81625,-0.49625 z m 46.88875,3.225 -7.69,18.855 c 7.4425,0.9925 14.885,2.48125 22.07875,4.2175 l 7.69125,-18.855 c -7.195,-1.73625 -14.6375,-3.225 -22.08,-4.2175 z m 43.66375,10.6675 -7.93875,18.855 c 7.19375,2.48125 14.14125,4.9625 20.83875,8.1875 l 7.69125,-18.855 c -6.69875,-2.9775 -13.645,-5.95375 -20.59125,-8.1875 z m 40.4375,19.1025 -7.69,18.6075 c 6.45,4.21625 12.6525,8.6825 18.3575,13.8925 l 7.93875,-18.855 C 612.0225,170.52875 605.82,166.0625 599.37,162.34125 z m 30.01875,45.4 -7.69,18.855 c 6.6975,2.48125 13.39625,3.97 21.5825,4.96125 L 651.22,212.455 c -7.93875,-0.74375 -14.885,-2.2325 -21.83125,-4.71375 z m 46.14375,3.97 -7.4425,18.855 c 8.93125,-0.9925 17.8625,-3.47375 26.545,-6.45 l 7.69125,-18.855 c -8.93125,3.225 -17.61375,5.21 -26.79375,6.45"
     inkscape:connector-curvature="0"
     id="path18"
     style="fill:#231f20;fill-opacity:1;fill-rule:evenodd;stroke:none" /><path
     d="m 428.43875,168.29625 c 7.93875,-0.49625 16.37375,-1.24 24.56125,-1.24 l 7.4425,-18.855 c -7.94,0 -16.6225,0.74375 -24.56125,1.48875 l -7.4425,18.60625 z m 56.0675,-19.59875 c 7.69,0.49625 15.13375,1.24 23.0725,2.72875 l -7.69125,18.60625 c -7.93875,-1.24 -15.38125,-1.985 -23.07125,-2.48125 l 7.69,-18.85375 z m 37.70875,25.80125 7.4425,-18.855 c 7.195,1.73625 14.6375,3.96875 21.58375,6.45 l -7.4425,18.855 C 536.605,178.4675 529.41,176.235 522.215,174.49875 z m 49.6175,-4.2175 -7.4425,19.1025 c 6.69875,2.97625 13.14875,6.45 19.59875,10.6675 l 7.69125,-18.855 c -6.45,-4.2175 -12.90125,-7.93875 -19.8475,-10.915 z m 30.515,43.6625 6.45,6.2025 7.69125,-18.855 -6.45125,-6.2025 -7.69,18.855 z m 6.45,6.2025 -7.93875,19.1025 c 4.2175,2.2325 8.435,4.2175 13.14875,5.95375 l 7.69125,-18.60625 c -4.71375,-1.985 -8.9325,-3.72125 -12.90125,-6.45 z m 34.73125,11.16375 -7.44125,18.855 c 7.93875,0.49625 15.8775,0.2475 24.3125,-0.745 l 7.69,-18.85375 c -8.435,0.99125 -16.87,1.4875 -24.56125,0.74375 z m 51.10625,-7.19375 6.2025,-2.23375 -7.69,18.855 -5.70625,1.98375 7.19375,-18.605 z M 413.0575,153.1625 c 7.69,-1.73625 15.38125,-2.72875 23.0725,-3.4725 2.2325,-6.45125 4.71375,-12.6525 7.4425,-18.855 -7.4425,0.74375 -15.13375,1.985 -22.57625,3.225 l -7.93875,19.1025 z m 55.3225,-23.81625 -7.69,18.855 c 8.1875,-0.24875 15.8775,0 23.81625,0.49625 l 7.69,-18.855 c -7.9375,-0.49625 -15.8775,-0.74375 -23.81625,-0.49625 z m 46.88875,3.225 -7.69,18.855 c 7.4425,0.9925 14.885,2.48125 22.07875,4.2175 l 7.69125,-18.855 c -7.195,-1.73625 -14.6375,-3.225 -22.08,-4.2175 z m 43.66375,10.6675 -7.93875,18.855 c 7.19375,2.48125 14.14125,4.9625 20.83875,8.1875 l 7.69125,-18.855 c -6.69875,-2.9775 -13.645,-5.95375 -20.59125,-8.1875 z m 40.4375,19.1025 -7.69,18.6075 c 6.45,4.21625 12.6525,8.6825 18.3575,13.8925 l 7.93875,-18.855 C 612.0225,170.52875 605.82,166.0625 599.37,162.34125 z m 30.01875,45.4 -7.69,18.855 c 6.6975,2.48125 13.39625,3.97 21.5825,4.96125 L 651.22,212.455 c -7.93875,-0.74375 -14.885,-2.2325 -21.83125,-4.71375 z m 46.14375,3.97 -7.4425,18.855 c 8.93125,-0.9925 17.8625,-3.47375 26.545,-6.45 l 7.69125,-18.855 c -8.93125,3.225 -17.61375,5.21 -26.79375,6.45 z"
     inkscape:connector-curvature="0"
     id="path20"
     style="fill:none;stroke:#231f20;stroke-width:3.47321248;stroke-linecap:round;stroke-linejoin:round;stroke-miterlimit:2.61313009;stroke-opacity:1;stroke-dasharray:none" /><path
     d="m 444.31625,130.835 c 7.93875,-0.49625 16.37375,-1.48875 24.80875,-1.48875 l 7.19375,-18.85375 c -7.93875,0 -16.62125,0.74375 -24.56,1.73625 l -7.4425,18.60625 z m 55.82,-19.84625 c 7.93875,0.74375 15.38125,1.4875 23.32,2.72875 l -7.69125,18.85375 c -7.69,-1.24 -15.38125,-1.98375 -23.0725,-2.72875 l 7.44375,-18.85375 z m 37.9575,26.04875 7.4425,-19.1025 c 7.19375,1.73625 14.63625,3.96875 21.5825,6.45 l -7.4425,18.85375 c -7.19375,-2.2325 -14.38875,-4.465 -21.5825,-6.20125 z M 587.71,132.82 l -7.4425,18.85375 c 6.69875,2.9775 13.39625,6.45125 19.59875,10.6675 l 7.69125,-18.85375 c -6.45,-4.2175 -12.90125,-7.69 -19.8475,-10.6675 z m 30.76375,43.415 6.20125,6.2025 7.93875,-18.6075 -6.69875,-6.45 -7.44125,18.855 z m 6.20125,6.2025 -7.93875,19.1025 c 4.2175,2.48 8.435,4.465 13.14875,6.20125 l 7.69125,-18.85375 c -4.715,-1.73625 -8.93125,-3.7225 -12.90125,-6.45 z m 34.7325,11.41125 -7.4425,18.855 c 7.93875,0.49625 15.8775,0.2475 24.3125,-0.745 l 7.69,-18.85375 c -8.18625,0.9925 -16.62125,1.48875 -24.56,0.74375 z m 51.105,-7.4425 6.2025,-2.2325 -7.69,18.85375 -5.70625,2.23375 7.19375,-18.855 z M 428.935,115.45375 c 7.69,-1.73625 15.38125,-2.48125 23.07125,-3.225 2.23375,-6.69875 4.9625,-12.90125 7.44375,-19.1025 -7.44375,0.9925 -15.13375,1.98375 -22.57625,3.4725 l -7.93875,18.855 z m 55.32375,-23.81625 -7.69125,18.855 c 8.1875,0 15.8775,0 23.81625,0.49625 l 7.69125,-18.855 c -7.93875,-0.24875 -15.87875,-0.745 -23.81625,-0.49625 z m 46.8875,3.225 -7.69,18.855 c 7.4425,1.24 14.885,2.48 22.08,4.465 l 7.69,-19.1025 c -7.195,-1.73625 -14.6375,-2.9775 -22.08,-4.2175 z M 574.81,105.53 l -7.93875,18.855 c 7.19375,2.48125 14.14,5.21 21.0875,8.435 l 7.69,-18.855 C 588.7025,110.74 581.75625,108.01125 574.81,105.53 z m 40.4375,19.1025 -7.69,18.855 c 6.6975,3.97 12.6525,8.435 18.3575,13.8925 l 7.93875,-19.1025 c -6.20125,-5.21 -12.155,-9.675 -18.60625,-13.645 z m 29.77,45.4 -7.44125,18.855 c 6.6975,2.48125 13.39625,3.96875 21.83125,4.96125 l 7.69,-19.1025 c -7.93875,-0.74375 -14.885,-2.2325 -22.08,-4.71375 z m 46.3925,4.2175 -7.4425,18.60625 c 8.93125,-0.74375 17.8625,-3.225 26.545,-6.45 L 718.20375,167.8 c -8.93125,2.97625 -17.8625,4.96125 -26.79375,6.45"
     inkscape:connector-curvature="0"
     id="path22"
     style="fill:#231f20;fill-opacity:1;fill-rule:evenodd;stroke:none" /><path
     d="m 444.31625,130.835 c 7.93875,-0.49625 16.37375,-1.48875 24.80875,-1.48875 l 7.19375,-18.85375 c -7.93875,0 -16.62125,0.74375 -24.56,1.73625 l -7.4425,18.60625 z m 55.82,-19.84625 c 7.93875,0.74375 15.38125,1.4875 23.32,2.72875 l -7.69125,18.85375 c -7.69,-1.24 -15.38125,-1.98375 -23.0725,-2.72875 l 7.44375,-18.85375 z m 37.9575,26.04875 7.4425,-19.1025 c 7.19375,1.73625 14.63625,3.96875 21.5825,6.45 l -7.4425,18.85375 c -7.19375,-2.2325 -14.38875,-4.465 -21.5825,-6.20125 z M 587.71,132.82 l -7.4425,18.85375 c 6.69875,2.9775 13.39625,6.45125 19.59875,10.6675 l 7.69125,-18.85375 c -6.45,-4.2175 -12.90125,-7.69 -19.8475,-10.6675 z m 30.76375,43.415 6.20125,6.2025 7.93875,-18.6075 -6.69875,-6.45 -7.44125,18.855 z m 6.20125,6.2025 -7.93875,19.1025 c 4.2175,2.48 8.435,4.465 13.14875,6.20125 l 7.69125,-18.85375 c -4.715,-1.73625 -8.93125,-3.7225 -12.90125,-6.45 z m 34.7325,11.41125 -7.4425,18.855 c 7.93875,0.49625 15.8775,0.2475 24.3125,-0.745 l 7.69,-18.85375 c -8.18625,0.9925 -16.62125,1.48875 -24.56,0.74375 z m 51.105,-7.4425 6.2025,-2.2325 -7.69,18.85375 -5.70625,2.23375 7.19375,-18.855 z M 428.935,115.45375 c 7.69,-1.73625 15.38125,-2.48125 23.07125,-3.225 2.23375,-6.69875 4.9625,-12.90125 7.44375,-19.1025 -7.44375,0.9925 -15.13375,1.98375 -22.57625,3.4725 l -7.93875,18.855 z m 55.32375,-23.81625 -7.69125,18.855 c 8.1875,0 15.8775,0 23.81625,0.49625 l 7.69125,-18.855 c -7.93875,-0.24875 -15.87875,-0.745 -23.81625,-0.49625 z m 46.8875,3.225 -7.69,18.855 c 7.4425,1.24 14.885,2.48 22.08,4.465 l 7.69,-19.1025 c -7.195,-1.73625 -14.6375,-2.9775 -22.08,-4.2175 z M 574.81,105.53 l -7.93875,18.855 c 7.19375,2.48125 14.14,5.21 21.0875,8.435 l 7.69,-18.855 C 588.7025,110.74 581.75625,108.01125 574.81,105.53 z m 40.4375,19.1025 -7.69,18.855 c 6.6975,3.97 12.6525,8.435 18.3575,13.8925 l 7.93875,-19.1025 c -6.20125,-5.21 -12.155,-9.675 -18.60625,-13.645 z m 29.77,45.4 -7.44125,18.855 c 6.6975,2.48125 13.39625,3.96875 21.83125,4.96125 l 7.69,-19.1025 c -7.93875,-0.74375 -14.885,-2.2325 -22.08,-4.71375 z m 46.3925,4.2175 -7.4425,18.60625 c 8.93125,-0.74375 17.8625,-3.225 26.545,-6.45 L 718.20375,167.8 c -8.93125,2.97625 -17.8625,4.96125 -26.79375,6.45 z"
     inkscape:connector-curvature="0"
     id="path24"
     style="fill:none;stroke:#231f20;stroke-width:3.47321248;stroke-linecap:round;stroke-linejoin:round;stroke-miterlimit:2.61313009;stroke-opacity:1;stroke-dasharray:none" /><path
     d="m 459.6975,93.12625 c 8.1875,-0.745 16.62125,-1.48875 24.80875,-1.48875 l 7.4425,-18.855 c -8.18625,0 -16.62125,0.745 -24.56,1.48875 l -7.69125,18.855 z m 56.0675,-19.8475 c 7.69125,0.49625 15.38125,1.24 23.0725,2.72875 l -7.69125,18.855 c -7.69,-1.24 -15.38125,-1.985 -23.07125,-2.72875 l 7.69,-18.855 z M 553.47375,99.3275 561.165,80.225 c 7.195,1.7375 14.38875,3.97 21.335,6.45125 L 575.0575,105.53 c -7.19375,-2.48125 -14.14,-4.71375 -21.58375,-6.2025 z m 49.865,-4.2175 -7.69,18.855 c 6.69875,2.9775 13.14875,6.45 19.8475,10.6675 l 7.4425,-19.1025 c -6.2025,-3.97 -12.90125,-7.4425 -19.6,-10.42 z m 30.515,43.415 6.2025,6.2025 7.93875,-18.60625 -6.6975,-6.45 -7.44375,18.85375 z m 6.2025,6.2025 -7.69,19.1025 c 4.21625,2.2325 8.18625,4.46625 12.9,6.2025 l 7.69125,-18.85375 c -4.71375,-1.7375 -8.93125,-3.72125 -12.90125,-6.45125 z m 34.98,11.16375 -7.4425,19.1025 c 7.93875,0.49625 15.8775,0.24875 24.3125,-0.74375 l 7.4425,-18.855 c -8.18625,0.745 -16.86875,1.48875 -24.3125,0.49625 z m 51.10625,-7.19375 6.2025,-2.23375 -7.93875,18.855 -5.70625,2.2325 7.4425,-18.85375 z M 444.31625,77.745 c 7.69,-1.7375 15.38125,-2.48125 23.0725,-3.47375 2.2325,-6.45 4.96125,-12.6525 7.69,-18.85375 -7.69,0.99125 -15.1325,1.98375 -22.57625,3.4725 l -8.18625,18.855 z M 499.64,53.92875 491.94875,72.7825 c 8.1875,0 16.12625,0 23.81625,0.49625 l 7.69125,-18.855 C 515.5175,53.92875 507.57875,53.68 499.64,53.92875 z m 46.8875,3.225 -7.69,18.85375 c 7.69,0.9925 14.885,2.48125 22.3275,4.2175 l 7.4425,-18.855 c -7.195,-1.73625 -14.63625,-3.225 -22.08,-4.21625 z m 43.66375,10.6675 -7.69125,18.855 c 6.94625,2.48 14.14125,5.20875 20.83875,8.43375 L 611.03,76.0075 c -6.6975,-2.97625 -13.64375,-5.95375 -20.83875,-8.18625 z m 40.4375,18.855 -7.69,18.85375 c 6.6975,4.2175 12.6525,8.68375 18.35875,13.8925 l 7.93875,-18.85375 c -5.955,-5.21 -12.1575,-9.67625 -18.6075,-13.8925 z m 30.01875,45.6475 -7.4425,18.855 c 6.69875,2.48 13.39625,3.96875 21.58375,4.96125 L 682.48,137.0375 c -7.69125,-0.745 -14.6375,-2.23375 -21.8325,-4.71375 z m 46.3925,4.2175 -7.69125,18.60625 c 9.18,-0.9925 17.8625,-3.47375 26.79375,-6.45 l 7.4425,-18.60625 c -8.68375,2.97625 -17.61375,4.96125 -26.545,6.45"
     inkscape:connector-curvature="0"
     id="path26"
     style="fill:#231f20;fill-opacity:1;fill-rule:evenodd;stroke:none" /><path
     d="m 459.6975,93.12625 c 8.1875,-0.745 16.62125,-1.48875 24.80875,-1.48875 l 7.4425,-18.855 c -8.18625,0 -16.62125,0.745 -24.56,1.48875 l -7.69125,18.855 z m 56.0675,-19.8475 c 7.69125,0.49625 15.38125,1.24 23.0725,2.72875 l -7.69125,18.855 c -7.69,-1.24 -15.38125,-1.985 -23.07125,-2.72875 l 7.69,-18.855 z M 553.47375,99.3275 561.165,80.225 c 7.195,1.7375 14.38875,3.97 21.335,6.45125 L 575.0575,105.53 c -7.19375,-2.48125 -14.14,-4.71375 -21.58375,-6.2025 z m 49.865,-4.2175 -7.69,18.855 c 6.69875,2.9775 13.14875,6.45 19.8475,10.6675 l 7.4425,-19.1025 c -6.2025,-3.97 -12.90125,-7.4425 -19.6,-10.42 z m 30.515,43.415 6.2025,6.2025 7.93875,-18.60625 -6.6975,-6.45 -7.44375,18.85375 z m 6.2025,6.2025 -7.69,19.1025 c 4.21625,2.2325 8.18625,4.46625 12.9,6.2025 l 7.69125,-18.85375 c -4.71375,-1.7375 -8.93125,-3.72125 -12.90125,-6.45125 z m 34.98,11.16375 -7.4425,19.1025 c 7.93875,0.49625 15.8775,0.24875 24.3125,-0.74375 l 7.4425,-18.855 c -8.18625,0.745 -16.86875,1.48875 -24.3125,0.49625 z m 51.10625,-7.19375 6.2025,-2.23375 -7.93875,18.855 -5.70625,2.2325 7.4425,-18.85375 z M 444.31625,77.745 c 7.69,-1.7375 15.38125,-2.48125 23.0725,-3.47375 2.2325,-6.45 4.96125,-12.6525 7.69,-18.85375 -7.69,0.99125 -15.1325,1.98375 -22.57625,3.4725 l -8.18625,18.855 z M 499.64,53.92875 491.94875,72.7825 c 8.1875,0 16.12625,0 23.81625,0.49625 l 7.69125,-18.855 C 515.5175,53.92875 507.57875,53.68 499.64,53.92875 z m 46.8875,3.225 -7.69,18.85375 c 7.69,0.9925 14.885,2.48125 22.3275,4.2175 l 7.4425,-18.855 c -7.195,-1.73625 -14.63625,-3.225 -22.08,-4.21625 z m 43.66375,10.6675 -7.69125,18.855 c 6.94625,2.48 14.14125,5.20875 20.83875,8.43375 L 611.03,76.0075 c -6.6975,-2.97625 -13.64375,-5.95375 -20.83875,-8.18625 z m 40.4375,18.855 -7.69,18.85375 c 6.6975,4.2175 12.6525,8.68375 18.35875,13.8925 l 7.93875,-18.85375 c -5.955,-5.21 -12.1575,-9.67625 -18.6075,-13.8925 z m 30.01875,45.6475 -7.4425,18.855 c 6.69875,2.48 13.39625,3.96875 21.58375,4.96125 L 682.48,137.0375 c -7.69125,-0.745 -14.6375,-2.23375 -21.8325,-4.71375 z m 46.3925,4.2175 -7.69125,18.60625 c 9.18,-0.9925 17.8625,-3.47375 26.79375,-6.45 l 7.4425,-18.60625 c -8.68375,2.97625 -17.61375,4.96125 -26.545,6.45 z"
     inkscape:connector-curvature="0"
     id="path28"
     style="fill:none;stroke:#231f20;stroke-width:3.47321248;stroke-linecap:round;stroke-linejoin:round;stroke-miterlimit:2.61313009;stroke-opacity:1;stroke-dasharray:none" /><path
     d="m 475.575,55.665 c 7.93875,-0.49625 16.37375,-1.48875 24.56125,-1.48875 l 7.4425,-18.855 c -8.1875,0 -16.6225,0.745 -24.56125,1.48875 l -7.4425,18.855 z m 55.82,-19.8475 c 7.9375,0.745 15.38125,1.24125 23.07125,2.73 l -7.4425,18.85375 C 539.085,56.16125 531.395,55.4175 523.9525,54.6725 l 7.4425,-18.855 z m 37.70875,26.05 7.69125,-19.1025 c 7.19375,1.73625 14.38875,3.96875 21.335,6.45 l -7.4425,18.85375 c -6.94625,-2.2325 -14.14125,-4.465 -21.58375,-6.20125 z m 49.865,-4.2175 -7.4425,18.855 c 6.69875,2.97625 13.14875,6.45 19.59875,10.6675 l 7.69125,-18.855 C 632.36625,64.1 625.6675,60.62625 618.96875,57.65 z m 30.515,43.415 6.45,6.2025 7.69125,-18.855 -6.45125,-6.2025 -7.69,18.855 z m 6.45,6.2025 -7.93875,19.1025 c 4.2175,2.48 8.435,4.465 13.14875,6.20125 L 668.835,113.7175 c -4.9625,-1.7375 -9.18,-3.72125 -12.90125,-6.45 z m 34.7325,11.41125 -7.4425,18.855 c 7.93875,0.495 15.62875,0.2475 24.3125,-0.745 l 7.4425,-18.85375 c -8.1875,0.99125 -16.62125,1.4875 -24.3125,0.74375 z m 51.10625,-7.4425 6.20125,-2.2325 -7.69,18.85375 -5.955,2.23375 7.44375,-18.855 z M 460.19375,40.28375 C 467.885,38.5475 475.575,37.8025 483.0175,36.81 485.25,30.36 487.98,24.1575 490.70875,17.955 483.0175,18.94875 475.575,19.94 468.1325,21.42875 l -7.93875,18.855 z M 515.5175,16.4675 507.82625,35.32125 c 7.93875,0 15.8775,0 23.81625,0.49625 l 7.69,-18.85375 c -8.18625,-0.49625 -15.87625,-0.745 -23.815,-0.49625 z m 46.8875,3.225 -7.93875,18.855 c 7.69125,0.9925 14.885,2.48 22.32875,4.465 l 7.69,-19.1025 c -7.195,-1.73625 -14.6375,-3.225 -22.08,-4.2175 z M 605.82,30.36 598.13,49.215 c 7.195,2.48 14.14125,5.20875 20.83875,8.435 L 626.66,38.795 C 619.96125,35.57 613.015,32.5925 605.82,30.36 z m 40.43875,19.1025 -7.4425,18.60625 c 6.45,4.2175 12.40375,8.68375 18.3575,14.14125 l 7.94,-19.1025 c -6.2025,-5.21 -12.15625,-9.675 -18.855,-13.645 z m 30.01875,45.4 -7.4425,18.855 c 6.6975,2.48 13.39625,3.96875 21.5825,4.96125 l 7.94,-19.1025 c -7.94,-0.74375 -14.88625,-2.2325 -22.08,-4.71375 z m 46.3925,4.2175 -7.69125,18.60625 c 9.17875,-0.74375 18.11,-3.225 26.79375,-6.45 L 749.4625,92.63 C 740.53125,95.6075 731.6,97.59125 722.67,99.08"
     inkscape:connector-curvature="0"
     id="path30"
     style="fill:#231f20;fill-opacity:1;fill-rule:evenodd;stroke:none" /><path
     d="m 475.575,55.665 c 7.93875,-0.49625 16.37375,-1.48875 24.56125,-1.48875 l 7.4425,-18.855 c -8.1875,0 -16.6225,0.745 -24.56125,1.48875 l -7.4425,18.855 z m 55.82,-19.8475 c 7.9375,0.745 15.38125,1.24125 23.07125,2.73 l -7.4425,18.85375 C 539.085,56.16125 531.395,55.4175 523.9525,54.6725 l 7.4425,-18.855 z m 37.70875,26.05 7.69125,-19.1025 c 7.19375,1.73625 14.38875,3.96875 21.335,6.45 l -7.4425,18.85375 c -6.94625,-2.2325 -14.14125,-4.465 -21.58375,-6.20125 z m 49.865,-4.2175 -7.4425,18.855 c 6.69875,2.97625 13.14875,6.45 19.59875,10.6675 l 7.69125,-18.855 C 632.36625,64.1 625.6675,60.62625 618.96875,57.65 z m 30.515,43.415 6.45,6.2025 7.69125,-18.855 -6.45125,-6.2025 -7.69,18.855 z m 6.45,6.2025 -7.93875,19.1025 c 4.2175,2.48 8.435,4.465 13.14875,6.20125 L 668.835,113.7175 c -4.9625,-1.7375 -9.18,-3.72125 -12.90125,-6.45 z m 34.7325,11.41125 -7.4425,18.855 c 7.93875,0.495 15.62875,0.2475 24.3125,-0.745 l 7.4425,-18.85375 c -8.1875,0.99125 -16.62125,1.4875 -24.3125,0.74375 z m 51.10625,-7.4425 6.20125,-2.2325 -7.69,18.85375 -5.955,2.23375 7.44375,-18.855 z M 460.19375,40.28375 C 467.885,38.5475 475.575,37.8025 483.0175,36.81 485.25,30.36 487.98,24.1575 490.70875,17.955 483.0175,18.94875 475.575,19.94 468.1325,21.42875 l -7.93875,18.855 z M 515.5175,16.4675 507.82625,35.32125 c 7.93875,0 15.8775,0 23.81625,0.49625 l 7.69,-18.85375 c -8.18625,-0.49625 -15.87625,-0.745 -23.815,-0.49625 z m 46.8875,3.225 -7.93875,18.855 c 7.69125,0.9925 14.885,2.48 22.32875,4.465 l 7.69,-19.1025 c -7.195,-1.73625 -14.6375,-3.225 -22.08,-4.2175 z M 605.82,30.36 598.13,49.215 c 7.195,2.48 14.14125,5.20875 20.83875,8.435 L 626.66,38.795 C 619.96125,35.57 613.015,32.5925 605.82,30.36 z m 40.43875,19.1025 -7.4425,18.60625 c 6.45,4.2175 12.40375,8.68375 18.3575,14.14125 l 7.94,-19.1025 c -6.2025,-5.21 -12.15625,-9.675 -18.855,-13.645 z m 30.01875,45.4 -7.4425,18.855 c 6.6975,2.48 13.39625,3.96875 21.5825,4.96125 l 7.94,-19.1025 c -7.94,-0.74375 -14.88625,-2.2325 -22.08,-4.71375 z m 46.3925,4.2175 -7.69125,18.60625 c 9.17875,-0.74375 18.11,-3.225 26.79375,-6.45 L 749.4625,92.63 C 740.53125,95.6075 731.6,97.59125 722.67,99.08 z"
     inkscape:connector-curvature="0"
     id="path32"
     style="fill:none;stroke:#231f20;stroke-width:3.47321248;stroke-linecap:round;stroke-linejoin:round;stroke-miterlimit:2.61313009;stroke-opacity:1;stroke-dasharray:none" /><path
     d="m 457.96125,13.73875 -151.085,367.66362 c -3.72125,8.68263 5.45875,12.90038 11.4125,2.7285 L 469.125,18.45125 c 2.9775,-7.19375 -8.435,-10.6675 -11.16375,-4.7125"
     inkscape:connector-curvature="0"
     id="path34"
     style="fill:#231f20;fill-opacity:1;fill-rule:evenodd;stroke:none" /><path
     d="m 457.96125,13.73875 -151.085,367.66362 c -3.72125,8.68263 5.45875,12.90038 11.4125,2.7285 L 469.125,18.45125 c 2.9775,-7.19375 -8.435,-10.6675 -11.16375,-4.7125 z"
     inkscape:connector-curvature="0"
     id="path36"
     style="fill:none;stroke:#231f20;stroke-width:3.47321248;stroke-linecap:round;stroke-linejoin:round;stroke-miterlimit:2.61313009;stroke-opacity:1;stroke-dasharray:none" /><path
     d="M 299.43375,21.42875 362.2,172.0175 C 275.86625,154.9 192.26125,183.18125 158.76875,220.14625 L 166.7075,239 c -25.305,15.87875 -60.03663,14.14125 -92.287625,1.7375 L 11.653813,90.3975 c 32.251437,12.40375 66.983437,14.14 92.288057,-1.985 L 96.002875,69.5575 C 129.7425,32.5925 213.3475,4.31125 299.43375,21.42875"
     inkscape:connector-curvature="0"
     id="path38"
     style="fill:#ffffff;fill-opacity:1;fill-rule:evenodd;stroke:none" /><path
     d="M 299.43375,21.42875 362.2,172.0175 C 275.86625,154.9 192.26125,183.18125 158.76875,220.14625 L 166.7075,239 c -25.305,15.87875 -60.03663,14.14125 -92.287625,1.7375 L 11.653813,90.3975 c 32.251437,12.40375 66.983437,14.14 92.288057,-1.985 L 96.002875,69.5575 C 129.7425,32.5925 213.3475,4.31125 299.43375,21.42875 z"
     inkscape:connector-curvature="0"
     id="path40"
     style="fill:none;stroke:#231f20;stroke-width:12.40431213;stroke-linecap:round;stroke-linejoin:round;stroke-miterlimit:2.61313009;stroke-opacity:1;stroke-dasharray:none" /><path
     d="m 339.1275,168.29625 c -7.93875,-0.49625 -16.3725,-1.24 -24.56,-1.24 l -7.4425,-18.855 c 7.93875,0 16.62125,0.74375 24.56,1.48875 l 7.4425,18.60625 z M 283.06,148.6975 c -7.69,0.49625 -15.13375,1.24 -23.07125,2.72875 l 7.69,18.60625 c 7.93875,-1.24 15.38125,-1.985 23.0725,-2.48125 L 283.06,148.6975 z m -37.70875,25.80125 -7.4425,-18.855 c -7.195,1.73625 -14.6375,3.96875 -21.58375,6.45 l 7.4425,18.855 c 7.195,-2.48125 14.38875,-4.71375 21.58375,-6.45 z m -49.6175,-4.2175 7.4425,19.1025 c -6.69875,2.97625 -13.14875,6.45 -19.59875,10.6675 l -7.69,-18.855 c 6.45,-4.2175 12.9,-7.93875 19.84625,-10.915 z m -30.515,43.6625 -6.45,6.2025 -7.69,-18.855 6.45,-6.2025 7.69,18.855 z m -6.45,6.2025 7.93875,19.1025 c -4.2175,2.2325 -8.435,4.2175 -13.14875,5.95375 l -7.69,-18.60625 c 4.71375,-1.985 8.93125,-3.72125 12.9,-6.45 z M 124.03713,231.31 131.48,250.165 c -7.9395,0.49625 -15.878,0.2475 -24.313,-0.745 l -7.690875,-18.85375 c 8.435495,0.99125 16.870125,1.4875 24.560995,0.74375 z M 72.931125,224.11625 66.729,221.8825 l 7.690875,18.855 5.705625,1.98375 -7.194375,-18.605 z M 354.50875,153.1625 c -7.69,-1.73625 -15.38125,-2.72875 -23.07125,-3.4725 -2.2325,-6.45125 -4.71375,-12.6525 -7.4425,-18.855 7.4425,0.74375 15.1325,1.985 22.575,3.225 l 7.93875,19.1025 z m -55.3225,-23.81625 7.69,18.855 c -8.18625,-0.24875 -15.8775,0 -23.81625,0.49625 l -7.69,-18.855 c 7.93875,-0.49625 15.8775,-0.74375 23.81625,-0.49625 z m -46.88875,3.225 7.69125,18.855 c -7.4425,0.9925 -14.88625,2.48125 -22.08,4.2175 l -7.69125,-18.855 c 7.195,-1.73625 14.6375,-3.225 22.08,-4.2175 z m -43.66375,10.6675 7.94,18.855 c -7.195,2.48125 -14.14125,4.9625 -20.84,8.1875 l -7.69,-18.855 c 6.6975,-2.9775 13.64375,-5.95375 20.59,-8.1875 z m -40.4375,19.1025 7.69125,18.6075 c -6.45125,4.21625 -12.6525,8.6825 -18.35875,13.8925 l -7.93875,-18.855 c 5.95375,-5.4575 12.15625,-9.92375 18.60625,-13.645 z m -30.01875,45.4 7.69125,18.855 c -6.69875,2.48125 -13.3975,3.97 -21.58362,4.96125 l -7.93888,-19.1025 c 7.93888,-0.74375 14.885,-2.2325 21.83125,-4.71375 z m -46.14375,3.97 7.442375,18.855 c -8.93075,-0.9925 -17.861875,-3.47375 -26.545,-6.45 l -7.690375,-18.855 c 8.931125,3.225 17.61375,5.21 26.793,6.45"
     inkscape:connector-curvature="0"
     id="path42"
     style="fill:#231f20;fill-opacity:1;fill-rule:evenodd;stroke:none" /><path
     d="m 339.1275,168.29625 c -7.93875,-0.49625 -16.3725,-1.24 -24.56,-1.24 l -7.4425,-18.855 c 7.93875,0 16.62125,0.74375 24.56,1.48875 l 7.4425,18.60625 z M 283.06,148.6975 c -7.69,0.49625 -15.13375,1.24 -23.07125,2.72875 l 7.69,18.60625 c 7.93875,-1.24 15.38125,-1.985 23.0725,-2.48125 L 283.06,148.6975 z m -37.70875,25.80125 -7.4425,-18.855 c -7.195,1.73625 -14.6375,3.96875 -21.58375,6.45 l 7.4425,18.855 c 7.195,-2.48125 14.38875,-4.71375 21.58375,-6.45 z m -49.6175,-4.2175 7.4425,19.1025 c -6.69875,2.97625 -13.14875,6.45 -19.59875,10.6675 l -7.69,-18.855 c 6.45,-4.2175 12.9,-7.93875 19.84625,-10.915 z m -30.515,43.6625 -6.45,6.2025 -7.69,-18.855 6.45,-6.2025 7.69,18.855 z m -6.45,6.2025 7.93875,19.1025 c -4.2175,2.2325 -8.435,4.2175 -13.14875,5.95375 l -7.69,-18.60625 c 4.71375,-1.985 8.93125,-3.72125 12.9,-6.45 z M 124.03713,231.31 131.48,250.165 c -7.9395,0.49625 -15.878,0.2475 -24.313,-0.745 l -7.690875,-18.85375 c 8.435495,0.99125 16.870125,1.4875 24.560995,0.74375 z M 72.931125,224.11625 66.729,221.8825 l 7.690875,18.855 5.705625,1.98375 -7.194375,-18.605 z M 354.50875,153.1625 c -7.69,-1.73625 -15.38125,-2.72875 -23.07125,-3.4725 -2.2325,-6.45125 -4.71375,-12.6525 -7.4425,-18.855 7.4425,0.74375 15.1325,1.985 22.575,3.225 l 7.93875,19.1025 z m -55.3225,-23.81625 7.69,18.855 c -8.18625,-0.24875 -15.8775,0 -23.81625,0.49625 l -7.69,-18.855 c 7.93875,-0.49625 15.8775,-0.74375 23.81625,-0.49625 z m -46.88875,3.225 7.69125,18.855 c -7.4425,0.9925 -14.88625,2.48125 -22.08,4.2175 l -7.69125,-18.855 c 7.195,-1.73625 14.6375,-3.225 22.08,-4.2175 z m -43.66375,10.6675 7.94,18.855 c -7.195,2.48125 -14.14125,4.9625 -20.84,8.1875 l -7.69,-18.855 c 6.6975,-2.9775 13.64375,-5.95375 20.59,-8.1875 z m -40.4375,19.1025 7.69125,18.6075 c -6.45125,4.21625 -12.6525,8.6825 -18.35875,13.8925 l -7.93875,-18.855 c 5.95375,-5.4575 12.15625,-9.92375 18.60625,-13.645 z m -30.01875,45.4 7.69125,18.855 c -6.69875,2.48125 -13.3975,3.97 -21.58362,4.96125 l -7.93888,-19.1025 c 7.93888,-0.74375 14.885,-2.2325 21.83125,-4.71375 z m -46.14375,3.97 7.442375,18.855 c -8.93075,-0.9925 -17.861875,-3.47375 -26.545,-6.45 l -7.690375,-18.855 c 8.931125,3.225 17.61375,5.21 26.793,6.45 z"
     inkscape:connector-curvature="0"
     id="path44"
     style="fill:none;stroke:#231f20;stroke-width:3.47321248;stroke-linecap:round;stroke-linejoin:round;stroke-miterlimit:2.61313009;stroke-opacity:1;stroke-dasharray:none" /><path
     d="m 323.25,130.835 c -7.93875,-0.49625 -16.37375,-1.48875 -24.80875,-1.48875 L 291.2475,110.4925 c 7.93875,0 16.62125,0.74375 24.56,1.73625 L 323.25,130.835 z m -55.81875,-19.84625 c -7.93875,0.74375 -15.3825,1.4875 -23.32125,2.72875 l 7.69125,18.85375 c 7.69125,-1.24 15.38125,-1.98375 23.0725,-2.72875 l -7.4425,-18.85375 z m -37.9575,26.04875 -7.4425,-19.1025 c -7.195,1.73625 -14.6375,3.96875 -21.58375,6.45 l 7.4425,18.85375 c 7.195,-2.2325 14.38875,-4.465 21.58375,-6.20125 z m -49.6175,-4.2175 7.4425,18.85375 C 180.6,154.65125 173.9025,158.125 167.7,162.34125 L 160.00875,143.4875 C 166.46,139.27 172.91,135.7975 179.85625,132.82 z m -30.7625,43.415 -6.2025,6.2025 -7.93875,-18.6075 6.69875,-6.45 7.4425,18.855 z m -6.2025,6.2025 7.93875,19.1025 c -4.2175,2.48 -8.435,4.465 -13.14875,6.20125 l -7.69,-18.85375 c 4.71375,-1.73625 8.93125,-3.7225 12.9,-6.45 z m -34.73163,11.41125 7.44238,18.855 c -7.93888,0.49625 -15.877375,0.2475 -24.3125,-0.745 L 83.598625,193.105 c 8.187,0.9925 16.622125,1.48875 24.560995,0.74375 z m -51.10587,-7.4425 -6.20225,-2.2325 7.6905,18.85375 5.706,2.23375 -7.19425,-18.855 z m 281.5775,-70.9525 C 330.94125,113.7175 323.25,112.9725 315.56,112.22875 313.32625,105.53 310.5975,99.3275 308.11625,93.12625 315.56,94.11875 323.25,95.11 330.6925,96.59875 l 7.93875,18.855 z m -55.3225,-23.81625 7.69,18.855 c -8.18625,0 -15.8775,0 -23.81625,0.49625 l -7.69,-18.855 c 7.93875,-0.24875 15.8775,-0.745 23.81625,-0.49625 z m -46.88875,3.225 7.69,18.855 c -7.4425,1.24 -14.885,2.48 -22.07875,4.465 L 214.34,99.08 c 7.195,-1.73625 14.6375,-2.9775 22.08,-4.2175 z m -43.66375,10.6675 7.93875,18.855 c -7.19375,2.48125 -14.14,5.21 -21.08625,8.435 l -7.69125,-18.855 c 6.94625,-3.225 13.8925,-5.95375 20.83875,-8.435 z m -40.4375,19.1025 7.69,18.855 c -6.6975,3.97 -12.65125,8.435 -18.3575,13.8925 l -7.93875,-19.1025 c 6.2025,-5.21 12.15625,-9.675 18.60625,-13.645 z m -29.77038,45.4 7.44288,18.855 c -6.69875,2.48125 -13.397,3.96875 -21.83163,4.96125 l -7.69087,-19.1025 c 7.939,-0.74375 14.88525,-2.2325 22.07962,-4.71375 z m -46.39212,4.2175 7.442375,18.60625 c -8.930625,-0.74375 -17.86225,-3.225 -26.544875,-6.45 L 49.36275,167.8 c 8.93125,2.97625 17.862375,4.96125 26.7935,6.45"
     inkscape:connector-curvature="0"
     id="path46"
     style="fill:#231f20;fill-opacity:1;fill-rule:evenodd;stroke:none" /><path
     d="m 323.25,130.835 c -7.93875,-0.49625 -16.37375,-1.48875 -24.80875,-1.48875 L 291.2475,110.4925 c 7.93875,0 16.62125,0.74375 24.56,1.73625 L 323.25,130.835 z m -55.81875,-19.84625 c -7.93875,0.74375 -15.3825,1.4875 -23.32125,2.72875 l 7.69125,18.85375 c 7.69125,-1.24 15.38125,-1.98375 23.0725,-2.72875 l -7.4425,-18.85375 z m -37.9575,26.04875 -7.4425,-19.1025 c -7.195,1.73625 -14.6375,3.96875 -21.58375,6.45 l 7.4425,18.85375 c 7.195,-2.2325 14.38875,-4.465 21.58375,-6.20125 z m -49.6175,-4.2175 7.4425,18.85375 C 180.6,154.65125 173.9025,158.125 167.7,162.34125 L 160.00875,143.4875 C 166.46,139.27 172.91,135.7975 179.85625,132.82 z m -30.7625,43.415 -6.2025,6.2025 -7.93875,-18.6075 6.69875,-6.45 7.4425,18.855 z m -6.2025,6.2025 7.93875,19.1025 c -4.2175,2.48 -8.435,4.465 -13.14875,6.20125 l -7.69,-18.85375 c 4.71375,-1.73625 8.93125,-3.7225 12.9,-6.45 z m -34.73163,11.41125 7.44238,18.855 c -7.93888,0.49625 -15.877375,0.2475 -24.3125,-0.745 L 83.598625,193.105 c 8.187,0.9925 16.622125,1.48875 24.560995,0.74375 z m -51.10587,-7.4425 -6.20225,-2.2325 7.6905,18.85375 5.706,2.23375 -7.19425,-18.855 z m 281.5775,-70.9525 C 330.94125,113.7175 323.25,112.9725 315.56,112.22875 313.32625,105.53 310.5975,99.3275 308.11625,93.12625 315.56,94.11875 323.25,95.11 330.6925,96.59875 l 7.93875,18.855 z m -55.3225,-23.81625 7.69,18.855 c -8.18625,0 -15.8775,0 -23.81625,0.49625 l -7.69,-18.855 c 7.93875,-0.24875 15.8775,-0.745 23.81625,-0.49625 z m -46.88875,3.225 7.69,18.855 c -7.4425,1.24 -14.885,2.48 -22.07875,4.465 L 214.34,99.08 c 7.195,-1.73625 14.6375,-2.9775 22.08,-4.2175 z m -43.66375,10.6675 7.93875,18.855 c -7.19375,2.48125 -14.14,5.21 -21.08625,8.435 l -7.69125,-18.855 c 6.94625,-3.225 13.8925,-5.95375 20.83875,-8.435 z m -40.4375,19.1025 7.69,18.855 c -6.6975,3.97 -12.65125,8.435 -18.3575,13.8925 l -7.93875,-19.1025 c 6.2025,-5.21 12.15625,-9.675 18.60625,-13.645 z m -29.77038,45.4 7.44288,18.855 c -6.69875,2.48125 -13.397,3.96875 -21.83163,4.96125 l -7.69087,-19.1025 c 7.939,-0.74375 14.88525,-2.2325 22.07962,-4.71375 z m -46.39212,4.2175 7.442375,18.60625 c -8.930625,-0.74375 -17.86225,-3.225 -26.544875,-6.45 L 49.36275,167.8 c 8.93125,2.97625 17.862375,4.96125 26.7935,6.45 z"
     inkscape:connector-curvature="0"
     id="path48"
     style="fill:none;stroke:#231f20;stroke-width:3.47321248;stroke-linecap:round;stroke-linejoin:round;stroke-miterlimit:2.61313009;stroke-opacity:1;stroke-dasharray:none" /><path
     d="M 307.86875,93.12625 C 299.6825,92.38125 291.2475,91.6375 283.06,91.6375 l -7.4425,-18.855 c 8.18625,0 16.62125,0.745 24.56125,1.48875 l 7.69,18.855 z m -56.0675,-19.8475 C 244.11,73.775 236.42,74.51875 228.73,76.0075 l 7.69,18.855 c 7.69,-1.24 15.38125,-1.985 23.0725,-2.72875 l -7.69125,-18.855 z M 214.0925,99.3275 206.40125,80.225 c -7.19375,1.7375 -14.38875,3.97 -21.335,6.45125 l 7.4425,18.85375 c 7.19375,-2.48125 14.14125,-4.71375 21.58375,-6.2025 z m -49.865,-4.2175 7.69,18.855 c -6.69875,2.9775 -13.14875,6.45 -19.84625,10.6675 l -7.4425,-19.1025 c 6.20125,-3.97 12.9,-7.4425 19.59875,-10.42 z m -30.515,43.415 -6.2025,6.2025 -7.93875,-18.60625 6.69875,-6.45 7.4425,18.85375 z m -6.2025,6.2025 7.69125,19.1025 c -4.2175,2.2325 -8.1875,4.46625 -12.901,6.2025 l -7.69038,-18.85375 c 4.71338,-1.7375 8.93063,-3.72125 12.90013,-6.45125 z m -34.98025,11.16375 7.442875,19.1025 C 92.03375,175.49 84.09525,175.2425 75.660125,174.25 L 68.21775,155.395 c 8.1865,0.745 16.869625,1.48875 24.312,0.49625 z m -51.105375,-7.19375 -6.20225,-2.23375 7.9385,18.855 5.706125,2.2325 -7.442375,-18.85375 z M 323.25,77.745 c -7.69,-1.7375 -15.38125,-2.48125 -23.07125,-3.47375 -2.23375,-6.45 -4.9625,-12.6525 -7.69125,-18.85375 7.69125,0.99125 15.1325,1.98375 22.57625,3.4725 L 323.25,77.745 z M 267.92625,53.92875 275.6175,72.7825 c -8.18625,0 -16.125,0 -23.81625,0.49625 L 244.11,54.42375 c 7.93875,-0.495 15.87875,-0.74375 23.81625,-0.495 z m -46.8875,3.225 L 228.73,76.0075 C 221.03875,77 213.84375,78.48875 206.40125,80.225 l -7.4425,-18.855 c 7.195,-1.73625 14.6375,-3.225 22.08,-4.21625 z m -43.66375,10.6675 7.69125,18.855 C 178.12,89.15625 170.925,91.885 164.2275,95.11 l -7.69125,-19.1025 c 6.69875,-2.97625 13.645,-5.95375 20.83875,-8.18625 z m -40.4375,18.855 7.69125,18.85375 c -6.69875,4.2175 -12.6525,8.68375 -18.35875,13.8925 l -7.939,-18.85375 c 5.95412,-5.21 12.1565,-9.67625 18.6065,-13.8925 z m -30.0185,45.6475 7.44287,18.855 c -6.69875,2.48 -13.397,3.96875 -21.583995,4.96125 l -7.6905,-19.1025 c 7.6905,-0.745 14.63725,-2.23375 21.831625,-4.71375 z m -46.392125,4.2175 7.690875,18.60625 c -9.179625,-0.9925 -17.86225,-3.47375 -26.793375,-6.45 l -7.4425,-18.60625 c 8.682625,2.97625 17.613875,4.96125 26.545,6.45"
     inkscape:connector-curvature="0"
     id="path50"
     style="fill:#231f20;fill-opacity:1;fill-rule:evenodd;stroke:none" /><path
     d="M 307.86875,93.12625 C 299.6825,92.38125 291.2475,91.6375 283.06,91.6375 l -7.4425,-18.855 c 8.18625,0 16.62125,0.745 24.56125,1.48875 l 7.69,18.855 z m -56.0675,-19.8475 C 244.11,73.775 236.42,74.51875 228.73,76.0075 l 7.69,18.855 c 7.69,-1.24 15.38125,-1.985 23.0725,-2.72875 l -7.69125,-18.855 z M 214.0925,99.3275 206.40125,80.225 c -7.19375,1.7375 -14.38875,3.97 -21.335,6.45125 l 7.4425,18.85375 c 7.19375,-2.48125 14.14125,-4.71375 21.58375,-6.2025 z m -49.865,-4.2175 7.69,18.855 c -6.69875,2.9775 -13.14875,6.45 -19.84625,10.6675 l -7.4425,-19.1025 c 6.20125,-3.97 12.9,-7.4425 19.59875,-10.42 z m -30.515,43.415 -6.2025,6.2025 -7.93875,-18.60625 6.69875,-6.45 7.4425,18.85375 z m -6.2025,6.2025 7.69125,19.1025 c -4.2175,2.2325 -8.1875,4.46625 -12.901,6.2025 l -7.69038,-18.85375 c 4.71338,-1.7375 8.93063,-3.72125 12.90013,-6.45125 z m -34.98025,11.16375 7.442875,19.1025 C 92.03375,175.49 84.09525,175.2425 75.660125,174.25 L 68.21775,155.395 c 8.1865,0.745 16.869625,1.48875 24.312,0.49625 z m -51.105375,-7.19375 -6.20225,-2.23375 7.9385,18.855 5.706125,2.2325 -7.442375,-18.85375 z M 323.25,77.745 c -7.69,-1.7375 -15.38125,-2.48125 -23.07125,-3.47375 -2.23375,-6.45 -4.9625,-12.6525 -7.69125,-18.85375 7.69125,0.99125 15.1325,1.98375 22.57625,3.4725 L 323.25,77.745 z M 267.92625,53.92875 275.6175,72.7825 c -8.18625,0 -16.125,0 -23.81625,0.49625 L 244.11,54.42375 c 7.93875,-0.495 15.87875,-0.74375 23.81625,-0.495 z m -46.8875,3.225 L 228.73,76.0075 C 221.03875,77 213.84375,78.48875 206.40125,80.225 l -7.4425,-18.855 c 7.195,-1.73625 14.6375,-3.225 22.08,-4.21625 z m -43.66375,10.6675 7.69125,18.855 C 178.12,89.15625 170.925,91.885 164.2275,95.11 l -7.69125,-19.1025 c 6.69875,-2.97625 13.645,-5.95375 20.83875,-8.18625 z m -40.4375,18.855 7.69125,18.85375 c -6.69875,4.2175 -12.6525,8.68375 -18.35875,13.8925 l -7.939,-18.85375 c 5.95412,-5.21 12.1565,-9.67625 18.6065,-13.8925 z m -30.0185,45.6475 7.44287,18.855 c -6.69875,2.48 -13.397,3.96875 -21.583995,4.96125 l -7.6905,-19.1025 c 7.6905,-0.745 14.63725,-2.23375 21.831625,-4.71375 z m -46.392125,4.2175 7.690875,18.60625 c -9.179625,-0.9925 -17.86225,-3.47375 -26.793375,-6.45 l -7.4425,-18.60625 c 8.682625,2.97625 17.613875,4.96125 26.545,6.45 z"
     inkscape:connector-curvature="0"
     id="path52"
     style="fill:none;stroke:#231f20;stroke-width:3.47321248;stroke-linecap:round;stroke-linejoin:round;stroke-miterlimit:2.61313009;stroke-opacity:1;stroke-dasharray:none" /><path
     d="m 291.99125,55.665 c -7.93875,-0.49625 -16.37375,-1.48875 -24.56,-1.48875 l -7.4425,-18.855 c 8.18625,0 16.62125,0.745 24.56,1.48875 l 7.4425,18.855 z M 236.1725,35.8175 c -7.93875,0.745 -15.3825,1.24125 -23.0725,2.73 l 7.4425,18.85375 c 7.93875,-1.24 15.63,-1.98375 23.07125,-2.72875 l -7.44125,-18.855 z m -37.71,26.05 -7.69,-19.1025 c -7.195,1.73625 -14.39,3.96875 -21.33625,6.45 L 176.88,68.06875 c 6.94625,-2.2325 14.14,-4.465 21.5825,-6.20125 z M 148.5975,57.65 156.04,76.505 c -6.69875,2.97625 -13.14875,6.45 -19.59875,10.6675 L 128.75,68.3175 C 135.20125,64.1 141.9,60.62625 148.5975,57.65 z m -30.5145,43.415 -6.45025,6.2025 -7.69088,-18.855 6.45025,-6.2025 7.69088,18.855 z m -6.45025,6.2025 7.9385,19.1025 c -4.21725,2.48 -8.4345,4.465 -13.14838,6.20125 L 98.731875,113.7175 c 4.961995,-1.7375 9.179745,-3.72125 12.900875,-6.45 z m -34.732375,11.41125 7.442875,18.855 c -7.939,0.495 -15.629375,0.2475 -24.3125,-0.745 L 52.587875,117.935 c 8.187,0.99125 16.622125,1.4875 24.3125,0.74375 z m -51.106,-7.4425 -6.201625,-2.2325 7.6905,18.85375 5.954,2.23375 -7.442875,-18.855 z M 307.3725,40.28375 c -7.69,-1.73625 -15.38125,-2.48125 -22.82375,-3.47375 -2.2325,-6.45 -4.96125,-12.6525 -7.69125,-18.855 7.69125,0.99375 15.13375,1.985 22.57625,3.47375 l 7.93875,18.855 z M 252.04875,16.4675 259.74,35.32125 c -7.93875,0 -15.8775,0 -23.81625,0.49625 l -7.69,-18.85375 c 8.18625,-0.49625 15.87625,-0.745 23.815,-0.49625 z m -46.8875,3.225 7.93875,18.855 c -7.69125,0.9925 -14.885,2.48 -22.3275,4.465 L 183.08125,23.91 c 7.195,-1.73625 14.6375,-3.225 22.08,-4.2175 z m -43.415,10.6675 7.69,18.855 c -7.19375,2.48 -14.14,5.20875 -20.83875,8.435 l -7.69125,-18.855 c 6.69875,-3.225 13.645,-6.2025 20.84,-8.435 z M 121.30813,49.4625 128.75,68.06875 c -6.44975,4.2175 -12.40375,8.68375 -18.35788,14.14125 l -7.93899,-19.1025 c 6.20262,-5.21 12.15675,-9.675 18.855,-13.645 z m -30.01863,45.4 7.442375,18.855 c -6.698125,2.48 -13.396375,3.96875 -21.583375,4.96125 L 69.21,99.57625 c 7.9385,-0.74375 14.88525,-2.2325 22.0795,-4.71375 z m -46.392,4.2175 7.690375,18.60625 c -9.179125,-0.74375 -18.109875,-3.225 -26.7935,-6.45 L 18.104,92.63 c 8.931125,2.9775 17.86225,4.96125 26.7935,6.45"
     inkscape:connector-curvature="0"
     id="path54"
     style="fill:#231f20;fill-opacity:1;fill-rule:evenodd;stroke:none" /><path
     d="m 291.99125,55.665 c -7.93875,-0.49625 -16.37375,-1.48875 -24.56,-1.48875 l -7.4425,-18.855 c 8.18625,0 16.62125,0.745 24.56,1.48875 l 7.4425,18.855 z M 236.1725,35.8175 c -7.93875,0.745 -15.3825,1.24125 -23.0725,2.73 l 7.4425,18.85375 c 7.93875,-1.24 15.63,-1.98375 23.07125,-2.72875 l -7.44125,-18.855 z m -37.71,26.05 -7.69,-19.1025 c -7.195,1.73625 -14.39,3.96875 -21.33625,6.45 L 176.88,68.06875 c 6.94625,-2.2325 14.14,-4.465 21.5825,-6.20125 z M 148.5975,57.65 156.04,76.505 c -6.69875,2.97625 -13.14875,6.45 -19.59875,10.6675 L 128.75,68.3175 C 135.20125,64.1 141.9,60.62625 148.5975,57.65 z m -30.5145,43.415 -6.45025,6.2025 -7.69088,-18.855 6.45025,-6.2025 7.69088,18.855 z m -6.45025,6.2025 7.9385,19.1025 c -4.21725,2.48 -8.4345,4.465 -13.14838,6.20125 L 98.731875,113.7175 c 4.961995,-1.7375 9.179745,-3.72125 12.900875,-6.45 z m -34.732375,11.41125 7.442875,18.855 c -7.939,0.495 -15.629375,0.2475 -24.3125,-0.745 L 52.587875,117.935 c 8.187,0.99125 16.622125,1.4875 24.3125,0.74375 z m -51.106,-7.4425 -6.201625,-2.2325 7.6905,18.85375 5.954,2.23375 -7.442875,-18.855 z M 307.3725,40.28375 c -7.69,-1.73625 -15.38125,-2.48125 -22.82375,-3.47375 -2.2325,-6.45 -4.96125,-12.6525 -7.69125,-18.855 7.69125,0.99375 15.13375,1.985 22.57625,3.47375 l 7.93875,18.855 z M 252.04875,16.4675 259.74,35.32125 c -7.93875,0 -15.8775,0 -23.81625,0.49625 l -7.69,-18.85375 c 8.18625,-0.49625 15.87625,-0.745 23.815,-0.49625 z m -46.8875,3.225 7.93875,18.855 c -7.69125,0.9925 -14.885,2.48 -22.3275,4.465 L 183.08125,23.91 c 7.195,-1.73625 14.6375,-3.225 22.08,-4.2175 z m -43.415,10.6675 7.69,18.855 c -7.19375,2.48 -14.14,5.20875 -20.83875,8.435 l -7.69125,-18.855 c 6.69875,-3.225 13.645,-6.2025 20.84,-8.435 z M 121.30813,49.4625 128.75,68.06875 c -6.44975,4.2175 -12.40375,8.68375 -18.35788,14.14125 l -7.93899,-19.1025 c 6.20262,-5.21 12.15675,-9.675 18.855,-13.645 z m -30.01863,45.4 7.442375,18.855 c -6.698125,2.48 -13.396375,3.96875 -21.583375,4.96125 L 69.21,99.57625 c 7.9385,-0.74375 14.88525,-2.2325 22.0795,-4.71375 z m -46.392,4.2175 7.690375,18.60625 c -9.179125,-0.74375 -18.109875,-3.225 -26.7935,-6.45 L 18.104,92.63 c 8.931125,2.9775 17.86225,4.96125 26.7935,6.45 z"
     inkscape:connector-curvature="0"
     id="path56"
     style="fill:none;stroke:#231f20;stroke-width:3.47321248;stroke-linecap:round;stroke-linejoin:round;stroke-miterlimit:2.61313009;stroke-opacity:1;stroke-dasharray:none" /><path
     d="M 309.605,13.73875 460.69,381.40237 c 3.72125,8.68263 -5.4575,12.90038 -11.4125,2.7285 L 298.44125,18.45125 c -2.9775,-7.19375 8.435,-10.6675 11.16375,-4.7125"
     inkscape:connector-curvature="0"
     id="path58"
     style="fill:#231f20;fill-opacity:1;fill-rule:evenodd;stroke:none" /><path
     d="M 309.605,13.73875 460.69,381.40237 c 3.72125,8.68263 -5.4575,12.90038 -11.4125,2.7285 L 298.44125,18.45125 c -2.9775,-7.19375 8.435,-10.6675 11.16375,-4.7125 z"
     inkscape:connector-curvature="0"
     id="path60"
     style="fill:none;stroke:#231f20;stroke-width:3.47321248;stroke-linecap:round;stroke-linejoin:round;stroke-miterlimit:2.61313009;stroke-opacity:1;stroke-dasharray:none" /><path
     d="m 626.66,481.62887 0,-4.71337 -14.14125,0 0,-5.706 51.10625,0 c 12.6525,0 23.81625,-9.42725 23.81625,-23.81638 l 0,-158.77562 c 0,-11.41125 -8.68375,-19.84625 -19.35125,-19.84625 l -81.62,0 c -9.92375,0 -19.1025,9.17875 -19.1025,19.1025 l 0,33.74 -93.0325,0 c -5.955,0 -7.195,-11.165 -8.435,-18.855 l 15.8775,-13.8925 c 9.675,0.2475 15.38125,-5.70625 15.38125,-15.38125 0,-17.36625 -24.56,-17.11875 -41.43125,-11.90875 l 16.6225,-5.21 78.1475,0 0,29.5225 3.96875,0 0,-101.21875 -4.465,0 0,2.9775 -141.905,0 c -5.955,-8.435 -12.405,-17.11875 -24.3125,-17.11875 -11.90875,0 -18.11125,8.68375 -24.3125,17.11875 l -141.6575,0 0,-2.9775 -4.46625,0 0,101.21875 3.97,0 0,-29.5225 77.89875,0 16.6225,5.21 c -16.6225,-5.21 -41.1825,-5.4575 -41.1825,11.90875 0,9.675 5.4575,15.62875 15.38125,15.38125 l 15.8775,13.8925 c -1.24125,7.69 -2.72875,18.855 -8.435,18.855 l -93.0325,0 0,-33.74 c 0,-9.92375 -9.4275,-19.1025 -19.1025,-19.1025 l -81.620375,0 c -10.668,0 -19.599125,8.435 -19.599125,19.84625 l 0,158.77562 c 0,14.38913 11.164,23.81638 23.81637,23.81638 l 51.10563,0 0,5.706 -13.8925,0 0,4.71337 485.505,0 z m -83.85375,-96.00924 0,24.80862 c 0,4.21725 -2.2325,6.45012 -6.45,6.45012 -15.38125,0 -20.59125,-5.95399 -20.59125,-14.88524 0,-12.15625 27.04125,-24.06438 27.04125,-16.3735 z m -318.04625,0 0,24.80862 c 0,4.21725 2.2325,6.45012 6.45,6.45012 15.38125,0 20.59125,-5.95399 20.59125,-14.88524 0,-12.15625 -27.04125,-24.06438 -27.04125,-16.3735"
     inkscape:connector-curvature="0"
     id="path62"
     style="fill:#231f20;fill-opacity:1;fill-rule:evenodd;stroke:none" /><path
     d="m 626.66,481.62887 0,-4.71337 -14.14125,0 0,-5.706 51.10625,0 c 12.6525,0 23.81625,-9.42725 23.81625,-23.81638 l 0,-158.77562 c 0,-11.41125 -8.68375,-19.84625 -19.35125,-19.84625 l -81.62,0 c -9.92375,0 -19.1025,9.17875 -19.1025,19.1025 l 0,33.74 -93.0325,0 c -5.955,0 -7.195,-11.165 -8.435,-18.855 l 15.8775,-13.8925 c 9.675,0.2475 15.38125,-5.70625 15.38125,-15.38125 0,-17.36625 -24.56,-17.11875 -41.43125,-11.90875 l 16.6225,-5.21 78.1475,0 0,29.5225 3.96875,0 0,-101.21875 -4.465,0 0,2.9775 -141.905,0 c -5.955,-8.435 -12.405,-17.11875 -24.3125,-17.11875 -11.90875,0 -18.11125,8.68375 -24.3125,17.11875 l -141.6575,0 0,-2.9775 -4.46625,0 0,101.21875 3.97,0 0,-29.5225 77.89875,0 16.6225,5.21 c -16.6225,-5.21 -41.1825,-5.4575 -41.1825,11.90875 0,9.675 5.4575,15.62875 15.38125,15.38125 l 15.8775,13.8925 c -1.24125,7.69 -2.72875,18.855 -8.435,18.855 l -93.0325,0 0,-33.74 c 0,-9.92375 -9.4275,-19.1025 -19.1025,-19.1025 l -81.620375,0 c -10.668,0 -19.599125,8.435 -19.599125,19.84625 l 0,158.77562 c 0,14.38913 11.164,23.81638 23.81637,23.81638 l 51.10563,0 0,5.706 -13.8925,0 0,4.71337 485.505,0 z m -83.85375,-96.00924 0,24.80862 c 0,4.21725 -2.2325,6.45012 -6.45,6.45012 -15.38125,0 -20.59125,-5.95399 -20.59125,-14.88524 0,-12.15625 27.04125,-24.06438 27.04125,-16.3735 z m -318.04625,0 0,24.80862 c 0,4.21725 2.2325,6.45012 6.45,6.45012 15.38125,0 20.59125,-5.95399 20.59125,-14.88524 0,-12.15625 -27.04125,-24.06438 -27.04125,-16.3735 z"
     inkscape:connector-curvature="0"
     id="path64"
     style="fill:none;stroke:#231f20;stroke-width:7.44258738;stroke-linecap:round;stroke-linejoin:round;stroke-miterlimit:2.61313009;stroke-opacity:1;stroke-dasharray:none" /><path
     d="m 303.9,264.80125 c 1.98375,1.985 2.97625,4.9625 0,5.4575 -8.68375,0.99375 -12.15625,9.92375 -22.08,11.66125 -6.69875,1.24 -11.16375,-9.4275 -7.69125,-14.88625 6.9475,-8.18625 22.32875,-8.6825 29.77125,-2.2325 z m 159.7675,0 c -1.985,1.985 -2.9775,4.9625 0,5.4575 8.6825,0.99375 12.15625,9.92375 22.07875,11.66125 6.69875,1.24 11.165,-9.4275 7.69125,-14.88625 -6.94625,-8.18625 -22.3275,-8.6825 -29.77,-2.2325 z m 202.4375,4.9625 -78.89125,0 c -2.2325,0 -3.72125,1.73625 -3.72125,3.96875 l 0,2.72875 c 0,1.985 1.48875,3.72125 3.72125,3.72125 l 78.89125,0 c 1.985,0 3.72125,-1.73625 3.72125,-3.72125 l 0,-2.72875 c 0,-2.2325 -1.73625,-3.96875 -3.72125,-3.96875 z m -10.17125,22.82375 -68.72,0 c -1.98375,0 -3.72125,1.48875 -3.72125,3.4725 l 0,9.67625 c 0,2.2325 1.7375,3.96875 3.72125,3.96875 l 68.72,0 c 1.985,0 3.72125,-1.73625 3.72125,-3.96875 l 0,-9.67625 c 0,-1.98375 -1.73625,-3.4725 -3.72125,-3.4725 z m -544.301,0 68.71975,0 c 1.985,0 3.72125,1.48875 3.72125,3.4725 l 0,9.67625 c 0,2.2325 -1.73625,3.96875 -3.72125,3.96875 l -68.71975,0 c -1.98475,0 -3.72113,-1.73625 -3.72113,-3.96875 l 0,-9.67625 c 0,-1.98375 1.73638,-3.4725 3.72113,-3.4725 z m -10.17138,-22.82375 78.89113,0 c 2.2325,0 3.72125,1.73625 3.72125,3.96875 l 0,2.72875 c 0,1.985 -1.48875,3.72125 -3.72125,3.72125 l -78.89113,0 c -1.985245,0 -3.72162,-1.73625 -3.72162,-3.72125 l 0,-2.72875 c 0,-2.2325 1.736375,-3.96875 3.72162,-3.96875"
     inkscape:connector-curvature="0"
     id="path66"
     style="fill:#c8c7c7;fill-opacity:1;fill-rule:evenodd;stroke:none" /><path
     d="m 303.9,264.80125 c 1.98375,1.985 2.97625,4.9625 0,5.4575 -8.68375,0.99375 -12.15625,9.92375 -22.08,11.66125 -6.69875,1.24 -11.16375,-9.4275 -7.69125,-14.88625 6.9475,-8.18625 22.32875,-8.6825 29.77125,-2.2325 z m 159.7675,0 c -1.985,1.985 -2.9775,4.9625 0,5.4575 8.6825,0.99375 12.15625,9.92375 22.07875,11.66125 6.69875,1.24 11.165,-9.4275 7.69125,-14.88625 -6.94625,-8.18625 -22.3275,-8.6825 -29.77,-2.2325 z m 202.4375,4.9625 -78.89125,0 c -2.2325,0 -3.72125,1.73625 -3.72125,3.96875 l 0,2.72875 c 0,1.985 1.48875,3.72125 3.72125,3.72125 l 78.89125,0 c 1.985,0 3.72125,-1.73625 3.72125,-3.72125 l 0,-2.72875 c 0,-2.2325 -1.73625,-3.96875 -3.72125,-3.96875 z m -10.17125,22.82375 -68.72,0 c -1.98375,0 -3.72125,1.48875 -3.72125,3.4725 l 0,9.67625 c 0,2.2325 1.7375,3.96875 3.72125,3.96875 l 68.72,0 c 1.985,0 3.72125,-1.73625 3.72125,-3.96875 l 0,-9.67625 c 0,-1.98375 -1.73625,-3.4725 -3.72125,-3.4725 z m -544.301,0 68.71975,0 c 1.985,0 3.72125,1.48875 3.72125,3.4725 l 0,9.67625 c 0,2.2325 -1.73625,3.96875 -3.72125,3.96875 l -68.71975,0 c -1.98475,0 -3.72113,-1.73625 -3.72113,-3.96875 l 0,-9.67625 c 0,-1.98375 1.73638,-3.4725 3.72113,-3.4725 z m -10.17138,-22.82375 78.89113,0 c 2.2325,0 3.72125,1.73625 3.72125,3.96875 l 0,2.72875 c 0,1.985 -1.48875,3.72125 -3.72125,3.72125 l -78.89113,0 c -1.985245,0 -3.72162,-1.73625 -3.72162,-3.72125 l 0,-2.72875 c 0,-2.2325 1.736375,-3.96875 3.72162,-3.96875 z"
     inkscape:connector-curvature="0"
     id="path68"
     style="fill:none;stroke:#231f20;stroke-width:0.74425876;stroke-linecap:round;stroke-linejoin:round;stroke-miterlimit:2.61313009;stroke-opacity:1;stroke-dasharray:none" /><path
     d="m 491.70125,421.84037 129.9975,0 3.72125,-18.35887 0,62.518 -3.72125,-16.3735 -154.31,0 24.3125,-27.78563 z m -215.835,0 -129.9975,0 -3.72125,-18.35887 0,62.518 3.72125,-16.3735 154.31,0 -24.3125,-27.78563 z m 28.52875,19.3505 c -12.15625,-27.0415 -30.51375,-46.392 -53.3375,-65.49462 l 100.97125,0 14.14125,26.29687 35.2275,0 14.14,-26.29687 100.97125,0 c -22.82375,19.10262 -41.18125,38.45313 -53.3375,65.49462 l -158.77625,0 z M 473.59,324.3425 l 93.52875,0 11.4125,5.70625 0,6.45 -43.6625,7.19375 3.72,11.4125 -22.82375,16.87012 -95.265,0 c 30.01875,-7.69137 65.24625,-19.10262 53.09,-47.63262 z m -179.61375,0 -93.52875,0 -11.41125,5.70625 0,6.45 43.6625,7.19375 -3.72125,11.4125 22.82375,16.87012 95.265,0 C 317.0475,364.28375 281.82,352.8725 293.97625,324.3425 z m 89.8075,42.17375 c -72.69,-2.72875 -99.98,-11.9075 -84.84625,-49.865 1.48875,-4.71375 2.48125,-9.17875 2.9775,-13.8925 l -15.8775,-13.8925 11.9075,0 12.90125,9.17875 c 17.36625,8.6825 46.3925,7.93875 72.9375,7.93875 26.545,0 55.57125,0.74375 72.9375,-7.93875 l 12.9,-9.17875 11.9075,0 -15.8775,13.8925 c 0.49625,4.71375 1.48875,9.17875 2.9775,13.8925 15.13375,37.9575 -12.15625,47.13625 -84.845,49.865 z M 440.595,227.8375 l 109.1575,0 0,6.94625 -104.6925,0 -4.465,-6.94625 z m -28.7775,-33.4925 17.365,20.34375 115.36125,0 5.20875,-12.1575 0,-8.18625 -137.935,0 z m -84.84625,33.4925 -109.1575,0 0,6.94625 104.6925,0 4.465,-6.94625 z M 355.75,194.345 l -17.36625,20.34375 -115.36,0 -5.21,-12.1575 0,-8.18625 137.93625,0"
     inkscape:connector-curvature="0"
     id="path70"
     style="fill:#fcff3c;fill-opacity:1;fill-rule:evenodd;stroke:none" /><path
     d="m 491.70125,421.84037 129.9975,0 3.72125,-18.35887 0,62.518 -3.72125,-16.3735 -154.31,0 24.3125,-27.78563 z m -215.835,0 -129.9975,0 -3.72125,-18.35887 0,62.518 3.72125,-16.3735 154.31,0 -24.3125,-27.78563 z m 28.52875,19.3505 c -12.15625,-27.0415 -30.51375,-46.392 -53.3375,-65.49462 l 100.97125,0 14.14125,26.29687 35.2275,0 14.14,-26.29687 100.97125,0 c -22.82375,19.10262 -41.18125,38.45313 -53.3375,65.49462 l -158.77625,0 z M 473.59,324.3425 l 93.52875,0 11.4125,5.70625 0,6.45 -43.6625,7.19375 3.72,11.4125 -22.82375,16.87012 -95.265,0 c 30.01875,-7.69137 65.24625,-19.10262 53.09,-47.63262 z m -179.61375,0 -93.52875,0 -11.41125,5.70625 0,6.45 43.6625,7.19375 -3.72125,11.4125 22.82375,16.87012 95.265,0 C 317.0475,364.28375 281.82,352.8725 293.97625,324.3425 z m 89.8075,42.17375 c -72.69,-2.72875 -99.98,-11.9075 -84.84625,-49.865 1.48875,-4.71375 2.48125,-9.17875 2.9775,-13.8925 l -15.8775,-13.8925 11.9075,0 12.90125,9.17875 c 17.36625,8.6825 46.3925,7.93875 72.9375,7.93875 26.545,0 55.57125,0.74375 72.9375,-7.93875 l 12.9,-9.17875 11.9075,0 -15.8775,13.8925 c 0.49625,4.71375 1.48875,9.17875 2.9775,13.8925 15.13375,37.9575 -12.15625,47.13625 -84.845,49.865 z M 440.595,227.8375 l 109.1575,0 0,6.94625 -104.6925,0 -4.465,-6.94625 z m -28.7775,-33.4925 17.365,20.34375 115.36125,0 5.20875,-12.1575 0,-8.18625 -137.935,0 z m -84.84625,33.4925 -109.1575,0 0,6.94625 104.6925,0 4.465,-6.94625 z M 355.75,194.345 l -17.36625,20.34375 -115.36,0 -5.21,-12.1575 0,-8.18625 137.93625,0 z"
     inkscape:connector-curvature="0"
     id="path72"
     style="fill:none;stroke:#231f20;stroke-width:3.47321248;stroke-linecap:round;stroke-linejoin:round;stroke-miterlimit:2.61313009;stroke-opacity:1;stroke-dasharray:none" /><path
     d="m 425.9825,256.09125 c 0,-12.15625 -5.45875,-43.91125 -38.45375,-43.66375 -32.7475,0.49625 -37.71,29.77125 -37.71,43.66375 l 6.94625,1.24 c 0.24875,-7.4425 4.715,-12.6525 13.89375,-12.6525 l 35.72375,0 c 10.17125,0 12.6525,5.95375 12.6525,11.66 l 6.9475,-0.2475"
     inkscape:connector-curvature="0"
     id="path74"
     style="fill:#ed1d29;fill-opacity:1;fill-rule:evenodd;stroke:none" /><path
     d="m 468.1325,287.87375 -17.8625,-29.77 c -2.97625,-4.2175 -5.95375,-8.1875 -11.16375,-5.70625 -18.35875,6.2025 -32.74625,7.69 -55.3225,7.4425 -22.32875,0.2475 -36.7175,-1.24 -55.07625,-7.4425 -5.20875,-2.48125 -8.18625,1.48875 -11.16375,5.70625 l -17.86125,29.77"
     inkscape:connector-curvature="0"
     id="path76"
     style="fill:none;stroke:#ffffff;stroke-width:4.96172523;stroke-linecap:round;stroke-linejoin:round;stroke-miterlimit:2.61313009;stroke-opacity:1;stroke-dasharray:none" /><path
     d="m 317.7925,299.28625 21.0875,-41.9275 5.20875,1.24125 -18.60625,39.445 22.08,-38.70125 6.2025,0.74375 -12.90125,43.66375 c -8.93125,-0.9925 -17.1175,-1.73625 -23.07125,-4.465"
     inkscape:connector-curvature="0"
     id="path78"
     style="fill:#ffffff;fill-opacity:1;fill-rule:evenodd;stroke:none" /></svg>