<?xml version="1.0" encoding="UTF-8" standalone="no"?>
<svg
   xmlns:dc="http://purl.org/dc/elements/1.1/"
   xmlns:cc="http://creativecommons.org/ns#"
   xmlns:rdf="http://www.w3.org/1999/02/22-rdf-syntax-ns#"
   xmlns:svg="http://www.w3.org/2000/svg"
   xmlns="http://www.w3.org/2000/svg"
   xmlns:sodipodi="http://sodipodi.sourceforge.net/DTD/sodipodi-0.dtd"
   xmlns:inkscape="http://www.inkscape.org/namespaces/inkscape"
   inkscape:export-ydpi="300.14365"
   inkscape:export-xdpi="300.14365"
   inkscape:export-filename="/Users/jeffpiazza/Cub Scouts/Pinewood Derby/Software Development/Artwork and Media/derby-room-large.png"
   sodipodi:docname="derby-room.svg"
   inkscape:version="1.0beta1 (32d4812, 2019-09-19)"
   version="1.1"
   id="svg9428"
   viewBox="0 0 590.00001 250"
   height="250"
   width="590">
  <defs
     id="defs9430" />
  <sodipodi:namedview
     inkscape:document-rotation="0"
     inkscape:window-maximized="0"
     inkscape:window-y="23"
     inkscape:window-x="0"
     inkscape:window-height="907"
     inkscape:window-width="1600"
     units="px"
     showgrid="false"
     inkscape:current-layer="layer1"
     inkscape:document-units="px"
     inkscape:cy="332"
     inkscape:cx="358"
     inkscape:zoom="1"
     inkscape:pageshadow="2"
     inkscape:pageopacity="0.0"
     borderopacity="1.0"
     bordercolor="#666666"
     pagecolor="#ffffff"
     id="base" />
  <metadata
     id="metadata9433">
    <rdf:RDF>
      <cc:Work
         rdf:about="">
        <dc:format>image/svg+xml</dc:format>
        <dc:type
           rdf:resource="http://purl.org/dc/dcmitype/StillImage" />
        <dc:title />
      </cc:Work>
    </rdf:RDF>
  </metadata>
  <g
     style="display:inline"
     transform="translate(0,-802.36216)"
     id="layer1"
     inkscape:groupmode="layer"
     inkscape:label="Layer 1">
    <path
       sodipodi:nodetypes="cccssssscccccccc"
       inkscape:connector-curvature="0"
       id="path9976"
       d="m 211.5,965.2606 0,9.2935 c 0,0 5.7873,5.40837 14.39858,13.63423 -0.13232,0.21564 -0.22655,0.46516 -0.22655,0.75 l 0,61.09767 c 0,0.7345 0.516,1.3262 1.15659,1.3262 l 4.22776,0 c 0.64059,0 1.15659,-0.5917 1.15659,-1.3262 l 0,-55.83204 c 8.39901,7.94554 16.98473,15.62654 26.57597,21.52544 23.34028,11.3263 48.79354,15.0921 73.60939,19.8847 49.06179,8.2926 98.49207,13.4441 147.95294,17.375 1.96733,-6.8111 -1.64394,-8.0013 -6.90545,-7.5547 -59.05351,-5.2179 -118.35674,-10.9166 -176.50652,-24.1093 -17.57753,-4.5324 -35.99549,-8.7051 -49.87465,-22.69927 C 234.87602,987.98184 223.12549,976.69733 211.5,965.2606 Z"
       style="color:#000000;font-style:normal;font-variant:normal;font-weight:normal;font-stretch:normal;font-size:medium;line-height:normal;font-family:sans-serif;text-indent:0;text-align:start;text-decoration:none;text-decoration-line:none;text-decoration-style:solid;text-decoration-color:#000000;letter-spacing:normal;word-spacing:normal;text-transform:none;direction:ltr;block-progression:tb;writing-mode:lr-tb;baseline-shift:baseline;text-anchor:start;white-space:normal;clip-rule:nonzero;display:inline;overflow:visible;visibility:visible;opacity:1;isolation:auto;mix-blend-mode:normal;color-interpolation:sRGB;color-interpolation-filters:linearRGB;solid-color:#000000;solid-opacity:1;fill:#000000;fill-opacity:1;fill-rule:evenodd;stroke:none;stroke-width:3;stroke-linecap:butt;stroke-linejoin:miter;stroke-miterlimit:4;stroke-dasharray:none;stroke-dashoffset:0;stroke-opacity:1;color-rendering:auto;image-rendering:auto;shape-rendering:auto;text-rendering:auto;enable-background:accumulate" />
    <path
       inkscape:connector-curvature="0"
       id="rect9978"
       transform="translate(0,752.36216)"
       d="m 8.9960938,240.5 0,3.5 7.5000002,0 0,54.5 0.61914,0 4.38086,0 2.003906,0 0,-46.05273 112.99609,0 0,46.05273 2.00391,0 4.38086,0 0.61914,0 0,-54.5 7.5,0 0,-3.5 -8.00391,0 -125.99609,0 -8.0039062,0 z"
       style="opacity:1;fill:#000000;fill-opacity:1;fill-rule:nonzero;stroke:#000100;stroke-width:1;stroke-linecap:square;stroke-linejoin:miter;stroke-miterlimit:4;stroke-dasharray:none;stroke-dashoffset:0;stroke-opacity:1" />
    <path
       inkscape:connector-curvature="0"
       id="rect9999"
       transform="translate(0,752.36216)"
       d="m 21,195 0,35 16.84375,0 0,12.37109 11.3125,0 0,-12.37109 16.84375,0 0,-35 -45,0 z m 4.576172,4.375 35.847656,0 c 0.734507,0 1.326172,0.59166 1.326172,1.32617 l 0,23.59766 c 0,0.73451 -0.591665,1.32617 -1.326172,1.32617 l -35.847656,0 c -0.734507,0 -1.326172,-0.59166 -1.326172,-1.32617 l 0,-23.59766 c 0,-0.73451 0.591665,-1.32617 1.326172,-1.32617 z"
       style="opacity:1;fill:#000000;fill-opacity:1;fill-rule:nonzero;stroke:#000100;stroke-width:1;stroke-linecap:square;stroke-linejoin:miter;stroke-miterlimit:4;stroke-dasharray:none;stroke-dashoffset:0;stroke-opacity:1" />
    <path
       inkscape:connector-curvature="0"
       id="path10015"
       transform="translate(0,752.36216)"
       d="m 497,179 0,63 28.125,0 0,58.35352 24.75,0 0,-58.35352 28.125,0 0,-63 -81,0 z m 8.23633,7.875 64.52734,0 c 1.3221,0 2.38672,1.0646 2.38672,2.38672 l 0,42.47656 c 0,1.32212 -1.06462,2.38672 -2.38672,2.38672 l -64.52734,0 c -1.3221,0 -2.38672,-1.0646 -2.38672,-2.38672 l 0,-42.47656 c 0,-1.32212 1.06462,-2.38672 2.38672,-2.38672 z"
       style="opacity:1;fill:#000000;fill-opacity:1;fill-rule:nonzero;stroke:#000100;stroke-width:1.79999995;stroke-linecap:square;stroke-linejoin:miter;stroke-miterlimit:4;stroke-dasharray:none;stroke-dashoffset:0;stroke-opacity:1" />
    <path
       style="opacity:1;fill:#000000;fill-opacity:1;fill-rule:nonzero;stroke:none;stroke-width:3;stroke-linecap:square;stroke-linejoin:miter;stroke-miterlimit:4;stroke-dasharray:none;stroke-dashoffset:0;stroke-opacity:1"
       d="m 126.596,966.61032 10.41523,-2.86426 -3.30523,-3.30524 12.33017,-12.33017 9.54594,9.54594 -12.33017,12.33018 -3.00797,-3.00797 -3.00641,9.9919 -10.64156,-10.36038 z"
       id="path10022"
       inkscape:connector-curvature="0" />
    <path
       inkscape:connector-curvature="0"
       id="path10024"
       d="m 454.596,996.61032 10.41523,-2.86426 -3.30523,-3.30524 12.33017,-12.33017 9.54594,9.54594 -12.33017,12.33018 -3.00797,-3.00797 -3.00641,9.9919 -10.64156,-10.36038 z"
       style="opacity:1;fill:#000000;fill-opacity:1;fill-rule:nonzero;stroke:none;stroke-width:3;stroke-linecap:square;stroke-linejoin:miter;stroke-miterlimit:4;stroke-dasharray:none;stroke-dashoffset:0;stroke-opacity:1" />
    <rect
       y="967.86292"
       x="141.42136"
       height="24.748737"
       width="2.4748738"
       id="rect10032"
       style="opacity:1;fill:#000000;fill-opacity:1;fill-rule:nonzero;stroke:none;stroke-width:3;stroke-linecap:square;stroke-linejoin:miter;stroke-miterlimit:4;stroke-dasharray:none;stroke-dashoffset:0;stroke-opacity:1" />
    <rect
       y="852.11218"
       x="272.75916"
       height="106.25"
       width="167.24086"
       id="rect10034"
       style="opacity:1;fill:#000000;fill-opacity:1;fill-rule:nonzero;stroke:none;stroke-width:3;stroke-linecap:square;stroke-linejoin:miter;stroke-miterlimit:4;stroke-dasharray:none;stroke-dashoffset:0;stroke-opacity:1" />
    <path
       inkscape:connector-curvature="0"
       id="rect10036"
       d="m 277.1127,954.36133 c 52.6291,0 105.2582,0 157.8873,0 0,-32.66667 0,-65.33334 0,-98 -52.6291,0 -105.2582,0 -157.8873,0 0,32.66666 0,65.33333 0,98 z"
       style="opacity:1;fill:#ffffff;fill-opacity:1;fill-rule:nonzero;stroke:none;stroke-width:3;stroke-linecap:square;stroke-linejoin:miter;stroke-miterlimit:4;stroke-dasharray:none;stroke-dashoffset:0;stroke-opacity:1" />
    <rect
       y="908.96503"
       x="165.91716"
       height="36"
       width="28.199999"
       id="rect4151"
       style="opacity:1;fill:#000000;fill-opacity:1;fill-rule:nonzero;stroke:none;stroke-width:3;stroke-linecap:square;stroke-linejoin:miter;stroke-miterlimit:4;stroke-dasharray:none;stroke-dashoffset:0;stroke-opacity:1" />
    <rect
       rx="1.9445435"
       ry="1.9445437"
       y="911.96503"
       x="169.01715"
       height="30"
       width="22"
       id="rect5600"
       style="opacity:1;fill:#ffffff;fill-opacity:1;fill-rule:nonzero;stroke:none;stroke-width:3;stroke-linecap:square;stroke-linejoin:miter;stroke-miterlimit:4;stroke-dasharray:none;stroke-dashoffset:0;stroke-opacity:1" />
    <path
       style="fill:#ffffff;fill-opacity:1;stroke:#000000;stroke-opacity:1"
       id="path5583"
       d="m 206.16334,950.71922 c -0.315,-3.5805 -1.67475,-5.6385 -2.5305,-7.38675 -1.06575,-2.1945 -3.36525,-1.2495 -3.36525,-1.2495 -1.68,-1.617 -2.91375,0.29925 -2.91375,0.29925 -1.8795,-1.512 -2.94,0.72975 -2.94,0.72975 -0.252,0.0472 -3.801,-5.70675 -3.906,-5.88525 -0.91875,-1.56975 -2.86125,-0.77175 -1.79025,1.113 2.66175,4.6935 2.7615,5.51775 3.7905,7.2555 0.44625,0.75075 2.646,4.37325 1.63275,4.58325 -0.903,0.189 -2.0055,-1.81125 -3.612,-2.34675 -2.53575,-0.8505 -2.961,0.77175 -1.94775,1.32825 0.294,0.16275 1.6905,0.72975 2.7405,2.69325 0.23625,0.4515 1.764,0.777 2.2575,1.071 3.21825,1.91625 3.61725,1.53825 4.9035,1.554 1.3965,0.021 1.617,0.798 1.617,0.798 l 6.31575,-3.1605 c 0,0.005 -0.22575,-1.0395 -0.252,-1.3965 z"
       inkscape:connector-curvature="0" />
  </g>
  <g
     style="display:none"
     inkscape:label="timer"
     id="layer2"
     inkscape:groupmode="layer">
    <g
       id="g4152">
      <path
         transform="translate(0,-802.36216)"
         style="display:inline;fill:#a7001d;fill-opacity:1"
         d="m 250.85735,1017.3851 c -0.42024,0.1255 -0.27879,0.6927 -0.26441,1.0171 -0.0289,2.5516 -0.005,5.109 -0.0127,7.6629 0.65324,0 1.30648,0 1.95972,0 0.005,-2.195 -0.008,-4.39 0.006,-6.5849 5.06039,0.5628 9.57988,4.3996 10.93085,9.311 1.18781,4.0912 0.19586,8.7796 -2.61524,11.9895 -2.75222,3.2445 -7.16371,5.0198 -11.39547,4.46 -4.11237,-0.4815 -7.94137,-3.0493 -9.87506,-6.7251 -1.89767,-3.4959 -2.08943,-7.8649 -0.40549,-11.487 0.70126,-1.5536 1.71325,-2.9707 2.95502,-4.1338 -0.47653,-0.4725 -0.95323,-0.9449 -1.4298,-1.4175 -3.9279,3.6437 -5.6125,9.4997 -4.21452,14.6731 1.2725,4.934 5.21259,9.1007 10.11332,10.5448 4.53986,1.3922 9.73428,0.5114 13.48918,-2.4213 3.7211,-2.8371 6.01322,-7.4778 5.88595,-12.1687 -0.0711,-4.7606 -2.53858,-9.4349 -6.50244,-12.0952 -2.518,-1.7239 -5.5692,-2.6764 -8.62491,-2.6249 z"
         id="path78"
         inkscape:connector-curvature="0" />
      <path
         transform="translate(0,-802.36216)"
         inkscape:connector-curvature="0"
         d="m 249.64222,1033.4571 c 0.322,0.399 0.805,0.658 1.358,0.658 0.966,0 1.75,-0.784 1.75,-1.75 0,-0.511 -0.224,-0.966 -0.574,-1.288 -0.042,-0.049 -0.091,-0.105 -0.154,-0.154 0,0 -8.239,-6.125 -8.421,-5.964 -0.182,0.161 5.971,8.414 5.971,8.414 0.014,0.028 0.049,0.056 0.07,0.084 z"
         id="path76"
         style="display:inline;fill:#a7001d;fill-opacity:1" />
    </g>
  </g>
</svg>
