<?xml version="1.0" encoding="UTF-8" standalone="no"?>
<svg
   xmlns:dc="http://purl.org/dc/elements/1.1/"
   xmlns:cc="http://creativecommons.org/ns#"
   xmlns:rdf="http://www.w3.org/1999/02/22-rdf-syntax-ns#"
   xmlns:svg="http://www.w3.org/2000/svg"
   xmlns="http://www.w3.org/2000/svg"
   xmlns:sodipodi="http://sodipodi.sourceforge.net/DTD/sodipodi-0.dtd"
   xmlns:inkscape="http://www.inkscape.org/namespaces/inkscape"
   inkscape:version="1.0beta1 (32d4812, 2019-09-19)"
   id="svg13135"
   version="1.1"
   viewBox="0 0 507.99998 285.75001"
   height="1080"
   width="1920">
  <defs
     id="defs13129" />
  <sodipodi:namedview
     inkscape:window-maximized="0"
     inkscape:window-y="134"
     inkscape:window-x="20"
     inkscape:window-height="907"
     inkscape:window-width="1600"
     width="1920px"
     units="px"
     showgrid="false"
     inkscape:document-rotation="0"
     inkscape:current-layer="layer1"
     inkscape:document-units="mm"
     inkscape:cy="560"
     inkscape:cx="704.28571"
     inkscape:zoom="0.35"
     inkscape:pageshadow="2"
     inkscape:pageopacity="0.0"
     borderopacity="1.0"
     bordercolor="#666666"
     pagecolor="#ffffff"
     id="base" />
  <metadata
     id="metadata13132">
    <rdf:RDF>
      <cc:Work
         rdf:about="">
        <dc:format>image/svg+xml</dc:format>
        <dc:type
           rdf:resource="http://purl.org/dc/dcmitype/StillImage" />
        <dc:title></dc:title>
      </cc:Work>
    </rdf:RDF>
  </metadata>
  <g
     id="layer1"
     inkscape:groupmode="layer"
     inkscape:label="Layer 1">
    <g
       transform="matrix(1.3229167,0,0,1.3229167,-118.44438,-880.79)"
       id="g13487">
      <path
         inkscape:connector-curvature="0"
         fill-rule="evenodd"
         clip-rule="evenodd"
         fill="#7A7572"
         d="m 366.917,743.331 c 0,0 2.975,-12.512 11.282,-12.512 8.205,0 18.564,0 18.564,0 0,0 4.41,1.024 2.563,9.024 -1.949,8 -22.052,1.028 -28.82,8.516 l -4.102,4.717 -1.334,-1.024 z"
         id="path13431" />
      <path
         inkscape:connector-curvature="0"
         fill-rule="evenodd"
         clip-rule="evenodd"
         fill="#7A7572"
         d="m 196.148,743.331 c 0,0 -2.976,-12.512 -11.282,-12.512 -8.205,0 -18.565,0 -18.565,0 0,0 -4.41,1.024 -2.461,9.024 1.949,8 21.95,1.028 28.718,8.516 l 4.205,4.717 1.231,-1.024 z"
         id="path13433" />
      <path
         inkscape:connector-curvature="0"
         fill-rule="evenodd"
         clip-rule="evenodd"
         fill="#1C1C1C"
         d="M 396.866,788.357 H 383.84 c -6.461,0 -11.794,5.332 -11.794,11.795 v 55.079 c 0,6.562 5.333,11.896 11.794,11.896 h 13.026 c 6.461,0 11.794,-5.335 11.794,-11.896 v -55.079 c 0,-6.463 -5.333,-11.795 -11.794,-11.795 z"
         id="path13435" />
      <path
         inkscape:connector-curvature="0"
         fill-rule="evenodd"
         clip-rule="evenodd"
         fill="#1C1C1C"
         d="m 179.225,788.357 h -12.924 c -6.563,0 -11.897,5.332 -11.897,11.795 v 55.079 c 0,6.562 5.334,11.896 11.897,11.896 h 12.924 c 6.565,0 11.897,-5.335 11.897,-11.896 v -55.079 c 0,-6.463 -5.332,-11.795 -11.897,-11.795 z"
         id="path13437" />
      <rect
         x="281.58401"
         y="694.10101"
         fill-rule="evenodd"
         clip-rule="evenodd"
         fill="#434748"
         width="94.767998"
         height="11.18"
         id="rect13439" />
      <polygon
         fill-rule="evenodd"
         clip-rule="evenodd"
         fill="#A8A5A2"
         points="377.275,707.641 377.275,685.896 372.148,690.511 372.148,712.972 "
         id="polygon13441" />
      <rect
         x="186.71201"
         y="694.10101"
         fill-rule="evenodd"
         clip-rule="evenodd"
         fill="#434748"
         width="94.872002"
         height="11.18"
         id="rect13443" />
      <polygon
         fill-rule="evenodd"
         clip-rule="evenodd"
         fill="#A8A5A2"
         points="185.79,707.641 185.79,685.896 190.917,690.511 190.917,712.972 "
         id="polygon13445" />
      <path
         inkscape:connector-curvature="0"
         fill-rule="evenodd"
         clip-rule="evenodd"
         fill="#A8A5A2"
         d="m 281.584,680.461 c 0,0 47.281,0.205 62.46,2.255 15.077,1.95 38.154,54.464 38.154,54.464 0,0 9.743,1.947 8,14.872 0,0 21.95,10.254 21.95,25.023 0,14.872 0,41.129 0,41.129 0,0 1.435,31.486 -34.154,41.026 h -25.949 c 0,0 -3.076,-0.721 -9.024,-6.257 h -61.436 -61.54 c -5.949,5.536 -8.922,6.257 -8.922,6.257 h -25.95 c -35.59,-9.54 -34.256,-41.026 -34.256,-41.026 0,0 0,-26.257 0,-41.129 0,-14.77 21.95,-25.023 21.95,-25.023 -1.744,-12.925 8,-14.872 8,-14.872 0,0 23.077,-52.514 38.256,-54.464 15.077,-2.05 62.461,-2.255 62.461,-2.255 z"
         id="path13447" />
      <path
         inkscape:connector-curvature="0"
         fill-rule="evenodd"
         clip-rule="evenodd"
         fill="#9C9793"
         d="m 281.584,680.461 c 0,0 -47.385,0.205 -62.462,2.255 -15.18,1.95 -38.256,54.464 -38.256,54.464 0,0 -9.744,1.947 -8,14.872 0,0 -21.95,10.254 -21.95,25.023 0,14.872 0,41.129 0,41.129 0,0 -1.334,31.486 34.256,41.026 h 25.95 c 0,0 2.973,-0.721 8.922,-6.257 h 61.54 V 781.28 Z"
         id="path13449" />
      <path
         inkscape:connector-curvature="0"
         fill-rule="evenodd"
         clip-rule="evenodd"
         fill="#BAB8B7"
         d="m 412.148,802.513 v 15.691 c 0,0 1.435,31.486 -34.154,41.026 h -25.949 c 0,0 -3.076,-0.721 -9.024,-6.257 H 281.585 V 821.59 Z"
         id="path13451" />
      <path
         inkscape:connector-curvature="0"
         fill-rule="evenodd"
         clip-rule="evenodd"
         fill="#262728"
         d="m 289.584,829.999 78.667,-7.077 c 0,0 13.436,0.922 13.436,21.539 l -92.307,3.795 z"
         id="path13453" />
      <polygon
         fill-rule="evenodd"
         clip-rule="evenodd"
         fill="#BAB8B7"
         points="281.584,737.794 281.584,777.075 337.275,777.075 376.762,737.794 "
         id="polygon13455" />
      <polygon
         fill-rule="evenodd"
         clip-rule="evenodd"
         fill="#262728"
         points="333.07,754.716 290.301,754.408 286.302,761.179 326.609,761.179 "
         id="polygon13457" />
      <path
         inkscape:connector-curvature="0"
         fill-rule="evenodd"
         clip-rule="evenodd"
         fill="#8A837E"
         d="m 150.917,802.513 v 15.691 c 0,0 -1.334,31.486 34.256,41.026 h 25.95 c 0,0 2.973,-0.721 8.922,-6.257 h 61.54 V 821.59 Z"
         id="path13459" />
      <path
         inkscape:connector-curvature="0"
         fill-rule="evenodd"
         clip-rule="evenodd"
         fill="#262728"
         d="m 281.584,737.794 h -95.282 c 5.229,-11.384 23.794,-48.616 33.435,-49.948 9.128,-1.13 19.179,-1.335 28.411,-1.643 9.333,-0.205 23.999,-0.41 33.437,-0.513 9.332,0.103 23.999,0.308 33.435,0.513 9.128,0.308 19.282,0.513 28.308,1.643 9.641,1.332 28.204,38.564 33.435,49.948 z"
         id="path13461" />
      <path
         inkscape:connector-curvature="0"
         fill-rule="evenodd"
         clip-rule="evenodd"
         fill="#262728"
         d="m 273.583,829.999 -78.769,-7.077 c 0,0 -13.436,0.922 -13.436,21.539 l 92.307,3.795 z"
         id="path13463" />
      <path
         inkscape:connector-curvature="0"
         fill-rule="evenodd"
         clip-rule="evenodd"
         fill="#262728"
         d="m 281.584,807.332 c 0,0 -21.437,-0.614 -36.31,-2.463 -14.768,-1.946 -15.692,-23.999 -15.692,-23.999 h 52.001 51.896 c 0,0 -0.82,22.053 -15.692,23.999 -14.87,1.849 -36.203,2.463 -36.203,2.463 z"
         id="path13465" />
      <path
         inkscape:connector-curvature="0"
         fill-rule="evenodd"
         clip-rule="evenodd"
         fill="#262728"
         d="m 342.403,799.025 c 0,0 5.436,-13.95 11.282,-19.385 l 39.385,-9.028 c 0,0 8.922,6.258 3.076,20.105 z"
         id="path13467" />
      <path
         inkscape:connector-curvature="0"
         fill-rule="evenodd"
         clip-rule="evenodd"
         fill="#262728"
         d="m 220.661,799.025 c 0,0 -5.333,-13.95 -11.18,-19.385 l -39.385,-9.028 c 0,0 -9.026,6.258 -3.178,20.105 z"
         id="path13469" />
      <path
         inkscape:connector-curvature="0"
         fill-rule="evenodd"
         clip-rule="evenodd"
         fill="#FFFFFF"
         d="m 369.892,775.948 6.358,-1.541 c -1.231,1.233 -1.949,2.976 -1.949,4.721 0,1.947 0.82,3.59 2.051,4.82 1.231,1.229 2.871,1.946 4.717,1.946 1.846,0 3.59,-0.717 4.821,-1.946 l 0.103,-0.103 c 1.127,-1.229 1.846,-2.873 1.846,-4.718 0,-1.848 -0.719,-3.487 -1.949,-4.721 -0.717,-0.717 -1.539,-1.229 -2.461,-1.639 l 6.358,-1.435 c 1.846,2.049 2.976,4.819 2.976,7.794 0,3.177 -1.231,6.05 -3.283,8.205 l -0.103,0.103 c -2.154,2.151 -5.026,3.385 -8.309,3.385 -3.179,0 -6.154,-1.233 -8.205,-3.385 -2.154,-2.155 -3.488,-5.028 -3.488,-8.308 0.002,-1.128 0.208,-2.153 0.517,-3.178 z"
         id="path13471" />
      <polygon
         fill-rule="evenodd"
         clip-rule="evenodd"
         fill="#8A837E"
         points="281.584,737.794 281.584,777.075 225.788,777.075 186.302,737.794 "
         id="polygon13473" />
      <polygon
         fill-rule="evenodd"
         clip-rule="evenodd"
         fill="#262728"
         points="229.993,754.716 272.866,754.408 276.763,761.179 236.558,761.179 "
         id="polygon13475" />
      <path
         inkscape:connector-curvature="0"
         fill-rule="evenodd"
         clip-rule="evenodd"
         fill="#313233"
         d="m 281.584,685.69 v 52.104 h 95.178 c -5.231,-11.384 -23.794,-48.616 -33.435,-49.948 -9.026,-1.13 -19.18,-1.335 -28.308,-1.643 -9.436,-0.205 -24.103,-0.41 -33.435,-0.513 z"
         id="path13477" />
      <path
         inkscape:connector-curvature="0"
         fill-rule="evenodd"
         clip-rule="evenodd"
         fill="#FFFFFF"
         d="m 286.199,737.794 h 20.616 l 22.255,-51.078 c -4.717,-0.205 -9.538,-0.308 -14.05,-0.513 -1.949,0 -4.103,-0.103 -6.358,-0.103 z m 33.435,0 h 16.104 l 17.845,-41.026 c -3.795,-5.024 -7.385,-8.512 -10.255,-8.922 l -1.949,-0.204 z"
         id="path13479" />
      <path
         inkscape:connector-curvature="0"
         fill="#FFFFFF"
         d="m 364.044,783.436 c -1.332,0 -2.461,0.615 -3.383,1.435 -0.822,0.922 -1.437,2.053 -1.437,3.385 0,1.332 0.615,2.565 1.437,3.386 0.82,0.922 2.051,1.435 3.383,1.435 1.333,0 2.565,-0.513 3.385,-1.435 h 0.103 c 0.822,-0.923 1.334,-2.054 1.334,-3.386 0,-1.332 -0.615,-2.463 -1.437,-3.385 v 0 c -0.922,-0.82 -2.052,-1.435 -3.385,-1.435 z m -1.947,2.873 c 0.512,-0.517 1.229,-0.823 1.947,-0.823 0.719,0 1.436,0.307 1.95,0.823 0.513,0.512 0.82,1.229 0.82,1.946 0,0.718 -0.307,1.435 -0.717,1.951 h -0.103 c -0.514,0.512 -1.231,0.819 -1.95,0.819 -0.717,0 -1.435,-0.308 -1.947,-0.819 -0.514,-0.517 -0.822,-1.131 -0.822,-1.951 0,-0.717 0.308,-1.435 0.822,-1.946 z"
         id="path13481" />
      <path
         inkscape:connector-curvature="0"
         fill-rule="evenodd"
         clip-rule="evenodd"
         fill="#FFFFFF"
         d="m 193.071,775.948 -6.358,-1.541 c 1.231,1.233 1.949,2.976 1.949,4.721 0,1.947 -0.822,3.59 -2.051,4.82 -1.231,1.229 -2.873,1.946 -4.719,1.946 -1.949,0 -3.588,-0.717 -4.82,-1.946 l -0.103,-0.103 c -1.129,-1.229 -1.846,-2.873 -1.846,-4.718 0,-1.848 0.717,-3.487 1.949,-4.721 0.717,-0.717 1.539,-1.229 2.461,-1.639 l -6.358,-1.435 c -1.846,2.049 -2.975,4.819 -2.975,7.794 0,3.177 1.231,6.05 3.283,8.205 l 0.103,0.103 c 2.153,2.151 5.026,3.385 8.307,3.385 3.18,0 6.155,-1.233 8.206,-3.385 2.154,-2.155 3.488,-5.028 3.488,-8.308 -0.002,-1.128 -0.209,-2.153 -0.516,-3.178 z"
         id="path13483" />
      <path
         inkscape:connector-curvature="0"
         fill="#FFFFFF"
         d="m 198.917,783.436 c 1.334,0 2.463,0.615 3.385,1.435 0.82,0.922 1.436,2.053 1.436,3.385 0,1.332 -0.616,2.565 -1.436,3.386 -0.922,0.922 -2.051,1.435 -3.385,1.435 -1.332,0 -2.563,-0.513 -3.385,-1.435 h -0.103 c -0.82,-0.923 -1.332,-2.054 -1.332,-3.386 0,-1.332 0.512,-2.463 1.435,-3.385 v 0 c 0.924,-0.82 2.052,-1.435 3.385,-1.435 z m 1.948,2.873 c -0.512,-0.517 -1.229,-0.823 -1.949,-0.823 -0.82,0 -1.435,0.307 -1.949,0.823 -0.512,0.512 -0.819,1.229 -0.819,1.946 0,0.718 0.307,1.435 0.717,1.951 h 0.102 c 0.514,0.512 1.129,0.819 1.949,0.819 0.719,0 1.437,-0.308 1.949,-0.819 0.514,-0.517 0.822,-1.131 0.822,-1.951 0,-0.717 -0.308,-1.435 -0.822,-1.946 z"
         id="path13485" />
    </g>
  </g>
</svg>
