<?xml version="1.0" encoding="UTF-8" standalone="no"?>
<svg
   xmlns:dc="http://purl.org/dc/elements/1.1/"
   xmlns:cc="http://creativecommons.org/ns#"
   xmlns:rdf="http://www.w3.org/1999/02/22-rdf-syntax-ns#"
   xmlns:svg="http://www.w3.org/2000/svg"
   xmlns="http://www.w3.org/2000/svg"
   xmlns:sodipodi="http://sodipodi.sourceforge.net/DTD/sodipodi-0.dtd"
   xmlns:inkscape="http://www.inkscape.org/namespaces/inkscape"
   inkscape:version="1.0beta1 (32d4812, 2019-09-19)"
   id="svg13135"
   version="1.1"
   viewBox="0 0 507.99998 285.75001"
   height="1080"
   width="1920">
  <defs
     id="defs13129" />
  <sodipodi:namedview
     inkscape:window-maximized="0"
     inkscape:window-y="134"
     inkscape:window-x="20"
     inkscape:window-height="907"
     inkscape:window-width="1600"
     width="1920px"
     units="px"
     showgrid="false"
     inkscape:document-rotation="0"
     inkscape:current-layer="layer1"
     inkscape:document-units="mm"
     inkscape:cy="560"
     inkscape:cx="704.28571"
     inkscape:zoom="0.35"
     inkscape:pageshadow="2"
     inkscape:pageopacity="0.0"
     borderopacity="1.0"
     bordercolor="#666666"
     pagecolor="#ffffff"
     id="base" />
  <metadata
     id="metadata13132">
    <rdf:RDF>
      <cc:Work
         rdf:about="">
        <dc:format>image/svg+xml</dc:format>
        <dc:type
           rdf:resource="http://purl.org/dc/dcmitype/StillImage" />
        <dc:title></dc:title>
      </cc:Work>
    </rdf:RDF>
  </metadata>
  <g
     id="layer1"
     inkscape:groupmode="layer"
     inkscape:label="Layer 1">
    <g
       transform="matrix(1.3229166,0,0,1.3229167,-118.51149,-494.22647)"
       id="g13365">
      <path
         inkscape:connector-curvature="0"
         fill-rule="evenodd"
         clip-rule="evenodd"
         fill="#96BA3D"
         d="m 368.558,447.025 c 0,0 3.178,-13.025 11.795,-13.025 8.616,0 19.384,0 19.384,0 0,0 4.719,1.026 2.666,9.333 -2.05,8.41 -22.975,1.129 -30.153,9.026 l -4.309,4.922 -1.333,-1.127 z"
         id="path13319" />
      <path
         inkscape:connector-curvature="0"
         fill-rule="evenodd"
         clip-rule="evenodd"
         fill="#96BA3D"
         d="m 194.609,447.025 c 0,0 -3.18,-13.025 -11.794,-13.025 -8.719,0 -19.487,0 -19.487,0 0,0 -4.617,1.026 -2.668,9.333 2.051,8.41 22.975,1.129 30.154,9.026 l 4.307,4.922 1.334,-1.127 z"
         id="path13321" />
      <path
         inkscape:connector-curvature="0"
         fill-rule="evenodd"
         clip-rule="evenodd"
         fill="#1C1C1C"
         d="m 403.532,484.564 h -13.539 c -6.873,0 -12.409,5.537 -12.409,12.308 v 57.641 c 0,6.872 5.537,12.409 12.409,12.409 h 13.539 c 6.77,0 12.411,-5.537 12.411,-12.409 v -57.641 c 0,-6.77 -5.641,-12.308 -12.411,-12.308 z"
         id="path13323" />
      <path
         inkscape:connector-curvature="0"
         fill-rule="evenodd"
         clip-rule="evenodd"
         fill="#1C1C1C"
         d="m 173.174,484.564 h -13.641 c -6.77,0 -12.309,5.537 -12.309,12.308 v 57.641 c 0,6.872 5.539,12.409 12.309,12.409 h 13.641 c 6.769,0 12.41,-5.537 12.41,-12.409 v -57.641 c -0.001,-6.77 -5.642,-12.308 -12.41,-12.308 z"
         id="path13325" />
      <path
         inkscape:connector-curvature="0"
         fill-rule="evenodd"
         clip-rule="evenodd"
         fill="#A9CC38"
         d="m 281.584,396.256 c 0,0 42.666,0 52.922,0 10.256,0 31.795,15.077 44.819,46.463 0,0 7.899,2.051 10.36,2.974 2.461,0.821 3.282,10.051 3.282,10.051 0,0 17.333,0.924 17.333,36.821 0,35.794 2.768,46.358 -5.539,55.896 -8.309,9.54 -123.179,6.667 -123.179,6.667 0,0 -114.971,2.872 -123.28,-6.668 -8.307,-9.537 -5.539,-20.102 -5.539,-55.896 0,-35.897 17.333,-36.821 17.333,-36.821 0,0 0.822,-9.229 3.283,-10.051 2.461,-0.923 10.358,-2.974 10.358,-2.974 13.026,-31.386 34.563,-46.463 44.821,-46.463 10.256,10e-4 53.026,10e-4 53.026,10e-4 z"
         id="path13327" />
      <path
         inkscape:connector-curvature="0"
         fill-rule="evenodd"
         clip-rule="evenodd"
         fill="#91AE3D"
         d="m 281.584,396.256 c 0,0 -42.77,0 -53.026,0 -10.258,0 -31.795,15.077 -44.821,46.463 0,0 -7.897,2.051 -10.358,2.974 -2.461,0.821 -3.283,10.051 -3.283,10.051 0,0 -17.333,0.924 -17.333,36.821 0,35.794 -2.769,46.358 5.539,55.896 8.309,9.54 123.283,6.667 123.283,6.667 V 396.256 Z"
         id="path13329" />
      <path
         inkscape:connector-curvature="0"
         fill-rule="evenodd"
         clip-rule="evenodd"
         fill="#809F3D"
         d="m 152.456,515.949 c -0.307,17.847 -0.205,25.437 5.846,32.511 8.309,9.54 123.283,6.667 123.283,6.667 v -30.871 c -23.591,1.229 -64.411,-4.614 -88.514,-9.537 -24.102,-4.925 -40.615,1.23 -40.615,1.23 z"
         id="path13331" />
      <path
         inkscape:connector-curvature="0"
         fill-rule="evenodd"
         clip-rule="evenodd"
         fill="#96BA3D"
         d="m 410.609,515.949 c 0.41,17.847 0.308,25.437 -5.846,32.511 -8.309,9.54 -123.179,6.667 -123.179,6.667 v -30.871 c 23.487,1.229 64.409,-4.614 88.41,-9.537 24.102,-4.925 40.615,1.23 40.615,1.23 z"
         id="path13333" />
      <path
         inkscape:connector-curvature="0"
         fill-rule="evenodd"
         clip-rule="evenodd"
         fill="#AAC538"
         d="m 218.917,483.436 c 0,0 -27.898,-16.513 -35.18,-40.717 l 5.743,0.409 h 92.104 v 40.308 z"
         id="path13335" />
      <path
         inkscape:connector-curvature="0"
         fill-rule="evenodd"
         clip-rule="evenodd"
         fill="#1C1C1C"
         d="m 281.584,544.768 h 77.845 c 0,0 -9.539,-12 -13.846,-15.795 h -63.999 -64.103 c -4.205,3.795 -13.744,15.795 -13.744,15.795 z"
         id="path13337" />
      <path
         inkscape:connector-curvature="0"
         fill-rule="evenodd"
         clip-rule="evenodd"
         fill="#1C1C1C"
         d="m 358.404,487.538 40.922,-19.691 c 2.769,4.614 11.077,28.718 -24.82,20.102 l -7.282,3.592 z"
         id="path13339" />
      <path
         inkscape:connector-curvature="0"
         fill-rule="evenodd"
         clip-rule="evenodd"
         fill="#FFFFFF"
         d="m 373.687,480.153 5.127,-2.358 c 0.308,1.024 1.026,1.948 1.846,2.769 1.437,1.231 3.487,2.051 5.641,2.051 2.154,0 4.103,-0.819 5.539,-2.051 l 0.103,-0.103 c 1.334,-1.332 2.256,-2.974 2.256,-4.922 0,-1.642 -0.717,-3.181 -1.744,-4.31 l 5.026,-2.461 c 1.539,1.949 2.359,4.31 2.359,6.771 0,3.28 -1.437,6.256 -3.795,8.409 l -0.103,0.205 c -2.461,2.153 -5.949,3.487 -9.641,3.487 -3.795,0 -7.18,-1.334 -9.641,-3.487 -1.231,-1.127 -2.256,-2.461 -2.973,-4 z"
         id="path13341" />
      <path
         inkscape:connector-curvature="0"
         fill-rule="evenodd"
         clip-rule="evenodd"
         fill="#1C1C1C"
         d="m 388.044,519.129 c 6.563,0 11.897,4.717 11.897,10.565 0,5.844 -5.333,10.561 -11.897,10.561 -6.563,0 -11.897,-4.717 -11.897,-10.561 0,-5.848 5.334,-10.565 11.897,-10.565 z"
         id="path13343" />
      <path
         inkscape:connector-curvature="0"
         fill-rule="evenodd"
         clip-rule="evenodd"
         fill="#C3D962"
         d="m 344.147,483.436 c 0,0 27.898,-16.513 35.179,-40.717 l -5.639,0.409 h -92.102 v 40.308 z"
         id="path13345" />
      <path
         inkscape:connector-curvature="0"
         fill-rule="evenodd"
         clip-rule="evenodd"
         fill="#262728"
         d="m 281.584,445.999 h -83.488 c 0,0 -4.307,0.617 -8.616,-2.871 4.924,-11.486 12.104,-23.179 21.745,-32 3.383,-3.282 11.897,-10.051 17.333,-10.051 15.897,0 37.127,0 53.026,0 15.794,0 37.127,0 52.922,0 5.436,0 13.948,6.769 17.436,10.051 9.539,8.821 16.821,20.514 21.745,32 -4.412,3.488 -8.616,2.871 -8.616,2.871 z"
         id="path13347" />
      <path
         inkscape:connector-curvature="0"
         fill-rule="evenodd"
         clip-rule="evenodd"
         fill="#1C1C1C"
         d="m 281.584,483.436 h -62.667 c 0,0 -2.873,2.257 -3.282,4.82 0,0 15.282,29.229 65.949,29.229 50.563,0 65.948,-29.229 65.948,-29.229 -0.41,-2.563 -3.385,-4.82 -3.385,-4.82 z"
         id="path13349" />
      <path
         inkscape:connector-curvature="0"
         fill-rule="evenodd"
         clip-rule="evenodd"
         fill="#1C1C1C"
         d="m 204.66,487.538 -40.922,-19.691 c -2.77,4.614 -11.077,28.718 24.923,20.102 l 7.18,3.592 z"
         id="path13351" />
      <path
         inkscape:connector-curvature="0"
         fill-rule="evenodd"
         clip-rule="evenodd"
         fill="#1C1C1C"
         d="m 175.123,519.129 c -6.565,0 -11.897,4.717 -11.897,10.565 0,5.844 5.332,10.561 11.897,10.561 6.563,0 11.897,-4.717 11.897,-10.561 0,-5.848 -5.334,-10.565 -11.897,-10.565 z"
         id="path13353" />
      <path
         inkscape:connector-curvature="0"
         fill-rule="evenodd"
         clip-rule="evenodd"
         fill="#313233"
         d="m 281.584,401.077 v 44.922 h 83.486 c 0,0 4.205,0.617 8.616,-2.871 -4.924,-11.486 -12.206,-23.179 -21.745,-32 -3.487,-3.282 -12,-10.051 -17.436,-10.051 -15.793,0 -37.126,0 -52.921,0 z"
         id="path13355" />
      <path
         inkscape:connector-curvature="0"
         fill-rule="evenodd"
         clip-rule="evenodd"
         fill="#FFFFFF"
         d="m 287.738,445.999 h 24.102 l 21.95,-44.922 h -24.001 z m 38.871,0 h 18.872 l 13.436,-27.486 c -2.154,-2.563 -4.512,-5.129 -6.975,-7.385 -1.332,-1.334 -3.487,-3.076 -5.846,-4.819 z"
         id="path13357" />
      <path
         inkscape:connector-curvature="0"
         fill-rule="evenodd"
         clip-rule="evenodd"
         fill="#FFFFFF"
         d="m 189.378,480.153 -5.025,-2.358 c -0.412,1.024 -1.129,1.948 -1.949,2.769 -1.436,1.231 -3.385,2.051 -5.641,2.051 -2.153,0 -4.102,-0.819 -5.539,-2.051 l -0.103,-0.103 c -1.333,-1.332 -2.153,-2.974 -2.153,-4.922 0,-1.642 0.615,-3.181 1.744,-4.31 l -5.129,-2.461 c -1.539,1.949 -2.358,4.31 -2.358,6.771 0,3.28 1.435,6.256 3.795,8.409 l 0.205,0.205 c 2.461,2.153 5.846,3.487 9.538,3.487 3.795,0 7.178,-1.334 9.641,-3.487 1.333,-1.127 2.257,-2.461 2.974,-4 z"
         id="path13359" />
      <path
         inkscape:connector-curvature="0"
         fill-rule="evenodd"
         clip-rule="evenodd"
         fill="#809F3D"
         d="m 161.277,464.154 50.358,24.308 1.949,-2.77 c 0,0 -40.308,-18.565 -46.256,-26.667 0,0 -5.539,1.334 -6.051,5.129 z"
         id="path13361" />
      <path
         inkscape:connector-curvature="0"
         fill-rule="evenodd"
         clip-rule="evenodd"
         fill="#96BA3D"
         d="m 401.89,464.154 -50.358,24.308 -1.949,-2.77 c 0,0 40.307,-18.565 46.256,-26.667 0,0 5.539,1.334 6.051,5.129 z"
         id="path13363" />
    </g>
  </g>
</svg>
