<?xml version="1.0" encoding="UTF-8" standalone="no"?>
<svg
   xmlns:dc="http://purl.org/dc/elements/1.1/"
   xmlns:cc="http://creativecommons.org/ns#"
   xmlns:rdf="http://www.w3.org/1999/02/22-rdf-syntax-ns#"
   xmlns:svg="http://www.w3.org/2000/svg"
   xmlns="http://www.w3.org/2000/svg"
   xmlns:sodipodi="http://sodipodi.sourceforge.net/DTD/sodipodi-0.dtd"
   xmlns:inkscape="http://www.inkscape.org/namespaces/inkscape"
   inkscape:version="1.0beta1 (32d4812, 2019-09-19)"
   id="svg13135"
   version="1.1"
   viewBox="0 0 507.99998 285.75001"
   height="1080"
   width="1920">
  <defs
     id="defs13129" />
  <sodipodi:namedview
     inkscape:window-maximized="0"
     inkscape:window-y="134"
     inkscape:window-x="20"
     inkscape:window-height="907"
     inkscape:window-width="1600"
     width="1920px"
     units="px"
     showgrid="false"
     inkscape:document-rotation="0"
     inkscape:current-layer="layer1"
     inkscape:document-units="mm"
     inkscape:cy="560"
     inkscape:cx="704.28571"
     inkscape:zoom="0.35"
     inkscape:pageshadow="2"
     inkscape:pageopacity="0.0"
     borderopacity="1.0"
     bordercolor="#666666"
     pagecolor="#ffffff"
     id="base" />
  <metadata
     id="metadata13132">
    <rdf:RDF>
      <cc:Work
         rdf:about="">
        <dc:format>image/svg+xml</dc:format>
        <dc:type
           rdf:resource="http://purl.org/dc/dcmitype/StillImage" />
        <dc:title></dc:title>
      </cc:Work>
    </rdf:RDF>
  </metadata>
  <g
     id="layer1"
     inkscape:groupmode="layer"
     inkscape:label="Layer 1">
    <g
       transform="matrix(1.3229166,0,0,1.3229166,-654.57267,-498.09397)"
       id="g13185">
      <path
         inkscape:connector-curvature="0"
         fill-rule="evenodd"
         clip-rule="evenodd"
         fill="#1C1C1C"
         d="m 686.811,555.537 h 51.079 c 0,0 9.024,0 11.999,-7.999 l -13.126,-6.357 h -49.952 -49.947 l -13.231,6.357 c 3.078,7.999 12.102,7.999 12.102,7.999 z"
         id="path13137" />
      <path
         inkscape:connector-curvature="0"
         fill-rule="evenodd"
         clip-rule="evenodd"
         fill="#218BCB"
         d="m 773.58,442.307 c 0,0 2.976,-11.178 11.181,-11.178 8.307,0 18.667,0 18.667,0 0,0 4.409,0.922 2.462,8.103 -1.95,7.18 -21.949,0.922 -28.719,7.691 l -4.205,4.205 -1.229,-0.922 z"
         id="path13139" />
      <path
         inkscape:connector-curvature="0"
         fill-rule="evenodd"
         clip-rule="evenodd"
         fill="#087FBE"
         d="m 600.044,442.307 c 0,0 -3.078,-11.178 -11.282,-11.178 -8.204,0 -18.564,0 -18.564,0 0,0 -4.41,0.922 -2.461,8.103 1.846,7.18 21.948,0.922 28.718,7.691 l 4.102,4.205 1.334,-0.922 z"
         id="path13141" />
      <path
         inkscape:connector-curvature="0"
         fill-rule="evenodd"
         clip-rule="evenodd"
         fill="#1C1C1C"
         d="M 799.837,492.872 H 787.94 c -5.95,0 -10.872,4.819 -10.872,10.77 v 52.408 c 0,5.95 4.922,10.872 10.872,10.872 h 11.896 c 5.951,0 10.873,-4.922 10.873,-10.872 v -52.408 c 0.001,-5.951 -4.921,-10.77 -10.872,-10.77 z"
         id="path13143" />
      <path
         inkscape:connector-curvature="0"
         fill-rule="evenodd"
         clip-rule="evenodd"
         fill="#1C1C1C"
         d="m 573.685,492.872 h 12 c 5.948,0 10.872,4.819 10.872,10.77 v 52.408 c 0,5.95 -4.924,10.872 -10.872,10.872 h -12 c -5.949,0 -10.873,-4.922 -10.873,-10.872 v -52.408 c 10e-4,-5.951 4.924,-10.77 10.873,-10.77 z"
         id="path13145" />
      <path
         inkscape:connector-curvature="0"
         fill-rule="evenodd"
         clip-rule="evenodd"
         fill="#28A6DF"
         d="m 686.811,402.102 c 0,0 41.026,0 57.23,1.334 0,0 7.385,1.026 35.388,40.82 54.46,8.821 33.535,110.052 6.049,111.794 h -26.975 c 0,0 -12.307,-0.82 -21.229,-12.307 h -50.463 -50.459 c -8.924,11.486 -21.23,12.307 -21.23,12.307 h -26.974 c -27.591,-1.742 -48.412,-102.973 6.051,-111.794 27.999,-39.794 35.281,-40.82 35.281,-40.82 16.308,-1.334 57.331,-1.334 57.331,-1.334 z"
         id="path13147" />
      <path
         inkscape:connector-curvature="0"
         fill-rule="evenodd"
         clip-rule="evenodd"
         fill="#2D9DD8"
         d="m 813.377,499.847 v 0 l -0.105,1.128 v 0.204 l -0.099,1.23 -0.106,1.232 v 0.41 l -0.205,1.947 v 0.823 l -0.205,1.742 -0.204,1.127 -0.103,1.233 -0.308,1.332 v 0.409 0.103 l -0.103,0.41 -0.205,1.336 -0.308,1.332 -0.205,1.024 -0.307,1.643 -0.205,0.82 -0.205,0.819 -0.41,1.537 -0.205,0.823 -0.413,1.537 -0.308,1.024 -0.308,1.336 -0.204,0.615 -0.513,1.64 -0.308,0.614 -0.513,1.541 -0.204,0.717 -0.615,1.435 -0.205,0.618 -0.614,1.435 -0.209,0.513 -0.717,1.537 -0.205,0.413 c -0.205,0.513 -0.41,1.025 -0.718,1.435 l -0.103,0.205 v 0.103 c -0.307,0.513 -0.512,1.024 -0.819,1.537 v 0.103 h -0.103 l -0.103,0.205 -0.717,1.335 -0.312,0.41 c -0.205,0.513 -0.513,0.923 -0.819,1.435 v 0 l -0.103,0.103 c -0.205,0.41 -0.513,0.926 -0.82,1.336 l -0.204,0.308 c -0.308,0.409 -0.615,0.819 -0.923,1.127 l -0.205,0.308 c -0.308,0.409 -0.614,0.717 -0.926,1.127 l -0.103,0.208 c -0.307,0.41 -0.717,0.718 -1.024,1.127 L 796.452,550 c -0.308,0.41 -0.717,0.718 -1.024,1.025 l -0.205,0.204 c -0.308,0.308 -0.614,0.615 -0.922,0.82 l -0.209,0.205 c -0.409,0.311 -0.717,0.516 -1.024,0.823 l -0.205,0.103 c -0.308,0.205 -0.717,0.512 -1.024,0.717 L 791.633,554 c -0.308,0.205 -0.718,0.41 -1.024,0.615 l -0.205,0.103 c -0.312,0.103 -0.721,0.307 -1.028,0.409 l -0.205,0.103 c -0.41,0.103 -0.717,0.308 -1.127,0.41 h -0.103 c -0.308,0.103 -0.718,0.205 -1.127,0.308 h -0.103 v 0 c -0.414,0 -0.823,0.103 -1.233,0.103 h -26.975 c 0,0 -12.307,-0.82 -21.229,-12.307 h -50.463 v -29.949 c 0,0 30.875,0.925 64.512,0 33.539,-0.924 61.743,-13.846 62.054,-13.948 z"
         id="path13149" />
      <path
         inkscape:connector-curvature="0"
         fill-rule="evenodd"
         clip-rule="evenodd"
         fill="#42B1E5"
         d="m 686.811,442.102 v 57.95 l 58.668,-2.975 c 3.487,-21.231 28.306,-53.231 28.306,-53.231 l -15.077,-6.666 z"
         id="path13151" />
      <path
         inkscape:connector-curvature="0"
         fill-rule="evenodd"
         clip-rule="evenodd"
         fill="#218BCB"
         d="m 686.811,543.743 h -50.459 c -8.924,11.486 -21.23,12.307 -21.23,12.307 h -26.974 c -27.591,-1.742 -48.412,-102.973 6.051,-111.794 27.999,-39.794 35.281,-40.82 35.281,-40.82 16.309,-1.334 57.332,-1.334 57.332,-1.334 v 141.641 z"
         id="path13153" />
      <path
         inkscape:connector-curvature="0"
         fill-rule="evenodd"
         clip-rule="evenodd"
         fill="#0780BD"
         d="m 686.811,543.743 h -50.459 c -8.924,11.486 -21.23,12.307 -21.23,12.307 h -26.974 c -14.257,-0.923 -26.77,-28.512 -27.898,-56.203 0.308,0.103 28.513,13.024 62.05,13.947 33.642,0.925 64.512,0 64.512,0 v 29.949 z"
         id="path13155" />
      <path
         inkscape:connector-curvature="0"
         fill-rule="evenodd"
         clip-rule="evenodd"
         fill="#2D9DD8"
         d="m 686.811,442.102 v 57.95 l -58.666,-2.975 c -3.487,-21.231 -28.306,-53.231 -28.306,-53.231 l 14.973,-6.666 z"
         id="path13157" />
      <path
         inkscape:connector-curvature="0"
         fill-rule="evenodd"
         clip-rule="evenodd"
         fill="#1C1C1C"
         d="m 758.401,484.564 c 0,0 -0.615,-23.897 33.642,-25.437 0,10e-4 3.795,33.335 -33.642,25.437 z"
         id="path13159" />
      <path
         inkscape:connector-curvature="0"
         fill-rule="evenodd"
         clip-rule="evenodd"
         fill="#0893CB"
         d="m 686.811,543.743 h 50.463 c 8.922,11.486 21.229,12.307 21.229,12.307 h 26.975 c 14.258,-0.923 26.77,-28.512 27.899,-56.203 -0.311,0.103 -28.515,13.024 -62.054,13.947 -33.638,0.925 -64.512,0 -64.512,0 z"
         id="path13161" />
      <path
         inkscape:connector-curvature="0"
         fill-rule="evenodd"
         clip-rule="evenodd"
         fill="#1C1C1C"
         d="m 690.606,469.076 c 0,0 -0.103,-5.332 3.282,-6.153 h 28.617 c 0,0 3.18,1.129 5.845,5.743 z"
         id="path13163" />
      <path
         inkscape:connector-curvature="0"
         fill-rule="evenodd"
         clip-rule="evenodd"
         fill="#202020"
         d="m 744.041,407.025 c 0,0 14.77,13.026 29.744,36.82 -57.846,2.976 -116.1,2.976 -173.946,0 14.87,-23.794 29.64,-36.82 29.64,-36.82 40.206,0 74.564,0 114.562,0 z"
         id="path13165" />
      <path
         inkscape:connector-curvature="0"
         fill-rule="evenodd"
         clip-rule="evenodd"
         fill="#FFFFFF"
         d="m 744.041,407.025 c 0,0 4.311,3.795 10.463,10.873 l -11.795,27.281 c -6.049,0.205 -12.102,0.41 -18.052,0.513 l 16.72,-38.667 z m -33.535,38.871 c -7.59,0.103 -15.179,0.205 -22.872,0.205 l 17.023,-39.076 h 22.77 z"
         id="path13167" />
      <path
         inkscape:connector-curvature="0"
         fill-rule="evenodd"
         clip-rule="evenodd"
         fill="#1C1C1C"
         d="m 686.811,446.102 c -29.023,0 -58.049,-0.717 -86.972,-2.256 14.87,-23.794 29.64,-36.82 29.64,-36.82 h 57.332 z"
         id="path13169" />
      <path
         inkscape:connector-curvature="0"
         fill-rule="evenodd"
         clip-rule="evenodd"
         fill="#1C1C1C"
         d="m 686.811,492.667 h -45.023 c -7.59,0 -17.232,2.255 -19.386,16.614 -2.051,14.258 10.462,22.667 22.77,22.667 h 41.64 41.539 c 12.31,0 24.925,-8.409 22.769,-22.667 -2.049,-14.359 -11.794,-16.614 -19.384,-16.614 z"
         id="path13171" />
      <path
         inkscape:connector-curvature="0"
         fill-rule="evenodd"
         clip-rule="evenodd"
         fill="#1C1C1C"
         d="m 615.122,484.564 c 0,0 0.717,-23.897 -33.642,-25.437 0,10e-4 -3.693,33.335 33.642,25.437 z"
         id="path13173" />
      <path
         inkscape:connector-curvature="0"
         fill-rule="evenodd"
         clip-rule="evenodd"
         fill="#FFFFFF"
         d="m 612.864,475.437 c -0.82,-1.847 -2.051,-3.795 -3.795,-5.744 -0.41,1.332 -1.127,2.563 -2.051,3.487 l -0.103,0.205 c -1.437,1.332 -3.486,2.257 -5.641,2.257 -2.256,0 -4.307,-0.925 -5.744,-2.462 -1.539,-1.436 -2.461,-3.487 -2.461,-5.743 0,-2.258 0.922,-4.309 2.461,-5.743 l 0.103,-0.207 c -1.846,-0.615 -4,-1.127 -6.358,-1.537 -1.334,2.153 -2.154,4.717 -2.154,7.487 0,3.897 1.642,7.383 4.103,9.948 h 0.103 c 2.563,2.563 6.051,4.205 9.948,4.205 3.795,0 7.282,-1.539 9.745,-4 l 0.205,-0.205 c 0.614,-0.616 1.229,-1.232 1.639,-1.948 z"
         id="path13175" />
      <path
         inkscape:connector-curvature="0"
         fill-rule="evenodd"
         clip-rule="evenodd"
         fill="#1C1C1C"
         d="m 683.018,469.076 c 0,0 0,-5.332 -3.282,-6.153 h -28.718 c 0,0 -3.179,1.129 -5.846,5.743 z"
         id="path13177" />
      <path
         inkscape:connector-curvature="0"
         fill-rule="evenodd"
         clip-rule="evenodd"
         fill="#FFFFFF"
         d="m 760.557,475.437 c 0.922,-1.847 2.151,-3.795 3.897,-5.744 0.307,1.332 1.024,2.563 2.049,3.487 l 0.103,0.205 c 1.438,1.332 3.487,2.257 5.643,2.257 2.255,0 4.308,-0.925 5.742,-2.462 1.541,-1.436 2.463,-3.487 2.463,-5.743 0,-2.258 -0.922,-4.309 -2.463,-5.743 l -0.103,-0.207 c 1.848,-0.615 4,-1.127 6.36,-1.537 1.332,2.153 2.049,4.717 2.049,7.487 0,3.897 -1.536,7.383 -3.999,9.948 h -0.103 c -2.563,2.563 -6.05,4.205 -9.947,4.205 -3.795,0 -7.282,-1.539 -9.745,-4 l -0.205,-0.205 c -0.614,-0.616 -1.23,-1.232 -1.741,-1.948 z"
         id="path13179" />
      <path
         inkscape:connector-curvature="0"
         fill-rule="evenodd"
         clip-rule="evenodd"
         fill="#1C1C1C"
         d="m 745.377,535.333 c 0,0 6.254,8.717 14.151,10.77 7.9,2.05 26.666,0 26.666,0 0,0 8.618,-5.13 14.975,-24.101 0,0 -35.383,12.307 -55.792,13.331 z"
         id="path13181" />
      <path
         inkscape:connector-curvature="0"
         fill-rule="evenodd"
         clip-rule="evenodd"
         fill="#1C1C1C"
         d="m 628.248,535.333 c 0,0 -6.358,8.717 -14.153,10.77 -7.897,2.05 -26.769,0 -26.769,0 0,0 -8.614,-5.13 -14.872,-24.101 0,0 35.283,12.307 55.794,13.331 z"
         id="path13183" />
    </g>
  </g>
</svg>
