<?xml version="1.0" encoding="UTF-8" standalone="no"?>
<svg
   xmlns:dc="http://purl.org/dc/elements/1.1/"
   xmlns:cc="http://creativecommons.org/ns#"
   xmlns:rdf="http://www.w3.org/1999/02/22-rdf-syntax-ns#"
   xmlns:svg="http://www.w3.org/2000/svg"
   xmlns="http://www.w3.org/2000/svg"
   xmlns:sodipodi="http://sodipodi.sourceforge.net/DTD/sodipodi-0.dtd"
   xmlns:inkscape="http://www.inkscape.org/namespaces/inkscape"
   inkscape:version="1.0beta1 (32d4812, 2019-09-19)"
   id="svg13135"
   version="1.1"
   viewBox="0 0 507.99998 285.75001"
   height="1080"
   width="1920">
  <defs
     id="defs13129" />
  <sodipodi:namedview
     inkscape:window-maximized="0"
     inkscape:window-y="134"
     inkscape:window-x="20"
     inkscape:window-height="907"
     inkscape:window-width="1600"
     width="1920px"
     units="px"
     showgrid="false"
     inkscape:document-rotation="0"
     inkscape:current-layer="layer1"
     inkscape:document-units="mm"
     inkscape:cy="560"
     inkscape:cx="704.28571"
     inkscape:zoom="0.35"
     inkscape:pageshadow="2"
     inkscape:pageopacity="0.0"
     borderopacity="1.0"
     bordercolor="#666666"
     pagecolor="#ffffff"
     id="base" />
  <metadata
     id="metadata13132">
    <rdf:RDF>
      <cc:Work
         rdf:about="">
        <dc:format>image/svg+xml</dc:format>
        <dc:type
           rdf:resource="http://purl.org/dc/dcmitype/StillImage" />
        <dc:title></dc:title>
      </cc:Work>
    </rdf:RDF>
  </metadata>
  <g
     id="layer1"
     inkscape:groupmode="layer"
     inkscape:label="Layer 1">
    <g
       transform="matrix(1.3229166,0,0,1.3229167,-1190.6612,-131.80038)"
       id="g13533">
      <path
         inkscape:connector-curvature="0"
         fill-rule="evenodd"
         clip-rule="evenodd"
         fill="#F7BD16"
         d="m 1173.065,171.539 c 0,0 3.18,-13.128 11.794,-13.128 8.721,0 19.49,0 19.49,0 0,0 4.615,1.129 2.665,9.436 -2.05,8.41 -22.975,1.129 -30.154,9.026 l -4.308,4.819 -1.332,-1.024 z"
         id="path13489" />
      <path
         inkscape:connector-curvature="0"
         fill-rule="evenodd"
         clip-rule="evenodd"
         fill="#F7BD16"
         d="m 1010.913,171.539 c 0,0 -3.18,-13.128 -11.795,-13.128 -8.614,0 -19.384,0 -19.384,0 0,0 -4.615,1.129 -2.668,9.436 2.053,8.41 22.975,1.129 30.154,9.026 l 4.308,4.819 1.335,-1.024 z"
         id="path13491" />
      <path
         inkscape:connector-curvature="0"
         fill-rule="evenodd"
         clip-rule="evenodd"
         fill="#1C1C1C"
         d="m 1211.837,204.257 h -12.617 c -6.254,0 -11.487,5.129 -11.487,11.487 v 63.18 c 0,6.256 5.233,11.486 11.487,11.486 h 12.617 c 6.357,0 11.487,-5.23 11.487,-11.486 v -63.18 c 0,-6.358 -5.13,-11.487 -11.487,-11.487 z"
         id="path13493" />
      <path
         inkscape:connector-curvature="0"
         fill-rule="evenodd"
         clip-rule="evenodd"
         fill="#1C1C1C"
         d="m 984.861,204.257 h -12.614 c -6.36,0 -11.487,5.129 -11.487,11.487 v 63.18 c 0,6.256 5.127,11.486 11.487,11.486 h 12.614 c 6.258,0 11.487,-5.23 11.487,-11.486 v -63.18 c 0.001,-6.358 -5.229,-11.487 -11.487,-11.487 z"
         id="path13495" />
      <path
         inkscape:connector-curvature="0"
         fill-rule="evenodd"
         clip-rule="evenodd"
         fill="#FCD007"
         d="m 1189.99,164.257 c 0,0 34.462,1.847 37.847,25.438 3.385,23.589 -9.95,78.254 -14.565,86.461 0,0 -20.511,1.435 -46.153,2.871 -0.103,-0.103 -7.692,-9.334 -20.822,-9.024 -38.358,0.922 -70.152,0.922 -108.512,0 -13.126,-0.31 -20.818,8.922 -20.818,9.024 -25.642,-1.437 -46.153,-2.871 -46.153,-2.871 -4.721,-8.207 -18.053,-62.872 -14.564,-86.461 3.385,-23.591 37.846,-25.438 37.846,-25.438 24.512,-0.512 44.511,-1.332 44.511,-1.332 4.721,-7.385 33.027,-7.385 35.694,-7.385 2.562,0 7.282,2.769 7.282,2.769 3.587,-0.513 10.459,-0.41 10.459,-0.41 0,0 6.873,-0.103 10.463,0.41 0,0 4.614,-2.769 7.282,-2.769 2.565,0 30.974,0 35.691,7.385 -10e-4,0 19.998,0.82 44.512,1.332 z"
         id="path13497" />
      <path
         inkscape:connector-curvature="0"
         fill-rule="evenodd"
         clip-rule="evenodd"
         fill="#F7BD16"
         d="m 1092.04,270.616 c -17.536,0 -35.076,-0.205 -54.256,-0.614 -13.126,-0.31 -20.818,8.922 -20.818,9.024 -25.642,-1.437 -46.153,-2.871 -46.153,-2.871 -4.721,-8.207 -18.053,-62.872 -14.564,-86.461 3.385,-23.591 37.846,-25.438 37.846,-25.438 24.512,-0.512 44.511,-1.332 44.511,-1.332 4.721,-7.385 33.027,-7.385 35.694,-7.385 2.562,0 7.282,2.769 7.282,2.769 3.587,-0.513 10.459,-0.41 10.459,-0.41 v 112.718 z"
         id="path13499" />
      <path
         inkscape:connector-curvature="0"
         fill-rule="evenodd"
         clip-rule="evenodd"
         fill="#F4A31E"
         d="m 1092.04,270.616 c -17.536,0 -35.076,-0.205 -54.256,-0.614 -13.126,-0.31 -20.818,8.922 -20.818,9.024 -25.642,-1.437 -46.153,-2.871 -46.153,-2.871 -3.487,-6.051 -11.795,-37.949 -14.36,-63.487 0.103,0 50.769,17.127 135.588,14.666 v 43.282 z"
         id="path13501" />
      <path
         inkscape:connector-curvature="0"
         fill-rule="evenodd"
         clip-rule="evenodd"
         fill="#1C1C1C"
         d="m 1186.913,232.463 c 5.024,0 9.023,4.512 9.023,10.051 0,5.538 -3.999,10.051 -9.023,10.051 -5.025,0 -9.024,-4.513 -9.024,-10.051 0,-5.539 3.999,-10.051 9.024,-10.051 z"
         id="path13503" />
      <path
         inkscape:connector-curvature="0"
         fill-rule="evenodd"
         clip-rule="evenodd"
         fill="#1C1C1C"
         d="m 1092.04,187.231 c 0,0 -75.484,0.308 -113.535,-5.127 0,0 -5.541,11.282 2.972,23.794 8.515,12.409 110.563,10.872 110.563,10.872 0,0 102.053,1.537 110.564,-10.872 8.512,-12.512 2.975,-23.794 2.975,-23.794 -38.153,5.435 -113.539,5.127 -113.539,5.127 z"
         id="path13505" />
      <path
         inkscape:connector-curvature="0"
         fill-rule="evenodd"
         clip-rule="evenodd"
         fill="#FFFFFF"
         d="m 1192.761,183.642 c -4.926,0.411 -10.155,0.821 -15.491,1.231 -0.409,0.307 -0.717,0.614 -1.127,1.026 v 0 c -2.459,2.461 -4.103,5.948 -4.103,9.743 0,3.795 1.644,7.28 4.103,9.846 v 0 c 2.565,2.461 5.95,4.103 9.848,4.103 3.795,0 7.282,-1.642 9.742,-4.103 v 0 c 2.564,-2.565 4.102,-5.948 4.102,-9.846 0,-3.795 -1.537,-7.282 -4.102,-9.743 v 0 c -0.821,-0.923 -1.845,-1.641 -2.972,-2.257 z m -1.131,6.36 c -1.435,-1.437 -3.487,-2.36 -5.64,-2.36 -2.258,0 -4.204,0.821 -5.643,2.258 l -0.103,0.103 c -1.435,1.434 -2.356,3.487 -2.356,5.641 0,2.256 0.922,4.205 2.356,5.641 v 0.103 c 1.438,1.435 3.487,2.359 5.745,2.359 2.152,0 4.205,-0.925 5.64,-2.359 v 0 c 1.438,-1.436 2.36,-3.487 2.36,-5.743 0,-2.153 -0.82,-4.207 -2.258,-5.641 h -0.101 z"
         id="path13507" />
      <path
         inkscape:connector-curvature="0"
         fill-rule="evenodd"
         clip-rule="evenodd"
         fill="#FCD007"
         d="m 1020.453,129.693 c 0,0 -19.179,21.128 -26.359,34.563 82.05,-1.743 113.741,-1.743 195.896,0 -7.18,-13.436 -26.359,-34.563 -26.359,-34.563 -37.232,-6.461 -105.949,-6.461 -143.178,0 z"
         id="path13509" />
      <path
         inkscape:connector-curvature="0"
         fill-rule="evenodd"
         clip-rule="evenodd"
         fill="#F7BD16"
         d="m 1020.453,129.693 c 0,0 -19.179,21.128 -26.359,34.563 41.023,-0.819 69.538,-1.332 97.946,-1.332 v -38.052 c -26.461,0.001 -53.025,1.641 -71.587,4.821 z"
         id="path13511" />
      <path
         inkscape:connector-curvature="0"
         fill-rule="evenodd"
         clip-rule="evenodd"
         fill="#F5B21A"
         d="m 1092.04,270.616 c 17.54,0 35.076,-0.205 54.256,-0.614 13.13,-0.31 20.72,8.922 20.822,9.024 25.643,-1.437 46.153,-2.871 46.153,-2.871 3.488,-6.051 11.692,-37.949 14.36,-63.487 -0.103,0 -50.771,17.127 -135.592,14.666 v 43.282 z"
         id="path13513" />
      <path
         inkscape:connector-curvature="0"
         fill-rule="evenodd"
         clip-rule="evenodd"
         fill="#313233"
         d="m 998.504,164.154 c 77.332,-1.641 109.638,-1.641 186.974,0 -6.667,-9.538 -17.949,-24.204 -23.691,-30.461 -22.462,-3.795 -47.079,-4.615 -69.746,-4.615 -22.667,0 -47.28,0.82 -69.845,4.615 -5.743,6.36 -17.025,20.923 -23.692,30.461 z"
         id="path13515" />
      <path
         inkscape:connector-curvature="0"
         fill-rule="evenodd"
         clip-rule="evenodd"
         fill="#FFFFFF"
         d="m 1095.528,162.925 c 7.794,0 15.691,0.103 23.794,0.205 l 12.822,-32.822 c -7.795,-0.512 -15.589,-0.819 -23.384,-1.024 z m 38.461,0.307 c 5.95,0.103 12.102,0.205 18.564,0.308 l 10.975,-28.001 c -0.615,-0.614 -1.229,-1.332 -1.742,-1.846 -5.027,-0.82 -10.154,-1.537 -15.388,-2.154 z"
         id="path13517" />
      <path
         inkscape:connector-curvature="0"
         fill-rule="evenodd"
         clip-rule="evenodd"
         fill="#262728"
         d="m 998.504,164.154 c 38.666,-0.819 66.152,-1.229 93.536,-1.229 v -33.847 c -22.667,0 -47.28,0.82 -69.845,4.615 -5.742,6.36 -17.024,20.923 -23.691,30.461 z"
         id="path13519" />
      <path
         inkscape:connector-curvature="0"
         fill-rule="evenodd"
         clip-rule="evenodd"
         fill="#1C1C1C"
         d="m 1032.351,235.95 c 0,0 -9.643,-1.949 -14.155,14.768 43.076,6.565 104.614,6.565 147.693,0 -4.618,-16.717 -14.257,-14.768 -14.257,-14.768 -34.872,2.359 -84.308,2.359 -119.281,0 z"
         id="path13521" />
      <path
         inkscape:connector-curvature="0"
         fill-rule="evenodd"
         clip-rule="evenodd"
         fill="#1C1C1C"
         d="m 997.172,232.463 c -5.028,0 -9.131,4.512 -9.131,10.051 0,5.538 4.103,10.051 9.131,10.051 4.922,0 9.024,-4.513 9.024,-10.051 0,-5.539 -4.102,-10.051 -9.024,-10.051 z"
         id="path13523" />
      <path
         inkscape:connector-curvature="0"
         fill-rule="evenodd"
         clip-rule="evenodd"
         fill="#1C1C1C"
         d="m 1109.785,155.95 c -2.668,0 -7.282,2.975 -7.282,2.975 0,0 2.258,11.28 1.332,30.152 9.643,0 24.31,-0.205 40.207,-0.819 0,0 1.741,-14.36 1.435,-24.513 -4.718,-7.692 -33.126,-7.795 -35.692,-7.795 z"
         id="path13525" />
      <path
         inkscape:connector-curvature="0"
         fill-rule="evenodd"
         clip-rule="evenodd"
         fill="#1C1C1C"
         d="m 1074.299,155.95 c 2.562,0 7.282,2.975 7.282,2.975 0,0 -2.258,11.28 -1.335,30.152 -9.64,0 -24.307,-0.205 -40.203,-0.819 0,0 -1.746,-14.36 -1.438,-24.513 4.72,-7.692 33.027,-7.795 35.694,-7.795 z"
         id="path13527" />
      <path
         inkscape:connector-curvature="0"
         fill-rule="evenodd"
         clip-rule="evenodd"
         fill="#FFFFFF"
         d="m 993.271,183.642 c 4.926,0.411 10.155,0.821 15.49,1.231 0.41,0.307 0.718,0.614 1.128,1.026 v 0 c 2.463,2.461 4.103,5.948 4.103,9.743 0,3.795 -1.64,7.28 -4.103,9.846 v 0 c -2.565,2.461 -5.95,4.103 -9.848,4.103 -3.795,0 -7.282,-1.642 -9.742,-4.103 v 0 c -2.565,-2.565 -4.102,-5.948 -4.102,-9.846 0,-3.795 1.536,-7.282 4.102,-9.743 v 0 c 0.82,-0.923 1.845,-1.641 2.972,-2.257 z m 1.13,6.36 c 1.435,-1.437 3.487,-2.36 5.64,-2.36 2.258,0 4.204,0.821 5.643,2.258 l 0.103,0.103 c 1.435,1.434 2.356,3.487 2.356,5.641 0,2.256 -0.922,4.205 -2.356,5.641 v 0.103 c -1.438,1.435 -3.487,2.359 -5.745,2.359 -2.152,0 -4.205,-0.925 -5.64,-2.359 v 0 c -1.438,-1.436 -2.36,-3.487 -2.36,-5.743 0,-2.153 0.819,-4.207 2.258,-5.641 h 0.101 z"
         id="path13529" />
      <path
         inkscape:connector-curvature="0"
         fill-rule="evenodd"
         clip-rule="evenodd"
         fill="#1C1C1C"
         d="m 1187.732,232.463 c -5.024,0 -9.024,4.512 -9.024,10.051 0,5.538 4,10.051 9.024,10.051 5.028,0 9.028,-4.513 9.028,-10.051 10e-4,-5.539 -3.999,-10.051 -9.028,-10.051 z"
         id="path13531" />
    </g>
  </g>
</svg>
