<?xml version="1.0" encoding="UTF-8" standalone="no"?>
<svg
   xmlns:dc="http://purl.org/dc/elements/1.1/"
   xmlns:cc="http://creativecommons.org/ns#"
   xmlns:rdf="http://www.w3.org/1999/02/22-rdf-syntax-ns#"
   xmlns:svg="http://www.w3.org/2000/svg"
   xmlns="http://www.w3.org/2000/svg"
   xmlns:sodipodi="http://sodipodi.sourceforge.net/DTD/sodipodi-0.dtd"
   xmlns:inkscape="http://www.inkscape.org/namespaces/inkscape"
   inkscape:version="1.0beta1 (32d4812, 2019-09-19)"
   id="svg13135"
   version="1.1"
   viewBox="0 0 507.99998 285.75001"
   height="1080"
   width="1920">
  <defs
     id="defs13129" />
  <sodipodi:namedview
     inkscape:window-maximized="0"
     inkscape:window-y="134"
     inkscape:window-x="20"
     inkscape:window-height="907"
     inkscape:window-width="1600"
     width="1920px"
     units="px"
     showgrid="false"
     inkscape:document-rotation="0"
     inkscape:current-layer="layer1"
     inkscape:document-units="mm"
     inkscape:cy="560"
     inkscape:cx="704.28571"
     inkscape:zoom="0.35"
     inkscape:pageshadow="2"
     inkscape:pageopacity="0.0"
     borderopacity="1.0"
     bordercolor="#666666"
     pagecolor="#ffffff"
     id="base" />
  <metadata
     id="metadata13132">
    <rdf:RDF>
      <cc:Work
         rdf:about="">
        <dc:format>image/svg+xml</dc:format>
        <dc:type
           rdf:resource="http://purl.org/dc/dcmitype/StillImage" />
        <dc:title></dc:title>
      </cc:Work>
    </rdf:RDF>
  </metadata>
  <g
     id="layer1"
     inkscape:groupmode="layer"
     inkscape:label="Layer 1">
    <g
       transform="matrix(1.3229166,0,0,1.3229166,-1190.68,-894.62962)"
       id="g13633">
      <path
         inkscape:connector-curvature="0"
         fill-rule="evenodd"
         clip-rule="evenodd"
         fill="#1C1C1C"
         d="m 1229.579,775.743 h -13.947 c -7.077,0 -12.822,5.742 -12.822,12.717 v 65.846 c 0,7.077 5.745,12.822 12.822,12.822 h 13.947 c 7.077,0 12.818,-5.745 12.818,-12.822 V 788.46 c 0,-6.975 -5.741,-12.717 -12.818,-12.717 z"
         id="path13585" />
      <path
         inkscape:connector-curvature="0"
         fill-rule="evenodd"
         clip-rule="evenodd"
         fill="#1C1C1C"
         d="m 968.452,775.743 h -13.95 c -7.074,0 -12.819,5.742 -12.819,12.717 v 65.846 c 0,7.077 5.745,12.822 12.819,12.822 h 13.95 c 7.077,0 12.819,-5.745 12.819,-12.822 V 788.46 c 0,-6.975 -5.742,-12.717 -12.819,-12.717 z"
         id="path13587" />
      <path
         inkscape:connector-curvature="0"
         fill-rule="evenodd"
         clip-rule="evenodd"
         fill="#A8A5A2"
         d="m 1166.708,746.204 c 0,0 2.768,-19.691 10.152,-19.691 7.384,0 16.72,0 16.72,0 0,0 4,1.536 2.255,14.154 -1.742,12.614 -19.795,1.64 -25.844,13.537 l -3.692,7.385 -1.233,-1.64 z"
         id="path13589" />
      <path
         inkscape:connector-curvature="0"
         fill-rule="evenodd"
         clip-rule="evenodd"
         fill="#A8A5A2"
         d="m 1017.273,746.204 c 0,0 -2.668,-19.691 -10.053,-19.691 -7.385,0 -16.717,0 -16.717,0 0,0 -4,1.536 -2.258,14.154 1.745,12.614 19.691,1.64 25.847,13.537 l 3.692,7.385 1.23,-1.64 z"
         id="path13591" />
      <path
         inkscape:connector-curvature="0"
         fill-rule="evenodd"
         clip-rule="evenodd"
         fill="#E0E0DF"
         d="m 1092.04,701.383 c 0,0 40.31,0 54.461,0 14.154,0 31.388,16.412 45.846,43.387 0,0 46.772,20.512 54.465,30.154 7.691,9.536 13.536,44.612 -19.692,60.202 0,0 4,23.486 -21.847,23.486 -25.848,0 -113.232,0 -113.232,0 0,0 -87.385,0 -113.229,0 -25.847,0 -21.847,-23.486 -21.847,-23.486 -33.231,-15.59 -27.384,-50.666 -19.691,-60.202 7.692,-9.643 54.46,-30.154 54.46,-30.154 14.463,-26.975 31.691,-43.387 45.847,-43.387 14.153,0 54.459,0 54.459,0 z"
         id="path13593" />
      <path
         inkscape:connector-curvature="0"
         fill-rule="evenodd"
         clip-rule="evenodd"
         fill="#CFCCCB"
         d="m 1092.04,701.383 c 0,0 -40.306,0 -54.46,0 -14.155,0 -31.384,16.412 -45.847,43.387 0,0 -46.768,20.512 -54.46,30.154 -7.692,9.536 -13.54,44.612 19.691,60.202 0,0 -4,23.486 21.847,23.486 25.844,0 113.229,0 113.229,0 z"
         id="path13595" />
      <polygon
         fill-rule="evenodd"
         clip-rule="evenodd"
         fill="#837D78"
         points="1055.018,777.178 1062.193,755.126 1064.554,745.794 1064.554,737.59 1075.631,707.538 1075.631,701.383 1052.657,701.383 1051.427,707.538 1035.53,745.486 987.324,777.178 989.271,788.357 1042.912,786.411 "
         id="polygon13597" />
      <path
         inkscape:connector-curvature="0"
         fill-rule="evenodd"
         clip-rule="evenodd"
         fill="#BDBAB9"
         d="m 937.273,774.924 c -7.692,9.536 -13.54,44.612 19.691,60.202 0,0 -4,23.486 21.847,23.486 25.844,0 113.229,0 113.229,0 v -36.511 c 0,0 -84.204,0 -106.769,0 -22.565,0 -24.614,5.64 -24.614,5.64 -37.026,-10.664 -23.384,-52.817 -23.384,-52.817 z"
         id="path13599" />
      <path
         inkscape:connector-curvature="0"
         fill-rule="evenodd"
         clip-rule="evenodd"
         fill="#CFCFCE"
         d="m 1246.812,774.924 c 7.691,9.536 13.536,44.612 -19.692,60.202 0,0 4,23.486 -21.847,23.486 -25.848,0 -113.232,0 -113.232,0 v -36.511 c 0,0 84.103,0 106.77,0 22.564,0 24.617,5.64 24.617,5.64 37.022,-10.664 23.384,-52.817 23.384,-52.817 z"
         id="path13601" />
      <polygon
         fill-rule="evenodd"
         clip-rule="evenodd"
         fill="#837D78"
         points="1125.682,777.178 1118.502,755.126 1116.043,745.794 1116.043,737.59 1105.068,707.538 1105.068,701.383 1128.042,701.383 1129.272,707.538 1145.169,745.486 1193.375,777.178 1191.322,788.357 1137.682,786.411 "
         id="polygon13603" />
      <path
         inkscape:connector-curvature="0"
         fill-rule="evenodd"
         clip-rule="evenodd"
         fill="#262728"
         d="m 959.018,777.178 h 265.946 c 9.127,0 16.614,7.487 16.614,16.614 v 0 c 0,9.028 -7.487,16.516 -16.614,16.516 H 959.018 c -9.027,0 -16.515,-7.487 -16.515,-16.516 v 0 c 0,-9.127 7.487,-16.614 16.515,-16.614 z"
         id="path13605" />
      <path
         inkscape:connector-curvature="0"
         fill-rule="evenodd"
         clip-rule="evenodd"
         fill="#262728"
         d="m 1016.863,830.818 h 150.357 c 3.181,0 5.742,2.565 5.742,5.746 v 0 c 0,3.073 -2.562,5.639 -5.742,5.639 h -150.357 c -3.18,0 -5.745,-2.565 -5.745,-5.639 v 0 c 0,-3.18 2.566,-5.746 5.745,-5.746 z"
         id="path13607" />
      <path
         inkscape:connector-curvature="0"
         fill-rule="evenodd"
         clip-rule="evenodd"
         fill="#262728"
         d="m 1092.04,745.794 h -30.666 c 0,0 -8.717,2.05 -8.717,9.332 h 39.383 39.388 c 0,-7.282 -8.823,-9.332 -8.823,-9.332 z"
         id="path13609" />
      <path
         inkscape:connector-curvature="0"
         fill-rule="evenodd"
         clip-rule="evenodd"
         fill="#262728"
         d="m 1092.04,737.59 h -33.74 c 0,0 -7.282,2.151 -8.721,7.896 h -51.588 c 7.692,-13.847 24.204,-37.948 39.589,-37.948 16.204,0 38.153,0 54.46,0 16.208,0 38.154,0 54.461,0 15.385,0 31.899,24.102 39.592,37.948 h -51.592 c -1.434,-5.745 -8.819,-7.896 -8.819,-7.896 z"
         id="path13611" />
      <path
         inkscape:connector-curvature="0"
         fill-rule="evenodd"
         clip-rule="evenodd"
         fill="#313233"
         d="m 1092.04,707.538 v 30.052 h 33.642 c 0,0 7.386,2.151 8.819,7.896 h 51.592 c -7.692,-13.847 -24.207,-37.948 -39.592,-37.948 -16.307,0 -38.253,0 -54.461,0 z"
         id="path13613" />
      <path
         inkscape:connector-curvature="0"
         fill-rule="evenodd"
         clip-rule="evenodd"
         fill="#FFFFFF"
         d="m 1100.245,737.59 h 22.257 l 12.102,-30.052 h -22.253 z m 33.539,6.049 c 0.308,0.618 0.513,1.233 0.717,1.848 h 16.003 l 12.308,-30.461 c -4.721,-4 -9.643,-6.771 -14.463,-7.385 z"
         id="path13615" />
      <path
         inkscape:connector-curvature="0"
         fill-rule="evenodd"
         clip-rule="evenodd"
         fill="#FFFFFF"
         d="m 974.3,830.921 c 4.717,0 8.614,4.205 8.614,9.336 0,5.127 -3.897,9.229 -8.614,9.229 -4.823,0 -8.618,-4.102 -8.618,-9.229 0,-5.131 3.795,-9.336 8.618,-9.336 z"
         id="path13617" />
      <path
         inkscape:connector-curvature="0"
         fill-rule="evenodd"
         clip-rule="evenodd"
         fill="#FFFFFF"
         d="m 1209.784,830.921 c 4.717,0 8.615,4.205 8.615,9.336 0,5.127 -3.898,9.229 -8.615,9.229 -4.717,0 -8.614,-4.102 -8.614,-9.229 0,-5.131 3.897,-9.336 8.614,-9.336 z"
         id="path13619" />
      <path
         inkscape:connector-curvature="0"
         fill="#FFFFFF"
         d="m 1222.296,779.641 c 3.692,0 7.078,1.64 9.438,4.308 2.459,2.564 3.999,6.155 3.999,10.154 0,3.897 -1.54,7.484 -3.999,10.152 -2.36,2.564 -5.746,4.204 -9.438,4.204 -3.692,0 -6.975,-1.64 -9.434,-4.204 -2.36,-2.668 -3.897,-6.255 -3.897,-10.152 0,-3.999 1.537,-7.59 3.897,-10.154 2.459,-2.669 5.742,-4.308 9.434,-4.308 z m 5.336,8.716 c -1.336,-1.537 -3.18,-2.463 -5.336,-2.463 -2.049,0 -3.896,0.926 -5.332,2.463 -1.332,1.435 -2.155,3.487 -2.155,5.745 0,2.255 0.823,4.205 2.155,5.742 1.436,1.435 3.283,2.36 5.332,2.36 2.156,0 4,-0.926 5.336,-2.36 1.435,-1.537 2.254,-3.487 2.254,-5.742 0,-2.257 -0.82,-4.31 -2.254,-5.745 z"
         id="path13621" />
      <path
         inkscape:connector-curvature="0"
         fill="#FFFFFF"
         d="m 1189.375,779.641 c 3.692,0 7.078,1.64 9.537,4.308 2.36,2.564 3.897,6.155 3.897,10.154 0,3.897 -1.537,7.484 -3.897,10.152 -2.459,2.564 -5.845,4.204 -9.537,4.204 -3.692,0 -6.975,-1.64 -9.438,-4.204 -2.356,-2.668 -3.897,-6.255 -3.897,-10.152 0,-3.999 1.541,-7.59 3.897,-10.154 2.463,-2.669 5.746,-4.308 9.438,-4.308 z m 5.332,8.716 c -1.332,-1.537 -3.18,-2.463 -5.332,-2.463 -2.053,0 -3.897,0.926 -5.335,2.463 -1.332,1.435 -2.152,3.487 -2.152,5.745 0,2.255 0.82,4.205 2.152,5.742 1.438,1.435 3.282,2.36 5.335,2.36 2.152,0 4,-0.926 5.332,-2.36 1.435,-1.537 2.258,-3.487 2.258,-5.742 0,-2.257 -0.823,-4.31 -2.258,-5.745 z"
         id="path13623" />
      <path
         inkscape:connector-curvature="0"
         fill="#FFFFFF"
         d="m 994.606,779.641 c 3.692,0 7.077,1.64 9.537,4.308 2.359,2.564 3.896,6.155 3.896,10.154 0,3.897 -1.537,7.484 -3.896,10.152 -2.46,2.564 -5.845,4.204 -9.537,4.204 -3.692,0 -6.975,-1.64 -9.438,-4.204 -2.357,-2.668 -3.897,-6.255 -3.897,-10.152 0,-3.999 1.54,-7.59 3.897,-10.154 2.464,-2.669 5.746,-4.308 9.438,-4.308 z m 5.332,8.716 c -1.332,-1.537 -3.181,-2.463 -5.332,-2.463 -2.053,0 -3.897,0.926 -5.336,2.463 -1.332,1.435 -2.151,3.487 -2.151,5.745 0,2.255 0.819,4.205 2.151,5.742 1.438,1.435 3.283,2.36 5.336,2.36 2.151,0 4,-0.926 5.332,-2.36 1.438,-1.537 2.258,-3.487 2.258,-5.742 0,-2.257 -0.82,-4.31 -2.258,-5.745 z"
         id="path13625" />
      <path
         inkscape:connector-curvature="0"
         fill="#FFFFFF"
         d="m 961.682,779.641 c 3.692,0 7.078,1.64 9.541,4.308 2.356,2.564 3.896,6.155 3.896,10.154 0,3.897 -1.54,7.484 -3.896,10.152 -2.463,2.564 -5.849,4.204 -9.541,4.204 -3.59,0 -6.975,-1.64 -9.434,-4.204 -2.36,-2.668 -3.897,-6.255 -3.897,-10.152 0,-3.999 1.537,-7.59 3.897,-10.154 2.459,-2.669 5.844,-4.308 9.434,-4.308 z m 5.438,8.716 c -1.438,-1.537 -3.283,-2.463 -5.438,-2.463 -2.049,0 -3.897,0.926 -5.332,2.463 -1.332,1.435 -2.155,3.487 -2.155,5.745 0,2.255 0.823,4.205 2.155,5.742 1.435,1.435 3.283,2.36 5.332,2.36 2.155,0 4,-0.926 5.438,-2.36 1.332,-1.537 2.151,-3.487 2.151,-5.742 0,-2.257 -0.819,-4.31 -2.151,-5.745 z"
         id="path13627" />
      <path
         inkscape:connector-curvature="0"
         fill-rule="evenodd"
         clip-rule="evenodd"
         fill="#FFFFFF"
         d="m 1138.194,791.23 v 0 c 4.307,0 7.794,3.59 7.794,7.897 v 42.256 c 0,4.307 -3.487,7.795 -7.794,7.795 v 0 c -4.308,0 -7.897,-3.488 -7.897,-7.795 v -42.256 c 0,-4.307 3.59,-7.897 7.897,-7.897 z"
         id="path13629" />
      <path
         inkscape:connector-curvature="0"
         fill-rule="evenodd"
         clip-rule="evenodd"
         fill="#FFFFFF"
         d="m 1045.887,791.23 v 0 c 4.308,0 7.795,3.59 7.795,7.897 v 42.256 c 0,4.307 -3.487,7.795 -7.795,7.795 v 0 c -4.308,0 -7.897,-3.488 -7.897,-7.795 v -42.256 c -10e-4,-4.307 3.589,-7.897 7.897,-7.897 z"
         id="path13631" />
    </g>
  </g>
</svg>
