<?xml version="1.0" encoding="UTF-8" standalone="no"?>
<svg
   xmlns:dc="http://purl.org/dc/elements/1.1/"
   xmlns:cc="http://creativecommons.org/ns#"
   xmlns:rdf="http://www.w3.org/1999/02/22-rdf-syntax-ns#"
   xmlns:svg="http://www.w3.org/2000/svg"
   xmlns="http://www.w3.org/2000/svg"
   xmlns:sodipodi="http://sodipodi.sourceforge.net/DTD/sodipodi-0.dtd"
   xmlns:inkscape="http://www.inkscape.org/namespaces/inkscape"
   inkscape:version="1.0beta1 (32d4812, 2019-09-19)"
   id="svg13135"
   version="1.1"
   viewBox="0 0 507.99998 285.75001"
   height="1080"
   width="1920">
  <defs
     id="defs13129" />
  <sodipodi:namedview
     inkscape:window-maximized="0"
     inkscape:window-y="134"
     inkscape:window-x="20"
     inkscape:window-height="907"
     inkscape:window-width="1600"
     width="1920px"
     units="px"
     showgrid="false"
     inkscape:document-rotation="0"
     inkscape:current-layer="layer1"
     inkscape:document-units="mm"
     inkscape:cy="560"
     inkscape:cx="704.28571"
     inkscape:zoom="0.35"
     inkscape:pageshadow="2"
     inkscape:pageopacity="0.0"
     borderopacity="1.0"
     bordercolor="#666666"
     pagecolor="#ffffff"
     id="base" />
  <metadata
     id="metadata13132">
    <rdf:RDF>
      <cc:Work
         rdf:about="">
        <dc:format>image/svg+xml</dc:format>
        <dc:type
           rdf:resource="http://purl.org/dc/dcmitype/StillImage" />
        <dc:title></dc:title>
      </cc:Work>
    </rdf:RDF>
  </metadata>
  <g
     id="layer1"
     inkscape:groupmode="layer"
     inkscape:label="Layer 1">
    <g
       transform="matrix(1.3229166,0,0,1.3229166,-654.59367,-889.26982)"
       id="g13429">
      <path
         inkscape:connector-curvature="0"
         fill-rule="evenodd"
         clip-rule="evenodd"
         fill="#1C1C1C"
         d="m 782.4,735.229 c 0,0 3.282,-13.435 12.208,-13.435 8.819,0 19.999,0 19.999,0 0,0 4.819,1.024 2.77,9.64 -2.155,8.717 -23.797,1.127 -31.08,9.232 l -4.512,5.127 -1.435,-1.127 z"
         id="path13367" />
      <path
         inkscape:connector-curvature="0"
         fill-rule="evenodd"
         clip-rule="evenodd"
         fill="#1C1C1C"
         d="m 591.223,735.229 c 0,0 -3.283,-13.435 -12.205,-13.435 -8.923,0 -20.103,0 -20.103,0 0,0 -4.717,1.024 -2.666,9.64 2.051,8.717 23.691,1.127 31.076,9.232 l 4.41,5.127 1.437,-1.127 z"
         id="path13369" />
      <path
         inkscape:connector-curvature="0"
         fill-rule="evenodd"
         clip-rule="evenodd"
         fill="#1C1C1C"
         d="m 803.223,782.1 h -13.95 c -7.077,0 -12.819,5.746 -12.819,12.721 v 59.485 c 0,7.077 5.742,12.822 12.819,12.822 h 13.95 c 7.077,0 12.819,-5.745 12.819,-12.822 V 794.82 c 0,-6.974 -5.742,-12.72 -12.819,-12.72 z"
         id="path13371" />
      <path
         inkscape:connector-curvature="0"
         fill-rule="evenodd"
         clip-rule="evenodd"
         fill="#1C1C1C"
         d="m 582.402,782.1 h -13.948 c -7.076,0 -12.821,5.746 -12.821,12.721 v 59.485 c 0,7.077 5.745,12.822 12.821,12.822 h 13.948 c 7.078,0 12.821,-5.745 12.821,-12.822 V 794.82 c 0,-6.974 -5.744,-12.72 -12.821,-12.72 z"
         id="path13373" />
      <path
         inkscape:connector-curvature="0"
         fill-rule="evenodd"
         clip-rule="evenodd"
         fill="#ED8322"
         d="m 686.811,693.28 c 17.949,0 40.001,0 57.439,2.771 17.639,2.771 34.253,27.384 42.87,41.642 0.82,1.435 0.923,3.077 0,4.512 -0.823,1.435 -2.258,2.36 -3.896,2.258 -16.311,-0.308 -32.515,-0.516 -48.821,-0.721 -9.95,-0.205 -19.897,-0.308 -29.949,-0.308 -5.639,-0.103 -11.794,-0.205 -17.434,0.103 -0.103,0 -0.309,0 -0.514,0 -5.641,-0.308 -11.795,-0.205 -17.436,-0.103 -9.95,0 -19.898,0.103 -29.949,0.308 -16.205,0.205 -32.513,0.413 -48.717,0.721 -1.744,0.103 -3.18,-0.823 -4,-2.258 -0.822,-1.435 -0.822,-3.077 0.102,-4.512 8.615,-14.258 25.128,-38.871 42.769,-41.642 17.538,-2.771 39.59,-2.771 57.536,-2.771 z"
         id="path13375" />
      <path
         inkscape:connector-curvature="0"
         fill-rule="evenodd"
         clip-rule="evenodd"
         fill="#F29820"
         d="m 686.811,693.28 c 17.949,0 40.001,0 57.439,2.771 17.639,2.771 34.253,27.384 42.87,41.642 0.82,1.435 0.923,3.077 0,4.512 -0.823,1.435 -2.258,2.36 -3.896,2.258 -16.311,-0.308 -32.515,-0.516 -48.821,-0.721 -9.95,-0.205 -19.897,-0.308 -29.949,-0.308 -5.639,-0.103 -11.794,-0.205 -17.434,0.103 h -0.208 V 693.28 Z"
         id="path13377" />
      <path
         inkscape:connector-curvature="0"
         fill-rule="evenodd"
         clip-rule="evenodd"
         fill="#565A5A"
         d="m 686.811,697.793 c 0,0 40.001,0 56.717,2.667 16.823,2.668 34.052,30.154 39.797,39.589 0,0 37.331,0 37.331,30.154 0,30.154 0,45.231 0,61.128 0,15.897 -24.716,28.617 -46.871,28.617 -22.257,0 -86.974,0 -86.974,0 0,0 -64.716,0 -86.972,0 -22.257,0 -46.873,-12.721 -46.873,-28.617 0,-15.896 0,-30.974 0,-61.128 0,-30.154 37.334,-30.154 37.334,-30.154 5.641,-9.435 22.872,-36.921 39.691,-39.589 16.822,-2.667 56.82,-2.667 56.82,-2.667 z"
         id="path13379" />
      <path
         inkscape:connector-curvature="0"
         fill-rule="evenodd"
         clip-rule="evenodd"
         fill="#434748"
         d="m 817.274,756.462 c 2.05,3.692 3.382,8.204 3.382,13.741 0,30.154 0,45.231 0,61.128 0,15.897 -24.716,28.617 -46.871,28.617 -22.257,0 -86.974,0 -86.974,0 60.922,-64.308 130.361,-103.385 130.463,-103.486 z"
         id="path13381" />
      <path
         inkscape:connector-curvature="0"
         fill-rule="evenodd"
         clip-rule="evenodd"
         fill="#ED8322"
         d="m 776.761,729.795 c 2.771,4.103 5.024,7.795 6.564,10.254 0,0 1.947,0 4.923,0.311 0,0 -48.002,36.613 -67.898,90.459 h -33.539 -33.638 c -19.898,-53.846 -67.898,-90.459 -67.898,-90.459 3.078,-0.311 5.026,-0.311 5.026,-0.311 1.435,-2.459 3.691,-6.151 6.563,-10.254 l 89.947,-8.823 z"
         id="path13383" />
      <path
         inkscape:connector-curvature="0"
         fill-rule="evenodd"
         clip-rule="evenodd"
         fill="#313233"
         d="m 820.656,792.87 v 38.461 c 0,15.896 -24.716,28.617 -46.871,28.617 -22.257,0 -86.974,0 -86.974,0 v -29.13 h 33.539 c 0,0 12.311,-20.921 29.027,-20.921 16.614,0 45.129,0 54.357,0 9.23,0 16.922,-10.974 16.922,-17.027 z"
         id="path13385" />
      <path
         inkscape:connector-curvature="0"
         fill-rule="evenodd"
         clip-rule="evenodd"
         fill="#FCD007"
         d="m 783.325,740.049 c 0,0 6.563,0 14.152,2.155 -36.921,14.359 -77.128,88.205 -77.128,88.205 19.385,-60.103 62.976,-90.36 62.976,-90.36 z"
         id="path13387" />
      <path
         inkscape:connector-curvature="0"
         fill-rule="evenodd"
         clip-rule="evenodd"
         fill="#1C1C1C"
         d="m 756.864,776.358 h 46.358 c 3.487,0 6.36,2.872 6.36,6.359 v 15.897 c 0,3.487 -2.873,6.356 -6.36,6.356 h -67.386 c 5.951,-8.818 13.131,-18.973 21.028,-28.612 z"
         id="path13389" />
      <path
         inkscape:connector-curvature="0"
         fill-rule="evenodd"
         clip-rule="evenodd"
         fill="#FFFFFF"
         d="m 777.888,776.358 h 22.872 c 0.512,0.409 0.922,0.819 1.438,1.229 v 0.103 c 3.386,3.282 5.435,7.896 5.435,12.925 0,4.922 -1.946,9.435 -5.127,12.717 l -0.308,0.205 c -0.516,0.513 -1.028,1.024 -1.643,1.435 h -22.462 c -0.615,-0.41 -1.127,-0.922 -1.64,-1.435 -3.385,-3.282 -5.435,-7.897 -5.435,-12.922 0,-5.028 2.05,-9.643 5.435,-12.925 0.41,-0.41 0.922,-0.922 1.435,-1.332 z m 4,6.77 c 1.848,-1.95 4.516,-3.077 7.385,-3.077 2.975,0 5.643,1.127 7.487,3.077 1.95,1.947 3.18,4.513 3.18,7.487 0,2.869 -1.127,5.435 -2.975,7.282 l -0.205,0.205 c -1.845,1.845 -4.513,3.074 -7.487,3.074 -2.869,0 -5.537,-1.229 -7.385,-3.074 -1.947,-1.95 -3.18,-4.618 -3.18,-7.487 0,-2.974 1.232,-5.54 3.18,-7.487 z"
         id="path13391" />
      <path
         inkscape:connector-curvature="0"
         fill-rule="evenodd"
         clip-rule="evenodd"
         fill="#FFFFFF"
         d="m 742.812,794.923 c 1.537,-2.155 3.078,-4.41 4.717,-6.565 -0.205,0.718 -0.409,1.435 -0.409,2.258 0,1.947 0.819,3.692 2.155,5.024 1.229,1.23 2.975,2.05 4.922,2.05 1.95,0 3.795,-0.819 5.024,-2.05 l 0.103,-0.103 c 1.233,-1.332 2.053,-3.077 2.053,-4.922 0,-1.95 -0.819,-3.692 -2.155,-5.028 -1.229,-1.229 -2.972,-2.049 -5.024,-2.049 -1.435,0 -2.873,0.41 -4,1.229 1.644,-2.151 3.282,-4.308 5.024,-6.36 2.976,0.205 5.644,1.541 7.59,3.488 l 0.103,0.102 c 2.155,2.156 3.59,5.233 3.59,8.618 0,3.283 -1.332,6.255 -3.487,8.513 l -0.103,0.102 c -2.254,2.255 -5.332,3.591 -8.717,3.591 -3.385,0 -6.36,-1.336 -8.614,-3.591 -1.235,-1.23 -2.157,-2.667 -2.772,-4.307 z"
         id="path13393" />
      <path
         inkscape:connector-curvature="0"
         fill-rule="evenodd"
         clip-rule="evenodd"
         fill="#1C1C1C"
         d="m 805.066,814.103 c 0,0 3.181,25.843 -17.023,36.511 h -65.436 c 0,0 5.024,-36.511 27.794,-36.511 22.77,0 54.665,0 54.665,0 z"
         id="path13395" />
      <path
         inkscape:connector-curvature="0"
         fill-rule="evenodd"
         clip-rule="evenodd"
         fill="#434748"
         d="m 742.606,821.282 h 53.846 c 2.155,0 3.795,1.742 3.795,3.795 v 0 c 0,2.049 -1.64,3.795 -3.795,3.795 h -53.846 c -2.049,0 -3.795,-1.746 -3.795,-3.795 v 0 c 10e-4,-2.053 1.747,-3.795 3.795,-3.795 z"
         id="path13397" />
      <path
         inkscape:connector-curvature="0"
         fill-rule="evenodd"
         clip-rule="evenodd"
         fill="#434748"
         d="m 734.709,836.154 h 53.847 c 2.053,0 3.794,1.64 3.794,3.791 v 0 c 0,2.053 -1.741,3.692 -3.794,3.692 h -53.847 c -2.049,0 -3.795,-1.64 -3.795,-3.692 v 0 c 0,-2.151 1.746,-3.791 3.795,-3.791 z"
         id="path13399" />
      <path
         inkscape:connector-curvature="0"
         fill-rule="evenodd"
         clip-rule="evenodd"
         fill="#434748"
         d="m 556.25,756.462 c -2.051,3.692 -3.283,8.204 -3.283,13.741 0,30.154 0,45.231 0,61.128 0,15.897 24.616,28.617 46.873,28.617 22.255,0 86.972,0 86.972,0 C 625.787,795.64 556.454,756.563 556.25,756.462 Z"
         id="path13401" />
      <path
         inkscape:connector-curvature="0"
         fill-rule="evenodd"
         clip-rule="evenodd"
         fill="#262728"
         d="m 552.967,792.87 v 38.461 c 0,15.896 24.616,28.617 46.873,28.617 22.255,0 86.972,0 86.972,0 v -29.13 h -33.638 c 0,0 -12.207,-20.921 -28.925,-20.921 -16.716,0 -45.127,0 -54.358,0 -9.334,0 -16.924,-10.974 -16.924,-17.027 z"
         id="path13403" />
      <path
         inkscape:connector-curvature="0"
         fill-rule="evenodd"
         clip-rule="evenodd"
         fill="#FCD007"
         d="m 590.301,740.049 c 0,0 -6.565,0 -14.257,2.155 37.025,14.359 77.129,88.205 77.129,88.205 -19.284,-60.103 -62.872,-90.36 -62.872,-90.36 z"
         id="path13405" />
      <path
         inkscape:connector-curvature="0"
         fill-rule="evenodd"
         clip-rule="evenodd"
         fill="#F39F1F"
         d="m 776.761,729.795 c 2.771,4.103 5.024,7.795 6.564,10.254 0,0 1.947,0 4.923,0.311 0,0 -48.002,36.613 -67.898,90.459 H 686.811 V 720.972 Z"
         id="path13407" />
      <path
         inkscape:connector-curvature="0"
         fill-rule="evenodd"
         clip-rule="evenodd"
         fill="#262728"
         d="m 686.811,697.793 c 0,0 -39.999,0 -56.819,2.667 -16.819,2.668 -34.05,30.154 -39.691,39.589 0,0 85.846,-1.64 96.51,-0.922 10.565,-0.718 96.514,0.922 96.514,0.922 -5.745,-9.435 -22.974,-36.921 -39.797,-39.589 -16.715,-2.667 -56.717,-2.667 -56.717,-2.667 z"
         id="path13409" />
      <path
         inkscape:connector-curvature="0"
         fill-rule="evenodd"
         clip-rule="evenodd"
         fill="#1C1C1C"
         d="M 616.659,776.358 H 570.3 c -3.487,0 -6.358,2.872 -6.358,6.359 v 15.897 c 0,3.487 2.871,6.356 6.358,6.356 h 67.384 c -5.846,-8.818 -13.026,-18.973 -21.025,-28.612 z"
         id="path13411" />
      <path
         inkscape:connector-curvature="0"
         fill-rule="evenodd"
         clip-rule="evenodd"
         fill="#1C1C1C"
         d="m 568.454,814.103 c 0,0 -3.076,25.843 17.128,36.511 h 65.333 c 0,0 -5.025,-36.511 -27.794,-36.511 -22.769,0 -54.667,0 -54.667,0 z"
         id="path13413" />
      <path
         inkscape:connector-curvature="0"
         fill-rule="evenodd"
         clip-rule="evenodd"
         fill="#434748"
         d="M 630.916,821.282 H 577.07 c -2.051,0 -3.795,1.742 -3.795,3.795 v 0 c 0,2.049 1.744,3.795 3.795,3.795 h 53.846 c 2.154,0 3.795,-1.746 3.795,-3.795 v 0 c -10e-4,-2.053 -1.642,-3.795 -3.795,-3.795 z"
         id="path13415" />
      <path
         inkscape:connector-curvature="0"
         fill-rule="evenodd"
         clip-rule="evenodd"
         fill="#434748"
         d="M 638.916,836.154 H 585.07 c -2.154,0 -3.795,1.64 -3.795,3.791 v 0 c 0,2.053 1.641,3.692 3.795,3.692 h 53.846 c 2.051,0 3.795,-1.64 3.795,-3.692 v 0 c -10e-4,-2.151 -1.745,-3.791 -3.795,-3.791 z"
         id="path13417" />
      <path
         inkscape:connector-curvature="0"
         fill-rule="evenodd"
         clip-rule="evenodd"
         fill="#313233"
         d="m 686.811,697.793 c 0,0 40.001,0 56.717,2.667 16.823,2.668 34.052,30.154 39.797,39.589 0,0 -85.949,-1.64 -96.514,-0.922 z"
         id="path13419" />
      <path
         inkscape:connector-curvature="0"
         fill-rule="evenodd"
         clip-rule="evenodd"
         fill="#FFFFFF"
         d="m 712.35,698.206 c 7.487,0.308 15.59,0.615 22.462,1.229 l -17.229,39.589 c -9.028,-0.103 -17.232,-0.103 -22.974,-0.103 z m 35.588,3.484 c 4.823,1.848 9.438,5.438 13.848,9.745 l -12.205,27.998 -17.949,-0.204 z"
         id="path13421" />
      <path
         inkscape:connector-curvature="0"
         fill-rule="evenodd"
         clip-rule="evenodd"
         fill="#1C1C1C"
         d="m 686.811,779.846 v 0 c 16.719,0 30.359,13.639 30.359,30.359 v 40.612 h -60.716 v -40.612 c 0,-16.721 13.64,-30.359 30.357,-30.359 z"
         id="path13423" />
      <path
         inkscape:connector-curvature="0"
         fill-rule="evenodd"
         clip-rule="evenodd"
         fill="#FFFFFF"
         d="m 595.737,776.358 h -22.974 c -0.514,0.409 -0.924,0.819 -1.334,1.229 l -0.102,0.103 c -3.283,3.282 -5.334,7.896 -5.334,12.925 0,4.922 1.949,9.435 5.129,12.717 l 0.205,0.205 c 0.512,0.513 1.127,1.024 1.641,1.435 h 22.563 c 0.514,-0.41 1.129,-0.922 1.641,-1.435 3.283,-3.282 5.334,-7.897 5.334,-12.922 0,-5.028 -2.051,-9.643 -5.334,-12.925 -0.513,-0.41 -0.922,-0.922 -1.435,-1.332 z m -4.002,6.77 c -1.949,-1.95 -4.615,-3.077 -7.485,-3.077 -2.975,0 -5.539,1.127 -7.487,3.077 -1.951,1.947 -3.078,4.513 -3.078,7.487 0,2.869 1.127,5.435 2.873,7.282 l 0.205,0.205 c 1.949,1.845 4.615,3.074 7.487,3.074 2.871,0 5.537,-1.229 7.485,-3.074 1.846,-1.95 3.078,-4.618 3.078,-7.487 0,-2.974 -1.231,-5.54 -3.078,-7.487 z"
         id="path13425" />
      <path
         inkscape:connector-curvature="0"
         fill-rule="evenodd"
         clip-rule="evenodd"
         fill="#FFFFFF"
         d="m 630.813,794.923 c -1.539,-2.155 -3.18,-4.41 -4.719,-6.565 0.205,0.718 0.31,1.435 0.31,2.258 0,1.947 -0.822,3.692 -2.053,5.024 -1.332,1.23 -3.076,2.05 -5.024,2.05 -1.948,0 -3.692,-0.819 -5.026,-2.05 l -0.103,-0.103 c -1.231,-1.332 -1.949,-3.077 -1.949,-4.922 0,-1.95 0.82,-3.692 2.051,-5.028 1.334,-1.229 3.078,-2.049 5.026,-2.049 1.435,0 2.871,0.41 4,1.229 -1.642,-2.151 -3.283,-4.308 -5.026,-6.36 -2.974,0.205 -5.539,1.541 -7.59,3.488 v 0.102 c -2.256,2.156 -3.59,5.233 -3.59,8.618 0,3.283 1.231,6.255 3.385,8.513 l 0.205,0.102 c 2.154,2.255 5.231,3.591 8.616,3.591 3.385,0 6.461,-1.336 8.614,-3.591 1.232,-1.23 2.259,-2.667 2.873,-4.307 z"
         id="path13427" />
    </g>
  </g>
</svg>
