<?xml version="1.0" encoding="UTF-8" standalone="no"?>
<svg
   xmlns:dc="http://purl.org/dc/elements/1.1/"
   xmlns:cc="http://creativecommons.org/ns#"
   xmlns:rdf="http://www.w3.org/1999/02/22-rdf-syntax-ns#"
   xmlns:svg="http://www.w3.org/2000/svg"
   xmlns="http://www.w3.org/2000/svg"
   xmlns:sodipodi="http://sodipodi.sourceforge.net/DTD/sodipodi-0.dtd"
   xmlns:inkscape="http://www.inkscape.org/namespaces/inkscape"
   inkscape:version="1.0beta1 (32d4812, 2019-09-19)"
   id="svg13135"
   version="1.1"
   viewBox="0 0 507.99998 285.75001"
   height="1080"
   width="1920">
  <defs
     id="defs13129" />
  <sodipodi:namedview
     inkscape:window-maximized="0"
     inkscape:window-y="134"
     inkscape:window-x="20"
     inkscape:window-height="907"
     inkscape:window-width="1600"
     width="1920px"
     units="px"
     showgrid="false"
     inkscape:document-rotation="0"
     inkscape:current-layer="layer1"
     inkscape:document-units="mm"
     inkscape:cy="560"
     inkscape:cx="704.28571"
     inkscape:zoom="0.35"
     inkscape:pageshadow="2"
     inkscape:pageopacity="0.0"
     borderopacity="1.0"
     bordercolor="#666666"
     pagecolor="#ffffff"
     id="base" />
  <metadata
     id="metadata13132">
    <rdf:RDF>
      <cc:Work
         rdf:about="">
        <dc:format>image/svg+xml</dc:format>
        <dc:type
           rdf:resource="http://purl.org/dc/dcmitype/StillImage" />
        <dc:title></dc:title>
      </cc:Work>
    </rdf:RDF>
  </metadata>
  <g
     id="layer1"
     inkscape:groupmode="layer"
     inkscape:label="Layer 1">
    <g
       transform="matrix(1.3229166,0,0,1.3229166,-1190.6104,-507.08853)"
       id="g13583">
      <path
         inkscape:connector-curvature="0"
         fill-rule="evenodd"
         clip-rule="evenodd"
         fill="#F198C1"
         d="m 1177.684,460.154 c 0,0 2.562,-10.975 9.844,-10.975 7.18,0 16.307,0 16.307,0 0,0 3.795,0.924 2.155,7.896 -1.742,7.078 -19.281,0.925 -25.232,7.487 l -3.586,4.103 -1.131,-0.819 z"
         id="path13535" />
      <path
         inkscape:connector-curvature="0"
         fill-rule="evenodd"
         clip-rule="evenodd"
         fill="#F198C1"
         d="m 1006.401,460.154 c 0,0 -2.668,-10.975 -9.848,-10.975 -7.177,0 -16.307,0 -16.307,0 0,0 -3.897,0.924 -2.152,7.896 1.64,7.078 19.18,0.925 25.229,7.487 l 3.59,4.103 1.127,-0.819 z"
         id="path13537" />
      <path
         inkscape:connector-curvature="0"
         fill-rule="evenodd"
         clip-rule="evenodd"
         fill="#1C1C1C"
         d="m 1207.424,497.896 h -11.282 c -5.741,0 -10.459,4.717 -10.459,10.463 v 48.206 c 0,5.742 4.718,10.356 10.459,10.356 h 11.282 c 5.745,0 10.36,-4.614 10.36,-10.356 v -48.206 c 0,-5.746 -4.615,-10.463 -10.36,-10.463 z"
         id="path13539" />
      <path
         inkscape:connector-curvature="0"
         fill-rule="evenodd"
         clip-rule="evenodd"
         fill="#1C1C1C"
         d="m 987.938,497.896 h -11.385 c -5.639,0 -10.359,4.717 -10.359,10.463 v 48.206 c 0,5.742 4.721,10.356 10.359,10.356 h 11.385 c 5.746,0 10.36,-4.614 10.36,-10.356 v -48.206 c 10e-4,-5.746 -4.613,-10.463 -10.36,-10.463 z"
         id="path13541" />
      <path
         inkscape:connector-curvature="0"
         fill-rule="evenodd"
         clip-rule="evenodd"
         fill="#F198C1"
         d="m 1092.04,415.744 c 0,0 43.899,-0.821 64.309,4.718 5.332,1.436 9.232,3.897 12.819,7.794 5.335,5.847 12.72,14.771 18.359,25.95 0,0 7.077,3.178 7.282,10.051 0,0 10.873,5.743 15.077,14.255 h 6.155 c 0,0 4.103,60.719 -16.822,77.538 0,0 -8.103,5.438 -21.127,5.438 -13.027,0 -86.053,0 -86.053,0 0,0 -73.127,0 -86.049,0 -13.028,0 -21.13,-5.438 -21.13,-5.438 -21.024,-16.819 -16.819,-77.538 -16.819,-77.538 h 6.05 c 4.208,-8.512 15.179,-14.255 15.179,-14.255 0.205,-6.873 7.283,-10.051 7.283,-10.051 5.54,-11.18 13.027,-20.104 18.359,-25.95 3.59,-3.896 7.487,-6.358 12.822,-7.794 20.411,-5.539 64.306,-4.718 64.306,-4.718 z"
         id="path13543" />
      <path
         inkscape:connector-curvature="0"
         fill-rule="evenodd"
         clip-rule="evenodd"
         fill="#F082B3"
         d="m 1092.04,415.744 c 0,0 -43.896,-0.821 -64.305,4.718 -5.335,1.436 -9.232,3.897 -12.822,7.794 -5.332,5.847 -12.819,14.771 -18.359,25.95 0,0 -7.078,3.178 -7.283,10.051 0,0 -10.971,5.743 -15.179,14.255 h -6.05 c 0,0 -4.205,60.719 16.819,77.538 0,0 8.102,5.438 21.13,5.438 12.922,0 86.049,0 86.049,0 z"
         id="path13545" />
      <path
         inkscape:connector-curvature="0"
         fill-rule="evenodd"
         clip-rule="evenodd"
         fill="#EC6F9B"
         d="m 968.657,512.154 c 1.745,17.023 5.95,35.69 16.204,43.896 0,0 8.102,5.438 21.13,5.438 12.922,0 86.049,0 86.049,0 V 498.41 c -14.151,-1.435 -45.538,0.721 -60.305,4.204 -14.77,3.386 -15.798,21.335 -15.798,21.335 -19.282,-1.435 -47.075,-11.692 -47.28,-11.795 z"
         id="path13547" />
      <path
         inkscape:connector-curvature="0"
         fill-rule="evenodd"
         clip-rule="evenodd"
         fill="#F4B3D1"
         d="m 1187.527,454.206 c 0,0 7.077,3.178 7.282,10.051 l -33.437,36.718 z"
         id="path13549" />
      <path
         inkscape:connector-curvature="0"
         fill-rule="evenodd"
         clip-rule="evenodd"
         fill="#262728"
         d="m 1172.245,495.232 c 5.233,-4.411 27.9,-11.079 31.179,-15.796 0,0 5.746,14.563 -3.999,23.898 -21.844,21.127 -39.179,1.947 -27.18,-8.102 z"
         id="path13551" />
      <path
         inkscape:connector-curvature="0"
         fill-rule="evenodd"
         clip-rule="evenodd"
         fill="#F4B3D1"
         d="m 1125.784,462.205 c 0,0 4.41,1.025 5.848,3.59 0,0 -1.745,17.743 -5.848,28.204 0,0 2.053,-21.333 0,-31.794 z"
         id="path13553" />
      <path
         inkscape:connector-curvature="0"
         fill-rule="evenodd"
         clip-rule="evenodd"
         fill="#F286B6"
         d="m 1215.321,512.154 c -1.64,17.023 -5.844,35.69 -16.102,43.896 0,0 -8.103,5.438 -21.127,5.438 -13.027,0 -86.053,0 -86.053,0 V 498.41 c 14.155,-1.435 45.539,0.721 60.309,4.204 14.77,3.386 15.795,21.335 15.795,21.335 19.282,-1.435 47.076,-11.692 47.178,-11.795 z"
         id="path13555" />
      <path
         inkscape:connector-curvature="0"
         fill-rule="evenodd"
         clip-rule="evenodd"
         fill="#E66A96"
         d="m 996.554,454.206 c 0,0 -7.078,3.178 -7.283,10.051 l 33.438,36.718 z"
         id="path13557" />
      <path
         inkscape:connector-curvature="0"
         fill-rule="evenodd"
         clip-rule="evenodd"
         fill="#262728"
         d="m 1092.04,501.589 c 0,0 -45.23,0.41 -62.665,5.643 -17.335,5.229 -5.435,35.794 11.795,45.229 h 50.87 50.874 c 17.127,-9.435 29.126,-39.999 11.692,-45.229 -17.335,-5.233 -62.566,-5.643 -62.566,-5.643 z"
         id="path13559" />
      <path
         inkscape:connector-curvature="0"
         fill-rule="evenodd"
         clip-rule="evenodd"
         fill="#262728"
         d="m 1011.835,495.232 c -5.229,-4.411 -27.896,-11.079 -31.179,-15.796 0,0 -5.741,14.563 4,23.898 21.847,21.127 39.179,1.947 27.179,-8.102 z"
         id="path13561" />
      <path
         inkscape:connector-curvature="0"
         fill-rule="evenodd"
         clip-rule="evenodd"
         fill="#262728"
         d="m 1092.04,424.666 c 0,0 -52.612,-0.205 -64.305,2.154 0,0 -18.052,18.257 -23.08,30.563 h 87.385 87.283 c -5.025,-12.307 -22.975,-30.563 -22.975,-30.563 -11.794,-2.359 -64.308,-2.154 -64.308,-2.154 z"
         id="path13563" />
      <path
         inkscape:connector-curvature="0"
         fill-rule="evenodd"
         clip-rule="evenodd"
         fill="#F198C1"
         d="m 1058.3,462.205 c 0,0 -4.413,1.025 -5.848,3.59 0,0 1.64,17.743 5.848,28.204 0,0 -2.053,-21.333 0,-31.794 z"
         id="path13565" />
      <path
         inkscape:connector-curvature="0"
         fill-rule="evenodd"
         clip-rule="evenodd"
         fill="#313233"
         d="m 1092.04,424.666 c 0,0 52.514,-0.205 64.309,2.154 0,0 17.949,18.257 22.975,30.563 h -87.283 v -32.717 z"
         id="path13567" />
      <path
         inkscape:connector-curvature="0"
         fill-rule="evenodd"
         clip-rule="evenodd"
         fill="#FFFFFF"
         d="m 1112.043,424.769 c 5.435,0.103 11.385,0.205 17.229,0.308 l -14.053,32.308 h -17.332 z m 27.691,0.719 c 5.229,0.204 9.844,0.512 13.229,0.819 l -13.537,31.076 h -13.54 z"
         id="path13569" />
      <path
         inkscape:connector-curvature="0"
         fill-rule="evenodd"
         clip-rule="evenodd"
         fill="#262728"
         d="m 1001.581,527.129 c 5.332,0 9.64,4.307 9.64,9.639 0,5.233 -4.308,9.54 -9.64,9.54 -5.335,0 -9.643,-4.307 -9.643,-9.54 0,-5.332 4.308,-9.639 9.643,-9.639 z"
         id="path13571" />
      <path
         inkscape:connector-curvature="0"
         fill-rule="evenodd"
         clip-rule="evenodd"
         fill="#262728"
         d="m 1182.503,527.129 c 5.332,0 9.639,4.307 9.639,9.639 0,5.233 -4.307,9.54 -9.639,9.54 -5.332,0 -9.643,-4.307 -9.643,-9.54 0,-5.332 4.311,-9.639 9.643,-9.639 z"
         id="path13573" />
      <path
         inkscape:connector-curvature="0"
         fill="#FFFFFF"
         d="m 1182.4,491.745 c 2.668,0 5.024,1.024 6.771,2.767 1.639,1.745 2.767,4.103 2.767,6.667 0,2.668 -1.128,5.025 -2.767,6.771 h -0.103 c -1.746,1.742 -4,2.771 -6.668,2.771 -2.565,0 -4.922,-1.131 -6.667,-2.771 -1.742,-1.745 -2.771,-4.103 -2.771,-6.771 0,-2.564 1.028,-4.922 2.771,-6.667 v 0 c 1.746,-1.742 4.102,-2.767 6.667,-2.767 z m 3.488,5.946 c -0.819,-0.922 -2.053,-1.435 -3.487,-1.435 -1.336,0 -2.565,0.513 -3.487,1.435 v 0 c -0.922,0.923 -1.435,2.155 -1.435,3.487 0,1.435 0.513,2.668 1.435,3.488 0.922,0.922 2.151,1.537 3.487,1.537 1.435,0 2.668,-0.615 3.487,-1.435 0.923,-0.923 1.537,-2.156 1.537,-3.591 0,-1.33 -0.614,-2.563 -1.537,-3.486 z"
         id="path13575" />
      <path
         inkscape:connector-curvature="0"
         fill="#FFFFFF"
         d="m 1197.067,487.025 c 1.537,0 2.869,0.615 3.897,1.642 1.024,1.024 1.64,2.359 1.64,3.897 0,1.537 -0.615,2.873 -1.64,3.897 v 0 c -1.028,1.024 -2.36,1.64 -3.897,1.64 -1.54,0 -2.872,-0.615 -3.897,-1.64 -1.028,-1.024 -1.643,-2.36 -1.643,-3.897 0,-1.538 0.614,-2.873 1.643,-3.897 v 0 c 1.025,-1.026 2.357,-1.642 3.897,-1.642 z m 2.05,3.489 c -0.513,-0.515 -1.229,-0.822 -2.05,-0.822 -0.823,0 -1.54,0.308 -2.053,0.822 v 0 c -0.513,0.513 -0.819,1.231 -0.819,2.051 0,0.82 0.307,1.537 0.819,2.05 0.513,0.512 1.229,0.823 2.053,0.823 0.82,0 1.537,-0.312 2.05,-0.823 0.513,-0.513 0.819,-1.229 0.819,-2.05 10e-4,-0.82 -0.306,-1.539 -0.819,-2.051 z"
         id="path13577" />
      <path
         inkscape:connector-curvature="0"
         fill="#FFFFFF"
         d="m 1002.913,492.667 c -2.564,0 -4.922,1.127 -6.667,2.771 -1.742,1.742 -2.767,4.103 -2.767,6.767 0,2.565 1.024,4.926 2.767,6.667 h 0.103 c 1.643,1.746 4,2.771 6.564,2.771 2.668,0 5.024,-1.024 6.771,-2.771 1.742,-1.741 2.767,-4.102 2.767,-6.667 0,-2.664 -1.127,-5.024 -2.767,-6.767 v 0 c -1.746,-1.644 -4.103,-2.771 -6.771,-2.771 z m -3.487,5.947 c 0.923,-0.82 2.155,-1.435 3.487,-1.435 1.435,0 2.668,0.614 3.488,1.435 h 0.102 c 0.82,0.926 1.435,2.155 1.435,3.59 0,1.335 -0.614,2.565 -1.435,3.487 -0.922,0.926 -2.155,1.438 -3.59,1.438 -1.332,0 -2.564,-0.513 -3.487,-1.438 -0.922,-0.922 -1.435,-2.152 -1.435,-3.487 0,-1.434 0.615,-2.664 1.435,-3.59 z"
         id="path13579" />
      <path
         inkscape:connector-curvature="0"
         fill="#FFFFFF"
         d="m 988.349,488.051 c -1.537,0 -2.975,0.616 -3.897,1.538 -1.024,1.027 -1.64,2.464 -1.64,3.898 0,1.537 0.615,2.975 1.64,3.999 v 0 c 1.024,0.923 2.36,1.541 3.897,1.541 1.541,0 2.873,-0.618 3.897,-1.541 1.024,-1.024 1.643,-2.462 1.643,-3.999 0,-1.435 -0.618,-2.871 -1.643,-3.898 v 0 c -1.024,-0.922 -2.356,-1.538 -3.897,-1.538 z m -2.049,3.489 c 0.512,-0.616 1.229,-0.924 2.049,-0.924 0.718,0 1.438,0.308 2.053,0.821 v 0 c 0.513,0.615 0.82,1.332 0.82,2.05 0,0.819 -0.308,1.537 -0.82,2.053 -0.512,0.512 -1.232,0.922 -2.053,0.922 -0.819,0 -1.537,-0.308 -2.049,-0.922 -0.513,-0.516 -0.824,-1.233 -0.824,-2.053 0,-0.717 0.311,-1.434 0.824,-1.947 z"
         id="path13581" />
    </g>
  </g>
</svg>
