<?xml version="1.0" encoding="UTF-8" standalone="no"?>
<svg
   xmlns:dc="http://purl.org/dc/elements/1.1/"
   xmlns:cc="http://creativecommons.org/ns#"
   xmlns:rdf="http://www.w3.org/1999/02/22-rdf-syntax-ns#"
   xmlns:svg="http://www.w3.org/2000/svg"
   xmlns="http://www.w3.org/2000/svg"
   xmlns:sodipodi="http://sodipodi.sourceforge.net/DTD/sodipodi-0.dtd"
   xmlns:inkscape="http://www.inkscape.org/namespaces/inkscape"
   inkscape:version="1.0beta1 (32d4812, 2019-09-19)"
   id="svg13135"
   version="1.1"
   viewBox="0 0 507.99998 285.75001"
   height="1080"
   width="1920">
  <defs
     id="defs13129" />
  <sodipodi:namedview
     inkscape:window-maximized="0"
     inkscape:window-y="134"
     inkscape:window-x="20"
     inkscape:window-height="907"
     inkscape:window-width="1600"
     width="1920px"
     units="px"
     showgrid="false"
     inkscape:document-rotation="0"
     inkscape:current-layer="layer1"
     inkscape:document-units="mm"
     inkscape:cy="560"
     inkscape:cx="704.28571"
     inkscape:zoom="0.35"
     inkscape:pageshadow="2"
     inkscape:pageopacity="0.0"
     borderopacity="1.0"
     bordercolor="#666666"
     pagecolor="#ffffff"
     id="base" />
  <metadata
     id="metadata13132">
    <rdf:RDF>
      <cc:Work
         rdf:about="">
        <dc:format>image/svg+xml</dc:format>
        <dc:type
           rdf:resource="http://purl.org/dc/dcmitype/StillImage" />
        <dc:title></dc:title>
      </cc:Work>
    </rdf:RDF>
  </metadata>
  <g
     id="layer1"
     inkscape:groupmode="layer"
     inkscape:label="Layer 1">
    <g
       transform="matrix(1.3229166,0,0,1.3229166,-654.5262,-123.87923)"
       id="g13317">
      <path
         inkscape:connector-curvature="0"
         fill-rule="evenodd"
         clip-rule="evenodd"
         fill="#1C1C1C"
         d="m 800.145,222 h -11.077 c -5.64,0 -10.151,4.616 -10.151,10.155 v 48.102 c 0,5.642 4.512,10.153 10.151,10.153 h 11.077 c 5.541,0 10.053,-4.512 10.053,-10.153 V 232.155 C 810.197,226.616 805.686,222 800.145,222 Z"
         id="path13237" />
      <path
         inkscape:connector-curvature="0"
         fill-rule="evenodd"
         clip-rule="evenodd"
         fill="#1C1C1C"
         d="M 584.557,222 H 573.48 c -5.539,0 -10.155,4.616 -10.155,10.155 v 48.102 c 0,5.642 4.616,10.153 10.155,10.153 h 11.077 c 5.537,0 10.153,-4.512 10.153,-10.153 V 232.155 C 594.71,226.616 590.094,222 584.557,222 Z"
         id="path13239" />
      <path
         inkscape:connector-curvature="0"
         fill-rule="evenodd"
         clip-rule="evenodd"
         fill="#1C1C1C"
         d="m 686.811,278.514 c 0,0 83.589,1.743 102.154,-5.744 18.667,-7.487 0.308,-21.845 0.308,-21.845 l -102.461,18.46 -102.458,-18.46 c 0,0 -18.36,14.357 0.205,21.845 18.664,7.487 102.252,5.744 102.252,5.744 z"
         id="path13241" />
      <path
         inkscape:connector-curvature="0"
         fill-rule="evenodd"
         clip-rule="evenodd"
         fill="#ED8322"
         d="m 770.4,157.284 c 0,0 2.771,-10.36 10.36,-10.36 7.589,0 17.126,0 17.126,0 0,0 4.106,0.821 2.36,7.487 -1.845,6.668 -20.307,0.821 -26.564,7.077 l -3.795,3.897 -1.229,-0.821 z"
         id="path13243" />
      <path
         inkscape:connector-curvature="0"
         fill-rule="evenodd"
         clip-rule="evenodd"
         fill="#ED8322"
         d="m 603.223,157.284 c 0,0 -2.769,-10.36 -10.358,-10.36 -7.692,0 -17.23,0 -17.23,0 0,0 -4,0.821 -2.256,7.487 1.744,6.668 20.204,0.821 26.462,7.077 l 3.897,3.897 1.127,-0.821 z"
         id="path13245" />
      <path
         inkscape:connector-curvature="0"
         fill-rule="evenodd"
         clip-rule="evenodd"
         fill="#ED8322"
         d="m 686.811,112.872 c 0,0 47.079,0.412 63.693,2.668 0,0 12.614,8.614 29.744,44.614 0,0 25.335,21.026 32.613,34.564 0,0 0,55.589 0,75.795 0,0 -1.946,8.513 -13.946,8.513 -12.102,0 -27.797,0 -27.797,0 0,0 -2.357,-6.052 -12.717,-6.052 -10.356,0 -71.59,0 -71.59,0 0,0 -61.229,0 -71.689,0 -10.36,0 -12.616,6.052 -12.616,6.052 0,0 -15.692,0 -27.796,0 -12.102,0 -14.05,-8.513 -14.05,-8.513 0,-20.206 0,-75.795 0,-75.795 7.282,-13.538 32.615,-34.564 32.615,-34.564 17.23,-36 29.744,-44.614 29.744,-44.614 16.716,-2.256 63.792,-2.668 63.792,-2.668 z"
         id="path13247" />
      <path
         inkscape:connector-curvature="0"
         fill-rule="evenodd"
         clip-rule="evenodd"
         fill="#DD7826"
         d="m 812.861,223.949 c 0,15.591 0,31.078 0,46.564 0,0 -1.946,8.513 -13.946,8.513 -12.102,0 -27.797,0 -27.797,0 0,0 -2.357,-6.052 -12.717,-6.052 -10.356,0 -71.59,0 -71.59,0 V 235.95 c 74.462,0 118.255,-10.053 126.05,-12.001 z"
         id="path13249" />
      <path
         inkscape:connector-curvature="0"
         fill-rule="evenodd"
         clip-rule="evenodd"
         fill="#F5B36C"
         d="m 700.351,113.079 c 3.077,0 6.462,0.103 10.052,0.205 v 159.69 h -10.052 z"
         id="path13251" />
      <path
         inkscape:connector-curvature="0"
         fill-rule="evenodd"
         clip-rule="evenodd"
         fill="#E37925"
         d="m 686.811,241.282 h 54.361 c 0,0 5.947,0.821 2.664,10.154 -3.278,9.334 -12.922,17.948 -12.922,17.948 h -44.103 z"
         id="path13253" />
      <rect
         x="700.35101"
         y="241.282"
         fill-rule="evenodd"
         clip-rule="evenodd"
         fill="#DA9E5F"
         width="10.052"
         height="28.103001"
         id="rect13255" />
      <path
         inkscape:connector-curvature="0"
         fill-rule="evenodd"
         clip-rule="evenodd"
         fill="#E37925"
         d="m 686.811,200.77 c 0,0 63.693,1.437 78.155,-7.28 l -11.077,14.357 11.795,14.668 c 0,0 -8.819,9.641 -78.873,7.999 z"
         id="path13257" />
      <path
         inkscape:connector-curvature="0"
         fill-rule="evenodd"
         clip-rule="evenodd"
         fill="#DA9E5F"
         d="m 700.351,200.872 c 3.077,0 6.462,-0.103 10.052,-0.205 v 29.949 c -3.181,0 -6.565,0.103 -10.052,0.103 z"
         id="path13259" />
      <path
         inkscape:connector-curvature="0"
         fill-rule="evenodd"
         clip-rule="evenodd"
         fill="#DD7826"
         d="m 686.811,112.872 c 0,0 -47.076,0.412 -63.792,2.668 0,0 -12.514,8.614 -29.744,44.614 0,0 -25.333,21.026 -32.615,34.564 0,0 0,55.589 0,75.795 0,0 1.949,8.513 14.05,8.513 12.104,0 27.796,0 27.796,0 0,0 2.256,-6.052 12.616,-6.052 10.46,0 71.689,0 71.689,0 z"
         id="path13261" />
      <path
         inkscape:connector-curvature="0"
         fill-rule="evenodd"
         clip-rule="evenodd"
         fill="#D37128"
         d="m 560.659,223.949 v 46.564 c 0,0 1.949,8.513 14.05,8.513 12.104,0 27.796,0 27.796,0 0,0 2.256,-6.052 12.616,-6.052 10.46,0 71.689,0 71.689,0 V 235.95 c -74.561,0 -118.356,-10.053 -126.151,-12.001 z"
         id="path13263" />
      <path
         inkscape:connector-curvature="0"
         fill-rule="evenodd"
         clip-rule="evenodd"
         fill="#F5B36C"
         d="m 673.274,113.079 c -3.078,0 -6.565,0.103 -10.153,0.205 v 159.69 h 10.153 z"
         id="path13265" />
      <path
         inkscape:connector-curvature="0"
         fill-rule="evenodd"
         clip-rule="evenodd"
         fill="#BD6528"
         d="m 686.811,269.385 v -28.103 h -54.356 c 0,0 -5.949,0.821 -2.668,10.154 3.18,9.334 12.924,17.948 12.924,17.948 h 44.1 z"
         id="path13267" />
      <rect
         x="663.12097"
         y="241.282"
         fill-rule="evenodd"
         clip-rule="evenodd"
         fill="#DA9E5F"
         width="10.153"
         height="28.103001"
         id="rect13269" />
      <path
         inkscape:connector-curvature="0"
         fill-rule="evenodd"
         clip-rule="evenodd"
         fill="#BD6528"
         d="M 686.811,230.514 V 200.77 c 0,0 -63.792,1.437 -78.255,-7.28 l 11.077,14.357 -11.794,14.668 c 0,0 8.922,9.64 78.972,7.999 z"
         id="path13271" />
      <path
         inkscape:connector-curvature="0"
         fill-rule="evenodd"
         clip-rule="evenodd"
         fill="#DA9E5F"
         d="m 673.274,200.872 c -3.078,0 -6.461,-0.103 -10.153,-0.205 v 29.949 c 3.178,0 6.563,0.103 10.153,0.103 z"
         id="path13273" />
      <path
         inkscape:connector-curvature="0"
         fill-rule="evenodd"
         clip-rule="evenodd"
         fill="#1C1C1C"
         d="m 746.094,121.181 c 0,0 14.975,13.231 24.925,38.154 -54.771,-1.847 -113.641,-1.847 -168.411,0 9.948,-24.923 24.923,-38.154 24.923,-38.154 38.154,-3.59 80.307,-3.59 118.563,0 z"
         id="path13275" />
      <path
         inkscape:connector-curvature="0"
         fill-rule="evenodd"
         clip-rule="evenodd"
         fill="#262728"
         d="m 746.094,121.181 c 0,0 14.975,13.231 24.925,38.154 -27.388,-0.924 -55.796,-1.334 -84.208,-1.334 v -39.487 c 20.104,0 40.207,0.821 59.283,2.667 z"
         id="path13277" />
      <path
         inkscape:connector-curvature="0"
         fill-rule="evenodd"
         clip-rule="evenodd"
         fill="#FFFFFF"
         d="m 746.094,121.181 c 0,0 2.771,2.462 6.771,7.283 l -13.028,30.05 c -5.434,-0.103 -10.872,-0.205 -16.307,-0.308 l 16.307,-37.537 c 2.155,0.102 4.204,0.308 6.257,0.512 z m -35.486,36.923 c -6.976,-0.103 -13.95,-0.103 -20.925,-0.103 L 706.71,118.82 c 6.975,0.207 13.844,0.515 20.613,0.925 z"
         id="path13279" />
      <path
         inkscape:connector-curvature="0"
         fill-rule="evenodd"
         clip-rule="evenodd"
         fill="#1C1C1C"
         d="m 686.811,248.77 h 55.079 c 0,0 -3.795,12.514 -14.258,18.564 H 686.811 V 248.77 h -55.076 c 0,0 3.795,12.514 14.257,18.564 H 686.81 V 248.77 Z"
         id="path13281" />
      <path
         inkscape:connector-curvature="0"
         fill-rule="evenodd"
         clip-rule="evenodd"
         fill="#1C1C1C"
         d="m 755.733,266.821 c 0,0 1.233,-20.82 43.182,-20.82 0.103,5.948 4.717,21.436 -43.182,20.82 z"
         id="path13283" />
      <path
         inkscape:connector-curvature="0"
         fill-rule="evenodd"
         clip-rule="evenodd"
         fill="#1C1C1C"
         d="m 741.377,223.026 c 17.946,-31.179 65.641,-42.153 60.616,-12.616 -1.746,9.95 -22.667,12.616 -60.616,12.616 z"
         id="path13285" />
      <path
         inkscape:connector-curvature="0"
         fill-rule="evenodd"
         clip-rule="evenodd"
         fill="#1C1C1C"
         d="m 686.811,206.513 h -46.767 c 0,0 -2.668,0.41 -2.154,5.026 l 10.871,15.487 h 38.05 38.05 l 10.873,-15.487 c 0.409,-4.616 -2.255,-5.026 -2.255,-5.026 z"
         id="path13287" />
      <path
         inkscape:connector-curvature="0"
         fill-rule="evenodd"
         clip-rule="evenodd"
         fill="#1C1C1C"
         d="m 617.89,266.821 c 0,0 -1.231,-20.82 -43.18,-20.82 -0.103,5.948 -4.82,21.436 43.18,20.82 z"
         id="path13289" />
      <path
         inkscape:connector-curvature="0"
         fill-rule="evenodd"
         clip-rule="evenodd"
         fill="#1C1C1C"
         d="M 632.248,223.026 C 614.3,191.847 566.607,180.873 571.634,210.41 c 1.641,9.95 22.667,12.616 60.614,12.616 z"
         id="path13291" />
      <path
         inkscape:connector-curvature="0"
         fill="#FFFFFF"
         d="m 585.889,247.949 c 1.744,0 3.385,0.718 4.514,1.847 1.127,1.231 1.846,2.769 1.846,4.512 0,1.847 -0.719,3.386 -1.846,4.616 -1.129,1.128 -2.77,1.847 -4.514,1.847 -1.744,0 -3.385,-0.719 -4.512,-1.847 l -0.103,-0.102 c -1.129,-1.231 -1.846,-2.771 -1.846,-4.515 0,-1.743 0.717,-3.28 1.949,-4.512 v 0 c 1.127,-1.128 2.769,-1.846 4.512,-1.846 z m 2.566,3.795 c -0.616,-0.717 -1.539,-1.129 -2.565,-1.129 -1.024,0 -1.948,0.412 -2.666,1.129 -0.615,0.615 -1.027,1.539 -1.027,2.563 0,1.026 0.308,1.949 1.027,2.565 v 0.103 c 0.717,0.615 1.641,1.127 2.666,1.127 1.027,0 1.949,-0.512 2.565,-1.127 0.717,-0.719 1.127,-1.642 1.127,-2.668 0,-1.024 -0.41,-1.948 -1.127,-2.563 z"
         id="path13293" />
      <path
         inkscape:connector-curvature="0"
         fill="#FFFFFF"
         d="m 600.454,252.052 c 1.744,0 3.385,0.718 4.512,1.847 1.231,1.231 1.949,2.768 1.949,4.512 0,1.847 -0.717,3.385 -1.949,4.616 -1.127,1.127 -2.666,1.847 -4.512,1.847 -1.744,0 -3.385,-0.72 -4.512,-1.847 l -0.103,-0.103 c -1.026,-1.129 -1.744,-2.77 -1.744,-4.514 0,-1.744 0.717,-3.28 1.846,-4.512 v 0 c 1.23,-1.128 2.769,-1.846 4.513,-1.846 z m 2.666,3.795 c -0.717,-0.717 -1.641,-1.127 -2.666,-1.127 -1.026,0 -1.949,0.41 -2.563,1.127 -0.719,0.615 -1.129,1.539 -1.129,2.563 0,1.026 0.41,1.948 1.025,2.565 l 0.104,0.103 c 0.615,0.614 1.537,1.127 2.563,1.127 1.025,0 1.949,-0.513 2.666,-1.127 0.617,-0.72 1.026,-1.642 1.026,-2.668 0,-1.024 -0.409,-1.948 -1.026,-2.563 z"
         id="path13295" />
      <path
         inkscape:connector-curvature="0"
         fill="#FFFFFF"
         d="m 787.838,247.949 c -1.745,0 -3.385,0.718 -4.513,1.847 -1.13,1.231 -1.848,2.769 -1.848,4.512 0,1.847 0.718,3.386 1.848,4.616 1.128,1.128 2.768,1.847 4.513,1.847 1.742,0 3.385,-0.719 4.512,-1.847 l 0.103,-0.102 c 1.128,-1.231 1.746,-2.771 1.746,-4.515 0,-1.743 -0.721,-3.28 -1.849,-4.512 v 0 c -1.127,-1.128 -2.77,-1.846 -4.512,-1.846 z m -2.668,3.795 c 0.718,-0.717 1.644,-1.129 2.668,-1.129 1.024,0 1.947,0.412 2.668,1.129 0.614,0.615 1.024,1.539 1.024,2.563 0,1.026 -0.41,1.949 -1.024,2.565 v 0.103 c -0.721,0.615 -1.644,1.127 -2.668,1.127 -1.024,0 -1.95,-0.512 -2.668,-1.127 -0.614,-0.719 -1.024,-1.642 -1.024,-2.668 0,-1.024 0.41,-1.948 1.024,-2.563 z"
         id="path13297" />
      <path
         inkscape:connector-curvature="0"
         fill="#FFFFFF"
         d="m 773.171,252.052 c -1.742,0 -3.283,0.718 -4.513,1.847 -1.127,1.231 -1.848,2.768 -1.848,4.512 0,1.847 0.721,3.385 1.848,4.616 1.229,1.127 2.771,1.847 4.513,1.847 1.848,0 3.385,-0.72 4.614,-1.847 v -0.103 c 1.131,-1.129 1.848,-2.77 1.848,-4.514 0,-1.744 -0.717,-3.28 -1.848,-4.512 h -0.103 c -1.126,-1.128 -2.663,-1.846 -4.511,-1.846 z m -2.566,3.795 c 0.618,-0.717 1.54,-1.127 2.565,-1.127 1.024,0 1.95,0.41 2.668,1.127 0.717,0.615 1.127,1.539 1.127,2.563 0,1.026 -0.41,1.948 -1.025,2.565 l -0.102,0.103 c -0.718,0.614 -1.644,1.127 -2.668,1.127 -1.025,0 -1.947,-0.513 -2.565,-1.127 -0.718,-0.72 -1.127,-1.642 -1.127,-2.668 0.001,-1.024 0.41,-1.948 1.127,-2.563 z"
         id="path13299" />
      <path
         inkscape:connector-curvature="0"
         fill="#FFFFFF"
         d="m 589.274,195.129 c 3.283,0 6.256,1.333 8.41,3.487 2.155,2.153 3.487,5.129 3.487,8.411 0,3.28 -1.332,6.256 -3.487,8.409 -2.154,2.154 -5.127,3.487 -8.41,3.487 -3.283,0 -6.256,-1.333 -8.41,-3.487 l -0.103,-0.205 c -2.051,-2.153 -3.385,-5.026 -3.385,-8.204 0,-3.282 1.334,-6.258 3.487,-8.411 l 0.103,-0.103 c 2.155,-2.051 5.026,-3.384 8.308,-3.384 z m 4.822,6.975 c -1.231,-1.231 -2.873,-1.949 -4.821,-1.949 -1.846,0 -3.59,0.718 -4.82,1.949 -1.333,1.231 -2.053,2.975 -2.053,4.924 0,1.846 0.719,3.485 1.951,4.717 l 0.102,0.103 c 1.23,1.231 2.974,2.052 4.82,2.052 1.949,0 3.59,-0.82 4.821,-2.052 1.332,-1.231 2.051,-2.974 2.051,-4.819 0,-1.951 -0.719,-3.694 -2.051,-4.925 z"
         id="path13301" />
      <path
         inkscape:connector-curvature="0"
         fill="#FFFFFF"
         d="m 609.993,206.104 c 1.949,0 3.59,0.717 4.819,1.948 1.231,1.231 2.051,2.976 2.051,4.821 0,1.847 -0.82,3.59 -2.051,4.819 -1.229,1.231 -2.871,1.949 -4.819,1.949 -1.846,0 -3.59,-0.718 -4.719,-1.949 l -0.103,-0.102 c -1.229,-1.23 -1.949,-2.871 -1.949,-4.718 0,-1.846 0.821,-3.59 2.051,-4.821 v 0 c 1.232,-1.231 2.873,-1.947 4.72,-1.947 z m 2.871,4 c -0.718,-0.718 -1.742,-1.128 -2.871,-1.128 -1.026,0 -2.051,0.41 -2.769,1.128 -0.719,0.719 -1.129,1.641 -1.129,2.77 0,1.025 0.41,2.052 1.129,2.666 v 0.103 c 0.717,0.719 1.742,1.129 2.769,1.129 1.129,0 2.153,-0.41 2.871,-1.129 0.616,-0.717 1.129,-1.642 1.129,-2.769 0,-1.13 -0.513,-2.052 -1.129,-2.77 z"
         id="path13303" />
      <path
         inkscape:connector-curvature="0"
         fill="#FFFFFF"
         d="m 784.043,195.129 c -3.282,0 -6.258,1.333 -8.409,3.487 -2.156,2.153 -3.488,5.129 -3.488,8.411 0,3.28 1.332,6.256 3.488,8.409 2.151,2.154 5.127,3.487 8.409,3.487 3.282,0 6.254,-1.333 8.409,-3.487 l 0.103,-0.205 c 2.054,-2.153 3.386,-5.026 3.386,-8.204 0,-3.282 -1.332,-6.258 -3.488,-8.411 l -0.103,-0.103 c -2.152,-2.051 -5.127,-3.384 -8.307,-3.384 z m -4.922,6.975 c 1.229,-1.231 2.972,-1.949 4.922,-1.949 1.845,0 3.59,0.718 4.819,1.949 1.229,1.231 2.053,2.975 2.053,4.924 0,1.846 -0.717,3.485 -1.95,4.717 l -0.103,0.103 c -1.229,1.231 -2.975,2.052 -4.819,2.052 -1.95,0 -3.59,-0.82 -4.922,-2.052 -1.233,-1.231 -1.95,-2.974 -1.95,-4.819 0,-1.951 0.717,-3.694 1.95,-4.925 z"
         id="path13305" />
      <path
         inkscape:connector-curvature="0"
         fill="#FFFFFF"
         d="m 763.221,206.104 c -1.845,0 -3.484,0.717 -4.718,1.948 -1.229,1.231 -2.049,2.976 -2.049,4.821 0,1.847 0.819,3.59 2.049,4.819 1.233,1.231 2.873,1.949 4.718,1.949 1.95,0 3.59,-0.718 4.823,-1.949 l 0.103,-0.102 c 1.229,-1.23 1.946,-2.871 1.946,-4.718 0,-1.846 -0.819,-3.59 -2.049,-4.821 v 0 c -1.233,-1.231 -2.873,-1.947 -4.823,-1.947 z m -2.767,4 c 0.717,-0.718 1.742,-1.128 2.767,-1.128 1.131,0 2.155,0.41 2.872,1.128 0.718,0.719 1.131,1.641 1.131,2.77 0,1.025 -0.413,2.052 -1.131,2.666 v 0.103 c -0.717,0.719 -1.741,1.129 -2.872,1.129 -1.024,0 -2.05,-0.41 -2.767,-1.129 -0.718,-0.717 -1.131,-1.642 -1.131,-2.769 0,-1.13 0.413,-2.052 1.131,-2.77 z"
         id="path13307" />
      <path
         inkscape:connector-curvature="0"
         fill-rule="evenodd"
         clip-rule="evenodd"
         fill="#DD7826"
         d="m 709.067,158.001 c 0,0 9.131,5.846 16.102,17.436 l -9.434,-1.948 3.896,-3.487 c 10e-4,-0.001 -7.179,-8.616 -10.564,-12.001 z"
         id="path13309" />
      <path
         inkscape:connector-curvature="0"
         fill-rule="evenodd"
         clip-rule="evenodd"
         fill="#CC6D28"
         d="m 664.351,158.001 c 0,0 -9.128,5.846 -16.102,17.436 l 9.436,-1.948 -3.897,-3.487 c 0,-0.001 7.179,-8.616 10.563,-12.001 z"
         id="path13311" />
      <path
         inkscape:connector-curvature="0"
         fill-rule="evenodd"
         clip-rule="evenodd"
         fill="#1C1C1C"
         d="m 690.298,175.642 c 0,0 0,-4.819 2.975,-5.641 h 26.461 c 0,0 2.976,1.129 5.435,5.436 z"
         id="path13313" />
      <path
         inkscape:connector-curvature="0"
         fill-rule="evenodd"
         clip-rule="evenodd"
         fill="#1C1C1C"
         d="m 683.325,175.642 c 0,0 0,-4.819 -3.076,-5.641 h -26.462 c 0,0 -2.873,1.129 -5.334,5.436 z"
         id="path13315" />
    </g>
  </g>
</svg>
