<?xml version="1.0" encoding="UTF-8" standalone="no"?>
<svg
   xmlns:dc="http://purl.org/dc/elements/1.1/"
   xmlns:cc="http://creativecommons.org/ns#"
   xmlns:rdf="http://www.w3.org/1999/02/22-rdf-syntax-ns#"
   xmlns:svg="http://www.w3.org/2000/svg"
   xmlns="http://www.w3.org/2000/svg"
   xmlns:sodipodi="http://sodipodi.sourceforge.net/DTD/sodipodi-0.dtd"
   xmlns:inkscape="http://www.inkscape.org/namespaces/inkscape"
   inkscape:version="1.0beta1 (32d4812, 2019-09-19)"
   id="svg13135"
   version="1.1"
   viewBox="0 0 507.99998 285.75001"
   height="1080"
   width="1920">
  <defs
     id="defs13129" />
  <sodipodi:namedview
     inkscape:window-maximized="0"
     inkscape:window-y="134"
     inkscape:window-x="20"
     inkscape:window-height="907"
     inkscape:window-width="1600"
     width="1920px"
     units="px"
     showgrid="false"
     inkscape:document-rotation="0"
     inkscape:current-layer="layer1"
     inkscape:document-units="mm"
     inkscape:cy="560"
     inkscape:cx="704.28571"
     inkscape:zoom="0.35"
     inkscape:pageshadow="2"
     inkscape:pageopacity="0.0"
     borderopacity="1.0"
     bordercolor="#666666"
     pagecolor="#ffffff"
     id="base" />
  <metadata
     id="metadata13132">
    <rdf:RDF>
      <cc:Work
         rdf:about="">
        <dc:format>image/svg+xml</dc:format>
        <dc:type
           rdf:resource="http://purl.org/dc/dcmitype/StillImage" />
        <dc:title></dc:title>
      </cc:Work>
    </rdf:RDF>
  </metadata>
  <g
     id="layer1"
     inkscape:groupmode="layer"
     inkscape:label="Layer 1">
    <g
       transform="matrix(1.3229166,0,0,1.3229166,-118.44402,-137.76149)"
       id="g17728">
      <path
         inkscape:connector-curvature="0"
         id="path13187"
         d="m 408.558,259.539 c -1.026,7.18 -2.462,12.924 -4.719,15.692 -8.512,10.564 -95.28,15.384 -122.254,15.179 -27.078,0.205 -113.847,-4.614 -122.359,-15.179 -2.258,-2.769 -3.692,-8.513 -4.616,-15.692 z"
         fill="#1C1C1C"
         clip-rule="evenodd"
         fill-rule="evenodd" />
      <path
         inkscape:connector-curvature="0"
         id="path13189"
         d="m 370.404,175.847 c 0,0 2.871,-11.077 10.975,-11.077 8.102,0 18.153,0 18.153,0 0,0 4.41,0.924 2.461,8.001 -1.846,7.076 -21.436,0.82 -28.101,7.487 l -4.103,4.205 -1.231,-0.924 z"
         fill="#EE2A25"
         clip-rule="evenodd"
         fill-rule="evenodd" />
      <path
         inkscape:connector-curvature="0"
         id="path13191"
         d="m 192.763,175.847 c 0,0 -2.973,-11.077 -11.077,-11.077 -8,0 -18.153,0 -18.153,0 0,0 -4.308,0.924 -2.463,8.001 1.95,7.076 21.54,0.82 28.206,7.487 l 4,4.205 1.334,-0.924 z"
         fill="#EE2A25"
         clip-rule="evenodd"
         fill-rule="evenodd" />
      <path
         inkscape:connector-curvature="0"
         id="path13193"
         d="m 400.763,215.129 h -11.59 c -5.95,0 -10.667,4.82 -10.667,10.666 v 51.282 c 0,5.846 4.717,10.667 10.667,10.667 h 11.59 c 5.846,0 10.666,-4.821 10.666,-10.667 v -51.282 c 0,-5.846 -4.82,-10.666 -10.666,-10.666 z"
         fill="#1C1C1C"
         clip-rule="evenodd"
         fill-rule="evenodd" />
      <path
         inkscape:connector-curvature="0"
         id="path13195"
         d="m 173.994,215.129 h -11.692 c -5.846,0 -10.666,4.82 -10.666,10.666 v 51.282 c 0,5.846 4.819,10.667 10.666,10.667 h 11.692 c 5.846,0 10.667,-4.821 10.667,-10.667 v -51.282 c 0,-5.846 -4.821,-10.666 -10.667,-10.666 z"
         fill="#1C1C1C"
         clip-rule="evenodd"
         fill-rule="evenodd" />
      <path
         inkscape:connector-curvature="0"
         id="path13197"
         d="m 281.584,133.897 c 0,0 40.82,-0.819 52.819,4.617 12.102,5.333 31.076,33.332 31.076,33.332 h 6.051 l 10.462,10.463 c 0,0 11.282,0 15.18,0 3.795,0 12.717,3.178 12.717,14.255 0,11.18 2.36,63.077 -6.051,73.54 -8.512,10.563 -95.28,15.384 -122.254,15.179 -27.078,0.205 -113.847,-4.616 -122.359,-15.179 -8.411,-10.463 -5.95,-62.36 -5.95,-73.54 0,-11.077 8.821,-14.255 12.719,-14.255 3.795,0 15.18,0 15.18,0 l 10.46,-10.463 h 5.95 c 0,0 19.077,-27.999 31.077,-33.332 12.102,-5.436 52.923,-4.617 52.923,-4.617 z"
         fill="#EE2A25"
         clip-rule="evenodd"
         fill-rule="evenodd" />
      <path
         inkscape:connector-curvature="0"
         id="path13199"
         d="m 403.736,184.36 c 3.18,2.051 6.154,5.846 6.154,12.204 0,11.18 2.36,63.077 -6.051,73.54 -8.512,10.563 -95.28,15.384 -122.254,15.179 v -30.771 c 0,0 5.639,-10.973 11.897,-13.024 0,0 62.153,1.949 90.153,-9.641 22.46,-9.231 21.333,-36.923 20.101,-47.487 z"
         fill="#D72427"
         clip-rule="evenodd"
         fill-rule="evenodd" />
      <path
         inkscape:connector-curvature="0"
         id="path13201"
         d="m 281.584,133.897 c 0,0 -40.822,-0.819 -52.923,4.617 -12,5.333 -31.077,33.332 -31.077,33.332 h -5.95 l -10.46,10.463 c 0,0 -11.385,0 -15.18,0 -3.897,0 -12.719,3.178 -12.719,14.255 0,11.18 -2.461,63.077 5.95,73.54 8.512,10.563 95.281,15.384 122.359,15.179 z"
         fill="#D72427"
         clip-rule="evenodd"
         fill-rule="evenodd" />
      <path
         inkscape:connector-curvature="0"
         id="path13203"
         d="m 159.328,184.36 c -3.18,2.051 -6.053,5.846 -6.053,12.204 0,11.18 -2.461,63.077 5.95,73.54 8.512,10.563 95.281,15.384 122.359,15.179 v -30.771 c 0,0 -5.745,-10.973 -12.001,-13.024 0,0 -62.153,1.949 -90.051,-9.641 -22.462,-9.231 -21.435,-36.923 -20.204,-47.487 z"
         fill="#B42025"
         clip-rule="evenodd"
         fill-rule="evenodd" />
      <path
         inkscape:connector-curvature="0"
         id="path13205"
         d="m 281.584,133.897 c 0,0 40.82,-0.819 52.819,4.617 12.102,5.333 31.076,33.332 31.076,33.332 h 6.051 l 0.719,0.719 -3.692,10.974 -38.563,3.487 -48.41,-1.127 -48.514,1.127 -38.461,-3.487 -3.692,-10.974 0.717,-0.719 h 5.95 c 0,0 19.077,-27.999 31.077,-33.332 12.102,-5.436 52.923,-4.617 52.923,-4.617 z"
         fill="#434748"
         clip-rule="evenodd"
         fill-rule="evenodd" />
      <path
         inkscape:connector-curvature="0"
         id="path13207"
         d="m 365.48,171.847 h 6.051 l 10.462,10.463 c 0,0 -33.949,22.564 -57.333,45.127 h -21.333 c 0,0 10.768,-25.436 18.77,-36.923 0,0 -21.333,-3.487 -40.512,-2.256 v -11.487 l 59.28,-1.846 22.462,0.717 z"
         fill="#D02327"
         clip-rule="evenodd"
         fill-rule="evenodd" />
      <path
         inkscape:connector-curvature="0"
         id="path13209"
         d="m 393.481,188.258 c 0,0 -14.975,24.204 -29.847,31.896 14.667,14.77 36.512,-1.025 29.847,-31.896 z"
         fill="#1C1C1C"
         clip-rule="evenodd"
         fill-rule="evenodd" />
      <path
         inkscape:connector-curvature="0"
         id="path13211"
         d="m 281.584,261.283 c 0,0 4.512,-9.231 9.846,-13.846 0,0 48.717,1.127 74.667,-3.795 0,0 6.666,6.358 6.153,21.23 0,0 0.103,4.819 -8.718,6.563 -8.82,1.641 -81.947,4.616 -81.947,3.077 0,1.539 -73.129,-1.437 -82.051,-3.077 -8.821,-1.744 -8.719,-6.563 -8.719,-6.563 -0.512,-14.872 6.153,-21.23 6.153,-21.23 25.95,4.922 74.667,3.795 74.667,3.795 5.435,4.615 9.949,13.846 9.949,13.846 z"
         fill="#1C1C1C"
         clip-rule="evenodd"
         fill-rule="evenodd" />
      <path
         inkscape:connector-curvature="0"
         id="path13213"
         d="m 281.584,218.822 h 14.666 c 0,0 0,-5.334 -3.897,-5.334 h -10.768 -10.872 c -3.795,0 -3.897,5.334 -3.897,5.334 z"
         fill="#1C1C1C"
         clip-rule="evenodd"
         fill-rule="evenodd" />
      <path
         inkscape:connector-curvature="0"
         id="path13215"
         d="m 197.584,171.847 h -5.95 l -10.46,10.463 c 0,0 33.949,22.564 57.23,45.127 h 21.333 c 0,0 -10.77,-25.436 -18.77,-36.923 0,0 21.333,-3.487 40.617,-2.256 v -11.487 l -59.284,-1.846 -22.46,0.717 z"
         fill="#B42025"
         clip-rule="evenodd"
         fill-rule="evenodd" />
      <path
         inkscape:connector-curvature="0"
         id="path13217"
         d="m 199.841,175.642 c 0.512,-0.308 1.024,-0.717 1.436,-1.332 5.537,-8.206 20.409,-27.898 29.23,-31.796 12.923,-5.846 89.127,-5.846 102.153,0 8.719,3.897 23.589,23.59 29.23,31.796 0.309,0.615 0.822,1.024 1.437,1.332 -3.898,11.589 -159.691,11.589 -163.486,0 z"
         fill="#232424"
         clip-rule="evenodd"
         fill-rule="evenodd" />
      <path
         inkscape:connector-curvature="0"
         id="path13219"
         d="m 303.942,138.617 c 8.411,0.409 16.001,1.129 21.435,2.051 l -18.872,43.28 c -7.281,0.207 -14.768,0.412 -22.46,0.412 z m 33.128,6.768 c 3.795,2.976 8.104,7.487 12.104,12.309 l -10.565,24.309 c -5.436,0.512 -11.487,1.024 -18.05,1.332 z"
         fill="#FFFFFF"
         clip-rule="evenodd"
         fill-rule="evenodd" />
      <path
         inkscape:connector-curvature="0"
         id="path13221"
         d="m 199.841,175.642 c 0.512,-0.308 1.024,-0.717 1.436,-1.332 5.537,-8.206 20.409,-27.898 29.23,-31.796 6.461,-2.872 28.718,-4.409 51.077,-4.409 v 46.256 c -39.897,-10e-4 -79.897,-2.874 -81.743,-8.719 z"
         fill="#1C1C1C"
         clip-rule="evenodd"
         fill-rule="evenodd" />
      <path
         inkscape:connector-curvature="0"
         id="path13223"
         d="m 169.687,188.258 c 0,0 14.872,24.204 29.744,31.896 -14.565,14.77 -36.513,-1.025 -29.744,-31.896 z"
         fill="#1C1C1C"
         clip-rule="evenodd"
         fill-rule="evenodd" />
      <path
         inkscape:connector-curvature="0"
         id="path13225"
         d="m 175.533,196.872 c 1.129,1.437 2.256,2.976 3.59,4.616 -1.334,1.435 -2.154,3.386 -2.154,5.435 0,2.258 0.922,4.207 2.359,5.643 1.436,1.435 3.487,2.359 5.641,2.359 1.847,0 3.59,-0.617 4.924,-1.744 1.537,1.435 3.076,2.666 4.615,3.795 -2.563,2.358 -5.846,3.795 -9.539,3.795 -3.794,0 -7.282,-1.539 -9.743,-4.103 h -0.103 c -2.461,-2.565 -4,-5.95 -4,-9.745 0,-3.795 1.539,-7.28 4.103,-9.741 z"
         fill="#FFFFFF"
         clip-rule="evenodd"
         fill-rule="evenodd" />
      <path
         inkscape:connector-curvature="0"
         id="path13227"
         d="m 387.225,197.182 c -1.129,1.435 -2.258,3.075 -3.59,4.614 1.332,1.437 2.154,3.385 2.154,5.539 0,2.153 -0.924,4.204 -2.358,5.641 -1.437,1.435 -3.488,2.358 -5.642,2.358 -1.846,0 -3.59,-0.719 -4.923,-1.743 -1.539,1.334 -3.076,2.563 -4.615,3.692 2.563,2.358 5.846,3.795 9.538,3.795 3.795,0 7.283,-1.539 9.744,-4 l 0.103,-0.103 c 2.461,-2.463 4,-5.948 4,-9.641 0,-3.897 -1.539,-7.282 -4.102,-9.846 z"
         fill="#FFFFFF"
         clip-rule="evenodd"
         fill-rule="evenodd" />
      <path
         inkscape:connector-curvature="0"
         id="path13229"
         d="m 389.481,185.078 c 0,0 -25.54,34.256 -54.051,50.667 0,0 25.538,-6.975 58.153,-50.565 0,0 -3.18,-0.204 -4.102,-0.102 z"
         fill="#F0514C"
         clip-rule="evenodd"
         fill-rule="evenodd" />
      <path
         inkscape:connector-curvature="0"
         id="path13231"
         d="m 318.712,191.95 c 0,0 -14.153,24.82 -22.359,44.717 0,0 4.616,-19.179 17.538,-45.231 z"
         fill="#F0514C"
         clip-rule="evenodd"
         fill-rule="evenodd" />
      <path
         inkscape:connector-curvature="0"
         id="path13233"
         d="m 174.405,185.078 c 0,0 25.436,34.256 53.948,50.667 0,0 -25.54,-6.975 -58.052,-50.565 0,0 3.18,-0.204 4.104,-0.102 z"
         fill="#D9382E"
         clip-rule="evenodd"
         fill-rule="evenodd" />
      <path
         inkscape:connector-curvature="0"
         id="path13235"
         d="m 245.173,191.95 c 0,0 14.155,24.82 22.359,44.717 0,0 -4.615,-19.179 -17.641,-45.231 z"
         fill="#D9382E"
         clip-rule="evenodd"
         fill-rule="evenodd" />
    </g>
  </g>
</svg>
