<?xml version="1.0" encoding="UTF-8" standalone="no"?>
<svg
   xmlns:dc="http://purl.org/dc/elements/1.1/"
   xmlns:cc="http://creativecommons.org/ns#"
   xmlns:rdf="http://www.w3.org/1999/02/22-rdf-syntax-ns#"
   xmlns:svg="http://www.w3.org/2000/svg"
   xmlns="http://www.w3.org/2000/svg"
   xmlns:sodipodi="http://sodipodi.sourceforge.net/DTD/sodipodi-0.dtd"
   xmlns:inkscape="http://www.inkscape.org/namespaces/inkscape"
   inkscape:version="1.0beta1 (32d4812, 2019-09-19)"
   id="svg13135"
   version="1.1"
   viewBox="0 0 507.99998 285.75001"
   height="1080"
   width="1920">
  <defs
     id="defs13129" />
  <sodipodi:namedview
     inkscape:window-maximized="0"
     inkscape:window-y="82"
     inkscape:window-x="27"
     inkscape:window-height="907"
     inkscape:window-width="1600"
     width="1920px"
     units="px"
     showgrid="false"
     inkscape:document-rotation="0"
     inkscape:current-layer="layer1"
     inkscape:document-units="mm"
     inkscape:cy="560"
     inkscape:cx="704.28571"
     inkscape:zoom="0.35"
     inkscape:pageshadow="2"
     inkscape:pageopacity="0.0"
     borderopacity="1.0"
     bordercolor="#666666"
     pagecolor="#ffffff"
     id="base" />
  <metadata
     id="metadata13132">
    <rdf:RDF>
      <cc:Work
         rdf:about="">
        <dc:format>image/svg+xml</dc:format>
        <dc:type
           rdf:resource="http://purl.org/dc/dcmitype/StillImage" />
        <dc:title></dc:title>
      </cc:Work>
    </rdf:RDF>
  </metadata>
  <g
     id="layer1"
     inkscape:groupmode="layer"
     inkscape:label="Layer 1">
    <g
       transform="matrix(1.3229166,0,0,1.3229166,-657.73692,-106.01955)"
       id="g14295">
      <path
         inkscape:connector-curvature="0"
         fill-rule="evenodd"
         clip-rule="evenodd"
         fill="#EB1A23"
         d="m 754.228,162.132 c -59.812,-41.896 -161.065,-36 -208.12,-3.203 -37.105,0 -38.211,-1.021 -38.211,25.03 0,24.406 18.595,40.025 60.52,40.025 90.34,0 180.681,0 271.021,0 14.514,0 31.04,-2.863 31.04,-7.682 0,-4.224 0,-8.447 0,-12.643 -10e-4,-25.398 -8.505,-32.74 -116.25,-41.527 z"
         id="path14203" />
      <path
         inkscape:connector-curvature="0"
         fill-rule="evenodd"
         clip-rule="evenodd"
         fill="#CA1D25"
         d="m 508.066,174.292 c 33.902,10.205 257.018,8.589 282.388,9.382 19.899,0.652 55.105,2.126 79.427,11.254 0.453,2.636 0.596,5.527 0.596,8.73 0,4.195 0,8.419 0,12.643 0,4.819 -16.526,7.682 -31.04,7.682 -90.34,0 -180.681,0 -271.021,0 -41.925,0 -60.52,-15.619 -60.52,-40.025 0,-3.77 0.029,-6.944 0.17,-9.666 z"
         id="path14205" />
      <path
         inkscape:connector-curvature="0"
         fill-rule="evenodd"
         clip-rule="evenodd"
         fill="#F28C1F"
         d="m 862.964,191.329 c -3.685,-7.852 -16.78,-11.225 -24.35,-13.011 -14.626,-3.912 31.352,27.977 24.35,13.011 z"
         id="path14207" />
      <path
         inkscape:connector-curvature="0"
         fill-rule="evenodd"
         clip-rule="evenodd"
         fill="#92181B"
         d="m 574.426,184.497 c 17.943,0 32.456,14.542 32.456,32.457 v 7.03 h -38.466 c -10.177,0 -18.964,-0.907 -26.447,-2.664 v -4.366 c 0,-17.915 14.542,-32.457 32.457,-32.457 z"
         id="path14209" />
      <path
         inkscape:connector-curvature="0"
         fill-rule="evenodd"
         clip-rule="evenodd"
         fill="#221F20"
         d="m 574.426,190.167 c 14.797,0 26.787,11.99 26.787,26.787 0,14.797 -11.99,26.816 -26.787,26.816 -14.797,0 -26.788,-12.019 -26.788,-26.816 0,-14.797 11.991,-26.787 26.788,-26.787 z"
         id="path14211" />
      <path
         inkscape:connector-curvature="0"
         fill-rule="evenodd"
         clip-rule="evenodd"
         fill="#FFFFFF"
         d="m 574.426,198.67 c 10.091,0 18.283,8.192 18.283,18.283 0,10.12 -8.192,18.312 -18.283,18.312 -10.092,0 -18.284,-8.192 -18.284,-18.312 0,-10.091 8.192,-18.283 18.284,-18.283 z m 0,1.984 c 9.014,0 16.299,7.313 16.299,16.299 0,9.014 -7.285,16.299 -16.299,16.299 -9.015,0 -16.3,-7.285 -16.3,-16.299 0,-8.985 7.285,-16.299 16.3,-16.299 z"
         id="path14213" />
      <path
         inkscape:connector-curvature="0"
         fill-rule="evenodd"
         clip-rule="evenodd"
         fill="#92181B"
         d="m 749.238,167.574 c 1.134,8.107 2.013,16.526 1.984,24.747 -0.028,4.989 -0.369,10.488 -1.814,15.279 -1.758,5.953 -5.046,10.261 -11.367,11.423 -1.275,0.227 -2.551,0.34 -3.826,0.369 -24.804,0.68 -104.344,1.474 -121.012,-15.392 -13.181,-13.323 -27.127,-25.852 -40.45,-38.977 -0.566,-0.567 -0.566,-1.474 -0.028,-2.013 0.567,-0.567 1.445,-0.567 2.013,-0.028 13.352,13.153 27.298,25.682 40.479,39.005 10.46,10.602 52.725,13.209 67.267,13.946 19.105,0.992 32.514,1.134 51.647,0.624 0.651,0 1.304,-0.057 1.956,-0.113 0.481,-0.057 0.963,-0.113 1.445,-0.198 5.244,-0.964 7.71,-4.536 9.185,-9.439 1.332,-4.535 1.644,-9.808 1.672,-14.513 0.028,-8.05 -0.851,-16.328 -1.956,-24.321 -0.113,-0.794 0.426,-1.502 1.191,-1.616 0.792,-0.115 1.501,0.452 1.614,1.217 z"
         id="path14215" />
      <path
         inkscape:connector-curvature="0"
         fill-rule="evenodd"
         clip-rule="evenodd"
         fill="#F28C1F"
         d="m 508.548,169.559 c 6.889,0 16.895,0.708 16.895,5.584 0,4.025 -9.212,12.671 -17.036,15.534 -0.34,-2.154 -0.51,-4.394 -0.51,-6.718 -10e-4,-6.209 0.056,-10.886 0.651,-14.4 z"
         id="path14217" />
      <path
         inkscape:connector-curvature="0"
         fill-rule="evenodd"
         clip-rule="evenodd"
         fill="#92181B"
         d="m 803.267,184.497 c 17.915,0 32.457,14.542 32.457,32.457 v 7.03 h -64.942 v -7.03 c -0.001,-17.915 14.541,-32.457 32.485,-32.457 z"
         id="path14219" />
      <path
         inkscape:connector-curvature="0"
         fill-rule="evenodd"
         clip-rule="evenodd"
         fill="#221F20"
         d="m 803.267,190.167 c 14.797,0 26.787,11.99 26.787,26.787 0,14.797 -11.99,26.816 -26.787,26.816 -14.797,0 -26.815,-12.019 -26.815,-26.816 0,-14.797 12.018,-26.787 26.815,-26.787 z"
         id="path14221" />
      <path
         inkscape:connector-curvature="0"
         fill-rule="evenodd"
         clip-rule="evenodd"
         fill="#FFFFFF"
         d="m 803.267,198.67 c 10.092,0 18.283,8.192 18.283,18.283 0,10.12 -8.191,18.312 -18.283,18.312 -10.12,0 -18.312,-8.192 -18.312,-18.312 0,-10.091 8.191,-18.283 18.312,-18.283 z"
         id="path14223" />
      <path
         inkscape:connector-curvature="0"
         fill-rule="evenodd"
         clip-rule="evenodd"
         fill="#92181B"
         d="m 858.4,204.481 h 12.076 v 11.14 H 858.4 c -3.062,0 -5.584,-2.495 -5.584,-5.556 v 0 c 0,-3.089 2.523,-5.584 5.584,-5.584 z"
         id="path14225" />
      <path
         inkscape:connector-curvature="0"
         fill-rule="evenodd"
         clip-rule="evenodd"
         fill="#92181B"
         d="m 670.917,164.938 9.411,51.874 c 0.142,0.765 -0.369,1.502 -1.134,1.644 -0.766,0.142 -1.503,-0.369 -1.645,-1.134 l -9.411,-51.874 c -0.142,-0.766 0.369,-1.531 1.134,-1.644 0.766,-0.141 1.503,0.369 1.645,1.134 z"
         id="path14227" />
      <path
         inkscape:connector-curvature="0"
         fill-rule="evenodd"
         clip-rule="evenodd"
         fill="#0C1217"
         d="m 747.056,164.145 c -22.791,-14.712 -50.599,-22.281 -77.329,-24.889 -22.252,-2.154 -45.439,-1.077 -67.352,3.402 -12.926,2.636 -26.532,6.718 -38.835,12.699 l 9.213,9.638 167.159,2.551 c 7.342,0.113 13.493,0.68 7.144,-3.401 z"
         id="path14229" />
      <path
         inkscape:connector-curvature="0"
         fill-rule="evenodd"
         clip-rule="evenodd"
         fill="#122836"
         d="m 568.303,156.235 5.669,5.953 165.997,2.523 c 0.936,0.028 1.843,0.057 2.778,0.085 -21.855,-13.323 -48.02,-20.268 -73.305,-22.706 -22.024,-2.154 -44.787,-1.105 -66.5,3.345 -11.763,2.382 -23.641,5.868 -34.639,10.8 z"
         id="path14231" />
      <path
         inkscape:connector-curvature="0"
         fill-rule="evenodd"
         clip-rule="evenodd"
         fill="#92181B"
         d="m 683.446,173.754 h 3.231 c 1.7,0 3.09,1.389 3.09,3.09 v 0 c 0,1.701 -1.39,3.089 -3.09,3.089 h -3.231 c -1.701,0 -3.09,-1.389 -3.09,-3.089 v 0 c 0,-1.701 1.389,-3.09 3.09,-3.09 z"
         id="path14233" />
      <path
         inkscape:connector-curvature="0"
         fill-rule="evenodd"
         clip-rule="evenodd"
         fill="#92181B"
         d="m 600.589,173.754 h 3.203 c 1.701,0 3.09,1.389 3.09,3.09 v 0 c 0,1.701 -1.389,3.089 -3.09,3.089 h -3.203 c -1.7,0 -3.09,-1.389 -3.09,-3.089 v 0 c 0,-1.701 1.39,-3.09 3.09,-3.09 z"
         id="path14235" />
      <polygon
         fill-rule="evenodd"
         clip-rule="evenodd"
         fill="#EE5C63"
         points="737.305,211.284 739.005,214.743 627.093,212.645 637.383,204 "
         id="polygon14237" />
      <path
         inkscape:connector-curvature="0"
         fill-rule="evenodd"
         clip-rule="evenodd"
         fill="#E74850"
         d="m 632.11,212.758 c -1.332,-0.34 -2.607,-0.708 -3.854,-1.077 l 2.749,-2.296 c 5.868,1.559 12.586,2.778 19.304,3.713 z"
         id="path14239" />
      <polygon
         fill-rule="evenodd"
         clip-rule="evenodd"
         fill="#E74850"
         points="675.65,206.806 678.57,207.004 679.761,213.637 676.869,213.581 "
         id="polygon14241" />
      <polygon
         fill-rule="evenodd"
         clip-rule="evenodd"
         fill="#F0A0A6"
         points="791.588,184.128 559.686,173.697 570.769,177.722 "
         id="polygon14243" />
      <path
         inkscape:connector-curvature="0"
         fill-rule="evenodd"
         clip-rule="evenodd"
         fill="#E17A7E"
         d="m 750.854,182.286 0.029,0.652 -2.835,-0.085 -0.057,-0.68 z m -164.438,-4.11 c -1.19,-1.134 -2.409,-2.296 -3.628,-3.458 l 4.309,0.198 c 1.19,1.134 2.381,2.268 3.571,3.401 z"
         id="path14245" />
      <path
         inkscape:connector-curvature="0"
         fill-rule="evenodd"
         clip-rule="evenodd"
         fill="#E17A7E"
         d="m 606.712,175.795 c 0.113,0.34 0.17,0.68 0.17,1.049 v 0 c 0,0.737 -0.227,1.389 -0.651,1.899 l -8.249,-0.227 c -0.312,-0.482 -0.482,-1.049 -0.482,-1.672 v 0 c 0,-0.511 0.114,-0.992 0.341,-1.446 z"
         id="path14247" />
      <path
         inkscape:connector-curvature="0"
         fill-rule="evenodd"
         clip-rule="evenodd"
         fill="#221F20"
         d="m 574.426,200.654 c 9.014,0 16.299,7.313 16.299,16.299 0,9.014 -7.285,16.299 -16.299,16.299 -9.015,0 -16.3,-7.285 -16.3,-16.299 0,-8.985 7.285,-16.299 16.3,-16.299 z"
         id="path14249" />
      <polygon
         fill-rule="evenodd"
         clip-rule="evenodd"
         fill="#E17A7E"
         points="670.52,178.686 673.439,178.799 673.78,180.727 670.889,180.642 "
         id="polygon14251" />
      <path
         inkscape:connector-curvature="0"
         fill-rule="evenodd"
         clip-rule="evenodd"
         fill="#FFFFFF"
         d="m 571.223,216.954 h 3.203 3.203 l -1.021,-18.142 c -0.709,-0.085 -1.446,-0.142 -2.183,-0.142 -0.737,0 -1.475,0.057 -2.183,0.142 z"
         id="path14253" />
      <path
         inkscape:connector-curvature="0"
         fill-rule="evenodd"
         clip-rule="evenodd"
         fill="#FFFFFF"
         d="m 572.158,214.686 2.268,2.268 2.268,2.268 12.132,-13.55 c -0.907,-1.162 -1.956,-2.183 -3.09,-3.09 z"
         id="path14255" />
      <path
         inkscape:connector-curvature="0"
         fill-rule="evenodd"
         clip-rule="evenodd"
         fill="#FFFFFF"
         d="m 574.426,213.75 v 3.203 3.203 l 18.17,-1.021 c 0.085,-0.708 0.113,-1.445 0.113,-2.183 0,-0.737 -0.028,-1.474 -0.113,-2.183 z"
         id="path14257" />
      <path
         inkscape:connector-curvature="0"
         fill-rule="evenodd"
         clip-rule="evenodd"
         fill="#FFFFFF"
         d="m 576.693,214.686 -2.268,2.268 -2.268,2.268 13.577,12.132 c 1.134,-0.907 2.183,-1.956 3.09,-3.089 z"
         id="path14259" />
      <path
         inkscape:connector-curvature="0"
         fill-rule="evenodd"
         clip-rule="evenodd"
         fill="#FFFFFF"
         d="m 577.629,216.954 h -3.203 -3.203 l 1.021,18.17 c 0.708,0.085 1.445,0.142 2.183,0.142 0.736,0 1.474,-0.057 2.183,-0.142 z"
         id="path14261" />
      <path
         inkscape:connector-curvature="0"
         fill-rule="evenodd"
         clip-rule="evenodd"
         fill="#FFFFFF"
         d="m 576.693,219.222 -2.268,-2.268 -2.268,-2.268 -12.104,13.578 c 0.879,1.134 1.928,2.183 3.09,3.089 z"
         id="path14263" />
      <path
         inkscape:connector-curvature="0"
         fill-rule="evenodd"
         clip-rule="evenodd"
         fill="#FFFFFF"
         d="m 574.426,220.157 v -3.203 -3.203 l -18.17,1.021 c -0.086,0.708 -0.114,1.446 -0.114,2.183 0,0.737 0.028,1.474 0.114,2.183 z"
         id="path14265" />
      <path
         inkscape:connector-curvature="0"
         fill-rule="evenodd"
         clip-rule="evenodd"
         fill="#FFFFFF"
         d="m 572.158,219.222 2.268,-2.268 2.268,-2.268 -13.55,-12.104 c -1.162,0.907 -2.211,1.928 -3.09,3.09 z"
         id="path14267" />
      <path
         inkscape:connector-curvature="0"
         fill-rule="evenodd"
         clip-rule="evenodd"
         fill="#221F20"
         d="m 574.426,213.75 c 1.757,0 3.203,1.446 3.203,3.203 0,1.786 -1.446,3.203 -3.203,3.203 -1.758,0 -3.203,-1.417 -3.203,-3.203 0,-1.757 1.445,-3.203 3.203,-3.203 z"
         id="path14269" />
      <path
         inkscape:connector-curvature="0"
         fill-rule="evenodd"
         clip-rule="evenodd"
         fill="#221F20"
         d="m 803.267,200.654 c 8.985,0 16.299,7.313 16.299,16.299 0,9.014 -7.313,16.299 -16.299,16.299 -9.015,0 -16.327,-7.285 -16.327,-16.299 -0.001,-8.985 7.312,-16.299 16.327,-16.299 z"
         id="path14271" />
      <path
         inkscape:connector-curvature="0"
         fill-rule="evenodd"
         clip-rule="evenodd"
         fill="#FFFFFF"
         d="m 800.063,216.954 h 3.203 3.203 l -1.021,-18.142 c -0.709,-0.085 -1.445,-0.142 -2.183,-0.142 -0.738,0 -1.474,0.057 -2.211,0.142 z"
         id="path14273" />
      <path
         inkscape:connector-curvature="0"
         fill-rule="evenodd"
         clip-rule="evenodd"
         fill="#FFFFFF"
         d="m 800.999,214.686 2.268,2.268 2.268,2.268 12.104,-13.55 c -0.907,-1.162 -1.928,-2.183 -3.09,-3.09 z"
         id="path14275" />
      <path
         inkscape:connector-curvature="0"
         fill-rule="evenodd"
         clip-rule="evenodd"
         fill="#FFFFFF"
         d="m 803.267,213.75 v 3.203 3.203 l 18.142,-1.021 c 0.085,-0.708 0.142,-1.445 0.142,-2.183 0,-0.737 -0.057,-1.474 -0.142,-2.183 z"
         id="path14277" />
      <path
         inkscape:connector-curvature="0"
         fill-rule="evenodd"
         clip-rule="evenodd"
         fill="#FFFFFF"
         d="m 805.534,214.686 -2.268,2.268 -2.268,2.268 13.55,12.132 c 1.162,-0.907 2.183,-1.956 3.09,-3.089 z"
         id="path14279" />
      <path
         inkscape:connector-curvature="0"
         fill-rule="evenodd"
         clip-rule="evenodd"
         fill="#FFFFFF"
         d="m 806.47,216.954 h -3.203 -3.203 l 0.992,18.17 c 0.737,0.085 1.474,0.142 2.211,0.142 0.737,0 1.474,-0.057 2.183,-0.142 z"
         id="path14281" />
      <path
         inkscape:connector-curvature="0"
         fill-rule="evenodd"
         clip-rule="evenodd"
         fill="#FFFFFF"
         d="m 805.534,219.222 -2.268,-2.268 -2.268,-2.268 -12.133,13.578 c 0.907,1.134 1.956,2.183 3.09,3.089 z"
         id="path14283" />
      <path
         inkscape:connector-curvature="0"
         fill-rule="evenodd"
         clip-rule="evenodd"
         fill="#FFFFFF"
         d="m 803.267,220.157 v -3.203 -3.203 l -18.17,1.021 c -0.085,0.708 -0.142,1.446 -0.142,2.183 0,0.737 0.057,1.474 0.142,2.183 z"
         id="path14285" />
      <path
         inkscape:connector-curvature="0"
         fill-rule="evenodd"
         clip-rule="evenodd"
         fill="#FFFFFF"
         d="m 800.999,219.222 2.268,-2.268 2.268,-2.268 -13.578,-12.104 c -1.134,0.907 -2.183,1.928 -3.09,3.09 z"
         id="path14287" />
      <path
         inkscape:connector-curvature="0"
         fill-rule="evenodd"
         clip-rule="evenodd"
         fill="#221F20"
         d="m 803.267,213.75 c 1.758,0 3.203,1.446 3.203,3.203 0,1.786 -1.445,3.203 -3.203,3.203 -1.786,0 -3.203,-1.417 -3.203,-3.203 -10e-4,-1.757 1.416,-3.203 3.203,-3.203 z"
         id="path14289" />
      <path
         inkscape:connector-curvature="0"
         fill-rule="evenodd"
         clip-rule="evenodd"
         fill="#D97924"
         d="m 847.997,189.004 c 5.357,1.021 10.602,2.268 15.506,3.771 1.559,5.413 -7.37,1.416 -15.506,-3.771 z"
         id="path14291" />
      <path
         inkscape:connector-curvature="0"
         fill-rule="evenodd"
         clip-rule="evenodd"
         fill="#D97924"
         d="m 508.066,174.292 c 3.628,1.105 9.383,2.041 16.838,2.891 -2.126,4.394 -9.836,11.055 -16.498,13.493 l -0.028,-0.227 c -0.057,-0.283 -0.085,-0.567 -0.113,-0.85 l -0.028,-0.199 c -0.028,-0.283 -0.085,-0.595 -0.113,-0.878 v -0.199 c -0.057,-0.312 -0.057,-0.624 -0.085,-0.936 l -0.028,-0.113 c -0.028,-0.34 -0.028,-0.68 -0.057,-1.049 v 0 0 -0.028 c -0.028,-0.369 -0.028,-0.737 -0.028,-1.105 v 0 c -0.028,-0.397 -0.028,-0.765 -0.028,-1.134 v -0.17 -0.114 -0.057 -0.198 -0.057 -0.113 -0.17 0 -0.17 -0.113 -0.057 -0.17 -0.057 -0.113 -0.142 -0.028 -0.17 -0.085 -0.085 -0.142 -0.057 -0.114 -0.142 -0.028 -0.17 -0.085 -0.057 -0.17 -0.028 -0.142 -0.142 -0.029 l 0.028,-0.142 v -0.085 -0.085 -0.142 -0.028 -0.142 -0.312 0 -0.085 -0.057 -0.17 -0.028 -0.113 -0.113 -0.028 -0.17 -0.057 -0.085 -0.142 -0.312 l 0.028,-0.142 v -0.057 -0.085 -0.17 0 -0.142 -0.085 -0.057 -0.142 -0.057 -0.085 -0.142 0 -0.142 l 0.028,-0.142 v -0.142 -0.057 -0.085 -0.142 0 -0.142 -0.085 -0.028 l 0.028,-0.142 v -0.057 -0.085 -0.142 0 -0.142 -0.085 -0.028 -0.142 l 0.028,-0.028 v -0.114 -0.113 0 -0.142 -0.085 -0.057 l 0.028,-0.114 v -0.028 -0.113 -0.113 0 z"
         id="path14293" />
    </g>
  </g>
</svg>
