<?xml version="1.0" encoding="UTF-8" standalone="no"?>
<svg
   xmlns:dc="http://purl.org/dc/elements/1.1/"
   xmlns:cc="http://creativecommons.org/ns#"
   xmlns:rdf="http://www.w3.org/1999/02/22-rdf-syntax-ns#"
   xmlns:svg="http://www.w3.org/2000/svg"
   xmlns="http://www.w3.org/2000/svg"
   xmlns:sodipodi="http://sodipodi.sourceforge.net/DTD/sodipodi-0.dtd"
   xmlns:inkscape="http://www.inkscape.org/namespaces/inkscape"
   inkscape:version="1.0beta1 (32d4812, 2019-09-19)"
   id="svg13135"
   version="1.1"
   viewBox="0 0 507.99998 285.75001"
   height="1080"
   width="1920">
  <defs
     id="defs13129" />
  <sodipodi:namedview
     inkscape:window-maximized="0"
     inkscape:window-y="82"
     inkscape:window-x="27"
     inkscape:window-height="907"
     inkscape:window-width="1600"
     width="1920px"
     units="px"
     showgrid="false"
     inkscape:document-rotation="0"
     inkscape:current-layer="layer1"
     inkscape:document-units="mm"
     inkscape:cy="560"
     inkscape:cx="704.28571"
     inkscape:zoom="0.35"
     inkscape:pageshadow="2"
     inkscape:pageopacity="0.0"
     borderopacity="1.0"
     bordercolor="#666666"
     pagecolor="#ffffff"
     id="base" />
  <metadata
     id="metadata13132">
    <rdf:RDF>
      <cc:Work
         rdf:about="">
        <dc:format>image/svg+xml</dc:format>
        <dc:type
           rdf:resource="http://purl.org/dc/dcmitype/StillImage" />
        <dc:title></dc:title>
      </cc:Work>
    </rdf:RDF>
  </metadata>
  <g
     id="layer1"
     inkscape:groupmode="layer"
     inkscape:label="Layer 1">
    <g
       transform="matrix(1.3229166,0,0,1.3229167,-657.7356,-513.73684)"
       id="g14821">
      <path
         inkscape:connector-curvature="0"
         fill-rule="evenodd"
         clip-rule="evenodd"
         fill="#FACC11"
         d="m 512.347,477.798 c 3.26,-7.058 33.278,-5.839 56.948,-5.839 5.074,-18.964 29.99,-46.29 43.001,-46.29 72.313,0 53.349,0 125.688,0 18.964,0 39.459,26.674 50.91,46.29 21.175,0 42.095,0 61.541,0 23.357,0 23.584,3.685 23.584,40.791 0,4.025 5.953,3.884 5.953,12.132 0,14.996 -1.56,18.964 -18.511,18.964 -92.92,0 -185.868,0 -278.788,0 -26.276,0 -78.888,-9.042 -78.888,-12.557 0,-17.943 0,-24.605 0,-39.629 10e-4,-11.141 4.877,-4.479 8.562,-13.862 z"
         id="path14727" />
      <path
         inkscape:connector-curvature="0"
         fill-rule="evenodd"
         clip-rule="evenodd"
         fill="#E3B612"
         d="m 503.786,504.188 h 370.205 c 0.028,2.636 0.028,5.471 0.028,8.561 0,4.025 5.953,3.884 5.953,12.132 0,14.996 -1.56,18.964 -18.511,18.964 -92.92,0 -185.868,0 -278.788,0 -26.276,0 -78.888,-9.042 -78.888,-12.557 v -27.1 z"
         id="path14729" />
      <path
         inkscape:connector-curvature="0"
         fill-rule="evenodd"
         clip-rule="evenodd"
         fill="#C49D15"
         d="m 596.791,499.852 c 20.211,0 36.595,16.384 36.595,36.595 v 7.398 h -50.712 c -6.32,0 -14.173,-0.51 -22.479,-1.36 v -6.038 c 0,-20.212 16.385,-36.595 36.596,-36.595 z"
         id="path14731" />
      <path
         inkscape:connector-curvature="0"
         fill-rule="evenodd"
         clip-rule="evenodd"
         fill="#FEFEFE"
         d="m 501.235,508.809 h 10.941 c 1.559,0 2.835,1.276 2.835,2.835 v 17.149 c 0,1.56 -1.276,2.835 -2.835,2.835 h -10.941 c -1.56,0 -2.835,-1.275 -2.835,-2.835 v -17.149 c 0,-1.559 1.276,-2.835 2.835,-2.835 z"
         id="path14733" />
      <path
         inkscape:connector-curvature="0"
         fill-rule="evenodd"
         clip-rule="evenodd"
         fill="#C49D15"
         d="m 818.148,499.852 c 20.211,0 36.596,16.384 36.596,36.595 v 7.398 h -73.191 v -7.398 c 0,-20.212 16.385,-36.595 36.595,-36.595 z"
         id="path14735" />
      <path
         inkscape:connector-curvature="0"
         fill-rule="evenodd"
         clip-rule="evenodd"
         fill="#C49D15"
         d="m 764.233,471.675 c 0,16.158 0,32.287 0,48.444 0,2.863 0,5.953 -0.396,8.787 -0.341,2.154 -0.936,4.309 -2.381,6.01 -2.069,2.438 -5.358,3.288 -8.391,3.741 -2.269,0.341 -4.593,0.482 -6.86,0.567 -3.062,0.113 -6.151,0.142 -9.213,0.142 -33.052,0 -56.381,0 -89.433,0 -0.794,0 -1.418,-0.651 -1.418,-1.417 0,-0.794 0.624,-1.418 1.418,-1.418 33.052,0 56.381,0 89.433,0 3.033,0 6.066,-0.028 9.1,-0.142 2.183,-0.085 4.394,-0.227 6.548,-0.538 2.268,-0.341 5.103,-0.936 6.661,-2.778 1.049,-1.247 1.475,-2.977 1.729,-4.563 0.397,-2.693 0.368,-5.669 0.368,-8.391 0,-16.157 0,-32.286 0,-48.444 0,-0.793 0.624,-1.417 1.418,-1.417 0.766,0 1.417,0.623 1.417,1.417 z"
         id="path14737" />
      <path
         inkscape:connector-curvature="0"
         fill-rule="evenodd"
         clip-rule="evenodd"
         fill="#C49D15"
         d="m 690.76,537.921 0.085,-67.352 c 0,-0.793 0.651,-1.417 1.417,-1.417 0.794,0 1.417,0.624 1.417,1.417 l -0.085,67.38 c 0,0.766 -0.651,1.417 -1.417,1.417 -0.794,-0.028 -1.417,-0.651 -1.417,-1.445 z"
         id="path14739" />
      <path
         inkscape:connector-curvature="0"
         fill-rule="evenodd"
         clip-rule="evenodd"
         fill="#C49D15"
         d="m 618.958,471.958 v 24.349 c 0,0.794 -0.624,1.418 -1.418,1.418 -0.765,0 -1.417,-0.624 -1.417,-1.418 v -24.349 c 0,-0.765 0.652,-1.417 1.417,-1.417 0.794,0 1.418,0.652 1.418,1.417 z"
         id="path14741" />
      <path
         inkscape:connector-curvature="0"
         fill-rule="evenodd"
         clip-rule="evenodd"
         fill="#0C1217"
         d="m 758.564,456.226 c -6.151,-7.71 -19.134,-22.053 -29.963,-22.053 -41.896,0 -74.409,0 -116.306,0 -2.353,0 -7.228,3.373 -9.014,4.733 -5.159,3.94 -9.921,9.015 -13.946,14.088 -4.933,6.265 -13.635,18.964 -5.301,18.964 h 175.691 c 8.817,0 8.336,-3.798 -1.161,-15.732 z"
         id="path14743" />
      <path
         inkscape:connector-curvature="0"
         fill-rule="evenodd"
         clip-rule="evenodd"
         fill="#122836"
         d="m 583.383,469.067 c 0.227,0.057 0.511,0.057 0.652,0.057 h 175.691 c 0.652,0 2.692,-0.057 3.458,-0.397 -0.085,-0.794 -0.992,-2.438 -1.275,-2.948 -1.56,-2.693 -3.628,-5.357 -5.556,-7.767 -5.557,-6.973 -18.17,-21.005 -27.752,-21.005 -41.896,0 -74.409,0 -116.306,0 -1.502,0.057 -5.98,3.146 -7.284,4.167 -5.018,3.827 -9.553,8.646 -13.465,13.578 -1.503,1.928 -2.948,3.912 -4.28,5.953 -1.162,1.757 -2.324,3.685 -3.118,5.641 -0.226,0.51 -0.765,2.012 -0.765,2.721 z"
         id="path14745" />
      <path
         inkscape:connector-curvature="0"
         fill-rule="evenodd"
         clip-rule="evenodd"
         fill="#FEFEFE"
         d="m 630.126,476.777 h 10.743 c 1.446,0 2.608,1.162 2.608,2.58 v 0 c 0,1.417 -1.162,2.58 -2.608,2.58 h -10.743 c -1.417,0 -2.607,-1.162 -2.607,-2.58 v 0 c 0,-1.418 1.19,-2.58 2.607,-2.58 z"
         id="path14747" />
      <path
         inkscape:connector-curvature="0"
         fill-rule="evenodd"
         clip-rule="evenodd"
         fill="#FEFEFE"
         d="m 701.56,476.777 h 10.771 c 1.417,0 2.58,1.162 2.58,2.58 v 0 c 0,1.417 -1.163,2.58 -2.58,2.58 H 701.56 c -1.417,0 -2.58,-1.162 -2.58,-2.58 v 0 c -10e-4,-1.418 1.163,-2.58 2.58,-2.58 z"
         id="path14749" />
      <rect
         x="523.57202"
         y="485.64899"
         fill-rule="evenodd"
         clip-rule="evenodd"
         fill="#F28C1F"
         width="339.36301"
         height="7.7389998"
         id="rect14751" />
      <polygon
         fill-rule="evenodd"
         clip-rule="evenodd"
         fill="#F7EEA8"
         points="646.256,532.733 638.545,519.893 764.29,524.938 764.29,532.733 "
         id="polygon14753" />
      <path
         inkscape:connector-curvature="0"
         fill-rule="evenodd"
         clip-rule="evenodd"
         fill="#0C1217"
         d="m 744.164,434.258 c 0.511,-0.057 1.021,-0.085 1.56,-0.085 h 12.443 c 12.133,9.468 23.329,25.086 30.728,37.786 h -17.772 c 1.247,-3.09 0.283,-6.435 -1.247,-9.354 -1.814,-3.43 -4.479,-6.86 -6.889,-9.893 -4.564,-5.755 -11.34,-13.324 -18.823,-18.454 z"
         id="path14755" />
      <path
         inkscape:connector-curvature="0"
         fill-rule="evenodd"
         clip-rule="evenodd"
         fill="#122836"
         d="m 787.223,469.124 h -11.82 c 0.057,-2.24 -0.737,-4.479 -1.814,-6.52 -1.814,-3.43 -4.45,-6.86 -6.889,-9.893 -3.798,-4.791 -9.155,-10.857 -15.165,-15.704 h 10.035 c 9.92,8.788 19.02,21.232 25.653,32.117 z"
         id="path14757" />
      <polygon
         fill-rule="evenodd"
         clip-rule="evenodd"
         fill="#EADA90"
         points="690.76,532.733 690.788,521.99 693.622,522.104 693.594,532.733 "
         id="polygon14759" />
      <path
         inkscape:connector-curvature="0"
         fill-rule="evenodd"
         clip-rule="evenodd"
         fill="#EADA90"
         d="m 761.342,524.824 2.835,0.114 c -0.057,1.36 -0.17,2.692 -0.34,3.968 -0.198,1.333 -0.511,2.637 -1.049,3.827 h -3.231 c 0.879,-1.19 1.247,-2.778 1.474,-4.224 0.169,-1.19 0.254,-2.437 0.311,-3.685 z"
         id="path14761" />
      <polygon
         fill-rule="evenodd"
         clip-rule="evenodd"
         fill="#F7F4CB"
         points="622.643,501.07 620.999,497.726 787.223,497.726 746.233,499.852 "
         id="polygon14763" />
      <polygon
         fill-rule="evenodd"
         clip-rule="evenodd"
         fill="#EFE4B4"
         points="690.816,500.39 690.816,497.726 693.65,497.726 693.65,500.361 "
         id="polygon14765" />
      <polygon
         fill-rule="evenodd"
         clip-rule="evenodd"
         fill="#EFE4B4"
         points="761.398,499.058 761.398,497.726 764.233,497.726 764.233,498.916 "
         id="polygon14767" />
      <path
         inkscape:connector-curvature="0"
         fill-rule="evenodd"
         clip-rule="evenodd"
         fill="#221F20"
         d="m 596.791,505.152 c 17.093,0 30.926,13.833 30.926,30.926 0,17.064 -13.833,30.926 -30.926,30.926 -17.064,0 -30.926,-13.861 -30.926,-30.926 0,-17.093 13.862,-30.926 30.926,-30.926 z"
         id="path14769" />
      <path
         inkscape:connector-curvature="0"
         fill-rule="evenodd"
         clip-rule="evenodd"
         fill="#FEFEFE"
         d="m 596.791,514.96 c 11.679,0 21.118,9.468 21.118,21.118 0,11.65 -9.439,21.09 -21.118,21.09 -11.65,0 -21.09,-9.439 -21.09,-21.09 0,-11.651 9.44,-21.118 21.09,-21.118 z m 0,2.296 c 10.403,0 18.822,8.419 18.822,18.822 0,10.375 -8.419,18.822 -18.822,18.822 -10.375,0 -18.794,-8.447 -18.794,-18.822 0,-10.403 8.419,-18.822 18.794,-18.822 z"
         id="path14771" />
      <path
         inkscape:connector-curvature="0"
         fill-rule="evenodd"
         clip-rule="evenodd"
         fill="#221F20"
         d="m 596.791,517.256 c 10.403,0 18.822,8.419 18.822,18.822 0,10.375 -8.419,18.822 -18.822,18.822 -10.375,0 -18.794,-8.447 -18.794,-18.822 0,-10.403 8.419,-18.822 18.794,-18.822 z"
         id="path14773" />
      <path
         inkscape:connector-curvature="0"
         fill-rule="evenodd"
         clip-rule="evenodd"
         fill="#FEFEFE"
         d="m 593.105,536.078 h 3.686 3.713 l -1.19,-20.948 c -0.822,-0.113 -1.672,-0.17 -2.522,-0.17 -0.85,0 -1.701,0.057 -2.523,0.17 z"
         id="path14775" />
      <path
         inkscape:connector-curvature="0"
         fill-rule="evenodd"
         clip-rule="evenodd"
         fill="#FEFEFE"
         d="m 594.183,533.471 2.608,2.607 2.607,2.608 14.003,-15.647 c -1.048,-1.333 -2.239,-2.523 -3.571,-3.572 z"
         id="path14777" />
      <path
         inkscape:connector-curvature="0"
         fill-rule="evenodd"
         clip-rule="evenodd"
         fill="#FEFEFE"
         d="m 596.791,532.394 v 3.685 3.686 l 20.977,-1.163 c 0.085,-0.821 0.142,-1.672 0.142,-2.522 0,-0.85 -0.057,-1.701 -0.142,-2.522 z"
         id="path14779" />
      <path
         inkscape:connector-curvature="0"
         fill-rule="evenodd"
         clip-rule="evenodd"
         fill="#FEFEFE"
         d="m 599.398,533.471 -2.607,2.607 -2.608,2.608 15.647,14.003 c 1.332,-1.049 2.523,-2.268 3.571,-3.572 z"
         id="path14781" />
      <path
         inkscape:connector-curvature="0"
         fill-rule="evenodd"
         clip-rule="evenodd"
         fill="#FEFEFE"
         d="m 600.504,536.078 h -3.713 -3.686 l 1.162,20.948 c 0.822,0.113 1.673,0.142 2.523,0.142 0.85,0 1.7,-0.028 2.522,-0.142 z"
         id="path14783" />
      <path
         inkscape:connector-curvature="0"
         fill-rule="evenodd"
         clip-rule="evenodd"
         fill="#FEFEFE"
         d="m 599.398,538.687 -2.607,-2.608 -2.608,-2.607 -13.975,15.646 c 1.021,1.305 2.239,2.523 3.572,3.572 z"
         id="path14785" />
      <path
         inkscape:connector-curvature="0"
         fill-rule="evenodd"
         clip-rule="evenodd"
         fill="#FEFEFE"
         d="m 596.791,539.764 v -3.686 -3.685 l -20.948,1.162 c -0.085,0.821 -0.142,1.672 -0.142,2.522 0,0.85 0.057,1.701 0.142,2.522 z"
         id="path14787" />
      <path
         inkscape:connector-curvature="0"
         fill-rule="evenodd"
         clip-rule="evenodd"
         fill="#FEFEFE"
         d="m 594.183,538.687 2.608,-2.608 2.607,-2.607 -15.618,-14.004 c -1.333,1.049 -2.552,2.239 -3.572,3.572 z"
         id="path14789" />
      <path
         inkscape:connector-curvature="0"
         fill-rule="evenodd"
         clip-rule="evenodd"
         fill="#221F20"
         d="m 596.791,532.394 c 2.041,0 3.713,1.644 3.713,3.685 0,2.041 -1.672,3.686 -3.713,3.686 -2.041,0 -3.686,-1.645 -3.686,-3.686 0,-2.041 1.645,-3.685 3.686,-3.685 z"
         id="path14791" />
      <path
         inkscape:connector-curvature="0"
         fill-rule="evenodd"
         clip-rule="evenodd"
         fill="#221F20"
         d="m 818.148,505.152 c 17.093,0 30.926,13.833 30.926,30.926 0,17.064 -13.833,30.926 -30.926,30.926 -17.064,0 -30.926,-13.861 -30.926,-30.926 10e-4,-17.093 13.862,-30.926 30.926,-30.926 z"
         id="path14793" />
      <path
         inkscape:connector-curvature="0"
         fill-rule="evenodd"
         clip-rule="evenodd"
         fill="#FEFEFE"
         d="m 818.148,514.96 c 11.65,0 21.118,9.468 21.118,21.118 0,11.65 -9.468,21.09 -21.118,21.09 -11.65,0 -21.118,-9.439 -21.118,-21.09 0,-11.651 9.468,-21.118 21.118,-21.118 z m 0,2.296 c 10.403,0 18.822,8.419 18.822,18.822 0,10.375 -8.419,18.822 -18.822,18.822 -10.403,0 -18.822,-8.447 -18.822,-18.822 0,-10.403 8.419,-18.822 18.822,-18.822 z"
         id="path14795" />
      <path
         inkscape:connector-curvature="0"
         fill-rule="evenodd"
         clip-rule="evenodd"
         fill="#221F20"
         d="m 818.148,517.256 c 10.403,0 18.822,8.419 18.822,18.822 0,10.375 -8.419,18.822 -18.822,18.822 -10.403,0 -18.822,-8.447 -18.822,-18.822 0,-10.403 8.419,-18.822 18.822,-18.822 z"
         id="path14797" />
      <path
         inkscape:connector-curvature="0"
         fill-rule="evenodd"
         clip-rule="evenodd"
         fill="#FEFEFE"
         d="m 814.464,536.078 h 3.685 3.686 l -1.163,-20.948 c -0.821,-0.113 -1.672,-0.17 -2.522,-0.17 -0.85,0 -1.701,0.057 -2.522,0.17 z"
         id="path14799" />
      <path
         inkscape:connector-curvature="0"
         fill-rule="evenodd"
         clip-rule="evenodd"
         fill="#FEFEFE"
         d="m 815.541,533.471 2.607,2.607 2.608,2.608 14.003,-15.647 c -1.049,-1.333 -2.239,-2.523 -3.572,-3.572 z"
         id="path14801" />
      <path
         inkscape:connector-curvature="0"
         fill-rule="evenodd"
         clip-rule="evenodd"
         fill="#FEFEFE"
         d="m 818.148,532.394 v 3.685 3.686 l 20.948,-1.163 c 0.113,-0.821 0.17,-1.672 0.17,-2.522 0,-0.85 -0.057,-1.701 -0.17,-2.522 z"
         id="path14803" />
      <path
         inkscape:connector-curvature="0"
         fill-rule="evenodd"
         clip-rule="evenodd"
         fill="#FEFEFE"
         d="m 820.757,533.471 -2.608,2.607 -2.607,2.608 15.646,14.003 c 1.333,-1.049 2.523,-2.268 3.572,-3.572 z"
         id="path14805" />
      <path
         inkscape:connector-curvature="0"
         fill-rule="evenodd"
         clip-rule="evenodd"
         fill="#FEFEFE"
         d="m 821.834,536.078 h -3.686 -3.685 l 1.162,20.948 c 0.821,0.113 1.672,0.142 2.522,0.142 0.85,0 1.701,-0.028 2.522,-0.142 z"
         id="path14807" />
      <path
         inkscape:connector-curvature="0"
         fill-rule="evenodd"
         clip-rule="evenodd"
         fill="#FEFEFE"
         d="m 820.757,538.687 -2.608,-2.608 -2.607,-2.607 -14.004,15.646 c 1.049,1.305 2.24,2.523 3.572,3.572 z"
         id="path14809" />
      <path
         inkscape:connector-curvature="0"
         fill-rule="evenodd"
         clip-rule="evenodd"
         fill="#FEFEFE"
         d="m 818.148,539.764 v -3.686 -3.685 l -20.948,1.162 c -0.113,0.821 -0.17,1.672 -0.17,2.522 0,0.85 0.057,1.701 0.17,2.522 z"
         id="path14811" />
      <path
         inkscape:connector-curvature="0"
         fill-rule="evenodd"
         clip-rule="evenodd"
         fill="#FEFEFE"
         d="m 815.541,538.687 2.607,-2.608 2.608,-2.607 -15.647,-14.004 c -1.332,1.049 -2.523,2.239 -3.572,3.572 z"
         id="path14813" />
      <path
         inkscape:connector-curvature="0"
         fill-rule="evenodd"
         clip-rule="evenodd"
         fill="#221F20"
         d="m 818.148,532.394 c 2.041,0 3.686,1.644 3.686,3.685 0,2.041 -1.645,3.686 -3.686,3.686 -2.041,0 -3.685,-1.645 -3.685,-3.686 0,-2.041 1.644,-3.685 3.685,-3.685 z"
         id="path14815" />
      <path
         inkscape:connector-curvature="0"
         fill-rule="evenodd"
         clip-rule="evenodd"
         fill="#FACC11"
         d="m 854.403,531.401 h -72.481 c 2.438,-17.83 17.745,-31.55 36.227,-31.55 18.51,10e-4 33.789,13.72 36.254,31.55 z"
         id="path14817" />
      <path
         inkscape:connector-curvature="0"
         fill-rule="evenodd"
         clip-rule="evenodd"
         fill="#FACC11"
         d="m 633.046,531.401 h -72.481 c 2.438,-17.83 17.744,-31.55 36.227,-31.55 18.509,10e-4 33.788,13.72 36.254,31.55 z"
         id="path14819" />
    </g>
  </g>
</svg>
