<?xml version="1.0" encoding="UTF-8" standalone="no"?>
<svg
   xmlns:dc="http://purl.org/dc/elements/1.1/"
   xmlns:cc="http://creativecommons.org/ns#"
   xmlns:rdf="http://www.w3.org/1999/02/22-rdf-syntax-ns#"
   xmlns:svg="http://www.w3.org/2000/svg"
   xmlns="http://www.w3.org/2000/svg"
   xmlns:sodipodi="http://sodipodi.sourceforge.net/DTD/sodipodi-0.dtd"
   xmlns:inkscape="http://www.inkscape.org/namespaces/inkscape"
   inkscape:version="1.0beta1 (32d4812, 2019-09-19)"
   id="svg13135"
   version="1.1"
   viewBox="0 0 507.99998 285.75001"
   height="1080"
   width="1920">
  <defs
     id="defs13129" />
  <sodipodi:namedview
     inkscape:window-maximized="0"
     inkscape:window-y="82"
     inkscape:window-x="27"
     inkscape:window-height="907"
     inkscape:window-width="1600"
     width="1920px"
     units="px"
     showgrid="false"
     inkscape:document-rotation="0"
     inkscape:current-layer="layer1"
     inkscape:document-units="mm"
     inkscape:cy="560"
     inkscape:cx="704.28571"
     inkscape:zoom="0.35"
     inkscape:pageshadow="2"
     inkscape:pageopacity="0.0"
     borderopacity="1.0"
     bordercolor="#666666"
     pagecolor="#ffffff"
     id="base" />
  <metadata
     id="metadata13132">
    <rdf:RDF>
      <cc:Work
         rdf:about="">
        <dc:format>image/svg+xml</dc:format>
        <dc:type
           rdf:resource="http://purl.org/dc/dcmitype/StillImage" />
        <dc:title></dc:title>
      </cc:Work>
    </rdf:RDF>
  </metadata>
  <g
     id="layer1"
     inkscape:groupmode="layer"
     inkscape:label="Layer 1">
    <g
       transform="matrix(1.3229166,0,0,1.3229166,-66.735838,-915.30482)"
       id="g14725">
      <path
         inkscape:connector-curvature="0"
         fill-rule="evenodd"
         clip-rule="evenodd"
         fill="#BC1C6B"
         d="m 67.959,788.674 c 1.276,-4.819 36.454,-13.04 58.054,-13.04 29.084,-31.294 31.521,-36.312 147.601,-36.312 12.273,5.216 37.332,23.301 51.59,38.693 33.393,0 100.205,6.009 100.205,33.023 0,19.984 -21.005,26.985 -37.502,26.985 -122.202,0 -146.608,0 -268.81,0 -12.756,0 -54.879,-7.908 -54.879,-15.987 0,-6.66 1.02,-23.271 3.741,-33.362 z"
         id="path14639" />
      <path
         inkscape:connector-curvature="0"
         fill-rule="evenodd"
         clip-rule="evenodd"
         fill="#A51A5C"
         d="m 67.279,791.395 c 38.919,3.884 242.135,6.69 272.834,6.69 24.038,0 58.593,-0.539 83.735,6.15 0.992,2.098 1.56,4.365 1.56,6.804 0,19.984 -21.005,26.985 -37.502,26.985 -122.202,0 -146.608,0 -268.81,0 -12.756,0 -54.879,-7.908 -54.879,-15.987 0.001,-6.095 0.851,-20.494 3.062,-30.642 z"
         id="path14641" />
      <path
         inkscape:connector-curvature="0"
         fill-rule="evenodd"
         clip-rule="evenodd"
         fill="#841648"
         d="m 129.585,801.202 c 17.914,0 32.456,14.514 32.456,32.457 v 4.365 h -42.944 c -4.621,0 -13.068,-1.021 -21.969,-2.749 v -1.616 c 0,-17.943 14.514,-32.457 32.457,-32.457 z"
         id="path14643" />
      <path
         inkscape:connector-curvature="0"
         fill-rule="evenodd"
         clip-rule="evenodd"
         fill="#3F3F41"
         d="m 129.585,806.872 c 14.797,0 26.787,11.99 26.787,26.787 0,14.797 -11.99,26.787 -26.787,26.787 -14.797,0 -26.788,-11.99 -26.788,-26.787 0,-14.797 11.991,-26.787 26.788,-26.787 z"
         id="path14645" />
      <path
         inkscape:connector-curvature="0"
         fill-rule="evenodd"
         clip-rule="evenodd"
         fill="#FFFFFF"
         d="m 129.585,815.376 c 10.091,0 18.283,8.164 18.283,18.283 0,10.092 -8.192,18.283 -18.283,18.283 -10.12,0 -18.284,-8.191 -18.284,-18.283 0,-10.119 8.164,-18.283 18.284,-18.283 z m 0,1.984 c 9.014,0 16.299,7.285 16.299,16.299 0,8.986 -7.285,16.299 -16.299,16.299 -9.015,0 -16.3,-7.313 -16.3,-16.299 0,-9.013 7.285,-16.299 16.3,-16.299 z"
         id="path14647" />
      <path
         inkscape:connector-curvature="0"
         fill-rule="evenodd"
         clip-rule="evenodd"
         fill="#841648"
         d="m 358.397,801.202 c 17.943,0 32.484,14.514 32.484,32.457 v 4.28 c -1.021,0.057 -2.013,0.085 -2.976,0.085 H 325.94 v -4.365 c 0,-17.943 14.542,-32.457 32.457,-32.457 z"
         id="path14649" />
      <path
         inkscape:connector-curvature="0"
         fill-rule="evenodd"
         clip-rule="evenodd"
         fill="#3F3F41"
         d="m 358.397,806.872 c 14.797,0 26.815,11.99 26.815,26.787 0,14.797 -12.019,26.787 -26.815,26.787 -14.796,0 -26.788,-11.99 -26.788,-26.787 0,-14.797 11.992,-26.787 26.788,-26.787 z"
         id="path14651" />
      <path
         inkscape:connector-curvature="0"
         fill-rule="evenodd"
         clip-rule="evenodd"
         fill="#FFFFFF"
         d="m 358.397,815.376 c 10.119,0 18.312,8.164 18.312,18.283 0,10.092 -8.192,18.283 -18.312,18.283 -10.092,0 -18.284,-8.191 -18.284,-18.283 0,-10.119 8.193,-18.283 18.284,-18.283 z"
         id="path14653" />
      <path
         inkscape:connector-curvature="0"
         fill-rule="evenodd"
         clip-rule="evenodd"
         fill="#221F20"
         d="m 129.585,817.36 c 9.014,0 16.299,7.285 16.299,16.299 0,8.986 -7.285,16.299 -16.299,16.299 -9.015,0 -16.3,-7.313 -16.3,-16.299 0,-9.013 7.285,-16.299 16.3,-16.299 z"
         id="path14655" />
      <path
         inkscape:connector-curvature="0"
         fill-rule="evenodd"
         clip-rule="evenodd"
         fill="#FFFFFF"
         d="m 126.382,833.659 h 3.203 3.203 l -1.021,-18.17 c -0.709,-0.085 -1.446,-0.113 -2.183,-0.113 -0.737,0 -1.475,0.028 -2.184,0.113 z"
         id="path14657" />
      <path
         inkscape:connector-curvature="0"
         fill-rule="evenodd"
         clip-rule="evenodd"
         fill="#FFFFFF"
         d="m 127.316,831.392 2.269,2.268 2.268,2.268 12.104,-13.578 c -0.879,-1.134 -1.928,-2.183 -3.09,-3.089 z"
         id="path14659" />
      <path
         inkscape:connector-curvature="0"
         fill-rule="evenodd"
         clip-rule="evenodd"
         fill="#FFFFFF"
         d="m 129.585,830.456 v 3.203 3.203 l 18.17,-1.021 c 0.085,-0.708 0.113,-1.445 0.113,-2.183 0,-0.738 -0.028,-1.474 -0.113,-2.183 z"
         id="path14661" />
      <path
         inkscape:connector-curvature="0"
         fill-rule="evenodd"
         clip-rule="evenodd"
         fill="#FFFFFF"
         d="m 131.853,831.392 -2.268,2.268 -2.269,2.268 13.55,12.104 c 1.162,-0.907 2.211,-1.928 3.09,-3.09 z"
         id="path14663" />
      <path
         inkscape:connector-curvature="0"
         fill-rule="evenodd"
         clip-rule="evenodd"
         fill="#FFFFFF"
         d="m 132.788,833.659 h -3.203 -3.203 l 1.02,18.142 c 0.709,0.085 1.446,0.142 2.184,0.142 0.736,0 1.474,-0.057 2.183,-0.142 z"
         id="path14665" />
      <path
         inkscape:connector-curvature="0"
         fill-rule="evenodd"
         clip-rule="evenodd"
         fill="#FFFFFF"
         d="m 131.853,835.927 -2.268,-2.268 -2.269,-2.268 -12.132,13.55 c 0.907,1.162 1.956,2.183 3.09,3.09 z"
         id="path14667" />
      <path
         inkscape:connector-curvature="0"
         fill-rule="evenodd"
         clip-rule="evenodd"
         fill="#FFFFFF"
         d="m 129.585,836.862 v -3.203 -3.203 l -18.171,1.021 c -0.085,0.709 -0.113,1.445 -0.113,2.183 0,0.738 0.028,1.475 0.113,2.183 z"
         id="path14669" />
      <path
         inkscape:connector-curvature="0"
         fill-rule="evenodd"
         clip-rule="evenodd"
         fill="#FFFFFF"
         d="m 127.316,835.927 2.269,-2.268 2.268,-2.268 -13.578,-12.132 c -1.134,0.906 -2.183,1.955 -3.09,3.089 z"
         id="path14671" />
      <path
         inkscape:connector-curvature="0"
         fill-rule="evenodd"
         clip-rule="evenodd"
         fill="#221F20"
         d="m 129.585,830.456 c 1.757,0 3.203,1.417 3.203,3.203 0,1.758 -1.446,3.203 -3.203,3.203 -1.786,0 -3.203,-1.445 -3.203,-3.203 0,-1.786 1.417,-3.203 3.203,-3.203 z"
         id="path14673" />
      <path
         inkscape:connector-curvature="0"
         fill-rule="evenodd"
         clip-rule="evenodd"
         fill="#221F20"
         d="m 358.397,817.36 c 9.014,0 16.327,7.285 16.327,16.299 0,8.986 -7.313,16.299 -16.327,16.299 -8.986,0 -16.3,-7.313 -16.3,-16.299 0.001,-9.013 7.314,-16.299 16.3,-16.299 z"
         id="path14675" />
      <path
         inkscape:connector-curvature="0"
         fill-rule="evenodd"
         clip-rule="evenodd"
         fill="#FFFFFF"
         d="m 355.194,833.659 h 3.203 3.203 l -0.992,-18.17 c -0.737,-0.085 -1.446,-0.113 -2.211,-0.113 -0.737,0 -1.446,0.028 -2.183,0.113 z"
         id="path14677" />
      <path
         inkscape:connector-curvature="0"
         fill-rule="evenodd"
         clip-rule="evenodd"
         fill="#FFFFFF"
         d="m 356.158,831.392 2.239,2.268 2.268,2.268 12.132,-13.578 c -0.907,-1.134 -1.956,-2.183 -3.09,-3.089 z"
         id="path14679" />
      <path
         inkscape:connector-curvature="0"
         fill-rule="evenodd"
         clip-rule="evenodd"
         fill="#FFFFFF"
         d="m 358.397,830.456 v 3.203 3.203 l 18.17,-1.021 c 0.085,-0.708 0.142,-1.445 0.142,-2.183 0,-0.738 -0.057,-1.474 -0.142,-2.183 z"
         id="path14681" />
      <path
         inkscape:connector-curvature="0"
         fill-rule="evenodd"
         clip-rule="evenodd"
         fill="#FFFFFF"
         d="m 360.665,831.392 -2.268,2.268 -2.239,2.268 13.549,12.104 c 1.134,-0.907 2.183,-1.928 3.09,-3.09 z"
         id="path14683" />
      <path
         inkscape:connector-curvature="0"
         fill-rule="evenodd"
         clip-rule="evenodd"
         fill="#FFFFFF"
         d="m 361.601,833.659 h -3.203 -3.203 l 1.021,18.142 c 0.736,0.085 1.445,0.142 2.183,0.142 0.765,0 1.474,-0.057 2.211,-0.142 z"
         id="path14685" />
      <path
         inkscape:connector-curvature="0"
         fill-rule="evenodd"
         clip-rule="evenodd"
         fill="#FFFFFF"
         d="m 360.665,835.927 -2.268,-2.268 -2.239,-2.268 -12.133,13.55 c 0.907,1.162 1.928,2.183 3.09,3.09 z"
         id="path14687" />
      <path
         inkscape:connector-curvature="0"
         fill-rule="evenodd"
         clip-rule="evenodd"
         fill="#FFFFFF"
         d="m 358.397,836.862 v -3.203 -3.203 l -18.142,1.021 c -0.086,0.709 -0.143,1.445 -0.143,2.183 0,0.738 0.057,1.475 0.143,2.183 z"
         id="path14689" />
      <path
         inkscape:connector-curvature="0"
         fill-rule="evenodd"
         clip-rule="evenodd"
         fill="#FFFFFF"
         d="m 356.158,835.927 2.239,-2.268 2.268,-2.268 -13.55,-12.132 c -1.162,0.906 -2.183,1.955 -3.09,3.089 z"
         id="path14691" />
      <path
         inkscape:connector-curvature="0"
         fill-rule="evenodd"
         clip-rule="evenodd"
         fill="#221F20"
         d="m 358.397,830.456 c 1.785,0 3.203,1.417 3.203,3.203 0,1.758 -1.418,3.203 -3.203,3.203 -1.758,0 -3.203,-1.445 -3.203,-3.203 0,-1.786 1.446,-3.203 3.203,-3.203 z"
         id="path14693" />
      <path
         inkscape:connector-curvature="0"
         fill-rule="evenodd"
         clip-rule="evenodd"
         fill="#841648"
         d="m 310.265,776.683 c 0,12.784 0,24.066 0,36.851 0,4.62 0.085,11.679 -3.373,15.222 -1.899,1.956 -4.535,2.75 -7.144,3.146 -3.798,0.624 -8.05,0.596 -11.905,0.596 -36.596,0 -73.19,0 -109.786,0 -0.793,0 -1.417,-0.624 -1.417,-1.417 0,-0.766 0.624,-1.418 1.417,-1.418 36.596,0 73.19,0 109.786,0 3.685,0 7.795,0.028 11.452,-0.538 1.928,-0.312 4.139,-0.879 5.556,-2.353 2.693,-2.75 2.58,-9.667 2.58,-13.238 0,-12.784 0,-24.066 0,-36.851 0,-0.765 0.623,-1.417 1.417,-1.417 0.765,0 1.417,0.652 1.417,1.417 z"
         id="path14695" />
      <path
         inkscape:connector-curvature="0"
         fill-rule="evenodd"
         clip-rule="evenodd"
         fill="#841648"
         d="m 239.37,778.016 v 53.064 c 0,0.793 -0.623,1.417 -1.417,1.417 -0.766,0 -1.417,-0.624 -1.417,-1.417 v -53.064 c 0,-0.766 0.651,-1.418 1.417,-1.418 0.794,0 1.417,0.652 1.417,1.418 z"
         id="path14697" />
      <path
         inkscape:connector-curvature="0"
         fill-rule="evenodd"
         clip-rule="evenodd"
         fill="#841648"
         d="m 179.475,775.918 v 25.029 c 0,0.766 -0.652,1.418 -1.418,1.418 -0.793,0 -1.417,-0.652 -1.417,-1.418 v -25.029 c 0,-0.766 0.624,-1.418 1.417,-1.418 0.765,0 1.418,0.652 1.418,1.418 z"
         id="path14699" />
      <path
         inkscape:connector-curvature="0"
         fill-rule="evenodd"
         clip-rule="evenodd"
         fill="#FEFEFE"
         d="m 424.586,806.078 c -3.656,1.843 -10.403,1.928 -17.603,-0.085 -10.007,-2.807 -17.15,-8.589 -15.932,-12.954 0.822,-3.033 5.415,-4.564 11.48,-4.309 11.198,4.167 19.532,9.78 22.055,17.348 z"
         id="path14701" />
      <path
         inkscape:connector-curvature="0"
         fill-rule="evenodd"
         clip-rule="evenodd"
         fill="#EC3822"
         d="m 67.506,790.459 h 6.01 c 3.826,0 6.944,3.146 6.944,6.974 v 0 c 0,3.827 -3.118,6.944 -6.944,6.944 h -7.853 c -0.113,0 -0.255,0 -0.368,0 0.51,-4.847 1.247,-9.779 2.211,-13.918 z"
         id="path14703" />
      <path
         inkscape:connector-curvature="0"
         fill-rule="evenodd"
         clip-rule="evenodd"
         fill="#0C1217"
         d="m 313.241,778.016 c -3.799,-3.601 -7.795,-7.03 -11.82,-10.29 -5.612,-4.535 -11.48,-8.873 -17.519,-12.841 -3.713,-2.438 -7.965,-5.131 -12.104,-7.059 -16.583,0 -33.194,0.085 -49.776,0.596 -11.396,0.34 -22.989,0.85 -34.328,2.183 -14.569,1.729 -35.206,27.411 -4.988,27.411 z"
         id="path14705" />
      <path
         inkscape:connector-curvature="0"
         fill-rule="evenodd"
         clip-rule="evenodd"
         fill="#122836"
         d="m 305.928,775.181 c -2.069,-1.786 -4.167,-3.543 -6.293,-5.244 -5.556,-4.479 -11.311,-8.759 -17.291,-12.671 -3.572,-2.353 -7.313,-4.734 -11.197,-6.604 -16.327,0 -32.684,0.085 -49.011,0.595 -11.396,0.341 -22.791,0.851 -34.101,2.183 -3.572,0.397 -7.342,2.523 -10.148,4.706 -2.409,1.871 -4.79,4.337 -6.378,7.001 -0.907,1.56 -1.899,3.912 -1.36,5.755 1.19,3.94 9.439,4.28 12.558,4.28 h 123.221 z"
         id="path14707" />
      <path
         inkscape:connector-curvature="0"
         fill-rule="evenodd"
         clip-rule="evenodd"
         fill="#221F20"
         d="m 61.27,814.724 h 30.926 c 1.56,0 2.835,1.275 2.835,2.835 v 7.37 c 0,1.559 -1.275,2.835 -2.835,2.835 H 61.27 c -1.559,0 -2.835,-1.276 -2.835,-2.835 v -7.37 c 0,-1.56 1.276,-2.835 2.835,-2.835 z"
         id="path14709" />
      <path
         inkscape:connector-curvature="0"
         fill-rule="evenodd"
         clip-rule="evenodd"
         fill="#221F20"
         d="m 395.588,822.235 h 28.034 c 1.56,0 2.835,1.276 2.835,2.835 v 7.37 c 0,1.559 -1.275,2.835 -2.835,2.835 h -28.034 c -1.56,0 -2.835,-1.276 -2.835,-2.835 v -7.37 c 0,-1.558 1.275,-2.835 2.835,-2.835 z"
         id="path14711" />
      <polygon
         fill-rule="evenodd"
         clip-rule="evenodd"
         fill="#F4D2DF"
         points="162.807,793.379 161.39,789.949 327.244,801.23 286.227,800.551 "
         id="polygon14713" />
      <polygon
         fill-rule="evenodd"
         clip-rule="evenodd"
         fill="#EE90B8"
         points="290.167,824.305 291.868,827.764 179.956,825.666 190.246,816.991 "
         id="polygon14715" />
      <polygon
         fill-rule="evenodd"
         clip-rule="evenodd"
         fill="#EBBACE"
         points="176.64,794.201 176.64,790.97 179.475,791.168 179.475,794.371 "
         id="polygon14717" />
      <polygon
         fill-rule="evenodd"
         clip-rule="evenodd"
         fill="#EBBACE"
         points="236.536,797.688 236.536,795.052 239.37,795.25 239.37,797.829 "
         id="polygon14719" />
      <polygon
         fill-rule="evenodd"
         clip-rule="evenodd"
         fill="#EBBACE"
         points="307.431,800.891 307.431,799.87 310.265,800.068 310.265,800.947 "
         id="polygon14721" />
      <polygon
         fill-rule="evenodd"
         clip-rule="evenodd"
         fill="#E87CAC"
         points="239.37,820.592 239.37,826.771 236.536,826.715 236.536,820.394 "
         id="polygon14723" />
    </g>
  </g>
</svg>
