<?xml version="1.0" encoding="UTF-8" standalone="no"?>
<svg
   xmlns:dc="http://purl.org/dc/elements/1.1/"
   xmlns:cc="http://creativecommons.org/ns#"
   xmlns:rdf="http://www.w3.org/1999/02/22-rdf-syntax-ns#"
   xmlns:svg="http://www.w3.org/2000/svg"
   xmlns="http://www.w3.org/2000/svg"
   xmlns:sodipodi="http://sodipodi.sourceforge.net/DTD/sodipodi-0.dtd"
   xmlns:inkscape="http://www.inkscape.org/namespaces/inkscape"
   inkscape:version="1.0beta1 (32d4812, 2019-09-19)"
   id="svg13135"
   version="1.1"
   viewBox="0 0 507.99998 285.75001"
   height="1080"
   width="1920">
  <defs
     id="defs13129" />
  <sodipodi:namedview
     inkscape:window-maximized="0"
     inkscape:window-y="82"
     inkscape:window-x="27"
     inkscape:window-height="907"
     inkscape:window-width="1600"
     width="1920px"
     units="px"
     showgrid="false"
     inkscape:document-rotation="0"
     inkscape:current-layer="layer1"
     inkscape:document-units="mm"
     inkscape:cy="560"
     inkscape:cx="704.28571"
     inkscape:zoom="0.35"
     inkscape:pageshadow="2"
     inkscape:pageopacity="0.0"
     borderopacity="1.0"
     bordercolor="#666666"
     pagecolor="#ffffff"
     id="base" />
  <metadata
     id="metadata13132">
    <rdf:RDF>
      <cc:Work
         rdf:about="">
        <dc:format>image/svg+xml</dc:format>
        <dc:type
           rdf:resource="http://purl.org/dc/dcmitype/StillImage" />
        <dc:title></dc:title>
      </cc:Work>
    </rdf:RDF>
  </metadata>
  <g
     id="layer1"
     inkscape:groupmode="layer"
     inkscape:label="Layer 1">
    <g
       transform="matrix(1.3229166,0,0,1.3229166,-66.744071,-513.71761)"
       id="g14543">
      <path
         inkscape:connector-curvature="0"
         fill-rule="evenodd"
         clip-rule="evenodd"
         fill="#169454"
         d="m 110.564,540.387 c 95.896,0 174.245,0 275.442,0 36.198,0 49.351,-56.268 -45.751,-64.12 -21.771,-30.756 -63.582,-48.387 -120.02,-48.387 -82.176,0 -148.479,60.803 -148.479,93.175 0.002,14.797 6.635,19.332 38.808,19.332 z"
         id="path14465" />
      <path
         inkscape:connector-curvature="0"
         fill-rule="evenodd"
         clip-rule="evenodd"
         fill="#148548"
         d="m 94.832,479.555 c 15.08,8.844 47.707,15.704 121.89,16.639 92.126,1.191 154.941,-2.353 190.204,4.848 14.797,18.198 1.276,39.345 -20.919,39.345 -101.197,0 -179.547,0 -275.442,0 -32.174,0 -38.807,-4.535 -38.807,-19.332 0,-11.566 8.447,-26.759 23.074,-41.5 z"
         id="path14467" />
      <path
         inkscape:connector-curvature="0"
         fill-rule="evenodd"
         clip-rule="evenodd"
         fill="#106436"
         d="m 352.671,497.271 c 20.183,0 36.567,16.385 36.567,36.596 v 6.35 c -1.049,0.113 -2.126,0.17 -3.231,0.17 h -69.931 v -6.52 c 0,-20.211 16.384,-36.596 36.595,-36.596 z"
         id="path14469" />
      <path
         inkscape:connector-curvature="0"
         fill-rule="evenodd"
         clip-rule="evenodd"
         fill="#106436"
         d="m 144.296,497.271 c 20.212,0 36.596,16.385 36.596,36.596 v 6.52 h -70.327 c -0.964,0 -1.928,0 -2.835,-0.028 v -6.491 c -0.001,-20.212 16.355,-36.597 36.566,-36.597 z"
         id="path14471" />
      <path
         inkscape:connector-curvature="0"
         fill-rule="evenodd"
         clip-rule="evenodd"
         fill="#221F20"
         d="m 144.296,502.941 c 17.094,0 30.927,13.833 30.927,30.926 0,17.064 -13.833,30.897 -30.927,30.897 -17.064,0 -30.897,-13.833 -30.897,-30.897 -0.001,-17.093 13.832,-30.926 30.897,-30.926 z"
         id="path14473" />
      <path
         inkscape:connector-curvature="0"
         fill-rule="evenodd"
         clip-rule="evenodd"
         fill="#FEFEFE"
         d="m 144.296,512.749 c 11.679,0 21.118,9.439 21.118,21.118 0,11.65 -9.439,21.09 -21.118,21.09 -11.65,0 -21.089,-9.439 -21.089,-21.09 0,-11.679 9.439,-21.118 21.089,-21.118 z m 0,2.296 c 10.403,0 18.822,8.419 18.822,18.822 0,10.375 -8.419,18.794 -18.822,18.794 -10.374,0 -18.793,-8.419 -18.793,-18.794 0,-10.403 8.419,-18.822 18.793,-18.822 z"
         id="path14475" />
      <path
         inkscape:connector-curvature="0"
         fill-rule="evenodd"
         clip-rule="evenodd"
         fill="#221F20"
         d="m 144.296,515.045 c 10.403,0 18.822,8.419 18.822,18.822 0,10.375 -8.419,18.794 -18.822,18.794 -10.374,0 -18.793,-8.419 -18.793,-18.794 0,-10.403 8.419,-18.822 18.793,-18.822 z"
         id="path14477" />
      <path
         inkscape:connector-curvature="0"
         fill-rule="evenodd"
         clip-rule="evenodd"
         fill="#FEFEFE"
         d="m 140.611,533.867 h 3.685 3.714 l -1.19,-20.977 c -0.822,-0.085 -1.673,-0.142 -2.523,-0.142 -0.85,0 -1.7,0.057 -2.522,0.142 z"
         id="path14479" />
      <path
         inkscape:connector-curvature="0"
         fill-rule="evenodd"
         clip-rule="evenodd"
         fill="#FEFEFE"
         d="m 141.688,531.23 2.607,2.637 2.608,2.607 14.003,-15.646 c -1.049,-1.333 -2.239,-2.523 -3.571,-3.572 z"
         id="path14481" />
      <path
         inkscape:connector-curvature="0"
         fill-rule="evenodd"
         clip-rule="evenodd"
         fill="#FEFEFE"
         d="m 144.296,530.153 v 3.714 3.685 l 20.977,-1.162 c 0.085,-0.85 0.142,-1.672 0.142,-2.522 0,-0.879 -0.057,-1.701 -0.142,-2.551 z"
         id="path14483" />
      <path
         inkscape:connector-curvature="0"
         fill-rule="evenodd"
         clip-rule="evenodd"
         fill="#FEFEFE"
         d="m 146.904,531.23 -2.608,2.637 -2.607,2.607 15.647,13.976 c 1.332,-1.049 2.522,-2.24 3.571,-3.572 z"
         id="path14485" />
      <path
         inkscape:connector-curvature="0"
         fill-rule="evenodd"
         clip-rule="evenodd"
         fill="#FEFEFE"
         d="m 148.01,533.867 h -3.714 -3.685 l 1.162,20.948 c 0.822,0.085 1.673,0.142 2.522,0.142 0.851,0 1.701,-0.057 2.523,-0.142 z"
         id="path14487" />
      <path
         inkscape:connector-curvature="0"
         fill-rule="evenodd"
         clip-rule="evenodd"
         fill="#FEFEFE"
         d="m 146.904,536.475 -2.608,-2.607 -2.607,-2.637 -13.975,15.647 c 1.021,1.332 2.239,2.523 3.571,3.572 z"
         id="path14489" />
      <path
         inkscape:connector-curvature="0"
         fill-rule="evenodd"
         clip-rule="evenodd"
         fill="#FEFEFE"
         d="m 144.296,537.552 v -3.685 -3.714 l -20.947,1.163 c -0.085,0.85 -0.142,1.672 -0.142,2.551 0,0.851 0.057,1.673 0.142,2.522 z"
         id="path14491" />
      <path
         inkscape:connector-curvature="0"
         fill-rule="evenodd"
         clip-rule="evenodd"
         fill="#FEFEFE"
         d="m 141.688,536.475 2.607,-2.607 2.608,-2.637 -15.619,-13.975 c -1.332,1.049 -2.551,2.239 -3.571,3.572 z"
         id="path14493" />
      <path
         inkscape:connector-curvature="0"
         fill-rule="evenodd"
         clip-rule="evenodd"
         fill="#221F20"
         d="m 144.296,530.153 c 2.041,0 3.714,1.673 3.714,3.714 0,2.041 -1.673,3.685 -3.714,3.685 -2.04,0 -3.685,-1.644 -3.685,-3.685 0,-2.041 1.645,-3.714 3.685,-3.714 z"
         id="path14495" />
      <path
         inkscape:connector-curvature="0"
         fill-rule="evenodd"
         clip-rule="evenodd"
         fill="#221F20"
         d="m 352.671,502.941 c 17.064,0 30.897,13.833 30.897,30.926 0,17.064 -13.833,30.897 -30.897,30.897 -17.093,0 -30.926,-13.833 -30.926,-30.897 0,-17.093 13.833,-30.926 30.926,-30.926 z"
         id="path14497" />
      <path
         inkscape:connector-curvature="0"
         fill-rule="evenodd"
         clip-rule="evenodd"
         fill="#FEFEFE"
         d="m 352.671,512.749 c 11.65,0 21.09,9.439 21.09,21.118 0,11.65 -9.439,21.09 -21.09,21.09 -11.679,0 -21.118,-9.439 -21.118,-21.09 0,-11.679 9.439,-21.118 21.118,-21.118 z"
         id="path14499" />
      <path
         inkscape:connector-curvature="0"
         fill-rule="evenodd"
         clip-rule="evenodd"
         fill="#221F20"
         d="m 352.671,515.045 c 10.375,0 18.794,8.419 18.794,18.822 0,10.375 -8.419,18.794 -18.794,18.794 -10.403,0 -18.822,-8.419 -18.822,-18.794 0,-10.403 8.419,-18.822 18.822,-18.822 z"
         id="path14501" />
      <path
         inkscape:connector-curvature="0"
         fill-rule="evenodd"
         clip-rule="evenodd"
         fill="#FEFEFE"
         d="m 348.958,533.867 h 3.713 3.686 l -1.162,-20.977 c -0.851,-0.085 -1.673,-0.142 -2.523,-0.142 -0.879,0 -1.7,0.057 -2.551,0.142 z"
         id="path14503" />
      <path
         inkscape:connector-curvature="0"
         fill-rule="evenodd"
         clip-rule="evenodd"
         fill="#FEFEFE"
         d="m 350.035,531.23 2.636,2.637 2.608,2.607 13.975,-15.646 c -1.049,-1.333 -2.239,-2.523 -3.571,-3.572 z"
         id="path14505" />
      <path
         inkscape:connector-curvature="0"
         fill-rule="evenodd"
         clip-rule="evenodd"
         fill="#FEFEFE"
         d="m 352.671,530.153 v 3.714 3.685 l 20.948,-1.162 c 0.085,-0.85 0.142,-1.672 0.142,-2.522 0,-0.879 -0.057,-1.701 -0.142,-2.551 z"
         id="path14507" />
      <path
         inkscape:connector-curvature="0"
         fill-rule="evenodd"
         clip-rule="evenodd"
         fill="#FEFEFE"
         d="m 355.279,531.23 -2.608,2.637 -2.636,2.607 15.647,13.976 c 1.332,-1.049 2.522,-2.24 3.571,-3.572 z"
         id="path14509" />
      <path
         inkscape:connector-curvature="0"
         fill-rule="evenodd"
         clip-rule="evenodd"
         fill="#FEFEFE"
         d="m 356.356,533.867 h -3.686 -3.713 l 1.162,20.948 c 0.851,0.085 1.672,0.142 2.551,0.142 0.851,0 1.673,-0.057 2.523,-0.142 z"
         id="path14511" />
      <path
         inkscape:connector-curvature="0"
         fill-rule="evenodd"
         clip-rule="evenodd"
         fill="#FEFEFE"
         d="m 355.279,536.475 -2.608,-2.607 -2.636,-2.637 -13.975,15.647 c 1.049,1.332 2.239,2.523 3.571,3.572 z"
         id="path14513" />
      <path
         inkscape:connector-curvature="0"
         fill-rule="evenodd"
         clip-rule="evenodd"
         fill="#FEFEFE"
         d="m 352.671,537.552 v -3.685 -3.714 l -20.977,1.163 c -0.085,0.85 -0.142,1.672 -0.142,2.551 0,0.851 0.057,1.673 0.142,2.522 z"
         id="path14515" />
      <path
         inkscape:connector-curvature="0"
         fill-rule="evenodd"
         clip-rule="evenodd"
         fill="#FEFEFE"
         d="m 350.035,536.475 2.636,-2.607 2.608,-2.637 -15.647,-13.975 c -1.332,1.049 -2.522,2.239 -3.571,3.572 z"
         id="path14517" />
      <path
         inkscape:connector-curvature="0"
         fill-rule="evenodd"
         clip-rule="evenodd"
         fill="#221F20"
         d="m 352.671,530.153 c 2.041,0 3.686,1.673 3.686,3.714 0,2.041 -1.645,3.685 -3.686,3.685 -2.041,0 -3.713,-1.644 -3.713,-3.685 0,-2.041 1.672,-3.714 3.713,-3.714 z"
         id="path14519" />
      <path
         inkscape:connector-curvature="0"
         fill-rule="evenodd"
         clip-rule="evenodd"
         fill="#106436"
         d="m 303.887,530.466 c 0.198,-9.383 2.552,-21.146 10.999,-26.391 2.438,-1.531 5.13,-2.324 7.965,-2.523 0,-0.113 0,-0.227 0,-0.34 0.028,-1.105 0.028,-2.211 0.028,-3.288 0,-3.118 0,-6.208 0,-9.326 -0.028,-4.819 -0.057,-9.638 -0.085,-14.457 0,-0.765 0.624,-1.417 1.417,-1.417 0.766,0 1.418,0.624 1.418,1.417 0.028,4.819 0.057,9.637 0.085,14.457 0,3.118 0,6.208 0,9.326 0,1.105 0,2.211 -0.028,3.316 0,0.596 0,1.247 -0.057,1.814 -0.085,0.737 -0.681,1.304 -1.418,1.304 -14.229,0 -17.518,16.242 -17.518,27.524 0,0.794 -0.624,1.417 -1.418,1.417 -30.188,0 -60.378,0 -90.566,0 -2.637,0 -5.471,0.086 -8.079,-0.17 -1.7,-0.17 -3.543,-0.538 -4.79,-1.813 -1.134,-1.163 -1.503,-2.778 -1.673,-4.366 -0.227,-2.211 -0.17,-4.62 -0.17,-6.859 0,-16.696 0,-33.393 0,-50.06 0,-0.793 0.624,-1.417 1.417,-1.417 0.766,0 1.418,0.624 1.418,1.417 0,16.667 0,33.364 0,50.06 0,2.126 -0.085,4.45 0.142,6.576 0.113,0.822 0.283,2.041 0.907,2.665 0.68,0.708 2.126,0.878 3.033,0.992 2.522,0.227 5.272,0.142 7.795,0.142 29.735,0 59.442,0 89.178,0 z"
         id="path14521" />
      <path
         inkscape:connector-curvature="0"
         fill-rule="evenodd"
         clip-rule="evenodd"
         fill="#F28C1F"
         d="m 382.378,491.801 c 2.467,-2.438 8.532,-0.34 13.578,4.706 5.074,5.073 7.172,11.14 4.706,13.606 -2.438,2.438 -8.532,0.34 -13.578,-4.706 -5.046,-5.046 -7.172,-11.139 -4.706,-13.606 z"
         id="path14523" />
      <path
         inkscape:connector-curvature="0"
         fill-rule="evenodd"
         clip-rule="evenodd"
         fill="#F28C1F"
         d="m 102.514,483.382 c -1.814,-1.814 -6.378,-0.255 -10.148,3.543 -3.798,3.771 -5.357,8.306 -3.515,10.148 1.814,1.843 6.378,0.255 10.148,-3.515 3.77,-3.77 5.357,-8.333 3.515,-10.176 z"
         id="path14525" />
      <path
         inkscape:connector-curvature="0"
         fill-rule="evenodd"
         clip-rule="evenodd"
         fill="#EC3822"
         d="m 87.149,502.941 h 8.76 c 1.559,0 2.834,1.275 2.834,2.834 v 1.049 c 0,1.56 -1.275,2.835 -2.834,2.835 h -8.76 c -1.559,0 -2.834,-1.275 -2.834,-2.835 v -1.049 c 0,-1.558 1.276,-2.834 2.834,-2.834 z"
         id="path14527" />
      <path
         inkscape:connector-curvature="0"
         fill-rule="evenodd"
         clip-rule="evenodd"
         fill="#0C1217"
         d="m 329.54,476.267 c -25.653,-31.068 -70.979,-39.883 -109.304,-39.883 -23.272,0 -46.63,5.216 -68.06,14.626 -19.332,8.476 -0.057,25.257 17.546,25.257 z"
         id="path14529" />
      <path
         inkscape:connector-curvature="0"
         fill-rule="evenodd"
         clip-rule="evenodd"
         fill="#0E1C26"
         d="m 323.219,473.433 c -25.625,-26.589 -67.577,-34.214 -102.982,-34.214 -22.961,0 -45.921,5.188 -66.926,14.4 -2.466,1.077 -6.236,3.203 -6.35,6.293 -0.142,2.892 2.722,5.783 4.79,7.398 3.629,2.807 8.334,4.762 12.842,5.613 1.672,0.312 3.401,0.51 5.13,0.51 z"
         id="path14531" />
      <path
         inkscape:connector-curvature="0"
         fill-rule="evenodd"
         clip-rule="evenodd"
         fill="#FEFEFE"
         d="m 224.658,483.212 c 5.925,0 10.715,1.134 10.715,2.523 0,1.389 -4.79,2.522 -10.715,2.522 -5.924,0 -10.743,-1.134 -10.743,-2.522 0,-1.389 4.819,-2.523 10.743,-2.523 z"
         id="path14533" />
      <polygon
         fill-rule="evenodd"
         clip-rule="evenodd"
         fill="#CEE4DC"
         points="174.514,497.499 172.869,494.153 339.093,494.153 298.104,496.279 "
         id="polygon14535" />
      <polygon
         fill-rule="evenodd"
         clip-rule="evenodd"
         fill="#A2D4C0"
         points="297.82,525.505 299.521,528.963 187.609,526.865 197.899,518.22 "
         id="polygon14537" />
      <path
         inkscape:connector-curvature="0"
         fill-rule="evenodd"
         clip-rule="evenodd"
         fill="#8BC4AB"
         d="m 200.195,527.121 -0.028,-0.171 c -0.227,-2.211 -0.17,-4.62 -0.17,-6.859 v -1.729 l 2.835,0.228 v 1.502 c 0,2.126 -0.085,4.45 0.142,6.576 0.028,0.142 0.057,0.312 0.085,0.511 z"
         id="path14539" />
      <path
         inkscape:connector-curvature="0"
         fill-rule="evenodd"
         clip-rule="evenodd"
         fill="#B4DECE"
         d="m 199.997,494.153 h 2.835 v 3.062 l -2.835,0.028 z m 122.882,0 h 2.835 v 0.681 l -2.835,0.17 z"
         id="path14541" />
    </g>
  </g>
</svg>
