<?xml version="1.0" encoding="UTF-8" standalone="no"?>
<svg
   xmlns:dc="http://purl.org/dc/elements/1.1/"
   xmlns:cc="http://creativecommons.org/ns#"
   xmlns:rdf="http://www.w3.org/1999/02/22-rdf-syntax-ns#"
   xmlns:svg="http://www.w3.org/2000/svg"
   xmlns="http://www.w3.org/2000/svg"
   xmlns:sodipodi="http://sodipodi.sourceforge.net/DTD/sodipodi-0.dtd"
   xmlns:inkscape="http://www.inkscape.org/namespaces/inkscape"
   inkscape:version="1.0beta1 (32d4812, 2019-09-19)"
   id="svg13135"
   version="1.1"
   viewBox="0 0 507.99998 285.75001"
   height="1080"
   width="1920">
  <defs
     id="defs13129" />
  <sodipodi:namedview
     inkscape:window-maximized="0"
     inkscape:window-y="82"
     inkscape:window-x="27"
     inkscape:window-height="907"
     inkscape:window-width="1600"
     width="1920px"
     units="px"
     showgrid="false"
     inkscape:document-rotation="0"
     inkscape:current-layer="layer1"
     inkscape:document-units="mm"
     inkscape:cy="560"
     inkscape:cx="704.28571"
     inkscape:zoom="0.35"
     inkscape:pageshadow="2"
     inkscape:pageopacity="0.0"
     borderopacity="1.0"
     bordercolor="#666666"
     pagecolor="#ffffff"
     id="base" />
  <metadata
     id="metadata13132">
    <rdf:RDF>
      <cc:Work
         rdf:about="">
        <dc:format>image/svg+xml</dc:format>
        <dc:type
           rdf:resource="http://purl.org/dc/dcmitype/StillImage" />
        <dc:title></dc:title>
      </cc:Work>
    </rdf:RDF>
  </metadata>
  <g
     id="layer1"
     inkscape:groupmode="layer"
     inkscape:label="Layer 1">
    <g
       transform="matrix(1.3229166,0,0,1.3229166,-132.82081,-219.93488)"
       id="g22437">
      <path
         fill-rule="evenodd"
         clip-rule="evenodd"
         d="M 110,308 H 438.7 L 460,296.9 V 292 h -29 c -1.5,-19 -17.5,-34 -36.9,-34 -19.4,0 -35.4,15 -36.9,34 h -149 c -1.5,-18 -17.1,-33.2 -36.1,-33.2 -19,0 -34.6,15.2 -36.1,33.2 h -26 z"
         id="path15665"
         inkscape:connector-curvature="0"
         style="opacity:1;stop-opacity:1" />
      <path
         fill-rule="evenodd"
         clip-rule="evenodd"
         fill="#FF0000"
         d="m 110,306 h 29.3 c -1,-4 -1.6,-7.2 -1.6,-10.8 0,-18.9 15.3,-34.4 34.2,-34.4 18.9,0 34.2,15.7 34.2,34.6 0,3.6 -0.6,6.7 -1.6,10.7 h 156.8 c -1.1,-4 -1.6,-7.2 -1.6,-10.8 0,-18.9 15.3,-34.4 34.2,-34.4 18.9,0 34.2,15.7 34.2,34.6 0,3.6 -0.6,6.7 -1.6,10.7 h 8.2 l 25.1,-13.8 v -41.6 c -95,-16.4 -98,22.9 -223.5,-0.1 -45.4,-8.3 -92.5,3.4 -126.5,38.2 V 306 Z"
         id="path15667"
         inkscape:connector-curvature="0"
         style="opacity:1;stop-opacity:1" />
      <path
         fill-rule="evenodd"
         clip-rule="evenodd"
         fill="#990000"
         d="m 386.7,221 38.7,12.8 35.6,16.8 c -95.4,-16.4 -98.3,23 -223.8,0 26.4,-15.7 64.7,-29.7 90.5,-29.7 h 59 z"
         id="path15669"
         inkscape:connector-curvature="0"
         style="opacity:1;stop-opacity:1" />
      <path
         fill-rule="evenodd"
         clip-rule="evenodd"
         fill="#C20000"
         d="m 110,289 h 22.2 l 6.2,-0.9 c -0.4,2.2 -0.7,4.9 -0.7,7.2 0,3.6 0.6,6.7 1.6,10.7 H 110 Z m 92.9,-9 23.6,-2.9 107.9,2.4 32.1,-5 c -4.2,5.7 -6.6,13.2 -6.6,20.8 0,3.6 0.5,6.8 1.6,10.8 H 204.6 c 1,-4 1.6,-7.2 1.6,-10.8 0,-5.4 -1.2,-10.9 -3.3,-15.3 z m 210.7,-13 46.4,-7.3 v 32 L 434.9,306 h -8.2 c 1.1,-4 1.4,-7.2 1.4,-10.8 -0.1,-11.4 -5.9,-22 -14.5,-28.2 z"
         id="path15671"
         inkscape:connector-curvature="0"
         style="opacity:1;stop-opacity:1" />
      <path
         fill-rule="evenodd"
         clip-rule="evenodd"
         fill="#333333"
         d="m 172,261.9 c 18.1,0 32.8,14.7 32.8,32.8 0,18.2 -14.7,32.9 -32.8,32.9 -18.2,0 -32.9,-14.7 -32.9,-32.9 0,-18.2 14.7,-32.8 32.9,-32.8 z m 0,13.9 c 10.4,0 18.8,8.4 18.8,18.8 0,10.4 -8.4,18.9 -18.8,18.9 -10.4,0 -18.9,-8.4 -18.9,-18.9 0,-10.3 8.5,-18.8 18.9,-18.8 z"
         id="path15673"
         inkscape:connector-curvature="0"
         style="opacity:1;stop-opacity:1" />
      <path
         fill-rule="evenodd"
         clip-rule="evenodd"
         fill="#CCCCCC"
         d="m 172,272.4 c 12.3,0 22.3,10 22.3,22.3 0,12.3 -10,22.3 -22.3,22.3 -12.3,0 -22.3,-10 -22.3,-22.3 0,-12.3 10,-22.3 22.3,-22.3 z m 2,4.8 v 12.9 l 9.1,-9.1 c -2.6,-2.1 -6.1,-3.4 -9.1,-3.8 z m 11.7,7.7 -9.1,9.1 h 12.9 c -0.4,-4 -1.8,-6.6 -3.8,-9.1 z m 3.8,12.1 h -12.9 l 9.1,9.1 c 2,-2.6 3.4,-5.1 3.8,-9.1 z m -6.4,11.4 -9.1,-9.1 v 12.9 c 3,-0.4 6.5,-1.7 9.1,-3.8 z m -13.1,3.8 v -12.9 l -9.1,9.1 c 2.6,2.1 6.1,3.4 9.1,3.8 z m -11.7,-6.1 9.1,-9.1 h -12.9 c 0.4,4 1.7,6.5 3.8,9.1 z M 154.5,294 h 12.9 l -9.1,-9.1 c -2.1,2.5 -3.4,5.1 -3.8,9.1 z m 6.4,-13 9.1,9.1 v -12.9 c -3,0.4 -6.5,1.7 -9.1,3.8 z"
         id="path15675"
         inkscape:connector-curvature="0"
         style="opacity:1;stop-opacity:1" />
      <path
         fill-rule="evenodd"
         clip-rule="evenodd"
         fill="#333333"
         d="m 394,261.9 c 18.1,0 32.9,14.7 32.9,32.8 0,18.2 -14.7,32.9 -32.9,32.9 -18.1,0 -32.9,-14.7 -32.9,-32.9 0.1,-18.2 14.8,-32.8 32.9,-32.8 z m 0,13.9 c 10.4,0 18.9,8.4 18.9,18.8 0,10.4 -8.4,18.9 -18.9,18.9 -10.4,0 -18.9,-8.4 -18.9,-18.9 0.1,-10.3 8.5,-18.8 18.9,-18.8 z"
         id="path15677"
         inkscape:connector-curvature="0"
         style="opacity:1;stop-opacity:1" />
      <path
         fill-rule="evenodd"
         clip-rule="evenodd"
         fill="#CCCCCC"
         d="m 394,272.4 c 12.3,0 22.3,10 22.3,22.3 0,12.3 -9.9,22.3 -22.3,22.3 -12.3,0 -22.3,-10 -22.3,-22.3 0.1,-12.3 10.1,-22.3 22.3,-22.3 z m 1,4.8 v 12.9 l 9.1,-9.1 c -2.5,-2.1 -5.1,-3.4 -9.1,-3.8 z m 12.8,7.7 -9.1,9.1 h 12.9 c -0.4,-4 -1.8,-6.6 -3.8,-9.1 z m 3.7,12.1 h -12.9 l 9.1,9.1 c 2.1,-2.6 3.5,-5.1 3.8,-9.1 z m -7.4,11.4 -9.1,-9.1 v 12.9 c 4,-0.4 6.6,-1.7 9.1,-3.8 z m -13.1,3.8 v -12.9 l -9.1,9.1 c 2.5,2.1 7.1,3.4 9.1,3.8 z m -10.7,-6.1 9.1,-9.1 h -12.9 c 0.4,4 1.8,6.5 3.8,9.1 z M 376.5,294 h 12.9 l -9.1,-9.1 c -2,2.5 -3.4,5.1 -3.8,9.1 z m 5.4,-13 9.1,9.1 v -12.9 c -2,0.4 -6.6,1.7 -9.1,3.8 z"
         id="path15679"
         inkscape:connector-curvature="0"
         style="opacity:1;stop-opacity:1" />
      <path
         fill-rule="evenodd"
         clip-rule="evenodd"
         d="m 386.7,226 17.1,21.4 c -27.4,1.7 -47.4,8.8 -77.8,10.7 l 5.2,-32.2 h 55.5 z"
         id="path15681"
         inkscape:connector-curvature="0"
         style="opacity:1;stop-opacity:1" />
      <path
         fill-rule="evenodd"
         clip-rule="evenodd"
         d="m 322.1,257.6 c -20.2,1 -45,-0.1 -79.3,-6.1 25.9,-14.3 60.8,-26.8 84.8,-26.6 z"
         id="path15683"
         inkscape:connector-curvature="0"
         style="opacity:1;stop-opacity:1" />
      <polygon
         fill-rule="evenodd"
         clip-rule="evenodd"
         fill="#FF0000"
         points="475,233 470.8,242 424.6,242 428.7,233 "
         id="polygon15685"
         style="opacity:1;stop-opacity:1" />
      <path
         fill-rule="evenodd"
         clip-rule="evenodd"
         fill="#C20000"
         d="m 435.5,242 h 31.3 l -12.1,6.1 c -8.3,-1.3 -17.5,-1.9 -27.8,-2.1 z"
         id="path15687"
         inkscape:connector-curvature="0"
         style="opacity:1;stop-opacity:1" />
      <path
         fill-rule="evenodd"
         clip-rule="evenodd"
         fill="#FFFF00"
         d="m 110,291 h 15 c 1.4,0 2,0.9 2,2.3 v 4.1 c 0,1.5 -0.7,3.6 -2.1,3.6 H 110 Z"
         id="path15689"
         inkscape:connector-curvature="0"
         style="opacity:1;stop-opacity:1" />
      <path
         fill-rule="evenodd"
         clip-rule="evenodd"
         fill="#FFFF00"
         d="m 460,265 h -6.7 c -1.6,0 -2.3,0.6 -2.3,2.2 v 11.9 c 0,1.7 0.8,3.9 2.5,3.9 h 6.5 z"
         id="path15691"
         inkscape:connector-curvature="0"
         style="opacity:1;stop-opacity:1" />
      <path
         d="m 326.3,257 13.8,9.7 0.3,0.2 -0.1,0.3 -15.2,38 -0.9,-0.3 15,-37.6 -13.5,-9.4 z m -95.1,48 c 0.3,-6.6 0.1,-13.6 -1.9,-20.4 -2,-6.9 -5.7,-13.7 -12.4,-20 l -0.5,-0.4 0.6,-0.3 22.5,-13.2 0.5,0.8 -22,12.9 c 6.6,6.4 10.3,13.2 12.2,20 2,7 2.2,14.1 1.9,20.7 z"
         id="path15693"
         inkscape:connector-curvature="0"
         style="opacity:1;stop-opacity:1" />
      <path
         fill-rule="evenodd"
         clip-rule="evenodd"
         fill="#4D4D4D"
         d="m 204,282.5 104,-19 -54.8,19.1 167.6,-31.8 -180.7,55.2 h -35.5 c 1,-4 1.6,-7.2 1.6,-10.8 0,-4.3 -0.8,-8.9 -2.2,-12.7 z m 112.1,23.5 43.8,-13 c -0.1,0.7 -0.1,1.2 -0.1,2 0,2.2 0.2,4.8 0.6,6.8 l -9.7,4.2 z m 105.8,-31.2 16.3,-4.7 -15.3,6.1 c -0.4,-0.5 -0.7,-0.9 -1,-1.4 z"
         id="path15695"
         inkscape:connector-curvature="0"
         style="opacity:1;stop-opacity:1" />
      <path
         fill-rule="evenodd"
         clip-rule="evenodd"
         fill="#1A1A1A"
         d="m 203.9,282.5 29.1,-5.3 33.4,0.7 -13.3,4.7 22.9,-4.4 49.1,1.6 -85,26.3 h -35.5 c 1,-4 1.4,-7.7 1.4,-11.3 v -0.2 -0.1 -0.2 -0.1 -0.2 -0.1 -0.1 -0.1 -0.2 0 -0.1 -0.1 -0.1 -0.1 -0.1 -0.1 -0.1 0 -0.2 c 0,-0.1 0,-0.2 0,-0.4 v 0 c -1,-3.5 -0.9,-6.7 -2.1,-9.7 z M 359.5,293 c 0,0.6 -0.5,0.6 -0.5,1.1 v 0 0 0 0.1 0 0.1 c 0,0.1 0,0.2 0,0.3 v 0.1 0.1 0 0.1 0 0 0.1 0 0 0.1 0 0 0.1 0 0.1 0.1 0 0.1 0 0.1 0 0.1 0 0 0.1 0 0 0.1 0 0 0.1 0 0 0.1 0.1 0 0.1 0 0 0.1 0 0 0.1 0 0 0.1 0 0.1 0.1 0 0.1 0.1 0 0.1 0 0.1 0 0.1 0 0.1 0 0.1 0.1 0 0.1 0 0.1 0.1 0 0.1 0 0.1 0.1 0 0.1 0.1 0 0.1 0 0.1 0.1 0.1 0 l 1,0.1 v 0 0.1 0.1 0 0.1 0 0.1 0.1 0.1 0 0.1 0.1 0 0.1 0.1 0.1 0.2 0.1 l 0.2,0.6 -9.5,4.4 H 316 Z m 62.4,-18.2 16.3,-4.7 -15.3,6.1 c -0.4,-0.5 -0.7,-0.9 -1,-1.4 z"
         id="path15697"
         inkscape:connector-curvature="0"
         style="opacity:1;stop-opacity:1" />
      <path
         fill-rule="evenodd"
         clip-rule="evenodd"
         fill="#FFFFFF"
         d="m 231.5,306 h -26.9 c 0.8,-4 1.4,-6.1 1.5,-9 l 147.3,-28.1 z m -25.3,-12.7 c -0.1,-1.9 -0.3,-3.8 -0.7,-5.6 l 35.2,-6.4 z m 119.6,12.7 34.1,-10.2 c 0,0.9 0.1,2.2 0.1,3.1 l -17.2,7.1 z"
         id="path15699"
         inkscape:connector-curvature="0"
         style="opacity:1;stop-opacity:1" />
      <path
         fill-rule="evenodd"
         clip-rule="evenodd"
         fill="#999999"
         d="m 231.5,306 h -26.3 c 0.5,-2 0.8,-4.6 0.9,-6.7 l 126.1,-24 z m -25.6,-16 20.6,-3.7 -20.4,7.1 c 0,-1.2 -0.1,-2.3 -0.2,-3.4 z m 128.1,16 25,-8.4 c 0,0.2 0,0.4 0,0.6 l -16.2,7.8 z"
         id="path15701"
         inkscape:connector-curvature="0"
         style="opacity:1;stop-opacity:1" />
    </g>
  </g>
</svg>
