<?xml version="1.0" encoding="UTF-8" standalone="no"?>
<svg
   xmlns:dc="http://purl.org/dc/elements/1.1/"
   xmlns:cc="http://creativecommons.org/ns#"
   xmlns:rdf="http://www.w3.org/1999/02/22-rdf-syntax-ns#"
   xmlns:svg="http://www.w3.org/2000/svg"
   xmlns="http://www.w3.org/2000/svg"
   xmlns:sodipodi="http://sodipodi.sourceforge.net/DTD/sodipodi-0.dtd"
   xmlns:inkscape="http://www.inkscape.org/namespaces/inkscape"
   inkscape:version="1.0beta1 (32d4812, 2019-09-19)"
   id="svg13135"
   version="1.1"
   viewBox="0 0 507.99998 285.75001"
   height="1080"
   width="1920">
  <defs
     id="defs13129" />
  <sodipodi:namedview
     inkscape:window-maximized="0"
     inkscape:window-y="82"
     inkscape:window-x="27"
     inkscape:window-height="907"
     inkscape:window-width="1600"
     width="1920px"
     units="px"
     showgrid="false"
     inkscape:document-rotation="0"
     inkscape:current-layer="layer1"
     inkscape:document-units="mm"
     inkscape:cy="560"
     inkscape:cx="704.28571"
     inkscape:zoom="0.35"
     inkscape:pageshadow="2"
     inkscape:pageopacity="0.0"
     borderopacity="1.0"
     bordercolor="#666666"
     pagecolor="#ffffff"
     id="base" />
  <metadata
     id="metadata13132">
    <rdf:RDF>
      <cc:Work
         rdf:about="">
        <dc:format>image/svg+xml</dc:format>
        <dc:type
           rdf:resource="http://purl.org/dc/dcmitype/StillImage" />
        <dc:title></dc:title>
      </cc:Work>
    </rdf:RDF>
  </metadata>
  <g
     id="layer1"
     inkscape:groupmode="layer"
     inkscape:label="Layer 1">
    <g
       transform="matrix(1.3229166,0,0,1.3229166,-1279.3734,-513.72001)"
       id="g14917">
      <path
         inkscape:connector-curvature="0"
         fill-rule="evenodd"
         clip-rule="evenodd"
         fill="#221F20"
         d="m 1107.991,459.032 c 11.055,1.446 13.861,7.569 14.712,18.114 0.85,10.517 -7.398,5.386 -9.524,5.386 -2.098,0 -28.545,-7.909 -26.958,-11.594 1.616,-3.713 15.392,-11.367 21.77,-11.906 z"
         id="path14823" />
      <path
         inkscape:connector-curvature="0"
         fill-rule="evenodd"
         clip-rule="evenodd"
         fill="#221F20"
         d="m 1126.501,457.927 h 3.459 c 3.118,0 5.669,2.551 5.669,5.669 v 13.266 c 0,3.118 -2.551,5.669 -5.669,5.669 h -3.459 c -3.118,0 -5.669,-2.551 -5.669,-5.669 v -13.266 c 0,-3.118 2.551,-5.669 5.669,-5.669 z"
         id="path14825" />
      <path
         inkscape:connector-curvature="0"
         fill-rule="evenodd"
         clip-rule="evenodd"
         fill="#2A9E82"
         d="m 1007.588,534.689 c 99.553,0 199.077,0 298.63,0 23.981,0 35.348,0.028 35.348,-11.254 0,-10.545 0,-11.99 0,-22.535 0,-7.994 -66.585,-26.986 -89.149,-26.986 -15.278,-10.715 -48.558,-28.063 -62.078,-31.323 -4.224,-0.964 -16.753,7.001 -11.736,10.063 4.479,2.722 33.223,18.822 39.005,22.961 -12.982,1.389 -111.798,1.275 -109.615,-16.583 -24.747,-3.486 -101.537,8.277 -115.767,12.444 -6.095,1.786 -9.383,14.513 -9.383,19.814 0,7.88 -6.236,12.217 -6.236,20.239 -0.002,4.253 6.914,23.16 30.981,23.16 z"
         id="path14827" />
      <path
         inkscape:connector-curvature="0"
         fill-rule="evenodd"
         clip-rule="evenodd"
         fill="#229275"
         d="m 983.295,486.981 c 27.666,2.297 131.329,8.93 194.315,8.93 49.747,0 119.849,2.892 163.955,9.298 v 18.227 c 0,11.282 -11.366,11.254 -35.348,11.254 -99.553,0 -199.077,0 -298.63,0 -24.066,0 -30.982,-18.907 -30.982,-23.159 0,-8.022 6.236,-12.359 6.236,-20.239 10e-4,-1.163 0.142,-2.666 0.454,-4.311 z"
         id="path14829" />
      <path
         inkscape:connector-curvature="0"
         fill-rule="evenodd"
         clip-rule="evenodd"
         fill="#1A6B55"
         d="m 1103.115,463.285 c -6.123,-0.425 -13.067,-0.114 -18.766,0.198 -10.602,0.595 -21.26,1.644 -31.775,2.891 -12.161,1.446 -24.322,3.146 -36.369,5.159 -4.592,0.766 -9.213,1.587 -13.776,2.495 -2.438,0.539 -5.669,-0.51 -8.872,-2.92 17.008,-4.422 89.461,-15.335 113.98,-12.132 -1.275,2.891 -2.721,4.479 -4.422,4.309 z"
         id="path14831" />
      <path
         inkscape:connector-curvature="0"
         fill-rule="evenodd"
         clip-rule="evenodd"
         fill="#0C1217"
         d="m 1184.13,450.132 c 1.729,1.021 3.515,2.013 5.244,3.004 4.139,2.381 8.276,4.734 12.387,7.115 3.912,2.239 7.796,4.507 11.65,6.803 2.608,1.587 5.442,3.231 7.909,4.989 0.736,0.539 1.275,1.162 1.615,1.871 h 20.438 c 3.175,0 5.641,-0.369 7.54,-1.021 -13.635,-9.27 -38.892,-22.649 -54.028,-28.233 -5.612,1.531 -10.261,3.431 -12.755,5.472 z"
         id="path14833" />
      <path
         inkscape:connector-curvature="0"
         fill-rule="evenodd"
         clip-rule="evenodd"
         fill="#1A6B55"
         d="m 1051.241,482.645 c 20.211,0 36.596,16.384 36.596,36.595 v 15.449 h -73.19 V 519.24 c 0,-20.211 16.383,-36.595 36.594,-36.595 z"
         id="path14835" />
      <path
         inkscape:connector-curvature="0"
         fill-rule="evenodd"
         clip-rule="evenodd"
         fill="#1A6B55"
         d="m 1259.588,482.645 c 20.211,0 36.596,16.384 36.596,36.595 v 15.449 h -73.191 V 519.24 c -10e-4,-20.211 16.384,-36.595 36.595,-36.595 z"
         id="path14837" />
      <path
         inkscape:connector-curvature="0"
         fill-rule="evenodd"
         clip-rule="evenodd"
         fill="#221F20"
         d="m 1259.588,488.314 c 17.093,0 30.926,13.833 30.926,30.926 0,17.064 -13.833,30.897 -30.926,30.897 -17.064,0 -30.926,-13.833 -30.926,-30.897 0,-17.093 13.861,-30.926 30.926,-30.926 z"
         id="path14839" />
      <path
         inkscape:connector-curvature="0"
         fill-rule="evenodd"
         clip-rule="evenodd"
         fill="#FFFFFF"
         d="m 1259.588,498.122 c 11.65,0 21.118,9.439 21.118,21.118 0,11.65 -9.468,21.09 -21.118,21.09 -11.65,0 -21.09,-9.439 -21.09,-21.09 0,-11.678 9.44,-21.118 21.09,-21.118 z"
         id="path14841" />
      <path
         inkscape:connector-curvature="0"
         fill-rule="evenodd"
         clip-rule="evenodd"
         fill="#221F20"
         d="m 1259.588,500.418 c 10.403,0 18.822,8.419 18.822,18.822 0,10.375 -8.419,18.794 -18.822,18.794 -10.375,0 -18.822,-8.419 -18.822,-18.794 0,-10.403 8.447,-18.822 18.822,-18.822 z"
         id="path14843" />
      <path
         inkscape:connector-curvature="0"
         fill-rule="evenodd"
         clip-rule="evenodd"
         fill="#FFFFFF"
         d="m 1255.902,519.24 h 3.686 3.713 l -1.19,-20.977 c -0.821,-0.085 -1.672,-0.142 -2.522,-0.142 -0.85,0 -1.701,0.057 -2.522,0.142 z"
         id="path14845" />
      <path
         inkscape:connector-curvature="0"
         fill-rule="evenodd"
         clip-rule="evenodd"
         fill="#FFFFFF"
         d="m 1256.98,516.604 2.607,2.636 2.607,2.608 14.004,-15.647 c -1.049,-1.332 -2.239,-2.523 -3.572,-3.572 z"
         id="path14847" />
      <path
         inkscape:connector-curvature="0"
         fill-rule="evenodd"
         clip-rule="evenodd"
         fill="#FFFFFF"
         d="m 1259.588,515.527 v 3.713 3.686 l 20.948,-1.162 c 0.113,-0.851 0.17,-1.673 0.17,-2.523 0,-0.879 -0.057,-1.7 -0.17,-2.551 z"
         id="path14849" />
      <path
         inkscape:connector-curvature="0"
         fill-rule="evenodd"
         clip-rule="evenodd"
         fill="#FFFFFF"
         d="m 1262.195,516.604 -2.607,2.636 -2.607,2.608 15.646,13.975 c 1.333,-1.049 2.523,-2.239 3.572,-3.572 z"
         id="path14851" />
      <path
         inkscape:connector-curvature="0"
         fill-rule="evenodd"
         clip-rule="evenodd"
         fill="#FFFFFF"
         d="m 1263.301,519.24 h -3.713 -3.686 l 1.163,20.948 c 0.821,0.085 1.672,0.142 2.522,0.142 0.85,0 1.701,-0.057 2.522,-0.142 z"
         id="path14853" />
      <path
         inkscape:connector-curvature="0"
         fill-rule="evenodd"
         clip-rule="evenodd"
         fill="#FFFFFF"
         d="m 1262.195,521.849 -2.607,-2.608 -2.607,-2.636 -14.004,15.646 c 1.049,1.333 2.268,2.523 3.572,3.572 z"
         id="path14855" />
      <path
         inkscape:connector-curvature="0"
         fill-rule="evenodd"
         clip-rule="evenodd"
         fill="#FFFFFF"
         d="m 1259.588,522.926 v -3.686 -3.713 l -20.948,1.162 c -0.113,0.851 -0.142,1.672 -0.142,2.551 0,0.851 0.028,1.673 0.142,2.523 z"
         id="path14857" />
      <path
         inkscape:connector-curvature="0"
         fill-rule="evenodd"
         clip-rule="evenodd"
         fill="#FFFFFF"
         d="m 1256.98,521.849 2.607,-2.608 2.607,-2.636 -15.646,-13.976 c -1.305,1.049 -2.523,2.24 -3.572,3.572 z"
         id="path14859" />
      <path
         inkscape:connector-curvature="0"
         fill-rule="evenodd"
         clip-rule="evenodd"
         fill="#221F20"
         d="m 1259.588,515.527 c 2.041,0 3.713,1.672 3.713,3.713 0,2.041 -1.672,3.686 -3.713,3.686 -2.041,0 -3.686,-1.645 -3.686,-3.686 0,-2.041 1.645,-3.713 3.686,-3.713 z"
         id="path14861" />
      <path
         inkscape:connector-curvature="0"
         fill-rule="evenodd"
         clip-rule="evenodd"
         fill="#1A6B55"
         d="m 1123.185,470.371 c -5.641,5.244 -10.602,13.294 -13.266,20.494 -3.231,8.675 -4.195,18.681 1.304,26.646 0.68,0.681 4.677,1.418 5.641,1.56 4.337,0.737 8.816,1.162 13.182,1.502 12.643,1.049 25.398,1.531 38.069,1.928 18.255,0.567 36.595,0.879 54.878,0.964 v 2.835 c -18.312,-0.085 -36.68,-0.397 -54.963,-0.964 -12.898,-0.396 -25.909,-0.907 -38.75,-1.984 -4.45,-0.368 -9.015,-0.794 -13.408,-1.559 -1.814,-0.341 -5.839,-1.021 -6.944,-2.637 -1.928,-2.778 -3.231,-5.839 -3.884,-9.156 -1.389,-6.689 -0.142,-13.776 2.211,-20.125 2.722,-7.342 7.653,-15.449 13.408,-21.005 0.936,0.284 1.928,0.567 2.948,0.822 -0.058,0.254 -0.2,0.481 -0.426,0.679 z"
         id="path14863" />
      <path
         inkscape:connector-curvature="0"
         fill-rule="evenodd"
         clip-rule="evenodd"
         fill="#1A6B55"
         d="m 1216.246,475.729 12.841,23.301 c -0.595,0.907 -1.162,1.843 -1.7,2.807 l -13.947,-25.313 c -0.113,-0.199 -0.17,-0.425 -0.17,-0.624 1.133,-0.058 2.154,-0.115 2.976,-0.171 z"
         id="path14865" />
      <path
         inkscape:connector-curvature="0"
         fill-rule="evenodd"
         clip-rule="evenodd"
         fill="#F28C1F"
         d="m 1307.578,496.081 27.241,4.678 c 1.304,0.227 2.409,1.049 2.409,2.353 v 6.576 c 0,1.304 -1.077,2.353 -2.409,2.353 h -27.241 c -1.332,0 -2.409,-1.049 -2.409,-2.353 v -11.253 c 0,-1.305 1.105,-2.581 2.409,-2.354 z"
         id="path14867" />
      <path
         inkscape:connector-curvature="0"
         fill-rule="evenodd"
         clip-rule="evenodd"
         fill="#1A6B55"
         d="m 1341.565,514.053 h -19.219 c -1.559,0 -2.834,1.049 -2.834,2.353 v 5.188 c 0,1.305 1.275,2.354 2.834,2.354 h 19.19 c 0.028,-0.171 0.028,-0.341 0.028,-0.511 v -9.384 z"
         id="path14869" />
      <path
         inkscape:connector-curvature="0"
         fill-rule="evenodd"
         clip-rule="evenodd"
         fill="#F28C1F"
         d="m 984.372,482.532 h 14.769 c 1.559,0 2.835,1.049 2.835,2.352 v 11.027 c 0,1.304 -1.276,2.381 -2.835,2.381 h -17.943 c 0.936,-2.126 1.645,-4.365 1.645,-7.001 -10e-4,-2.126 0.509,-5.442 1.529,-8.759 z"
         id="path14871" />
      <path
         inkscape:connector-curvature="0"
         fill-rule="evenodd"
         clip-rule="evenodd"
         fill="#1A6B55"
         d="m 1135.742,481.256 c 5.925,0 10.743,1.134 10.743,2.522 0,1.418 -4.818,2.552 -10.743,2.552 -5.925,0 -10.715,-1.134 -10.715,-2.552 0,-1.388 4.79,-2.522 10.715,-2.522 z"
         id="path14873" />
      <path
         inkscape:connector-curvature="0"
         fill-rule="evenodd"
         clip-rule="evenodd"
         fill="#122836"
         d="m 1190.252,450.132 c 1.758,1.021 3.516,2.013 5.244,3.004 4.139,2.381 8.277,4.734 12.416,7.115 3.884,2.239 7.768,4.507 11.622,6.803 2.637,1.587 5.471,3.231 7.909,4.989 0.736,0.539 1.275,1.162 1.615,1.871 h 20.467 c 0.963,0 1.898,-0.028 2.749,-0.085 -12.16,-8.532 -35.519,-21.118 -51.363,-27.609 -4.564,0.964 -8.618,2.239 -10.659,3.912 z"
         id="path14875" />
      <polygon
         fill-rule="evenodd"
         clip-rule="evenodd"
         fill="#A7DDDA"
         points="1211.824,517.568 1213.553,521.026 1101.613,518.929 1111.902,510.283 "
         id="polygon14877" />
      <path
         inkscape:connector-curvature="0"
         fill-rule="evenodd"
         clip-rule="evenodd"
         fill="#97D6CC"
         d="m 1117.799,519.24 -8.929,-0.17 c -0.936,-1.36 -1.729,-2.778 -2.354,-4.252 l 2.297,-1.928 c 0.595,1.588 1.389,3.146 2.409,4.62 0.68,0.681 4.677,1.418 5.641,1.56 0.313,0.057 0.624,0.114 0.936,0.17 z"
         id="path14879" />
      <polygon
         fill-rule="evenodd"
         clip-rule="evenodd"
         fill="#CFECEB"
         points="1065.273,482.191 1063.912,478.733 1229.626,491.461 1188.637,490.44 "
         id="polygon14881" />
      <path
         inkscape:connector-curvature="0"
         fill-rule="evenodd"
         clip-rule="evenodd"
         fill="#B3E1D7"
         d="m 1110.712,482.333 3.09,0.227 c -0.51,0.935 -1.021,1.842 -1.474,2.778 l -3.062,-0.198 c 0.455,-0.936 0.936,-1.871 1.446,-2.807 z"
         id="path14883" />
      <path
         inkscape:connector-curvature="0"
         fill-rule="evenodd"
         clip-rule="evenodd"
         fill="#B3E1D7"
         d="m 1125.112,483.438 20.098,1.531 c -1.814,0.822 -5.386,1.36 -9.468,1.36 -5.925,0 -10.715,-1.134 -10.715,-2.552 0,-0.112 0.029,-0.225 0.085,-0.339 z"
         id="path14885" />
      <path
         inkscape:connector-curvature="0"
         fill-rule="evenodd"
         clip-rule="evenodd"
         fill="#D97924"
         d="m 983.295,486.981 -0.057,0.228 v 0.085 0.057 h -0.028 l -0.028,0.227 v 0.057 l -0.057,0.256 v 0.027 0.113 0.029 l -0.028,0.057 v 0.057 0.028 l -0.028,0.057 v 0.057 0.028 0.113 l -0.028,0.028 v 0.057 0.057 0.028 l -0.028,0.086 v 0.057 0.057 0.027 l -0.028,0.057 v 0.057 0.086 0.057 l -0.028,0.085 v 0.028 0.028 0.057 0.057 0.028 l -0.028,0.057 v 0.028 0.057 0.057 0.028 0.028 l -0.028,0.085 v 0.057 0.057 0.113 0.029 l -0.028,0.057 v 0.028 0.028 0.057 0.057 0.028 0.057 0.028 0.028 0.057 0.028 l -0.028,0.028 v 0.057 0.028 0.057 0.028 0.028 0.057 0.028 0.028 0.057 0.028 0.028 0.057 0.028 0.028 0.058 0.057 0.057 0.057 0.057 c 0,0.113 0,0.227 0,0.34 v 0.028 c -0.028,0.113 -0.028,0.227 -0.028,0.34 v 0.028 c 0,0.114 0,0.228 -0.028,0.341 0,0.113 0,0.227 -0.028,0.34 v 0.028 c 0,0.113 -0.028,0.198 -0.028,0.312 v 0.028 c -0.029,0.114 -0.029,0.199 -0.058,0.313 v 0.028 c 0,0.113 -0.028,0.198 -0.028,0.312 l -0.028,0.028 c 0,0.113 -0.028,0.198 -0.057,0.312 v 0.028 c 0,0.085 -0.028,0.171 -0.057,0.256 l -0.028,0.113 -0.028,0.227 -0.028,0.113 -0.057,0.198 -0.028,0.142 -0.057,0.171 -0.028,0.142 -0.028,0.057 -0.028,0.113 v 0.028 l -0.028,0.085 -0.028,0.085 -0.028,0.113 -0.028,0.028 -0.028,0.085 -0.028,0.085 -0.028,0.113 v 0.028 l -0.028,0.086 -0.028,0.085 -0.057,0.113 -0.057,0.198 -0.057,0.113 -0.057,0.198 -0.058,0.113 -0.057,0.199 h -0.028 l -0.113,0.312 -0.028,0.085 -0.085,0.198 -0.057,0.113 -0.085,0.198 h 17.943 c 1.559,0 2.835,-1.077 2.835,-2.381 v -7.54 c -7.859,-0.539 -14.265,-1.021 -18.687,-1.391 z"
         id="path14887" />
      <path
         inkscape:connector-curvature="0"
         fill-rule="evenodd"
         clip-rule="evenodd"
         fill="#D97924"
         d="m 1305.169,501.127 c 11.509,1.021 22.337,2.183 32.06,3.486 v 5.074 c 0,1.304 -1.077,2.353 -2.409,2.353 h -27.241 c -1.332,0 -2.409,-1.049 -2.409,-2.353 v -8.56 z"
         id="path14889" />
      <g
         id="g14915">
        <path
           inkscape:connector-curvature="0"
           fill-rule="evenodd"
           clip-rule="evenodd"
           fill="#221F20"
           d="m 1051.241,488.314 c 17.064,0 30.926,13.833 30.926,30.926 0,17.064 -13.861,30.897 -30.926,30.897 -17.093,0 -30.926,-13.833 -30.926,-30.897 0,-17.093 13.833,-30.926 30.926,-30.926 z"
           id="path14891" />
        <path
           inkscape:connector-curvature="0"
           fill-rule="evenodd"
           clip-rule="evenodd"
           fill="#FFFFFF"
           d="m 1051.241,498.122 c 11.65,0 21.118,9.439 21.118,21.118 0,11.65 -9.468,21.09 -21.118,21.09 -11.65,0 -21.118,-9.439 -21.118,-21.09 0,-11.678 9.468,-21.118 21.118,-21.118 z"
           id="path14893" />
        <path
           inkscape:connector-curvature="0"
           fill-rule="evenodd"
           clip-rule="evenodd"
           fill="#221F20"
           d="m 1051.241,500.418 c 10.375,0 18.822,8.419 18.822,18.822 0,10.375 -8.447,18.794 -18.822,18.794 -10.403,0 -18.821,-8.419 -18.821,-18.794 0,-10.403 8.418,-18.822 18.821,-18.822 z"
           id="path14895" />
        <path
           inkscape:connector-curvature="0"
           fill-rule="evenodd"
           clip-rule="evenodd"
           fill="#FFFFFF"
           d="m 1047.557,519.24 h 3.685 3.686 l -1.162,-20.977 c -0.822,-0.085 -1.673,-0.142 -2.523,-0.142 -0.85,0 -1.7,0.057 -2.522,0.142 z"
           id="path14897" />
        <path
           inkscape:connector-curvature="0"
           fill-rule="evenodd"
           clip-rule="evenodd"
           fill="#FFFFFF"
           d="m 1048.634,516.604 2.607,2.636 2.608,2.608 14.003,-15.647 c -1.049,-1.332 -2.268,-2.523 -3.571,-3.572 z"
           id="path14899" />
        <path
           inkscape:connector-curvature="0"
           fill-rule="evenodd"
           clip-rule="evenodd"
           fill="#FFFFFF"
           d="m 1051.241,515.527 v 3.713 3.686 l 20.948,-1.162 c 0.113,-0.851 0.17,-1.673 0.17,-2.523 0,-0.879 -0.057,-1.7 -0.17,-2.551 z"
           id="path14901" />
        <path
           inkscape:connector-curvature="0"
           fill-rule="evenodd"
           clip-rule="evenodd"
           fill="#FFFFFF"
           d="m 1053.85,516.604 -2.608,2.636 -2.607,2.608 15.647,13.975 c 1.304,-1.049 2.522,-2.239 3.571,-3.572 z"
           id="path14903" />
        <path
           inkscape:connector-curvature="0"
           fill-rule="evenodd"
           clip-rule="evenodd"
           fill="#FFFFFF"
           d="m 1054.927,519.24 h -3.686 -3.685 l 1.162,20.948 c 0.822,0.085 1.672,0.142 2.522,0.142 0.85,0 1.701,-0.057 2.523,-0.142 z"
           id="path14905" />
        <path
           inkscape:connector-curvature="0"
           fill-rule="evenodd"
           clip-rule="evenodd"
           fill="#FFFFFF"
           d="m 1053.85,521.849 -2.608,-2.608 -2.607,-2.636 -14.003,15.646 c 1.049,1.333 2.239,2.523 3.571,3.572 z"
           id="path14907" />
        <path
           inkscape:connector-curvature="0"
           fill-rule="evenodd"
           clip-rule="evenodd"
           fill="#FFFFFF"
           d="m 1051.241,522.926 v -3.686 -3.713 l -20.948,1.162 c -0.113,0.851 -0.17,1.672 -0.17,2.551 0,0.851 0.057,1.673 0.17,2.523 z"
           id="path14909" />
        <path
           inkscape:connector-curvature="0"
           fill-rule="evenodd"
           clip-rule="evenodd"
           fill="#FFFFFF"
           d="m 1048.634,521.849 2.607,-2.608 2.608,-2.636 -15.647,-13.976 c -1.332,1.049 -2.522,2.24 -3.571,3.572 z"
           id="path14911" />
        <path
           inkscape:connector-curvature="0"
           fill-rule="evenodd"
           clip-rule="evenodd"
           fill="#221F20"
           d="m 1051.241,515.527 c 2.041,0 3.686,1.672 3.686,3.713 0,2.041 -1.645,3.686 -3.686,3.686 -2.041,0 -3.685,-1.645 -3.685,-3.686 0,-2.041 1.644,-3.713 3.685,-3.713 z"
           id="path14913" />
      </g>
    </g>
  </g>
</svg>
