<?xml version="1.0" encoding="UTF-8" standalone="no"?>
<svg
   xmlns:dc="http://purl.org/dc/elements/1.1/"
   xmlns:cc="http://creativecommons.org/ns#"
   xmlns:rdf="http://www.w3.org/1999/02/22-rdf-syntax-ns#"
   xmlns:svg="http://www.w3.org/2000/svg"
   xmlns="http://www.w3.org/2000/svg"
   xmlns:sodipodi="http://sodipodi.sourceforge.net/DTD/sodipodi-0.dtd"
   xmlns:inkscape="http://www.inkscape.org/namespaces/inkscape"
   inkscape:version="1.0beta1 (32d4812, 2019-09-19)"
   id="svg13135"
   version="1.1"
   viewBox="0 0 507.99998 285.75001"
   height="1080"
   width="1920">
  <defs
     id="defs13129" />
  <sodipodi:namedview
     inkscape:window-maximized="0"
     inkscape:window-y="82"
     inkscape:window-x="27"
     inkscape:window-height="907"
     inkscape:window-width="1600"
     width="1920px"
     units="px"
     showgrid="false"
     inkscape:document-rotation="0"
     inkscape:current-layer="layer1"
     inkscape:document-units="mm"
     inkscape:cy="560"
     inkscape:cx="704.28571"
     inkscape:zoom="0.35"
     inkscape:pageshadow="2"
     inkscape:pageopacity="0.0"
     borderopacity="1.0"
     bordercolor="#666666"
     pagecolor="#ffffff"
     id="base" />
  <metadata
     id="metadata13132">
    <rdf:RDF>
      <cc:Work
         rdf:about="">
        <dc:format>image/svg+xml</dc:format>
        <dc:type
           rdf:resource="http://purl.org/dc/dcmitype/StillImage" />
        <dc:title></dc:title>
      </cc:Work>
    </rdf:RDF>
  </metadata>
  <g
     id="layer1"
     inkscape:groupmode="layer"
     inkscape:label="Layer 1">
    <g
       transform="matrix(1.3229166,0,0,1.3229167,-657.73692,-915.3134)"
       id="g14637">
      <path
         inkscape:connector-curvature="0"
         fill-rule="evenodd"
         clip-rule="evenodd"
         fill="#57585A"
         d="m 754.228,773.877 c -59.812,-41.896 -161.065,-35.972 -208.12,-3.203 -37.105,0 -38.211,-1.021 -38.211,25.029 0,24.406 18.595,40.054 60.52,40.054 90.34,0 180.681,0 271.021,0 14.514,0 31.04,-2.863 31.04,-7.71 0,-4.224 0,-8.419 0,-12.643 -10e-4,-25.398 -8.505,-32.712 -116.25,-41.527 z"
         id="path14545" />
      <path
         inkscape:connector-curvature="0"
         fill-rule="evenodd"
         clip-rule="evenodd"
         fill="#3F3F41"
         d="m 508.066,786.065 c 33.902,10.177 257.018,8.561 282.388,9.383 19.899,0.624 55.105,2.098 79.427,11.226 0.453,2.636 0.596,5.556 0.596,8.73 0,4.224 0,8.419 0,12.643 0,4.847 -16.526,7.71 -31.04,7.71 -90.34,0 -180.681,0 -271.021,0 -41.925,0 -60.52,-15.647 -60.52,-40.054 0,-3.741 0.029,-6.944 0.17,-9.638 z"
         id="path14547" />
      <path
         inkscape:connector-curvature="0"
         fill-rule="evenodd"
         clip-rule="evenodd"
         fill="#FEFEFE"
         d="m 862.964,803.073 c -3.685,-7.852 -16.78,-11.225 -24.35,-13.011 -14.626,-3.912 31.352,27.978 24.35,13.011 z"
         id="path14549" />
      <path
         inkscape:connector-curvature="0"
         fill-rule="evenodd"
         clip-rule="evenodd"
         fill="#221F20"
         d="m 574.426,796.242 c 17.943,0 32.456,14.542 32.456,32.456 v 7.059 h -38.466 c -10.177,0 -18.964,-0.936 -26.447,-2.664 v -4.395 c 0,-17.914 14.542,-32.456 32.457,-32.456 z"
         id="path14551" />
      <path
         inkscape:connector-curvature="0"
         fill-rule="evenodd"
         clip-rule="evenodd"
         fill="#3F3F41"
         d="m 574.426,801.911 c 14.797,0 26.787,11.99 26.787,26.787 0,14.825 -11.99,26.816 -26.787,26.816 -14.797,0 -26.788,-11.991 -26.788,-26.816 0,-14.797 11.991,-26.787 26.788,-26.787 z"
         id="path14553" />
      <path
         inkscape:connector-curvature="0"
         fill-rule="evenodd"
         clip-rule="evenodd"
         fill="#FFFFFF"
         d="m 574.426,810.415 c 10.091,0 18.283,8.192 18.283,18.283 0,10.12 -8.192,18.313 -18.283,18.313 -10.092,0 -18.284,-8.192 -18.284,-18.313 0,-10.091 8.192,-18.283 18.284,-18.283 z m 0,1.984 c 9.014,0 16.299,7.313 16.299,16.299 0,9.015 -7.285,16.328 -16.299,16.328 -9.015,0 -16.3,-7.313 -16.3,-16.328 0,-8.985 7.285,-16.299 16.3,-16.299 z"
         id="path14555" />
      <path
         inkscape:connector-curvature="0"
         fill-rule="evenodd"
         clip-rule="evenodd"
         fill="#221F20"
         d="m 749.238,779.319 c 1.134,8.135 2.013,16.525 1.984,24.746 -0.028,4.989 -0.369,10.488 -1.814,15.279 -1.758,5.98 -5.046,10.261 -11.367,11.423 -1.275,0.256 -2.551,0.341 -3.826,0.369 -24.804,0.68 -104.344,1.474 -121.012,-15.393 -13.181,-13.322 -27.127,-25.852 -40.45,-38.977 -0.566,-0.566 -0.566,-1.445 -0.028,-2.013 0.567,-0.566 1.445,-0.566 2.013,0 13.352,13.153 27.298,25.683 40.479,39.005 10.46,10.573 52.725,13.182 67.267,13.946 19.105,0.964 32.514,1.106 51.647,0.596 0.651,0 1.304,-0.057 1.956,-0.113 0.481,-0.057 0.963,-0.113 1.445,-0.198 5.244,-0.964 7.71,-4.536 9.185,-9.439 1.332,-4.535 1.644,-9.779 1.672,-14.485 0.028,-8.078 -0.851,-16.355 -1.956,-24.35 -0.113,-0.766 0.426,-1.502 1.191,-1.615 0.792,-0.084 1.501,0.454 1.614,1.219 z"
         id="path14557" />
      <path
         inkscape:connector-curvature="0"
         fill-rule="evenodd"
         clip-rule="evenodd"
         fill="#FEFEFE"
         d="m 508.548,781.304 c 6.889,0 16.895,0.708 16.895,5.584 0,4.025 -9.212,12.671 -17.036,15.534 -0.34,-2.154 -0.51,-4.395 -0.51,-6.719 -10e-4,-6.208 0.056,-10.885 0.651,-14.399 z"
         id="path14559" />
      <path
         inkscape:connector-curvature="0"
         fill-rule="evenodd"
         clip-rule="evenodd"
         fill="#221F20"
         d="m 803.267,796.242 c 17.915,0 32.457,14.542 32.457,32.456 v 7.059 h -64.942 v -7.059 c -0.001,-17.914 14.541,-32.456 32.485,-32.456 z"
         id="path14561" />
      <path
         inkscape:connector-curvature="0"
         fill-rule="evenodd"
         clip-rule="evenodd"
         fill="#3F3F41"
         d="m 803.267,801.911 c 14.797,0 26.787,11.99 26.787,26.787 0,14.825 -11.99,26.816 -26.787,26.816 -14.797,0 -26.815,-11.991 -26.815,-26.816 -10e-4,-14.797 12.018,-26.787 26.815,-26.787 z"
         id="path14563" />
      <path
         inkscape:connector-curvature="0"
         fill-rule="evenodd"
         clip-rule="evenodd"
         fill="#FFFFFF"
         d="m 803.267,810.415 c 10.092,0 18.283,8.192 18.283,18.283 0,10.12 -8.191,18.313 -18.283,18.313 -10.12,0 -18.312,-8.192 -18.312,-18.313 0,-10.091 8.191,-18.283 18.312,-18.283 z"
         id="path14565" />
      <path
         inkscape:connector-curvature="0"
         fill-rule="evenodd"
         clip-rule="evenodd"
         fill="#221F20"
         d="m 858.4,816.227 h 12.076 v 11.168 H 858.4 c -3.062,0 -5.584,-2.522 -5.584,-5.584 v 0 c 0,-3.062 2.523,-5.584 5.584,-5.584 z"
         id="path14567" />
      <path
         inkscape:connector-curvature="0"
         fill-rule="evenodd"
         clip-rule="evenodd"
         fill="#221F20"
         d="m 670.917,776.683 9.411,51.874 c 0.142,0.766 -0.369,1.503 -1.134,1.645 -0.766,0.142 -1.503,-0.368 -1.645,-1.134 l -9.411,-51.874 c -0.142,-0.766 0.369,-1.503 1.134,-1.645 0.766,-0.142 1.503,0.369 1.645,1.134 z"
         id="path14569" />
      <path
         inkscape:connector-curvature="0"
         fill-rule="evenodd"
         clip-rule="evenodd"
         fill="#0C1217"
         d="m 747.056,775.89 c -22.791,-14.712 -50.599,-22.281 -77.329,-24.889 -22.252,-2.154 -45.439,-1.077 -67.352,3.401 -12.926,2.637 -26.532,6.719 -38.835,12.699 l 9.213,9.666 167.159,2.552 c 7.342,0.114 13.493,0.652 7.144,-3.429 z"
         id="path14571" />
      <path
         inkscape:connector-curvature="0"
         fill-rule="evenodd"
         clip-rule="evenodd"
         fill="#122836"
         d="m 568.303,767.98 5.669,5.953 165.997,2.551 c 0.936,0 1.843,0.028 2.778,0.057 -21.855,-13.322 -48.02,-20.268 -73.305,-22.705 -22.024,-2.154 -44.787,-1.105 -66.5,3.345 -11.763,2.409 -23.641,5.867 -34.639,10.799 z"
         id="path14573" />
      <path
         inkscape:connector-curvature="0"
         fill-rule="evenodd"
         clip-rule="evenodd"
         fill="#221F20"
         d="m 683.446,785.527 h 3.231 c 1.7,0 3.09,1.389 3.09,3.09 v 0 c 0,1.7 -1.39,3.089 -3.09,3.089 h -3.231 c -1.701,0 -3.09,-1.389 -3.09,-3.089 v 0 c 0,-1.701 1.389,-3.09 3.09,-3.09 z"
         id="path14575" />
      <path
         inkscape:connector-curvature="0"
         fill-rule="evenodd"
         clip-rule="evenodd"
         fill="#221F20"
         d="m 600.589,785.527 h 3.203 c 1.701,0 3.09,1.389 3.09,3.09 v 0 c 0,1.7 -1.389,3.089 -3.09,3.089 h -3.203 c -1.7,0 -3.09,-1.389 -3.09,-3.089 v 0 c 0,-1.701 1.39,-3.09 3.09,-3.09 z"
         id="path14577" />
      <polygon
         fill-rule="evenodd"
         clip-rule="evenodd"
         fill="#BBBDBF"
         points="737.305,823.058 739.005,826.516 627.093,824.418 637.383,815.744 "
         id="polygon14579" />
      <path
         inkscape:connector-curvature="0"
         fill-rule="evenodd"
         clip-rule="evenodd"
         fill="#A6A9AB"
         d="m 632.11,824.503 c -1.332,-0.34 -2.607,-0.708 -3.854,-1.077 l 2.749,-2.296 c 5.868,1.588 12.586,2.778 19.304,3.714 z"
         id="path14581" />
      <polygon
         fill-rule="evenodd"
         clip-rule="evenodd"
         fill="#A6A9AB"
         points="675.65,818.551 678.57,818.749 679.761,825.382 676.869,825.354 "
         id="polygon14583" />
      <polygon
         fill-rule="evenodd"
         clip-rule="evenodd"
         fill="#E5E6E6"
         points="791.588,795.873 559.686,785.442 570.769,789.467 "
         id="polygon14585" />
      <path
         inkscape:connector-curvature="0"
         fill-rule="evenodd"
         clip-rule="evenodd"
         fill="#D0D2D3"
         d="m 750.854,794.031 0.029,0.68 -2.835,-0.085 -0.057,-0.708 z m -164.438,-4.11 c -1.19,-1.134 -2.409,-2.296 -3.628,-3.458 l 4.309,0.198 c 1.19,1.134 2.381,2.268 3.571,3.401 z"
         id="path14587" />
      <path
         inkscape:connector-curvature="0"
         fill-rule="evenodd"
         clip-rule="evenodd"
         fill="#D0D2D3"
         d="m 606.712,787.54 c 0.113,0.34 0.17,0.708 0.17,1.077 v 0 c 0,0.708 -0.227,1.36 -0.651,1.898 l -8.249,-0.255 c -0.312,-0.481 -0.482,-1.049 -0.482,-1.644 v 0 c 0,-0.539 0.114,-1.021 0.341,-1.475 z"
         id="path14589" />
      <path
         inkscape:connector-curvature="0"
         fill-rule="evenodd"
         clip-rule="evenodd"
         fill="#221F20"
         d="m 574.426,812.399 c 9.014,0 16.299,7.313 16.299,16.299 0,9.015 -7.285,16.328 -16.299,16.328 -9.015,0 -16.3,-7.313 -16.3,-16.328 0,-8.985 7.285,-16.299 16.3,-16.299 z"
         id="path14591" />
      <polygon
         fill-rule="evenodd"
         clip-rule="evenodd"
         fill="#D0D2D3"
         points="670.52,790.431 673.439,790.544 673.78,792.472 670.889,792.387 "
         id="polygon14593" />
      <path
         inkscape:connector-curvature="0"
         fill-rule="evenodd"
         clip-rule="evenodd"
         fill="#FFFFFF"
         d="m 571.223,828.698 h 3.203 3.203 l -1.021,-18.142 c -0.709,-0.085 -1.446,-0.142 -2.183,-0.142 -0.737,0 -1.475,0.057 -2.183,0.142 z"
         id="path14595" />
      <path
         inkscape:connector-curvature="0"
         fill-rule="evenodd"
         clip-rule="evenodd"
         fill="#FFFFFF"
         d="m 572.158,826.459 2.268,2.239 2.268,2.269 12.132,-13.55 c -0.907,-1.162 -1.956,-2.183 -3.09,-3.09 z"
         id="path14597" />
      <path
         inkscape:connector-curvature="0"
         fill-rule="evenodd"
         clip-rule="evenodd"
         fill="#FFFFFF"
         d="m 574.426,825.523 v 3.175 3.203 l 18.17,-0.991 c 0.085,-0.737 0.113,-1.446 0.113,-2.212 0,-0.736 -0.028,-1.445 -0.113,-2.183 z"
         id="path14599" />
      <path
         inkscape:connector-curvature="0"
         fill-rule="evenodd"
         clip-rule="evenodd"
         fill="#FFFFFF"
         d="m 576.693,826.459 -2.268,2.239 -2.268,2.269 13.577,12.132 c 1.134,-0.907 2.183,-1.956 3.09,-3.09 z"
         id="path14601" />
      <path
         inkscape:connector-curvature="0"
         fill-rule="evenodd"
         clip-rule="evenodd"
         fill="#FFFFFF"
         d="m 577.629,828.698 h -3.203 -3.203 l 1.021,18.171 c 0.708,0.085 1.445,0.142 2.183,0.142 0.736,0 1.474,-0.057 2.183,-0.142 z"
         id="path14603" />
      <path
         inkscape:connector-curvature="0"
         fill-rule="evenodd"
         clip-rule="evenodd"
         fill="#FFFFFF"
         d="m 576.693,830.967 -2.268,-2.269 -2.268,-2.239 -12.104,13.55 c 0.879,1.134 1.928,2.183 3.09,3.09 z"
         id="path14605" />
      <path
         inkscape:connector-curvature="0"
         fill-rule="evenodd"
         clip-rule="evenodd"
         fill="#FFFFFF"
         d="m 574.426,831.901 v -3.203 -3.175 l -18.17,0.992 c -0.086,0.737 -0.114,1.446 -0.114,2.183 0,0.766 0.028,1.475 0.114,2.212 z"
         id="path14607" />
      <path
         inkscape:connector-curvature="0"
         fill-rule="evenodd"
         clip-rule="evenodd"
         fill="#FFFFFF"
         d="m 572.158,830.967 2.268,-2.269 2.268,-2.239 -13.55,-12.132 c -1.162,0.907 -2.211,1.928 -3.09,3.09 z"
         id="path14609" />
      <path
         inkscape:connector-curvature="0"
         fill-rule="evenodd"
         clip-rule="evenodd"
         fill="#221F20"
         d="m 574.426,825.495 c 1.757,0 3.203,1.446 3.203,3.203 0,1.786 -1.446,3.203 -3.203,3.203 -1.758,0 -3.203,-1.417 -3.203,-3.203 0,-1.757 1.445,-3.203 3.203,-3.203 z"
         id="path14611" />
      <path
         inkscape:connector-curvature="0"
         fill-rule="evenodd"
         clip-rule="evenodd"
         fill="#221F20"
         d="m 803.267,812.399 c 8.985,0 16.299,7.313 16.299,16.299 0,9.015 -7.313,16.328 -16.299,16.328 -9.015,0 -16.327,-7.313 -16.327,-16.328 -0.001,-8.985 7.312,-16.299 16.327,-16.299 z"
         id="path14613" />
      <path
         inkscape:connector-curvature="0"
         fill-rule="evenodd"
         clip-rule="evenodd"
         fill="#FFFFFF"
         d="m 800.063,828.698 h 3.203 3.203 l -1.021,-18.142 c -0.709,-0.085 -1.445,-0.142 -2.183,-0.142 -0.738,0 -1.474,0.057 -2.211,0.142 z"
         id="path14615" />
      <path
         inkscape:connector-curvature="0"
         fill-rule="evenodd"
         clip-rule="evenodd"
         fill="#FFFFFF"
         d="m 800.999,826.459 2.268,2.239 2.268,2.269 12.104,-13.55 c -0.907,-1.162 -1.928,-2.183 -3.09,-3.09 z"
         id="path14617" />
      <path
         inkscape:connector-curvature="0"
         fill-rule="evenodd"
         clip-rule="evenodd"
         fill="#FFFFFF"
         d="m 803.267,825.523 v 3.175 3.203 l 18.142,-0.991 c 0.085,-0.737 0.142,-1.446 0.142,-2.212 0,-0.736 -0.057,-1.445 -0.142,-2.183 z"
         id="path14619" />
      <path
         inkscape:connector-curvature="0"
         fill-rule="evenodd"
         clip-rule="evenodd"
         fill="#FFFFFF"
         d="m 805.534,826.459 -2.268,2.239 -2.268,2.269 13.55,12.132 c 1.162,-0.907 2.183,-1.956 3.09,-3.09 z"
         id="path14621" />
      <path
         inkscape:connector-curvature="0"
         fill-rule="evenodd"
         clip-rule="evenodd"
         fill="#FFFFFF"
         d="m 806.47,828.698 h -3.203 -3.203 l 0.992,18.171 c 0.737,0.085 1.474,0.142 2.211,0.142 0.737,0 1.474,-0.057 2.183,-0.142 z"
         id="path14623" />
      <path
         inkscape:connector-curvature="0"
         fill-rule="evenodd"
         clip-rule="evenodd"
         fill="#FFFFFF"
         d="m 805.534,830.967 -2.268,-2.269 -2.268,-2.239 -12.133,13.55 c 0.907,1.134 1.956,2.183 3.09,3.09 z"
         id="path14625" />
      <path
         inkscape:connector-curvature="0"
         fill-rule="evenodd"
         clip-rule="evenodd"
         fill="#FFFFFF"
         d="m 803.267,831.901 v -3.203 -3.175 l -18.17,0.992 c -0.085,0.737 -0.142,1.446 -0.142,2.183 0,0.766 0.057,1.475 0.142,2.212 z"
         id="path14627" />
      <path
         inkscape:connector-curvature="0"
         fill-rule="evenodd"
         clip-rule="evenodd"
         fill="#FFFFFF"
         d="m 800.999,830.967 2.268,-2.269 2.268,-2.239 -13.578,-12.132 c -1.134,0.907 -2.183,1.928 -3.09,3.09 z"
         id="path14629" />
      <path
         inkscape:connector-curvature="0"
         fill-rule="evenodd"
         clip-rule="evenodd"
         fill="#221F20"
         d="m 803.267,825.495 c 1.758,0 3.203,1.446 3.203,3.203 0,1.786 -1.445,3.203 -3.203,3.203 -1.786,0 -3.203,-1.417 -3.203,-3.203 -10e-4,-1.757 1.416,-3.203 3.203,-3.203 z"
         id="path14631" />
      <path
         inkscape:connector-curvature="0"
         fill-rule="evenodd"
         clip-rule="evenodd"
         fill="#E5E6E6"
         d="m 847.997,800.749 c 5.357,1.049 10.602,2.268 15.506,3.771 1.559,5.414 -7.37,1.417 -15.506,-3.771 z"
         id="path14633" />
      <path
         inkscape:connector-curvature="0"
         fill-rule="evenodd"
         clip-rule="evenodd"
         fill="#E5E6E6"
         d="m 508.066,786.065 c 3.628,1.077 9.383,2.013 16.838,2.863 -2.126,4.394 -9.836,11.055 -16.498,13.493 l -0.028,-0.199 c -0.057,-0.283 -0.085,-0.595 -0.113,-0.878 l -0.028,-0.199 c -0.028,-0.283 -0.085,-0.566 -0.113,-0.878 v -0.199 c -0.057,-0.312 -0.057,-0.623 -0.085,-0.935 l -0.028,-0.114 c -0.028,-0.34 -0.028,-0.68 -0.057,-1.021 v -0.028 0 -0.028 c -0.028,-0.368 -0.028,-0.736 -0.028,-1.077 v -0.028 c -0.028,-0.368 -0.028,-0.765 -0.028,-1.134 v -0.17 -0.113 -0.057 -0.17 -0.057 -0.142 -0.143 -0.028 -0.17 -0.085 -0.085 -0.17 -0.028 -0.142 -0.142 -0.028 -0.142 -0.114 -0.057 -0.17 -0.057 -0.113 -0.142 -0.028 -0.17 -0.085 -0.057 -0.171 -0.028 -0.139 -0.142 0 l 0.028,-0.17 v -0.085 -0.085 -0.142 -0.028 -0.143 -0.312 0 -0.057 -0.085 -0.17 0 -0.142 -0.113 -0.026 -0.171 -0.057 -0.085 -0.142 -0.312 l 0.028,-0.142 v -0.057 -0.085 -0.143 -0.028 -0.113 -0.113 -0.057 -0.142 -0.057 -0.085 -0.142 0 -0.142 l 0.028,-0.142 v -0.143 -0.057 -0.085 -0.142 0 -0.113 -0.113 -0.028 l 0.028,-0.142 v -0.057 -0.085 -0.142 0 -0.114 -0.085 -0.057 -0.142 l 0.028,-0.028 v -0.085 -0.142 0 -0.142 -0.085 -0.028 l 0.028,-0.142 v -0.029 -0.085 -0.142 0 z"
         id="path14635" />
    </g>
  </g>
</svg>
