<?xml version="1.0" encoding="UTF-8" standalone="no"?>
<svg
   xmlns:dc="http://purl.org/dc/elements/1.1/"
   xmlns:cc="http://creativecommons.org/ns#"
   xmlns:rdf="http://www.w3.org/1999/02/22-rdf-syntax-ns#"
   xmlns:svg="http://www.w3.org/2000/svg"
   xmlns="http://www.w3.org/2000/svg"
   xmlns:sodipodi="http://sodipodi.sourceforge.net/DTD/sodipodi-0.dtd"
   xmlns:inkscape="http://www.inkscape.org/namespaces/inkscape"
   inkscape:version="1.0beta1 (32d4812, 2019-09-19)"
   id="svg13135"
   version="1.1"
   viewBox="0 0 507.99998 285.75001"
   height="1080"
   width="1920">
  <defs
     id="defs13129" />
  <sodipodi:namedview
     inkscape:window-maximized="0"
     inkscape:window-y="82"
     inkscape:window-x="27"
     inkscape:window-height="907"
     inkscape:window-width="1600"
     width="1920px"
     units="px"
     showgrid="false"
     inkscape:document-rotation="0"
     inkscape:current-layer="layer1"
     inkscape:document-units="mm"
     inkscape:cy="560"
     inkscape:cx="704.28571"
     inkscape:zoom="0.35"
     inkscape:pageshadow="2"
     inkscape:pageopacity="0.0"
     borderopacity="1.0"
     bordercolor="#666666"
     pagecolor="#ffffff"
     id="base" />
  <metadata
     id="metadata13132">
    <rdf:RDF>
      <cc:Work
         rdf:about="">
        <dc:format>image/svg+xml</dc:format>
        <dc:type
           rdf:resource="http://purl.org/dc/dcmitype/StillImage" />
        <dc:title></dc:title>
      </cc:Work>
    </rdf:RDF>
  </metadata>
  <g
     id="layer1"
     inkscape:groupmode="layer"
     inkscape:label="Layer 1">
    <g
       transform="matrix(1.3229166,0,0,1.3229166,-66.736478,-106.01787)"
       id="g14463">
      <path
         inkscape:connector-curvature="0"
         fill-rule="evenodd"
         clip-rule="evenodd"
         fill="#2D4198"
         d="m 79.553,162.869 c 89.66,-29.622 65.594,-36.142 171.609,-36.142 12.416,0 45.128,22.224 53.547,33.959 57.09,0 120.217,5.471 120.217,44.986 0,7.512 -7.54,10.035 -12.188,10.035 -6.435,0 -8.872,8.135 -14.06,8.135 -121.635,0 -167.528,0 -289.162,0 -6.01,0 -43.569,-8.844 -43.569,-15.137 0,-11.821 -5.98,-12.132 -5.98,-16.328 0,-2.154 0,-4.28 0,-6.435 -10e-4,-13.634 -10e-4,-16.61 19.586,-23.073 z"
         id="path14389" />
      <path
         inkscape:connector-curvature="0"
         fill-rule="evenodd"
         clip-rule="evenodd"
         fill="#27357D"
         d="m 63.622,170.38 c 43.285,5.244 152.958,9.695 210.246,9.695 52.725,0 111.656,2.522 149.556,15.732 0.992,3.033 1.502,6.293 1.502,9.865 0,7.512 -7.54,10.035 -12.188,10.035 -6.435,0 -8.872,8.135 -14.06,8.135 -121.635,0 -167.528,0 -289.162,0 -6.01,0 -43.569,-8.844 -43.569,-15.137 0,-11.821 -5.98,-12.132 -5.98,-16.328 0,-2.154 0,-4.28 0,-6.435 -10e-4,-7.795 -10e-4,-12.103 3.655,-15.562 z"
         id="path14391" />
      <path
         inkscape:connector-curvature="0"
         fill-rule="evenodd"
         clip-rule="evenodd"
         fill="#1B2059"
         d="m 142.397,182.031 c 20.211,0 36.595,16.384 36.595,36.595 v 5.216 h -69.477 c -0.766,0 -2.041,-0.142 -3.686,-0.396 v -4.819 c 0.001,-20.212 16.358,-36.596 36.568,-36.596 z"
         id="path14393" />
      <path
         inkscape:connector-curvature="0"
         fill-rule="evenodd"
         clip-rule="evenodd"
         fill="#221F20"
         d="m 142.397,187.7 c 17.093,0 30.926,13.861 30.926,30.926 0,17.093 -13.833,30.926 -30.926,30.926 -17.064,0 -30.898,-13.833 -30.898,-30.926 0,-17.064 13.834,-30.926 30.898,-30.926 z"
         id="path14395" />
      <path
         inkscape:connector-curvature="0"
         fill-rule="evenodd"
         clip-rule="evenodd"
         fill="#FFFFFF"
         d="m 142.397,197.537 c 11.679,0 21.118,9.439 21.118,21.089 0,11.65 -9.439,21.118 -21.118,21.118 -11.65,0 -21.09,-9.468 -21.09,-21.118 0,-11.65 9.44,-21.089 21.09,-21.089 z m 0,2.267 c 10.402,0 18.821,8.447 18.821,18.822 0,10.403 -8.419,18.822 -18.821,18.822 -10.375,0 -18.794,-8.419 -18.794,-18.822 0.001,-10.375 8.419,-18.822 18.794,-18.822 z"
         id="path14397" />
      <path
         inkscape:connector-curvature="0"
         fill-rule="evenodd"
         clip-rule="evenodd"
         fill="#221F20"
         d="m 142.397,199.804 c 10.402,0 18.821,8.447 18.821,18.822 0,10.403 -8.419,18.822 -18.821,18.822 -10.375,0 -18.794,-8.419 -18.794,-18.822 0.001,-10.375 8.419,-18.822 18.794,-18.822 z"
         id="path14399" />
      <path
         inkscape:connector-curvature="0"
         fill-rule="evenodd"
         clip-rule="evenodd"
         fill="#FFFFFF"
         d="m 138.712,218.626 h 3.686 3.713 l -1.19,-20.948 c -0.822,-0.113 -1.645,-0.142 -2.522,-0.142 -0.851,0 -1.673,0.028 -2.523,0.142 z"
         id="path14401" />
      <path
         inkscape:connector-curvature="0"
         fill-rule="evenodd"
         clip-rule="evenodd"
         fill="#FFFFFF"
         d="m 139.789,216.019 2.608,2.607 2.636,2.608 13.975,-15.647 c -1.049,-1.304 -2.239,-2.523 -3.571,-3.543 z"
         id="path14403" />
      <path
         inkscape:connector-curvature="0"
         fill-rule="evenodd"
         clip-rule="evenodd"
         fill="#FFFFFF"
         d="m 142.397,214.941 v 3.685 3.713 l 20.976,-1.19 c 0.086,-0.822 0.143,-1.672 0.143,-2.523 0,-0.85 -0.057,-1.701 -0.143,-2.522 z"
         id="path14405" />
      <path
         inkscape:connector-curvature="0"
         fill-rule="evenodd"
         clip-rule="evenodd"
         fill="#FFFFFF"
         d="m 145.033,216.019 -2.636,2.607 -2.608,2.608 15.647,14.003 c 1.332,-1.049 2.522,-2.239 3.571,-3.572 z"
         id="path14407" />
      <path
         inkscape:connector-curvature="0"
         fill-rule="evenodd"
         clip-rule="evenodd"
         fill="#FFFFFF"
         d="m 146.11,218.626 h -3.713 -3.686 l 1.162,20.977 c 0.822,0.085 1.673,0.142 2.523,0.142 0.878,0 1.7,-0.057 2.522,-0.142 z"
         id="path14409" />
      <path
         inkscape:connector-curvature="0"
         fill-rule="evenodd"
         clip-rule="evenodd"
         fill="#FFFFFF"
         d="m 145.033,221.234 -2.636,-2.608 -2.608,-2.607 -13.975,15.647 c 1.021,1.333 2.239,2.523 3.571,3.572 z"
         id="path14411" />
      <path
         inkscape:connector-curvature="0"
         fill-rule="evenodd"
         clip-rule="evenodd"
         fill="#FFFFFF"
         d="m 142.397,222.339 v -3.713 -3.685 l -20.948,1.162 c -0.085,0.822 -0.142,1.672 -0.142,2.522 0,0.851 0.057,1.701 0.142,2.523 z"
         id="path14413" />
      <path
         inkscape:connector-curvature="0"
         fill-rule="evenodd"
         clip-rule="evenodd"
         fill="#FFFFFF"
         d="m 139.789,221.234 2.608,-2.608 2.636,-2.607 -15.647,-13.975 c -1.332,1.021 -2.551,2.239 -3.571,3.543 z"
         id="path14415" />
      <path
         inkscape:connector-curvature="0"
         fill-rule="evenodd"
         clip-rule="evenodd"
         fill="#221F20"
         d="m 142.397,214.941 c 2.041,0 3.713,1.644 3.713,3.685 0,2.041 -1.672,3.713 -3.713,3.713 -2.041,0 -3.686,-1.672 -3.686,-3.713 0,-2.041 1.645,-3.685 3.686,-3.685 z"
         id="path14417" />
      <path
         inkscape:connector-curvature="0"
         fill-rule="evenodd"
         clip-rule="evenodd"
         fill="#1B2059"
         d="m 350.771,182.031 c 20.212,0 36.567,16.384 36.567,36.595 v 5.216 h -73.162 v -5.216 c 0.001,-20.211 16.385,-36.595 36.595,-36.595 z"
         id="path14419" />
      <path
         inkscape:connector-curvature="0"
         fill-rule="evenodd"
         clip-rule="evenodd"
         fill="#1B2059"
         d="m 299.352,217.209 c 0.822,-0.851 2.041,-4.564 2.324,-5.5 1.162,-3.742 2.069,-7.653 2.835,-11.508 0.736,-3.742 1.389,-7.541 1.785,-11.339 0.143,-1.36 0.539,-5.216 0.114,-6.491 -2.807,-8.419 -8.873,-15.222 -15.846,-20.551 -0.596,-0.482 -0.737,-1.361 -0.256,-1.984 0.482,-0.624 1.39,-0.737 1.984,-0.283 7.427,5.698 13.805,12.954 16.81,21.94 1.162,3.487 -1.077,15.506 -1.814,19.276 -0.85,4.224 -1.842,8.589 -3.203,12.671 -0.595,1.814 -2.041,6.604 -4.479,6.604 -0.028,0 -0.057,0 -0.057,0 -32.06,-1.219 -64.12,-2.665 -96.18,-3.685 -3.373,-0.113 -5.527,-4.621 -6.604,-7.285 -1.786,-4.422 -2.863,-9.609 -3.401,-14.343 -0.681,-5.783 -0.992,-15.052 2.069,-20.183 3.543,-5.896 7.398,-11.622 11.083,-17.461 0.426,-0.652 1.304,-0.851 1.956,-0.425 0.681,0.425 0.851,1.304 0.453,1.956 -3.685,5.783 -7.512,11.509 -11.055,17.405 -2.664,4.45 -2.296,13.379 -1.701,18.369 0.539,4.479 1.531,9.439 3.231,13.634 0.511,1.248 2.354,5.443 4.054,5.5 31.976,1.018 63.923,2.464 95.898,3.683 z"
         id="path14421" />
      <path
         inkscape:connector-curvature="0"
         fill-rule="evenodd"
         clip-rule="evenodd"
         fill="#1B2059"
         d="m 77.172,173.867 107.632,3.373 c 0.765,0.028 1.389,0.681 1.36,1.446 -0.028,0.793 -0.681,1.389 -1.445,1.389 L 77.087,176.701 c -0.794,-0.028 -1.389,-0.68 -1.389,-1.474 0.029,-0.765 0.68,-1.388 1.474,-1.36 z"
         id="path14423" />
      <path
         inkscape:connector-curvature="0"
         fill-rule="evenodd"
         clip-rule="evenodd"
         fill="#221F20"
         d="m 350.771,187.7 c 17.065,0 30.898,13.861 30.898,30.926 0,17.093 -13.833,30.926 -30.898,30.926 -17.093,0 -30.926,-13.833 -30.926,-30.926 10e-4,-17.064 13.834,-30.926 30.926,-30.926 z"
         id="path14425" />
      <path
         inkscape:connector-curvature="0"
         fill-rule="evenodd"
         clip-rule="evenodd"
         fill="#FFFFFF"
         d="m 350.771,197.537 c 11.65,0 21.09,9.439 21.09,21.089 0,11.65 -9.439,21.118 -21.09,21.118 -11.679,0 -21.118,-9.468 -21.118,-21.118 0,-11.65 9.44,-21.089 21.118,-21.089 z"
         id="path14427" />
      <path
         inkscape:connector-curvature="0"
         fill-rule="evenodd"
         clip-rule="evenodd"
         fill="#221F20"
         d="m 350.771,199.804 c 10.375,0 18.794,8.447 18.794,18.822 0,10.403 -8.419,18.822 -18.794,18.822 -10.402,0 -18.821,-8.419 -18.821,-18.822 0,-10.375 8.419,-18.822 18.821,-18.822 z"
         id="path14429" />
      <path
         inkscape:connector-curvature="0"
         fill-rule="evenodd"
         clip-rule="evenodd"
         fill="#FFFFFF"
         d="m 347.059,218.626 h 3.713 3.686 l -1.162,-20.948 c -0.851,-0.113 -1.673,-0.142 -2.523,-0.142 -0.878,0 -1.7,0.028 -2.522,0.142 z"
         id="path14431" />
      <path
         inkscape:connector-curvature="0"
         fill-rule="evenodd"
         clip-rule="evenodd"
         fill="#FFFFFF"
         d="m 348.136,216.019 2.636,2.607 2.608,2.608 13.975,-15.647 c -1.021,-1.304 -2.239,-2.523 -3.571,-3.543 z"
         id="path14433" />
      <path
         inkscape:connector-curvature="0"
         fill-rule="evenodd"
         clip-rule="evenodd"
         fill="#FFFFFF"
         d="m 350.771,214.941 v 3.685 3.713 l 20.948,-1.19 c 0.085,-0.822 0.142,-1.672 0.142,-2.523 0,-0.85 -0.057,-1.701 -0.142,-2.522 z"
         id="path14435" />
      <path
         inkscape:connector-curvature="0"
         fill-rule="evenodd"
         clip-rule="evenodd"
         fill="#FFFFFF"
         d="m 353.38,216.019 -2.608,2.607 -2.636,2.608 15.647,14.003 c 1.332,-1.049 2.551,-2.239 3.571,-3.572 z"
         id="path14437" />
      <path
         inkscape:connector-curvature="0"
         fill-rule="evenodd"
         clip-rule="evenodd"
         fill="#FFFFFF"
         d="m 354.457,218.626 h -3.686 -3.713 l 1.19,20.977 c 0.822,0.085 1.645,0.142 2.522,0.142 0.851,0 1.701,-0.057 2.523,-0.142 z"
         id="path14439" />
      <path
         inkscape:connector-curvature="0"
         fill-rule="evenodd"
         clip-rule="evenodd"
         fill="#FFFFFF"
         d="m 353.38,221.234 -2.608,-2.608 -2.636,-2.607 -13.975,15.647 c 1.049,1.333 2.239,2.523 3.571,3.572 z"
         id="path14441" />
      <path
         inkscape:connector-curvature="0"
         fill-rule="evenodd"
         clip-rule="evenodd"
         fill="#FFFFFF"
         d="m 350.771,222.339 v -3.713 -3.685 l -20.976,1.162 c -0.085,0.822 -0.143,1.672 -0.143,2.522 0,0.851 0.058,1.701 0.143,2.523 z"
         id="path14443" />
      <path
         inkscape:connector-curvature="0"
         fill-rule="evenodd"
         clip-rule="evenodd"
         fill="#FFFFFF"
         d="m 348.136,221.234 2.636,-2.608 2.608,-2.607 -15.647,-13.975 c -1.332,1.021 -2.522,2.239 -3.571,3.543 z"
         id="path14445" />
      <path
         inkscape:connector-curvature="0"
         fill-rule="evenodd"
         clip-rule="evenodd"
         fill="#221F20"
         d="m 350.771,214.941 c 2.041,0 3.686,1.644 3.686,3.685 0,2.041 -1.645,3.713 -3.686,3.713 -2.04,0 -3.713,-1.672 -3.713,-3.713 0,-2.041 1.673,-3.685 3.713,-3.685 z"
         id="path14447" />
      <path
         inkscape:connector-curvature="0"
         fill-rule="evenodd"
         clip-rule="evenodd"
         fill="#0C1217"
         d="m 293.37,160.686 c -5.103,-4.904 -12.104,-9.95 -16.781,-13.068 -4.847,-3.26 -19.672,-12.387 -25.427,-12.387 -19.672,0 -39.911,-0.028 -59.499,1.559 -10.856,0.879 -21.175,2.353 -31.635,5.527 -9.694,2.948 -19.275,7.002 -28.687,10.743 -11.565,4.592 -10.375,7.625 6.633,7.625 H 293.37 Z"
         id="path14449" />
      <path
         inkscape:connector-curvature="0"
         fill-rule="evenodd"
         clip-rule="evenodd"
         fill="#0E1C26"
         d="m 285.83,157.852 c -3.486,-2.835 -7.229,-5.471 -10.828,-7.88 -3.742,-2.523 -7.71,-4.904 -11.679,-7.03 -2.608,-1.417 -9.27,-4.876 -12.161,-4.876 -19.757,0 -39.571,-0.057 -59.272,1.531 -10.573,0.851 -20.862,2.353 -31.039,5.442 -9.694,2.92 -19.049,6.917 -28.46,10.659 -0.68,0.255 -2.324,0.935 -3.77,1.672 3.175,0.425 7.937,0.482 9.354,0.482 z"
         id="path14451" />
      <path
         inkscape:connector-curvature="0"
         fill-rule="evenodd"
         clip-rule="evenodd"
         fill="#FEFEFE"
         d="m 213.405,167.206 h 14.399 c 0.794,0 1.418,0.652 1.418,1.417 v 2.239 c 0,0.766 -0.624,1.417 -1.418,1.417 h -14.399 c -0.794,0 -1.418,-0.652 -1.418,-1.417 v -2.239 c 0,-0.766 0.624,-1.417 1.418,-1.417 z"
         id="path14453" />
      <polygon
         fill-rule="evenodd"
         clip-rule="evenodd"
         fill="#A3ABCF"
         points="211.647,209.726 207.367,201.646 283.931,208.592 283.704,213.354 "
         id="polygon14455" />
      <polygon
         fill-rule="evenodd"
         clip-rule="evenodd"
         fill="#C7CCDC"
         points="342.75,181.067 147.414,179.848 123.943,174.009 "
         id="polygon14457" />
      <path
         inkscape:connector-curvature="0"
         fill-rule="evenodd"
         clip-rule="evenodd"
         fill="#B1B7D6"
         d="m 194.583,176.305 3.062,0.085 c -0.567,1.077 -0.964,2.381 -1.275,3.77 h -2.863 c 0.254,-1.389 0.594,-2.693 1.076,-3.855 z m 110.863,3.571 3.118,0.085 c 0.113,0.312 0.227,0.595 0.312,0.907 l -3.033,-0.028 c -0.114,-0.312 -0.255,-0.652 -0.397,-0.964 z"
         id="path14459" />
      <path
         inkscape:connector-curvature="0"
         fill-rule="evenodd"
         clip-rule="evenodd"
         fill="#B1B7D6"
         d="m 142.992,178.771 -13.039,-3.26 54.851,1.729 c 0.765,0.028 1.389,0.681 1.36,1.446 -0.028,0.793 -0.681,1.389 -1.445,1.389 z"
         id="path14461" />
    </g>
  </g>
</svg>
