<?xml version="1.0" encoding="UTF-8" standalone="no"?>
<svg
   xmlns:dc="http://purl.org/dc/elements/1.1/"
   xmlns:cc="http://creativecommons.org/ns#"
   xmlns:rdf="http://www.w3.org/1999/02/22-rdf-syntax-ns#"
   xmlns:svg="http://www.w3.org/2000/svg"
   xmlns="http://www.w3.org/2000/svg"
   xmlns:sodipodi="http://sodipodi.sourceforge.net/DTD/sodipodi-0.dtd"
   xmlns:inkscape="http://www.inkscape.org/namespaces/inkscape"
   inkscape:version="1.0beta1 (32d4812, 2019-09-19)"
   id="svg13135"
   version="1.1"
   viewBox="0 0 507.99998 285.75001"
   height="1080"
   width="1920">
  <defs
     id="defs13129" />
  <sodipodi:namedview
     inkscape:window-maximized="0"
     inkscape:window-y="82"
     inkscape:window-x="27"
     inkscape:window-height="907"
     inkscape:window-width="1600"
     width="1920px"
     units="px"
     showgrid="false"
     inkscape:document-rotation="0"
     inkscape:current-layer="layer1"
     inkscape:document-units="mm"
     inkscape:cy="560"
     inkscape:cx="704.28571"
     inkscape:zoom="0.35"
     inkscape:pageshadow="2"
     inkscape:pageopacity="0.0"
     borderopacity="1.0"
     bordercolor="#666666"
     pagecolor="#ffffff"
     id="base" />
  <metadata
     id="metadata13132">
    <rdf:RDF>
      <cc:Work
         rdf:about="">
        <dc:format>image/svg+xml</dc:format>
        <dc:type
           rdf:resource="http://purl.org/dc/dcmitype/StillImage" />
        <dc:title></dc:title>
      </cc:Work>
    </rdf:RDF>
  </metadata>
  <g
     id="layer1"
     inkscape:groupmode="layer"
     inkscape:label="Layer 1">
    <g
       transform="matrix(1.3229166,0,0,1.3229166,-1279.3734,-915.30482)"
       id="g14993">
      <path
         inkscape:connector-curvature="0"
         fill-rule="evenodd"
         clip-rule="evenodd"
         fill="#F1A0C1"
         d="m 996.192,774.613 c 89.632,-29.622 65.565,-36.142 171.581,-36.142 12.444,0 45.156,22.224 53.575,33.959 57.09,0 120.217,5.471 120.217,44.986 0,7.54 -7.568,10.034 -12.188,10.034 -6.435,0 -8.873,8.136 -14.06,8.136 -121.663,0 -167.528,0 -289.19,0 -5.981,0 -43.541,-8.844 -43.541,-15.137 0,-11.821 -5.98,-12.104 -5.98,-16.328 0,-2.126 0,-4.28 0,-6.435 -10e-4,-13.633 -10e-4,-16.61 19.586,-23.073 z"
         id="path14919" />
      <path
         inkscape:connector-curvature="0"
         fill-rule="evenodd"
         clip-rule="evenodd"
         fill="#E28CB1"
         d="m 980.233,782.125 c 43.285,5.244 152.986,9.695 210.246,9.695 52.753,0 111.685,2.522 149.584,15.731 0.964,3.033 1.502,6.293 1.502,9.865 0,7.54 -7.568,10.034 -12.188,10.034 -6.435,0 -8.873,8.136 -14.06,8.136 -121.663,0 -167.528,0 -289.19,0 -5.981,0 -43.541,-8.844 -43.541,-15.137 0,-11.821 -5.98,-12.104 -5.98,-16.328 0,-2.126 0,-4.28 0,-6.435 -10e-4,-7.765 -10e-4,-12.074 3.627,-15.561 z"
         id="path14921" />
      <path
         inkscape:connector-curvature="0"
         fill-rule="evenodd"
         clip-rule="evenodd"
         fill="#AB6686"
         d="m 1059.037,793.804 c 20.211,0 36.595,16.385 36.595,36.567 v 5.216 h -69.505 c -0.766,0 -2.041,-0.142 -3.686,-0.396 v -4.819 c 0,-20.184 16.385,-36.568 36.596,-36.568 z"
         id="path14923" />
      <path
         inkscape:connector-curvature="0"
         fill-rule="evenodd"
         clip-rule="evenodd"
         fill="#221F20"
         d="m 1059.037,799.474 c 17.093,0 30.926,13.833 30.926,30.897 0,17.093 -13.833,30.926 -30.926,30.926 -17.064,0 -30.927,-13.833 -30.927,-30.926 0,-17.064 13.863,-30.897 30.927,-30.897 z"
         id="path14925" />
      <path
         inkscape:connector-curvature="0"
         fill-rule="evenodd"
         clip-rule="evenodd"
         fill="#FEFEFE"
         d="m 1059.037,809.281 c 11.65,0 21.117,9.439 21.117,21.09 0,11.679 -9.467,21.118 -21.117,21.118 -11.65,0 -21.118,-9.439 -21.118,-21.118 0,-11.65 9.468,-21.09 21.118,-21.09 z m 0,2.296 c 10.402,0 18.821,8.419 18.821,18.794 0,10.403 -8.419,18.822 -18.821,18.822 -10.403,0 -18.822,-8.419 -18.822,-18.822 0,-10.375 8.419,-18.794 18.822,-18.794 z"
         id="path14927" />
      <path
         inkscape:connector-curvature="0"
         fill-rule="evenodd"
         clip-rule="evenodd"
         fill="#221F20"
         d="m 1059.037,811.577 c 10.402,0 18.821,8.419 18.821,18.794 0,10.403 -8.419,18.822 -18.821,18.822 -10.403,0 -18.822,-8.419 -18.822,-18.822 0,-10.375 8.419,-18.794 18.822,-18.794 z"
         id="path14929" />
      <path
         inkscape:connector-curvature="0"
         fill-rule="evenodd"
         clip-rule="evenodd"
         fill="#FEFEFE"
         d="m 1055.352,830.371 h 3.686 3.685 l -1.162,-20.948 c -0.822,-0.085 -1.673,-0.142 -2.522,-0.142 -0.851,0 -1.701,0.057 -2.523,0.142 z"
         id="path14931" />
      <path
         inkscape:connector-curvature="0"
         fill-rule="evenodd"
         clip-rule="evenodd"
         fill="#FEFEFE"
         d="m 1056.429,827.764 2.608,2.607 2.607,2.636 14.003,-15.646 c -1.049,-1.333 -2.239,-2.523 -3.571,-3.572 z"
         id="path14933" />
      <path
         inkscape:connector-curvature="0"
         fill-rule="evenodd"
         clip-rule="evenodd"
         fill="#FEFEFE"
         d="m 1059.037,826.687 v 3.685 3.714 l 20.947,-1.163 c 0.113,-0.85 0.17,-1.672 0.17,-2.551 0,-0.851 -0.057,-1.673 -0.17,-2.522 z"
         id="path14935" />
      <path
         inkscape:connector-curvature="0"
         fill-rule="evenodd"
         clip-rule="evenodd"
         fill="#FEFEFE"
         d="m 1061.645,827.764 -2.607,2.607 -2.608,2.636 15.647,13.976 c 1.332,-1.049 2.522,-2.239 3.571,-3.572 z"
         id="path14937" />
      <path
         inkscape:connector-curvature="0"
         fill-rule="evenodd"
         clip-rule="evenodd"
         fill="#FEFEFE"
         d="m 1062.722,830.371 h -3.685 -3.686 l 1.162,20.977 c 0.822,0.085 1.673,0.142 2.523,0.142 0.85,0 1.7,-0.057 2.522,-0.142 z"
         id="path14939" />
      <path
         inkscape:connector-curvature="0"
         fill-rule="evenodd"
         clip-rule="evenodd"
         fill="#FEFEFE"
         d="m 1061.645,833.007 -2.607,-2.636 -2.608,-2.607 -14.003,15.646 c 1.049,1.333 2.239,2.523 3.571,3.572 z"
         id="path14941" />
      <path
         inkscape:connector-curvature="0"
         fill-rule="evenodd"
         clip-rule="evenodd"
         fill="#FEFEFE"
         d="m 1059.037,834.085 v -3.714 -3.685 l -20.948,1.162 c -0.113,0.85 -0.17,1.672 -0.17,2.522 0,0.879 0.057,1.701 0.17,2.551 z"
         id="path14943" />
      <path
         inkscape:connector-curvature="0"
         fill-rule="evenodd"
         clip-rule="evenodd"
         fill="#FEFEFE"
         d="m 1056.429,833.007 2.608,-2.636 2.607,-2.607 -15.647,-13.976 c -1.332,1.049 -2.522,2.239 -3.571,3.572 z"
         id="path14945" />
      <path
         inkscape:connector-curvature="0"
         fill-rule="evenodd"
         clip-rule="evenodd"
         fill="#221F20"
         d="m 1059.037,826.687 c 2.041,0 3.685,1.644 3.685,3.685 0,2.041 -1.644,3.714 -3.685,3.714 -2.041,0 -3.686,-1.673 -3.686,-3.714 0,-2.041 1.645,-3.685 3.686,-3.685 z"
         id="path14947" />
      <path
         inkscape:connector-curvature="0"
         fill-rule="evenodd"
         clip-rule="evenodd"
         fill="#AB6686"
         d="m 1267.383,793.804 c 20.211,0 36.596,16.385 36.596,36.567 v 5.216 h -73.162 v -5.216 c -10e-4,-20.183 16.355,-36.567 36.566,-36.567 z"
         id="path14949" />
      <path
         inkscape:connector-curvature="0"
         fill-rule="evenodd"
         clip-rule="evenodd"
         fill="#AB6686"
         d="m 1215.991,828.954 c 0.794,-0.851 2.013,-4.564 2.324,-5.5 1.162,-3.741 2.041,-7.653 2.807,-11.479 0.765,-3.742 1.389,-7.569 1.813,-11.367 0.143,-1.36 0.511,-5.216 0.113,-6.463 -2.806,-8.447 -8.9,-15.251 -15.846,-20.58 -0.623,-0.481 -0.736,-1.36 -0.255,-1.984 0.482,-0.623 1.361,-0.736 1.984,-0.255 7.398,5.67 13.805,12.926 16.81,21.912 1.162,3.486 -1.077,15.506 -1.843,19.275 -0.821,4.224 -1.843,8.589 -3.175,12.671 -0.595,1.814 -2.041,6.604 -4.507,6.604 0,0 -0.028,0 -0.057,0 -32.06,-1.219 -64.091,-2.664 -96.18,-3.685 -3.345,-0.113 -5.527,-4.62 -6.576,-7.285 -1.786,-4.422 -2.863,-9.609 -3.43,-14.344 -0.681,-5.754 -0.992,-15.023 2.098,-20.183 3.543,-5.896 7.398,-11.622 11.083,-17.433 0.426,-0.681 1.304,-0.879 1.956,-0.454 0.652,0.426 0.851,1.305 0.425,1.956 -3.656,5.812 -7.512,11.509 -11.026,17.405 -2.693,4.45 -2.296,13.379 -1.701,18.368 0.511,4.507 1.531,9.439 3.231,13.635 0.482,1.275 2.354,5.442 4.054,5.499 31.977,1.022 63.924,2.468 95.898,3.687 z"
         id="path14951" />
      <path
         inkscape:connector-curvature="0"
         fill-rule="evenodd"
         clip-rule="evenodd"
         fill="#AB6686"
         d="m 993.812,785.612 107.604,3.373 c 0.793,0.028 1.417,0.681 1.389,1.445 -0.028,0.794 -0.681,1.418 -1.474,1.39 l -107.604,-3.374 c -0.794,-0.028 -1.417,-0.68 -1.389,-1.474 0.028,-0.765 0.68,-1.388 1.474,-1.36 z"
         id="path14953" />
      <path
         inkscape:connector-curvature="0"
         fill-rule="evenodd"
         clip-rule="evenodd"
         fill="#221F20"
         d="m 1267.383,799.474 c 17.094,0 30.927,13.833 30.927,30.897 0,17.093 -13.833,30.926 -30.927,30.926 -17.064,0 -30.897,-13.833 -30.897,-30.926 0,-17.064 13.832,-30.897 30.897,-30.897 z"
         id="path14955" />
      <path
         inkscape:connector-curvature="0"
         fill-rule="evenodd"
         clip-rule="evenodd"
         fill="#FEFEFE"
         d="m 1267.383,809.281 c 11.679,0 21.118,9.439 21.118,21.09 0,11.679 -9.439,21.118 -21.118,21.118 -11.65,0 -21.09,-9.439 -21.09,-21.118 0,-11.65 9.439,-21.09 21.09,-21.09 z"
         id="path14957" />
      <path
         inkscape:connector-curvature="0"
         fill-rule="evenodd"
         clip-rule="evenodd"
         fill="#221F20"
         d="m 1267.383,811.577 c 10.403,0 18.822,8.419 18.822,18.794 0,10.403 -8.419,18.822 -18.822,18.822 -10.375,0 -18.793,-8.419 -18.793,-18.822 0,-10.375 8.418,-18.794 18.793,-18.794 z"
         id="path14959" />
      <path
         inkscape:connector-curvature="0"
         fill-rule="evenodd"
         clip-rule="evenodd"
         fill="#FEFEFE"
         d="m 1263.698,830.371 h 3.685 3.714 l -1.19,-20.948 c -0.822,-0.085 -1.645,-0.142 -2.523,-0.142 -0.85,0 -1.7,0.057 -2.522,0.142 z"
         id="path14961" />
      <path
         inkscape:connector-curvature="0"
         fill-rule="evenodd"
         clip-rule="evenodd"
         fill="#FEFEFE"
         d="m 1264.775,827.764 2.607,2.607 2.637,2.636 13.975,-15.646 c -1.049,-1.333 -2.239,-2.523 -3.571,-3.572 z"
         id="path14963" />
      <path
         inkscape:connector-curvature="0"
         fill-rule="evenodd"
         clip-rule="evenodd"
         fill="#FEFEFE"
         d="m 1267.383,826.687 v 3.685 3.714 l 20.977,-1.163 c 0.085,-0.85 0.142,-1.672 0.142,-2.551 0,-0.851 -0.057,-1.673 -0.142,-2.522 z"
         id="path14965" />
      <path
         inkscape:connector-curvature="0"
         fill-rule="evenodd"
         clip-rule="evenodd"
         fill="#FEFEFE"
         d="m 1270.02,827.764 -2.637,2.607 -2.607,2.636 15.647,13.976 c 1.332,-1.049 2.522,-2.239 3.571,-3.572 z"
         id="path14967" />
      <path
         inkscape:connector-curvature="0"
         fill-rule="evenodd"
         clip-rule="evenodd"
         fill="#FEFEFE"
         d="m 1271.097,830.371 h -3.714 -3.685 l 1.162,20.977 c 0.822,0.085 1.673,0.142 2.522,0.142 0.879,0 1.701,-0.057 2.523,-0.142 z"
         id="path14969" />
      <path
         inkscape:connector-curvature="0"
         fill-rule="evenodd"
         clip-rule="evenodd"
         fill="#FEFEFE"
         d="m 1270.02,833.007 -2.637,-2.636 -2.607,-2.607 -13.975,15.646 c 1.021,1.333 2.239,2.523 3.571,3.572 z"
         id="path14971" />
      <path
         inkscape:connector-curvature="0"
         fill-rule="evenodd"
         clip-rule="evenodd"
         fill="#FEFEFE"
         d="m 1267.383,834.085 v -3.714 -3.685 l -20.947,1.162 c -0.086,0.85 -0.143,1.672 -0.143,2.522 0,0.879 0.057,1.701 0.143,2.551 z"
         id="path14973" />
      <path
         inkscape:connector-curvature="0"
         fill-rule="evenodd"
         clip-rule="evenodd"
         fill="#FEFEFE"
         d="m 1264.775,833.007 2.607,-2.636 2.637,-2.607 -15.647,-13.976 c -1.332,1.049 -2.551,2.239 -3.571,3.572 z"
         id="path14975" />
      <path
         inkscape:connector-curvature="0"
         fill-rule="evenodd"
         clip-rule="evenodd"
         fill="#221F20"
         d="m 1267.383,826.687 c 2.041,0 3.714,1.644 3.714,3.685 0,2.041 -1.673,3.714 -3.714,3.714 -2.041,0 -3.685,-1.673 -3.685,-3.714 0,-2.041 1.644,-3.685 3.685,-3.685 z"
         id="path14977" />
      <path
         inkscape:connector-curvature="0"
         fill-rule="evenodd"
         clip-rule="evenodd"
         fill="#0C1217"
         d="m 1210.01,772.431 c -5.103,-4.903 -12.132,-9.949 -16.781,-13.067 -4.847,-3.26 -19.672,-12.388 -25.455,-12.388 -19.644,0 -39.883,-0.028 -59.471,1.56 -10.856,0.879 -21.175,2.353 -31.635,5.527 -9.694,2.948 -19.275,7.002 -28.687,10.743 -11.594,4.592 -10.375,7.625 6.633,7.625 z"
         id="path14979" />
      <path
         inkscape:connector-curvature="0"
         fill-rule="evenodd"
         clip-rule="evenodd"
         fill="#0E1C26"
         d="m 1202.47,769.597 c -3.515,-2.807 -7.229,-5.472 -10.828,-7.881 -3.742,-2.494 -7.739,-4.875 -11.679,-7.029 -2.608,-1.418 -9.27,-4.876 -12.189,-4.876 -19.729,0 -39.571,-0.057 -59.244,1.53 -10.573,0.879 -20.862,2.354 -31.039,5.443 -9.694,2.919 -19.077,6.916 -28.46,10.658 -0.681,0.255 -2.353,0.963 -3.77,1.672 3.146,0.426 7.937,0.482 9.354,0.482 h 147.855 z"
         id="path14981" />
      <path
         inkscape:connector-curvature="0"
         fill-rule="evenodd"
         clip-rule="evenodd"
         fill="#FEFEFE"
         d="m 1130.017,778.95 h 14.428 c 0.794,0 1.418,0.652 1.418,1.418 v 2.239 c 0,0.766 -0.624,1.417 -1.418,1.417 h -14.428 c -0.766,0 -1.418,-0.651 -1.418,-1.417 v -2.239 c 0,-0.765 0.652,-1.418 1.418,-1.418 z"
         id="path14983" />
      <polygon
         fill-rule="evenodd"
         clip-rule="evenodd"
         fill="#F0B6CE"
         points="1128.287,821.471 1123.979,813.392 1200.57,820.365 1200.344,825.099 "
         id="polygon14985" />
      <polygon
         fill-rule="evenodd"
         clip-rule="evenodd"
         fill="#F3D7E3"
         points="1259.39,792.841 1064.054,791.621 1040.583,785.782 "
         id="polygon14987" />
      <path
         inkscape:connector-curvature="0"
         fill-rule="evenodd"
         clip-rule="evenodd"
         fill="#EDC0D1"
         d="m 1111.223,788.05 3.062,0.085 c -0.567,1.077 -0.992,2.381 -1.276,3.771 h -2.891 c 0.254,-1.39 0.622,-2.694 1.105,-3.856 z m 110.863,3.571 3.09,0.114 c 0.113,0.283 0.227,0.595 0.34,0.878 l -3.033,-0.028 c -0.114,-0.312 -0.255,-0.651 -0.397,-0.964 z"
         id="path14989" />
      <path
         inkscape:connector-curvature="0"
         fill-rule="evenodd"
         clip-rule="evenodd"
         fill="#EDC0D1"
         d="m 1059.632,790.516 -13.039,-3.26 54.822,1.729 c 0.793,0.028 1.417,0.681 1.389,1.445 -0.028,0.794 -0.681,1.418 -1.474,1.39 z"
         id="path14991" />
    </g>
  </g>
</svg>
