<?xml version="1.0" encoding="UTF-8" standalone="no"?>
<svg
   xmlns:dc="http://purl.org/dc/elements/1.1/"
   xmlns:cc="http://creativecommons.org/ns#"
   xmlns:rdf="http://www.w3.org/1999/02/22-rdf-syntax-ns#"
   xmlns:svg="http://www.w3.org/2000/svg"
   xmlns="http://www.w3.org/2000/svg"
   xmlns:sodipodi="http://sodipodi.sourceforge.net/DTD/sodipodi-0.dtd"
   xmlns:inkscape="http://www.inkscape.org/namespaces/inkscape"
   inkscape:version="1.0beta1 (32d4812, 2019-09-19)"
   id="svg13135"
   version="1.1"
   viewBox="0 0 507.99998 285.75001"
   height="1080"
   width="1920">
  <defs
     id="defs13129" />
  <sodipodi:namedview
     inkscape:window-maximized="0"
     inkscape:window-y="82"
     inkscape:window-x="27"
     inkscape:window-height="907"
     inkscape:window-width="1600"
     width="1920px"
     units="px"
     showgrid="false"
     inkscape:document-rotation="0"
     inkscape:current-layer="layer1"
     inkscape:document-units="mm"
     inkscape:cy="560"
     inkscape:cx="704.28571"
     inkscape:zoom="0.35"
     inkscape:pageshadow="2"
     inkscape:pageopacity="0.0"
     borderopacity="1.0"
     bordercolor="#666666"
     pagecolor="#ffffff"
     id="base" />
  <metadata
     id="metadata13132">
    <rdf:RDF>
      <cc:Work
         rdf:about="">
        <dc:format>image/svg+xml</dc:format>
        <dc:type
           rdf:resource="http://purl.org/dc/dcmitype/StillImage" />
        <dc:title></dc:title>
      </cc:Work>
    </rdf:RDF>
  </metadata>
  <g
     id="layer1"
     inkscape:groupmode="layer"
     inkscape:label="Layer 1">
    <g
       transform="matrix(1.3229166,0,0,1.3229166,-1279.3588,-106.01659)"
       id="g14387">
      <path
         inkscape:connector-curvature="0"
         fill-rule="evenodd"
         clip-rule="evenodd"
         fill="#F49E1B"
         d="m 978.192,215.055 c 0,21.855 22.819,9.553 30.558,21.855 103.352,0 194.91,0 298.262,0 11.026,-5.188 0,0 11.026,-5.188 8.306,0 22.706,-4.11 22.706,-16.81 0,-12.161 -5.414,-26.22 -12.784,-33.845 -7.796,-8.079 -44.136,-20.863 -64.942,-23.244 -92.324,-54.028 -178.271,-46.659 -262.488,-10.8 -10.573,0 0,0 -10.573,0 -11.765,13.947 -14.032,35.575 -11.765,68.032 z"
         id="path14297" />
      <path
         inkscape:connector-curvature="0"
         fill-rule="evenodd"
         clip-rule="evenodd"
         fill="#E68E23"
         d="m 982.246,160.516 c 42.974,27.014 247.55,24.066 301.975,22.875 29.141,-0.624 43.059,3.146 52.668,12.274 2.409,6.151 3.855,12.955 3.855,19.247 0,12.699 -14.4,16.81 -22.706,16.81 -11.026,5.188 0,0 -11.026,5.188 -103.352,0 -194.91,0 -298.262,0 -7.738,-12.302 -30.558,0 -30.558,-21.855 -1.643,-23.443 -0.907,-41.216 4.054,-54.539 z"
         id="path14299" />
      <path
         inkscape:connector-curvature="0"
         fill-rule="evenodd"
         clip-rule="evenodd"
         fill="#FEFEFE"
         d="m 1326.061,188.182 c -2.154,-2.239 -8.532,-5.216 -11.367,-6.491 -2.948,-1.333 -5.981,-2.551 -9.014,-3.713 -20.098,-7.625 -7.257,5.471 5.357,12.416 8.391,4.62 21.543,4.308 15.024,-2.212 z"
         id="path14301" />
      <path
         inkscape:connector-curvature="0"
         fill-rule="evenodd"
         clip-rule="evenodd"
         fill="#BA7227"
         d="m 1050.533,190.053 c 20.211,0 36.595,16.384 36.595,36.596 v 10.261 h -73.19 v -10.261 c 0,-20.212 16.384,-36.596 36.595,-36.596 z"
         id="path14303" />
      <path
         inkscape:connector-curvature="0"
         fill-rule="evenodd"
         clip-rule="evenodd"
         fill="#221F20"
         d="m 1050.533,195.722 c 17.093,0 30.926,13.833 30.926,30.926 0,17.064 -13.833,30.926 -30.926,30.926 -17.064,0 -30.927,-13.861 -30.927,-30.926 0,-17.093 13.863,-30.926 30.927,-30.926 z"
         id="path14305" />
      <path
         inkscape:connector-curvature="0"
         fill-rule="evenodd"
         clip-rule="evenodd"
         fill="#FEFEFE"
         d="m 1050.533,205.53 c 11.65,0 21.117,9.468 21.117,21.118 0,11.65 -9.467,21.118 -21.117,21.118 -11.65,0 -21.09,-9.468 -21.09,-21.118 0,-11.65 9.44,-21.118 21.09,-21.118 z m 0,2.296 c 10.402,0 18.821,8.419 18.821,18.822 0,10.403 -8.419,18.822 -18.821,18.822 -10.375,0 -18.822,-8.419 -18.822,-18.822 0,-10.403 8.447,-18.822 18.822,-18.822 z"
         id="path14307" />
      <path
         inkscape:connector-curvature="0"
         fill-rule="evenodd"
         clip-rule="evenodd"
         fill="#BA7227"
         d="m 1271.891,190.053 c 20.211,0 36.595,16.384 36.595,36.596 v 9.553 l -1.474,0.708 h -71.717 v -10.261 c 0,-20.212 16.385,-36.596 36.596,-36.596 z"
         id="path14309" />
      <path
         inkscape:connector-curvature="0"
         fill-rule="evenodd"
         clip-rule="evenodd"
         fill="#221F20"
         d="m 1271.891,195.722 c 17.064,0 30.926,13.833 30.926,30.926 0,17.064 -13.861,30.926 -30.926,30.926 -17.065,0 -30.927,-13.861 -30.927,-30.926 0,-17.093 13.862,-30.926 30.927,-30.926 z"
         id="path14311" />
      <path
         inkscape:connector-curvature="0"
         fill-rule="evenodd"
         clip-rule="evenodd"
         fill="#FEFEFE"
         d="m 1271.891,205.53 c 11.65,0 21.117,9.468 21.117,21.118 0,11.65 -9.467,21.118 -21.117,21.118 -11.65,0 -21.118,-9.468 -21.118,-21.118 0,-11.65 9.467,-21.118 21.118,-21.118 z"
         id="path14313" />
      <path
         inkscape:connector-curvature="0"
         fill-rule="evenodd"
         clip-rule="evenodd"
         fill="#221F20"
         d="m 1050.533,207.826 c 10.402,0 18.821,8.419 18.821,18.822 0,10.403 -8.419,18.822 -18.821,18.822 -10.375,0 -18.822,-8.419 -18.822,-18.822 0,-10.403 8.447,-18.822 18.822,-18.822 z"
         id="path14315" />
      <path
         inkscape:connector-curvature="0"
         fill-rule="evenodd"
         clip-rule="evenodd"
         fill="#FEFEFE"
         d="m 1046.848,226.648 h 3.686 3.713 l -1.19,-20.948 c -0.822,-0.113 -1.673,-0.17 -2.522,-0.17 -0.851,0 -1.701,0.057 -2.523,0.17 z"
         id="path14317" />
      <path
         inkscape:connector-curvature="0"
         fill-rule="evenodd"
         clip-rule="evenodd"
         fill="#FEFEFE"
         d="m 1047.925,224.041 2.608,2.608 2.607,2.607 14.003,-15.647 c -1.049,-1.333 -2.239,-2.523 -3.571,-3.572 z"
         id="path14319" />
      <path
         inkscape:connector-curvature="0"
         fill-rule="evenodd"
         clip-rule="evenodd"
         fill="#FEFEFE"
         d="m 1050.533,222.963 v 3.685 3.685 l 20.947,-1.162 c 0.113,-0.822 0.17,-1.672 0.17,-2.522 0,-0.851 -0.057,-1.701 -0.17,-2.523 z"
         id="path14321" />
      <path
         inkscape:connector-curvature="0"
         fill-rule="evenodd"
         clip-rule="evenodd"
         fill="#FEFEFE"
         d="m 1053.141,224.041 -2.607,2.608 -2.608,2.607 15.647,14.003 c 1.332,-1.049 2.522,-2.239 3.571,-3.572 z"
         id="path14323" />
      <path
         inkscape:connector-curvature="0"
         fill-rule="evenodd"
         clip-rule="evenodd"
         fill="#FEFEFE"
         d="m 1054.246,226.648 h -3.713 -3.686 l 1.162,20.948 c 0.822,0.113 1.673,0.17 2.523,0.17 0.85,0 1.7,-0.057 2.522,-0.17 z"
         id="path14325" />
      <path
         inkscape:connector-curvature="0"
         fill-rule="evenodd"
         clip-rule="evenodd"
         fill="#FEFEFE"
         d="m 1053.141,229.256 -2.607,-2.607 -2.608,-2.608 -14.003,15.647 c 1.049,1.333 2.268,2.523 3.571,3.572 z"
         id="path14327" />
      <path
         inkscape:connector-curvature="0"
         fill-rule="evenodd"
         clip-rule="evenodd"
         fill="#FEFEFE"
         d="m 1050.533,230.333 v -3.685 -3.685 l -20.948,1.162 c -0.113,0.822 -0.142,1.672 -0.142,2.523 0,0.85 0.028,1.701 0.142,2.522 z"
         id="path14329" />
      <path
         inkscape:connector-curvature="0"
         fill-rule="evenodd"
         clip-rule="evenodd"
         fill="#FEFEFE"
         d="m 1047.925,229.256 2.608,-2.607 2.607,-2.608 -15.647,-14.003 c -1.304,1.049 -2.522,2.239 -3.571,3.572 z"
         id="path14331" />
      <path
         inkscape:connector-curvature="0"
         fill-rule="evenodd"
         clip-rule="evenodd"
         fill="#221F20"
         d="m 1050.533,222.963 c 2.041,0 3.713,1.644 3.713,3.685 0,2.041 -1.672,3.685 -3.713,3.685 -2.041,0 -3.686,-1.644 -3.686,-3.685 10e-4,-2.041 1.645,-3.685 3.686,-3.685 z"
         id="path14333" />
      <path
         inkscape:connector-curvature="0"
         fill-rule="evenodd"
         clip-rule="evenodd"
         fill="#221F20"
         d="m 1271.891,207.826 c 10.402,0 18.821,8.419 18.821,18.822 0,10.403 -8.419,18.822 -18.821,18.822 -10.403,0 -18.822,-8.419 -18.822,-18.822 -10e-4,-10.403 8.418,-18.822 18.822,-18.822 z"
         id="path14335" />
      <path
         inkscape:connector-curvature="0"
         fill-rule="evenodd"
         clip-rule="evenodd"
         fill="#FEFEFE"
         d="m 1268.205,226.648 h 3.686 3.685 l -1.162,-20.948 c -0.822,-0.113 -1.673,-0.17 -2.522,-0.17 -0.851,0 -1.701,0.057 -2.523,0.17 z"
         id="path14337" />
      <path
         inkscape:connector-curvature="0"
         fill-rule="evenodd"
         clip-rule="evenodd"
         fill="#FEFEFE"
         d="m 1269.282,224.041 2.608,2.608 2.607,2.607 14.003,-15.647 c -1.049,-1.333 -2.239,-2.523 -3.571,-3.572 z"
         id="path14339" />
      <path
         inkscape:connector-curvature="0"
         fill-rule="evenodd"
         clip-rule="evenodd"
         fill="#FFFFFF"
         d="m 1271.891,222.963 v 3.685 3.685 l 20.947,-1.162 c 0.113,-0.822 0.17,-1.672 0.17,-2.522 0,-0.851 -0.057,-1.701 -0.17,-2.523 z"
         id="path14341" />
      <path
         inkscape:connector-curvature="0"
         fill-rule="evenodd"
         clip-rule="evenodd"
         fill="#FEFEFE"
         d="m 1274.498,224.041 -2.607,2.608 -2.608,2.607 15.647,14.003 c 1.332,-1.049 2.522,-2.239 3.571,-3.572 z"
         id="path14343" />
      <path
         inkscape:connector-curvature="0"
         fill-rule="evenodd"
         clip-rule="evenodd"
         fill="#FEFEFE"
         d="m 1275.575,226.648 h -3.685 -3.686 l 1.162,20.948 c 0.822,0.113 1.673,0.17 2.523,0.17 0.85,0 1.7,-0.057 2.522,-0.17 z"
         id="path14345" />
      <path
         inkscape:connector-curvature="0"
         fill-rule="evenodd"
         clip-rule="evenodd"
         fill="#FEFEFE"
         d="m 1274.498,229.256 -2.607,-2.607 -2.608,-2.608 -14.003,15.647 c 1.049,1.333 2.239,2.523 3.571,3.572 z"
         id="path14347" />
      <path
         inkscape:connector-curvature="0"
         fill-rule="evenodd"
         clip-rule="evenodd"
         fill="#FEFEFE"
         d="m 1271.891,230.333 v -3.685 -3.685 l -20.948,1.162 c -0.113,0.822 -0.17,1.672 -0.17,2.523 0,0.85 0.057,1.701 0.17,2.522 z"
         id="path14349" />
      <path
         inkscape:connector-curvature="0"
         fill-rule="evenodd"
         clip-rule="evenodd"
         fill="#FEFEFE"
         d="m 1269.282,229.256 2.608,-2.607 2.607,-2.608 -15.647,-14.003 c -1.332,1.049 -2.522,2.239 -3.571,3.572 z"
         id="path14351" />
      <path
         inkscape:connector-curvature="0"
         fill-rule="evenodd"
         clip-rule="evenodd"
         fill="#221F20"
         d="m 1271.891,222.963 c 2.041,0 3.685,1.644 3.685,3.685 0,2.041 -1.644,3.685 -3.685,3.685 -2.041,0 -3.686,-1.644 -3.686,-3.685 0,-2.041 1.645,-3.685 3.686,-3.685 z"
         id="path14353" />
      <path
         inkscape:connector-curvature="0"
         fill-rule="evenodd"
         clip-rule="evenodd"
         fill="#BA7227"
         d="m 1069.354,174.859 c 21.288,7.738 35.745,27.808 36.256,50.542 l 119.083,3.487 24.604,-56.75 c 0.313,-0.709 1.162,-1.021 1.871,-0.737 0.709,0.312 1.049,1.162 0.737,1.871 l -25.002,57.628 c -0.227,0.539 -0.766,0.878 -1.332,0.85 l -121.408,-3.572 c -0.396,0 -0.709,-0.17 -0.992,-0.453 -0.255,-0.284 -0.396,-0.624 -0.368,-0.992 0,-0.028 0,-0.057 0,-0.085 0,-22.592 -14.542,-42.633 -35.943,-49.663 -0.396,-0.113 -0.709,-0.397 -0.879,-0.822 -0.142,-0.396 -0.113,-0.822 0.085,-1.19 l 9.894,-18.198 c 0.368,-0.681 1.219,-0.936 1.898,-0.567 0.709,0.369 0.964,1.248 0.596,1.928 z"
         id="path14355" />
      <path
         inkscape:connector-curvature="0"
         fill-rule="evenodd"
         clip-rule="evenodd"
         fill="#BA7227"
         d="m 1164.372,164.598 -5.782,63.836 c -0.086,0.765 -0.766,1.361 -1.56,1.275 -0.766,-0.057 -1.36,-0.765 -1.275,-1.531 l 5.811,-63.836 c 0.058,-0.766 0.766,-1.333 1.531,-1.275 0.794,0.085 1.36,0.766 1.275,1.531 z"
         id="path14357" />
      <path
         inkscape:connector-curvature="0"
         fill-rule="evenodd"
         clip-rule="evenodd"
         fill="#0C1217"
         d="m 1258.737,165.165 c -73.7,-43.115 -145.162,-47.537 -220.903,-23.074 l 14.74,14.74 194.626,16.129 c 5.698,0.397 17.206,-4.507 11.537,-7.795 z"
         id="path14359" />
      <path
         inkscape:connector-curvature="0"
         fill-rule="evenodd"
         clip-rule="evenodd"
         fill="#122836"
         d="m 1043.163,143.395 10.687,10.687 193.549,16.044 c 1.531,0.113 3.487,-0.284 4.961,-0.737 0.907,-0.255 3.288,-1.134 4.507,-2.012 -69.279,-40.395 -138.104,-47.312 -213.704,-23.982 z"
         id="path14361" />
      <path
         inkscape:connector-curvature="0"
         fill-rule="evenodd"
         clip-rule="evenodd"
         fill="#BA7227"
         d="m 1321.809,209.158 h 9.751 c 1.786,0 3.26,1.474 3.26,3.26 v 7.824 c 0,1.786 -1.474,3.26 -3.26,3.26 h -9.751 c -1.786,0 -3.26,-1.474 -3.26,-3.26 v -7.824 c 0,-1.786 1.473,-3.26 3.26,-3.26 z"
         id="path14363" />
      <path
         inkscape:connector-curvature="0"
         fill-rule="evenodd"
         clip-rule="evenodd"
         fill="#FEFEFE"
         d="m 1170.382,177.325 11.934,0.992 c 0.766,0.057 1.36,0.737 1.275,1.531 l -0.227,2.92 c -0.085,0.765 -0.766,1.36 -1.53,1.275 l -11.935,-0.992 c -0.794,-0.057 -1.36,-0.765 -1.304,-1.531 l 0.255,-2.919 c 0.057,-0.766 0.738,-1.361 1.532,-1.276 z"
         id="path14365" />
      <path
         inkscape:connector-curvature="0"
         fill-rule="evenodd"
         clip-rule="evenodd"
         fill="#FEFEFE"
         d="m 1083.244,169.615 11.935,0.992 c 0.765,0.057 1.36,0.765 1.275,1.531 l -0.227,2.919 c -0.057,0.766 -0.766,1.361 -1.531,1.275 l -11.934,-0.992 c -0.794,-0.057 -1.36,-0.766 -1.304,-1.531 l 0.255,-2.92 c 0.058,-0.764 0.738,-1.359 1.531,-1.274 z"
         id="path14367" />
      <polygon
         fill-rule="evenodd"
         clip-rule="evenodd"
         fill="#F5BE6C"
         points="1218.627,221.744 1220.356,225.203 1108.444,223.105 1118.734,214.459 "
         id="polygon14369" />
      <polygon
         fill-rule="evenodd"
         clip-rule="evenodd"
         fill="#F7E1BE"
         points="1261.176,184.043 1065.981,176.163 1042.737,169.53 "
         id="polygon14371" />
      <path
         inkscape:connector-curvature="0"
         fill-rule="evenodd"
         clip-rule="evenodd"
         fill="#F8F3E4"
         d="m 1096.397,173.102 -0.17,1.956 c -0.057,0.766 -0.766,1.361 -1.531,1.275 l -11.934,-0.992 c -0.794,-0.057 -1.36,-0.766 -1.304,-1.531 l 0.142,-1.701 z"
         id="path14373" />
      <path
         inkscape:connector-curvature="0"
         fill-rule="evenodd"
         clip-rule="evenodd"
         fill="#F8F3E4"
         d="m 1183.308,178.884 c 0.198,0.255 0.312,0.595 0.283,0.964 l -0.085,1.077 -14.825,-0.595 0.17,-1.729 c 0,-0.255 0.085,-0.482 0.228,-0.68 z"
         id="path14375" />
      <polygon
         fill-rule="evenodd"
         clip-rule="evenodd"
         fill="#EDAD5A"
         points="1156.747,217.237 1159.582,217.436 1158.986,224.041 1156.123,223.983 "
         id="polygon14377" />
      <path
         inkscape:connector-curvature="0"
         fill-rule="evenodd"
         clip-rule="evenodd"
         fill="#FEFEFE"
         d="m 984.429,155.47 12.699,1.786 c 1.36,0.199 2.296,1.446 2.098,2.807 l -4.167,29.82 c -0.17,1.333 -1.445,2.296 -2.777,2.098 l -14.825,-2.069 c 0.396,-14.117 2.465,-25.456 6.972,-34.442 z"
         id="path14379" />
      <path
         inkscape:connector-curvature="0"
         fill-rule="evenodd"
         clip-rule="evenodd"
         fill="#E5E6E6"
         d="m 982.246,160.516 c 3.997,2.494 9.411,4.762 15.987,6.775 l -3.175,22.592 c -0.17,1.333 -1.445,2.296 -2.777,2.098 l -14.825,-2.069 c 0.085,-3.062 0.255,-5.981 0.51,-8.787 v -0.142 c 0.057,-0.595 0.113,-1.162 0.17,-1.729 v 0 l 0.057,-0.595 0.028,-0.028 c 0.085,-0.766 0.17,-1.531 0.256,-2.268 l 0.027,-0.114 0.058,-0.481 v -0.057 c 0.057,-0.34 0.113,-0.68 0.142,-0.992 l 0.028,-0.142 0.085,-0.482 v -0.113 l 0.085,-0.482 0.085,-0.567 0.085,-0.454 0.028,-0.142 0.085,-0.482 v 0 l 0.113,-0.539 0.113,-0.539 v 0 l 0.057,-0.425 0.058,-0.198 0.085,-0.425 0.028,-0.17 c 0.057,-0.255 0.113,-0.51 0.17,-0.766 l 0.028,-0.17 0.113,-0.369 0.057,-0.255 0.057,-0.34 0.113,-0.397 0.113,-0.482 0.057,-0.227 0.085,-0.369 0.085,-0.227 0.085,-0.369 v 0 l 0.143,-0.482 0.085,-0.312 0.085,-0.284 0.085,-0.283 0.085,-0.312 0.085,-0.284 v 0 l 0.17,-0.481 v 0 l 0.085,-0.312 0.085,-0.284 0.114,-0.283 0.085,-0.312 0.113,-0.255 0.17,-0.51 0.085,-0.255 0.113,-0.255 z"
         id="path14381" />
      <path
         inkscape:connector-curvature="0"
         fill-rule="evenodd"
         clip-rule="evenodd"
         fill="#EC3822"
         d="m 997.156,174.973 -18.028,-2.806 c -0.964,5.357 -1.474,11.253 -1.672,17.745 l 14.825,2.069 c 1.332,0.198 2.607,-0.765 2.777,-2.098 z"
         id="path14383" />
      <path
         inkscape:connector-curvature="0"
         fill-rule="evenodd"
         clip-rule="evenodd"
         fill="#E5E6E6"
         d="m 1301.002,183.618 c 11.141,0.624 19.275,2.325 25.653,5.188 5.074,5.924 -7.512,6.066 -15.618,1.587 -3.572,-1.984 -7.172,-4.422 -10.035,-6.775 z"
         id="path14385" />
    </g>
  </g>
</svg>
