<?xml version="1.0" encoding="UTF-8" standalone="no"?>
<svg
   xmlns:dc="http://purl.org/dc/elements/1.1/"
   xmlns:cc="http://creativecommons.org/ns#"
   xmlns:rdf="http://www.w3.org/1999/02/22-rdf-syntax-ns#"
   xmlns:svg="http://www.w3.org/2000/svg"
   xmlns="http://www.w3.org/2000/svg"
   xmlns:sodipodi="http://sodipodi.sourceforge.net/DTD/sodipodi-0.dtd"
   xmlns:inkscape="http://www.inkscape.org/namespaces/inkscape"
   inkscape:version="1.0beta1 (32d4812, 2019-09-19)"
   id="svg13135"
   version="1.1"
   viewBox="0 0 507.99998 285.75001"
   height="1080"
   width="1920">
  <defs
     id="defs13129" />
  <sodipodi:namedview
     inkscape:window-maximized="0"
     inkscape:window-y="82"
     inkscape:window-x="27"
     inkscape:window-height="907"
     inkscape:window-width="1600"
     width="1920px"
     units="px"
     showgrid="false"
     inkscape:document-rotation="0"
     inkscape:current-layer="layer1"
     inkscape:document-units="mm"
     inkscape:cy="560"
     inkscape:cx="704.28571"
     inkscape:zoom="0.35"
     inkscape:pageshadow="2"
     inkscape:pageopacity="0.0"
     borderopacity="1.0"
     bordercolor="#666666"
     pagecolor="#ffffff"
     id="base" />
  <metadata
     id="metadata13132">
    <rdf:RDF>
      <cc:Work
         rdf:about="">
        <dc:format>image/svg+xml</dc:format>
        <dc:type
           rdf:resource="http://purl.org/dc/dcmitype/StillImage" />
        <dc:title></dc:title>
      </cc:Work>
    </rdf:RDF>
  </metadata>
  <g
     id="layer1"
     inkscape:groupmode="layer"
     inkscape:label="Layer 1">
    <g
       transform="matrix(1.3229166,0,0,1.3229166,-1228.5926,-561.41486)"
       id="g22500">
      <path
         fill-rule="evenodd"
         clip-rule="evenodd"
         d="m 938,565 h 329.2 l 21.8,-9.9 V 549 h -29.6 c -1.5,-18 -17.5,-34 -36.9,-34 -19.4,0 -35.4,16 -36.9,34 h -149 c -1.5,-18 -17.1,-33.2 -36.1,-33.2 -19,0 -34.6,15.2 -36.1,33.2 H 938 Z"
         id="path15711"
         inkscape:connector-curvature="0"
         style="opacity:1;stop-opacity:1" />
      <path
         fill-rule="evenodd"
         clip-rule="evenodd"
         fill="#FF00B2"
         d="m 938,563 h 29.8 c -1,-4 -1.6,-6.6 -1.6,-10.2 0,-18.9 15.3,-34.1 34.2,-34.1 18.9,0 34.2,15.3 34.2,34.1 0,3.6 -0.6,6.2 -1.6,10.2 h 156.8 c -1,-4 -1.6,-6.6 -1.6,-10.2 0,-18.9 15.3,-34.1 34.2,-34.1 18.9,0 34.2,15.3 34.2,34.1 0,3.6 -0.6,6.2 -1.6,10.2 h 8.2 l 25.7,-12.6 v -41.6 c -95,-16.4 -98.5,22.9 -224,-0.1 -45.4,-8.3 -92,3.4 -127,38.2 V 563 Z"
         id="path15713"
         inkscape:connector-curvature="0"
         style="opacity:1;stop-opacity:1" />
      <path
         fill-rule="evenodd"
         clip-rule="evenodd"
         fill="#98006A"
         d="m 1215.1,479 38.7,12.9 35.6,16.9 c -95.4,-16.4 -98.3,22.9 -223.8,0 26.4,-15.6 64.7,-30.8 90.5,-29.8 z"
         id="path15715"
         inkscape:connector-curvature="0"
         style="opacity:1;stop-opacity:1" />
      <path
         fill-rule="evenodd"
         clip-rule="evenodd"
         fill="#C10087"
         d="m 938,547 h 22.7 l 6.2,-0.8 c -0.4,2.2 -0.7,4.3 -0.7,6.7 0,3.6 0.6,6.2 1.6,10.2 H 938 Z m 93.3,-8.8 23.6,-2.9 107.9,2.4 32.1,-5 c -4.2,5.7 -6.6,12.6 -6.6,20.1 0,3.6 0.5,6.2 1.6,10.2 h -156.8 c 1,-4 1.6,-6.6 1.6,-10.2 -0.1,-5.3 -1.2,-10.2 -3.4,-14.6 z m 211.1,-13 46.6,-7.3 v 32 l -25.7,13.1 h -8.2 c 1.1,-4 1.5,-6.6 1.5,-10.2 0,-11.4 -5.7,-21.4 -14.2,-27.6 z"
         id="path15717"
         inkscape:connector-curvature="0"
         style="opacity:1;stop-opacity:1" />
      <path
         fill-rule="evenodd"
         clip-rule="evenodd"
         fill="#323232"
         d="m 1000.5,520.1 c 18.1,0 32.8,14.7 32.8,32.8 0,18.2 -14.7,32.9 -32.8,32.9 -18.2,0 -32.9,-14.7 -32.9,-32.9 0,-18.1 14.7,-32.8 32.9,-32.8 z m 0,14 c 10.4,0 18.8,8.4 18.8,18.8 0,10.4 -8.4,18.9 -18.8,18.9 -10.4,0 -18.9,-8.4 -18.9,-18.9 0,-10.4 8.4,-18.8 18.9,-18.8 z"
         id="path15719"
         inkscape:connector-curvature="0"
         style="opacity:1;stop-opacity:1" />
      <path
         fill-rule="evenodd"
         clip-rule="evenodd"
         fill="#CBCBCB"
         d="m 1000.5,530.6 c 12.3,0 22.3,10 22.3,22.3 0,12.3 -10,22.3 -22.3,22.3 -12.3,0 -22.3,-10 -22.3,-22.3 0,-12.3 9.9,-22.3 22.3,-22.3 z m 1.5,4.8 v 12.9 l 9.1,-9.1 c -2.6,-2.1 -6.1,-3.4 -9.1,-3.8 z m 12.1,5.5 -9.1,9.1 h 12.9 c -0.3,-3 -1.7,-6.6 -3.8,-9.1 z m 3.8,13.1 H 1005 l 9.1,9.1 c 2.1,-2.6 3.5,-5.1 3.8,-9.1 z m -6.8,12.6 -9.1,-9.1 v 12.9 c 3,-0.4 6.5,-1.7 9.1,-3.8 z m -12.1,3.8 v -12.9 l -9.1,9.1 c 2.6,2.1 5.1,3.4 9.1,3.8 z m -12.3,-7.3 9.1,-9.1 H 983 c 0.3,4 1.7,6.5 3.7,9.1 z M 983,550 h 12.9 l -9.1,-9.1 c -2.1,2.5 -3.5,6.1 -3.8,9.1 z m 6.9,-10.8 9.1,9.1 v -12.9 c -4,0.4 -6.5,1.7 -9.1,3.8 z"
         id="path15721"
         inkscape:connector-curvature="0"
         style="opacity:1;stop-opacity:1" />
      <path
         fill-rule="evenodd"
         clip-rule="evenodd"
         fill="#323232"
         d="m 1222.5,520.1 c 18.1,0 32.9,14.7 32.9,32.8 0,18.2 -14.7,32.9 -32.9,32.9 -18.2,0 -32.9,-14.7 -32.9,-32.9 0,-18.1 14.8,-32.8 32.9,-32.8 z m 0,14 c 10.4,0 18.9,8.4 18.9,18.8 0,10.4 -8.4,18.9 -18.9,18.9 -10.5,0 -18.9,-8.4 -18.9,-18.9 0,-10.4 8.5,-18.8 18.9,-18.8 z"
         id="path15723"
         inkscape:connector-curvature="0"
         style="opacity:1;stop-opacity:1" />
      <path
         fill-rule="evenodd"
         clip-rule="evenodd"
         fill="#CBCBCB"
         d="m 1222.5,530.6 c 12.3,0 22.3,10 22.3,22.3 0,12.3 -9.9,22.3 -22.3,22.3 -12.3,0 -22.3,-10 -22.3,-22.3 0,-12.3 10,-22.3 22.3,-22.3 z m 2.5,4.8 v 12.9 l 9.1,-9.1 c -2.5,-2.1 -7.1,-3.4 -9.1,-3.8 z m 11.2,5.5 -9.1,9.1 h 12.9 c -0.4,-3 -1.7,-6.6 -3.8,-9.1 z m 3.8,13.1 h -12.9 l 9.1,9.1 c 2.1,-2.6 3.4,-5.1 3.8,-9.1 z m -5.9,12.6 -9.1,-9.1 v 12.9 c 2,-0.4 6.6,-1.7 9.1,-3.8 z m -14.1,3.8 v -12.9 l -9.1,9.1 c 2.5,2.1 6.1,3.4 9.1,3.8 z m -11.2,-7.3 9.1,-9.1 H 1205 c 0.4,4 1.8,6.5 3.8,9.1 z M 1205,550 h 12.9 l -9.1,-9.1 c -2,2.5 -3.4,6.1 -3.8,9.1 z m 5.9,-10.8 9.1,9.1 v -12.9 c -3,0.4 -6.6,1.7 -9.1,3.8 z"
         id="path15725"
         inkscape:connector-curvature="0"
         style="opacity:1;stop-opacity:1" />
      <path
         fill-rule="evenodd"
         clip-rule="evenodd"
         d="m 1215.1,482 17.1,22.5 c -27.4,1.7 -47.4,8.2 -77.8,10.2 l 5.2,-32.7 z"
         id="path15727"
         inkscape:connector-curvature="0"
         style="opacity:1;stop-opacity:1" />
      <path
         fill-rule="evenodd"
         clip-rule="evenodd"
         d="m 1150.6,515.8 c -20.2,1 -45,-0.1 -79.3,-6.1 25.9,-14.3 60.8,-26.8 84.8,-26.6 z"
         id="path15729"
         inkscape:connector-curvature="0"
         style="opacity:1;stop-opacity:1" />
      <polygon
         fill-rule="evenodd"
         clip-rule="evenodd"
         fill="#FF00B2"
         points="1303.5,491 1299.3,499 1253,499 1257.2,491 "
         id="polygon15731"
         style="opacity:1;stop-opacity:1" />
      <path
         fill-rule="evenodd"
         clip-rule="evenodd"
         fill="#C10087"
         d="m 1264,499 h 31.3 l -12.1,6.7 c -8.3,-1.3 -17.5,-2.2 -27.8,-2.4 z"
         id="path15733"
         inkscape:connector-curvature="0"
         style="opacity:1;stop-opacity:1" />
      <path
         fill-rule="evenodd"
         clip-rule="evenodd"
         fill="#FFFF00"
         d="m 938,548 h 15.5 c 1.4,0 2.5,2.1 2.5,3.5 v 4 c 0,1.5 -1.2,2.4 -2.7,2.4 H 938 Z"
         id="path15735"
         inkscape:connector-curvature="0"
         style="opacity:1;stop-opacity:1" />
      <path
         fill-rule="evenodd"
         clip-rule="evenodd"
         fill="#FFFF00"
         d="m 1289,522 h -7.3 c -1.6,0 -2.7,1.8 -2.7,3.4 v 11.9 c 0,1.7 1.2,1.7 3,1.7 h 7 z"
         id="path15737"
         inkscape:connector-curvature="0"
         style="opacity:1;stop-opacity:1" />
      <path
         d="m 1154.7,515.2 13.8,9.7 0.3,0.2 -0.1,0.3 -15.2,38 -0.9,-0.3 15,-37.6 -13.5,-9.4 z m -95,48 c 0.3,-6.6 0.1,-13.5 -1.9,-20.4 -2,-6.9 -5.7,-13.7 -12.4,-20 l -0.5,-0.4 0.6,-0.3 22.5,-13.2 0.5,0.8 -22,12.9 c 6.6,6.4 10.3,13.2 12.2,20 2,7 2.2,14.1 1.9,20.7 z"
         id="path15739"
         inkscape:connector-curvature="0"
         style="opacity:1;stop-opacity:1" />
      <path
         fill-rule="evenodd"
         clip-rule="evenodd"
         fill="#4C4C4C"
         d="m 1032.4,540.7 104,-19 -54.8,19.1 167.6,-32.4 -180.6,54.6 h -35.5 c 1,-4 1.6,-6.6 1.6,-10.2 -0.1,-4.3 -0.9,-8.3 -2.3,-12.1 z m 112.1,22.3 43.8,-12.4 c -0.1,0.7 -0.1,1.5 -0.1,2.3 0,2.2 0.2,4.3 0.6,6.4 l -9.7,3.8 h -34.6 z m 105.8,-30 16.3,-4.7 -15.3,6.1 c -0.3,-0.5 -0.6,-0.9 -1,-1.4 z"
         id="path15741"
         inkscape:connector-curvature="0"
         style="opacity:1;stop-opacity:1" />
      <path
         fill-rule="evenodd"
         clip-rule="evenodd"
         fill="#191919"
         d="m 1032.6,540.7 29,-5.3 33.4,0.7 -13.4,4.7 22.9,-4.4 49.1,1 -85,25.7 h -35.5 c 1,-4 1.9,-6.5 1.9,-10.1 v -0.2 -0.1 -0.2 -0.1 -0.1 -0.1 -0.2 -0.1 -0.2 0 -0.1 -0.1 -0.1 -0.1 -0.1 -0.2 -0.1 0 -0.2 c 0,-0.1 0,-0.2 0,-0.4 v 0 c 0,-3.3 -1.2,-6.6 -2.4,-9.6 z m 155.6,9.9 c 0,0.6 -0.2,1.2 -0.2,1.7 v 0 0 0 0.1 0 0.1 c 0,0.1 0,0.2 0,0.3 v 0.1 0.1 0 0.1 0 0 0.1 0 0 0.1 0 0 0.1 0 0.1 0.1 0 0.1 0 0.1 0 0.1 0 0 0.1 0 0 0.1 0 0 0.1 0 0 0.1 0.1 0 0.1 0 0 0.1 0 0 0.1 0 0.1 0.1 0 0.1 0.1 0 0.1 0.1 0 0.1 0 0.1 0 0.1 0 -0.4 0 0.6 0.1 0 0.1 0 0.1 0.1 0 0.1 0 l 1,0.1 v 0.1 0 0.1 0.1 0 0.1 0 0.1 0.1 0.1 0 0.1 0 0.1 0.1 0 0.1 0 0.1 0.1 0.1 0 0.1 0.1 0 0.1 0.1 0.1 0.2 0.1 0 l -9.7,3.8 h -34.7 z m 62.1,-17.6 16.3,-4.7 -15.3,6.1 c -0.3,-0.5 -0.6,-0.9 -1,-1.4 z"
         id="path15743"
         inkscape:connector-curvature="0"
         style="opacity:1;stop-opacity:1" />
      <path
         fill-rule="evenodd"
         clip-rule="evenodd"
         fill="#FFFFFF"
         d="m 1060,563 h -26.9 c 0.8,-3 1.4,-5.5 1.5,-8.4 l 147.3,-28.4 z m -25.4,-11.5 c -0.1,-1.9 -0.3,-3.7 -0.7,-5.6 l 35.2,-6.4 z m 119.6,11.5 34.1,-9.6 c 0,0.9 0.1,1.9 0.1,2.8 l -17.2,6.8 z"
         id="path15745"
         inkscape:connector-curvature="0"
         style="opacity:1;stop-opacity:1" />
      <path
         fill-rule="evenodd"
         clip-rule="evenodd"
         fill="#989898"
         d="m 1060,563 h -26.3 c 0.5,-3 0.8,-4 0.9,-6.1 l 126.1,-24.3 z m -25.7,-14.8 20.6,-3.8 -20.4,7.1 c 0.1,-1.1 0,-2.2 -0.2,-3.3 z m 128.1,14.8 25.6,-7.2 c 0,0.2 0,0.4 0,0.6 l -16.8,6.6 z"
         id="path15747"
         inkscape:connector-curvature="0"
         style="opacity:1;stop-opacity:1" />
    </g>
  </g>
</svg>
