<?xml version="1.0" encoding="UTF-8" standalone="no"?>
<svg
   xmlns:dc="http://purl.org/dc/elements/1.1/"
   xmlns:cc="http://creativecommons.org/ns#"
   xmlns:rdf="http://www.w3.org/1999/02/22-rdf-syntax-ns#"
   xmlns:svg="http://www.w3.org/2000/svg"
   xmlns="http://www.w3.org/2000/svg"
   xmlns:sodipodi="http://sodipodi.sourceforge.net/DTD/sodipodi-0.dtd"
   xmlns:inkscape="http://www.inkscape.org/namespaces/inkscape"
   inkscape:version="1.0beta1 (32d4812, 2019-09-19)"
   id="svg13135"
   version="1.1"
   viewBox="0 0 507.99998 285.75001"
   height="1080"
   width="1920">
  <defs
     id="defs13129" />
  <sodipodi:namedview
     inkscape:window-maximized="0"
     inkscape:window-y="82"
     inkscape:window-x="27"
     inkscape:window-height="907"
     inkscape:window-width="1600"
     width="1920px"
     units="px"
     showgrid="false"
     inkscape:document-rotation="0"
     inkscape:current-layer="layer1"
     inkscape:document-units="mm"
     inkscape:cy="560"
     inkscape:cx="704.28571"
     inkscape:zoom="0.35"
     inkscape:pageshadow="2"
     inkscape:pageopacity="0.0"
     borderopacity="1.0"
     bordercolor="#666666"
     pagecolor="#ffffff"
     id="base" />
  <metadata
     id="metadata13132">
    <rdf:RDF>
      <cc:Work
         rdf:about="">
        <dc:format>image/svg+xml</dc:format>
        <dc:type
           rdf:resource="http://purl.org/dc/dcmitype/StillImage" />
        <dc:title></dc:title>
      </cc:Work>
    </rdf:RDF>
  </metadata>
  <g
     id="layer1"
     inkscape:groupmode="layer"
     inkscape:label="Layer 1">
    <g
       transform="matrix(1.3229166,0,0,1.3229166,-1228.4603,-219.93488)"
       id="g22479">
      <path
         fill-rule="evenodd"
         clip-rule="evenodd"
         d="m 938,308 h 329.1 L 1289,296.9 V 291 h -29.7 c -1.5,-18 -17.5,-34 -36.9,-34 -19.4,0 -35.4,16 -36.9,34 h -149 c -1.5,-18 -17.1,-33.2 -36.1,-33.2 -19,0 -34.6,15.2 -36.1,33.2 H 938 Z"
         id="path15573"
         inkscape:connector-curvature="0"
         style="opacity:1;stop-opacity:1" />
      <path
         fill-rule="evenodd"
         clip-rule="evenodd"
         fill="#88FF00"
         d="m 938,305 h 29.7 c -1,-4 -1.6,-6.7 -1.6,-10.3 0,-18.9 15.3,-34.2 34.2,-34.2 18.9,0 34.2,15.3 34.2,34.2 0,3.6 -0.6,6.3 -1.6,10.3 h 156.8 c -1,-4 -1.6,-6.7 -1.6,-10.3 0,-18.9 15.3,-34.2 34.2,-34.2 18.9,0 34.2,15.3 34.2,34.2 0,3.6 -0.6,6.3 -1.6,10.3 h 8.2 l 25.8,-12.8 v -41.6 c -95,-16.4 -98.5,22.9 -224,-0.1 -45.4,-8.3 -92,3.4 -127,38.2 V 305 Z"
         id="path15575"
         inkscape:connector-curvature="0"
         style="opacity:1;stop-opacity:1" />
      <path
         fill-rule="evenodd"
         clip-rule="evenodd"
         fill="#519800"
         d="m 1215,221 38.7,12.8 35.6,16.8 c -95.4,-16.4 -98.3,23 -223.8,0 26.4,-15.7 64.7,-29.7 90.5,-29.7 h 59 z"
         id="path15577"
         inkscape:connector-curvature="0"
         style="opacity:1;stop-opacity:1" />
      <path
         fill-rule="evenodd"
         clip-rule="evenodd"
         fill="#67C100"
         d="m 938,289 h 22.6 l 6.2,-0.9 c -0.4,2.2 -0.7,4.4 -0.7,6.7 0,3.6 0.6,6.2 1.6,10.2 H 938 Z m 93.2,-9 23.6,-2.9 107.9,2.4 32.1,-5 c -4.2,5.7 -6.6,12.7 -6.6,20.3 0,3.6 0.5,6.3 1.6,10.3 H 1033 c 1,-4 1.6,-6.7 1.6,-10.3 -0.1,-5.4 -1.3,-10.4 -3.4,-14.8 z m 211.1,-13 46.7,-7.3 v 32 l -25.8,13.3 h -8.2 c 1,-4 1.5,-6.7 1.5,-10.3 0,-11.4 -5.6,-21.5 -14.2,-27.7 z"
         id="path15579"
         inkscape:connector-curvature="0"
         style="opacity:1;stop-opacity:1" />
      <path
         fill-rule="evenodd"
         clip-rule="evenodd"
         fill="#323232"
         d="m 1000.3,261.9 c 18.1,0 32.8,14.7 32.8,32.8 0,18.2 -14.7,32.9 -32.8,32.9 -18.2,0 -32.9,-14.7 -32.9,-32.9 0.1,-18.2 14.8,-32.8 32.9,-32.8 z m 0,13.9 c 10.4,0 18.8,8.4 18.8,18.8 0,10.4 -8.4,18.9 -18.8,18.9 -10.4,0 -18.9,-8.4 -18.9,-18.9 0.1,-10.3 8.5,-18.8 18.9,-18.8 z"
         id="path15581"
         inkscape:connector-curvature="0"
         style="opacity:1;stop-opacity:1" />
      <path
         fill-rule="evenodd"
         clip-rule="evenodd"
         fill="#CBCBCB"
         d="m 1000.3,272.4 c 12.3,0 22.3,10 22.3,22.3 0,12.3 -10,22.3 -22.3,22.3 -12.3,0 -22.3,-10 -22.3,-22.3 0,-12.3 10,-22.3 22.3,-22.3 z m 0.7,4.8 v 12.9 l 9.1,-9.1 c -2.6,-2.1 -5.1,-3.4 -9.1,-3.8 z m 13,5.7 -9.1,9.1 h 12.9 c -0.4,-3 -1.7,-6.6 -3.8,-9.1 z m 3.8,13.1 h -12.9 l 9.1,9.1 c 2.1,-2.6 3.4,-5.1 3.8,-9.1 z m -7.7,12.4 -9.1,-9.1 v 12.9 c 4,-0.4 6.5,-1.7 9.1,-3.8 z m -12.1,3.8 v -12.9 l -9.1,9.1 c 2.6,2.1 6.1,3.4 9.1,3.8 z m -11.4,-7.1 9.1,-9.1 h -12.9 c 0.4,4 1.7,6.5 3.8,9.1 z M 982.8,292 h 12.9 l -9.1,-9.1 c -2.1,2.5 -3.4,6.1 -3.8,9.1 z m 6.1,-11 9.1,9.1 v -12.9 c -3,0.4 -6.5,1.7 -9.1,3.8 z"
         id="path15583"
         inkscape:connector-curvature="0"
         style="opacity:1;stop-opacity:1" />
      <path
         fill-rule="evenodd"
         clip-rule="evenodd"
         fill="#323232"
         d="m 1222.4,261.9 c 18.1,0 32.9,14.7 32.9,32.8 0,18.2 -14.7,32.9 -32.9,32.9 -18.2,0 -32.9,-14.7 -32.9,-32.9 0,-18.2 14.8,-32.8 32.9,-32.8 z m 0,13.9 c 10.4,0 18.9,8.4 18.9,18.8 0,10.4 -8.4,18.9 -18.9,18.9 -10.5,0 -18.9,-8.4 -18.9,-18.9 0,-10.3 8.4,-18.8 18.9,-18.8 z"
         id="path15585"
         inkscape:connector-curvature="0"
         style="opacity:1;stop-opacity:1" />
      <path
         fill-rule="evenodd"
         clip-rule="evenodd"
         fill="#CBCBCB"
         d="m 1222.4,272.4 c 12.3,0 22.3,10 22.3,22.3 0,12.3 -9.9,22.3 -22.3,22.3 -12.3,0 -22.3,-10 -22.3,-22.3 0,-12.3 10,-22.3 22.3,-22.3 z m 0.6,4.8 v 12.9 l 9.1,-9.1 c -2.5,-2.1 -5.1,-3.4 -9.1,-3.8 z m 13.1,5.7 -9.1,9.1 h 12.9 c -0.4,-3 -1.8,-6.6 -3.8,-9.1 z m 3.8,13.1 H 1227 l 9.1,9.1 c 2,-2.6 3.4,-5.1 3.8,-9.1 z m -7.8,12.4 -9.1,-9.1 v 12.9 c 4,-0.4 6.6,-1.7 9.1,-3.8 z m -12.1,3.8 v -12.9 l -9.1,9.1 c 2.5,2.1 6.1,3.4 9.1,3.8 z m -11.3,-7.1 9.1,-9.1 h -12.9 c 0.4,4 1.7,6.5 3.8,9.1 z m -3.8,-13.1 h 12.9 l -9.1,-9.1 c -2.1,2.5 -3.4,6.1 -3.8,9.1 z m 6,-11 9.1,9.1 v -12.9 c -3,0.4 -6.6,1.7 -9.1,3.8 z"
         id="path15587"
         inkscape:connector-curvature="0"
         style="opacity:1;stop-opacity:1" />
      <path
         fill-rule="evenodd"
         clip-rule="evenodd"
         d="m 1215,225 17.1,21.9 c -27.4,1.7 -47.4,8.5 -77.8,10.5 l 5.2,-32.4 z"
         id="path15589"
         inkscape:connector-curvature="0"
         style="opacity:1;stop-opacity:1" />
      <path
         fill-rule="evenodd"
         clip-rule="evenodd"
         d="m 1150.5,257.6 c -20.2,1 -45,-0.1 -79.3,-6.1 25.9,-14.3 60.8,-26.8 84.8,-26.6 z"
         id="path15591"
         inkscape:connector-curvature="0"
         style="opacity:1;stop-opacity:1" />
      <polygon
         fill-rule="evenodd"
         clip-rule="evenodd"
         fill="#88FF00"
         points="1303.3,233 1299.2,241 1252.9,241 1257.1,233 "
         id="polygon15593"
         style="opacity:1;stop-opacity:1" />
      <path
         fill-rule="evenodd"
         clip-rule="evenodd"
         fill="#67C100"
         d="m 1263.8,241 h 31.3 l -12.1,6.6 c -8.3,-1.3 -17.5,-2.2 -27.8,-2.3 z"
         id="path15595"
         inkscape:connector-curvature="0"
         style="opacity:1;stop-opacity:1" />
      <path
         fill-rule="evenodd"
         clip-rule="evenodd"
         fill="#FFFF00"
         d="m 938,291 h 15.4 c 1.4,0 2.6,0.9 2.6,2.3 v 4.1 c 0,1.5 -1.3,2.6 -2.8,2.6 H 938 Z"
         id="path15597"
         inkscape:connector-curvature="0"
         style="opacity:1;stop-opacity:1" />
      <path
         fill-rule="evenodd"
         clip-rule="evenodd"
         fill="#FFFF00"
         d="m 1289,264 h -7.4 c -1.6,0 -3.6,1.6 -3.6,3.2 v 11.9 c 0,1.7 2.1,3.9 3.8,3.9 h 7.2 z"
         id="path15599"
         inkscape:connector-curvature="0"
         style="opacity:1;stop-opacity:1" />
      <path
         d="m 1154.6,257 13.8,9.7 0.3,0.2 -0.1,0.3 -15.2,38 -0.9,-0.3 15,-37.6 -13.5,-9.4 z m -95,48 c 0.3,-6.6 0.1,-13.6 -1.9,-20.4 -2,-6.9 -5.7,-13.7 -12.4,-20 l -0.5,-0.4 0.6,-0.3 22.5,-13.2 0.5,0.8 -22,12.9 c 6.6,6.4 10.3,13.2 12.2,20 2,7 2.2,14.1 1.9,20.7 z"
         id="path15601"
         inkscape:connector-curvature="0"
         style="opacity:1;stop-opacity:1" />
      <path
         fill-rule="evenodd"
         clip-rule="evenodd"
         fill="#4C4C4C"
         d="m 1032.3,282.5 104,-19 -54.8,19.1 167.6,-32.3 -180.7,54.7 h -35.5 c 1,-4 1.6,-6.7 1.6,-10.3 0,-4.3 -0.8,-8.4 -2.2,-12.2 z m 112.1,22.5 43.8,-12.5 c -0.1,0.7 -0.1,1.5 -0.1,2.2 0,2.2 0.2,4.4 0.6,6.5 l -9.7,3.9 h -34.6 z m 105.8,-30.2 16.3,-4.7 -15.3,6.1 c -0.3,-0.5 -0.7,-0.9 -1,-1.4 z"
         id="path15603"
         inkscape:connector-curvature="0"
         style="opacity:1;stop-opacity:1" />
      <path
         fill-rule="evenodd"
         clip-rule="evenodd"
         fill="#191919"
         d="m 1032.6,282.5 28.9,-5.3 33.3,0.7 -13.4,4.7 22.9,-4.4 49.1,1.1 -85,25.8 h -35.5 c 1,-4 2.1,-6.7 2.1,-10.3 v -0.2 -0.1 -0.2 -0.1 -0.2 -0.1 -0.1 -0.1 -0.2 0 -0.1 -0.1 -0.1 -0.1 -0.1 -0.1 -0.1 0 -0.2 c 0,-0.1 0,-0.2 0,-0.4 v 0 c -2,-3.5 -1.3,-6.7 -2.4,-9.7 z m 155.6,10 c 0,0.6 -0.2,1.1 -0.2,1.6 v 0 0 0 0.1 0 0.1 c 0,0.1 0,0.2 0,0.3 v 0.1 0.1 0 0.1 0 0 0.1 0 0 0.1 0 0 0.1 0 0.1 0.1 0 0.1 0 0.1 0 0.1 0 0 0.1 0 0 0.1 0 0 0.1 0 0 0.1 0.1 0 0.1 0 0 0.1 0 0 0.1 0 0 0.1 0 0.1 0.1 0 0.1 0.1 0 0.1 0 0.1 0 0.1 0 0.1 0 0.1 0.1 0 0.1 0 0.1 0.1 0 0.1 0 0.1 0.1 0 0.1 0.1 0 0.1 0 0.1 0.1 0.1 0 0.1 0 0.1 0.1 0 0.1 0 0.1 0.1 0.1 0 0.1 0.1 0 l 1,0.1 v 0.1 0.1 0.2 0.1 l -0.1,0.1 -9.8,3.9 h -34.7 z m 62,-17.7 16.3,-4.7 -15.3,6.1 c -0.3,-0.5 -0.7,-0.9 -1,-1.4 z"
         id="path15605"
         inkscape:connector-curvature="0"
         style="opacity:1;stop-opacity:1" />
      <path
         fill-rule="evenodd"
         clip-rule="evenodd"
         fill="#FFFFFF"
         d="M 1059.9,305 H 1033 c 0.8,-3 1.4,-5.6 1.5,-8.5 l 147.3,-28.4 z m -25.4,-11.7 c -0.1,-1.9 -0.3,-3.8 -0.7,-5.6 l 35.2,-6.4 z m 119.6,11.7 34.1,-9.7 c 0,0.9 0.1,1.9 0.1,2.8 l -17.2,6.9 z"
         id="path15607"
         inkscape:connector-curvature="0"
         style="opacity:1;stop-opacity:1" />
      <path
         fill-rule="evenodd"
         clip-rule="evenodd"
         fill="#989898"
         d="m 1059.9,305 h -26.3 c 0.5,-3 0.8,-4.1 0.9,-6.2 l 126.1,-24.2 z m -25.7,-15 20.6,-3.7 -20.4,7.1 c 0.1,-1.2 -0.1,-2.3 -0.2,-3.4 z m 128.1,15 25.7,-7.4 c 0,0.2 0,0.4 0,0.6 l -16.9,6.8 z"
         id="path15609"
         inkscape:connector-curvature="0"
         style="opacity:1;stop-opacity:1" />
    </g>
  </g>
</svg>
