<?xml version="1.0" encoding="UTF-8" standalone="no"?>
<svg
   xmlns:dc="http://purl.org/dc/elements/1.1/"
   xmlns:cc="http://creativecommons.org/ns#"
   xmlns:rdf="http://www.w3.org/1999/02/22-rdf-syntax-ns#"
   xmlns:svg="http://www.w3.org/2000/svg"
   xmlns="http://www.w3.org/2000/svg"
   xmlns:sodipodi="http://sodipodi.sourceforge.net/DTD/sodipodi-0.dtd"
   xmlns:inkscape="http://www.inkscape.org/namespaces/inkscape"
   inkscape:version="1.0beta1 (32d4812, 2019-09-19)"
   id="svg13135"
   version="1.1"
   viewBox="0 0 507.99998 285.75001"
   height="1080"
   width="1920">
  <defs
     id="defs13129" />
  <sodipodi:namedview
     inkscape:window-maximized="0"
     inkscape:window-y="82"
     inkscape:window-x="27"
     inkscape:window-height="907"
     inkscape:window-width="1600"
     width="1920px"
     units="px"
     showgrid="false"
     inkscape:document-rotation="0"
     inkscape:current-layer="layer1"
     inkscape:document-units="mm"
     inkscape:cy="560"
     inkscape:cx="704.28571"
     inkscape:zoom="0.35"
     inkscape:pageshadow="2"
     inkscape:pageopacity="0.0"
     borderopacity="1.0"
     bordercolor="#666666"
     pagecolor="#ffffff"
     id="base" />
  <metadata
     id="metadata13132">
    <rdf:RDF>
      <cc:Work
         rdf:about="">
        <dc:format>image/svg+xml</dc:format>
        <dc:type
           rdf:resource="http://purl.org/dc/dcmitype/StillImage" />
        <dc:title></dc:title>
      </cc:Work>
    </rdf:RDF>
  </metadata>
  <g
     id="layer1"
     inkscape:groupmode="layer"
     inkscape:label="Layer 1">
    <g
       transform="matrix(1.3229166,0,0,1.3229167,-132.95311,-907.32242)"
       id="g22563">
      <path
         fill-rule="evenodd"
         clip-rule="evenodd"
         d="M 110,828 H 438.8 L 460,817 v -5 h -29 c -1.5,-20 -17.5,-34 -36.9,-34 -19.4,0 -35.4,14 -36.9,34 h -149 c -1.5,-18 -17.1,-33.2 -36.1,-33.2 -19,0 -34.6,15.2 -36.2,33.2 H 110 Z"
         id="path15941"
         inkscape:connector-curvature="0"
         style="opacity:1;stop-opacity:1" />
      <path
         fill-rule="evenodd"
         clip-rule="evenodd"
         fill="#8800FF"
         d="m 110,824 h 29.4 c -1,-2 -1.6,-6.2 -1.6,-9.7 0,-18.9 15.3,-33.9 34.2,-33.9 18.9,0 34.2,14.9 34.2,33.8 0,3.6 -0.6,7.9 -1.6,9.9 h 156.8 c -1,-2 -1.6,-6.2 -1.6,-9.7 0,-18.9 15.3,-33.9 34.2,-33.9 18.9,0 34.2,14.9 34.2,33.8 0,3.6 -0.6,7.9 -1.6,9.9 h 8.2 l 25.1,-11.7 v -41.6 c -95,-16.4 -98,22.9 -223.5,-0.1 -45.4,-8.3 -92.5,3.4 -126.5,38.2 v 15 z"
         id="path15943"
         inkscape:connector-curvature="0"
         style="opacity:1;stop-opacity:1" />
      <path
         fill-rule="evenodd"
         clip-rule="evenodd"
         fill="#510098"
         d="m 386.7,740 38.7,13.4 35.6,17.1 c -95.4,-16.4 -98.3,22.6 -223.8,-0.4 26.4,-15.6 64.7,-30.1 90.5,-30.1 z"
         id="path15945"
         inkscape:connector-curvature="0"
         style="opacity:1;stop-opacity:1" />
      <path
         fill-rule="evenodd"
         clip-rule="evenodd"
         fill="#6700C1"
         d="m 110,808 h 22.3 l 6.2,-0.4 c -0.4,2.2 -0.7,4.1 -0.7,6.5 0,3.6 0.6,7.9 1.6,9.9 H 110 Z m 92.9,-7.9 23.6,-2.9 107.9,2.4 32.1,-5 c -4.2,5.7 -6.6,12.1 -6.6,19.7 0,3.6 0.5,7.7 1.6,9.7 H 204.7 c 1,-2 1.6,-6.2 1.6,-9.7 0,-5.3 -1.2,-9.8 -3.4,-14.2 z m 210.8,-13 46.3,-7.3 v 32 L 434.9,824 h -8.2 c 1,-2 1.4,-6.2 1.4,-9.7 0,-11.4 -5.9,-21 -14.4,-27.2 z"
         id="path15947"
         inkscape:connector-curvature="0"
         style="opacity:1;stop-opacity:1" />
      <path
         fill-rule="evenodd"
         clip-rule="evenodd"
         fill="#323232"
         d="m 172.1,782 c 18.1,0 32.8,14.7 32.8,32.9 0,18.1 -14.7,32.8 -32.8,32.8 -18.2,0 -32.9,-14.7 -32.9,-32.8 0,-18.2 14.7,-32.9 32.9,-32.9 z m 0,14 c 10.4,0 18.8,8.4 18.8,18.9 0,10.4 -8.4,18.8 -18.8,18.8 -10.4,0 -18.9,-8.4 -18.9,-18.8 0,-10.5 8.4,-18.9 18.9,-18.9 z"
         id="path15949"
         inkscape:connector-curvature="0"
         style="opacity:1;stop-opacity:1" />
      <path
         fill-rule="evenodd"
         clip-rule="evenodd"
         fill="#CBCBCB"
         d="m 172.1,792.5 c 12.3,0 22.3,10 22.3,22.3 0,12.3 -10,22.3 -22.3,22.3 -12.3,0 -22.3,-10 -22.3,-22.3 0,-12.3 9.9,-22.3 22.3,-22.3 z m 1.9,4.8 v 12.9 l 9.1,-9.1 c -2.6,-2.1 -6.1,-3.4 -9.1,-3.8 z m 11.7,5.6 -9.1,9.1 h 12.9 c -0.3,-2 -1.7,-6.5 -3.8,-9.1 z m 3.8,14.1 h -12.9 l 9.1,9.1 c 2.1,-2.6 3.5,-7.1 3.8,-9.1 z m -6.4,11.5 -9.1,-9.1 v 12.9 c 3,-0.4 6.5,-1.7 9.1,-3.8 z m -13.1,3.8 v -12.9 l -9.1,9.1 c 2.6,2.1 6.1,3.4 9.1,3.8 z m -11.7,-6.2 9.1,-9.1 h -12.9 c 0.4,2 1.8,6.5 3.8,9.1 z M 154.6,812 h 12.9 l -9.1,-9.1 c -2.1,2.6 -3.5,7.1 -3.8,9.1 z m 6.3,-10.9 9.1,9.1 v -12.9 c -3,0.4 -6.5,1.7 -9.1,3.8 z"
         id="path15951"
         inkscape:connector-curvature="0"
         style="opacity:1;stop-opacity:1" />
      <path
         fill-rule="evenodd"
         clip-rule="evenodd"
         fill="#323232"
         d="m 394.1,782 c 18.1,0 32.9,14.7 32.9,32.9 0,18.1 -14.7,32.8 -32.9,32.8 -18.2,0 -32.9,-14.7 -32.9,-32.8 0.1,-18.2 14.8,-32.9 32.9,-32.9 z m 0,14 c 10.4,0 18.9,8.4 18.9,18.9 0,10.4 -8.4,18.8 -18.9,18.8 -10.5,0 -18.9,-8.4 -18.9,-18.8 0,-10.5 8.5,-18.9 18.9,-18.9 z"
         id="path15953"
         inkscape:connector-curvature="0"
         style="opacity:1;stop-opacity:1" />
      <path
         fill-rule="evenodd"
         clip-rule="evenodd"
         fill="#CBCBCB"
         d="m 394.1,792.5 c 12.3,0 22.3,10 22.3,22.3 0,12.3 -9.9,22.3 -22.3,22.3 -12.3,0 -22.3,-10 -22.3,-22.3 0.1,-12.3 10,-22.3 22.3,-22.3 z m 1.9,4.8 v 12.9 l 9.1,-9.1 c -2.5,-2.1 -6.1,-3.4 -9.1,-3.8 z m 11.8,5.6 -9.1,9.1 h 12.9 c -0.4,-2 -1.7,-6.5 -3.8,-9.1 z m 3.8,14.1 h -12.9 l 9.1,9.1 c 2.1,-2.6 3.4,-7.1 3.8,-9.1 z m -6.5,11.5 -9.1,-9.1 v 12.9 c 3,-0.4 6.6,-1.7 9.1,-3.8 z m -14.1,3.8 v -12.9 l -9.1,9.1 c 2.5,2.1 7.1,3.4 9.1,3.8 z m -10.6,-6.2 9.1,-9.1 h -12.9 c 0.4,2 1.8,6.5 3.8,9.1 z M 376.6,812 h 12.9 l -9.1,-9.1 c -2,2.6 -3.4,7.1 -3.8,9.1 z m 5.3,-10.9 9.1,9.1 v -12.9 c -2,0.4 -6.6,1.7 -9.1,3.8 z"
         id="path15955"
         inkscape:connector-curvature="0"
         style="opacity:1;stop-opacity:1" />
      <path
         fill-rule="evenodd"
         clip-rule="evenodd"
         d="m 386.7,745 17.1,22 c -27.4,1.7 -47.4,8.5 -77.8,10.5 l 5.2,-32.4 h 55.5 z"
         id="path15957"
         inkscape:connector-curvature="0"
         style="opacity:1;stop-opacity:1" />
      <path
         fill-rule="evenodd"
         clip-rule="evenodd"
         d="m 322.2,777.7 c -20.2,1 -45,-0.1 -79.3,-6.1 25.9,-14.3 60.8,-26.8 84.8,-26.6 z"
         id="path15959"
         inkscape:connector-curvature="0"
         style="opacity:1;stop-opacity:1" />
      <polygon
         fill-rule="evenodd"
         clip-rule="evenodd"
         fill="#8800FF"
         points="475.1,753 470.9,761 424.6,761 428.8,753 "
         id="polygon15961"
         style="opacity:1;stop-opacity:1" />
      <path
         fill-rule="evenodd"
         clip-rule="evenodd"
         fill="#6700C1"
         d="m 435.6,761 h 31.3 l -12.1,6.6 c -8.3,-1.3 -17.5,-2.2 -27.8,-2.4 z"
         id="path15963"
         inkscape:connector-curvature="0"
         style="opacity:1;stop-opacity:1" />
      <path
         fill-rule="evenodd"
         clip-rule="evenodd"
         fill="#FFFF00"
         d="m 110,811 h 15.1 c 1.4,0 1.9,1.1 1.9,2.5 v 4 c 0,1.5 -0.6,1.5 -2.1,1.5 H 110 Z"
         id="path15965"
         inkscape:connector-curvature="0"
         style="opacity:1;stop-opacity:1" />
      <path
         fill-rule="evenodd"
         clip-rule="evenodd"
         fill="#FFFF00"
         d="m 460,784 h -6.7 c -1.6,0 -2.3,1.7 -2.3,3.3 v 11.9 c 0,1.7 0.9,2.8 2.6,2.8 h 6.4 z"
         id="path15967"
         inkscape:connector-curvature="0"
         style="opacity:1;stop-opacity:1" />
      <path
         d="m 326.3,777.1 13.8,9.7 0.3,0.2 -0.1,0.3 -15.2,38 -0.9,-0.3 15,-37.6 -13.5,-9.4 z m -95,48 c 0.3,-6.6 0.1,-13.5 -1.9,-20.4 -2,-6.9 -5.7,-13.7 -12.4,-20 l -0.5,-0.4 0.6,-0.3 22.5,-13.2 0.5,0.8 -22,12.8 c 6.6,6.4 10.3,13.2 12.2,20 2,7 2.2,14.1 1.9,20.7 z"
         id="path15969"
         inkscape:connector-curvature="0"
         style="opacity:1;stop-opacity:1" />
      <path
         fill-rule="evenodd"
         clip-rule="evenodd"
         fill="#4C4C4C"
         d="m 204,802.6 104,-19 -54.8,19.1 167.6,-32.8 -180.6,54.1 h -35.5 c 1,-2 1.6,-6.2 1.6,-9.7 0,-4.3 -0.9,-7.9 -2.3,-11.7 z m 112.1,21.4 43.8,-12 c -0.1,0.7 -0.1,1.7 -0.1,2.5 0,2.2 0.2,3.9 0.6,6 l -9.7,3.4 h -34.6 z m 105.8,-29.1 16.3,-4.7 -15.3,6.1 c -0.3,-0.4 -0.6,-0.9 -1,-1.4 z"
         id="path15971"
         inkscape:connector-curvature="0"
         style="opacity:1;stop-opacity:1" />
      <path
         fill-rule="evenodd"
         clip-rule="evenodd"
         fill="#191919"
         d="m 204,802.6 29.1,-5.3 33.4,0.8 -13.3,4.6 22.9,-4.4 49.1,0.5 -85,25.2 h -35.5 c 1,-2 1.3,-5.6 1.3,-9.2 v -0.2 -0.1 -0.2 -0.1 -0.1 -0.1 -0.1 -0.1 -0.2 0 -0.1 -0.1 -0.1 -0.1 -0.2 -0.1 -0.1 0 -0.2 c 0,-0.1 0,-0.2 0,-0.4 v 0 c 0,-3.3 -0.9,-6.5 -2,-9.6 z m 155.5,9.4 c 0,0.6 -0.5,1.6 -0.5,2.2 v 0 0 0 0.1 0 0 c 0,0.1 0,0.2 0,0.3 v 0.1 0.1 0 0.1 0 0 0.1 0 0 0.1 0 0 0.1 0 0.1 0.1 0 0.1 0 0.1 0 0.1 0 0 0.1 0 0 0.1 0 0 0.1 0 0 0.1 0.1 0 0.1 0 0 0.1 0 0 0.1 0 0.1 0.1 0 0.1 0.1 0 0.1 0.1 0 0.1 0 0.1 0 0.1 0 0.1 0 0.1 0.1 0 0.1 0.1 0 0.1 0 0.1 0 l 1,0.1 v 0.1 0 0 0.1 0 0.1 0 0.1 0.1 0.1 0 0.1 0 0.1 0.1 0 0.1 0 0.1 0.1 0.1 0 0 0.1 0 0.1 0.1 0.1 0.2 0.1 l 0.3,-0.4 -9.4,3.3 h -34.7 z m 62.4,-17.1 16.3,-4.7 -15.3,6.1 c -0.3,-0.4 -0.6,-0.9 -1,-1.4 z"
         id="path15973"
         inkscape:connector-curvature="0"
         style="opacity:1;stop-opacity:1" />
      <path
         fill-rule="evenodd"
         clip-rule="evenodd"
         fill="#FFFFFF"
         d="m 231.6,824 h -26.9 c 0.8,-2 1.4,-5 1.5,-8 l 147.3,-28.6 z m -25.4,-10.6 c -0.1,-1.9 -0.3,-3.7 -0.7,-5.6 l 35.2,-6.4 z m 119.6,10.6 34.1,-9.2 c 0,1 0.1,1.6 0.1,2.6 l -17.2,6.6 z"
         id="path15975"
         inkscape:connector-curvature="0"
         style="opacity:1;stop-opacity:1" />
      <path
         fill-rule="evenodd"
         clip-rule="evenodd"
         fill="#989898"
         d="m 231.6,824 h -26.3 c 0.5,-1 0.8,-3.5 0.9,-5.6 l 126.1,-24.6 z m -25.7,-13.9 20.6,-3.8 -20.4,7.1 c 0.1,-1.1 0,-2.2 -0.2,-3.3 z M 334,824 l 25,-6.3 c 0,0.2 0,0.4 0,0.6 l -16.2,5.7 z"
         id="path15977"
         inkscape:connector-curvature="0"
         style="opacity:1;stop-opacity:1" />
    </g>
  </g>
</svg>
