<?xml version="1.0" encoding="UTF-8" standalone="no"?>
<svg
   xmlns:dc="http://purl.org/dc/elements/1.1/"
   xmlns:cc="http://creativecommons.org/ns#"
   xmlns:rdf="http://www.w3.org/1999/02/22-rdf-syntax-ns#"
   xmlns:svg="http://www.w3.org/2000/svg"
   xmlns="http://www.w3.org/2000/svg"
   xmlns:sodipodi="http://sodipodi.sourceforge.net/DTD/sodipodi-0.dtd"
   xmlns:inkscape="http://www.inkscape.org/namespaces/inkscape"
   inkscape:version="1.0beta1 (32d4812, 2019-09-19)"
   id="svg13135"
   version="1.1"
   viewBox="0 0 507.99998 285.75001"
   height="1080"
   width="1920">
  <defs
     id="defs13129" />
  <sodipodi:namedview
     inkscape:window-maximized="0"
     inkscape:window-y="82"
     inkscape:window-x="27"
     inkscape:window-height="907"
     inkscape:window-width="1600"
     width="1920px"
     units="px"
     showgrid="false"
     inkscape:document-rotation="0"
     inkscape:current-layer="layer1"
     inkscape:document-units="mm"
     inkscape:cy="560"
     inkscape:cx="704.28571"
     inkscape:zoom="0.35"
     inkscape:pageshadow="2"
     inkscape:pageopacity="0.0"
     borderopacity="1.0"
     bordercolor="#666666"
     pagecolor="#ffffff"
     id="base" />
  <metadata
     id="metadata13132">
    <rdf:RDF>
      <cc:Work
         rdf:about="">
        <dc:format>image/svg+xml</dc:format>
        <dc:type
           rdf:resource="http://purl.org/dc/dcmitype/StillImage" />
        <dc:title></dc:title>
      </cc:Work>
    </rdf:RDF>
  </metadata>
  <g
     id="layer1"
     inkscape:groupmode="layer"
     inkscape:label="Layer 1">
    <g
       transform="matrix(1.3229166,0,0,1.3229166,-671.5786,-220.00102)"
       id="g22458">
      <path
         fill-rule="evenodd"
         clip-rule="evenodd"
         d="M 517,308 H 846.2 L 868,296.9 V 292 h -29.6 c -1.5,-19 -17.5,-34 -36.9,-34 -19.4,0 -35.4,15 -36.9,34 h -149 c -1.5,-18 -17.1,-33.2 -36.1,-33.2 -19,0 -34.6,15.2 -36.2,33.2 H 517 Z"
         id="path15619"
         inkscape:connector-curvature="0"
         style="opacity:1;stop-opacity:1" />
      <path
         fill-rule="evenodd"
         clip-rule="evenodd"
         fill="#FFE000"
         d="m 517,305 h 29.8 c -1,-3 -1.6,-6.7 -1.6,-10.3 0,-18.9 15.3,-34.2 34.2,-34.2 18.9,0 34.2,15.3 34.2,34.2 0,3.6 -0.6,7.3 -1.6,10.3 h 156.8 c -1,-3 -1.6,-6.7 -1.6,-10.3 0,-18.9 15.3,-34.2 34.2,-34.2 18.9,0 34.2,15.3 34.2,34.2 0,3.6 -0.6,7.3 -1.6,10.3 h 8.2 l 25.7,-12.8 v -41.6 c -95,-16.4 -98.5,22.9 -224,-0.1 -45.4,-8.3 -91,3.4 -127,38.2 V 305 Z"
         id="path15621"
         inkscape:connector-curvature="0"
         style="opacity:1;stop-opacity:1" />
      <path
         fill-rule="evenodd"
         clip-rule="evenodd"
         fill="#978600"
         d="m 794.1,221 38.7,12.8 35.6,16.8 c -95.4,-16.4 -98.3,23 -223.8,0 C 670.9,235 709.2,221 735,221 Z"
         id="path15623"
         inkscape:connector-curvature="0"
         style="opacity:1;stop-opacity:1" />
      <path
         fill-rule="evenodd"
         clip-rule="evenodd"
         fill="#C0AA00"
         d="m 517,289 h 22.7 l 6.2,-0.9 c -0.4,2.2 -0.7,4.4 -0.7,6.7 0,3.6 0.6,7.2 1.6,10.2 H 517 Z m 93.3,-9 23.6,-2.9 107.9,2.4 32.1,-5 c -4.2,5.7 -6.6,12.7 -6.6,20.3 0,3.6 0.5,7.3 1.6,10.3 H 612 c 1,-3 1.6,-6.7 1.6,-10.3 0,-5.4 -1.2,-10.4 -3.3,-14.8 z m 211.1,-13 46.6,-7.3 v 32 L 842.3,305 h -8.2 c 1,-3 1.5,-6.7 1.5,-10.3 0,-11.4 -5.7,-21.5 -14.2,-27.7 z"
         id="path15625"
         inkscape:connector-curvature="0"
         style="opacity:1;stop-opacity:1" />
      <path
         fill-rule="evenodd"
         clip-rule="evenodd"
         fill="#313131"
         d="m 579.4,261.9 c 18.1,0 32.8,14.7 32.8,32.8 0,18.2 -14.7,32.9 -32.8,32.9 -18.2,0 -32.9,-14.7 -32.9,-32.9 0.1,-18.2 14.8,-32.8 32.9,-32.8 z m 0,13.9 c 10.4,0 18.8,8.4 18.8,18.8 0,10.4 -8.4,18.9 -18.8,18.9 -10.4,0 -18.9,-8.4 -18.9,-18.9 0.1,-10.3 8.5,-18.8 18.9,-18.8 z"
         id="path15627"
         inkscape:connector-curvature="0"
         style="opacity:1;stop-opacity:1" />
      <path
         fill-rule="evenodd"
         clip-rule="evenodd"
         fill="#CACACA"
         d="m 579.4,272.4 c 12.3,0 22.3,10 22.3,22.3 0,12.3 -10,22.3 -22.3,22.3 -12.3,0 -22.3,-10 -22.3,-22.3 0,-12.3 10,-22.3 22.3,-22.3 z m 1.6,4.8 v 12.9 l 9.1,-9.1 c -2.6,-2.1 -5.1,-3.4 -9.1,-3.8 z m 12.1,7.7 -9.1,9.1 h 12.9 c -0.4,-4 -1.7,-6.6 -3.8,-9.1 z m 3.8,12.1 H 584 l 9.1,9.1 c 2.1,-2.6 3.4,-6.1 3.8,-9.1 z m -6.8,11.4 -9.1,-9.1 v 12.9 c 4,-0.4 6.5,-1.7 9.1,-3.8 z m -12.1,3.8 v -12.9 l -9.1,9.1 c 2.6,2.1 5.1,3.4 9.1,3.8 z m -12.3,-6.1 9.1,-9.1 h -12.9 c 0.4,3 1.7,6.5 3.8,9.1 z M 561.9,294 h 12.9 l -9.1,-9.1 c -2.1,2.5 -3.4,5.1 -3.8,9.1 z m 7,-13 9.1,9.1 v -12.9 c -4,0.4 -6.5,1.7 -9.1,3.8 z"
         id="path15629"
         inkscape:connector-curvature="0"
         style="opacity:1;stop-opacity:1" />
      <path
         fill-rule="evenodd"
         clip-rule="evenodd"
         fill="#313131"
         d="m 801.5,261.9 c 18.1,0 32.9,14.7 32.9,32.8 0,18.2 -14.7,32.9 -32.9,32.9 -18.2,0 -32.9,-14.7 -32.9,-32.9 0,-18.2 14.8,-32.8 32.9,-32.8 z m 0,13.9 c 10.4,0 18.9,8.4 18.9,18.8 0,10.4 -8.4,18.9 -18.9,18.9 -10.5,0 -18.9,-8.4 -18.9,-18.9 0,-10.3 8.4,-18.8 18.9,-18.8 z"
         id="path15631"
         inkscape:connector-curvature="0"
         style="opacity:1;stop-opacity:1" />
      <path
         fill-rule="evenodd"
         clip-rule="evenodd"
         fill="#CACACA"
         d="m 801.5,272.4 c 12.3,0 22.3,10 22.3,22.3 0,12.3 -9.9,22.3 -22.3,22.3 -12.3,0 -22.3,-10 -22.3,-22.3 0,-12.3 10,-22.3 22.3,-22.3 z m 2.5,4.8 v 12.9 l 9.1,-9.1 c -2.5,-2.1 -6.1,-3.4 -9.1,-3.8 z m 11.2,7.7 -9.1,9.1 H 819 c -0.4,-4 -1.8,-6.6 -3.8,-9.1 z M 819,297 h -12.9 l 9.1,9.1 c 2,-2.6 3.4,-6.1 3.8,-9.1 z m -5.9,11.4 -9.1,-9.1 v 12.9 c 3,-0.4 6.6,-1.7 9.1,-3.8 z m -13.1,3.8 v -12.9 l -9.1,9.1 c 2.5,2.1 5.4,3.4 9.1,3.8 z m -12.2,-6.1 9.1,-9.1 H 784 c 0.4,3 1.7,6.5 3.8,9.1 z M 784,294 h 12.9 l -9.1,-9.1 c -2.1,2.5 -3.4,5.1 -3.8,9.1 z m 6.9,-13 9.1,9.1 v -12.9 c -3.7,0.4 -6.6,1.7 -9.1,3.8 z"
         id="path15633"
         inkscape:connector-curvature="0"
         style="opacity:1;stop-opacity:1" />
      <path
         fill-rule="evenodd"
         clip-rule="evenodd"
         d="m 794.1,226 17.1,21.4 c -27.4,1.7 -47.4,8.8 -77.8,10.7 l 5.3,-32.2 h 55.4 z"
         id="path15635"
         inkscape:connector-curvature="0"
         style="opacity:1;stop-opacity:1" />
      <path
         fill-rule="evenodd"
         clip-rule="evenodd"
         d="m 729.6,257.6 c -20.2,1 -45,-0.1 -79.3,-6.1 25.9,-14.3 60.8,-26.8 84.8,-26.6 z"
         id="path15637"
         inkscape:connector-curvature="0"
         style="opacity:1;stop-opacity:1" />
      <polygon
         fill-rule="evenodd"
         clip-rule="evenodd"
         fill="#FFE000"
         points="882.4,233 878.3,242 832,242 836.2,233 "
         id="polygon15639"
         style="opacity:1;stop-opacity:1" />
      <path
         fill-rule="evenodd"
         clip-rule="evenodd"
         fill="#C0AA00"
         d="m 842.9,242 h 31.3 l -12.1,6.1 c -8.3,-1.3 -17.5,-1.9 -27.8,-2.1 z"
         id="path15641"
         inkscape:connector-curvature="0"
         style="opacity:1;stop-opacity:1" />
      <path
         fill-rule="evenodd"
         clip-rule="evenodd"
         fill="#FFFF00"
         d="m 517,291 h 15.5 c 1.4,0 2.5,0.9 2.5,2.3 v 4.1 c 0,1.5 -1.2,2.6 -2.7,2.6 H 517 Z"
         id="path15643"
         inkscape:connector-curvature="0"
         style="opacity:1;stop-opacity:1" />
      <path
         fill-rule="evenodd"
         clip-rule="evenodd"
         fill="#FFFF00"
         d="m 868,264 h -7.3 c -1.6,0 -2.7,1.6 -2.7,3.2 v 11.9 c 0,1.7 1.2,3.9 2.9,3.9 h 7.1 z"
         id="path15645"
         inkscape:connector-curvature="0"
         style="opacity:1;stop-opacity:1" />
      <path
         d="m 733.7,257 13.8,9.7 0.3,0.2 -0.1,0.3 -15.2,38 -0.9,-0.3 15,-37.6 -13.5,-9.4 z m -95,48 c 0.3,-6.6 0.1,-13.6 -1.9,-20.4 -2,-6.9 -5.7,-13.7 -12.4,-20 l -0.5,-0.4 0.6,-0.3 22.5,-13.2 0.5,0.8 -22,12.9 c 6.6,6.4 10.3,13.2 12.2,20 2,7 2.2,14.1 1.9,20.7 z"
         id="path15647"
         inkscape:connector-curvature="0"
         style="opacity:1;stop-opacity:1" />
      <path
         fill-rule="evenodd"
         clip-rule="evenodd"
         fill="#4B4B4B"
         d="m 611.4,282.5 104,-19 -54.8,19.1 L 828.2,250.3 647.5,305 H 612 c 1,-3 1.6,-6.7 1.6,-10.3 0,-4.3 -0.8,-8.4 -2.2,-12.2 z m 112.1,22.5 43.8,-12.5 c -0.1,0.7 -0.1,1.5 -0.1,2.2 0,2.2 0.2,4.4 0.6,6.5 l -9.7,3.9 h -34.6 z m 105.8,-30.2 16.3,-4.7 -15.3,6.1 c -0.3,-0.5 -0.7,-0.9 -1,-1.4 z"
         id="path15649"
         inkscape:connector-curvature="0"
         style="opacity:1;stop-opacity:1" />
      <path
         fill-rule="evenodd"
         clip-rule="evenodd"
         fill="#181818"
         d="m 611.7,282.5 28.9,-5.3 33.4,0.7 -13.4,4.7 22.9,-4.4 49.1,1.1 -85,25.8 H 612 c 1,-3 2,-6.7 2,-10.3 v -0.2 -0.1 -0.2 -0.1 -0.2 -0.1 -0.1 -0.1 -0.2 0 -0.1 -0.1 -0.1 -0.1 -0.1 -0.1 -0.1 0 -0.2 c 0,-0.1 0,-0.2 0,-0.4 v 0 c 0,-3.5 -1.2,-6.7 -2.3,-9.7 z m 156,10 c 0,0.6 0.3,1.1 0.3,1.6 v 0 0 0 0.1 0 0.1 c 0,0.1 0,0.2 0,0.3 v 0.1 0.1 0 0.1 0 0 0.1 0 0 0.1 0 0 0.1 0 0.1 0.1 0 0.1 0 0.1 0 0.1 0 0 0.1 0 0 0.1 0 0 0.1 0 0 0.1 0.1 0 0.1 0 0 0.1 0 0 0.1 0 0 0.1 0 0.1 0.1 0 0.1 0.1 0 0.1 0 0.1 0 0.1 0 0.1 0 0.1 0.1 0 0.1 0 0.1 0.1 0 0.1 0 0.1 0.1 0 0.1 0.1 0 0.1 0 0.1 0.1 0.1 0 0.1 0 0.1 0.1 0 0.1 0 0.1 0.1 0.1 0 0.1 0.1 0 0.1 0.1 0.1 0.2 0.1 0.1 l -9.7,3.9 h -34.7 z m 61.6,-17.7 16.3,-4.7 -15.3,6.1 c -0.3,-0.5 -0.7,-0.9 -1,-1.4 z"
         id="path15651"
         inkscape:connector-curvature="0"
         style="opacity:1;stop-opacity:1" />
      <path
         fill-rule="evenodd"
         clip-rule="evenodd"
         fill="#FFFFFF"
         d="m 639,305 h -27 c 0.8,-3 1.4,-5.6 1.5,-8.5 l 147.3,-28.4 z m -25.4,-11.7 c -0.1,-1.9 -0.3,-3.8 -0.7,-5.6 l 35.2,-6.4 z m 119.6,11.7 34.1,-9.7 c 0,0.9 0.1,1.9 0.1,2.8 l -17.2,6.9 z"
         id="path15653"
         inkscape:connector-curvature="0"
         style="opacity:1;stop-opacity:1" />
      <path
         fill-rule="evenodd"
         clip-rule="evenodd"
         fill="#979797"
         d="m 639,305 h -26.3 c 0.5,-1 0.8,-4.1 0.9,-6.2 l 126.1,-24.2 z m -25.7,-15 20.6,-3.7 -20.4,7.1 c 0.1,-1.2 -0.1,-2.3 -0.2,-3.4 z m 128.1,15 26.6,-7.4 c 0,0.2 0,0.4 0,0.6 l -17.8,6.8 z"
         id="path15655"
         inkscape:connector-curvature="0"
         style="opacity:1;stop-opacity:1" />
    </g>
  </g>
</svg>
